<?xml version="1.0" encoding="UTF-8" standalone="no"?>
<!-- Created with Inkscape (http://www.inkscape.org/) -->

<svg
   xmlns:dc="http://purl.org/dc/elements/1.1/"
   xmlns:cc="http://creativecommons.org/ns#"
   xmlns:rdf="http://www.w3.org/1999/02/22-rdf-syntax-ns#"
   xmlns:svg="http://www.w3.org/2000/svg"
   xmlns="http://www.w3.org/2000/svg"
   version="1.1"
   width="32"
   height="32"
   id="svg4644">
  <defs
     id="defs4646" />
  <metadata
     id="metadata4649">
    <rdf:RDF>
      <cc:Work
         rdf:about="">
        <dc:format>image/svg+xml</dc:format>
        <dc:type
           rdf:resource="http://purl.org/dc/dcmitype/StillImage" />
        <dc:title></dc:title>
      </cc:Work>
    </rdf:RDF>
  </metadata>
  <g
     id="layer1">
    <path
       d="M 1.208767,1.3689887 C 1.6929854,6.4653688 1.1211619,22.110548 5.5368009,24.945044 14.671323,29.250057 13.763512,6.7598196 20.666358,3.2355135 27.518244,-0.36990083 30.503086,8.4408971 30.76628,16.202302"
       id="path4652"
       style="fill:none;stroke:#000000;stroke-width:2;stroke-linecap:round;stroke-linejoin:miter;stroke-miterlimit:4;stroke-opacity:1;stroke-dasharray:none" />
    <path
       d="M 31.067349,31.218427 4.1054881,0.38720148"
       id="path3013"
       style="fill:none;stroke:#ff0034;stroke-width:2.01399994;stroke-linecap:butt;stroke-linejoin:round;stroke-miterlimit:4;stroke-opacity:1;stroke-dasharray:4.02799988, 2.01399994;stroke-dashoffset:6.6461998;marker-start:none" />
    <path
       d="m 111.11678,231.10817 a 26.263966,25.253813 0 1 1 -52.527932,0 26.263966,25.253813 0 1 1 52.527932,0 z"
       transform="matrix(0.06450027,0,0,0.06850076,22.478799,11.626125)"
       id="path2985-2-9-1"
       style="fill:#000000;fill-opacity:1;stroke:#370000;stroke-width:23.55934906;stroke-linejoin:round;stroke-miterlimit:4.9000001;stroke-opacity:0.93950177;stroke-dasharray:none;stroke-dashoffset:0" />
    <path
       d="m 111.11678,231.10817 a 26.263966,25.253813 0 1 1 -52.527932,0 26.263966,25.253813 0 1 1 52.527932,0 z"
       transform="matrix(0.06450027,0,0,0.06850076,9.6237478,-2.7413128)"
       id="path2985-2-9-1-5"
       style="fill:#f73208;fill-opacity:1;stroke:#f73208;stroke-width:23.55934906;stroke-linejoin:round;stroke-miterlimit:4.9000001;stroke-opacity:1;stroke-dasharray:none;stroke-dashoffset:0" />
  </g>
</svg>
