<?xml version="1.0" encoding="UTF-8" standalone="no"?>
<!-- Created with Inkscape (http://www.inkscape.org/) -->

<svg
   xmlns:dc="http://purl.org/dc/elements/1.1/"
   xmlns:cc="http://creativecommons.org/ns#"
   xmlns:rdf="http://www.w3.org/1999/02/22-rdf-syntax-ns#"
   xmlns:svg="http://www.w3.org/2000/svg"
   xmlns="http://www.w3.org/2000/svg"
   xmlns:sodipodi="http://sodipodi.sourceforge.net/DTD/sodipodi-0.dtd"
   xmlns:inkscape="http://www.inkscape.org/namespaces/inkscape"
   version="1.1"
   width="32"
   height="32"
   id="svg2985"
   inkscape:version="0.92.2 (unknown)"
   sodipodi:docname="move.svg"
   inkscape:export-filename="/home/dismine/CAD/Valentina_0.5.x/valentina/src/app/valentina/share/resources/toolicon/32x32/moving.png"
   inkscape:export-xdpi="96"
   inkscape:export-ydpi="96">
  <sodipodi:namedview
     pagecolor="#ffffff"
     bordercolor="#666666"
     borderopacity="1"
     objecttolerance="10"
     gridtolerance="10"
     guidetolerance="10"
     inkscape:pageopacity="0"
     inkscape:pageshadow="2"
     inkscape:window-width="1855"
     inkscape:window-height="1056"
     id="namedview12"
     showgrid="false"
     inkscape:zoom="7.9121197"
     inkscape:cx="26.876036"
     inkscape:cy="2.994024"
     inkscape:window-x="65"
     inkscape:window-y="24"
     inkscape:window-maximized="1"
     inkscape:current-layer="svg2985" />
  <defs
     id="defs2987">
    <marker
       inkscape:stockid="Arrow1Lstart"
       orient="auto"
       refY="0.0"
       refX="0.0"
       id="marker4515"
       style="overflow:visible"
       inkscape:isstock="true">
      <path
         id="path4517"
         d="M 0.0,0.0 L 5.0,-5.0 L -12.5,0.0 L 5.0,5.0 L 0.0,0.0 z "
         style="fill-rule:evenodd;stroke:#000000;stroke-width:1pt;stroke-opacity:1;fill:#000000;fill-opacity:1"
         transform="scale(0.8) translate(12.5,0)" />
    </marker>
    <marker
       inkscape:stockid="TriangleInL"
       orient="auto"
       refY="0.0"
       refX="0.0"
       id="TriangleInL"
       style="overflow:visible"
       inkscape:isstock="true">
      <path
         id="path4274"
         d="M 5.77,0.0 L -2.88,5.0 L -2.88,-5.0 L 5.77,0.0 z "
         style="fill-rule:evenodd;stroke:#000000;stroke-width:1pt;stroke-opacity:1;fill:#000000;fill-opacity:1"
         transform="scale(-0.8)" />
    </marker>
    <marker
       inkscape:stockid="Arrow1Lstart"
       orient="auto"
       refY="0.0"
       refX="0.0"
       id="marker4443"
       style="overflow:visible"
       inkscape:isstock="true">
      <path
         id="path4445"
         d="M 0.0,0.0 L 5.0,-5.0 L -12.5,0.0 L 5.0,5.0 L 0.0,0.0 z "
         style="fill-rule:evenodd;stroke:#000000;stroke-width:1pt;stroke-opacity:1;fill:#000000;fill-opacity:1"
         transform="scale(0.8) translate(12.5,0)" />
    </marker>
    <marker
       inkscape:stockid="Arrow1Lstart"
       orient="auto"
       refY="0.0"
       refX="0.0"
       id="Arrow1Lstart"
       style="overflow:visible"
       inkscape:isstock="true">
      <path
         id="path4141"
         d="M 0.0,0.0 L 5.0,-5.0 L -12.5,0.0 L 5.0,5.0 L 0.0,0.0 z "
         style="fill-rule:evenodd;stroke:#000000;stroke-width:1pt;stroke-opacity:1;fill:#000000;fill-opacity:1"
         transform="scale(0.8) translate(12.5,0)" />
    </marker>
    <marker
       inkscape:stockid="TriangleOutL"
       orient="auto"
       refY="0.0"
       refX="0.0"
       id="TriangleOutL"
       style="overflow:visible"
       inkscape:isstock="true">
      <path
         id="path4283"
         d="M 5.77,0.0 L -2.88,5.0 L -2.88,-5.0 L 5.77,0.0 z "
         style="fill-rule:evenodd;stroke:#000000;stroke-width:1pt;stroke-opacity:1;fill:#000000;fill-opacity:1"
         transform="scale(0.8)" />
    </marker>
  </defs>
  <metadata
     id="metadata2990">
    <rdf:RDF>
      <cc:Work
         rdf:about="">
        <dc:format>image/svg+xml</dc:format>
        <dc:type
           rdf:resource="http://purl.org/dc/dcmitype/StillImage" />
        <dc:title />
      </cc:Work>
    </rdf:RDF>
  </metadata>
  <path
     inkscape:connector-curvature="0"
     style="fill:none;fill-opacity:1;stroke:#f70000;stroke-width:0.942;stroke-linejoin:round;stroke-miterlimit:4.9000001;stroke-dasharray:1.884,0.942;stroke-dashoffset:0;stroke-opacity:1"
     id="path2985-2-9-3-5"
     d="m 27.614916,7.8995439 a 3.6438753,3.4726345 0 0 1 -7.28775,0 3.6438753,3.4726345 0 1 1 7.28775,0 z" />
  <path
     inkscape:connector-curvature="0"
     style="fill:#000000;fill-opacity:1;stroke:#000000;stroke-width:1.99787223;stroke-linejoin:round;stroke-miterlimit:4.9000001;stroke-dasharray:none;stroke-dashoffset:0;stroke-opacity:1"
     id="path2985-2-9-3"
     d="m 5.8006808,28.556891 a 2.245837,2.1748076 0 0 1 -4.491674,0 2.245837,2.1748076 0 1 1 4.491674,0 z" />
  <path
     style="fill:#000000;stroke-width:0.76000571"
     d="m 8.1563158,20.824225 c 1.9000532,-1.914281 3.4276332,-3.503077 3.3946172,-3.530658 -0.03301,-0.02758 -1.008909,-0.423413 -2.1686596,-0.87963 -1.1597492,-0.456218 -2.1548917,-0.863698 -2.2114305,-0.905511 -0.1225468,-0.09064 -0.1488639,-0.41018 -0.03936,-0.477937 0.042538,-0.0263 2.5149915,-0.38482 5.4943411,-0.796669 3.774587,-0.521773 5.461392,-0.727099 5.56341,-0.677201 0.08053,0.03939 0.148112,0.130531 0.150187,0.202554 0.0091,0.313581 -1.006966,10.401929 -1.055753,10.483017 -0.07175,0.119264 -0.402509,0.11956 -0.507247,4.72e-4 -0.04566,-0.05192 -0.502986,-0.948309 -1.016282,-1.991969 -0.513294,-1.043666 -0.970982,-1.961719 -1.017081,-2.040122 -0.07306,-0.124274 -0.533551,0.310232 -3.591805,3.389206 -1.9293941,1.942465 -3.5405993,3.532182 -3.5804585,3.532705 -0.039858,5.13e-4 -0.6989601,-0.565333 -1.4646707,-1.257448 -0.8951316,-0.809115 -1.3943872,-1.314087 -1.3983256,-1.414362 -0.00408,-0.103826 1.148398,-1.319126 3.4485193,-3.63647 z"
     id="path3347"
     inkscape:connector-curvature="0" />
  <path
     inkscape:connector-curvature="0"
     id="path3349"
     d="m 21.919204,15.169117 c -0.500441,-0.09947 -1.256361,-0.327666 -1.679806,-0.507122 -0.923565,-0.391401 -2.391376,-1.418481 -2.733125,-1.912462 -0.243152,-0.351474 -0.241173,-0.359861 0.158579,-0.672502 1.006199,-0.786947 0.958824,-0.782458 1.696912,-0.160744 0.839415,0.707067 2.114156,1.283502 3.261752,1.474958 1.756792,0.29309 3.647412,-0.308109 5.015549,-1.594906 2.386176,-2.2443084 2.398812,-5.737581 0.02892,-7.980996 -1.847632,-1.7489854 -4.518348,-2.1808945 -6.838263,-1.105887 -0.883611,0.4094496 -2.270077,1.6049981 -2.270077,1.9574827 0,0.1553101 0.301473,0.3650914 0.916178,0.6375406 0.503907,0.2233338 0.892626,0.4730278 0.863813,0.5548694 -0.08519,0.2421216 -4.873593,2.9103535 -4.99881,2.7854932 -0.09626,-0.095946 -0.843558,-4.938914 -0.84141,-5.4526815 3.79e-4,-0.1093782 0.291196,-0.028742 0.836603,0.2320163 0.45975,0.2198108 0.950253,0.3996539 1.089994,0.3996539 0.141775,0 0.484162,-0.2918891 0.774601,-0.6603454 0.902641,-1.1451311 2.290162,-2.0430747 4.018728,-2.60076543 1.066196,-0.3439928 3.407251,-0.3451049 4.479479,-0.002 2.699424,0.86346213 4.629396,2.71545813 5.404033,5.18567723 0.37727,1.2030819 0.34503,3.0596182 -0.07438,4.286049 -1.247296,3.646887 -5.24965,5.903878 -9.109162,5.136802 z"
     style="fill:#4c4c4e;stroke-width:0.1044118;stroke-miterlimit:4.9000001;stroke-dasharray:none" />
</svg>
