<?xml version="1.0" encoding="UTF-8" standalone="no"?>
<!-- Created with Inkscape (http://www.inkscape.org/) -->

<svg
   xmlns:dc="http://purl.org/dc/elements/1.1/"
   xmlns:cc="http://creativecommons.org/ns#"
   xmlns:rdf="http://www.w3.org/1999/02/22-rdf-syntax-ns#"
   xmlns:svg="http://www.w3.org/2000/svg"
   xmlns="http://www.w3.org/2000/svg"
   version="1.1"
   width="32"
   height="32"
   id="svg3837">
  <defs
     id="defs3839" />
  <metadata
     id="metadata3842">
    <rdf:RDF>
      <cc:Work
         rdf:about="">
        <dc:format>image/svg+xml</dc:format>
        <dc:type
           rdf:resource="http://purl.org/dc/dcmitype/StillImage" />
        <dc:title></dc:title>
      </cc:Work>
    </rdf:RDF>
  </metadata>
  <g
     id="layer1">
    <path
       d="m 111.11678,231.10817 a 26.263966,25.253813 0 1 1 -52.527932,0 26.263966,25.253813 0 1 1 52.527932,0 z"
       transform="matrix(0.06614881,0,0,0.0684845,-1.0207438,13.521016)"
       id="path2985-2"
       style="fill:#000000;fill-opacity:1;stroke:#370000;stroke-width:23.28154755;stroke-linejoin:round;stroke-miterlimit:4.9000001;stroke-opacity:0.93950177;stroke-dasharray:none;stroke-dashoffset:0" />
    <path
       d="M 4.8566694,2.0970551 4.6816952,29.795412"
       id="path3009"
       style="fill:none;stroke:#000000;stroke-width:2.01399994;stroke-linecap:butt;stroke-linejoin:miter;stroke-miterlimit:4;stroke-opacity:1;stroke-dasharray:none" />
    <path
       d="M 31.527606,7.5484527 0.33490031,16.436645"
       id="path3013"
       style="fill:none;stroke:#ff0034;stroke-width:2.01399994;stroke-linecap:butt;stroke-linejoin:round;stroke-miterlimit:4;stroke-opacity:1;stroke-dasharray:4.02799988, 2.01399994;stroke-dashoffset:6.6461998;marker-start:none" />
    <path
       d="m 111.11678,231.10817 a 26.263966,25.253813 0 1 1 -52.527932,0 26.263966,25.253813 0 1 1 52.527932,0 z"
       transform="matrix(0.06944575,0,0,0.07558065,-1.1336867,-14.642141)"
       id="path2985-2-9"
       style="fill:#000000;fill-opacity:1;stroke:#370000;stroke-width:21.69823456;stroke-linejoin:round;stroke-miterlimit:4.9000001;stroke-opacity:0.93950177;stroke-dasharray:none;stroke-dashoffset:0" />
    <path
       d="m 111.11678,231.10817 a 26.263966,25.253813 0 1 1 -52.527932,0 26.263966,25.253813 0 1 1 52.527932,0 z"
       transform="matrix(0.06450027,0,0,0.06850076,15.929746,-5.6660078)"
       id="path2985-2-9-1"
       style="fill:#000000;fill-opacity:1;stroke:#370000;stroke-width:23.55934906;stroke-linejoin:round;stroke-miterlimit:4.9000001;stroke-opacity:0.93950177;stroke-dasharray:none;stroke-dashoffset:0" />
    <path
       d="m 111.11678,231.10817 a 26.263966,25.253813 0 1 1 -52.527932,0 26.263966,25.253813 0 1 1 52.527932,0 z"
       transform="matrix(0.06450027,0,0,0.06850076,-0.78252491,-1.0666106)"
       id="path2985-2-9-1-5"
       style="fill:#f73208;fill-opacity:1;stroke:#f73208;stroke-width:23.55934906;stroke-linejoin:round;stroke-miterlimit:4.9000001;stroke-opacity:1;stroke-dasharray:none;stroke-dashoffset:0" />
  </g>
</svg>
