<?xml version="1.0" encoding="UTF-8" standalone="no"?>
<svg
   xmlns:dc="http://purl.org/dc/elements/1.1/"
   xmlns:cc="http://creativecommons.org/ns#"
   xmlns:rdf="http://www.w3.org/1999/02/22-rdf-syntax-ns#"
   xmlns:svg="http://www.w3.org/2000/svg"
   xmlns="http://www.w3.org/2000/svg"
   xmlns:sodipodi="http://sodipodi.sourceforge.net/DTD/sodipodi-0.dtd"
   xmlns:inkscape="http://www.inkscape.org/namespaces/inkscape"
   id="svg1"
   sodipodi:docname="paths.svg"
   viewBox="0 0 60 60"
   sodipodi:version="0.32"
   _SVGFile__filename="oldscale/actions/circle.svg"
   version="1.0"
   y="0"
   x="0"
   inkscape:version="0.92.1 unknown"
   width="64"
   height="64"
   inkscape:export-filename="/home/dismine/CAD/Valentina_tab/valentina/src/libs/vmisc/share/resources/icon/svg/paths@2x.png"
   inkscape:export-xdpi="96"
   inkscape:export-ydpi="96">
  <defs
     id="defs16" />
  <sodipodi:namedview
     id="base"
     bordercolor="#666666"
     inkscape:pageshadow="2"
     inkscape:window-y="34"
     pagecolor="#ffffff"
     inkscape:window-height="883"
     inkscape:zoom="4.6034679"
     inkscape:window-x="75"
     borderopacity="1.0"
     inkscape:current-layer="svg1"
     inkscape:cx="15.54976"
     inkscape:cy="26.322299"
     inkscape:window-width="1411"
     inkscape:pageopacity="0.0000000"
     showgrid="false"
     inkscape:window-maximized="0" />
  <path
     id="path1345"
     sodipodi:nodetypes="ccccc"
     style="color:#000000;fill:none;stroke:#ffffff;stroke-width:10;stroke-linecap:round;stroke-linejoin:round"
     d="m 14.377,23.115 28.246,-13 8,30.246 -41.246,10 z"
     inkscape:connector-curvature="0" />
  <path
     id="path1321"
     style="color:#000000;display:block;fill:none;stroke:#ffffff;stroke-width:8.125;stroke-linecap:round;stroke-linejoin:round"
     d="m 20.773,23.483 c 0,3.276 -2.658,5.935 -5.934,5.935 -3.276,0 -5.9349,-2.659 -5.9349,-5.935 0,-3.276 2.6589,-5.934 5.9349,-5.934 3.276,0 5.934,2.658 5.934,5.934 z"
     inkscape:connector-curvature="0" />
  <path
     id="path2085"
     style="color:#000000;display:block;fill:none;stroke:#ffffff;stroke-width:8.125;stroke-linecap:round;stroke-linejoin:round"
     d="m 55.313,39.992 c 0,3.276 -2.659,5.935 -5.935,5.935 -3.276,0 -5.935,-2.659 -5.935,-5.935 0,-3.275 2.659,-5.934 5.935,-5.934 3.276,0 5.935,2.659 5.935,5.934 z"
     inkscape:connector-curvature="0" />
  <path
     id="path1318"
     style="color:#000000;display:block;fill:none;stroke:#ffffff;stroke-width:8.125;stroke-linecap:round;stroke-linejoin:round"
     d="m 16.557,49.116 c 0,3.276 -2.659,5.935 -5.935,5.935 -3.2758,0 -5.9345,-2.659 -5.9345,-5.935 0,-3.276 2.6587,-5.935 5.9345,-5.935 3.276,0 5.935,2.659 5.935,5.935 z"
     inkscape:connector-curvature="0" />
  <path
     id="path1317"
     style="color:#000000;display:block;fill:none;stroke:#ffffff;stroke-width:8.125;stroke-linecap:round;stroke-linejoin:round"
     d="m 48.361,10.884 c 0,3.276 -2.658,5.935 -5.934,5.935 -3.276,0 -5.935,-2.659 -5.935,-5.935 0,-3.2759 2.659,-5.9346 5.935,-5.9346 3.276,0 5.934,2.6587 5.934,5.9346 z"
     inkscape:connector-curvature="0" />
  <path
     id="rect2089"
     sodipodi:nodetypes="ccccc"
     style="color:#000000;fill:#c5d8ef;stroke:#000000;stroke-width:5;stroke-linecap:round;stroke-linejoin:round"
     d="m 14.377,23.115 28.246,-13 8,30.246 -41.246,10 z"
     inkscape:connector-curvature="0" />
  <path
     id="path1319"
     style="color:#000000;display:block;fill:#ffe940;stroke:#000000;stroke-width:3.125;stroke-linecap:round;stroke-linejoin:round"
     d="m 48.361,10.884 c 0,3.276 -2.658,5.935 -5.934,5.935 -3.276,0 -5.935,-2.659 -5.935,-5.935 0,-3.2759 2.659,-5.9346 5.935,-5.9346 3.276,0 5.934,2.6587 5.934,5.9346 z"
     inkscape:connector-curvature="0" />
  <path
     id="path1320"
     style="color:#000000;display:block;fill:#ffe940;stroke:#000000;stroke-width:3.125;stroke-linecap:round;stroke-linejoin:round"
     d="m 16.557,49.116 c 0,3.276 -2.659,5.935 -5.935,5.935 -3.2758,0 -5.9345,-2.659 -5.9345,-5.935 0,-3.276 2.6587,-5.935 5.9345,-5.935 3.276,0 5.935,2.659 5.935,5.935 z"
     inkscape:connector-curvature="0" />
  <path
     id="path2087"
     style="color:#000000;display:block;fill:#ffe940;stroke:#000000;stroke-width:3.125;stroke-linecap:round;stroke-linejoin:round"
     d="m 55.313,39.992 c 0,3.276 -2.659,5.935 -5.935,5.935 -3.276,0 -5.935,-2.659 -5.935,-5.935 0,-3.275 2.659,-5.934 5.935,-5.934 3.276,0 5.935,2.659 5.935,5.934 z"
     inkscape:connector-curvature="0" />
  <path
     id="path1323"
     style="color:#000000;display:block;fill:#ffe940;stroke:#000000;stroke-width:3.125;stroke-linecap:round;stroke-linejoin:round"
     d="m 20.773,23.483 c 0,3.276 -2.658,5.935 -5.934,5.935 -3.276,0 -5.9349,-2.659 -5.9349,-5.935 0,-3.276 2.6589,-5.934 5.9349,-5.934 3.276,0 5.934,2.658 5.934,5.934 z"
     inkscape:connector-curvature="0" />
  <metadata
     id="metadata13">
    <rdf:RDF>
      <cc:Work>
        <dc:format>image/svg+xml</dc:format>
        <dc:type
           rdf:resource="http://purl.org/dc/dcmitype/StillImage" />
        <cc:license
           rdf:resource="http://creativecommons.org/publicdomain/zero/1.0/" />
        <dc:publisher>
          <cc:Agent
             rdf:about="http://openclipart.org/">
            <dc:title>Openclipart</dc:title>
          </cc:Agent>
        </dc:publisher>
      </cc:Work>
      <cc:License
         rdf:about="http://creativecommons.org/publicdomain/zero/1.0/">
        <cc:permits
           rdf:resource="http://creativecommons.org/ns#Reproduction" />
        <cc:permits
           rdf:resource="http://creativecommons.org/ns#Distribution" />
        <cc:permits
           rdf:resource="http://creativecommons.org/ns#DerivativeWorks" />
      </cc:License>
    </rdf:RDF>
  </metadata>
</svg>
