<?xml version="1.0" encoding="UTF-8" standalone="no"?>
<!-- Created with Inkscape (http://www.inkscape.org/) -->

<svg
   xmlns:dc="http://purl.org/dc/elements/1.1/"
   xmlns:cc="http://creativecommons.org/ns#"
   xmlns:rdf="http://www.w3.org/1999/02/22-rdf-syntax-ns#"
   xmlns:svg="http://www.w3.org/2000/svg"
   xmlns="http://www.w3.org/2000/svg"
   xmlns:sodipodi="http://sodipodi.sourceforge.net/DTD/sodipodi-0.dtd"
   xmlns:inkscape="http://www.inkscape.org/namespaces/inkscape"
   width="279.51462"
   height="712.23822"
   id="svg5309"
   version="1.1"
   inkscape:version="0.48.4 r9939"
   sodipodi:docname="Новий документ 2">
  <defs
     id="defs5311" />
  <sodipodi:namedview
     id="base"
     pagecolor="#ffffff"
     bordercolor="#666666"
     borderopacity="1.0"
     inkscape:pageopacity="0.0"
     inkscape:pageshadow="2"
     inkscape:zoom="0.35"
     inkscape:cx="174.75732"
     inkscape:cy="307.54767"
     inkscape:document-units="px"
     inkscape:current-layer="layer1"
     showgrid="false"
     fit-margin-top="0"
     fit-margin-left="0"
     fit-margin-right="0"
     fit-margin-bottom="0"
     inkscape:window-width="1855"
     inkscape:window-height="1056"
     inkscape:window-x="65"
     inkscape:window-y="24"
     inkscape:window-maximized="1" />
  <metadata
     id="metadata5314">
    <rdf:RDF>
      <cc:Work
         rdf:about="">
        <dc:format>image/svg+xml</dc:format>
        <dc:type
           rdf:resource="http://purl.org/dc/dcmitype/StillImage" />
        <dc:title></dc:title>
      </cc:Work>
    </rdf:RDF>
  </metadata>
  <g
     inkscape:label="Layer 1"
     inkscape:groupmode="layer"
     id="layer1"
     transform="translate(-200.24268,-127.67166)">
    <g
       style="display:inline"
       id="g7295"
       transform="matrix(0.8062,0,0,0.8062,-595.61132,68.609849)">
      <path
         sodipodi:nodetypes="cc"
         inkscape:connector-curvature="0"
         id="path3833-4-0-8-2-6-6-9-6-7-1-9-9-4-7-9-3"
         d="m 1128,737.4 187,-0.2"
         style="fill:none;stroke:#dba981;stroke-width:2;stroke-linecap:butt;stroke-linejoin:miter;stroke-miterlimit:4;stroke-opacity:1;stroke-dasharray:6, 2;stroke-dashoffset:0" />
      <path
         sodipodi:nodetypes="cac"
         inkscape:connector-curvature="0"
         id="path3992-4-65-7"
         d="m 1043,223.1 c 13,3 17,-5 24,-9 8,-4 15,-12.8 22,-13"
         style="fill:none;stroke:#dba981;stroke-width:1.48899996;stroke-linecap:round;stroke-linejoin:round;stroke-miterlimit:4;stroke-opacity:1;stroke-dasharray:4.467, 1.489;stroke-dashoffset:0" />
      <path
         id="path6025"
         d="m 1122,894.1 c -1,7 0,14 0,22 0,6 3,13 0,17 -3,4 -8,5 -12,6 -5,2 -10,2 -15,4 -12,3 -23,9 -37,11 -6,1 -12,1 -17,0 -9,-1 -23,1 -26,-8 -1,-6 9,-9.2 13,-13 17,-13.4 48,-19.1 56,-34"
         style="fill:none;stroke:#dba981;stroke-width:3.72099996;stroke-linecap:round;stroke-linejoin:miter;stroke-miterlimit:4;stroke-opacity:1;stroke-dasharray:none"
         inkscape:connector-curvature="0"
         sodipodi:nodetypes="csscccccac" />
      <path
         id="path8572"
         d="m 1084,899.1 c 3,-7 1,-12 0,-22 -3,-22 -9,-93 -11,-129 -3,-32.2 0,-18 -10,-46 -6,-16 -10,-22 -14,-38 -10,-35 -23,-56 -26,-91 -2,-20 4,-39 3,-58 -2,-21 -14,-41 -15,-62 0,-10 5,-19 4,-29 0,-11 -1,-32 -2,-43 0,-12 2,-19 0,-27 -9,-8 -16.7,-21 -16.7,-34 0,-13 14.7,-30 18.7,-37 2,-6 29,-53 27,-62 1,1 0,-9 -2,-14 -2,-4 -3,-14 -8,-18 -6,-6 -24,0 -29,-3 -2,-1 -3,-3 -3.7,-5 -1,-2 -1,-4 -1,-7 0,-1 1,-3 0,-4 0,-1 -2,-2 -2,-3 0,-1 2,-2 2,-4 0,-1 -2,-1 -2,-2 0,-2 2,-5 1,-7 -1,-2 -4,-2 -6,-4 -1,-2 -3,-3 -2,-6 4,-4 10.7,-8 12.7,-14 1,-3 0,-7 0,-10 1,-6 1,-13 4,-19 2,-5.02 5,-8.02 8,-12.02 2,-1 3,-2 4,-2.96 8,-5 17,-10 26,-11 64,1.5 70,57.18 46,95.98 -3,4 -1,10 -1,14 0,7 2,16 4,19 8,15 24,46 29,70 7,20 2,34 -1,51 -3,18 -13,39 -16,52 -3,11 -8,29 -7,40 18,41.4 38,76.8 38,105 0,20 -18,44 -18,44 l 0,12 c 0,0 -1,57 0,87 1,18 1,37 3,54 1,6 3,14.6 4,19.6 3,16 10,26.4 11,42.4 3,38 -13,75 -14,113"
         style="fill:none;stroke:#dba981;stroke-width:3.72099996;stroke-linecap:round;stroke-linejoin:miter;stroke-miterlimit:4;stroke-opacity:1;stroke-dasharray:none"
         inkscape:connector-curvature="0"
         sodipodi:nodetypes="ccccsssssscsscsccsscccccccssscsccsccacccccccccc" />
      <path
         sodipodi:nodetypes="ssscs"
         inkscape:connector-curvature="0"
         id="path3009-6-3-6"
         d="m 1050,253.1 c -1,42 6,57 22,58 16,1 21,-20 19,-49 0,-7 1,-27 -17,-25 -16,1 -24,6 -24,16 z"
         style="fill:none;stroke:#dba981;stroke-width:3.72099996;stroke-linecap:round;stroke-linejoin:miter;stroke-miterlimit:4;stroke-opacity:1;stroke-dasharray:none" />
      <path
         sodipodi:nodetypes="cc"
         inkscape:connector-curvature="0"
         id="path3992-4-9-7-2"
         d="m 1071,212.1 c 1,5 2,12.4 -1,25.4"
         style="fill:none;stroke:#dba981;stroke-width:1.48899996;stroke-linecap:round;stroke-linejoin:round;stroke-miterlimit:4;stroke-opacity:1;stroke-dasharray:4.467, 1.489;stroke-dashoffset:0" />
      <path
         sodipodi:nodetypes="cc"
         inkscape:connector-curvature="0"
         id="path3833-4-0-8-2-6-6-9-6-7-1-9-9-4-7-9-0"
         d="m 1092,199.9 221,0.5"
         style="fill:none;stroke:#dba981;stroke-width:2;stroke-linecap:butt;stroke-linejoin:miter;stroke-miterlimit:4;stroke-opacity:1;stroke-dasharray:6, 2;stroke-dashoffset:0" />
      <path
         style="fill:none;stroke:#7dc832;stroke-width:3;stroke-linecap:round;stroke-linejoin:miter;stroke-miterlimit:4;stroke-opacity:1;stroke-dasharray:none;marker-start:url(#marker7359);marker-end:url(#marker7359)"
         d="m 1315,736.6 0,-538.1"
         id="path7494-1-6-3-5-8-3-9-5-7-2-4-60-0-3-9-7"
         inkscape:connector-curvature="0"
         sodipodi:nodetypes="cc" />
      <path
         sodipodi:type="arc"
         style="color:#000000;fill:#ffffff;fill-opacity:1;stroke:#00000f;stroke-width:3;stroke-linecap:round;stroke-linejoin:miter;stroke-miterlimit:4;stroke-opacity:0.94120029;stroke-dasharray:none;stroke-dashoffset:0;marker:none;visibility:visible;display:inline;overflow:visible;enable-background:accumulate"
         id="path4050-8-0-9-9-5-9-1-2-36-7-2-2-7-7-3-9-3"
         sodipodi:cx="57.75"
         sodipodi:cy="50.32"
         sodipodi:rx="20"
         sodipodi:ry="20"
         d="m 77.75,50.32 c 0,11.045695 -8.954305,20 -20,20 -11.045695,0 -20,-8.954305 -20,-20 0,-11.045695 8.954305,-20 20,-20 11.005217,0 19.942666,8.891225 19.999731,19.896294"
         sodipodi:start="0"
         sodipodi:end="6.278"
         sodipodi:open="true"
         transform="matrix(0.8943,0,0,0.8943,1263,410.3)" />
      <text
         xml:space="preserve"
         style="font-size:18px;font-style:normal;font-variant:normal;font-weight:normal;font-stretch:normal;text-align:start;line-height:125%;letter-spacing:0px;word-spacing:0px;writing-mode:lr-tb;text-anchor:start;fill:#000000;fill-opacity:1;stroke:none;font-family:Standard Symbols L;-inkscape-font-specification:Standard Symbols L"
         x="1305.2004"
         y="461.33591"
         id="text16558-2"
         sodipodi:linespacing="125%"><tspan
           sodipodi:role="line"
           id="tspan16560-2"
           x="1305.2004"
           y="461.33591">18</tspan></text>
      <path
         sodipodi:nodetypes="cc"
         inkscape:connector-curvature="0"
         id="path3833-4-0-8-2-6-6-9-6-7-1-9-9-4-7-9-1"
         d="m 1065,415.6 163,-1"
         style="fill:none;stroke:#dba981;stroke-width:2;stroke-linecap:butt;stroke-linejoin:miter;stroke-miterlimit:4;stroke-opacity:1;stroke-dasharray:6, 2;stroke-dashoffset:0" />
      <path
         style="fill:none;stroke:#7dc832;stroke-width:3;stroke-linecap:round;stroke-linejoin:miter;stroke-miterlimit:4;stroke-opacity:1;stroke-dasharray:none;marker-start:url(#marker7359);marker-end:url(#marker7359)"
         d="m 1228,737.1 0,-322.4"
         id="path7494-1-6-3-5-8-3-9-5-7-2-4-60-0-3-9-7-9"
         inkscape:connector-curvature="0"
         sodipodi:nodetypes="cc" />
      <path
         sodipodi:type="arc"
         style="color:#000000;fill:#ffffff;fill-opacity:1;stroke:#00000f;stroke-width:3;stroke-linecap:round;stroke-linejoin:miter;stroke-miterlimit:4;stroke-opacity:0.94120029;stroke-dasharray:none;stroke-dashoffset:0;marker:none;visibility:visible;display:inline;overflow:visible;enable-background:accumulate"
         id="path4050-8-0-9-9-5-9-1-2-36-7-2-2-7-7-3-9-3-9"
         sodipodi:cx="57.75"
         sodipodi:cy="50.32"
         sodipodi:rx="20"
         sodipodi:ry="20"
         d="m 77.75,50.32 c 0,11.045695 -8.954305,20 -20,20 -11.045695,0 -20,-8.954305 -20,-20 0,-11.045695 8.954305,-20 20,-20 11.005217,0 19.942666,8.891225 19.999731,19.896294"
         sodipodi:start="0"
         sodipodi:end="6.278"
         sodipodi:open="true"
         transform="matrix(0.8943,0,0,0.8943,1177,411.9)" />
      <text
         xml:space="preserve"
         style="font-size:18px;font-style:normal;font-variant:normal;font-weight:normal;font-stretch:normal;text-align:start;line-height:125%;letter-spacing:0px;word-spacing:0px;writing-mode:lr-tb;text-anchor:start;fill:#000000;fill-opacity:1;stroke:none;font-family:Standard Symbols L;-inkscape-font-specification:Standard Symbols L"
         x="1218.7218"
         y="463.12518"
         id="text16558-2-2"
         sodipodi:linespacing="125%"><tspan
           sodipodi:role="line"
           id="tspan16560-2-6"
           x="1218.7218"
           y="463.12518">19</tspan></text>
      <path
         sodipodi:nodetypes="cc"
         inkscape:connector-curvature="0"
         id="path3833-4-0-8-2-6-35-8-8"
         d="m 1066,310.5 -1,188.9"
         style="fill:none;stroke:#dba981;stroke-width:1.48899996;stroke-linecap:round;stroke-linejoin:miter;stroke-miterlimit:4;stroke-opacity:1;stroke-dasharray:4.467, 1.489;stroke-dashoffset:0;display:inline" />
      <path
         sodipodi:nodetypes="cc"
         inkscape:connector-curvature="0"
         id="path7494-1-6-3-5-8-3-9-0-5-6"
         d="m 1185,515.2 -1,-98.9"
         style="fill:none;stroke:#7dc832;stroke-width:3;stroke-linecap:round;stroke-linejoin:miter;stroke-miterlimit:4;stroke-opacity:1;stroke-dasharray:none;marker-start:url(#marker7359);marker-end:url(#marker7359);display:inline" />
      <path
         transform="matrix(0.8943,0,0,0.8943,1133,411.9)"
         sodipodi:open="true"
         sodipodi:end="6.278"
         sodipodi:start="0"
         d="m 77.75,50.32 c 0,11.045695 -8.954305,20 -20,20 -11.045695,0 -20,-8.954305 -20,-20 0,-11.045695 8.954305,-20 20,-20 11.005217,0 19.942666,8.891225 19.999731,19.896294"
         sodipodi:ry="20"
         sodipodi:rx="20"
         sodipodi:cy="50.32"
         sodipodi:cx="57.75"
         id="path4050-8-0-9-9-5-9-72-8-7"
         style="color:#000000;fill:#ffffff;fill-opacity:1;stroke:#00000f;stroke-width:3;stroke-linecap:round;stroke-linejoin:miter;stroke-miterlimit:4;stroke-opacity:0.94120029;stroke-dasharray:none;stroke-dashoffset:0;marker:none;visibility:visible;display:inline;overflow:visible;enable-background:accumulate"
         sodipodi:type="arc" />
      <text
         xml:space="preserve"
         style="font-size:18px;font-style:normal;font-variant:normal;font-weight:normal;font-stretch:normal;text-align:start;line-height:125%;letter-spacing:0px;word-spacing:0px;writing-mode:lr-tb;text-anchor:start;fill:#000000;fill-opacity:1;stroke:none;display:inline;font-family:Standard Symbols L;-inkscape-font-specification:Standard Symbols L"
         x="1174.6904"
         y="463.07117"
         id="text9037-9"
         sodipodi:linespacing="125%"><tspan
           sodipodi:role="line"
           id="tspan9039-4"
           x="1174.6904"
           y="463.07117">20</tspan></text>
      <path
         sodipodi:nodetypes="cc"
         inkscape:connector-curvature="0"
         id="path3833-4-0-8-2-6-6-9-6-7-1-9-9-4-7-9-1-8"
         d="m 1138,514.9 89,-0.5"
         style="fill:none;stroke:#dba981;stroke-width:2;stroke-linecap:butt;stroke-linejoin:miter;stroke-miterlimit:4;stroke-opacity:1;stroke-dasharray:6, 2;stroke-dashoffset:0;display:inline" />
    </g>
    <path
       sodipodi:nodetypes="ccc"
       inkscape:connector-curvature="0"
       id="path6129-6"
       d="m 300.62868,791.60985 1.6,8 c 0,5 0.8,4 -3.2,7"
       style="fill:none;stroke:#dba981;stroke-width:2.41849995;stroke-linecap:round;stroke-linejoin:miter;stroke-miterlimit:4;stroke-opacity:1;stroke-dasharray:none;display:inline" />
    <path
       sodipodi:nodetypes="cc"
       inkscape:connector-curvature="0"
       id="path7494-1-6-3-5-8-3-9-0-5-6-1"
       d="m 373.02868,802.60985 -0.3,-140"
       style="fill:none;stroke:#7dc832;stroke-width:2.41860008;stroke-linecap:round;stroke-linejoin:miter;stroke-miterlimit:4;stroke-opacity:1;stroke-dasharray:none;marker-start:url(#marker7359);marker-end:url(#marker7359);display:inline" />
    <path
       transform="matrix(0.721,0,0,0.721,330.72868,666.60985)"
       sodipodi:open="true"
       sodipodi:end="6.278"
       sodipodi:start="0"
       d="m 77.75,50.32 c 0,11.045695 -8.954305,20 -20,20 -11.045695,0 -20,-8.954305 -20,-20 0,-11.045695 8.954305,-20 20,-20 11.005217,0 19.942666,8.891225 19.999731,19.896294"
       sodipodi:ry="20"
       sodipodi:rx="20"
       sodipodi:cy="50.32"
       sodipodi:cx="57.75"
       id="path4050-8-0-9-9-5-9-72-8-7-8"
       style="color:#000000;fill:#ffffff;fill-opacity:1;stroke:#00000f;stroke-width:3;stroke-linecap:round;stroke-linejoin:miter;stroke-miterlimit:4;stroke-opacity:0.94120029;stroke-dasharray:none;stroke-dashoffset:0;marker:none;visibility:visible;display:inline;overflow:visible;enable-background:accumulate"
       sodipodi:type="arc" />
    <text
       xml:space="preserve"
       style="font-size:14.51159954px;font-style:normal;font-variant:normal;font-weight:normal;font-stretch:normal;text-align:start;line-height:125%;letter-spacing:0px;word-spacing:0px;writing-mode:lr-tb;text-anchor:start;fill:#000000;fill-opacity:1;stroke:none;display:inline;font-family:Standard Symbols L;-inkscape-font-specification:Standard Symbols L"
       x="365.72736"
       y="707.8681"
       id="text9037-9-9"
       sodipodi:linespacing="125%"><tspan
         sodipodi:role="line"
         id="tspan9039-4-0"
         x="365.72736"
         y="707.8681">21</tspan></text>
    <path
       sodipodi:nodetypes="cc"
       inkscape:connector-curvature="0"
       id="path3833-4-0-8-2-6-6-9-6-7-1-9-9-4-7-9-1-8-9"
       d="m 303.72868,802.60985 69,0"
       style="fill:none;stroke:#dba981;stroke-width:1.61240005;stroke-linecap:butt;stroke-linejoin:miter;stroke-miterlimit:4;stroke-opacity:1;stroke-dasharray:4.8372, 1.6124;stroke-dashoffset:0;display:inline" />
    <path
       style="fill:none;stroke:#7dc832;stroke-width:2.41860008;stroke-linecap:round;stroke-linejoin:miter;stroke-miterlimit:4;stroke-opacity:1;stroke-dasharray:none;marker-start:url(#marker7359);marker-end:url(#marker7359);display:inline"
       d="m 377.22868,403.60985 0,-173"
       id="path7494-1-6-3-5-8-3-9-5-7-2-4-60-0-3-9-7-0"
       inkscape:connector-curvature="0"
       sodipodi:nodetypes="cc" />
    <path
       sodipodi:type="arc"
       style="color:#000000;fill:#ffffff;fill-opacity:1;stroke:#00000f;stroke-width:3;stroke-linecap:round;stroke-linejoin:miter;stroke-miterlimit:4;stroke-opacity:0.94120029;stroke-dasharray:none;stroke-dashoffset:0;marker:none;visibility:visible;display:inline;overflow:visible;enable-background:accumulate"
       id="path4050-8-0-9-9-5-9-1-2-36-7-2-2-7-7-3-9-3-8"
       sodipodi:cx="57.75"
       sodipodi:cy="50.32"
       sodipodi:rx="20"
       sodipodi:ry="20"
       d="m 77.75,50.32 c 0,11.045695 -8.954305,20 -20,20 -11.045695,0 -20,-8.954305 -20,-20 0,-11.045695 8.954305,-20 20,-20 11.005217,0 19.942666,8.891225 19.999731,19.896294"
       sodipodi:start="0"
       sodipodi:end="6.278"
       sodipodi:open="true"
       transform="matrix(0.721,0,0,0.721,335.12868,284.60985)" />
    <text
       xml:space="preserve"
       style="font-size:14.51159954px;font-style:normal;font-variant:normal;font-weight:normal;font-stretch:normal;text-align:start;line-height:125%;letter-spacing:0px;word-spacing:0px;writing-mode:lr-tb;text-anchor:start;fill:#000000;fill-opacity:1;stroke:none;display:inline;font-family:Standard Symbols L;-inkscape-font-specification:Standard Symbols L"
       x="369.28137"
       y="325.73486"
       id="text16558-2-7"
       sodipodi:linespacing="125%"><tspan
         sodipodi:role="line"
         id="tspan16560-2-65"
         x="369.28137"
         y="325.73486">22</tspan></text>
  </g>
</svg>
