<?xml version="1.0" encoding="UTF-8" standalone="no"?>
<!-- Created with Inkscape (http://www.inkscape.org/) -->

<svg
   xmlns:dc="http://purl.org/dc/elements/1.1/"
   xmlns:cc="http://creativecommons.org/ns#"
   xmlns:rdf="http://www.w3.org/1999/02/22-rdf-syntax-ns#"
   xmlns:svg="http://www.w3.org/2000/svg"
   xmlns="http://www.w3.org/2000/svg"
   xmlns:sodipodi="http://sodipodi.sourceforge.net/DTD/sodipodi-0.dtd"
   xmlns:inkscape="http://www.inkscape.org/namespaces/inkscape"
   width="199.33513"
   height="383.25491"
   id="svg5453"
   version="1.1"
   inkscape:version="0.48.4 r9939"
   sodipodi:docname="Новий документ 5">
  <defs
     id="defs5455" />
  <sodipodi:namedview
     id="base"
     pagecolor="#ffffff"
     bordercolor="#666666"
     borderopacity="1.0"
     inkscape:pageopacity="0.0"
     inkscape:pageshadow="2"
     inkscape:zoom="0.98994949"
     inkscape:cx="172.24199"
     inkscape:cy="263.29428"
     inkscape:document-units="px"
     inkscape:current-layer="layer1"
     showgrid="false"
     fit-margin-top="0"
     fit-margin-left="0"
     fit-margin-right="0"
     fit-margin-bottom="0"
     inkscape:window-width="1855"
     inkscape:window-height="1056"
     inkscape:window-x="65"
     inkscape:window-y="24"
     inkscape:window-maximized="1" />
  <metadata
     id="metadata5458">
    <rdf:RDF>
      <cc:Work
         rdf:about="">
        <dc:format>image/svg+xml</dc:format>
        <dc:type
           rdf:resource="http://purl.org/dc/dcmitype/StillImage" />
        <dc:title></dc:title>
      </cc:Work>
    </rdf:RDF>
  </metadata>
  <g
     inkscape:label="Layer 1"
     inkscape:groupmode="layer"
     id="layer1"
     transform="translate(-143.18958,-146.44901)">
    <g
       id="g5582">
      <path
         sodipodi:nodetypes="cc"
         inkscape:connector-curvature="0"
         id="path3833-4-0-8-2-6-6-9-6-7-1-9-9-4-7-9-6-9-3"
         d="m 334.66208,434.44293 -19.3488,35.39218"
         style="fill:none;stroke:#dba981;stroke-width:2.41860008;stroke-linecap:butt;stroke-linejoin:miter;stroke-miterlimit:4;stroke-opacity:1;stroke-dasharray:7.2558, 2.4186;stroke-dashoffset:0" />
      <path
         id="path22054-4-0"
         style="fill:none;stroke:#dba981;stroke-width:2.99987006;stroke-linecap:round;stroke-linejoin:round;stroke-miterlimit:4;stroke-opacity:1;stroke-dasharray:none"
         d="m 334.66208,426.62279 c 5.6434,33.0542 -4.031,86.34402 -5.6434,101.5812 l -66.9146,0 -6.4496,-50.7906 -5.6434,50.7906 -70.1394,0 c -0.8062,-1.69302 -12.093,-67.7208 -5.6434,-100.69438 2.4186,-22.00926 24.9922,-47.40456 29.0232,-65.22158 2.4186,-16.9302 -5.6434,-31.28056 -9.6744,-48.21076 -2.4186,-11.85114 -1.6124,-24.5891 -5.6434,-35.55342 -9.6744,-20.31624 -21.7674,-49.09758 -7.2558,-69.41382 7.2558,-9.35192 28.217,-8.4651 44.341,-17.81702 3.2248,-1.69302 4.8372,-6.77208 5.6434,-10.15812 0,-5.07906 -0.8062,-13.54416 -0.8062,-13.54416 0,0 17.7364,-5.90139 27.4108,-5.90139 8.8682,0 26.6046,5.90139 26.6046,5.90139 0,0 -1.6124,9.35192 -0.8062,13.54416 0.8062,3.38604 1.6124,8.4651 5.6434,11.04494 16.124,8.4651 37.0852,7.57828 44.341,16.9302 17.7364,23.70228 1.6124,49.09758 -7.2558,70.22002 -4.031,10.15812 -4.031,22.89608 -7.2558,34.74722 -2.4186,16.9302 -10.4806,31.28056 -8.8682,47.40456 4.8372,22.81546 21.7674,44.82472 24.9922,65.14096 z"
         inkscape:connector-curvature="0"
         sodipodi:nodetypes="ccccccccccccccacccccccc" />
      <path
         sodipodi:nodetypes="cc"
         inkscape:connector-curvature="0"
         id="path3833-4-0-8-2-6-6-9-6-7-1-9-9-4-7-9-6-5"
         d="m 171.80968,435.00727 -19.3488,35.15032"
         style="fill:none;stroke:#dba981;stroke-width:2.41860008;stroke-linecap:butt;stroke-linejoin:miter;stroke-miterlimit:4;stroke-opacity:1;stroke-dasharray:7.2558, 2.4186;stroke-dashoffset:0" />
      <path
         style="fill:none;stroke:#dba981;stroke-width:2.99987006;stroke-linecap:round;stroke-linejoin:miter;stroke-miterlimit:4;stroke-opacity:1;stroke-dasharray:none"
         d="m 329.01868,271.02619 c -16.9302,-16.9302 -12.093,-34.6666 0,-63.6898"
         id="path8584-0-8-6-3-0"
         inkscape:connector-curvature="0"
         sodipodi:nodetypes="cc" />
      <path
         style="fill:none;stroke:#dba981;stroke-width:2.99987006;stroke-linecap:round;stroke-linejoin:miter;stroke-miterlimit:4;stroke-opacity:1;stroke-dasharray:none"
         d="m 184.70888,269.41379 c 18.5426,-16.124 8.062,-45.1472 -1.6124,-63.6898"
         id="path8584-6-5-3-6-1-4"
         inkscape:connector-curvature="0"
         sodipodi:nodetypes="cc" />
      <g
         id="text6934-6-93"
         style="font-size:14.51159954px;font-style:normal;font-variant:normal;font-weight:normal;font-stretch:normal;text-align:start;line-height:125%;letter-spacing:0px;word-spacing:0px;writing-mode:lr-tb;text-anchor:start;fill:#000000;fill-opacity:1;stroke:none;font-family:Standard Symbols L;-inkscape-font-specification:Standard Symbols L">
        <path
           id="path5574"
           d="m 242.55796,152.42229 0,3.8759 2.29578,0 c 0.76998,0 1.3392,-0.15824 1.70767,-0.47474 0.37317,-0.32122 0.55976,-0.81014 0.55977,-1.46675 -1e-5,-0.66133 -0.1866,-1.14789 -0.55977,-1.45966 -0.36847,-0.31649 -0.93769,-0.47474 -1.70767,-0.47475 l -2.29578,0 m 0,-4.35064 0,3.18858 2.11864,0 c 0.69912,1e-5 1.21874,-0.1299 1.55886,-0.38972 0.34483,-0.26452 0.51725,-0.66605 0.51726,-1.20457 -1e-5,-0.53379 -0.17243,-0.93295 -0.51726,-1.19749 -0.34012,-0.26453 -0.85974,-0.39679 -1.55886,-0.3968 l -2.11864,0 m -1.43132,-1.17624 3.65624,0 c 1.0912,1e-5 1.93204,0.22676 2.52253,0.68023 0.59047,0.4535 0.88571,1.0983 0.88572,1.93441 -10e-6,0.64717 -0.15117,1.16207 -0.45349,1.54469 -0.30233,0.38264 -0.74637,0.62119 -1.33212,0.71566 0.70384,0.15117 1.24944,0.46767 1.63681,0.94949 0.39207,0.47711 0.5881,1.07468 0.58811,1.7927 -1e-5,0.94476 -0.32123,1.67459 -0.96366,2.18949 -0.64245,0.5149 -1.55651,0.77235 -2.74218,0.77235 l -3.79796,0 0,-10.57902"
           inkscape:connector-curvature="0" />
        <path
           id="path5576"
           d="m 254.62498,153.48515 c -1.05342,1e-5 -1.78325,0.12047 -2.18949,0.36138 -0.40626,0.24091 -0.60938,0.65189 -0.60938,1.23292 0,0.46293 0.15116,0.83139 0.45349,1.10537 0.30705,0.26926 0.72274,0.40389 1.24709,0.40389 0.72274,0 1.30141,-0.25509 1.73601,-0.76526 0.43931,-0.5149 0.65896,-1.19749 0.65897,-2.04778 l 0,-0.29052 -1.29669,0 m 2.60047,-0.53851 0,4.52779 -1.30378,0 0,-1.20458 c -0.29761,0.48183 -0.66843,0.83848 -1.11246,1.06995 -0.44405,0.22674 -0.98728,0.34011 -1.62972,0.34011 -0.8125,0 -1.45967,-0.22674 -1.94149,-0.68023 -0.47711,-0.45821 -0.71567,-1.06994 -0.71566,-1.83521 -1e-5,-0.8928 0.2976,-1.56594 0.8928,-2.01943 0.59992,-0.45348 1.49273,-0.68023 2.67841,-0.68023 l 1.82812,0 0,-0.12755 c -1e-5,-0.59992 -0.19841,-1.06285 -0.5952,-1.3888 -0.39208,-0.33066 -0.94477,-0.496 -1.65807,-0.496 -0.45349,0 -0.89516,0.0543 -1.32503,0.16297 -0.42987,0.10865 -0.8432,0.27162 -1.24,0.48891 l 0,-1.20457 c 0.4771,-0.18422 0.94004,-0.32121 1.3888,-0.41097 0.44876,-0.0945 0.88572,-0.14171 1.31086,-0.14172 1.14789,1e-5 2.00526,0.29761 2.57213,0.8928 0.56685,0.59521 0.85028,1.49746 0.85029,2.70676"
           inkscape:connector-curvature="0" />
        <path
           id="path5578"
           d="m 265.62914,149.84308 0,1.21875 c -0.36847,-0.20312 -0.73929,-0.35428 -1.11247,-0.45349 -0.36846,-0.10391 -0.74164,-0.15588 -1.11954,-0.15588 -0.84557,0 -1.50218,0.26926 -1.96984,0.80777 -0.46766,0.5338 -0.70149,1.28489 -0.70149,2.25327 0,0.96838 0.23383,1.72183 0.70149,2.26035 0.46766,0.53379 1.12427,0.80069 1.96984,0.80069 0.3779,0 0.75108,-0.0496 1.11954,-0.1488 0.37318,-0.10393 0.744,-0.25745 1.11247,-0.46058 l 0,1.20458 c -0.36375,0.17006 -0.74165,0.2976 -1.13372,0.38263 -0.38736,0.085 -0.8007,0.12754 -1.24001,0.12754 -1.19513,0 -2.14462,-0.37554 -2.84847,-1.12663 -0.70385,-0.75109 -1.05577,-1.76435 -1.05577,-3.03978 0,-1.29433 0.35428,-2.31231 1.06286,-3.05396 0.7133,-0.74163 1.68876,-1.11245 2.92641,-1.11246 0.40152,1e-5 0.7936,0.0425 1.17623,0.12754 0.38263,0.0803 0.75345,0.20314 1.11247,0.36846"
           inkscape:connector-curvature="0" />
        <path
           id="path5580"
           d="m 267.86115,146.44901 1.31086,0 0,6.5118 3.89007,-3.42241 1.66515,0 -4.20893,3.71292 4.38607,4.22311 -1.70057,0 -4.03179,-3.8759 0,3.8759 -1.31086,0 0,-11.02542"
           inkscape:connector-curvature="0" />
      </g>
      <path
         style="fill:none;stroke:#dba981;stroke-width:1.20043182;stroke-linecap:round;stroke-linejoin:miter;stroke-miterlimit:4;stroke-opacity:1;stroke-dasharray:2.4008636, 1.2004318;stroke-dashoffset:0"
         d="m 227.43748,188.79379 c 12.093,-5.6434 46.7596,-6.4496 58.8526,0.8062"
         id="path3992-4-77-9-5-7-1-0-9"
         inkscape:connector-curvature="0"
         sodipodi:nodetypes="cc" />
      <g
         transform="matrix(0.8062,0,0,0.8062,-248.30114,-1498.6634)"
         id="g16328">
        <path
           style="fill:none;stroke:#000000;stroke-width:3;stroke-linecap:round;stroke-linejoin:miter;stroke-miterlimit:4;stroke-opacity:1;stroke-dasharray:none;marker-start:url(#marker7359);marker-end:url(#marker7359)"
           d="m 668.2,2167 -180,0"
           id="path7494-1-6-3-5-81-64-9-2-0-5-7-5"
           inkscape:connector-curvature="0"
           sodipodi:nodetypes="cc" />
      </g>
      <path
         sodipodi:nodetypes="cc"
         inkscape:connector-curvature="0"
         id="path3833-4-0-8-2-6-6-9-6-7-1-9-9-4-7-9-6"
         d="m 144.39888,249.33941 37.0852,-43.69604"
         style="fill:none;stroke:#dba981;stroke-width:2.41860008;stroke-linecap:butt;stroke-linejoin:miter;stroke-miterlimit:4;stroke-opacity:1;stroke-dasharray:7.2558, 2.4186;stroke-dashoffset:0" />
      <path
         sodipodi:nodetypes="cc"
         inkscape:connector-curvature="0"
         id="path3833-4-0-8-2-6-6-9-6-7-1-9-9-4-7-9-6-9"
         d="m 292.73968,247.80763 34.6666,-42.00302"
         style="fill:none;stroke:#dba981;stroke-width:2.41860008;stroke-linecap:butt;stroke-linejoin:miter;stroke-miterlimit:4;stroke-opacity:1;stroke-dasharray:7.2558, 2.4186;stroke-dashoffset:0" />
      <path
         sodipodi:nodetypes="ccc"
         inkscape:connector-curvature="0"
         id="path6088-7"
         d="m 241.94908,485.87849 c 4.031,-1.69302 8.062,-2.49922 13.7054,-8.4651 2.4186,2.57984 4.031,5.96588 9.6744,7.6589"
         style="fill:none;stroke:#dba981;stroke-width:2.99987006;stroke-linecap:round;stroke-linejoin:round;stroke-miterlimit:4;stroke-opacity:1;stroke-dasharray:none" />
      <path
         style="fill:none;stroke:#000000;stroke-width:2.41860008;stroke-linecap:round;stroke-linejoin:miter;stroke-miterlimit:4;stroke-opacity:1;stroke-dasharray:none;marker-start:url(#marker7359);marker-end:url(#marker7359)"
         d="m 316.92568,469.91573 -164.4648,0"
         id="path7494-1-6-3-5-81-64-9-2-0-5-7-5-3"
         inkscape:connector-curvature="0"
         sodipodi:nodetypes="cc" />
      <path
         style="fill:none;stroke:#dba981;stroke-width:2.41860008;stroke-linecap:butt;stroke-linejoin:miter;stroke-miterlimit:4;stroke-opacity:1;stroke-dasharray:7.2558, 2.4186;stroke-dashoffset:0;display:inline"
         d="m 151.65468,326.81523 37.0852,-43.69604"
         id="path3833-4-0-8-2-6-6-9-6-7-1-9-9-4-7-9-6-1"
         inkscape:connector-curvature="0"
         sodipodi:nodetypes="cc" />
      <path
         style="fill:none;stroke:#dba981;stroke-width:2.41860008;stroke-linecap:butt;stroke-linejoin:miter;stroke-miterlimit:4;stroke-opacity:1;stroke-dasharray:7.2558, 2.4186;stroke-dashoffset:0;display:inline"
         d="m 290.32108,325.92841 34.6666,-42.00302"
         id="path3833-4-0-8-2-6-6-9-6-7-1-9-9-4-7-9-6-9-2"
         inkscape:connector-curvature="0"
         sodipodi:nodetypes="cc" />
      <path
         sodipodi:nodetypes="cc"
         inkscape:connector-curvature="0"
         id="path3992-4-77-9-5-7-1-0-9-7"
         d="m 189.54608,285.29593 133.023,-0.0806"
         style="fill:none;stroke:#dba981;stroke-width:1.20043182;stroke-linecap:round;stroke-linejoin:miter;stroke-miterlimit:4;stroke-opacity:1;stroke-dasharray:2.4008636, 1.2004318;stroke-dashoffset:0;display:inline" />
      <path
         sodipodi:nodetypes="cc"
         inkscape:connector-curvature="0"
         id="path3992-4-77-9-5-7-1-0-9-7-7"
         d="m 204.05768,360.51439 103.1936,-0.0806"
         style="fill:none;stroke:#dba981;stroke-width:1.20043182;stroke-linecap:round;stroke-linejoin:miter;stroke-miterlimit:4;stroke-opacity:1;stroke-dasharray:2.4008636, 1.2004318;stroke-dashoffset:0;display:inline" />
      <path
         sodipodi:nodetypes="cc"
         inkscape:connector-curvature="0"
         id="path3992-4-77-9-5-7-1-0-9-7-7-6"
         d="m 171.80968,434.60417 162.0462,0.4031"
         style="fill:none;stroke:#dba981;stroke-width:1.20043182;stroke-linecap:round;stroke-linejoin:miter;stroke-miterlimit:4;stroke-opacity:1;stroke-dasharray:2.4008636, 1.2004318;stroke-dashoffset:0;display:inline" />
      <path
         style="fill:none;stroke:#dba981;stroke-width:2.41860008;stroke-linecap:butt;stroke-linejoin:miter;stroke-miterlimit:4;stroke-opacity:1;stroke-dasharray:7.2558, 2.4186;stroke-dashoffset:0;display:inline"
         d="m 165.36008,404.53291 37.0852,-43.69604"
         id="path3833-4-0-8-2-6-6-9-6-7-1-9-9-4-7-9-6-1-6"
         inkscape:connector-curvature="0"
         sodipodi:nodetypes="cc" />
      <path
         style="fill:none;stroke:#dba981;stroke-width:2.41860008;stroke-linecap:butt;stroke-linejoin:miter;stroke-miterlimit:4;stroke-opacity:1;stroke-dasharray:7.2558, 2.4186;stroke-dashoffset:0;display:inline"
         d="m 272.58468,402.43679 34.6666,-42.00302"
         id="path3833-4-0-8-2-6-6-9-6-7-1-9-9-4-7-9-6-9-2-0"
         inkscape:connector-curvature="0"
         sodipodi:nodetypes="cc" />
      <path
         style="fill:none;stroke:#000000;stroke-width:2.41860008;stroke-linecap:round;stroke-linejoin:miter;stroke-miterlimit:4;stroke-opacity:1;stroke-dasharray:none;marker-start:url(#marker7359);marker-end:url(#marker7359);display:inline"
         d="m 291.12728,326.17027 -137.8602,-0.32248"
         id="path7494-1-6-3-5-81-64-9-2-0-5-7-5-2"
         inkscape:connector-curvature="0"
         sodipodi:nodetypes="cc" />
      <path
         style="fill:none;stroke:#000000;stroke-width:2.41860008;stroke-linecap:round;stroke-linejoin:miter;stroke-miterlimit:4;stroke-opacity:1;stroke-dasharray:none;marker-start:url(#marker7359);marker-end:url(#marker7359);display:inline"
         d="m 272.58468,403.56547 -105.6122,0"
         id="path7494-1-6-3-5-81-64-9-2-0-5-7-5-2-0"
         inkscape:connector-curvature="0"
         sodipodi:nodetypes="cc" />
      <path
         inkscape:connector-curvature="0"
         id="path4050-8-0-5-3-4-0-7-3-0-68-5-6-1"
         d="m 229.04988,248.37197 c 0,6.4496 -5.6434,11.2868 -11.2868,11.2868 -6.4496,0 -11.2868,-4.8372 -11.2868,-11.2868 0,-6.4496 4.8372,-11.2868 11.2868,-11.2868 5.6434,0 10.4806,4.8372 11.2868,11.2868"
         style="color:#000000;fill:#ffffff;fill-opacity:1;stroke:#00000f;stroke-width:1.12255287;stroke-linecap:round;stroke-linejoin:miter;stroke-miterlimit:4;stroke-opacity:0.94120029;stroke-dashoffset:0;marker:none;visibility:visible;display:inline;overflow:visible;enable-background:accumulate" />
      <text
         sodipodi:linespacing="125%"
         id="text8512-9-0"
         y="253.03616"
         x="214.05615"
         style="font-size:14.51159954px;font-style:normal;font-variant:normal;font-weight:normal;font-stretch:normal;text-align:start;line-height:125%;letter-spacing:0px;word-spacing:0px;writing-mode:lr-tb;text-anchor:start;fill:#000000;fill-opacity:1;stroke:none;display:inline;font-family:Standard Symbols L;-inkscape-font-specification:Standard Symbols L"
         xml:space="preserve"><tspan
           y="253.03616"
           x="214.05615"
           id="tspan8514-9-1"
           sodipodi:role="line">1</tspan></text>
      <path
         style="color:#000000;fill:#ffffff;fill-opacity:1;stroke:#00000f;stroke-width:1.12255287;stroke-linecap:round;stroke-linejoin:miter;stroke-miterlimit:4;stroke-opacity:0.94120029;stroke-dashoffset:0;marker:none;visibility:visible;display:inline;overflow:visible;enable-background:accumulate"
         d="m 229.04988,469.91573 c 0,6.4496 -5.6434,11.2868 -11.2868,11.2868 -6.4496,0 -11.2868,-4.8372 -11.2868,-11.2868 0,-6.4496 4.8372,-11.2868 11.2868,-11.2868 5.6434,0 10.4806,4.8372 11.2868,11.2868"
         id="path4050-8-0-5-3-4-0-7-3-0-68-5-6-1-3"
         inkscape:connector-curvature="0" />
      <text
         xml:space="preserve"
         style="font-size:14.51159954px;font-style:normal;font-variant:normal;font-weight:normal;font-stretch:normal;text-align:start;line-height:125%;letter-spacing:0px;word-spacing:0px;writing-mode:lr-tb;text-anchor:start;fill:#000000;fill-opacity:1;stroke:none;display:inline;font-family:Standard Symbols L;-inkscape-font-specification:Standard Symbols L"
         x="214.22385"
         y="474.57269"
         id="text8512-9-0-6"
         sodipodi:linespacing="125%"><tspan
           sodipodi:role="line"
           id="tspan8514-9-1-6"
           x="214.22385"
           y="474.57269">4</tspan></text>
      <path
         inkscape:connector-curvature="0"
         id="path4050-8-0-5-3-4-0-7-3-0-68-5-6-1-9"
         d="m 229.04988,325.84779 c 0,6.4496 -5.6434,11.2868 -11.2868,11.2868 -6.4496,0 -11.2868,-4.8372 -11.2868,-11.2868 0,-6.4496 4.8372,-11.2868 11.2868,-11.2868 5.6434,0 10.4806,4.8372 11.2868,11.2868"
         style="color:#000000;fill:#ffffff;fill-opacity:1;stroke:#00000f;stroke-width:1.12255287;stroke-linecap:round;stroke-linejoin:miter;stroke-miterlimit:4;stroke-opacity:0.94120029;stroke-dashoffset:0;marker:none;visibility:visible;display:inline;overflow:visible;enable-background:accumulate" />
      <text
         sodipodi:linespacing="125%"
         id="text8512-9-0-7"
         y="330.48813"
         x="214.11501"
         style="font-size:14.51159954px;font-style:normal;font-variant:normal;font-weight:normal;font-stretch:normal;text-align:start;line-height:125%;letter-spacing:0px;word-spacing:0px;writing-mode:lr-tb;text-anchor:start;fill:#000000;fill-opacity:1;stroke:none;display:inline;font-family:Standard Symbols L;-inkscape-font-specification:Standard Symbols L"
         xml:space="preserve"><tspan
           y="330.48813"
           x="214.11501"
           id="tspan8514-9-1-7"
           sodipodi:role="line">2</tspan></text>
      <path
         inkscape:connector-curvature="0"
         id="path4050-8-0-5-3-4-0-7-3-0-68-5-6-1-9-3"
         d="m 229.04988,403.56547 c 0,6.4496 -5.6434,11.2868 -11.2868,11.2868 -6.4496,0 -11.2868,-4.8372 -11.2868,-11.2868 0,-6.4496 4.8372,-11.2868 11.2868,-11.2868 5.6434,0 10.4806,4.8372 11.2868,11.2868"
         style="color:#000000;fill:#ffffff;fill-opacity:1;stroke:#00000f;stroke-width:1.12255287;stroke-linecap:round;stroke-linejoin:miter;stroke-miterlimit:4;stroke-opacity:0.94120029;stroke-dashoffset:0;marker:none;visibility:visible;display:inline;overflow:visible;enable-background:accumulate" />
      <text
         sodipodi:linespacing="125%"
         id="text8512-9-0-7-5"
         y="408.16898"
         x="214.30367"
         style="font-size:14.51159954px;font-style:normal;font-variant:normal;font-weight:normal;font-stretch:normal;text-align:start;line-height:125%;letter-spacing:0px;word-spacing:0px;writing-mode:lr-tb;text-anchor:start;fill:#000000;fill-opacity:1;stroke:none;display:inline;font-family:Standard Symbols L;-inkscape-font-specification:Standard Symbols L"
         xml:space="preserve"><tspan
           y="408.16898"
           x="214.30367"
           id="tspan8514-9-1-7-7"
           sodipodi:role="line">3</tspan></text>
    </g>
  </g>
</svg>
