<?xml version="1.0" encoding="UTF-8" standalone="no"?>
<!-- Created with Inkscape (http://www.inkscape.org/) -->

<svg
   xmlns:dc="http://purl.org/dc/elements/1.1/"
   xmlns:cc="http://creativecommons.org/ns#"
   xmlns:rdf="http://www.w3.org/1999/02/22-rdf-syntax-ns#"
   xmlns:svg="http://www.w3.org/2000/svg"
   xmlns="http://www.w3.org/2000/svg"
   xmlns:sodipodi="http://sodipodi.sourceforge.net/DTD/sodipodi-0.dtd"
   xmlns:inkscape="http://www.inkscape.org/namespaces/inkscape"
   width="130.08884"
   height="374.20621"
   id="svg5663"
   version="1.1"
   inkscape:version="0.48.4 r9939"
   sodipodi:docname="Новий документ 8">
  <defs
     id="defs5665" />
  <sodipodi:namedview
     id="base"
     pagecolor="#ffffff"
     bordercolor="#666666"
     borderopacity="1.0"
     inkscape:pageopacity="0.0"
     inkscape:pageshadow="2"
     inkscape:zoom="0.35"
     inkscape:cx="231.473"
     inkscape:cy="107.1031"
     inkscape:document-units="px"
     inkscape:current-layer="layer1"
     showgrid="false"
     fit-margin-top="0"
     fit-margin-left="0"
     fit-margin-right="0"
     fit-margin-bottom="0"
     inkscape:window-width="1855"
     inkscape:window-height="1056"
     inkscape:window-x="65"
     inkscape:window-y="24"
     inkscape:window-maximized="1" />
  <metadata
     id="metadata5668">
    <rdf:RDF>
      <cc:Work
         rdf:about="">
        <dc:format>image/svg+xml</dc:format>
        <dc:type
           rdf:resource="http://purl.org/dc/dcmitype/StillImage" />
        <dc:title></dc:title>
      </cc:Work>
    </rdf:RDF>
  </metadata>
  <g
     inkscape:label="Layer 1"
     inkscape:groupmode="layer"
     id="layer1"
     transform="translate(-143.527,-265.25908)">
    <g
       style="display:inline"
       id="g16502"
       transform="matrix(0.8062,0,0,0.8062,-1198.3929,139.2988)">
      <path
         sodipodi:nodetypes="cc"
         inkscape:connector-curvature="0"
         id="path3833-4-0-8-2-6-6-9-6-7-1-9-9-4-7-9-6-5-6-7"
         d="m 1691,452.6 -1,166.3"
         style="fill:none;stroke:#dba981;stroke-width:3;stroke-linecap:butt;stroke-linejoin:miter;stroke-miterlimit:4;stroke-opacity:1;stroke-dasharray:9, 3;stroke-dashoffset:0" />
      <path
         sodipodi:nodetypes="cc"
         inkscape:connector-curvature="0"
         id="path3833-4-0-8-2-6-6-9-6-7-1-9-9-4-7-9-6-9-3-0"
         d="m 1824,516.6 -21,35.8"
         style="fill:none;stroke:#dba981;stroke-width:3;stroke-linecap:butt;stroke-linejoin:miter;stroke-miterlimit:4;stroke-opacity:1;stroke-dasharray:9, 3;stroke-dashoffset:0" />
      <path
         style="fill:none;stroke:#dba981;stroke-width:1.48899996;stroke-linecap:round;stroke-linejoin:round;stroke-miterlimit:4;stroke-opacity:1;stroke-dasharray:2.978, 1.489;stroke-dashoffset:0"
         d="m 1728,204.7 c 13,3.2 18,-5.2 25,-9.3 8,-4.2 15,-13.4 22,-13.6"
         id="path3992-4-65-7-62"
         inkscape:connector-curvature="0"
         sodipodi:nodetypes="cac" />
      <path
         sodipodi:nodetypes="cccccccscccccccccscccc"
         inkscape:connector-curvature="0"
         id="path16196"
         d="m 1718,616.9 c -5,-14.6 -9,-29.2 -11,-47.9 -2,-20.7 4,-40.5 3,-60.3 -2,-21.8 -18,-38.4 -19,-60.2 0,-10.4 9,-24.1 8,-34.5 0,-11.5 -1,-33.3 -2,-44.8 0,-12.5 2,-19.8 0,-28.1 -10,-8.3 -18,-21.8 -18,-35.4 0,-13.5 16,-31.2 20,-38.5 2,-6.2 30,-55.2 28,-64.5 1,1 -3,-17.4 -5,-22.6 17,0.2 30,-13.7 47,-22 0,7.3 8,23.7 11,26.9 8,15.6 25,47.8 30,72.8 7,20.9 2,35.4 -1,53.1 -3,18.8 -14,40.6 -17,54.2 -3,11.4 -8,30.1 -7,41.6 18,43.1 39,79.9 39,109.3 0,20.8 -18,45.7 -18,45.7 l 0,12.5 c 0,0 1,23.9 1,42.7 z"
         style="fill:none;stroke:#dba981;stroke-width:3.72099996;stroke-linecap:round;stroke-linejoin:miter;stroke-miterlimit:4;stroke-opacity:1;stroke-dasharray:none" />
      <path
         style="fill:none;stroke:#dba981;stroke-width:3.72099996;stroke-linecap:round;stroke-linejoin:miter;stroke-miterlimit:4;stroke-opacity:1;stroke-dasharray:none"
         d="m 1735,236 c -1,43.7 6,59.3 22,60.3 17,1.1 23,-20.8 20,-51 0,-7.2 1,-28.1 -18,-26 -15,1.1 -24,6.3 -24,16.7 z"
         id="path3009-6-3-6-9"
         inkscape:connector-curvature="0"
         sodipodi:nodetypes="ssscs" />
      <path
         style="fill:none;stroke:#dba981;stroke-width:1.48899996;stroke-linecap:round;stroke-linejoin:round;stroke-miterlimit:4;stroke-opacity:1;stroke-dasharray:2.978, 1.489;stroke-dashoffset:0"
         d="m 1756,193.3 c 1,5.2 3,8.3 0,21.9"
         id="path3992-4-9-7-2-5"
         inkscape:connector-curvature="0"
         sodipodi:nodetypes="cc" />
      <path
         sodipodi:nodetypes="cc"
         inkscape:connector-curvature="0"
         id="path3833-4-0-8-2-6-6-9-6-7-1-9-9-4-7-9-6-5-6"
         d="m 1690,508.1 -24,43.6"
         style="fill:none;stroke:#dba981;stroke-width:3;stroke-linecap:butt;stroke-linejoin:miter;stroke-miterlimit:4;stroke-opacity:1;stroke-dasharray:9, 3;stroke-dashoffset:0" />
      <path
         sodipodi:nodetypes="cc"
         inkscape:connector-curvature="0"
         id="path7494-1-6-3-5-81-64-9-2-0-5-7-5-3-1"
         d="m 1804,552.1 -138,0.7"
         style="fill:none;stroke:#000000;stroke-width:3;stroke-linecap:round;stroke-linejoin:miter;stroke-miterlimit:4;stroke-opacity:1;stroke-dasharray:none;marker-start:url(#marker7359);marker-end:url(#marker7359)" />
      <path
         style="color:#000000;fill:#ffffff;fill-opacity:1;stroke:#00000f;stroke-width:1.39240003;stroke-linecap:round;stroke-linejoin:miter;stroke-miterlimit:4;stroke-opacity:0.94120029;stroke-dashoffset:0;marker:none;visibility:visible;display:inline;overflow:visible;enable-background:accumulate"
         d="m 1744,552.1 c 0,8 -7,14 -14,14 -8,0 -14,-6 -14,-14 0,-8 6,-14 14,-14 7,0 13,6 14,14"
         id="path4050-8-0-5-3-4-0-7-3-0-68-5-6-1-3-9"
         inkscape:connector-curvature="0" />
      <text
         xml:space="preserve"
         style="font-size:18px;font-style:normal;font-variant:normal;font-weight:normal;font-stretch:normal;text-align:start;line-height:125%;letter-spacing:0px;word-spacing:0px;writing-mode:lr-tb;text-anchor:start;fill:#000000;fill-opacity:1;stroke:none;font-family:Standard Symbols L;-inkscape-font-specification:Standard Symbols L"
         x="1725.752"
         y="558.26581"
         id="text8512-9-0-6-7"
         sodipodi:linespacing="125%"><tspan
           sodipodi:role="line"
           id="tspan8514-9-1-6-1"
           x="1725.752"
           y="558.26581">5</tspan></text>
    </g>
  </g>
</svg>
