<?xml version="1.0" encoding="UTF-8" standalone="no"?>
<!-- Created with Inkscape (http://www.inkscape.org/) -->

<svg
   xmlns:dc="http://purl.org/dc/elements/1.1/"
   xmlns:cc="http://creativecommons.org/ns#"
   xmlns:rdf="http://www.w3.org/1999/02/22-rdf-syntax-ns#"
   xmlns:svg="http://www.w3.org/2000/svg"
   xmlns="http://www.w3.org/2000/svg"
   xmlns:sodipodi="http://sodipodi.sourceforge.net/DTD/sodipodi-0.dtd"
   xmlns:inkscape="http://www.inkscape.org/namespaces/inkscape"
   width="152.17574"
   height="698.19305"
   id="svg5846"
   version="1.1"
   inkscape:version="0.48.4 r9939"
   sodipodi:docname="Новий документ 14">
  <defs
     id="defs5848" />
  <sodipodi:namedview
     id="base"
     pagecolor="#ffffff"
     bordercolor="#666666"
     borderopacity="1.0"
     inkscape:pageopacity="0.0"
     inkscape:pageshadow="2"
     inkscape:zoom="0.35"
     inkscape:cx="211.08778"
     inkscape:cy="269.09652"
     inkscape:document-units="px"
     inkscape:current-layer="layer1"
     showgrid="false"
     fit-margin-top="0"
     fit-margin-left="0"
     fit-margin-right="0"
     fit-margin-bottom="0"
     inkscape:window-width="1855"
     inkscape:window-height="1056"
     inkscape:window-x="65"
     inkscape:window-y="24"
     inkscape:window-maximized="1" />
  <metadata
     id="metadata5851">
    <rdf:RDF>
      <cc:Work
         rdf:about="">
        <dc:format>image/svg+xml</dc:format>
        <dc:type
           rdf:resource="http://purl.org/dc/dcmitype/StillImage" />
        <dc:title></dc:title>
      </cc:Work>
    </rdf:RDF>
  </metadata>
  <g
     inkscape:label="Layer 1"
     inkscape:groupmode="layer"
     id="layer1"
     transform="translate(-163.91222,-103.26566)">
    <g
       style="stroke-linecap:round;display:inline"
       transform="matrix(0.806,0,0,0.806,-1429.6059,-4919.7272)"
       id="g19358">
      <path
         style="fill:none;stroke:#dba981;stroke-width:3.10800004;stroke-linecap:butt;stroke-linejoin:miter;stroke-miterlimit:4;stroke-opacity:1;stroke-dasharray:9.324, 3.108;stroke-dashoffset:0;marker-start:url(#marker7359);marker-end:url(#marker7359)"
         d="m 2117,6730 9,-364"
         id="path7494-1-6-3-5-8-3-9-5-7-2-4-5-7"
         inkscape:connector-curvature="0"
         sodipodi:nodetypes="cc" />
      <path
         sodipodi:type="arc"
         style="color:#000000;fill:#ffffff;fill-opacity:1;stroke:#00000f;stroke-width:3;stroke-linecap:round;stroke-linejoin:miter;stroke-miterlimit:4;stroke-opacity:0.94120029;stroke-dasharray:none;stroke-dashoffset:0;marker:none;visibility:visible;display:inline;overflow:visible;enable-background:accumulate"
         id="path4050-8-0-9-9-5-9-1-2-36-7-2-2-02-4"
         sodipodi:cx="57.75"
         sodipodi:cy="50.32"
         sodipodi:rx="20"
         sodipodi:ry="20"
         d="m 77.75,50.32 c 0,11.045695 -8.954305,20 -20,20 -11.045695,0 -20,-8.954305 -20,-20 0,-11.045695 8.954305,-20 20,-20 11.005217,0 19.942666,8.891225 19.999731,19.896294"
         sodipodi:start="0"
         sodipodi:end="6.278"
         sodipodi:open="true"
         transform="matrix(0.8943,0,0,0.8943,2095,6523)" />
      <text
         xml:space="preserve"
         style="font-size:18px;font-style:normal;font-variant:normal;font-weight:normal;font-stretch:normal;text-align:start;line-height:125%;letter-spacing:0px;word-spacing:0px;writing-mode:lr-tb;text-anchor:start;fill:#000000;fill-opacity:1;stroke:none;font-family:Standard Symbols L;-inkscape-font-specification:Standard Symbols L"
         x="2142.1458"
         y="6574.1753"
         id="text16546-6-0"
         sodipodi:linespacing="125%"><tspan
           sodipodi:role="line"
           id="tspan16548-6-9"
           x="2142.1458"
           y="6574.1753">2</tspan></text>
      <path
         style="fill:none;stroke:#dba981;stroke-width:1.48899996;stroke-linecap:round;stroke-linejoin:round;stroke-miterlimit:4;stroke-opacity:1;stroke-dasharray:4.467, 1.489;stroke-dashoffset:0"
         d="m 2033,6375 c 13,3 18,-1 26,-5 10,-4 19,-16 26,-18"
         id="path3992-4-65-7-0-2-8"
         inkscape:connector-curvature="0"
         sodipodi:nodetypes="cac" />
      <path
         sodipodi:nodetypes="ssaaaacacccccscccassccasscccccccsscscsccccacsssccacccas"
         inkscape:connector-curvature="0"
         style="fill:none;stroke:#dba981;stroke-width:3.72099996;stroke-linecap:round;stroke-linejoin:miter;stroke-miterlimit:4;stroke-opacity:1;stroke-dasharray:none"
         d="m 2097,7064 c 0,6 4,16 1,20 -3,4 -16,3 -24,5 -5,1 -10,3 -15,4 -13,2 -25,3 -38,3 -7,0 -13,0 -20,-1 -7,0 -19,5 -22,-4 -1,-6 9,-6 13,-8 12,-8 25,-15 38,-22 6,-4 15,-6 18,-12 6,-15 5,-33 4,-46 -3,-22 -9,-69 -11,-105 1,-10 -1,-7 -10,-35 -6,-16 -18,-62 -22,-78 -10,-35 -1,-84 -4,-119 -11,-27 -3,-29 -5,-72 0,-20 -7,-47 -7,-64 0,-8 2,-16 2,-24 0,-11 -2,-27 -5,-34 -3,-7 4,-24 7,-32 3,-5 22,-42 36,-64 -1,-6 -6,-20 -10,-24 -6,-6 -16,-1 -23,-3 -3,-1 -6,-2 -7,-4 -1,-2 -1,-7 -1,-10 0,-1 1,-3 0,-4 0,-1 -2,-2 -2,-3 0,-1 2,-2 2,-4 0,-1 -2,-1 -2,-2 0,-2 2,-5 1,-7 -1,-2 -5,-2 -7,-4 -5,-3 9,-18 10,-21 1,-3 2,-6 2,-9 1,-6 1,-13 4,-19 2,-5 5,-8 8,-12 2,-1 3,-2 4,-3 8,-5 17,-10 26,-11 12,-3 26,-3 38,1 10,4 19,10 25,18 15,31 -5,52 -19,73 -4,9 2,23 7,30 8,15 27,34 32,58 7,20 -3,46 -6,70 -3,21 -8,50 -11,63 -3,11 -6,13 -5,24 1,12 5,26 9,37 10,24 11,41 7,61 -4,20 -14,25 -14,25 l -3,39 c 0,0 -5,50 -8,75 -2,15 -8,27 -6,44 1,6 12,36 13,41 3,16 5,27 6,43 3,38 -13,77 -9,115 0,4 3,5 3,11 z"
         id="path6025-2-9-9" />
      <path
         style="fill:none;stroke:#dba981;stroke-width:3.72099996;stroke-linecap:round;stroke-linejoin:miter;stroke-miterlimit:4;stroke-opacity:1;stroke-dasharray:none"
         d="m 2044,6414 c -1,42 6,57 21,58 17,1 22,-20 20,-49 0,-7 1,-27 -18,-25 -15,1 -23,6 -23,16 z"
         id="path3009-6-3-6-2-4-8"
         inkscape:connector-curvature="0"
         sodipodi:nodetypes="ssscs" />
      <path
         style="fill:none;stroke:#dba981;stroke-width:1.48899996;stroke-linecap:round;stroke-linejoin:round;stroke-miterlimit:4;stroke-opacity:1;stroke-dasharray:4.467, 1.489;stroke-dashoffset:0"
         d="m 2062,6369 c 1,5 -1,10 2,25"
         id="path3992-4-9-7-2-6-4-7"
         inkscape:connector-curvature="0"
         sodipodi:nodetypes="cc" />
      <path
         sodipodi:nodetypes="cc"
         inkscape:connector-curvature="0"
         id="path3992-4-77-9-5-7-1-2-9-8-8-6-2-3-8-7"
         d="m 1996,6571 103,0"
         style="fill:none;stroke:#dba981;stroke-width:1.48899996;stroke-linecap:round;stroke-linejoin:miter;stroke-miterlimit:4;stroke-opacity:1;stroke-dasharray:4.467, 1.489;stroke-dashoffset:0" />
      <path
         sodipodi:nodetypes="cc"
         inkscape:connector-curvature="0"
         id="path3992-4-77-9-5-7-1-2-9-8-8-6-2-3-8-7-3"
         d="m 2000,6596 101,0"
         style="fill:none;stroke:#dba981;stroke-width:1.48899996;stroke-linecap:round;stroke-linejoin:miter;stroke-miterlimit:4;stroke-opacity:1;stroke-dasharray:4.467, 1.489;stroke-dashoffset:0" />
      <path
         sodipodi:nodetypes="cc"
         inkscape:connector-curvature="0"
         id="path3992-4-77-9-5-7-1-2-9-8-8-6-2-3-8-7-8"
         d="m 1993,6474 123,0"
         style="fill:none;stroke:#dba981;stroke-width:1.48899996;stroke-linecap:round;stroke-linejoin:miter;stroke-miterlimit:4;stroke-opacity:1;stroke-dasharray:4.467, 1.489;stroke-dashoffset:0" />
      <path
         sodipodi:nodetypes="cc"
         inkscape:connector-curvature="0"
         id="path7494-1-6-3-5-8-3-9-5-7-2-4-5-7-5"
         d="m 2103,7086 -1,-74"
         style="fill:none;stroke:#dba981;stroke-width:3.10800004;stroke-linecap:butt;stroke-linejoin:miter;stroke-miterlimit:4;stroke-opacity:1;stroke-dasharray:9.324, 3.108;stroke-dashoffset:0;marker-start:url(#marker7359);marker-end:url(#marker7359)" />
      <path
         style="fill:none;stroke:#000000;stroke-width:3;stroke-linecap:round;stroke-linejoin:miter;stroke-miterlimit:4;stroke-opacity:1;stroke-dasharray:none;stroke-dashoffset:0"
         d="m 2093,7048 10,0"
         id="path3833-4-0-8-2-6-6-9-6-7-1-6-5-1"
         inkscape:connector-curvature="0"
         sodipodi:nodetypes="cc" />
      <path
         transform="matrix(0.8943,0,0,0.8943,2078,7001)"
         sodipodi:open="true"
         sodipodi:end="6.278"
         sodipodi:start="0"
         d="m 77.75,50.32 c 0,11.045695 -8.954305,20 -20,20 -11.045695,0 -20,-8.954305 -20,-20 0,-11.045695 8.954305,-20 20,-20 11.005217,0 19.942666,8.891225 19.999731,19.896294"
         sodipodi:ry="20"
         sodipodi:rx="20"
         sodipodi:cy="50.32"
         sodipodi:cx="57.75"
         id="path4050-8-0-9-9-5-9-1-2-36-7-2-2-02-4-8"
         style="color:#000000;fill:#ffffff;fill-opacity:1;stroke:#00000f;stroke-width:3;stroke-linecap:round;stroke-linejoin:miter;stroke-miterlimit:4;stroke-opacity:0.94120029;stroke-dasharray:none;stroke-dashoffset:0;marker:none;visibility:visible;display:inline;overflow:visible;enable-background:accumulate"
         sodipodi:type="arc" />
      <text
         sodipodi:linespacing="125%"
         id="text16546-6-0-0"
         y="7052.0581"
         x="2125.3799"
         style="font-size:18px;font-style:normal;font-variant:normal;font-weight:normal;font-stretch:normal;text-align:start;line-height:125%;letter-spacing:0px;word-spacing:0px;writing-mode:lr-tb;text-anchor:start;fill:#000000;fill-opacity:1;stroke:none;font-family:Standard Symbols L;-inkscape-font-specification:Standard Symbols L"
         xml:space="preserve"><tspan
           y="7052.0581"
           x="2125.3799"
           id="tspan16548-6-9-2"
           sodipodi:role="line">3</tspan></text>
      <path
         sodipodi:nodetypes="cc"
         inkscape:connector-curvature="0"
         id="path3833-4-0-8-2-6-6-9-6-7-1-6-5"
         d="m 2099,6571 24,0"
         style="fill:none;stroke:#000000;stroke-width:3;stroke-linecap:round;stroke-linejoin:miter;stroke-miterlimit:4;stroke-opacity:1;stroke-dasharray:none;stroke-dashoffset:0" />
    </g>
  </g>
</svg>
