<?xml version="1.0" encoding="UTF-8" standalone="no"?>
<!-- Created with Inkscape (http://www.inkscape.org/) -->

<svg
   xmlns:dc="http://purl.org/dc/elements/1.1/"
   xmlns:cc="http://creativecommons.org/ns#"
   xmlns:rdf="http://www.w3.org/1999/02/22-rdf-syntax-ns#"
   xmlns:svg="http://www.w3.org/2000/svg"
   xmlns="http://www.w3.org/2000/svg"
   xmlns:sodipodi="http://sodipodi.sourceforge.net/DTD/sodipodi-0.dtd"
   xmlns:inkscape="http://www.inkscape.org/namespaces/inkscape"
   width="108.32143"
   height="202.13127"
   id="svg6197"
   version="1.1"
   inkscape:version="0.48.4 r9939"
   sodipodi:docname="Новий документ 20">
  <defs
     id="defs6199" />
  <sodipodi:namedview
     id="base"
     pagecolor="#ffffff"
     bordercolor="#666666"
     borderopacity="1.0"
     inkscape:pageopacity="0.0"
     inkscape:pageshadow="2"
     inkscape:zoom="0.35"
     inkscape:cx="280.58929"
     inkscape:cy="52.494252"
     inkscape:document-units="px"
     inkscape:current-layer="layer1"
     showgrid="false"
     fit-margin-top="0"
     fit-margin-left="0"
     fit-margin-right="0"
     fit-margin-bottom="0"
     inkscape:window-width="1855"
     inkscape:window-height="1056"
     inkscape:window-x="65"
     inkscape:window-y="24"
     inkscape:window-maximized="1" />
  <metadata
     id="metadata6202">
    <rdf:RDF>
      <cc:Work
         rdf:about="">
        <dc:format>image/svg+xml</dc:format>
        <dc:type
           rdf:resource="http://purl.org/dc/dcmitype/StillImage" />
        <dc:title></dc:title>
      </cc:Work>
    </rdf:RDF>
  </metadata>
  <g
     inkscape:label="Layer 1"
     inkscape:groupmode="layer"
     id="layer1"
     transform="translate(-94.41071,-382.72516)">
    <g
       style="display:inline"
       id="g9068"
       transform="matrix(0.8062,0,0,0.8062,-340.53419,-3613.7207)">
      <path
         style="fill:none;stroke:#dba981;stroke-width:1.48899996;stroke-linecap:round;stroke-linejoin:miter;stroke-miterlimit:4;stroke-opacity:1;stroke-dasharray:2.978, 1.489;stroke-dashoffset:0"
         d="m 542.6,5119 75,6"
         id="path8471-6-6-72-2-3-9-5-8"
         inkscape:connector-curvature="0"
         sodipodi:nodetypes="cc" />
      <path
         sodipodi:nodetypes="cc"
         inkscape:connector-curvature="0"
         id="path8471-6-6-72-2-3-9-50-18"
         d="m 623,5125 c 0,-12 -84,-20 -82,-6"
         style="opacity:0.3;fill:none;stroke:#000000;stroke-width:2.13249993;stroke-linecap:round;stroke-linejoin:miter;stroke-miterlimit:4;stroke-opacity:1;stroke-dasharray:6.3974, 2.1325;stroke-dashoffset:0" />
      <path
         sodipodi:nodetypes="cc"
         inkscape:connector-curvature="0"
         id="path8471-6-6-72-2-3-9-502"
         d="m 563,5016 c 15,5 26,12 59,-1"
         style="fill:none;stroke:#dba981;stroke-width:1.48899996;stroke-linecap:round;stroke-linejoin:miter;stroke-miterlimit:4;stroke-opacity:1;stroke-dasharray:2.978, 1.489;stroke-dashoffset:0" />
      <path
         sodipodi:nodetypes="cccacccccccccaascccac"
         inkscape:connector-curvature="0"
         id="path10238-0-9-5"
         d="m 595,5069 c 12,16 18,15 29,19 5,5 13,14 16,16 8,5 19,10 27,6 3,-1 5,-10 5,-10 -15,-11 -29,-23 -30,-36 -2,-9 -2,-9 -4,-20 l -15,-24 c -4,-20 4,-43 9,-61 -20,9 -40,7 -60,0 -2,19 -4,34 -4,34 -2,10 -2,20 -5,24 l -9,10 c -4,16 -7,34 -9,52 -1,12 -2,24 -1,36 1,20 8,51 8,56 0,11 9,10 15,21 5,11 7,14 17,14 11,0 17,-3 22,-11 0,0 9,-31 12,-46 3,-20 4,-58 6,-60"
         style="fill:none;stroke:#dba981;stroke-width:3.72099996;stroke-linecap:round;stroke-linejoin:miter;stroke-miterlimit:4;stroke-opacity:1;stroke-dasharray:none" />
      <path
         sodipodi:nodetypes="cc"
         inkscape:connector-curvature="0"
         id="path8471-6-6-72-2-3-9-50-1-46"
         d="m 623,5126 c 0,11 -78,16 -82,-7"
         style="fill:none;stroke:#000000;stroke-width:3;stroke-linecap:round;stroke-linejoin:miter;stroke-miterlimit:4;stroke-opacity:1;stroke-dasharray:none;stroke-dashoffset:0" />
      <path
         transform="matrix(0.8943,0,0,0.8943,526,5092)"
         sodipodi:open="true"
         sodipodi:end="6.278"
         sodipodi:start="0"
         d="m 77.75,50.32 c 0,11.045695 -8.954305,20 -20,20 -11.045695,0 -20,-8.954305 -20,-20 0,-11.045695 8.954305,-20 20,-20 11.005217,0 19.942666,8.891225 19.999731,19.896294"
         sodipodi:ry="20"
         sodipodi:rx="20"
         sodipodi:cy="50.32"
         sodipodi:cx="57.75"
         id="path4050-8-0-9-9-5-9-1-5-2-4-8-7-6-9-9"
         style="color:#000000;fill:#ffffff;fill-opacity:1;stroke:#00000f;stroke-width:3;stroke-linecap:round;stroke-linejoin:miter;stroke-miterlimit:4;stroke-opacity:0.94120029;stroke-dasharray:none;stroke-dashoffset:0;marker:none;visibility:visible;display:inline;overflow:visible;enable-background:accumulate"
         sodipodi:type="arc" />
      <text
         sodipodi:linespacing="125%"
         id="text17813-1-5-0"
         y="5143.0581"
         x="573.37988"
         style="font-size:18px;font-style:normal;font-variant:normal;font-weight:normal;font-stretch:normal;text-align:start;line-height:125%;letter-spacing:0px;word-spacing:0px;writing-mode:lr-tb;text-anchor:start;fill:#000000;fill-opacity:1;stroke:none;font-family:Standard Symbols L;-inkscape-font-specification:Standard Symbols L"
         xml:space="preserve"><tspan
           y="5143.0581"
           x="573.37988"
           id="tspan17815-9-9-1"
           sodipodi:role="line">4</tspan></text>
    </g>
  </g>
</svg>
