<?xml version="1.0" encoding="UTF-8" standalone="no"?>
<!-- Created with Inkscape (http://www.inkscape.org/) -->

<svg
   xmlns:dc="http://purl.org/dc/elements/1.1/"
   xmlns:cc="http://creativecommons.org/ns#"
   xmlns:rdf="http://www.w3.org/1999/02/22-rdf-syntax-ns#"
   xmlns:svg="http://www.w3.org/2000/svg"
   xmlns="http://www.w3.org/2000/svg"
   xmlns:sodipodi="http://sodipodi.sourceforge.net/DTD/sodipodi-0.dtd"
   xmlns:inkscape="http://www.inkscape.org/namespaces/inkscape"
   width="145.92249"
   height="310.00351"
   id="svg6880"
   version="1.1"
   inkscape:version="0.48.4 r9939"
   sodipodi:docname="Новий документ 41">
  <defs
     id="defs6882" />
  <sodipodi:namedview
     id="base"
     pagecolor="#ffffff"
     bordercolor="#666666"
     borderopacity="1.0"
     inkscape:pageopacity="0.0"
     inkscape:pageshadow="2"
     inkscape:zoom="0.35"
     inkscape:cx="239.37384"
     inkscape:cy="-22.043171"
     inkscape:document-units="px"
     inkscape:current-layer="layer1"
     showgrid="false"
     fit-margin-top="0"
     fit-margin-left="0"
     fit-margin-right="0"
     fit-margin-bottom="0"
     inkscape:window-width="1855"
     inkscape:window-height="1056"
     inkscape:window-x="65"
     inkscape:window-y="24"
     inkscape:window-maximized="1" />
  <metadata
     id="metadata6885">
    <rdf:RDF>
      <cc:Work
         rdf:about="">
        <dc:format>image/svg+xml</dc:format>
        <dc:type
           rdf:resource="http://purl.org/dc/dcmitype/StillImage" />
        <dc:title></dc:title>
      </cc:Work>
    </rdf:RDF>
  </metadata>
  <g
     inkscape:label="Layer 1"
     inkscape:groupmode="layer"
     id="layer1"
     transform="translate(-135.62616,-200.3155)">
    <g
       style="display:inline"
       id="g17349"
       transform="translate(-78.186336,-2201.376)">
      <path
         style="fill:none;stroke:#aaaaaa;stroke-width:2.01550007;stroke-linecap:round;stroke-linejoin:miter;stroke-miterlimit:4;stroke-opacity:1;stroke-dasharray:8.062, 2.0155;stroke-dashoffset:0"
         d="m 219.9,2644 c 5.7,-12 115,-11 123.9,0"
         id="path27588-2"
         inkscape:connector-curvature="0"
         sodipodi:nodetypes="cc" />
      <path
         style="fill:none;stroke:#aaaaaa;stroke-width:2.01550007;stroke-linecap:round;stroke-linejoin:miter;stroke-miterlimit:4;stroke-opacity:1;stroke-dasharray:8.062, 2.0155;stroke-dashoffset:0"
         d="m 216,2684 c 2.1,-9 126.9,-9 139,0"
         id="path27588-9"
         inkscape:connector-curvature="0"
         sodipodi:nodetypes="cc" />
      <path
         style="fill:none;stroke:#dba981;stroke-width:2.9999001;stroke-linecap:round;stroke-linejoin:miter;stroke-miterlimit:4;stroke-opacity:1;stroke-dasharray:none"
         d="m 217.2,2710 c -1,-15 -1.6,-30 -0.3,-45 1.1,-14 3.7,-26 7.2,-39 2.1,-8 7.1,-13 8.2,-20 1.5,-12 -2.2,-22 -2.7,-34 -0.3,-4 1.5,-8 -0.2,-14 -6.7,-6 -13.8,-23 -13.6,-32 0.2,-11 6.2,-17 9,-27 1.3,-5 -4.8,-12 -6.7,-20 -1.9,-9 0.6,-19 4,-19 8.6,-2 21,-8 28,-13 6.9,-6 10,-23 7.5,-38 10,-11 48,-3 48,-3 0,0 -2.6,21 2.2,28 8.1,11 28.7,16 36,19 12.8,6 12.1,10 13.7,17 3.5,17 -6.5,36 -12.9,49 -4.1,12 -4.1,24 -7.3,35 -2.4,7 -5.6,14 -6.9,21 -1.6,7 -4.1,14 -4.1,22 0.8,9 4.1,20 8.6,28 4.8,9 12.1,25 16.1,39 4,12 4.8,25 5.6,37"
         id="path4164"
         inkscape:connector-curvature="0"
         sodipodi:nodetypes="cccccccccccccccaccccccc" />
      <path
         sodipodi:nodetypes="csc"
         inkscape:connector-curvature="0"
         id="path3825-9-6"
         d="m 228.8,2559 c 2.8,-1 10.5,-3 27.6,-3 19.1,0 51.4,4 76.1,7"
         style="fill:none;stroke:#dba981;stroke-width:0.72100002;stroke-linecap:round;stroke-linejoin:miter;stroke-miterlimit:4;stroke-opacity:1;stroke-dasharray:2.163, 0.721;stroke-dashoffset:0" />
      <path
         sodipodi:nodetypes="cc"
         inkscape:connector-curvature="0"
         id="path3878-2-2"
         d="m 232.5,2606 c -2.6,8 97.1,5 94.6,-2"
         style="fill:none;stroke:#000000;stroke-width:2.41860008;stroke-linecap:round;stroke-linejoin:miter;stroke-miterlimit:4;stroke-opacity:1;stroke-dasharray:none" />
      <path
         sodipodi:nodetypes="caac"
         inkscape:connector-curvature="0"
         id="path3009-9-1"
         d="m 347,2455 c -9.6,2 -15.7,7 -19.9,14 -7.5,13 -15.3,33 -5.6,45 5.2,6 19.5,7 24.3,0"
         style="fill:none;stroke:#dba981;stroke-width:2.9999001;stroke-linecap:round;stroke-linejoin:miter;stroke-miterlimit:4;stroke-opacity:1;stroke-dasharray:none" />
      <path
         sodipodi:nodetypes="csc"
         inkscape:connector-curvature="0"
         id="path3011-4-0"
         d="m 258,2410 c 0,0 5.9,4 16.8,4 24.2,-1 29.4,-7 29.4,-7"
         style="fill:none;stroke:#dba981;stroke-width:2.9999001;stroke-linecap:round;stroke-linejoin:round;stroke-miterlimit:4;stroke-opacity:1;stroke-dasharray:none" />
      <path
         sodipodi:nodetypes="csc"
         inkscape:connector-curvature="0"
         id="path27580-6"
         d="m 219.7,2510 c 3.2,5 30,11 41.4,11 24.9,1 62,1 81.8,4"
         style="fill:none;stroke:#aaaaaa;stroke-width:2.01550007;stroke-linecap:round;stroke-linejoin:miter;stroke-miterlimit:4;stroke-opacity:1;stroke-dasharray:8.062, 2.0155;stroke-dashoffset:0" />
      <path
         sodipodi:nodetypes="cc"
         inkscape:connector-curvature="0"
         id="path27582-4"
         d="m 214.8,2527 c 11.2,6 79.3,10 124.1,11"
         style="fill:none;stroke:#aaaaaa;stroke-width:2.01550007;stroke-linecap:round;stroke-linejoin:miter;stroke-miterlimit:4;stroke-opacity:1;stroke-dasharray:8.062, 2.0155;stroke-dashoffset:0" />
      <path
         sodipodi:nodetypes="cc"
         inkscape:connector-curvature="0"
         id="path27584-5"
         d="m 230.8,2560 c 16.4,3 61.7,1 101.7,4"
         style="fill:none;stroke:#aaaaaa;stroke-width:2.01550007;stroke-linecap:round;stroke-linejoin:miter;stroke-miterlimit:4;stroke-opacity:1;stroke-dasharray:8.062, 2.0155;stroke-dashoffset:0" />
      <path
         sodipodi:nodetypes="cc"
         inkscape:connector-curvature="0"
         id="path27588-14"
         d="m 233.3,2607 c 14.8,-7 78.5,-5 93.8,-3"
         style="fill:none;stroke:#aaaaaa;stroke-width:2.01550007;stroke-linecap:round;stroke-linejoin:miter;stroke-miterlimit:4;stroke-opacity:1;stroke-dasharray:8.062, 2.0155;stroke-dashoffset:0" />
      <path
         inkscape:connector-curvature="0"
         id="path4050-8-0-5-3-4-47-4-93"
         d="m 267.8,2612 c 0,6 -4.8,10 -10.9,10 -5.9,0 -10.8,-4 -10.8,-10 0,-6 4.9,-11 10.8,-11 6,0 10.8,5 10.9,11"
         style="color:#000000;fill:#ffffff;fill-opacity:1;stroke:#00000f;stroke-width:1.08140004;stroke-linecap:round;stroke-linejoin:miter;stroke-miterlimit:4;stroke-opacity:0.94120029;stroke-dashoffset:0;marker:none;visibility:visible;display:inline;overflow:visible;enable-background:accumulate" />
      <path
         style="fill:none;stroke:#000000;stroke-width:2.41860008;stroke-linecap:round;stroke-linejoin:miter;stroke-miterlimit:4;stroke-opacity:1;stroke-dasharray:none"
         d="m 220.1,2643 c -2.6,8 125.3,7 122.8,0"
         id="path3878-2-8"
         inkscape:connector-curvature="0"
         sodipodi:nodetypes="cc" />
      <path
         style="color:#000000;fill:#ffffff;fill-opacity:1;stroke:#00000f;stroke-width:1.08140004;stroke-linecap:round;stroke-linejoin:miter;stroke-miterlimit:4;stroke-opacity:0.94120029;stroke-dashoffset:0;marker:none;visibility:visible;display:inline;overflow:visible;enable-background:accumulate"
         d="m 267.8,2649 c 0,7 -4.8,11 -10.9,11 -5.9,0 -10.8,-4 -10.8,-11 0,-6 4.9,-10 10.8,-10 6,0 10.8,4 10.9,10"
         id="path4050-8-0-5-3-4-47-4-9"
         inkscape:connector-curvature="0" />
      <path
         style="fill:none;stroke:#000000;stroke-width:2.41860008;stroke-linecap:round;stroke-linejoin:miter;stroke-miterlimit:4;stroke-opacity:1;stroke-dasharray:none"
         d="m 217,2685 c -2.6,7 140.5,5 138,-2"
         id="path3878-2-0"
         inkscape:connector-curvature="0"
         sodipodi:nodetypes="cc" />
      <path
         style="color:#000000;fill:#ffffff;fill-opacity:1;stroke:#00000f;stroke-width:1.08140004;stroke-linecap:round;stroke-linejoin:miter;stroke-miterlimit:4;stroke-opacity:0.94120029;stroke-dashoffset:0;marker:none;visibility:visible;display:inline;overflow:visible;enable-background:accumulate"
         d="m 267.8,2691 c 0,6 -4.8,10 -10.9,10 -5.9,0 -10.8,-4 -10.8,-10 0,-6 4.9,-10 10.8,-10 6,0 10.8,4 10.9,10"
         id="path4050-8-0-5-3-4-47-4-7"
         inkscape:connector-curvature="0" />
      <path
         style="fill:none;stroke:#aaaaaa;stroke-width:1.61240005;stroke-linecap:round;stroke-linejoin:miter;stroke-miterlimit:4;stroke-opacity:1;stroke-dasharray:6.4496, 1.6124;stroke-dashoffset:0"
         d="m 254.9,2441 c 4.4,-12 49.7,-13 54.5,-4"
         id="path27588-27"
         inkscape:connector-curvature="0"
         sodipodi:nodetypes="cc" />
      <text
         sodipodi:linespacing="125%"
         id="text6787"
         y="2616.8066"
         x="253.306"
         style="font-size:14.51159954px;font-style:normal;font-variant:normal;font-weight:normal;font-stretch:normal;text-align:start;line-height:125%;letter-spacing:0px;word-spacing:0px;writing-mode:lr-tb;text-anchor:start;fill:#000000;fill-opacity:1;stroke:none;font-family:Standard Symbols L;-inkscape-font-specification:Standard Symbols L"
         xml:space="preserve"><tspan
           y="2616.8066"
           x="253.306"
           id="tspan6789"
           sodipodi:role="line">7</tspan></text>
      <text
         sodipodi:linespacing="125%"
         id="text6791"
         y="2654.2739"
         x="253.53815"
         style="font-size:14.51159954px;font-style:normal;font-variant:normal;font-weight:normal;font-stretch:normal;text-align:start;line-height:125%;letter-spacing:0px;word-spacing:0px;writing-mode:lr-tb;text-anchor:start;fill:#000000;fill-opacity:1;stroke:none;font-family:Standard Symbols L;-inkscape-font-specification:Standard Symbols L"
         xml:space="preserve"><tspan
           y="2654.2739"
           x="253.53815"
           id="tspan6793"
           sodipodi:role="line">8</tspan></text>
      <text
         sodipodi:linespacing="125%"
         id="text6795"
         y="2695.8306"
         x="253.37852"
         style="font-size:14.51159954px;font-style:normal;font-variant:normal;font-weight:normal;font-stretch:normal;text-align:start;line-height:125%;letter-spacing:0px;word-spacing:0px;writing-mode:lr-tb;text-anchor:start;fill:#000000;fill-opacity:1;stroke:none;font-family:Standard Symbols L;-inkscape-font-specification:Standard Symbols L"
         xml:space="preserve"><tspan
           y="2695.8306"
           x="253.37852"
           id="tspan6797"
           sodipodi:role="line">9</tspan></text>
      <path
         style="fill:none;stroke:#000000;stroke-width:2.41860008;stroke-linecap:round;stroke-linejoin:miter;stroke-miterlimit:4;stroke-opacity:1;stroke-dasharray:none"
         d="m 230.5,2581 2.1,0 21.7,0 c 0,0 22.2,0 33.3,0 13.1,2 39.1,6 39.1,6"
         id="path3874-2-5-4"
         inkscape:connector-curvature="0"
         sodipodi:nodetypes="cccac" />
      <path
         style="fill:none;stroke:#aaaaaa;stroke-width:2.01550007;stroke-linecap:round;stroke-linejoin:miter;stroke-miterlimit:4;stroke-opacity:1;stroke-dasharray:8.062, 2.0155;stroke-dashoffset:0"
         d="m 229.5,2583 c 16.5,3 56.7,1 97,4"
         id="path27584-5-6"
         inkscape:connector-curvature="0"
         sodipodi:nodetypes="cc" />
      <path
         style="color:#000000;fill:#ffffff;fill-opacity:1;stroke:#00000f;stroke-width:1.08140004;stroke-linecap:round;stroke-linejoin:miter;stroke-miterlimit:4;stroke-opacity:0.94120029;stroke-dashoffset:0;marker:none;visibility:visible;display:inline;overflow:visible;enable-background:accumulate"
         d="m 267.8,2580 c 0,5 -4.8,10 -10.9,10 -5.9,0 -10.8,-5 -10.8,-10 0,-6 4.9,-11 10.8,-11 6,0 10.8,5 10.9,11"
         id="path4050-8-0-5-3-4-82-5-8-0"
         inkscape:connector-curvature="0" />
      <text
         xml:space="preserve"
         style="font-size:14.51159954px;font-style:normal;font-variant:normal;font-weight:normal;font-stretch:normal;text-align:start;line-height:125%;letter-spacing:0px;word-spacing:0px;writing-mode:lr-tb;text-anchor:start;fill:#000000;fill-opacity:1;stroke:none;font-family:Standard Symbols L;-inkscape-font-specification:Standard Symbols L"
         x="253.53815"
         y="2584.6667"
         id="text6783-9"
         sodipodi:linespacing="125%"><tspan
           sodipodi:role="line"
           id="tspan6785-5"
           x="253.53815"
           y="2584.6667">6</tspan></text>
      <path
         sodipodi:nodetypes="cc"
         inkscape:connector-curvature="0"
         id="path3872-9-1"
         d="m 215.7,2527 c 12,-4 113.1,0 124,8"
         style="fill:none;stroke:#000000;stroke-width:2.41860008;stroke-linecap:round;stroke-linejoin:miter;stroke-miterlimit:4;stroke-opacity:1;stroke-dasharray:none" />
      <path
         sodipodi:nodetypes="cccac"
         inkscape:connector-curvature="0"
         id="path3874-2-5"
         d="m 230.5,2559 4.6,-1 21.7,-1 c 0,0 22,0 33.3,1 14.5,1 43.2,6 43.2,6"
         style="fill:none;stroke:#000000;stroke-width:2.41860008;stroke-linecap:round;stroke-linejoin:miter;stroke-miterlimit:4;stroke-opacity:1;stroke-dasharray:none" />
      <path
         sodipodi:nodetypes="cc"
         inkscape:connector-curvature="0"
         id="path19718-1"
         d="m 219.6,2510 c 59.6,-21 114.5,12 124.2,15"
         style="fill:none;stroke:#000000;stroke-width:2.41860008;stroke-linecap:round;stroke-linejoin:miter;stroke-miterlimit:4;stroke-opacity:1;stroke-dasharray:none" />
      <path
         inkscape:connector-curvature="0"
         id="path4050-8-0-5-3-4-8-9-5"
         d="m 267.8,2502 c 0,5 -4.8,10 -10.9,10 -5.9,0 -10.8,-5 -10.8,-10 0,-7 4.9,-12 10.8,-12 6,0 10.8,5 10.9,11"
         style="color:#000000;fill:#ffffff;fill-opacity:1;stroke:#00000f;stroke-width:1.08140004;stroke-linecap:round;stroke-linejoin:miter;stroke-miterlimit:4;stroke-opacity:0.94120029;stroke-dashoffset:0;marker:none;visibility:visible;display:inline;overflow:visible;enable-background:accumulate" />
      <path
         inkscape:connector-curvature="0"
         id="path4050-8-0-5-3-4-86-1-9"
         d="m 267.8,2527 c 0,5 -4.8,10 -10.9,10 -5.9,0 -10.8,-5 -10.8,-10 0,-7 4.9,-12 10.8,-12 6,0 10.8,5 10.9,12"
         style="color:#000000;fill:#ffffff;fill-opacity:1;stroke:#00000f;stroke-width:1.08140004;stroke-linecap:round;stroke-linejoin:miter;stroke-miterlimit:4;stroke-opacity:0.94120029;stroke-dashoffset:0;marker:none;visibility:visible;display:inline;overflow:visible;enable-background:accumulate" />
      <path
         inkscape:connector-curvature="0"
         id="path4050-8-0-5-3-4-82-5-8"
         d="m 267.8,2556 c 0,6 -4.8,11 -10.9,11 -5.9,0 -10.8,-5 -10.8,-11 0,-5 4.9,-10 10.8,-10 6,0 10.8,5 10.9,10"
         style="color:#000000;fill:#ffffff;fill-opacity:1;stroke:#00000f;stroke-width:1.08140004;stroke-linecap:round;stroke-linejoin:miter;stroke-miterlimit:4;stroke-opacity:0.94120029;stroke-dashoffset:0;marker:none;visibility:visible;display:inline;overflow:visible;enable-background:accumulate" />
      <text
         sodipodi:linespacing="125%"
         id="text6771"
         y="2505.781"
         x="253.33498"
         style="font-size:14.51159954px;font-style:normal;font-variant:normal;font-weight:normal;font-stretch:normal;text-align:start;line-height:125%;letter-spacing:0px;word-spacing:0px;writing-mode:lr-tb;text-anchor:start;fill:#000000;fill-opacity:1;stroke:none;font-family:Standard Symbols L;-inkscape-font-specification:Standard Symbols L"
         xml:space="preserve"><tspan
           y="2505.781"
           x="253.33498"
           id="tspan6773"
           sodipodi:role="line">3</tspan></text>
      <text
         sodipodi:linespacing="125%"
         id="text6779"
         y="2531.2124"
         x="253.52364"
         style="font-size:14.51159954px;font-style:normal;font-variant:normal;font-weight:normal;font-stretch:normal;text-align:start;line-height:125%;letter-spacing:0px;word-spacing:0px;writing-mode:lr-tb;text-anchor:start;fill:#000000;fill-opacity:1;stroke:none;font-family:Standard Symbols L;-inkscape-font-specification:Standard Symbols L"
         xml:space="preserve"><tspan
           y="2531.2124"
           x="253.52364"
           id="tspan6781"
           sodipodi:role="line">4</tspan></text>
      <text
         sodipodi:linespacing="125%"
         id="text6783"
         y="2561.2161"
         x="253.44382"
         style="font-size:14.51159954px;font-style:normal;font-variant:normal;font-weight:normal;font-stretch:normal;text-align:start;line-height:125%;letter-spacing:0px;word-spacing:0px;writing-mode:lr-tb;text-anchor:start;fill:#000000;fill-opacity:1;stroke:none;font-family:Standard Symbols L;-inkscape-font-specification:Standard Symbols L"
         xml:space="preserve"><tspan
           y="2561.2161"
           x="253.44382"
           id="tspan6785"
           sodipodi:role="line">5</tspan></text>
      <path
         style="fill:none;stroke:#000000;stroke-width:2.41860008;stroke-linecap:round;stroke-linejoin:miter;stroke-miterlimit:4;stroke-opacity:1;stroke-dasharray:none"
         d="m 254.9,2441 c -1.4,19 49.7,11 54.5,-3"
         id="path3878-2-36"
         inkscape:connector-curvature="0"
         sodipodi:nodetypes="cc" />
      <path
         sodipodi:nodetypes="cscc"
         style="color:#000000;fill:#ffffff;fill-opacity:1;stroke:#00000f;stroke-width:1.08140004;stroke-linecap:round;stroke-linejoin:miter;stroke-miterlimit:4;stroke-opacity:0.94120029;stroke-dashoffset:0;marker:none;visibility:visible;display:inline;overflow:visible;enable-background:accumulate"
         d="m 286,2451 c 0,5 -4.8,10 -10.7,10 -6,0 -10.8,-5 -10.8,-10 2.5,-16 21.5,-12 21.5,0"
         id="path4050-8-0-5-3-4-47-4-52"
         inkscape:connector-curvature="0" />
      <text
         sodipodi:linespacing="125%"
         id="text6775"
         y="2454.9871"
         x="271.92188"
         style="font-size:14.51159954px;font-style:normal;font-variant:normal;font-weight:normal;font-stretch:normal;text-align:start;line-height:125%;letter-spacing:0px;word-spacing:0px;writing-mode:lr-tb;text-anchor:start;fill:#000000;fill-opacity:1;stroke:none;font-family:Standard Symbols L;-inkscape-font-specification:Standard Symbols L"
         xml:space="preserve"><tspan
           y="2454.9871"
           x="271.92188"
           id="tspan6777"
           sodipodi:role="line">2</tspan></text>
      <path
         sodipodi:nodetypes="cc"
         inkscape:connector-curvature="0"
         id="path27588-27-1"
         d="m 258.1,2420 c 6.3,-4 43.5,-4 46.6,2"
         style="fill:none;stroke:#aaaaaa;stroke-width:1.61240005;stroke-linecap:round;stroke-linejoin:miter;stroke-miterlimit:4;stroke-opacity:1;stroke-dasharray:6.4496, 1.6124;stroke-dashoffset:0" />
      <path
         sodipodi:nodetypes="cc"
         inkscape:connector-curvature="0"
         id="path3878-2-36-4"
         d="m 258.5,2421 c 0,18 46.6,7 46.8,0"
         style="fill:none;stroke:#000000;stroke-width:2.41860008;stroke-linecap:round;stroke-linejoin:miter;stroke-miterlimit:4;stroke-opacity:1;stroke-dasharray:none" />
      <path
         inkscape:connector-curvature="0"
         id="path4050-8-0-5-3-4-47-4-52-5"
         d="m 286.4,2430 c 0,5 -4.8,10 -10.7,10 -6,0 -10.8,-5 -10.8,-10 2.5,-16 21.5,-12 21.5,0"
         style="color:#000000;fill:#ffffff;fill-opacity:1;stroke:#00000f;stroke-width:1.08140004;stroke-linecap:round;stroke-linejoin:miter;stroke-miterlimit:4;stroke-opacity:0.94120029;stroke-dashoffset:0;marker:none;visibility:visible;display:inline;overflow:visible;enable-background:accumulate"
         sodipodi:nodetypes="cscc" />
      <text
         xml:space="preserve"
         style="font-size:14.51159954px;font-style:normal;font-variant:normal;font-weight:normal;font-stretch:normal;text-align:start;line-height:125%;letter-spacing:0px;word-spacing:0px;writing-mode:lr-tb;text-anchor:start;fill:#000000;fill-opacity:1;stroke:none;font-family:Standard Symbols L;-inkscape-font-specification:Standard Symbols L"
         x="272.40958"
         y="2434.7561"
         id="text6775-6"
         sodipodi:linespacing="125%"><tspan
           sodipodi:role="line"
           id="tspan6777-6"
           x="272.40958"
           y="2434.7561">1</tspan></text>
    </g>
  </g>
</svg>
