<?xml version="1.0" encoding="UTF-8" standalone="no"?>
<!-- Created with Inkscape (http://www.inkscape.org/) -->

<svg
   xmlns:dc="http://purl.org/dc/elements/1.1/"
   xmlns:cc="http://creativecommons.org/ns#"
   xmlns:rdf="http://www.w3.org/1999/02/22-rdf-syntax-ns#"
   xmlns:svg="http://www.w3.org/2000/svg"
   xmlns="http://www.w3.org/2000/svg"
   xmlns:sodipodi="http://sodipodi.sourceforge.net/DTD/sodipodi-0.dtd"
   xmlns:inkscape="http://www.inkscape.org/namespaces/inkscape"
   width="146.04926"
   height="303.23999"
   id="svg7062"
   version="1.1"
   inkscape:version="0.48.4 r9939"
   sodipodi:docname="Новий документ 44">
  <defs
     id="defs7064" />
  <sodipodi:namedview
     id="base"
     pagecolor="#ffffff"
     bordercolor="#666666"
     borderopacity="1.0"
     inkscape:pageopacity="0.0"
     inkscape:pageshadow="2"
     inkscape:zoom="0.35"
     inkscape:cx="296.59605"
     inkscape:cy="-48.380008"
     inkscape:document-units="px"
     inkscape:current-layer="layer1"
     showgrid="false"
     fit-margin-top="0"
     fit-margin-left="0"
     fit-margin-right="0"
     fit-margin-bottom="0"
     inkscape:window-width="1855"
     inkscape:window-height="1056"
     inkscape:window-x="65"
     inkscape:window-y="24"
     inkscape:window-maximized="1" />
  <metadata
     id="metadata7067">
    <rdf:RDF>
      <cc:Work
         rdf:about="">
        <dc:format>image/svg+xml</dc:format>
        <dc:type
           rdf:resource="http://purl.org/dc/dcmitype/StillImage" />
        <dc:title></dc:title>
      </cc:Work>
    </rdf:RDF>
  </metadata>
  <g
     inkscape:label="Layer 1"
     inkscape:groupmode="layer"
     id="layer1"
     transform="translate(-78.40395,-180.74219)">
    <g
       style="display:inline"
       id="g15369"
       transform="matrix(0.8062,0,0,0.8062,-392.73933,-698.92324)">
      <path
         style="fill:none;stroke:#000000;stroke-width:3;stroke-linecap:round;stroke-linejoin:miter;stroke-miterlimit:4;stroke-opacity:1;stroke-dasharray:none"
         d="m 604.9,1275 6,-1 26,-1 43,2 46,5"
         id="path3874-7-8-0"
         inkscape:connector-curvature="0"
         sodipodi:nodetypes="ccccc" />
      <path
         sodipodi:nodetypes="caasac"
         inkscape:connector-curvature="0"
         id="path3817-6-4"
         d="m 744.9,1228 c -4,2 -16,0 -24,-2 -12,-4 -23,-13 -36,-17 -13,-3 -24,-1 -41,-3 -13,-1 -25,0 -38,3 -4,1 -11,4 -11,4"
         style="fill:none;stroke:#dba981;stroke-width:0.89429998;stroke-linecap:round;stroke-linejoin:miter;stroke-miterlimit:4;stroke-opacity:1;stroke-dasharray:2.6829, 0.8943;stroke-dashoffset:0" />
      <path
         style="fill:none;stroke:#000000;stroke-width:3;stroke-linecap:round;stroke-linejoin:miter;stroke-miterlimit:4;stroke-opacity:1;stroke-dasharray:none"
         d="m 591.9,1217 c 0,0 9,-6 14,-8 13,-3 26,-3 39,-3 12,0 25,0 37,3 19,5 42,22 54,23"
         id="path3868-7-7-4"
         inkscape:connector-curvature="0"
         sodipodi:nodetypes="ccaac" />
      <path
         style="fill:none;stroke:#000000;stroke-width:3;stroke-linecap:round;stroke-linejoin:miter;stroke-miterlimit:4;stroke-opacity:1;stroke-dasharray:none"
         d="m 632.9,1132 c -7,17 51,21 63,-1"
         id="path3876-91-29-8"
         inkscape:connector-curvature="0"
         sodipodi:nodetypes="cc" />
      <path
         style="fill:none;stroke:#000000;stroke-width:3;stroke-linecap:round;stroke-linejoin:miter;stroke-miterlimit:4;stroke-opacity:1;stroke-dasharray:none"
         d="m 607.9,1336 c 25,5 76,10 108,0"
         id="path3878-7-1-40"
         inkscape:connector-curvature="0"
         sodipodi:nodetypes="cc" />
      <path
         style="fill:none;stroke:#000000;stroke-width:3;stroke-linecap:round;stroke-linejoin:miter;stroke-miterlimit:4;stroke-opacity:1;stroke-dasharray:none"
         d="m 588.9,1236 c 0,0 34,0 51,0 9,0 18,0 27,0 22,0 44,1 67,4"
         id="path3872-1-8-9"
         inkscape:connector-curvature="0"
         sodipodi:nodetypes="casc" />
      <path
         sodipodi:nodetypes="csasc"
         inkscape:connector-curvature="0"
         id="path2993-6-7"
         d="m 734.9,1229 c 2,3 -6,45 -14,66 -4,11 -8,20 -7,31 1,13 7,25 13,37 11,22 22,71 19,71"
         style="fill:none;stroke:#dba981;stroke-width:1.48899996;stroke-linecap:round;stroke-linejoin:miter;stroke-miterlimit:4;stroke-opacity:1;stroke-dasharray:4.467, 1.489;stroke-dashoffset:0" />
      <path
         sodipodi:nodetypes="caac"
         inkscape:connector-curvature="0"
         id="path3009-0-7"
         d="m 749.9,1147 c -15,4 -19,9 -24,18 -9,16 -18,40 -7,55 6,8 24,13 30,5"
         style="fill:none;stroke:#dba981;stroke-width:3.72099996;stroke-linecap:round;stroke-linejoin:miter;stroke-miterlimit:4;stroke-opacity:1;stroke-dasharray:none" />
      <path
         sodipodi:nodetypes="csc"
         inkscape:connector-curvature="0"
         id="path3011-2-2"
         d="m 637.9,1101 c 0,0 11,5 17,5 33,2 41,-9 41,-9"
         style="fill:none;stroke:#dba981;stroke-width:3.72099996;stroke-linecap:round;stroke-linejoin:miter;stroke-miterlimit:4;stroke-opacity:1;stroke-dasharray:none" />
      <path
         inkscape:connector-curvature="0"
         id="path4050-8-0-5-3-4-654-4-4-8"
         d="m 658.9,1211 c 0,8 -6,14 -14,14 -7,0 -13,-6 -13,-14 0,-7 6,-13 13,-13 8,0 14,6 14,13"
         style="color:#000000;fill:#ffffff;fill-opacity:1;stroke:#000000;stroke-width:1.34140003;stroke-linecap:round;stroke-linejoin:miter;stroke-miterlimit:4;stroke-opacity:1;stroke-dashoffset:0;marker:none;visibility:visible;display:inline;overflow:visible;enable-background:accumulate" />
      <path
         inkscape:connector-curvature="0"
         id="path4050-8-0-5-3-4-654-0-9-2"
         d="m 658.9,1241 c 0,8 -6,14 -14,14 -7,0 -13,-6 -13,-14 0,-7 6,-13 13,-13 8,0 14,6 14,13"
         style="color:#000000;fill:#ffffff;fill-opacity:1;stroke:#000000;stroke-width:1.34140003;stroke-linecap:round;stroke-linejoin:miter;stroke-miterlimit:4;stroke-opacity:1;stroke-dashoffset:0;marker:none;visibility:visible;display:inline;overflow:visible;enable-background:accumulate" />
      <path
         inkscape:connector-curvature="0"
         id="path4050-8-0-5-3-4-654-3-6-4"
         d="m 657.9,1273 c 0,7 -6,13 -13,13 -7,0 -13,-6 -13,-13 0,-8 6,-14 13,-14 7,0 13,6 13,14"
         style="color:#000000;fill:#ffffff;fill-opacity:1;stroke:#000000;stroke-width:1.34140003;stroke-linecap:round;stroke-linejoin:miter;stroke-miterlimit:4;stroke-opacity:1;stroke-dashoffset:0;marker:none;visibility:visible;display:inline;overflow:visible;enable-background:accumulate" />
      <path
         inkscape:connector-curvature="0"
         id="path4050-8-0-5-3-4-654-1-69-4"
         d="m 658.9,1343 c 0,8 -6,14 -13,14 -7,0 -14,-6 -14,-14 0,-7 7,-13 14,-13 7,0 13,6 13,13"
         style="color:#000000;fill:#ffffff;fill-opacity:1;stroke:#000000;stroke-width:1.34140003;stroke-linecap:round;stroke-linejoin:miter;stroke-miterlimit:4;stroke-opacity:1;stroke-dashoffset:0;marker:none;visibility:visible;display:inline;overflow:visible;enable-background:accumulate" />
      <text
         sodipodi:linespacing="125%"
         id="text6811"
         y="1217.324"
         x="635.41296"
         style="font-size:18px;font-style:normal;font-variant:normal;font-weight:normal;font-stretch:normal;text-align:start;line-height:125%;letter-spacing:0px;word-spacing:0px;writing-mode:lr-tb;text-anchor:start;fill:#000000;fill-opacity:1;stroke:none;font-family:Standard Symbols L;-inkscape-font-specification:Standard Symbols L"
         xml:space="preserve"><tspan
           y="1217.324"
           x="635.41296"
           id="tspan6813"
           sodipodi:role="line">11</tspan></text>
      <text
         sodipodi:linespacing="125%"
         id="text6815"
         y="1247.248"
         x="636.14197"
         style="font-size:18px;font-style:normal;font-variant:normal;font-weight:normal;font-stretch:normal;text-align:start;line-height:125%;letter-spacing:0px;word-spacing:0px;writing-mode:lr-tb;text-anchor:start;fill:#000000;fill-opacity:1;stroke:none;font-family:Standard Symbols L;-inkscape-font-specification:Standard Symbols L"
         xml:space="preserve"><tspan
           y="1247.248"
           x="636.14197"
           id="tspan6817"
           sodipodi:role="line">12</tspan></text>
      <text
         sodipodi:linespacing="125%"
         id="text6819"
         y="1278.561"
         x="635.37708"
         style="font-size:18px;font-style:normal;font-variant:normal;font-weight:normal;font-stretch:normal;text-align:start;line-height:125%;letter-spacing:0px;word-spacing:0px;writing-mode:lr-tb;text-anchor:start;fill:#000000;fill-opacity:1;stroke:none;font-family:Standard Symbols L;-inkscape-font-specification:Standard Symbols L"
         xml:space="preserve"><tspan
           y="1278.561"
           x="635.37708"
           id="tspan6821"
           sodipodi:role="line">13</tspan></text>
      <text
         sodipodi:linespacing="125%"
         id="text6827"
         y="1349.223"
         x="635.43103"
         style="font-size:18px;font-style:normal;font-variant:normal;font-weight:normal;font-stretch:normal;text-align:start;line-height:125%;letter-spacing:0px;word-spacing:0px;writing-mode:lr-tb;text-anchor:start;fill:#000000;fill-opacity:1;stroke:none;font-family:Standard Symbols L;-inkscape-font-specification:Standard Symbols L"
         xml:space="preserve"><tspan
           y="1349.223"
           x="635.43103"
           id="tspan6829"
           sodipodi:role="line">15</tspan></text>
      <path
         sodipodi:nodetypes="cc"
         inkscape:connector-curvature="0"
         id="path3878-7-1-4"
         d="m 594.9,1375 c 17,9 104,11 136,2"
         style="fill:none;stroke:#000000;stroke-width:3;stroke-linecap:round;stroke-linejoin:miter;stroke-miterlimit:4;stroke-opacity:1;stroke-dasharray:none" />
      <path
         style="color:#000000;fill:#ffffff;fill-opacity:1;stroke:#000000;stroke-width:1.34140003;stroke-linecap:round;stroke-linejoin:miter;stroke-miterlimit:4;stroke-opacity:1;stroke-dashoffset:0;marker:none;visibility:visible;display:inline;overflow:visible;enable-background:accumulate"
         d="m 658.9,1381 c 0,8 -6,14 -13,14 -7,0 -14,-6 -14,-14 0,-7 7,-13 14,-13 7,0 13,6 13,13"
         id="path4050-8-0-5-3-4-654-1-69-04"
         inkscape:connector-curvature="0" />
      <text
         sodipodi:linespacing="125%"
         id="text6827-5"
         y="1386.4231"
         x="635.66504"
         style="font-size:18px;font-style:normal;font-variant:normal;font-weight:normal;font-stretch:normal;text-align:start;line-height:125%;letter-spacing:0px;word-spacing:0px;writing-mode:lr-tb;text-anchor:start;fill:#000000;fill-opacity:1;stroke:none;font-family:Standard Symbols L;-inkscape-font-specification:Standard Symbols L"
         xml:space="preserve"><tspan
           y="1386.4231"
           x="635.66504"
           id="tspan6829-9"
           sodipodi:role="line">16</tspan></text>
      <path
         sodipodi:nodetypes="cc"
         inkscape:connector-curvature="0"
         id="path3878-7-1-7"
         d="m 585.9,1430 c 25,5 82,15 159,-1"
         style="fill:none;stroke:#000000;stroke-width:3;stroke-linecap:round;stroke-linejoin:miter;stroke-miterlimit:4;stroke-opacity:1;stroke-dasharray:none" />
      <path
         style="color:#000000;fill:#ffffff;fill-opacity:1;stroke:#000000;stroke-width:1.34140003;stroke-linecap:round;stroke-linejoin:miter;stroke-miterlimit:4;stroke-opacity:1;stroke-dashoffset:0;marker:none;visibility:visible;display:inline;overflow:visible;enable-background:accumulate"
         d="m 658.9,1438 c 0,7 -6,13 -13,13 -7,0 -14,-6 -14,-13 0,-8 7,-14 14,-14 7,0 13,6 13,13"
         id="path4050-8-0-5-3-4-654-1-69-8"
         inkscape:connector-curvature="0" />
      <text
         sodipodi:linespacing="125%"
         id="text6827-2"
         y="1443.557"
         x="635.44006"
         style="font-size:18px;font-style:normal;font-variant:normal;font-weight:normal;font-stretch:normal;text-align:start;line-height:125%;letter-spacing:0px;word-spacing:0px;writing-mode:lr-tb;text-anchor:start;fill:#000000;fill-opacity:1;stroke:none;font-family:Standard Symbols L;-inkscape-font-specification:Standard Symbols L"
         xml:space="preserve"><tspan
           y="1443.557"
           x="635.44006"
           id="tspan6829-1"
           sodipodi:role="line">17</tspan></text>
      <path
         style="fill:none;stroke:#dba981;stroke-width:1.48899996;stroke-linecap:round;stroke-linejoin:miter;stroke-miterlimit:4;stroke-opacity:1;stroke-dasharray:4.467, 1.489;stroke-dashoffset:0"
         d="m 688.9,1104 c 3,10 0,17 5,23 10,13 31,17 44,20"
         id="path3992-4-9-6-1-0-0"
         inkscape:connector-curvature="0"
         sodipodi:nodetypes="cac" />
      <g
         transform="translate(-590.1,961.4)"
         style="stroke-linecap:round"
         id="g14224">
        <path
           sodipodi:nodetypes="ccccccscccccscccaccccccc"
           inkscape:connector-curvature="0"
           id="path4174"
           d="m 1178,504 c -2,-28.4 -2,-38.6 0,-57.7 2,-16.4 5,-32.7 9,-48.5 3,-8.9 9,-16.7 10,-25.8 2,-13.3 -2,-26.8 -3,-40.2 0,-6.2 2,-10.8 0,-18.4 -9,-8.2 -17,-27.5 -17,-40.2 0,-12.5 8,-20.5 11,-33 2,-6 -6,-14.8 -8,-25.1 -3,-10.4 0,-22.4 5,-23.3 10,-2.1 26,-8.9 35,-16.2 8,-7.2 7,-37.3 7,-37.3 0,0 1,-5.3 17,-6.5 15,-1.1 43,2.4 43,2.4 0,0 -2,16.9 4,25.1 11,13.7 36,19.7 46,24.2 15,6.8 14,12.2 16,20.8 4,20.6 -8,44.3 -15,61.2 -6,13.6 -6,29.1 -10,43.4 -3,8.6 -6,16.9 -9,25.6 -2,8.9 -5,17.8 -4,27 0,12.1 4,24.5 10,35 6,11 16,31 20,47.5 5,15.6 6,31.7 7,47.8"
           style="fill:none;stroke:#dba981;stroke-width:3.72099996;stroke-linecap:round;stroke-linejoin:round;stroke-miterlimit:4;stroke-opacity:1;stroke-dasharray:none" />
        <path
           style="color:#000000;fill:#ffffff;fill-opacity:1;stroke:#000000;stroke-width:1.34140003;stroke-linecap:round;stroke-linejoin:miter;stroke-miterlimit:4;stroke-opacity:1;stroke-dashoffset:0;marker:none;visibility:visible;display:inline;overflow:visible;enable-background:accumulate"
           d="m 1265,184.5 c 0,7.4 -6,13.4 -13,13.4 -8,0 -14,-6 -14,-13.4 0,-7.4 6,-13.4 14,-13.4 7,0 13,6 13,13.3"
           id="path4050-8-0-5-3-4-654-38-5-1"
           inkscape:connector-curvature="0" />
        <text
           xml:space="preserve"
           style="font-size:18px;font-style:normal;font-variant:normal;font-weight:normal;font-stretch:normal;text-align:start;line-height:125%;letter-spacing:0px;word-spacing:0px;writing-mode:lr-tb;text-anchor:start;fill:#000000;fill-opacity:1;stroke:none;font-family:Standard Symbols L;-inkscape-font-specification:Standard Symbols L"
           x="1242.3113"
           y="190.58702"
           id="text6823"
           sodipodi:linespacing="125%"><tspan
             sodipodi:role="line"
             id="tspan6825"
             x="1242.3113"
             y="190.58702">10</tspan></text>
      </g>
      <path
         sodipodi:nodetypes="ccccc"
         inkscape:connector-curvature="0"
         id="path3874-7-8-0-4"
         d="m 606.5,1299 6,-1 26,-2 43,3 36,4"
         style="fill:none;stroke:#000000;stroke-width:3;stroke-linecap:round;stroke-linejoin:miter;stroke-miterlimit:4;stroke-opacity:1;stroke-dasharray:none" />
      <path
         sodipodi:nodetypes="csssc"
         style="color:#000000;fill:#ffffff;fill-opacity:1;stroke:#000000;stroke-width:1.34140003;stroke-linecap:round;stroke-linejoin:miter;stroke-miterlimit:4;stroke-opacity:1;stroke-dashoffset:0;marker:none;visibility:visible;display:inline;overflow:visible;enable-background:accumulate"
         d="m 658.5,1305 c 0,7 -6,13 -13,13 -7,0 -13,-6 -13,-13 0,-8 6,-14 13,-14 7,0 13,6 13,14"
         id="path4050-8-0-5-3-4-654-3-6-4-9"
         inkscape:connector-curvature="0" />
      <text
         xml:space="preserve"
         style="font-size:18px;font-style:normal;font-variant:normal;font-weight:normal;font-stretch:normal;text-align:start;line-height:125%;letter-spacing:0px;word-spacing:0px;writing-mode:lr-tb;text-anchor:start;fill:#000000;fill-opacity:1;stroke:none;font-family:Standard Symbols L;-inkscape-font-specification:Standard Symbols L"
         x="635.72705"
         y="1310.5076"
         id="text6819-7"
         sodipodi:linespacing="125%"><tspan
           sodipodi:role="line"
           id="tspan6821-1"
           x="635.72705"
           y="1310.5076">14</tspan></text>
    </g>
  </g>
</svg>
