<?xml version="1.0" encoding="UTF-8" standalone="no"?>
<!-- Created with Inkscape (http://www.inkscape.org/) -->

<svg
   xmlns:dc="http://purl.org/dc/elements/1.1/"
   xmlns:cc="http://creativecommons.org/ns#"
   xmlns:rdf="http://www.w3.org/1999/02/22-rdf-syntax-ns#"
   xmlns:svg="http://www.w3.org/2000/svg"
   xmlns="http://www.w3.org/2000/svg"
   xmlns:sodipodi="http://sodipodi.sourceforge.net/DTD/sodipodi-0.dtd"
   xmlns:inkscape="http://www.inkscape.org/namespaces/inkscape"
   width="145.92702"
   height="303.42053"
   id="svg7224"
   version="1.1"
   inkscape:version="0.48.4 r9939"
   sodipodi:docname="Новий документ 47">
  <defs
     id="defs7226" />
  <sodipodi:namedview
     id="base"
     pagecolor="#ffffff"
     bordercolor="#666666"
     borderopacity="1.0"
     inkscape:pageopacity="0.0"
     inkscape:pageshadow="2"
     inkscape:zoom="0.35"
     inkscape:cx="250.81485"
     inkscape:cy="0.36112071"
     inkscape:document-units="px"
     inkscape:current-layer="layer1"
     showgrid="false"
     fit-margin-top="0"
     fit-margin-left="0"
     fit-margin-right="0"
     fit-margin-bottom="0"
     inkscape:window-width="1855"
     inkscape:window-height="1056"
     inkscape:window-x="65"
     inkscape:window-y="24"
     inkscape:window-maximized="1" />
  <metadata
     id="metadata7229">
    <rdf:RDF>
      <cc:Work
         rdf:about="">
        <dc:format>image/svg+xml</dc:format>
        <dc:type
           rdf:resource="http://purl.org/dc/dcmitype/StillImage" />
        <dc:title></dc:title>
      </cc:Work>
    </rdf:RDF>
  </metadata>
  <g
     inkscape:label="Layer 1"
     inkscape:groupmode="layer"
     id="layer1"
     transform="translate(-124.18515,-229.30277)">
    <g
       style="display:inline"
       transform="matrix(0.8062,0,0,0.8062,-19.038501,22.260847)"
       id="g10427">
      <path
         sodipodi:nodetypes="csasc"
         inkscape:connector-curvature="0"
         id="path2993-6-7-7"
         d="m 328,394.7 c 2,3 -6,45 -14,66 -4,11 -8,20 -7,31 1,13 7,25 13,37 11,22 22,71 19,71"
         style="fill:none;stroke:#dba981;stroke-width:1.48899996;stroke-linecap:round;stroke-linejoin:miter;stroke-miterlimit:4;stroke-opacity:1;stroke-dasharray:4.467, 1.489;stroke-dashoffset:0" />
      <path
         style="fill:none;stroke:#dba981;stroke-width:1.48899996;stroke-linecap:round;stroke-linejoin:miter;stroke-miterlimit:4;stroke-opacity:1;stroke-dasharray:4.467, 1.489;stroke-dashoffset:0"
         d="m 250.2,274.1 c -0.3,7.5 0.4,26 -1.8,38.7 -3.6,20.4 -14.3,43.4 -18.4,59.4 -2.5,9.8 -7.8,18.5 -8.4,28.3 -0.8,12.3 2.4,29.5 6.1,36.5 1.1,14 0.9,52.8 1.2,67.9 0.3,14.2 -3.6,28.3 -3.6,42.5 0,18 2.9,48.5 4.5,53.7"
         id="path3992-4-9-6-1-0-0-4"
         inkscape:connector-curvature="0"
         sodipodi:nodetypes="casacsac" />
      <path
         style="fill:none;stroke:#7dc832;stroke-width:3;stroke-linecap:round;stroke-linejoin:miter;stroke-miterlimit:4;stroke-opacity:1;stroke-dasharray:none"
         d="m 227.8,440.8 c 0,0 30.2,-0.9 45.2,-0.1 15.4,0.8 46,5 46,5"
         id="path3874-7-8-0-31"
         inkscape:connector-curvature="0"
         sodipodi:nodetypes="cac" />
      <path
         sodipodi:nodetypes="caac"
         inkscape:connector-curvature="0"
         id="path3817-6-4-2"
         d="m 338,393.7 c -4,2 -16,0 -24,-2 -12,-4 -23,-13 -36,-17 -13,-3 -24,-1 -41,-3"
         style="fill:none;stroke:#dba981;stroke-width:0.89429998;stroke-linecap:round;stroke-linejoin:miter;stroke-miterlimit:4;stroke-opacity:1;stroke-dasharray:2.6829, 0.8943;stroke-dashoffset:0" />
      <path
         style="fill:none;stroke:#7dc832;stroke-width:3;stroke-linecap:round;stroke-linejoin:miter;stroke-miterlimit:4;stroke-opacity:1;stroke-dasharray:none"
         d="m 230.1,371.7 c 14.7,-0.2 30.3,-0.5 44.9,3 19,4.5 42,22 54,23"
         id="path3868-7-7-4-5"
         inkscape:connector-curvature="0"
         sodipodi:nodetypes="cac" />
      <path
         style="fill:none;stroke:#7dc832;stroke-width:3;stroke-linecap:round;stroke-linejoin:miter;stroke-miterlimit:4;stroke-opacity:1;stroke-dasharray:none"
         d="m 248.2,312.5 c 15.1,0.4 34.8,-4.8 40.8,-15.8"
         id="path3876-91-29-8-4"
         inkscape:connector-curvature="0"
         sodipodi:nodetypes="cc" />
      <path
         style="fill:none;stroke:#7dc832;stroke-width:3;stroke-linecap:round;stroke-linejoin:miter;stroke-miterlimit:4;stroke-opacity:1;stroke-dasharray:none"
         d="m 229.2,506.6 c 26.6,1.5 63.8,0.1 79.8,-4.9"
         id="path3878-7-1-40-3"
         inkscape:connector-curvature="0"
         sodipodi:nodetypes="cc" />
      <path
         style="fill:none;stroke:#7dc832;stroke-width:3;stroke-linecap:round;stroke-linejoin:miter;stroke-miterlimit:4;stroke-opacity:1;stroke-dasharray:none"
         d="m 222.2,401.7 c 12.6,0 28.8,0 37.8,0 22,0 44,1 67,4"
         id="path3872-1-8-9-7"
         inkscape:connector-curvature="0"
         sodipodi:nodetypes="csc" />
      <path
         sodipodi:nodetypes="caac"
         inkscape:connector-curvature="0"
         id="path3009-0-7-2"
         d="m 343,312.7 c -15,4 -19,9 -24,18 -9,16 -18,40 -7,55 6,8 24,13 30,5"
         style="fill:none;stroke:#dba981;stroke-width:3.72099996;stroke-linecap:round;stroke-linejoin:miter;stroke-miterlimit:4;stroke-opacity:1;stroke-dasharray:none" />
      <path
         sodipodi:nodetypes="csc"
         inkscape:connector-curvature="0"
         id="path3011-2-2-1"
         d="m 231,266.7 c 0,0 11,5 17,5 33,2 41,-9 41,-9"
         style="fill:none;stroke:#dba981;stroke-width:3.72099996;stroke-linecap:round;stroke-linejoin:miter;stroke-miterlimit:4;stroke-opacity:1;stroke-dasharray:none" />
      <path
         inkscape:connector-curvature="0"
         id="path4050-8-0-5-3-4-654-4-4-8-1"
         d="m 271.5,376.3 c 0,8 -6,14 -14,14 -7,0 -13,-6 -13,-14 0,-7 6,-13 13,-13 8,0 14,6 14,13"
         style="color:#000000;fill:#ffffff;fill-opacity:1;stroke:#000000;stroke-width:1.34140003;stroke-linecap:round;stroke-linejoin:miter;stroke-miterlimit:4;stroke-opacity:1;stroke-dashoffset:0;marker:none;visibility:visible;display:inline;overflow:visible;enable-background:accumulate" />
      <path
         inkscape:connector-curvature="0"
         id="path4050-8-0-5-3-4-654-0-9-2-4"
         d="m 271.5,406.3 c 0,8 -6,14 -14,14 -7,0 -13,-6 -13,-14 0,-7 6,-13 13,-13 8,0 14,6 14,13"
         style="color:#000000;fill:#ffffff;fill-opacity:1;stroke:#000000;stroke-width:1.34140003;stroke-linecap:round;stroke-linejoin:miter;stroke-miterlimit:4;stroke-opacity:1;stroke-dashoffset:0;marker:none;visibility:visible;display:inline;overflow:visible;enable-background:accumulate" />
      <path
         inkscape:connector-curvature="0"
         id="path4050-8-0-5-3-4-654-3-6-4-8"
         d="m 271,438.3 c 0,7 -6,13 -13,13 -7,0 -13,-6 -13,-13 0,-8 6,-14 13,-14 7,0 13,6 13,14"
         style="color:#000000;fill:#ffffff;fill-opacity:1;stroke:#000000;stroke-width:1.34140003;stroke-linecap:round;stroke-linejoin:miter;stroke-miterlimit:4;stroke-opacity:1;stroke-dashoffset:0;marker:none;visibility:visible;display:inline;overflow:visible;enable-background:accumulate" />
      <path
         inkscape:connector-curvature="0"
         id="path4050-8-0-5-3-4-654-1-69-4-0"
         d="m 271.5,508.3 c 0,8 -6,14 -13,14 -7,0 -14,-6 -14,-14 0,-7 7,-13 14,-13 7,0 13,6 13,13"
         style="color:#000000;fill:#ffffff;fill-opacity:1;stroke:#000000;stroke-width:1.34140003;stroke-linecap:round;stroke-linejoin:miter;stroke-miterlimit:4;stroke-opacity:1;stroke-dashoffset:0;marker:none;visibility:visible;display:inline;overflow:visible;enable-background:accumulate" />
      <text
         sodipodi:linespacing="125%"
         id="text6811-3"
         y="382.91101"
         x="249.243"
         style="font-size:18px;font-style:normal;font-variant:normal;font-weight:normal;font-stretch:normal;text-align:start;line-height:125%;letter-spacing:0px;word-spacing:0px;writing-mode:lr-tb;text-anchor:start;fill:#000000;fill-opacity:1;stroke:none;font-family:Standard Symbols L;-inkscape-font-specification:Standard Symbols L"
         xml:space="preserve"><tspan
           y="382.91101"
           x="249.243"
           id="tspan6813-8"
           sodipodi:role="line">19</tspan></text>
      <text
         sodipodi:linespacing="125%"
         id="text6815-0"
         y="412.85699"
         x="249.315"
         style="font-size:18px;font-style:normal;font-variant:normal;font-weight:normal;font-stretch:normal;text-align:start;line-height:125%;letter-spacing:0px;word-spacing:0px;writing-mode:lr-tb;text-anchor:start;fill:#000000;fill-opacity:1;stroke:none;font-family:Standard Symbols L;-inkscape-font-specification:Standard Symbols L"
         xml:space="preserve"><tspan
           y="412.85699"
           x="249.315"
           id="tspan6817-5"
           sodipodi:role="line">20</tspan></text>
      <text
         sodipodi:linespacing="125%"
         id="text6819-5"
         y="443.85699"
         x="249.13499"
         style="font-size:18px;font-style:normal;font-variant:normal;font-weight:normal;font-stretch:normal;text-align:start;line-height:125%;letter-spacing:0px;word-spacing:0px;writing-mode:lr-tb;text-anchor:start;fill:#000000;fill-opacity:1;stroke:none;font-family:Standard Symbols L;-inkscape-font-specification:Standard Symbols L"
         xml:space="preserve"><tspan
           y="443.85699"
           x="249.13499"
           id="tspan6821-6"
           sodipodi:role="line">21</tspan></text>
      <text
         sodipodi:linespacing="125%"
         id="text6827-28"
         y="514.85699"
         x="249.63901"
         style="font-size:18px;font-style:normal;font-variant:normal;font-weight:normal;font-stretch:normal;text-align:start;line-height:125%;letter-spacing:0px;word-spacing:0px;writing-mode:lr-tb;text-anchor:start;fill:#000000;fill-opacity:1;stroke:none;font-family:Standard Symbols L;-inkscape-font-specification:Standard Symbols L"
         xml:space="preserve"><tspan
           y="514.85699"
           x="249.63901"
           id="tspan6829-5"
           sodipodi:role="line">23</tspan></text>
      <path
         sodipodi:nodetypes="cc"
         inkscape:connector-curvature="0"
         id="path3878-7-1-4-5"
         d="m 225.8,548.5 c 32.7,2.4 82.2,-1.3 98.2,-5.8"
         style="fill:none;stroke:#7dc832;stroke-width:3;stroke-linecap:round;stroke-linejoin:miter;stroke-miterlimit:4;stroke-opacity:1;stroke-dasharray:none" />
      <path
         style="color:#000000;fill:#ffffff;fill-opacity:1;stroke:#000000;stroke-width:1.34140003;stroke-linecap:round;stroke-linejoin:miter;stroke-miterlimit:4;stroke-opacity:1;stroke-dashoffset:0;marker:none;visibility:visible;display:inline;overflow:visible;enable-background:accumulate"
         d="m 271.5,546.3 c 0,8 -6,14 -13,14 -7,0 -14,-6 -14,-14 0,-7 7,-13 14,-13 7,0 13,6 13,13"
         id="path4050-8-0-5-3-4-654-1-69-04-8"
         inkscape:connector-curvature="0" />
      <text
         sodipodi:linespacing="125%"
         id="text6827-5-7"
         y="552.85699"
         x="248.87399"
         style="font-size:18px;font-style:normal;font-variant:normal;font-weight:normal;font-stretch:normal;text-align:start;line-height:125%;letter-spacing:0px;word-spacing:0px;writing-mode:lr-tb;text-anchor:start;fill:#000000;fill-opacity:1;stroke:none;font-family:Standard Symbols L;-inkscape-font-specification:Standard Symbols L"
         xml:space="preserve"><tspan
           y="552.85699"
           x="248.87399"
           id="tspan6829-9-4"
           sodipodi:role="line">24</tspan></text>
      <path
         sodipodi:nodetypes="cc"
         inkscape:connector-curvature="0"
         id="path3878-7-1-7-5"
         d="m 230.3,602.4 c 27,1.1 69.2,0.3 107.7,-7.7"
         style="fill:none;stroke:#7dc832;stroke-width:3;stroke-linecap:round;stroke-linejoin:miter;stroke-miterlimit:4;stroke-opacity:1;stroke-dasharray:none" />
      <path
         style="color:#000000;fill:#ffffff;fill-opacity:1;stroke:#000000;stroke-width:1.34140003;stroke-linecap:round;stroke-linejoin:miter;stroke-miterlimit:4;stroke-opacity:1;stroke-dashoffset:0;marker:none;visibility:visible;display:inline;overflow:visible;enable-background:accumulate"
         d="m 271.5,603.3 c 0,7 -6,13 -13,13 -7,0 -14,-6 -14,-13 0,-8 7,-14 14,-14 7,0 13,6 13,13"
         id="path4050-8-0-5-3-4-654-1-69-8-2"
         inkscape:connector-curvature="0" />
      <text
         sodipodi:linespacing="125%"
         id="text6827-2-1"
         y="608.85699"
         x="249.23399"
         style="font-size:18px;font-style:normal;font-variant:normal;font-weight:normal;font-stretch:normal;text-align:start;line-height:125%;letter-spacing:0px;word-spacing:0px;writing-mode:lr-tb;text-anchor:start;fill:#000000;fill-opacity:1;stroke:none;font-family:Standard Symbols L;-inkscape-font-specification:Standard Symbols L"
         xml:space="preserve"><tspan
           y="608.85699"
           x="249.23399"
           id="tspan6829-1-6"
           sodipodi:role="line">25</tspan></text>
      <path
         style="fill:none;stroke:#dba981;stroke-width:1.48899996;stroke-linecap:round;stroke-linejoin:miter;stroke-miterlimit:4;stroke-opacity:1;stroke-dasharray:4.467, 1.489;stroke-dashoffset:0"
         d="m 282,269.7 c 3,10 0,17 5,23 10,13 31,17 44,20"
         id="path3992-4-9-6-1-0-0-15"
         inkscape:connector-curvature="0"
         sodipodi:nodetypes="cac" />
      <path
         style="fill:none;stroke:#dba981;stroke-width:3.72099996;stroke-linecap:round;stroke-linejoin:round;stroke-miterlimit:4;stroke-opacity:1;stroke-dasharray:none"
         d="m 181,631.1 c -2,-28.4 -2,-38.6 0,-57.7 2,-16.4 4.5,-32.7 9,-48.5 2.5,-8.9 8.3,-16.7 10,-25.8 3.1,-17.2 1.9,-37.7 -0.5,-52.5 -2.1,-13.8 -18.5,-22.9 -19.5,-46.3 0,-12.5 8,-20.5 11,-33 2,-6 -6,-14.8 -8,-25.1 -3,-10.4 0,-22.4 5,-23.3 10,-2.1 26,-8.9 35,-16.2 8,-7.2 7,-37.3 7,-37.3 0,0 1,-5.3 17,-6.5 15,-1.1 43,2.4 43,2.4 0,0 -2,16.9 4,25.1 11,13.7 36,19.7 46,24.2 15,6.8 14,12.2 16,20.8 4,20.6 -8,44.3 -15,61.2 -6,13.6 -6,29.1 -10,43.4 -3,8.6 -6,16.9 -9,25.6 -2,8.9 -5,17.8 -4,27 0,12.1 4,24.5 10,35 6,11 16,31 20,47.5 5,15.6 6,31.7 7,47.8"
         id="path4174-0"
         inkscape:connector-curvature="0"
         sodipodi:nodetypes="ccaacccccccscccaccccccc" />
      <path
         inkscape:connector-curvature="0"
         id="path4050-8-0-5-3-4-654-38-5-1-3"
         d="m 287.5,311.2 c 0,7.4 -6,13.4 -13,13.4 -8,0 -14,-6 -14,-13.4 0,-7.4 6,-13.4 14,-13.4 7,0 13,6 13,13.3"
         style="color:#000000;fill:#ffffff;fill-opacity:1;stroke:#000000;stroke-width:1.34140003;stroke-linecap:round;stroke-linejoin:miter;stroke-miterlimit:4;stroke-opacity:1;stroke-dashoffset:0;marker:none;visibility:visible;display:inline;overflow:visible;enable-background:accumulate" />
      <text
         sodipodi:linespacing="125%"
         id="text6823-2"
         y="317.25699"
         x="265.06299"
         style="font-size:18px;font-style:normal;font-variant:normal;font-weight:normal;font-stretch:normal;text-align:start;line-height:125%;letter-spacing:0px;word-spacing:0px;writing-mode:lr-tb;text-anchor:start;fill:#000000;fill-opacity:1;stroke:none;font-family:Standard Symbols L;-inkscape-font-specification:Standard Symbols L"
         xml:space="preserve"><tspan
           y="317.25699"
           x="265.06299"
           id="tspan6825-4"
           sodipodi:role="line">18</tspan></text>
      <path
         sodipodi:nodetypes="cc"
         inkscape:connector-curvature="0"
         id="path3874-7-8-0-4-7"
         d="m 229.1,464.9 c 26.4,-0.3 54.7,0.8 81.5,3.8"
         style="fill:none;stroke:#7dc832;stroke-width:3;stroke-linecap:round;stroke-linejoin:miter;stroke-miterlimit:4;stroke-opacity:1;stroke-dasharray:none" />
      <path
         sodipodi:nodetypes="csssc"
         style="color:#000000;fill:#ffffff;fill-opacity:1;stroke:#000000;stroke-width:1.34140003;stroke-linecap:round;stroke-linejoin:miter;stroke-miterlimit:4;stroke-opacity:1;stroke-dashoffset:0;marker:none;visibility:visible;display:inline;overflow:visible;enable-background:accumulate"
         d="m 271,470.3 c 0,7 -6,13 -13,13 -7,0 -13,-6 -13,-13 0,-8 6,-14 13,-14 7,0 13,6 13,14"
         id="path4050-8-0-5-3-4-654-3-6-4-9-1"
         inkscape:connector-curvature="0" />
      <text
         xml:space="preserve"
         style="font-size:18px;font-style:normal;font-variant:normal;font-weight:normal;font-stretch:normal;text-align:start;line-height:125%;letter-spacing:0px;word-spacing:0px;writing-mode:lr-tb;text-anchor:start;fill:#000000;fill-opacity:1;stroke:none;font-family:Standard Symbols L;-inkscape-font-specification:Standard Symbols L"
         x="248.91"
         y="475.85699"
         id="text6819-7-8"
         sodipodi:linespacing="125%"><tspan
           sodipodi:role="line"
           id="tspan6821-1-0"
           x="248.91"
           y="475.85699">22</tspan></text>
    </g>
  </g>
</svg>
