<?xml version="1.0" encoding="UTF-8" standalone="no"?>
<!-- Created with Inkscape (http://www.inkscape.org/) -->

<svg
   xmlns:dc="http://purl.org/dc/elements/1.1/"
   xmlns:cc="http://creativecommons.org/ns#"
   xmlns:rdf="http://www.w3.org/1999/02/22-rdf-syntax-ns#"
   xmlns:svg="http://www.w3.org/2000/svg"
   xmlns="http://www.w3.org/2000/svg"
   xmlns:sodipodi="http://sodipodi.sourceforge.net/DTD/sodipodi-0.dtd"
   xmlns:inkscape="http://www.inkscape.org/namespaces/inkscape"
   width="150.50011"
   height="305.64102"
   id="svg7384"
   version="1.1"
   inkscape:version="0.48.4 r9939"
   sodipodi:docname="Новий документ 50">
  <defs
     id="defs7386" />
  <sodipodi:namedview
     id="base"
     pagecolor="#ffffff"
     bordercolor="#666666"
     borderopacity="1.0"
     inkscape:pageopacity="0.0"
     inkscape:pageshadow="2"
     inkscape:zoom="0.35"
     inkscape:cx="233.10714"
     inkscape:cy="15.679044"
     inkscape:document-units="px"
     inkscape:current-layer="layer1"
     showgrid="false"
     fit-margin-top="0"
     fit-margin-left="0"
     fit-margin-right="0"
     fit-margin-bottom="0"
     inkscape:window-width="1855"
     inkscape:window-height="1056"
     inkscape:window-x="65"
     inkscape:window-y="24"
     inkscape:window-maximized="1" />
  <metadata
     id="metadata7389">
    <rdf:RDF>
      <cc:Work
         rdf:about="">
        <dc:format>image/svg+xml</dc:format>
        <dc:type
           rdf:resource="http://purl.org/dc/dcmitype/StillImage" />
        <dc:title></dc:title>
      </cc:Work>
    </rdf:RDF>
  </metadata>
  <g
     inkscape:label="Layer 1"
     inkscape:groupmode="layer"
     id="layer1"
     transform="translate(-141.89286,-242.4002)">
    <g
       style="display:inline"
       id="g17261"
       transform="translate(-258.10714,-2163.4617)">
      <path
         style="fill:none;stroke:#dba981;stroke-width:2.9999001;stroke-linecap:round;stroke-linejoin:miter;stroke-miterlimit:4;stroke-opacity:1;stroke-dasharray:none"
         d="m 403.9,2710 c -0.8,-14 0.8,-29 2.4,-44 1.7,-13 3.3,-26 7.3,-39 1.6,-7 7.3,-13 8.1,-21 0.8,-9 -1.7,-18 -3.3,-27 -0.8,-6 -3.2,-12 -4.8,-18 -4,-12 -12.1,-24 -12.1,-34 0.8,-10 0,-11 3.2,-21 0.8,-4 0,-20 -1.6,-28 -2.4,-8 4.9,-16 8.1,-17 8.8,-2 20.9,-7 28.2,-13 6.4,-6 8.1,-12 5.6,-27 -0.8,-8 12.9,-10 21,-12 8.1,-1 19.3,-4 25.8,2 6.4,5 0,17 4.8,24 8.9,11 29.1,16 37.1,19 12.1,6 12.1,10 13.7,17 3.3,17 -7.2,36 -12.9,49 -4.8,11 -8,23 -11.3,34 -1.6,7 -3.2,13 -4,20 -2.4,11 -8.1,22 -5.6,33 2.4,10 12.1,18 16.9,24 6.4,9 11.3,20 14.5,31 3.2,14 4,30 4,45"
         id="path4178"
         inkscape:connector-curvature="0" />
      <path
         sodipodi:nodetypes="cc"
         inkscape:connector-curvature="0"
         id="path3878-7-3-2"
         d="m 429.7,2564 c 29,5 86.3,5 92.7,-5"
         style="fill:none;stroke:#7dc832;stroke-width:2.41860008;stroke-linecap:round;stroke-linejoin:miter;stroke-miterlimit:4;stroke-opacity:1;stroke-dasharray:none" />
      <path
         sodipodi:nodetypes="cc"
         inkscape:connector-curvature="0"
         id="path3992-4-5-7"
         d="m 500.7,2436 c -16.2,-11 -40.3,-3 -53.2,3"
         style="fill:none;stroke:#dba981;stroke-width:0.72100002;stroke-linecap:round;stroke-linejoin:miter;stroke-miterlimit:4;stroke-opacity:1;stroke-dasharray:2.163, 0.721;stroke-dashoffset:0" />
      <path
         style="fill:none;stroke:#dba981;stroke-width:1.20039999;stroke-linecap:round;stroke-linejoin:miter;stroke-miterlimit:4;stroke-opacity:1;stroke-dasharray:3.6013, 1.2004;stroke-dashoffset:0"
         d="m 420,2521 c 4.1,34 19.4,55 16.2,84 -1.6,15 -13.7,23 -15.3,90"
         id="path2989-9-1-3-4"
         inkscape:connector-curvature="0"
         sodipodi:nodetypes="csc" />
      <path
         sodipodi:nodetypes="caaaac"
         inkscape:connector-curvature="0"
         id="path6792-8"
         d="m 403.9,2509 c 0,0 2.4,11 7.3,13 2.4,1 4.8,0 7.2,-2 5.7,-5 7.3,-14 8.1,-23 0,-5 -2.4,-12 -4.8,-18 -1.7,-6 -8.1,-17 -8.1,-17"
         style="fill:none;stroke:#dba981;stroke-width:2.9999001;stroke-linecap:round;stroke-linejoin:miter;stroke-miterlimit:4;stroke-opacity:1;stroke-dasharray:none" />
      <path
         sodipodi:nodetypes="cc"
         inkscape:connector-curvature="0"
         id="path3878-7-3-7"
         d="m 436.2,2607 c 32.2,4 66.9,0 77.4,-6"
         style="fill:none;stroke:#7dc832;stroke-width:2.41860008;stroke-linecap:round;stroke-linejoin:miter;stroke-miterlimit:4;stroke-opacity:1;stroke-dasharray:none" />
      <path
         inkscape:connector-curvature="0"
         id="path4050-8-0-5-3-4-654-1-1-0"
         d="m 517.6,2563 c 0,6 -4.8,11 -11.3,11 -5.6,0 -10.5,-5 -10.5,-11 0,-6 4.9,-10 10.5,-10 6.5,0 11.3,4 11.3,10"
         style="color:#000000;fill:#ffffff;fill-opacity:1;stroke:#000000;stroke-width:1.08140004;stroke-linecap:round;stroke-linejoin:miter;stroke-miterlimit:4;stroke-opacity:1;stroke-dashoffset:0;marker:none;visibility:visible;display:inline;overflow:visible;enable-background:accumulate" />
      <path
         inkscape:connector-curvature="0"
         id="path4050-8-0-5-3-4-654-1-1-9"
         d="m 489.4,2607 c 0,6 -4.9,11 -11.3,11 -5.7,0 -10.5,-5 -10.5,-11 0,-6 4.8,-11 10.5,-11 6.4,0 11.3,5 11.3,11"
         style="color:#000000;fill:#ffffff;fill-opacity:1;stroke:#000000;stroke-width:1.08140004;stroke-linecap:round;stroke-linejoin:miter;stroke-miterlimit:4;stroke-opacity:1;stroke-dashoffset:0;marker:none;visibility:visible;display:inline;overflow:visible;enable-background:accumulate" />
      <path
         style="fill:none;stroke:#dba981;stroke-width:1.20039999;stroke-linecap:round;stroke-linejoin:miter;stroke-miterlimit:4;stroke-opacity:1;stroke-dasharray:3.6013, 1.2004;stroke-dashoffset:0"
         d="m 450.7,2416 c 1.6,9 4,16 0,23 -4.9,10 -18.6,17 -28.2,20"
         id="path3992-4-9-6-4-9-2"
         inkscape:connector-curvature="0"
         sodipodi:nodetypes="cac" />
      <path
         sodipodi:nodetypes="cc"
         inkscape:connector-curvature="0"
         id="path3878-7-3"
         d="m 421.7,2526 c 32.2,5 109.6,4 112,-4"
         style="fill:none;stroke:#7dc832;stroke-width:2.41860008;stroke-linecap:round;stroke-linejoin:miter;stroke-miterlimit:4;stroke-opacity:1;stroke-dasharray:none" />
      <path
         inkscape:connector-curvature="0"
         id="path4050-8-0-5-3-4-654-1-1-4"
         d="m 457.9,2523 c 0,6 -4.8,11 -10.4,11 -6.5,0 -11.3,-5 -11.3,-11 0,-6 4.8,-11 11.3,-11 5.6,0 10.4,5 10.4,11"
         style="color:#000000;fill:#ffffff;fill-opacity:1;stroke:#000000;stroke-width:1.08140004;stroke-linecap:round;stroke-linejoin:miter;stroke-miterlimit:4;stroke-opacity:1;stroke-dashoffset:0;marker:none;visibility:visible;display:inline;overflow:visible;enable-background:accumulate" />
      <path
         sodipodi:nodetypes="cc"
         inkscape:connector-curvature="0"
         id="path3878-7-3-0"
         d="m 452.3,2437 c 26.6,-8 34.7,-7 44.3,-4"
         style="fill:none;stroke:#7dc832;stroke-width:2.41860008;stroke-linecap:round;stroke-linejoin:miter;stroke-miterlimit:4;stroke-opacity:1;stroke-dasharray:none" />
      <path
         sodipodi:nodetypes="csssc"
         inkscape:connector-curvature="0"
         id="path4050-8-0-5-3-4-654-1-1-4-2"
         d="m 489.4,2433 c 0,6 -4.9,11 -10.5,11 -6.5,0 -11.3,-5 -11.3,-11 0,-6 4.8,-11 11.3,-11 5.6,0 10.5,5 10.5,11"
         style="color:#000000;fill:#ffffff;fill-opacity:1;stroke:#000000;stroke-width:1.08140004;stroke-linecap:round;stroke-linejoin:miter;stroke-miterlimit:4;stroke-opacity:1;stroke-dashoffset:0;marker:none;visibility:visible;display:inline;overflow:visible;enable-background:accumulate" />
      <path
         sodipodi:nodetypes="cc"
         inkscape:connector-curvature="0"
         id="path3878-7-3-6"
         d="m 428.1,2639 c 32.3,5 87.9,-2 97.6,-10"
         style="fill:none;stroke:#7dc832;stroke-width:2.41860008;stroke-linecap:round;stroke-linejoin:miter;stroke-miterlimit:4;stroke-opacity:1;stroke-dasharray:none" />
      <path
         inkscape:connector-curvature="0"
         id="path4050-8-0-5-3-4-654-1-1-4-3"
         d="m 517.6,2639 c 0,6 -4.8,11 -10.5,11 -6.4,0 -11.3,-5 -11.3,-11 0,-6 4.9,-10 11.3,-10 5.7,0 10.5,4 10.5,10"
         style="color:#000000;fill:#ffffff;fill-opacity:1;stroke:#000000;stroke-width:1.08140004;stroke-linecap:round;stroke-linejoin:miter;stroke-miterlimit:4;stroke-opacity:1;stroke-dashoffset:0;marker:none;visibility:visible;display:inline;overflow:visible;enable-background:accumulate" />
      <path
         sodipodi:nodetypes="cc"
         inkscape:connector-curvature="0"
         id="path3878-7-3-9"
         d="m 422.5,2692 c 32.2,5 113.6,0 123.3,-8"
         style="fill:none;stroke:#7dc832;stroke-width:2.41860008;stroke-linecap:round;stroke-linejoin:miter;stroke-miterlimit:4;stroke-opacity:1;stroke-dasharray:none" />
      <path
         inkscape:connector-curvature="0"
         id="path4050-8-0-5-3-4-654-1-1-4-1"
         d="m 489.4,2694 c 0,6 -4.9,11 -10.5,11 -6.5,0 -11.3,-5 -11.3,-11 0,-6 4.8,-11 11.3,-11 5.6,0 10.5,5 10.5,11"
         style="color:#000000;fill:#ffffff;fill-opacity:1;stroke:#000000;stroke-width:1.08140004;stroke-linecap:round;stroke-linejoin:miter;stroke-miterlimit:4;stroke-opacity:1;stroke-dashoffset:0;marker:none;visibility:visible;display:inline;overflow:visible;enable-background:accumulate" />
      <text
         sodipodi:linespacing="125%"
         id="text11310"
         y="2611.874"
         x="471.2395"
         style="font-size:14.51159954px;font-style:normal;font-variant:normal;font-weight:normal;font-stretch:normal;text-align:start;line-height:125%;letter-spacing:0px;word-spacing:0px;writing-mode:lr-tb;text-anchor:start;fill:#000000;fill-opacity:1;stroke:none;font-family:Standard Symbols L;-inkscape-font-specification:Standard Symbols L"
         xml:space="preserve"><tspan
           y="2611.874"
           x="471.2395"
           id="tspan11312"
           sodipodi:role="line">31</tspan></text>
      <text
         sodipodi:linespacing="125%"
         id="text11314"
         y="2644.2468"
         x="499.85596"
         style="font-size:14.51159954px;font-style:normal;font-variant:normal;font-weight:normal;font-stretch:normal;text-align:start;line-height:125%;letter-spacing:0px;word-spacing:0px;writing-mode:lr-tb;text-anchor:start;fill:#000000;fill-opacity:1;stroke:none;font-family:Standard Symbols L;-inkscape-font-specification:Standard Symbols L"
         xml:space="preserve"><tspan
           y="2644.2468"
           x="499.85596"
           id="tspan11316"
           sodipodi:role="line">32</tspan></text>
      <text
         sodipodi:linespacing="125%"
         id="text11318"
         y="2698.7202"
         x="471.28299"
         style="font-size:14.51159954px;font-style:normal;font-variant:normal;font-weight:normal;font-stretch:normal;text-align:start;line-height:125%;letter-spacing:0px;word-spacing:0px;writing-mode:lr-tb;text-anchor:start;fill:#000000;fill-opacity:1;stroke:none;font-family:Standard Symbols L;-inkscape-font-specification:Standard Symbols L"
         xml:space="preserve"><tspan
           y="2698.7202"
           x="471.28299"
           id="tspan11320"
           sodipodi:role="line">33</tspan></text>
      <text
         sodipodi:linespacing="125%"
         id="text11322"
         y="2437.8733"
         x="470.76791"
         style="font-size:14.51159954px;font-style:normal;font-variant:normal;font-weight:normal;font-stretch:normal;text-align:start;line-height:125%;letter-spacing:0px;word-spacing:0px;writing-mode:lr-tb;text-anchor:start;fill:#000000;fill-opacity:1;stroke:none;font-family:Standard Symbols L;-inkscape-font-specification:Standard Symbols L"
         xml:space="preserve"><tspan
           y="2437.8733"
           x="470.76791"
           id="tspan11324"
           sodipodi:role="line">26</tspan></text>
      <text
         sodipodi:linespacing="125%"
         id="text11326"
         y="2527.8171"
         x="439.2269"
         style="font-size:14.51159954px;font-style:normal;font-variant:normal;font-weight:normal;font-stretch:normal;text-align:start;line-height:125%;letter-spacing:0px;word-spacing:0px;writing-mode:lr-tb;text-anchor:start;fill:#000000;fill-opacity:1;stroke:none;font-family:Standard Symbols L;-inkscape-font-specification:Standard Symbols L"
         xml:space="preserve"><tspan
           y="2527.8171"
           x="439.2269"
           id="tspan11328"
           sodipodi:role="line">27</tspan></text>
      <text
         sodipodi:linespacing="125%"
         id="text11334"
         y="2568.2625"
         x="499.59476"
         style="font-size:14.51159954px;font-style:normal;font-variant:normal;font-weight:normal;font-stretch:normal;text-align:start;line-height:125%;letter-spacing:0px;word-spacing:0px;writing-mode:lr-tb;text-anchor:start;fill:#000000;fill-opacity:1;stroke:none;font-family:Standard Symbols L;-inkscape-font-specification:Standard Symbols L"
         xml:space="preserve"><tspan
           y="2568.2625"
           x="499.59476"
           id="tspan11336"
           sodipodi:role="line">29</tspan></text>
      <path
         sodipodi:nodetypes="cc"
         inkscape:connector-curvature="0"
         id="path3878-7-3-5"
         d="m 424.1,2538 c 43.5,6 103.2,5 104.8,-3"
         style="fill:none;stroke:#7dc832;stroke-width:2.41860008;stroke-linecap:round;stroke-linejoin:miter;stroke-miterlimit:4;stroke-opacity:1;stroke-dasharray:none" />
      <path
         inkscape:connector-curvature="0"
         id="path4050-8-0-5-3-4-654-1-1-5"
         d="m 489.4,2543 c 0,6 -4.9,11 -11.3,11 -6.5,0 -10.5,-5 -10.5,-11 0,-6 4,-11 10.5,-11 6.4,0 11.3,5 11.3,11"
         style="color:#000000;fill:#ffffff;fill-opacity:1;stroke:#000000;stroke-width:1.08140004;stroke-linecap:round;stroke-linejoin:miter;stroke-miterlimit:4;stroke-opacity:1;stroke-dashoffset:0;marker:none;visibility:visible;display:inline;overflow:visible;enable-background:accumulate" />
      <text
         sodipodi:linespacing="125%"
         id="text11330"
         y="2547.7676"
         x="470.68082"
         style="font-size:14.51159954px;font-style:normal;font-variant:normal;font-weight:normal;font-stretch:normal;text-align:start;line-height:125%;letter-spacing:0px;word-spacing:0px;writing-mode:lr-tb;text-anchor:start;fill:#000000;fill-opacity:1;stroke:none;font-family:Standard Symbols L;-inkscape-font-specification:Standard Symbols L"
         xml:space="preserve"><tspan
           y="2547.7676"
           x="470.68082"
           id="tspan11332"
           sodipodi:role="line">28</tspan></text>
      <path
         style="fill:none;stroke:#7dc832;stroke-width:2.41860008;stroke-linecap:round;stroke-linejoin:miter;stroke-miterlimit:4;stroke-opacity:1;stroke-dasharray:none"
         d="m 436.7,2584 c 29,5 74.9,4 81.4,-6"
         id="path3878-7-3-2-6"
         inkscape:connector-curvature="0"
         sodipodi:nodetypes="cc" />
      <path
         style="color:#000000;fill:#ffffff;fill-opacity:1;stroke:#000000;stroke-width:1.08140004;stroke-linecap:round;stroke-linejoin:miter;stroke-miterlimit:4;stroke-opacity:1;stroke-dashoffset:0;marker:none;visibility:visible;display:inline;overflow:visible;enable-background:accumulate"
         d="m 457.6,2586 c 0,6 -4.8,11 -11.3,11 -5.6,0 -10.4,-5 -10.4,-11 0,-6 4.8,-11 10.4,-11 6.5,0 11.3,5 11.3,11"
         id="path4050-8-0-5-3-4-654-1-1-0-8"
         inkscape:connector-curvature="0" />
      <text
         xml:space="preserve"
         style="font-size:14.51159954px;font-style:normal;font-variant:normal;font-weight:normal;font-stretch:normal;text-align:start;line-height:125%;letter-spacing:0px;word-spacing:0px;writing-mode:lr-tb;text-anchor:start;fill:#000000;fill-opacity:1;stroke:none;font-family:Standard Symbols L;-inkscape-font-specification:Standard Symbols L"
         x="440.26862"
         y="2590.9192"
         id="text11334-5"
         sodipodi:linespacing="125%"><tspan
           sodipodi:role="line"
           id="tspan11336-4"
           x="440.26862"
           y="2590.9192">30</tspan></text>
    </g>
  </g>
</svg>
