<?xml version="1.0" encoding="UTF-8" standalone="no"?>
<!-- Created with Inkscape (http://www.inkscape.org/) -->

<svg
   xmlns:dc="http://purl.org/dc/elements/1.1/"
   xmlns:cc="http://creativecommons.org/ns#"
   xmlns:rdf="http://www.w3.org/1999/02/22-rdf-syntax-ns#"
   xmlns:svg="http://www.w3.org/2000/svg"
   xmlns="http://www.w3.org/2000/svg"
   xmlns:sodipodi="http://sodipodi.sourceforge.net/DTD/sodipodi-0.dtd"
   xmlns:inkscape="http://www.inkscape.org/namespaces/inkscape"
   width="150.55785"
   height="306.2731"
   id="svg7541"
   version="1.1"
   inkscape:version="0.48.4 r9939"
   sodipodi:docname="Новий документ 53">
  <defs
     id="defs7543" />
  <sodipodi:namedview
     id="base"
     pagecolor="#ffffff"
     bordercolor="#666666"
     borderopacity="1.0"
     inkscape:pageopacity="0.0"
     inkscape:pageshadow="2"
     inkscape:zoom="0.35"
     inkscape:cx="307.42178"
     inkscape:cy="-38.197221"
     inkscape:document-units="px"
     inkscape:current-layer="layer1"
     showgrid="false"
     fit-margin-top="0"
     fit-margin-left="0"
     fit-margin-right="0"
     fit-margin-bottom="0"
     inkscape:window-width="1855"
     inkscape:window-height="1056"
     inkscape:window-x="65"
     inkscape:window-y="24"
     inkscape:window-maximized="1" />
  <metadata
     id="metadata7546">
    <rdf:RDF>
      <cc:Work
         rdf:about="">
        <dc:format>image/svg+xml</dc:format>
        <dc:type
           rdf:resource="http://purl.org/dc/dcmitype/StillImage" />
        <dc:title></dc:title>
      </cc:Work>
    </rdf:RDF>
  </metadata>
  <g
     inkscape:label="Layer 1"
     inkscape:groupmode="layer"
     id="layer1"
     transform="translate(-67.578219,-187.89186)">
    <g
       style="display:inline"
       transform="matrix(0.8062,0,0,0.8062,-227.20478,-13.800219)"
       id="g10468">
      <g
         id="g17151"
         transform="translate(-64.48,-6.613)">
        <path
           sodipodi:nodetypes="cccsc"
           inkscape:connector-curvature="0"
           id="path3992-4-9-6-4-9-2-9"
           d="m 529.2,259.3 c 0.5,2.7 1.5,11.8 2.2,29.1 6.6,36.1 26.5,55.8 24,120.9 -0.5,32.3 -11.6,75.3 -8.3,95.7 5.8,35.3 27.2,52 26.5,105.4"
           style="fill:none;stroke:#dba981;stroke-width:1.48899996;stroke-linecap:round;stroke-linejoin:miter;stroke-miterlimit:4;stroke-opacity:1;stroke-dasharray:4.467, 1.489;stroke-dashoffset:0" />
        <path
           inkscape:connector-curvature="0"
           id="path4178-3"
           d="m 435,634.6 c -1,-18.2 1,-36.5 3,-54.6 2,-16.4 4,-32.8 9,-48.7 2,-8.8 9,-16.6 10,-25.7 1,-11.3 -2,-22.8 -4,-33.9 -1,-7.6 -4,-15 -6,-22.3 -5,-14.3 -15,-29.9 -15,-42.6 1,-12.5 0,-12.6 4,-25.1 1,-6 0,-25 -2,-35.4 -3,-10.3 6,-20 10,-20.9 11,-2.1 26,-8.9 35,-16.1 8,-7.3 10,-15 7,-33.8 -1,-9.1 16,-11.9 26,-14.1 10,-2.4 24,-5.4 32,1.5 8,6.7 0,21.9 6,30 11,13.8 36,19.8 46,24.1 15,6.9 15,12.3 17,21 4,20.5 -10,40.9 -16,61.1 -4.2,14.1 -10.3,27.6 -14,41.8 -5.6,21.7 -14.9,50.7 -12,66 3,11.8 15,21.4 21,29.6 8,11.3 14,24.6 18,37.9 4,18 5,36.9 5,55.5"
           style="fill:none;stroke:#dba981;stroke-width:3.72099996;stroke-linecap:round;stroke-linejoin:miter;stroke-miterlimit:4;stroke-opacity:1;stroke-dasharray:none"
           sodipodi:nodetypes="cccccccccccccccccaacccc" />
        <path
           style="fill:none;stroke:#7dc832;stroke-width:3;stroke-linecap:round;stroke-linejoin:miter;stroke-miterlimit:4;stroke-opacity:1;stroke-dasharray:none"
           d="m 467.5,449.5 c 18,3.2 36.4,5.8 82.9,3.8"
           id="path3878-7-3-2-2"
           inkscape:connector-curvature="0"
           sodipodi:nodetypes="cc" />
        <path
           sodipodi:nodetypes="csc"
           inkscape:connector-curvature="0"
           id="path2989-9-1-3-4-8"
           d="m 455,399.9 c 5,42 24,68.1 20,103.7 -2,19.5 -17,28.8 -19,111.5"
           style="fill:none;stroke:#dba981;stroke-width:1.48899996;stroke-linecap:round;stroke-linejoin:miter;stroke-miterlimit:4;stroke-opacity:1;stroke-dasharray:4.467, 1.489;stroke-dashoffset:0" />
        <path
           style="fill:none;stroke:#dba981;stroke-width:3.72099996;stroke-linecap:round;stroke-linejoin:miter;stroke-miterlimit:4;stroke-opacity:1;stroke-dasharray:none"
           d="m 435,384.7 c 0,0 3,13.4 9,16.1 3,0.9 6.8,0.3 9,-1.8 6.8,-6.6 5.8,-18.2 6.4,-27.6 0.5,-7.8 -0.3,-15.8 -2.4,-23.4 -2.1,-7.6 -10,-21.5 -10,-21.5"
           id="path6792-8-3"
           inkscape:connector-curvature="0"
           sodipodi:nodetypes="caaaac" />
        <path
           style="fill:none;stroke:#7dc832;stroke-width:3;stroke-linecap:round;stroke-linejoin:miter;stroke-miterlimit:4;stroke-opacity:1;stroke-dasharray:none"
           d="m 475,506.4 c 20,2.4 33,4.6 71.9,0.6"
           id="path3878-7-3-7-6"
           inkscape:connector-curvature="0"
           sodipodi:nodetypes="cc" />
        <path
           style="color:#000000;fill:#ffffff;fill-opacity:1;stroke:#000000;stroke-width:1.34140003;stroke-linecap:round;stroke-linejoin:miter;stroke-miterlimit:4;stroke-opacity:1;stroke-dashoffset:0;marker:none;visibility:visible;display:inline;overflow:visible;enable-background:accumulate"
           d="m 503.8,453 c 0,7.4 -6,13.5 -14,13.5 -7,0 -13,-6.1 -13,-13.5 0,-7.4 6,-13.4 13,-13.4 8,0 14,6 14,13.4"
           id="path4050-8-0-5-3-4-654-1-1-0-84"
           inkscape:connector-curvature="0" />
        <path
           style="color:#000000;fill:#ffffff;fill-opacity:1;stroke:#000000;stroke-width:1.34140003;stroke-linecap:round;stroke-linejoin:miter;stroke-miterlimit:4;stroke-opacity:1;stroke-dashoffset:0;marker:none;visibility:visible;display:inline;overflow:visible;enable-background:accumulate"
           d="m 503.8,507.6 c 0,7.4 -6,13.4 -14,13.4 -7,0 -13,-6 -13,-13.4 0,-7.4 6,-13.4 13,-13.4 8,0 14,5.9 14,13.3"
           id="path4050-8-0-5-3-4-654-1-1-9-3"
           inkscape:connector-curvature="0" />
        <path
           sodipodi:nodetypes="cac"
           inkscape:connector-curvature="0"
           id="path3992-4-9-6-4-9-2-4"
           d="m 493,270 c 2,10.8 5,19.9 0,28.3 -6,12.7 -23,21.1 -35,24.2"
           style="fill:none;stroke:#dba981;stroke-width:1.48899996;stroke-linecap:round;stroke-linejoin:miter;stroke-miterlimit:4;stroke-opacity:1;stroke-dasharray:4.467, 1.489;stroke-dashoffset:0" />
        <path
           style="fill:none;stroke:#7dc832;stroke-width:3;stroke-linecap:round;stroke-linejoin:miter;stroke-miterlimit:4;stroke-opacity:1;stroke-dasharray:none"
           d="m 457,405.8 c 20,3.2 53.6,7.7 98.8,3.7"
           id="path3878-7-3-25"
           inkscape:connector-curvature="0"
           sodipodi:nodetypes="cc" />
        <path
           style="color:#000000;fill:#ffffff;fill-opacity:1;stroke:#000000;stroke-width:1.34140003;stroke-linecap:round;stroke-linejoin:miter;stroke-miterlimit:4;stroke-opacity:1;stroke-dashoffset:0;marker:none;visibility:visible;display:inline;overflow:visible;enable-background:accumulate"
           d="m 503.8,404.9 c 0,7.4 -6,13.4 -13,13.4 -8,0 -14,-6 -14,-13.4 0,-7.4 6,-13.4 14,-13.4 7,0 13,6 13,13.3"
           id="path4050-8-0-5-3-4-654-1-1-4-28"
           inkscape:connector-curvature="0" />
        <path
           style="fill:none;stroke:#7dc832;stroke-width:3;stroke-linecap:round;stroke-linejoin:miter;stroke-miterlimit:4;stroke-opacity:1;stroke-dasharray:none"
           d="m 495,295.3 c 16.5,-4.7 27.2,-6.7 35.4,-7"
           id="path3878-7-3-0-2"
           inkscape:connector-curvature="0"
           sodipodi:nodetypes="cc" />
        <path
           style="color:#000000;fill:#ffffff;fill-opacity:1;stroke:#000000;stroke-width:1.34140003;stroke-linecap:round;stroke-linejoin:miter;stroke-miterlimit:4;stroke-opacity:1;stroke-dashoffset:0;marker:none;visibility:visible;display:inline;overflow:visible;enable-background:accumulate"
           d="m 532.1,299.9 c 0,7.4 -6,13.4 -13,13.4 -8,0 -14,-6 -14,-13.4 0,-7.4 6,-13.4 14,-13.4 7,0 13,6 13,13.3"
           id="path4050-8-0-5-3-4-654-1-1-4-2-1"
           inkscape:connector-curvature="0"
           sodipodi:nodetypes="csssc" />
        <path
           style="fill:none;stroke:#7dc832;stroke-width:3;stroke-linecap:round;stroke-linejoin:miter;stroke-miterlimit:4;stroke-opacity:1;stroke-dasharray:none"
           d="m 462.9,546 c 20,3.2 41.9,7.8 97.2,-1.6"
           id="path3878-7-3-6-5"
           inkscape:connector-curvature="0"
           sodipodi:nodetypes="cc" />
        <path
           style="color:#000000;fill:#ffffff;fill-opacity:1;stroke:#000000;stroke-width:1.34140003;stroke-linecap:round;stroke-linejoin:miter;stroke-miterlimit:4;stroke-opacity:1;stroke-dashoffset:0;marker:none;visibility:visible;display:inline;overflow:visible;enable-background:accumulate"
           d="m 532.1,544.7 c 0,7.4 -6,13.4 -13,13.4 -8,0 -14,-6 -14,-13.4 0,-7.4 6,-13.4 14,-13.4 7,0 13,6 13,13.3"
           id="path4050-8-0-5-3-4-654-1-1-4-3-7"
           inkscape:connector-curvature="0" />
        <path
           style="fill:none;stroke:#7dc832;stroke-width:3;stroke-linecap:round;stroke-linejoin:miter;stroke-miterlimit:4;stroke-opacity:1;stroke-dasharray:none"
           d="m 455.9,613.6 c 20,3.2 41.8,11.6 118.9,-0.5"
           id="path3878-7-3-9-8"
           inkscape:connector-curvature="0"
           sodipodi:nodetypes="cc" />
        <path
           style="color:#000000;fill:#ffffff;fill-opacity:1;stroke:#000000;stroke-width:1.34140003;stroke-linecap:round;stroke-linejoin:miter;stroke-miterlimit:4;stroke-opacity:1;stroke-dashoffset:0;marker:none;visibility:visible;display:inline;overflow:visible;enable-background:accumulate"
           d="m 503.8,614.2 c 0,7.4 -6,13.4 -13,13.4 -8,0 -14,-6 -14,-13.4 0,-7.4 6,-13.4 14,-13.4 7,0 13,6 13,13.3"
           id="path4050-8-0-5-3-4-654-1-1-4-1-9"
           inkscape:connector-curvature="0" />
        <text
           xml:space="preserve"
           style="font-size:18px;font-style:normal;font-variant:normal;font-weight:normal;font-stretch:normal;text-align:start;line-height:125%;letter-spacing:0px;word-spacing:0px;writing-mode:lr-tb;text-anchor:start;fill:#000000;fill-opacity:1;stroke:none;font-family:Standard Symbols L;-inkscape-font-specification:Standard Symbols L"
           x="481.66"
           y="513.65851"
           id="text11310-0"
           sodipodi:linespacing="125%"><tspan
             sodipodi:role="line"
             id="tspan11312-7"
             x="481.66"
             y="513.65851">39</tspan></text>
        <text
           xml:space="preserve"
           style="font-size:18px;font-style:normal;font-variant:normal;font-weight:normal;font-stretch:normal;text-align:start;line-height:125%;letter-spacing:0px;word-spacing:0px;writing-mode:lr-tb;text-anchor:start;fill:#000000;fill-opacity:1;stroke:none;font-family:Standard Symbols L;-inkscape-font-specification:Standard Symbols L"
           x="509.65399"
           y="550.73724"
           id="text11314-0"
           sodipodi:linespacing="125%"><tspan
             sodipodi:role="line"
             id="tspan11316-5"
             x="509.65399"
             y="550.73724">40</tspan></text>
        <text
           xml:space="preserve"
           style="font-size:18px;font-style:normal;font-variant:normal;font-weight:normal;font-stretch:normal;text-align:start;line-height:125%;letter-spacing:0px;word-spacing:0px;writing-mode:lr-tb;text-anchor:start;fill:#000000;fill-opacity:1;stroke:none;font-family:Standard Symbols L;-inkscape-font-specification:Standard Symbols L"
           x="481.58801"
           y="620.35602"
           id="text11318-7"
           sodipodi:linespacing="125%"><tspan
             sodipodi:role="line"
             id="tspan11320-6"
             x="481.58801"
             y="620.35602">41</tspan></text>
        <text
           xml:space="preserve"
           style="font-size:18px;font-style:normal;font-variant:normal;font-weight:normal;font-stretch:normal;text-align:start;line-height:125%;letter-spacing:0px;word-spacing:0px;writing-mode:lr-tb;text-anchor:start;fill:#000000;fill-opacity:1;stroke:none;font-family:Standard Symbols L;-inkscape-font-specification:Standard Symbols L"
           x="509.08701"
           y="306.03296"
           id="text11322-9"
           sodipodi:linespacing="125%"><tspan
             sodipodi:role="line"
             id="tspan11324-1"
             x="509.08701"
             y="306.03296">34</tspan></text>
        <text
           xml:space="preserve"
           style="font-size:18px;font-style:normal;font-variant:normal;font-weight:normal;font-stretch:normal;text-align:start;line-height:125%;letter-spacing:0px;word-spacing:0px;writing-mode:lr-tb;text-anchor:start;fill:#000000;fill-opacity:1;stroke:none;font-family:Standard Symbols L;-inkscape-font-specification:Standard Symbols L"
           x="480.60699"
           y="410.93332"
           id="text11326-3"
           sodipodi:linespacing="125%"><tspan
             sodipodi:role="line"
             id="tspan11328-1"
             x="480.60699"
             y="410.93332">35</tspan></text>
        <text
           xml:space="preserve"
           style="font-size:18px;font-style:normal;font-variant:normal;font-weight:normal;font-stretch:normal;text-align:start;line-height:125%;letter-spacing:0px;word-spacing:0px;writing-mode:lr-tb;text-anchor:start;fill:#000000;fill-opacity:1;stroke:none;font-family:Standard Symbols L;-inkscape-font-specification:Standard Symbols L"
           x="482.065"
           y="459.0506"
           id="text11334-2"
           sodipodi:linespacing="125%"><tspan
             sodipodi:role="line"
             id="tspan11336-5"
             x="482.065"
             y="459.0506">37</tspan></text>
        <path
           style="fill:none;stroke:#7dc832;stroke-width:3;stroke-linecap:round;stroke-linejoin:miter;stroke-miterlimit:4;stroke-opacity:1;stroke-dasharray:none"
           d="m 460,421.2 c 18.8,3.6 51.8,7.8 93.7,4.6"
           id="path3878-7-3-5-6"
           inkscape:connector-curvature="0"
           sodipodi:nodetypes="cc" />
        <path
           style="color:#000000;fill:#ffffff;fill-opacity:1;stroke:#000000;stroke-width:1.34140003;stroke-linecap:round;stroke-linejoin:miter;stroke-miterlimit:4;stroke-opacity:1;stroke-dashoffset:0;marker:none;visibility:visible;display:inline;overflow:visible;enable-background:accumulate"
           d="m 532.1,430.7 c 0,7.4 -6,13.4 -14,13.4 -8,0 -13,-6 -13,-13.4 0,-7.4 5,-13.4 13,-13.4 8,0 14,6 14,13.3"
           id="path4050-8-0-5-3-4-654-1-1-5-6"
           inkscape:connector-curvature="0" />
        <text
           xml:space="preserve"
           style="font-size:18px;font-style:normal;font-variant:normal;font-weight:normal;font-stretch:normal;text-align:start;line-height:125%;letter-spacing:0px;word-spacing:0px;writing-mode:lr-tb;text-anchor:start;fill:#000000;fill-opacity:1;stroke:none;font-family:Standard Symbols L;-inkscape-font-specification:Standard Symbols L"
           x="509.63599"
           y="436.70483"
           id="text11330-4"
           sodipodi:linespacing="125%"><tspan
             sodipodi:role="line"
             id="tspan11332-1"
             x="509.63599"
             y="436.70483">36</tspan></text>
        <path
           sodipodi:nodetypes="cc"
           inkscape:connector-curvature="0"
           id="path3878-7-3-2-6-4"
           d="m 474.5,476.6 c 18,3.1 27.8,5.7 73.5,2.7"
           style="fill:none;stroke:#7dc832;stroke-width:3;stroke-linecap:round;stroke-linejoin:miter;stroke-miterlimit:4;stroke-opacity:1;stroke-dasharray:none" />
        <path
           inkscape:connector-curvature="0"
           id="path4050-8-0-5-3-4-654-1-1-0-8-4"
           d="m 532.1,476.4 c 0,7.4 -6,13.5 -14,13.5 -7,0 -13,-6.1 -13,-13.5 0,-7.4 6,-13.4 13,-13.4 8,0 14,6 14,13.4"
           style="color:#000000;fill:#ffffff;fill-opacity:1;stroke:#000000;stroke-width:1.34140003;stroke-linecap:round;stroke-linejoin:miter;stroke-miterlimit:4;stroke-opacity:1;stroke-dashoffset:0;marker:none;visibility:visible;display:inline;overflow:visible;enable-background:accumulate" />
        <text
           sodipodi:linespacing="125%"
           id="text11334-5-7"
           y="482.54831"
           x="509.60001"
           style="font-size:18px;font-style:normal;font-variant:normal;font-weight:normal;font-stretch:normal;text-align:start;line-height:125%;letter-spacing:0px;word-spacing:0px;writing-mode:lr-tb;text-anchor:start;fill:#000000;fill-opacity:1;stroke:none;font-family:Standard Symbols L;-inkscape-font-specification:Standard Symbols L"
           xml:space="preserve"><tspan
             y="482.54831"
             x="509.60001"
             id="tspan11336-4-8"
             sodipodi:role="line">38</tspan></text>
      </g>
    </g>
  </g>
</svg>
