<?xml version="1.0" encoding="UTF-8" standalone="no"?>
<!-- Created with Inkscape (http://www.inkscape.org/) -->

<svg
   xmlns:dc="http://purl.org/dc/elements/1.1/"
   xmlns:cc="http://creativecommons.org/ns#"
   xmlns:rdf="http://www.w3.org/1999/02/22-rdf-syntax-ns#"
   xmlns:svg="http://www.w3.org/2000/svg"
   xmlns="http://www.w3.org/2000/svg"
   xmlns:sodipodi="http://sodipodi.sourceforge.net/DTD/sodipodi-0.dtd"
   xmlns:inkscape="http://www.inkscape.org/namespaces/inkscape"
   width="166.82072"
   height="458.77643"
   id="svg7867"
   version="1.1"
   inkscape:version="0.48.4 r9939"
   sodipodi:docname="Новий документ 63">
  <defs
     id="defs7869" />
  <sodipodi:namedview
     id="base"
     pagecolor="#ffffff"
     bordercolor="#666666"
     borderopacity="1.0"
     inkscape:pageopacity="0.0"
     inkscape:pageshadow="2"
     inkscape:zoom="0.35"
     inkscape:cx="295.5532"
     inkscape:cy="57.959646"
     inkscape:document-units="px"
     inkscape:current-layer="layer1"
     showgrid="false"
     fit-margin-top="0"
     fit-margin-left="0"
     fit-margin-right="0"
     fit-margin-bottom="0"
     inkscape:window-width="1855"
     inkscape:window-height="1056"
     inkscape:window-x="65"
     inkscape:window-y="24"
     inkscape:window-maximized="1" />
  <metadata
     id="metadata7872">
    <rdf:RDF>
      <cc:Work
         rdf:about="">
        <dc:format>image/svg+xml</dc:format>
        <dc:type
           rdf:resource="http://purl.org/dc/dcmitype/StillImage" />
        <dc:title></dc:title>
      </cc:Work>
    </rdf:RDF>
  </metadata>
  <g
     inkscape:label="Layer 1"
     inkscape:groupmode="layer"
     id="layer1"
     transform="translate(-79.446805,-131.54538)">
    <g
       style="display:inline"
       id="g20829"
       transform="matrix(0.8062,0,0,0.8062,-1168.501,-748.93748)">
      <path
         inkscape:connector-curvature="0"
         id="path21201-7"
         d="m 1600,1214 c -3,-13 -4,-22 -7,-35"
         style="fill:none;stroke:#dba981;stroke-width:3.68630004;stroke-linecap:round;stroke-linejoin:round;stroke-miterlimit:4;stroke-opacity:1;stroke-dasharray:none" />
      <path
         id="path21199-8"
         style="fill:#ffffff;fill-opacity:1;stroke:#dba981;stroke-width:3.72099996;stroke-linecap:round;stroke-linejoin:round;stroke-miterlimit:4;stroke-opacity:1;stroke-dasharray:none"
         d="m 1595,1175 c -2,17 -7,37 -13,57 0,0 0,7 0,18 1,12 -6,60 -6,60 -1,8 -1,10 2,17 l 4,5 4,8 c 1,4 7,7 12,10 0,0 1,2 0,2 -1,1 -11,-1 -11,-1 -4,-1 -3,-1 -5,-1 1,6 2,9 3,18 l -1,15 c -2,3 -2,5 -6,6 -2,1 -6,-4 -8,-7 -2,-3 -4,-4 -6,-7 -2,-5 -3,-17 -3,-17 l -3,-8 c 0,0 0,-8 0,-12 0,-5 1,-10 1,-14 0,-10 -2,-20 -4,-30 -1,-8 -2,-15 -2,-23 -1,-8 -4,-15 -3,-22 0,-6 7,-24 7,-30 1,-9 2,-22 4,-35 1,-7 1,-14 3,-20 m 147,16 c -3,24 -17,53 -15,74 0,6 4,11 7,16 4,12 8,21 11,33 4,13 5,30 5,43 -1,17 -3,31 -5,48 -3,18 -7,34 -10,51 -1,8 -4,17 -4,26 0,6 3,11 4,17 2,12 3,22 2,34 -1,10 -3,20 -3,30 -2,11 -3,18 -3,29 0,4 3,17 3,17 l 2,17 c 3,12 10,26 4,34 -7,7 -11,15 -22,7 -3,-4 -6,-12 -7,-18 -3,-11 -4,-22 -4,-33 0,-4 0,-11 0,-11 0,0 0,-15 -1,-23 -1,-14 -7,-29 -10,-44 -1,-12 2,-25 0,-38 0,-7 -1,-14 -2,-20 -2,-22 -1,-45 -4,-68 -1,-13 -6,-42 -6,-42 0,0 -5,28 -6,41 -3,23 -6,47 -8,69 0,6 -1,13 -2,20 0,13 2,25 0,38 -1,14 -7,29 -9,43 0,9 0,24 0,24 0,0 -1,6 -1,10 -1,11 -1,23 -4,34 -2,6 -3,13 -7,17 -15,9 -14,1 -21,-6 -8,-9 0,-22 3,-35 l 3,-16 c 0,0 1,-10 2,-15 0,-11 -1,-21 -2,-32 -1,-10 -4,-19 -4,-29 0,-12 1,-20 2,-31 1,-7 3,-14 4,-20 0,-9 -3,-18 -5,-26 -2,-17 -5,-40 -7,-57 -3,-17 -5,-29 -5,-46 -1,-13 0,-29 3,-42 3,-11 7,-19 12,-30 3,-5 6,-10 7,-16 1,-13 -6,-26 -8,-40 m -36,-52 c 3,-7 5,-12 9,-18 4,-6 9,-13 16,-17 11,-7 26,-5 36,-13 6,-5 5,-12 6,-20 0,0 12,2 20,2 8,0 23,-1 23,-1 0,9 0,17 6,21 14,8 25,7 36,14 5,4 10,8 13,14 7,13 11,28 13,42 2,11 3,23 4,33 1,6 7,24 7,30 0,7 -2,14 -3,22 -1,7 -2,15 -3,23 -1,10 -4,29 -4,29 1,3 0,1 1,8 l 0,7 -1,11 -2,8 c 0,0 -1,12 -3,17 -2,4 -3,5 -7,7 -2,4 -4,9 -8,8 -3,-1 -5,-4 -5,-7 l 0,-14 c 0,-9 0,-13 1,-18 -1,-1 -1,-2 -5,1 0,0 -9,2 -10,1 -1,-2 0,-2 0,-2 5,-4 10,-6 12,-10 l 3,-9 6,-4 c 0,0 1,-4 1,-12 0,0 -6,-53 -6,-66 1,-12 2,-17 2,-17 -6,-21 -9,-23 -14,-39"
         inkscape:connector-curvature="0" />
      <path
         sodipodi:nodetypes="cc"
         inkscape:connector-curvature="0"
         id="path7494-1-6-3-5-7-8-5-0-3-8-3-8-0-4-6"
         d="m 1653,1363 c -19,1 -57,-238 -42,-241"
         style="fill:none;stroke:#000000;stroke-width:3;stroke-linecap:round;stroke-linejoin:miter;stroke-miterlimit:4;stroke-opacity:1;stroke-dasharray:none;stroke-dashoffset:0;marker-start:url(#marker7359);marker-end:url(#marker7359)" />
      <path
         sodipodi:nodetypes="cc"
         inkscape:connector-curvature="0"
         id="path7494-1-6-3-5-7-8-5-0-3-8-3-8-9-5-3-6"
         d="m 1652,1363 c 14,0 -24,-253 -40,-243"
         style="fill:none;stroke:#aaaaaa;stroke-width:2.5;stroke-linecap:butt;stroke-linejoin:miter;stroke-miterlimit:4;stroke-opacity:1;stroke-dasharray:7.5, 2.5;stroke-dashoffset:0;marker-start:url(#marker7359);marker-end:url(#marker7359)" />
      <path
         transform="matrix(0.7396,0,0,0.7396,1581,1262)"
         sodipodi:open="true"
         sodipodi:end="6.278"
         sodipodi:start="0"
         d="m 77.75,50.32 c 0,11.045695 -8.954305,20 -20,20 -11.045695,0 -20,-8.954305 -20,-20 0,-11.045695 8.954305,-20 20,-20 11.005217,0 19.942666,8.891225 19.999731,19.896294"
         sodipodi:ry="20"
         sodipodi:rx="20"
         sodipodi:cy="50.32"
         sodipodi:cx="57.75"
         id="path4050-8-0-9-9-5-9-1-5-2-4-1-7-6-6-2"
         style="color:#000000;fill:#ffffff;fill-opacity:1;stroke:#00000f;stroke-width:1.49950004;stroke-linecap:round;stroke-linejoin:miter;stroke-miterlimit:4;stroke-opacity:0.94120029;stroke-dasharray:none;stroke-dashoffset:0;marker:none;visibility:visible;display:inline;overflow:visible;enable-background:accumulate"
         sodipodi:type="arc" />
      <text
         sodipodi:linespacing="125%"
         id="text14574-7-2-4"
         y="1305.6613"
         x="1615.0177"
         style="font-size:18px;font-style:normal;font-variant:normal;font-weight:normal;font-stretch:normal;text-align:start;line-height:125%;letter-spacing:0px;word-spacing:0px;writing-mode:lr-tb;text-anchor:start;fill:#000000;fill-opacity:1;stroke:none;font-family:Standard Symbols L;-inkscape-font-specification:Standard Symbols L"
         xml:space="preserve"><tspan
           y="1305.6613"
           x="1615.0177"
           id="tspan14576-1-2-9"
           sodipodi:role="line">45</tspan></text>
    </g>
  </g>
</svg>
