<?xml version="1.0" encoding="UTF-8" standalone="no"?>
<!-- Created with Inkscape (http://www.inkscape.org/) -->

<svg
   xmlns:dc="http://purl.org/dc/elements/1.1/"
   xmlns:cc="http://creativecommons.org/ns#"
   xmlns:rdf="http://www.w3.org/1999/02/22-rdf-syntax-ns#"
   xmlns:svg="http://www.w3.org/2000/svg"
   xmlns="http://www.w3.org/2000/svg"
   xmlns:sodipodi="http://sodipodi.sourceforge.net/DTD/sodipodi-0.dtd"
   xmlns:inkscape="http://www.inkscape.org/namespaces/inkscape"
   width="164.47491"
   height="216.64246"
   id="svg8070"
   version="1.1"
   inkscape:version="0.48.4 r9939"
   sodipodi:docname="Новий документ 69">
  <defs
     id="defs8072" />
  <sodipodi:namedview
     id="base"
     pagecolor="#ffffff"
     bordercolor="#666666"
     borderopacity="1.0"
     inkscape:pageopacity="0.0"
     inkscape:pageshadow="2"
     inkscape:zoom="0.35"
     inkscape:cx="234.38032"
     inkscape:cy="-105.9645"
     inkscape:document-units="px"
     inkscape:current-layer="layer1"
     showgrid="false"
     fit-margin-top="0"
     fit-margin-left="0"
     fit-margin-right="0"
     fit-margin-bottom="0"
     inkscape:window-width="1855"
     inkscape:window-height="1056"
     inkscape:window-x="65"
     inkscape:window-y="24"
     inkscape:window-maximized="1" />
  <metadata
     id="metadata8075">
    <rdf:RDF>
      <cc:Work
         rdf:about="">
        <dc:format>image/svg+xml</dc:format>
        <dc:type
           rdf:resource="http://purl.org/dc/dcmitype/StillImage" />
        <dc:title></dc:title>
      </cc:Work>
    </rdf:RDF>
  </metadata>
  <g
     inkscape:label="Layer 1"
     inkscape:groupmode="layer"
     id="layer1"
     transform="translate(-140.61968,-209.75522)">
    <g
       style="display:inline"
       id="g22101"
       transform="matrix(0.8062,0,0,0.8062,-80.963983,-1228.5209)">
      <path
         style="fill:none;stroke:#dba981;stroke-width:1.48899996;stroke-linecap:round;stroke-linejoin:miter;stroke-miterlimit:4;stroke-opacity:1;stroke-dasharray:4.467, 1.489;stroke-dashoffset:0"
         d="m 341.9,2048 c 0,0 4,-50 -0.9,-74 -4.6,-1 -18.5,-24 -18.7,-46 -0.1,-12 4.1,-21 11.1,-33 9.9,-29 18.7,-45 23.7,-63"
         id="path3868-7-7-4-4-8-1-5-0-8"
         inkscape:connector-curvature="0"
         sodipodi:nodetypes="ccscc" />
      <g
         transform="translate(11.21,29.04)"
         id="g9533">
        <path
           sodipodi:nodetypes="ccccc"
           inkscape:connector-curvature="0"
           id="path3874-7-8-0-3-9"
           d="m 285.9,1948 6.8,-1 29.4,-1 48.8,2 52.1,6"
           style="fill:none;stroke:#dba981;stroke-width:1.48899996;stroke-linecap:round;stroke-linejoin:miter;stroke-miterlimit:4;stroke-opacity:1;stroke-dasharray:4.467, 1.489;stroke-dashoffset:0" />
        <path
           sodipodi:nodetypes="caaac"
           inkscape:connector-curvature="0"
           id="path3868-7-7-4-4-2"
           d="m 271.2,1883 c 0,0 10.2,-7 15.8,-10 6.8,-2 14.8,-3 21.5,-3 22.7,-1 45.4,-2 66.9,3 20.4,5 45.3,25 58.9,26"
           style="fill:none;stroke:#dba981;stroke-width:1.48899996;stroke-linecap:round;stroke-linejoin:miter;stroke-miterlimit:4;stroke-opacity:1;stroke-dasharray:4.467, 1.489;stroke-dashoffset:0" />
        <path
           sodipodi:nodetypes="cc"
           inkscape:connector-curvature="0"
           id="path3876-91-29-8-7-18"
           d="m 317.6,1786 c -7.9,19 57.8,24 71.4,-1"
           style="fill:none;stroke:#dba981;stroke-width:1.48899996;stroke-linecap:round;stroke-linejoin:miter;stroke-miterlimit:4;stroke-opacity:1;stroke-dasharray:4.467, 1.489;stroke-dashoffset:0" />
        <path
           sodipodi:nodetypes="cc"
           inkscape:connector-curvature="0"
           id="path3878-7-1-40-0-5"
           d="m 289.3,2017 c 28.3,6 95.2,9 131.4,-2"
           style="fill:none;stroke:#dba981;stroke-width:1.48899996;stroke-linecap:round;stroke-linejoin:miter;stroke-miterlimit:4;stroke-opacity:1;stroke-dasharray:4.467, 1.489;stroke-dashoffset:0" />
        <path
           sodipodi:nodetypes="caac"
           inkscape:connector-curvature="0"
           id="path3872-1-8-9-0-4"
           d="m 267.8,1904 c 0,0 17,-2 24.9,-3 23.8,-2 46.4,-3 70.2,0 23.8,2 51,9 69.1,13"
           style="fill:none;stroke:#dba981;stroke-width:1.48899996;stroke-linecap:round;stroke-linejoin:miter;stroke-miterlimit:4;stroke-opacity:1;stroke-dasharray:4.467, 1.489;stroke-dashoffset:0" />
        <path
           style="fill:none;stroke:#dba981;stroke-width:1.48899996;stroke-linecap:round;stroke-linejoin:miter;stroke-miterlimit:4;stroke-opacity:1;stroke-dasharray:4.467, 1.489;stroke-dashoffset:0"
           d="m 433.2,1896 c 2.2,3 -6.8,51 -15.9,75 -4.5,12 -6.8,35 -5.6,47"
           id="path2993-6-7-5-5"
           inkscape:connector-curvature="0"
           sodipodi:nodetypes="csc" />
        <path
           style="fill:none;stroke:#dba981;stroke-width:3.72099996;stroke-linecap:round;stroke-linejoin:miter;stroke-miterlimit:4;stroke-opacity:1;stroke-dasharray:none"
           d="m 450.2,1803 c -17,5 -21.6,10 -27.2,21 -10.2,18 -20.4,45 -7.9,62 6.7,9 27.1,15 33.9,6"
           id="path3009-0-7-5-2"
           inkscape:connector-curvature="0"
           sodipodi:nodetypes="caac" />
        <path
           style="fill:none;stroke:#dba981;stroke-width:3.72099996;stroke-linecap:round;stroke-linejoin:miter;stroke-miterlimit:4;stroke-opacity:1;stroke-dasharray:none"
           d="m 323.3,1765 c 0,0 12.4,5 19.2,5 37.4,3 46.5,-10 46.5,-10"
           id="path3011-2-2-3-9"
           inkscape:connector-curvature="0"
           sodipodi:nodetypes="csc" />
        <path
           sodipodi:nodetypes="cac"
           inkscape:connector-curvature="0"
           id="path3992-4-9-6-1-0-0-1-02"
           d="m 382.2,1767 c 3.4,11 1.1,10 4.5,14 11.4,13 35.1,19 49.9,22"
           style="fill:none;stroke:#dba981;stroke-width:1.48899996;stroke-linecap:round;stroke-linejoin:miter;stroke-miterlimit:4;stroke-opacity:1;stroke-dasharray:4.467, 1.489;stroke-dashoffset:0" />
        <path
           style="fill:none;stroke:#dba981;stroke-width:3.72099996;stroke-linecap:round;stroke-linejoin:round;stroke-miterlimit:4;stroke-opacity:1;stroke-dasharray:none"
           d="m 287,2016 c 2.3,-15 -1.1,-33 -2.2,-47 0,-7 2.2,-13 0,-22 -10.2,-9 -19.3,-31 -19.3,-45 0,-14 9.1,-23 12.5,-38 2.2,-6 -6.8,-17 -9.1,-28 -3.4,-11 0,-25 5.7,-26 11.3,-2 29.4,-10 39.6,-18 9.1,-9 7.9,-27 7.9,-27 0,0 1.2,-6 19.3,-8 17,-1 48.7,3 48.7,3 0,0 -1.1,13 2.3,17 12.5,16 43,18 54.4,24 17,7 15.8,14 18.1,23 4.5,23 -9.1,51 -17,70 -6.8,15 -6.8,33 -11.3,49 -3.4,10 -6.8,19 -10.2,29 -2.3,9 -5.7,32 -4.6,42"
           id="path15557-4"
           inkscape:connector-curvature="0"
           sodipodi:nodetypes="cccscccccccacacccc" />
        <path
           style="fill:none;stroke:#dba981;stroke-width:1.48899996;stroke-linecap:round;stroke-linejoin:miter;stroke-miterlimit:4;stroke-opacity:1;stroke-dasharray:4.467, 1.489;stroke-dashoffset:0"
           d="m 288.2,1975 6.8,-1 c 26,-3 50.9,-1 78.1,1 l 40.8,5"
           id="path3874-7-8-0-4-6-5"
           inkscape:connector-curvature="0"
           sodipodi:nodetypes="cccc" />
        <path
           sodipodi:nodetypes="ccc"
           inkscape:connector-curvature="0"
           id="path7494-1-6-3-5-81-64-9-2-0-5-7-3-2-4-0-9-7-9-10-7"
           d="m 326.7,2022 c -4.6,-44 -15.9,-104 -15.9,-119 -2.3,-18 21.5,-58 35.1,-100"
           style="fill:none;stroke:#000000;stroke-width:3.39899993;stroke-linecap:round;stroke-linejoin:round;stroke-miterlimit:4;stroke-opacity:1;stroke-dasharray:none;marker-start:url(#marker7359);marker-end:url(#marker7359)" />
        <path
           style="color:#000000;fill:#ffffff;fill-opacity:1;stroke:#00000f;stroke-width:1.5776;stroke-linecap:round;stroke-linejoin:miter;stroke-miterlimit:4;stroke-opacity:0.94120029;stroke-dashoffset:0;marker:none;visibility:visible;display:inline;overflow:visible;enable-background:accumulate"
           d="m 348.2,1841 c 0,9 -7.9,15 -15.8,15 -9.1,0 -15.9,-6 -15.9,-15 0,-10 6.8,-16 15.9,-16 7.9,0 14.7,6 15.8,16"
           id="path4050-8-0-5-3-4-0-7-3-0-68-5-6-5-9-3-0-9-0-4-8-9"
           inkscape:connector-curvature="0"
           sodipodi:nodetypes="csssc" />
        <text
           xml:space="preserve"
           style="font-size:20.3939991px;font-style:normal;font-variant:normal;font-weight:normal;font-stretch:normal;text-align:start;line-height:125%;letter-spacing:0px;word-spacing:0px;writing-mode:lr-tb;text-anchor:start;fill:#000000;fill-opacity:1;stroke:none;font-family:Standard Symbols L;-inkscape-font-specification:Standard Symbols L"
           x="327.73007"
           y="1847.348"
           id="text8512-9-6-3-7-2-5-4-0-2-5"
           sodipodi:linespacing="125%"><tspan
             sodipodi:role="line"
             id="tspan8514-9-9-1-0-8-3-6-0-4-44"
             x="327.73007"
             y="1847.348">1</tspan></text>
      </g>
    </g>
  </g>
</svg>
