<?xml version="1.0" encoding="UTF-8" standalone="no"?>
<!-- Created with Inkscape (http://www.inkscape.org/) -->

<svg
   xmlns:dc="http://purl.org/dc/elements/1.1/"
   xmlns:cc="http://creativecommons.org/ns#"
   xmlns:rdf="http://www.w3.org/1999/02/22-rdf-syntax-ns#"
   xmlns:svg="http://www.w3.org/2000/svg"
   xmlns="http://www.w3.org/2000/svg"
   xmlns:sodipodi="http://sodipodi.sourceforge.net/DTD/sodipodi-0.dtd"
   xmlns:inkscape="http://www.inkscape.org/namespaces/inkscape"
   width="160.51999"
   height="195.50571"
   id="svg9896"
   version="1.1"
   inkscape:version="0.48.4 r9939"
   sodipodi:docname="Новий документ 96">
  <defs
     id="defs9898" />
  <sodipodi:namedview
     id="base"
     pagecolor="#ffffff"
     bordercolor="#666666"
     borderopacity="1.0"
     inkscape:pageopacity="0.0"
     inkscape:pageshadow="2"
     inkscape:zoom="0.98994949"
     inkscape:cx="289.85687"
     inkscape:cy="199.64471"
     inkscape:document-units="px"
     inkscape:current-layer="layer1"
     showgrid="false"
     fit-margin-top="0"
     fit-margin-left="0"
     fit-margin-right="0"
     fit-margin-bottom="0"
     inkscape:window-width="1855"
     inkscape:window-height="1056"
     inkscape:window-x="65"
     inkscape:window-y="24"
     inkscape:window-maximized="1" />
  <metadata
     id="metadata9901">
    <rdf:RDF>
      <cc:Work
         rdf:about="">
        <dc:format>image/svg+xml</dc:format>
        <dc:type
           rdf:resource="http://purl.org/dc/dcmitype/StillImage" />
        <dc:title></dc:title>
      </cc:Work>
    </rdf:RDF>
  </metadata>
  <g
     inkscape:label="Layer 1"
     inkscape:groupmode="layer"
     id="layer1"
     transform="translate(-154.0293,-306.11425)">
    <g
       id="g10017">
      <path
         style="fill:none;stroke:#dba981;stroke-width:2.99987006;stroke-linecap:round;stroke-linejoin:round;stroke-miterlimit:4;stroke-opacity:1;stroke-dasharray:none"
         d="m 285.37084,341.9522 c 5.6434,20.9612 21.7674,41.9224 24.9922,61.2712 4.8372,31.4418 -4.031,82.2324 -5.6434,96.744"
         id="path16683"
         inkscape:connector-curvature="0" />
      <path
         style="fill:none;stroke:#dba981;stroke-width:1.20043182;stroke-linecap:round;stroke-linejoin:round;stroke-miterlimit:4;stroke-opacity:1;stroke-dasharray:3.6012954, 1.2004318;stroke-dashoffset:0"
         d="m 304.71964,499.9674 -63.6898,0"
         id="path16681"
         inkscape:connector-curvature="0" />
      <path
         style="fill:none;stroke:#dba981;stroke-width:2.99987006;stroke-linecap:round;stroke-linejoin:round;stroke-miterlimit:4;stroke-opacity:1;stroke-dasharray:none"
         d="m 241.02984,499.9674 -6.4496,-48.372 -4.8372,48.372"
         id="path16679"
         inkscape:connector-curvature="0" />
      <path
         style="fill:none;stroke:#dba981;stroke-width:1.20043182;stroke-linecap:round;stroke-linejoin:round;stroke-miterlimit:4;stroke-opacity:1;stroke-dasharray:3.6012954, 1.2004318;stroke-dashoffset:0"
         d="m 229.74304,499.9674 -66.9146,0"
         id="path16677"
         inkscape:connector-curvature="0" />
      <path
         style="fill:none;stroke:#dba981;stroke-width:2.99987006;stroke-linecap:round;stroke-linejoin:round;stroke-miterlimit:4;stroke-opacity:1;stroke-dasharray:none"
         d="m 162.82844,499.9674 c -0.8062,-1.6124 -11.2868,-64.496 -5.6434,-95.9378 2.4186,-20.9612 24.186,-45.1472 26.6046,-62.0774"
         id="path22054-4"
         inkscape:connector-curvature="0" />
      <path
         style="fill:none;stroke:#dba981;stroke-width:1.20043182;stroke-linecap:butt;stroke-linejoin:miter;stroke-miterlimit:4;stroke-opacity:1;stroke-dasharray:3.6012954, 1.2004318;stroke-dashoffset:0"
         d="m 157.18504,441.1148 155.5966,0"
         id="path8471-0-07-6-8-0-2-6"
         inkscape:connector-curvature="0"
         sodipodi:nodetypes="cc" />
      <path
         style="fill:none;stroke:#dba981;stroke-width:1.20043182;stroke-linecap:butt;stroke-linejoin:miter;stroke-miterlimit:4;stroke-opacity:1;stroke-dasharray:3.6012954, 1.2004318;stroke-dashoffset:0"
         d="m 167.66564,378.2312 133.023,0.8062"
         id="path8471-6-8-4-5-5-6-3-2"
         inkscape:connector-curvature="0"
         sodipodi:nodetypes="cc" />
      <path
         style="fill:none;stroke:#dba981;stroke-width:1.20043182;stroke-linecap:butt;stroke-linejoin:miter;stroke-miterlimit:4;stroke-opacity:1;stroke-dasharray:3.6012954, 1.2004318;stroke-dashoffset:0"
         d="m 183.78964,341.9522 101.5812,0"
         id="path8471-6-6-6-8-7-8-3-1-4"
         inkscape:connector-curvature="0"
         sodipodi:nodetypes="cc" />
      <path
         sodipodi:nodetypes="cc"
         inkscape:connector-curvature="0"
         id="path7494-1-6-3-5-81-64-9-1-8-9-2-1"
         d="m 224.90584,378.2312 0,-36.279"
         style="fill:none;stroke:#000000;stroke-width:2.41860008;stroke-linecap:round;stroke-linejoin:miter;stroke-miterlimit:4;stroke-opacity:1;stroke-dasharray:none;marker-start:url(#marker7359);marker-end:url(#marker7359)" />
      <path
         style="color:#000000;fill:#ffffff;fill-opacity:1;stroke:#00000f;stroke-width:1.12255287;stroke-linecap:round;stroke-linejoin:miter;stroke-miterlimit:4;stroke-opacity:0.94120029;stroke-dashoffset:0;marker:none;visibility:visible;display:inline;overflow:visible;enable-background:accumulate"
         d="m 236.19264,359.6886 c 0,6.4496 -5.6434,11.2868 -11.2868,11.2868 -6.4496,0 -11.2868,-4.8372 -11.2868,-11.2868 0,-6.4496 4.8372,-11.2868 11.2868,-11.2868 5.6434,0 10.4806,4.8372 11.2868,11.2868"
         id="path4050-8-0-5-3-4-0-7-3-9-0-5-6-3-1"
         inkscape:connector-curvature="0" />
      <path
         sodipodi:nodetypes="cc"
         inkscape:connector-curvature="0"
         id="path7494-1-6-3-5-81-64-9-1-8-7-5-0"
         d="m 253.12284,441.1148 0,-98.3564"
         style="fill:none;stroke:#000000;stroke-width:2.41860008;stroke-linecap:round;stroke-linejoin:miter;stroke-miterlimit:4;stroke-opacity:1;stroke-dasharray:none;marker-start:url(#marker7359);marker-end:url(#marker7359)" />
      <path
         sodipodi:nodetypes="csssc"
         style="color:#000000;fill:#ffffff;fill-opacity:1;stroke:#00000f;stroke-width:1.12255287;stroke-linecap:round;stroke-linejoin:miter;stroke-miterlimit:4;stroke-opacity:0.94120029;stroke-dashoffset:0;marker:none;visibility:visible;display:inline;overflow:visible;enable-background:accumulate"
         d="m 264.40964,359.6886 c 0,6.4496 -5.6434,11.2868 -11.2868,11.2868 -6.4496,0 -11.2868,-4.8372 -11.2868,-11.2868 0,-6.4496 4.8372,-11.2868 11.2868,-11.2868 5.6434,0 10.4806,4.8372 11.2868,11.2868"
         id="path4050-8-0-5-3-4-0-7-3-9-0-5-68-5-4"
         inkscape:connector-curvature="0" />
      <text
         sodipodi:linespacing="125%"
         id="text8504-2-9"
         y="364.28488"
         x="216.9454"
         style="font-size:14.51159954px;font-style:normal;font-variant:normal;font-weight:normal;font-stretch:normal;text-align:start;line-height:125%;letter-spacing:0px;word-spacing:0px;writing-mode:lr-tb;text-anchor:start;fill:#000000;fill-opacity:1;stroke:none;font-family:Standard Symbols L;-inkscape-font-specification:Standard Symbols L"
         xml:space="preserve"><tspan
           y="364.28488"
           x="216.9454"
           id="tspan8506-5-5"
           sodipodi:role="line">33</tspan></text>
      <text
         sodipodi:linespacing="125%"
         id="text8508-2-7"
         y="364.32837"
         x="245.35106"
         style="font-size:14.51159954px;font-style:normal;font-variant:normal;font-weight:normal;font-stretch:normal;text-align:start;line-height:125%;letter-spacing:0px;word-spacing:0px;writing-mode:lr-tb;text-anchor:start;fill:#000000;fill-opacity:1;stroke:none;font-family:Standard Symbols L;-inkscape-font-specification:Standard Symbols L"
         xml:space="preserve"><tspan
           y="364.32837"
           x="245.35106"
           id="tspan8510-1-0"
           sodipodi:role="line">34</tspan></text>
      <path
         sodipodi:nodetypes="ccc"
         inkscape:connector-curvature="0"
         id="path6088"
         d="m 221.68104,459.6574 c 4.031,-1.6124 8.062,-2.4186 12.8992,-8.062 2.4186,2.4186 4.031,5.6434 9.6744,7.2558"
         style="fill:none;stroke:#dba981;stroke-width:2.99987006;stroke-linecap:round;stroke-linejoin:round;stroke-miterlimit:4;stroke-opacity:1;stroke-dasharray:none" />
      <g
         id="text6934-3"
         style="font-size:17.48647881px;font-style:normal;font-variant:normal;font-weight:normal;font-stretch:normal;text-align:start;line-height:125%;letter-spacing:0px;word-spacing:0px;writing-mode:lr-tb;text-anchor:start;fill:#000000;fill-opacity:1;stroke:none;font-family:Standard Symbols L;-inkscape-font-specification:Standard Symbols L">
        <path
           id="path9981"
           d="m 216.83157,313.31205 0,4.67046 2.76641,0 c 0.92783,0 1.61374,-0.19069 2.05774,-0.57207 0.44967,-0.38706 0.67452,-0.97621 0.67453,-1.76743 -1e-5,-0.7969 -0.22486,-1.3832 -0.67453,-1.75889 -0.444,-0.38138 -1.12991,-0.57206 -2.05774,-0.57207 l -2.76641,0 m 0,-5.24253 0,3.84225 2.55296,0 c 0.84244,0 1.46858,-0.15653 1.87843,-0.46961 0.41552,-0.31876 0.62328,-0.8026 0.62329,-1.45152 -1e-5,-0.64321 -0.20777,-1.1242 -0.62329,-1.44297 -0.40985,-0.31876 -1.03599,-0.47814 -1.87843,-0.47815 l -2.55296,0 m -1.72474,-1.41736 4.40577,0 c 1.31489,1e-5 2.32811,0.27324 3.03964,0.81968 0.71152,0.54646 1.06728,1.32345 1.06729,2.33096 -1e-5,0.77984 -0.18216,1.40029 -0.54645,1.86135 -0.36431,0.46108 -0.89938,0.74854 -1.6052,0.86237 0.84813,0.18216 1.50558,0.56354 1.97235,1.14414 0.47244,0.57492 0.70867,1.29498 0.70868,2.16019 -1e-5,1.13845 -0.38708,2.0179 -1.16121,2.63834 -0.77415,0.62046 -1.8756,0.93068 -3.30433,0.93068 l -4.57654,0 0,-12.74771"
           inkscape:connector-curvature="0" />
        <path
           id="path9983"
           d="m 231.37233,314.5928 c -1.26937,0 -2.14882,0.14515 -2.63834,0.43545 -0.48954,0.29031 -0.7343,0.78553 -0.7343,1.48567 0,0.55784 0.18215,1.00183 0.54645,1.33198 0.36999,0.32446 0.87091,0.48668 1.50275,0.48668 0.8709,0 1.56819,-0.30738 2.09188,-0.92214 0.52937,-0.62045 0.79406,-1.44297 0.79407,-2.46757 l 0,-0.35007 -1.56251,0 m 3.13356,-0.64891 0,5.45598 -1.57105,0 0,-1.45151 c -0.35862,0.5806 -0.80546,1.01037 -1.34052,1.28928 -0.53507,0.27323 -1.18968,0.40984 -1.96381,0.40984 -0.97907,0 -1.7589,-0.27322 -2.3395,-0.81968 -0.57492,-0.55214 -0.86237,-1.28928 -0.86237,-2.21142 0,-1.07582 0.35861,-1.88696 1.07583,-2.43342 0.72291,-0.54645 1.79873,-0.81967 3.22748,-0.81968 l 2.20289,0 0,-0.15369 c -1e-5,-0.7229 -0.23908,-1.28074 -0.71722,-1.67351 -0.47246,-0.39845 -1.13845,-0.59767 -1.99797,-0.59768 -0.54645,10e-6 -1.07868,0.0655 -1.59666,0.19638 -0.518,0.13093 -1.01607,0.32731 -1.49421,0.58914 l 0,-1.45151 c 0.57491,-0.22199 1.13275,-0.38706 1.67351,-0.49522 0.54076,-0.11384 1.06729,-0.17076 1.57959,-0.17077 1.3832,10e-6 2.41634,0.35862 3.09941,1.07583 0.68306,0.71722 1.02459,1.80444 1.0246,3.26164"
           inkscape:connector-curvature="0" />
        <path
           id="path9985"
           d="m 244.63234,310.2041 0,1.46859 c -0.444,-0.24475 -0.89084,-0.42691 -1.34052,-0.54645 -0.444,-0.12522 -0.89368,-0.18783 -1.34905,-0.18784 -1.01892,10e-6 -1.81013,0.32446 -2.37366,0.97337 -0.56353,0.64322 -0.84529,1.54828 -0.84529,2.71518 0,1.16691 0.28176,2.07482 0.84529,2.72373 0.56353,0.64322 1.35474,0.96483 2.37366,0.96483 0.45537,0 0.90505,-0.0598 1.34905,-0.17931 0.44968,-0.12523 0.89652,-0.31022 1.34052,-0.55499 l 0,1.45151 c -0.43831,0.20492 -0.89369,0.35861 -1.36614,0.46107 -0.46676,0.10246 -0.96483,0.15369 -1.4942,0.15369 -1.44014,0 -2.58427,-0.45253 -3.43241,-1.35759 -0.84814,-0.90506 -1.27221,-2.12604 -1.27221,-3.66294 0,-1.55966 0.42692,-2.78633 1.28075,-3.68001 0.85952,-0.89367 2.03496,-1.34051 3.52633,-1.34052 0.48383,10e-6 0.95628,0.0512 1.41736,0.15369 0.46106,0.0968 0.9079,0.24477 1.34052,0.44399"
           inkscape:connector-curvature="0" />
        <path
           id="path9987"
           d="m 247.32191,306.11425 1.57959,0 0,7.84671 4.68753,-4.12401 2.00651,0 -5.07176,4.47408 5.28522,5.08884 -2.0492,0 -4.8583,-4.67046 0,4.67046 -1.57959,0 0,-13.28562"
           inkscape:connector-curvature="0" />
      </g>
      <path
         style="fill:none;stroke:#000000;stroke-width:2.41860008;stroke-linecap:round;stroke-linejoin:miter;stroke-miterlimit:4;stroke-opacity:1;stroke-dasharray:none;marker-start:url(#marker7359);marker-end:url(#marker7359)"
         d="m 312.78164,441.921 c 1.6124,-38.6976 1.6124,-38.6976 -27.4108,-98.3564"
         id="path7494-1-6-3-5-81-64-9-1-8-4-2-0"
         inkscape:connector-curvature="0"
         sodipodi:nodetypes="cc" />
      <path
         inkscape:connector-curvature="0"
         id="path4050-8-0-5-3-4-0-7-3-9-0-5-7-3-7"
         d="m 305.52584,360.4948 c 0,6.4496 -5.6434,11.2868 -11.2868,11.2868 -6.4496,0 -11.2868,-4.8372 -11.2868,-11.2868 0,-5.6434 4.8372,-11.2868 11.2868,-11.2868 5.6434,0 10.4806,5.6434 11.2868,11.2868"
         style="color:#000000;fill:#ffffff;fill-opacity:1;stroke:#00000f;stroke-width:1.12255287;stroke-linecap:round;stroke-linejoin:miter;stroke-miterlimit:4;stroke-opacity:0.94120029;stroke-dashoffset:0;marker:none;visibility:visible;display:inline;overflow:visible;enable-background:accumulate"
         sodipodi:nodetypes="csssc" />
      <text
         xml:space="preserve"
         style="font-size:14.51159954px;font-style:normal;font-variant:normal;font-weight:normal;font-stretch:normal;text-align:start;line-height:125%;letter-spacing:0px;word-spacing:0px;writing-mode:lr-tb;text-anchor:start;fill:#000000;fill-opacity:1;stroke:none;font-family:Standard Symbols L;-inkscape-font-specification:Standard Symbols L"
         x="287.11383"
         y="365.47223"
         id="text8500-4-6-5"
         sodipodi:linespacing="125%"><tspan
           sodipodi:role="line"
           id="tspan8502-7-6-1"
           x="287.11383"
           y="365.47223">35</tspan></text>
    </g>
  </g>
</svg>
