<?xml version="1.0" encoding="UTF-8" standalone="no"?>
<!-- Created with Inkscape (http://www.inkscape.org/) -->

<svg
   xmlns:dc="http://purl.org/dc/elements/1.1/"
   xmlns:cc="http://creativecommons.org/ns#"
   xmlns:rdf="http://www.w3.org/1999/02/22-rdf-syntax-ns#"
   xmlns:svg="http://www.w3.org/2000/svg"
   xmlns="http://www.w3.org/2000/svg"
   xmlns:sodipodi="http://sodipodi.sourceforge.net/DTD/sodipodi-0.dtd"
   xmlns:inkscape="http://www.inkscape.org/namespaces/inkscape"
   width="278.26678"
   height="196.61496"
   id="svg10179"
   version="1.1"
   inkscape:version="0.48.4 r9939"
   sodipodi:docname="Новий документ 99">
  <defs
     id="defs10181">
    <marker
       inkscape:stockid="Arrow2Mend"
       orient="auto"
       refY="0"
       refX="0"
       id="Arrow2Mend"
       style="overflow:visible">
      <path
         id="path8911"
         style="fill-rule:evenodd;stroke-width:0.625;stroke-linejoin:round"
         d="M 8.719,4.034 -2.207,0.016 8.719,-4.002 c -1.746,2.372 -1.736,5.618 0,8.036 z"
         transform="scale(-0.6,-0.6)"
         inkscape:connector-curvature="0" />
    </marker>
    <marker
       inkscape:stockid="Arrow2Mend"
       orient="auto"
       refY="0"
       refX="0"
       id="marker10131"
       style="overflow:visible">
      <path
         id="path10133"
         style="fill-rule:evenodd;stroke-width:0.625;stroke-linejoin:round"
         d="M 8.719,4.034 -2.207,0.016 8.719,-4.002 c -1.746,2.372 -1.736,5.618 0,8.036 z"
         transform="scale(-0.6,-0.6)"
         inkscape:connector-curvature="0" />
    </marker>
    <marker
       inkscape:stockid="Arrow2Mend"
       orient="auto"
       refY="0"
       refX="0"
       id="marker10135"
       style="overflow:visible">
      <path
         id="path10137"
         style="fill-rule:evenodd;stroke-width:0.625;stroke-linejoin:round"
         d="M 8.719,4.034 -2.207,0.016 8.719,-4.002 c -1.746,2.372 -1.736,5.618 0,8.036 z"
         transform="scale(-0.6,-0.6)"
         inkscape:connector-curvature="0" />
    </marker>
    <marker
       inkscape:stockid="Arrow2Mend"
       orient="auto"
       refY="0"
       refX="0"
       id="marker10139"
       style="overflow:visible">
      <path
         id="path10141"
         style="fill-rule:evenodd;stroke-width:0.625;stroke-linejoin:round"
         d="M 8.719,4.034 -2.207,0.016 8.719,-4.002 c -1.746,2.372 -1.736,5.618 0,8.036 z"
         transform="scale(-0.6,-0.6)"
         inkscape:connector-curvature="0" />
    </marker>
  </defs>
  <sodipodi:namedview
     id="base"
     pagecolor="#ffffff"
     bordercolor="#666666"
     borderopacity="1.0"
     inkscape:pageopacity="0.0"
     inkscape:pageshadow="2"
     inkscape:zoom="1.4"
     inkscape:cx="182.05829"
     inkscape:cy="114.00483"
     inkscape:document-units="px"
     inkscape:current-layer="layer1"
     showgrid="false"
     fit-margin-top="0"
     fit-margin-left="0"
     fit-margin-right="0"
     fit-margin-bottom="0"
     inkscape:window-width="1855"
     inkscape:window-height="1056"
     inkscape:window-x="65"
     inkscape:window-y="24"
     inkscape:window-maximized="1" />
  <metadata
     id="metadata10184">
    <rdf:RDF>
      <cc:Work
         rdf:about="">
        <dc:format>image/svg+xml</dc:format>
        <dc:type
           rdf:resource="http://purl.org/dc/dcmitype/StillImage" />
        <dc:title></dc:title>
      </cc:Work>
    </rdf:RDF>
  </metadata>
  <g
     inkscape:label="Layer 1"
     inkscape:groupmode="layer"
     id="layer1"
     transform="translate(-20.866574,-274.05468)">
    <g
       id="g10394">
      <path
         style="fill:none;stroke:#000000;stroke-width:0.72098464px;stroke-linecap:round;stroke-linejoin:miter;stroke-opacity:1;marker-end:url(#Arrow2Mend)"
         d="m 81.1501,303.8987 c 18.5426,12.8992 7.2558,34.6666 7.2558,34.6666"
         id="path12824-0"
         inkscape:connector-curvature="0"
         sodipodi:nodetypes="cc" />
      <path
         style="fill:none;stroke:#000000;stroke-width:0.80620003px;stroke-linecap:round;stroke-linejoin:miter;stroke-opacity:1;marker-end:url(#Arrow2Mend)"
         d="m 52.9331,345.8211 c -4.031,4.8372 16.9302,1.6124 16.9302,1.6124"
         id="path18246"
         inkscape:connector-curvature="0"
         sodipodi:nodetypes="cc" />
      <path
         sodipodi:nodetypes="cc"
         inkscape:connector-curvature="0"
         id="path8584-0-8-6-3-4-9-7"
         d="m 253.6769,433.6969 c -14.5116,-24.9922 -8.062,-45.1472 0,-80.62"
         style="fill:none;stroke:#dba981;stroke-width:2.99987006;stroke-linecap:round;stroke-linejoin:miter;stroke-miterlimit:4;stroke-opacity:1;stroke-dasharray:none" />
      <path
         sodipodi:nodetypes="cc"
         inkscape:connector-curvature="0"
         id="path8584-6-5-3-6-1-1-1-0"
         d="M 73.8943,431.2783 C 87.5997,406.2861 86.7935,395.8055 72.2819,352.2707"
         style="fill:none;stroke:#dba981;stroke-width:2.99987006;stroke-linecap:round;stroke-linejoin:miter;stroke-miterlimit:4;stroke-opacity:1;stroke-dasharray:none" />
      <path
         style="fill:none;stroke:#dba981;stroke-width:2.99987006;stroke-linecap:round;stroke-linejoin:round;stroke-miterlimit:4;stroke-opacity:1;stroke-dasharray:none"
         d="m 82.7625,469.1697 c 0,-4.031 -3.2248,-19.3488 -4.8372,-26.6046 -12.093,-25.7984 -25.7984,-61.2712 -8.8682,-87.0696 8.8682,-11.2868 40.31,-8.8682 54.8216,-21.7674 4.031,-3.2248 6.4496,-8.8682 7.2558,-13.7054 0.8062,-5.6434 -0.8062,-16.124 -0.8062,-16.124 0,0 21.7674,-7.2558 33.8604,-7.2558 11.2868,0 33.8604,8.062 33.8604,8.062 0,0 -2.4186,10.4806 -1.6124,16.124 0.8062,4.8372 3.2248,10.4806 7.2558,13.7054 14.5116,12.8992 45.9534,10.4806 55.6278,21.7674 21.7674,29.8294 1.6124,61.2712 -9.6744,86.2634 -4.8372,13.7054 -3.2248,12.093 -6.4496,26.6046"
         id="path9794"
         inkscape:connector-curvature="0"
         sodipodi:nodetypes="ccccccscccccc" />
      <path
         sodipodi:nodetypes="cc"
         inkscape:connector-curvature="0"
         id="path8471-6-6-7-8-46-2-8-0-1-88-2-7-10-5-6"
         d="m 167.4135,327.2785 86.2634,0"
         style="fill:none;stroke:#aaaaaa;stroke-width:2.41900301;stroke-linecap:butt;stroke-linejoin:miter;stroke-miterlimit:4;stroke-opacity:1;stroke-dasharray:4.8380062, 2.4190031, 1.20946124, 2.4190031;stroke-dashoffset:0" />
      <path
         transform="matrix(0.8481224,0,0,0.8481224,184.3437,252.3019)"
         sodipodi:open="true"
         sodipodi:end="6.278"
         sodipodi:start="0"
         d="m 72.75,50.32 c 0,8.284271 -6.715729,15 -15,15 -8.284271,0 -15,-6.715729 -15,-15 0,-8.284272 6.715729,-15 15,-15 8.253913,0 14.956999,6.668419 14.999798,14.92222"
         sodipodi:ry="15"
         sodipodi:rx="15"
         sodipodi:cy="50.32"
         sodipodi:cx="57.75"
         id="path4050-8-0-5-3-4-0-4-2-0-9-5-0"
         style="color:#000000;fill:#ffffff;fill-opacity:1;stroke:#00000f;stroke-width:1.5;stroke-linecap:round;stroke-linejoin:miter;stroke-miterlimit:4;stroke-opacity:0.94120029;stroke-dasharray:none;stroke-dashoffset:0;marker:none;visibility:visible;display:inline;overflow:visible;enable-background:accumulate"
         sodipodi:type="arc" />
      <path
         transform="matrix(0.77201712,0,0,0.77201712,242.3901,295.8367)"
         sodipodi:open="true"
         sodipodi:end="6.278"
         sodipodi:start="0"
         d="m 72.75,50.32 c 0,8.284271 -6.715729,15 -15,15 -8.284271,0 -15,-6.715729 -15,-15 0,-8.284272 6.715729,-15 15,-15 8.253913,0 14.956999,6.668419 14.999798,14.92222"
         sodipodi:ry="15"
         sodipodi:rx="15"
         sodipodi:cy="50.32"
         sodipodi:cx="57.75"
         id="path4050-8-0-5-3-4-0-7-3-7-5-5-1"
         style="color:#000000;fill:#ffffff;fill-opacity:1;stroke:#00000f;stroke-width:1.5;stroke-linecap:round;stroke-linejoin:miter;stroke-miterlimit:4;stroke-opacity:0.94120029;stroke-dasharray:none;stroke-dashoffset:0;marker:none;visibility:visible;display:inline;overflow:visible;enable-background:accumulate"
         sodipodi:type="arc" />
      <path
         sodipodi:nodetypes="cc"
         inkscape:connector-curvature="0"
         id="path12824-0-8"
         d="m 231.1033,307.1235 c -5.6434,16.9302 2.4186,25.7984 8.062,29.0232"
         style="fill:none;stroke:#000000;stroke-width:0.72098464px;stroke-linecap:round;stroke-linejoin:miter;stroke-opacity:1;marker-end:url(#Arrow2Mend)" />
      <path
         sodipodi:nodetypes="cc"
         inkscape:connector-curvature="0"
         id="path18246-8"
         d="m 278.6691,343.4025 c -4.031,4.8372 -18.5426,0.8062 -18.5426,0.8062"
         style="fill:none;stroke:#000000;stroke-width:0.80620003px;stroke-linecap:round;stroke-linejoin:miter;stroke-opacity:1;marker-end:url(#Arrow2Mend)" />
      <text
         sodipodi:linespacing="125%"
         id="text16526-4"
         y="299.86258"
         x="226.21936"
         style="font-size:14.51159954px;font-style:normal;font-variant:normal;font-weight:normal;font-stretch:normal;text-align:start;line-height:125%;letter-spacing:0px;word-spacing:0px;writing-mode:lr-tb;text-anchor:start;fill:#000000;fill-opacity:1;stroke:none;font-family:Standard Symbols L;-inkscape-font-specification:Standard Symbols L"
         xml:space="preserve"><tspan
           y="299.86258"
           x="226.21936"
           id="tspan16528-8"
           sodipodi:role="line">38</tspan></text>
      <text
         sodipodi:linespacing="125%"
         id="text16530-6"
         y="339.56775"
         x="279.72556"
         style="font-size:14.51159954px;font-style:normal;font-variant:normal;font-weight:normal;font-stretch:normal;text-align:start;line-height:125%;letter-spacing:0px;word-spacing:0px;writing-mode:lr-tb;text-anchor:start;fill:#000000;fill-opacity:1;stroke:none;font-family:Standard Symbols L;-inkscape-font-specification:Standard Symbols L"
         xml:space="preserve"><tspan
           y="339.56775"
           x="279.72556"
           id="tspan16532-4"
           sodipodi:role="line">39</tspan></text>
      <path
         sodipodi:nodetypes="cc"
         inkscape:connector-curvature="0"
         id="path7494-1-6-3-5-7-82-1-6-1-2-4"
         d="m 253.6769,326.4723 0,24.9922"
         style="fill:none;stroke:#000000;stroke-width:2.16255093;stroke-linecap:round;stroke-linejoin:round;stroke-miterlimit:4;stroke-opacity:1;stroke-dasharray:none;marker-start:url(#marker7359);marker-end:url(#marker7359)" />
      <path
         sodipodi:nodetypes="cc"
         inkscape:connector-curvature="0"
         id="path12822-7-7"
         d="m 244.0025,326.4723 c 1.6124,4.031 2.4186,15.3178 -2.4186,20.9612"
         style="fill:none;stroke:#000000;stroke-width:2.16295385;stroke-linecap:round;stroke-linejoin:round;stroke-miterlimit:4;stroke-opacity:1;stroke-dasharray:none" />
      <g
         id="text11868-1"
         style="font-size:14.51159954px;font-style:normal;font-variant:normal;font-weight:500;font-stretch:normal;text-align:start;line-height:125%;letter-spacing:0px;word-spacing:0px;writing-mode:lr-tb;text-anchor:start;fill:#000000;fill-opacity:1;stroke:none;font-family:Century Schoolbook L;-inkscape-font-specification:Century Schoolbook L Medium">
        <path
           id="path10336"
           style="font-style:italic;font-weight:normal;font-family:Standard Symbols L;-inkscape-font-specification:Standard Symbols L"
           d="m 256.08704,294.47288 -0.88572,4.52779 -1.30377,0 0.24091,-1.20457 c -0.38263,0.47238 -0.81959,0.82667 -1.31086,1.06286 -0.48656,0.23146 -1.0298,0.3472 -1.62972,0.3472 -0.67551,0 -1.23056,-0.20549 -1.66515,-0.61646 -0.42987,-0.4157 -0.6448,-0.94713 -0.6448,-1.59429 0,-0.92587 0.36845,-1.65806 1.10537,-2.19658 0.74164,-0.53852 1.76199,-0.80777 3.06104,-0.80778 l 1.81395,0 0.0709,-0.3472 c 0.009,-0.0378 0.0165,-0.0779 0.0213,-0.12046 0.005,-0.0472 0.007,-0.11809 0.007,-0.21257 0,-0.42041 -0.17242,-0.74636 -0.51726,-0.97783 -0.34012,-0.23619 -0.81959,-0.35428 -1.4384,-0.35429 -0.42515,10e-6 -0.8621,0.0543 -1.31086,0.16297 -0.44405,0.10866 -0.90226,0.27163 -1.37464,0.48892 l 0.22675,-1.20458 c 0.49127,-0.18422 0.97074,-0.32121 1.4384,-0.41097 0.47238,-0.0945 0.92823,-0.14171 1.36755,-0.14171 0.93531,0 1.64625,0.20313 2.13281,0.60937 0.49127,0.40626 0.73691,0.99673 0.73692,1.77143 -1e-5,0.1559 -0.0118,0.34013 -0.0354,0.55269 -0.0236,0.20786 -0.0591,0.42988 -0.10629,0.66606 m -1.41006,0.53852 -1.30378,0 c -1.06759,0 -1.85883,0.14408 -2.37372,0.43223 -0.51018,0.28343 -0.76526,0.72511 -0.76526,1.32503 0,0.4157 0.1299,0.74165 0.38971,0.97784 0.26454,0.23619 0.62827,0.35428 1.09121,0.35428 0.70857,0 1.32739,-0.25272 1.85646,-0.75817 0.52907,-0.51017 0.87863,-1.1904 1.04869,-2.0407 l 0.0567,-0.29051"
           inkscape:connector-curvature="0" />
        <path
           id="path10338"
           style="font-style:italic;font-weight:normal;font-family:Standard Symbols L;-inkscape-font-specification:Standard Symbols L"
           d="m 265.27725,294.21071 -0.92823,4.78996 -1.31087,0 0.92824,-4.74036 c 0.0425,-0.22201 0.0756,-0.41805 0.0992,-0.58812 0.0236,-0.17005 0.0354,-0.30468 0.0354,-0.40388 0,-0.3968 -0.12518,-0.70621 -0.37554,-0.92824 -0.25037,-0.22201 -0.59993,-0.33302 -1.04869,-0.33303 -0.69913,10e-6 -1.30142,0.23384 -1.80686,0.70149 -0.50546,0.46294 -0.83612,1.09357 -0.99201,1.8919 l -0.87154,4.40024 -1.30378,0 1.53761,-7.93603 1.30377,0 -0.26217,1.24709 c 0.36373,-0.4582 0.80068,-0.81249 1.31086,-1.06286 0.51017,-0.25036 1.04632,-0.37554 1.60847,-0.37554 0.69912,0 1.23999,0.18896 1.62263,0.56685 0.38735,0.37792 0.58102,0.90935 0.58103,1.5943 -10e-6,0.17006 -0.0118,0.35193 -0.0354,0.5456 -0.0189,0.19368 -0.0496,0.40389 -0.0921,0.63063"
           inkscape:connector-curvature="0" />
        <path
           id="path10340"
           style="font-style:italic;font-weight:normal;font-family:Standard Symbols L;-inkscape-font-specification:Standard Symbols L"
           d="m 275.05557,291.06464 -1.35337,6.95111 c -0.25982,1.34629 -0.75819,2.35011 -1.4951,3.01144 -0.73219,0.66134 -1.71947,0.992 -2.96184,0.99201 -0.45821,-1e-5 -0.88335,-0.0354 -1.27543,-0.10629 -0.39208,-0.0661 -0.75818,-0.17006 -1.09829,-0.31177 l 0.24092,-1.26835 c 0.32121,0.20785 0.66133,0.36137 1.02034,0.46057 0.35901,0.0992 0.74164,0.1488 1.14789,0.1488 0.82667,0 1.50454,-0.22674 2.03361,-0.68023 0.53379,-0.44876 0.88571,-1.09592 1.05578,-1.94149 l 0.11337,-0.5952 c -0.36374,0.4157 -0.78652,0.73219 -1.26835,0.94949 -0.48183,0.21729 -1.00146,0.32594 -1.55886,0.32594 -0.80306,0 -1.43605,-0.26453 -1.89898,-0.7936 -0.45821,-0.53379 -0.68732,-1.26599 -0.68732,-2.19658 0,-0.73219 0.13935,-1.44785 0.41806,-2.14698 0.2787,-0.70385 0.67078,-1.32739 1.17623,-1.87064 0.33539,-0.359 0.72511,-0.63534 1.16915,-0.82903 0.44876,-0.19367 0.91642,-0.29051 1.40298,-0.29051 0.53378,0 0.99908,0.12518 1.39589,0.37554 0.39679,0.24565 0.69203,0.59521 0.88572,1.04869 l 0.22674,-1.23292 1.31086,0 m -1.96275,2.91224 c -1e-5,-0.64243 -0.15117,-1.13844 -0.45349,-1.48801 -0.30233,-0.34955 -0.73219,-0.52433 -1.2896,-0.52434 -0.34485,10e-6 -0.67315,0.0685 -0.98492,0.20549 -0.31178,0.13699 -0.57867,0.32831 -0.80069,0.57394 -0.35901,0.40626 -0.64008,0.88572 -0.8432,1.43841 -0.1984,0.54797 -0.2976,1.11482 -0.2976,1.70057 0,0.6519 0.15116,1.15262 0.45349,1.50218 0.30704,0.34957 0.74636,0.52435 1.31794,0.52435 0.82667,0 1.51635,-0.37318 2.06904,-1.11955 0.55268,-0.75109 0.82902,-1.68876 0.82903,-2.81304"
           inkscape:connector-curvature="0" />
        <path
           id="path10342"
           style="font-style:italic;font-weight:normal;font-family:Standard Symbols L;-inkscape-font-specification:Standard Symbols L"
           d="m 278.2725,287.97526 1.30377,0 -2.14698,11.02541 -1.30377,0 2.14698,-11.02541"
           inkscape:connector-curvature="0" />
        <path
           id="path10344"
           style="font-style:italic;font-weight:normal;font-family:Standard Symbols L;-inkscape-font-specification:Standard Symbols L"
           d="m 286.6195,294.32408 c 0.0142,-0.0756 0.0236,-0.15352 0.0283,-0.23383 0.009,-0.0803 0.0142,-0.1606 0.0142,-0.24091 -10e-6,-0.5763 -0.17007,-1.03215 -0.51018,-1.36755 -0.33539,-0.33539 -0.7936,-0.50308 -1.37463,-0.50309 -0.64717,10e-6 -1.21875,0.20549 -1.71475,0.61646 -0.496,0.40626 -0.87155,0.98492 -1.12663,1.73601 l 4.68367,-0.007 m 1.13372,1.02035 -6.06539,0 c -0.0284,0.17951 -0.0472,0.32122 -0.0567,0.42514 -0.009,0.10393 -0.0142,0.19368 -0.0142,0.26926 0,0.65662 0.20076,1.16443 0.60229,1.52344 0.40624,0.35901 0.97783,0.53851 1.71475,0.53851 0.56685,0 1.10301,-0.0638 1.60846,-0.19131 0.50544,-0.12755 0.97546,-0.31414 1.41006,-0.55978 l -0.248,1.28961 c -0.46766,0.18895 -0.95186,0.33067 -1.45258,0.42514 -0.496,0.0945 -1.00145,0.14172 -1.51634,0.14172 -1.10066,0 -1.94859,-0.26217 -2.54379,-0.78652 -0.59047,-0.52907 -0.88571,-1.27779 -0.88571,-2.24618 0,-0.82667 0.14643,-1.59429 0.43931,-2.30287 0.2976,-0.71329 0.73219,-1.34864 1.30378,-1.90606 0.36846,-0.34956 0.80541,-0.61881 1.31086,-0.80777 0.51017,-0.18895 1.05105,-0.28343 1.62264,-0.28343 0.89752,0 1.61081,0.26926 2.13989,0.80777 0.53379,0.53852 0.80068,1.26127 0.80069,2.16824 -1e-5,0.2173 -0.0142,0.45113 -0.0425,0.70149 -0.0283,0.24564 -0.0709,0.51017 -0.12754,0.7936"
           inkscape:connector-curvature="0" />
      </g>
      <path
         sodipodi:nodetypes="cc"
         inkscape:connector-curvature="0"
         id="path3992-4-77-9-5-7-1-2-3-0-9"
         d="m 127.1035,332.9219 c 18.5426,-5.6434 52.403,-8.8682 72.558,-0.8062"
         style="fill:none;stroke:#dba981;stroke-width:1.20043182;stroke-linecap:round;stroke-linejoin:miter;stroke-miterlimit:4;stroke-opacity:1;stroke-dasharray:3.6012954, 1.2004318;stroke-dashoffset:0" />
      <path
         sodipodi:nodetypes="cc"
         inkscape:connector-curvature="0"
         id="path3992-4-77-9-5-7-1-2-3-2-3-0"
         d="m 76.3129,432.8907 177.364,0.8062"
         style="fill:none;stroke:#dba981;stroke-width:1.20043182;stroke-linecap:round;stroke-linejoin:miter;stroke-miterlimit:4;stroke-opacity:1;stroke-dasharray:3.6012954, 1.2004318;stroke-dashoffset:0" />
      <path
         sodipodi:nodetypes="cc"
         inkscape:connector-curvature="0"
         id="path3992-4-77-9-5-7-1-2-3-2-1-2-8"
         d="m 81.1501,448.2085 166.0772,-0.8062"
         style="fill:none;stroke:#dba981;stroke-width:1.20043182;stroke-linecap:round;stroke-linejoin:miter;stroke-miterlimit:4;stroke-opacity:1;stroke-dasharray:3.6012954, 1.2004318;stroke-dashoffset:0" />
      <path
         style="fill:none;stroke:#aaaaaa;stroke-width:2.41900301;stroke-linecap:butt;stroke-linejoin:miter;stroke-miterlimit:4;stroke-opacity:1;stroke-dasharray:4.8380062, 2.4190031, 1.20946124, 2.4190031;stroke-dashoffset:0"
         d="m 72.2819,332.1157 54.8216,0"
         id="path8471-6-6-7-8-46-2-8-0-1-88-2-7-10-5-6-3"
         inkscape:connector-curvature="0"
         sodipodi:nodetypes="cc" />
      <path
         style="fill:none;stroke:#000000;stroke-width:2.16255093;stroke-linecap:round;stroke-linejoin:round;stroke-miterlimit:4;stroke-opacity:1;stroke-dasharray:none;marker-start:url(#marker7359);marker-end:url(#marker7359)"
         d="m 73.0881,332.1157 0,18.5426"
         id="path7494-1-6-3-5-7-82-1-6-1-2-4-8"
         inkscape:connector-curvature="0"
         sodipodi:nodetypes="cc" />
      <path
         sodipodi:type="arc"
         style="color:#000000;fill:#ffffff;fill-opacity:1;stroke:#00000f;stroke-width:1.5;stroke-linecap:round;stroke-linejoin:miter;stroke-miterlimit:4;stroke-opacity:0.94120029;stroke-dasharray:none;stroke-dashoffset:0;marker:none;visibility:visible;display:inline;overflow:visible;enable-background:accumulate"
         id="path4050-8-0-5-3-4-0-4-2-0-9-5"
         sodipodi:cx="57.75"
         sodipodi:cy="50.32"
         sodipodi:rx="15"
         sodipodi:ry="15"
         d="m 72.75,50.32 c 0,8.284271 -6.715729,15 -15,15 -8.284271,0 -15,-6.715729 -15,-15 0,-8.284272 6.715729,-15 15,-15 8.253913,0 14.956999,6.668419 14.999798,14.92222"
         sodipodi:start="0"
         sodipodi:end="6.278"
         sodipodi:open="true"
         transform="matrix(0.8481224,0,0,0.8481224,25.5223,252.3019)" />
      <path
         sodipodi:type="arc"
         style="color:#000000;fill:#ffffff;fill-opacity:1;stroke:#00000f;stroke-width:1.5;stroke-linecap:round;stroke-linejoin:miter;stroke-miterlimit:4;stroke-opacity:0.94120029;stroke-dasharray:none;stroke-dashoffset:0;marker:none;visibility:visible;display:inline;overflow:visible;enable-background:accumulate"
         id="path4050-8-0-5-3-4-0-7-3-7-5-5"
         sodipodi:cx="57.75"
         sodipodi:cy="50.32"
         sodipodi:rx="15"
         sodipodi:ry="15"
         d="m 72.75,50.32 c 0,8.284271 -6.715729,15 -15,15 -8.284271,0 -15,-6.715729 -15,-15 0,-8.284272 6.715729,-15 15,-15 8.253913,0 14.956999,6.668419 14.999798,14.92222"
         sodipodi:start="0"
         sodipodi:end="6.278"
         sodipodi:open="true"
         transform="matrix(0.77201712,0,0,0.77201712,8.5921,295.8367)" />
      <text
         xml:space="preserve"
         style="font-size:14.51159954px;font-style:normal;font-variant:normal;font-weight:normal;font-stretch:normal;text-align:start;line-height:125%;letter-spacing:0px;word-spacing:0px;writing-mode:lr-tb;text-anchor:start;fill:#000000;fill-opacity:1;stroke:none;font-family:Standard Symbols L;-inkscape-font-specification:Standard Symbols L"
         x="67.194733"
         y="299.86258"
         id="text16526"
         sodipodi:linespacing="125%"><tspan
           sodipodi:role="line"
           id="tspan16528"
           x="67.194733"
           y="299.86258">36</tspan></text>
      <text
         xml:space="preserve"
         style="font-size:14.51159954px;font-style:normal;font-variant:normal;font-weight:normal;font-stretch:normal;text-align:start;line-height:125%;letter-spacing:0px;word-spacing:0px;writing-mode:lr-tb;text-anchor:start;fill:#000000;fill-opacity:1;stroke:none;font-family:Standard Symbols L;-inkscape-font-specification:Standard Symbols L"
         x="46.264336"
         y="339.08029"
         id="text16530"
         sodipodi:linespacing="125%"><tspan
           sodipodi:role="line"
           id="tspan16532"
           x="46.264336"
           y="339.08029">37</tspan></text>
      <g
         id="text11868"
         style="font-size:14.51159954px;font-style:normal;font-variant:normal;font-weight:500;font-stretch:normal;text-align:start;line-height:125%;letter-spacing:0px;word-spacing:0px;writing-mode:lr-tb;text-anchor:start;fill:#000000;fill-opacity:1;stroke:none;font-family:Century Schoolbook L;-inkscape-font-specification:Century Schoolbook L Medium">
        <path
           id="path10316"
           style="font-style:italic;font-weight:normal;font-family:Standard Symbols L;-inkscape-font-specification:Standard Symbols L"
           d="m 28.065688,294.47288 -0.885718,4.52779 -1.303776,0 0.240915,-1.20457 c -0.382636,0.47238 -0.819589,0.82667 -1.310862,1.06286 -0.486559,0.23146 -1.029798,0.3472 -1.629721,0.3472 -0.67551,0 -1.230559,-0.20549 -1.665149,-0.61646 -0.429869,-0.4157 -0.644803,-0.94713 -0.644803,-1.59429 0,-0.92587 0.368458,-1.65806 1.105376,-2.19658 0.741638,-0.53852 1.761984,-0.80777 3.06104,-0.80778 l 1.81395,0 0.07086,-0.3472 c 0.0094,-0.0378 0.01653,-0.0779 0.02126,-0.12046 0.0047,-0.0472 0.0071,-0.11809 0.0071,-0.21257 -7e-6,-0.42041 -0.172426,-0.74636 -0.517259,-0.97783 -0.340122,-0.23619 -0.81959,-0.35428 -1.438406,-0.35429 -0.425149,10e-6 -0.862102,0.0543 -1.310862,0.16297 -0.444043,0.10866 -0.902254,0.27163 -1.374634,0.48892 l 0.226744,-1.20458 c 0.491275,-0.18422 0.970743,-0.32121 1.438405,-0.41097 0.472379,-0.0945 0.928228,-0.14171 1.367548,-0.14171 0.935312,0 1.646248,0.20313 2.132809,0.60937 0.49127,0.40626 0.736909,0.99673 0.736917,1.77143 -8e-6,0.1559 -0.01182,0.34013 -0.03543,0.55269 -0.02363,0.20786 -0.05906,0.42988 -0.106286,0.66606 m -1.410063,0.53852 -1.303776,0 c -1.067589,0 -1.85883,0.14408 -2.373724,0.43223 -0.510175,0.28343 -0.765262,0.72511 -0.76526,1.32503 -2e-6,0.4157 0.129903,0.74165 0.389716,0.97784 0.264532,0.23619 0.628266,0.35428 1.091204,0.35428 0.70857,0 1.327391,-0.25272 1.856465,-0.75817 0.529063,-0.51017 0.878625,-1.1904 1.048689,-2.0407 l 0.05669,-0.29051"
           inkscape:connector-curvature="0" />
        <path
           id="path10318"
           style="font-style:italic;font-weight:normal;font-family:Standard Symbols L;-inkscape-font-specification:Standard Symbols L"
           d="m 37.255895,294.21071 -0.928232,4.78996 -1.310862,0 0.928232,-4.74036 c 0.04251,-0.22201 0.07557,-0.41805 0.0992,-0.58812 0.02361,-0.17005 0.03542,-0.30468 0.03543,-0.40388 -7e-6,-0.3968 -0.125188,-0.70621 -0.375544,-0.92824 -0.25037,-0.22201 -0.599933,-0.33302 -1.04869,-0.33303 -0.699132,10e-6 -1.301419,0.23384 -1.806864,0.70149 -0.505453,0.46294 -0.836121,1.09357 -0.992004,1.8919 l -0.871547,4.40024 -1.303776,0 1.537606,-7.93603 1.303776,0 -0.262172,1.24709 c 0.363731,-0.4582 0.800685,-0.81249 1.310862,-1.06286 0.510169,-0.25036 1.046323,-0.37554 1.608464,-0.37554 0.699119,0 1.239997,0.18896 1.622635,0.56685 0.387345,0.37792 0.581022,0.90935 0.58103,1.5943 -8e-6,0.17006 -0.01182,0.35193 -0.03543,0.5456 -0.0189,0.19368 -0.04961,0.40389 -0.09211,0.63063"
           inkscape:connector-curvature="0" />
        <path
           id="path10320"
           style="font-style:italic;font-weight:normal;font-family:Standard Symbols L;-inkscape-font-specification:Standard Symbols L"
           d="m 47.034219,291.06464 -1.353376,6.95111 c -0.259818,1.34629 -0.758181,2.35011 -1.495092,3.01144 -0.732198,0.66134 -1.719477,0.992 -2.96184,0.99201 -0.458214,-1e-5 -0.883358,-0.0354 -1.275434,-0.10629 -0.392079,-0.0661 -0.758175,-0.17006 -1.09829,-0.31177 l 0.240916,-1.26835 c 0.321219,0.20785 0.661334,0.36137 1.020346,0.46057 0.359009,0.0992 0.741639,0.1488 1.147891,0.1488 0.826666,0 1.504534,-0.22674 2.033607,-0.68023 0.533788,-0.44876 0.885712,-1.09592 1.055776,-1.94149 l 0.113372,-0.5952 c -0.363741,0.4157 -0.786523,0.73219 -1.268348,0.94949 -0.481835,0.21729 -1.001455,0.32594 -1.558863,0.32594 -0.803053,0 -1.436046,-0.26453 -1.898979,-0.7936 -0.458212,-0.53379 -0.687318,-1.26599 -0.687317,-2.19658 -1e-6,-0.73219 0.139352,-1.44785 0.418059,-2.14698 0.278704,-0.70385 0.670782,-1.32739 1.176233,-1.87064 0.335389,-0.359 0.725105,-0.63534 1.169147,-0.82903 0.44876,-0.19367 0.916419,-0.29051 1.402977,-0.29051 0.533788,0 0.999084,0.12518 1.395891,0.37554 0.396795,0.24565 0.692034,0.59521 0.885718,1.04869 l 0.226744,-1.23292 1.310862,0 m -1.96275,2.91224 c -7e-6,-0.64243 -0.151169,-1.13844 -0.453488,-1.48801 -0.302331,-0.34955 -0.732199,-0.52433 -1.289605,-0.52434 -0.344844,10e-6 -0.67315,0.0685 -0.984918,0.20549 -0.311776,0.13699 -0.578672,0.32831 -0.800689,0.57394 -0.359014,0.40626 -0.640081,0.88572 -0.843203,1.43841 -0.198403,0.54797 -0.297603,1.11482 -0.297601,1.70057 -2e-6,0.6519 0.15116,1.15262 0.453487,1.50218 0.307046,0.34957 0.746362,0.52435 1.317948,0.52435 0.826666,0 1.516344,-0.37318 2.069037,-1.11955 0.552681,-0.75109 0.829025,-1.68876 0.829032,-2.81304"
           inkscape:connector-curvature="0" />
        <path
           id="path10322"
           style="font-style:italic;font-weight:normal;font-family:Standard Symbols L;-inkscape-font-specification:Standard Symbols L"
           d="m 50.251145,287.97526 1.303777,0 -2.14698,11.02541 -1.303776,0 2.146979,-11.02541"
           inkscape:connector-curvature="0" />
        <path
           id="path10324"
           style="font-style:italic;font-weight:normal;font-family:Standard Symbols L;-inkscape-font-specification:Standard Symbols L"
           d="m 58.59815,294.32408 c 0.01417,-0.0756 0.02361,-0.15352 0.02834,-0.23383 0.0094,-0.0803 0.01416,-0.1606 0.01417,-0.24091 -7e-6,-0.5763 -0.170065,-1.03215 -0.510174,-1.36755 -0.335398,-0.33539 -0.793609,-0.50308 -1.374634,-0.50309 -0.647169,10e-6 -1.218751,0.20549 -1.714749,0.61646 -0.496005,0.40626 -0.871549,0.98492 -1.126633,1.73601 l 4.683675,-0.007 m 1.133719,1.02035 -6.065395,0 c -0.02835,0.17951 -0.04724,0.32122 -0.05669,0.42514 -0.0095,0.10393 -0.01417,0.19368 -0.01417,0.26926 -2e-6,0.65662 0.200761,1.16443 0.602288,1.52344 0.406247,0.35901 0.977829,0.53851 1.71475,0.53851 0.566854,0 1.103008,-0.0638 1.608463,-0.19131 0.505444,-0.12755 0.975464,-0.31414 1.410063,-0.55978 l -0.248001,1.28961 c -0.467666,0.18895 -0.951857,0.33067 -1.452577,0.42514 -0.496007,0.0945 -1.001456,0.14172 -1.516349,0.14172 -1.100655,0 -1.948581,-0.26217 -2.543781,-0.78652 -0.59048,-0.52907 -0.885719,-1.27779 -0.885718,-2.24618 -1e-6,-0.82667 0.146438,-1.59429 0.439316,-2.30287 0.2976,-0.71329 0.732192,-1.34864 1.303777,-1.90606 0.368455,-0.34956 0.805409,-0.61881 1.310862,-0.80777 0.510169,-0.18895 1.051047,-0.28343 1.622635,-0.28343 0.897521,0 1.610818,0.26926 2.139894,0.80777 0.533784,0.53852 0.80068,1.26127 0.800689,2.16824 -9e-6,0.2173 -0.01418,0.45113 -0.04252,0.70149 -0.02835,0.24564 -0.07086,0.51017 -0.127543,0.7936"
           inkscape:connector-curvature="0" />
      </g>
      <path
         style="fill:none;stroke:#000000;stroke-width:2.16295385;stroke-linecap:round;stroke-linejoin:round;stroke-miterlimit:4;stroke-opacity:1;stroke-dasharray:none"
         d="m 84.3749,332.1157 c -3.2248,4.8372 -2.4186,9.6744 0,15.3178"
         id="path12822-7-7-3"
         inkscape:connector-curvature="0"
         sodipodi:nodetypes="cc" />
      <path
         style="fill:none;stroke:#dba981;stroke-width:1.20043182;stroke-linecap:round;stroke-linejoin:miter;stroke-miterlimit:4;stroke-opacity:1;stroke-dasharray:3.6012954, 1.2004318;stroke-dashoffset:0"
         d="m 81.9563,469.9759 160.4338,0"
         id="path3992-4-77-9-5-7-1-2-3-2-1-2-8-2"
         inkscape:connector-curvature="0"
         sodipodi:nodetypes="cc" />
      <g
         id="text6934-3-2"
         style="font-size:17.48647881px;font-style:normal;font-variant:normal;font-weight:normal;font-stretch:normal;text-align:start;line-height:125%;letter-spacing:0px;word-spacing:0px;writing-mode:lr-tb;text-anchor:start;fill:#000000;fill-opacity:1;stroke:none;font-family:Standard Symbols L;-inkscape-font-specification:Standard Symbols L">
        <path
           id="path10327"
           d="m 146.35667,281.25248 0,4.67046 2.76641,0 c 0.92783,0 1.61374,-0.19069 2.05774,-0.57207 0.44968,-0.38707 0.67452,-0.97621 0.67453,-1.76743 -10e-6,-0.7969 -0.22485,-1.3832 -0.67453,-1.75889 -0.444,-0.38138 -1.12991,-0.57206 -2.05774,-0.57207 l -2.76641,0 m 0,-5.24253 0,3.84225 2.55296,0 c 0.84244,0 1.46858,-0.15653 1.87843,-0.46961 0.41552,-0.31876 0.62329,-0.8026 0.62329,-1.45152 0,-0.64321 -0.20777,-1.1242 -0.62329,-1.44297 -0.40985,-0.31876 -1.03599,-0.47814 -1.87843,-0.47815 l -2.55296,0 m -1.72474,-1.41736 4.40577,0 c 1.31489,1e-5 2.32811,0.27324 3.03964,0.81968 0.71152,0.54646 1.06728,1.32345 1.06729,2.33096 -1e-5,0.77984 -0.18216,1.40029 -0.54645,1.86135 -0.36431,0.46108 -0.89938,0.74854 -1.6052,0.86237 0.84813,0.18216 1.50558,0.56354 1.97235,1.14414 0.47244,0.57492 0.70867,1.29498 0.70868,2.16019 -1e-5,1.13845 -0.38708,2.01789 -1.16121,2.63834 -0.77415,0.62046 -1.87559,0.93068 -3.30433,0.93068 l -4.57654,0 0,-12.74771"
           inkscape:connector-curvature="0" />
        <path
           id="path10329"
           d="m 160.89743,282.53323 c -1.26937,0 -2.14882,0.14515 -2.63834,0.43545 -0.48954,0.29031 -0.7343,0.78553 -0.7343,1.48567 0,0.55784 0.18215,1.00183 0.54645,1.33198 0.36999,0.32445 0.87091,0.48668 1.50275,0.48668 0.8709,0 1.5682,-0.30738 2.09189,-0.92214 0.52936,-0.62045 0.79405,-1.44297 0.79406,-2.46757 l 0,-0.35007 -1.56251,0 m 3.13356,-0.64891 0,5.45598 -1.57105,0 0,-1.45151 c -0.35862,0.5806 -0.80546,1.01037 -1.34052,1.28928 -0.53507,0.27323 -1.18967,0.40984 -1.96381,0.40984 -0.97906,0 -1.7589,-0.27322 -2.3395,-0.81968 -0.57491,-0.55214 -0.86237,-1.28928 -0.86237,-2.21142 0,-1.07583 0.35861,-1.88696 1.07583,-2.43342 0.72291,-0.54645 1.79873,-0.81967 3.22748,-0.81968 l 2.20289,0 0,-0.15369 c -10e-6,-0.7229 -0.23908,-1.28074 -0.71722,-1.67351 -0.47246,-0.39845 -1.13845,-0.59767 -1.99797,-0.59768 -0.54645,1e-5 -1.07867,0.0655 -1.59666,0.19638 -0.518,0.13093 -1.01606,0.32731 -1.49421,0.58914 l 0,-1.45151 c 0.57491,-0.22199 1.13275,-0.38706 1.67351,-0.49522 0.54076,-0.11384 1.06729,-0.17076 1.57959,-0.17077 1.3832,10e-6 2.41634,0.35862 3.09941,1.07583 0.68306,0.71722 1.02459,1.80444 1.0246,3.26164"
           inkscape:connector-curvature="0" />
        <path
           id="path10331"
           d="m 174.15744,278.14453 0,1.46859 c -0.444,-0.24476 -0.89084,-0.42691 -1.34052,-0.54645 -0.444,-0.12522 -0.89368,-0.18783 -1.34905,-0.18784 -1.01892,1e-5 -1.81013,0.32446 -2.37366,0.97337 -0.56353,0.64322 -0.84529,1.54828 -0.84529,2.71518 0,1.16691 0.28176,2.07482 0.84529,2.72372 0.56353,0.64323 1.35474,0.96484 2.37366,0.96483 0.45537,1e-5 0.90505,-0.0598 1.34905,-0.1793 0.44968,-0.12523 0.89652,-0.31022 1.34052,-0.55499 l 0,1.45151 c -0.43831,0.20492 -0.89369,0.35861 -1.36613,0.46107 -0.46677,0.10246 -0.96484,0.15369 -1.49421,0.15369 -1.44013,0 -2.58427,-0.45253 -3.43241,-1.35759 -0.84814,-0.90506 -1.27221,-2.12604 -1.2722,-3.66294 -1e-5,-1.55966 0.42691,-2.78633 1.28074,-3.68002 0.85952,-0.89366 2.03497,-1.3405 3.52633,-1.34051 0.48383,10e-6 0.95628,0.0512 1.41736,0.15369 0.46106,0.0968 0.9079,0.24477 1.34052,0.44399"
           inkscape:connector-curvature="0" />
        <path
           id="path10333"
           d="m 176.84701,274.05468 1.57959,0 0,7.84671 4.68753,-4.12401 2.00651,0 -5.07176,4.47408 5.28522,5.08884 -2.0492,0 -4.8583,-4.67046 0,4.67046 -1.57959,0 0,-13.28562"
           inkscape:connector-curvature="0" />
      </g>
    </g>
  </g>
</svg>
