<?xml version="1.0" encoding="UTF-8" standalone="no"?>
<!-- Created with Inkscape (http://www.inkscape.org/) -->

<svg
   xmlns:dc="http://purl.org/dc/elements/1.1/"
   xmlns:cc="http://creativecommons.org/ns#"
   xmlns:rdf="http://www.w3.org/1999/02/22-rdf-syntax-ns#"
   xmlns:svg="http://www.w3.org/2000/svg"
   xmlns="http://www.w3.org/2000/svg"
   xmlns:sodipodi="http://sodipodi.sourceforge.net/DTD/sodipodi-0.dtd"
   xmlns:inkscape="http://www.inkscape.org/namespaces/inkscape"
   width="228.20566"
   height="196.70851"
   id="svg10492"
   version="1.1"
   inkscape:version="0.48.4 r9939"
   sodipodi:docname="Новий документ 102">
  <defs
     id="defs10494">
    <marker
       inkscape:stockid="Arrow2Mend"
       orient="auto"
       refY="0"
       refX="0"
       id="Arrow2Mend"
       style="overflow:visible">
      <path
         id="path8911"
         style="fill-rule:evenodd;stroke-width:0.625;stroke-linejoin:round"
         d="M 8.719,4.034 -2.207,0.016 8.719,-4.002 c -1.746,2.372 -1.736,5.618 0,8.036 z"
         transform="scale(-0.6,-0.6)"
         inkscape:connector-curvature="0" />
    </marker>
  </defs>
  <sodipodi:namedview
     id="base"
     pagecolor="#ffffff"
     bordercolor="#666666"
     borderopacity="1.0"
     inkscape:pageopacity="0.0"
     inkscape:pageshadow="2"
     inkscape:zoom="1.979899"
     inkscape:cx="94.919394"
     inkscape:cy="61.082471"
     inkscape:document-units="px"
     inkscape:current-layer="layer1"
     showgrid="false"
     fit-margin-top="0"
     fit-margin-left="0"
     fit-margin-right="0"
     fit-margin-bottom="0"
     inkscape:window-width="1855"
     inkscape:window-height="1056"
     inkscape:window-x="65"
     inkscape:window-y="24"
     inkscape:window-maximized="1" />
  <metadata
     id="metadata10497">
    <rdf:RDF>
      <cc:Work
         rdf:about="">
        <dc:format>image/svg+xml</dc:format>
        <dc:type
           rdf:resource="http://purl.org/dc/dcmitype/StillImage" />
        <dc:title></dc:title>
      </cc:Work>
    </rdf:RDF>
  </metadata>
  <g
     inkscape:label="Layer 1"
     inkscape:groupmode="layer"
     id="layer1"
     transform="translate(-105.89354,-262.66649)">
    <g
       id="g10585">
      <path
         style="fill:none;stroke:#aaaaaa;stroke-width:2.41860008;stroke-linecap:butt;stroke-linejoin:round;stroke-miterlimit:4;stroke-opacity:1;stroke-dasharray:4.8372, 2.4186, 1.2093, 2.4186;stroke-dashoffset:0;marker-start:url(#marker7359);marker-end:url(#marker7359)"
         d="m 247.53048,319.8406 52.403,18.5426"
         id="path7494-1-6-3-5-7-82-1-6-1-2-4-5-1"
         inkscape:connector-curvature="0"
         sodipodi:nodetypes="cc" />
      <path
         sodipodi:nodetypes="cc"
         inkscape:connector-curvature="0"
         id="path8584-0-8-6-3-4-9-7-3"
         d="m 299.93348,422.228 c -14.5116,-24.9922 -8.062,-45.1472 0,-80.62"
         style="fill:none;stroke:#dba981;stroke-width:2.99987006;stroke-linecap:round;stroke-linejoin:miter;stroke-miterlimit:4;stroke-opacity:1;stroke-dasharray:none" />
      <path
         sodipodi:nodetypes="cc"
         inkscape:connector-curvature="0"
         id="path8584-6-5-3-6-1-1-1-0-6"
         d="m 120.15088,419.8094 c 13.7054,-24.9922 12.8992,-35.4728 -1.6124,-79.0076"
         style="fill:none;stroke:#dba981;stroke-width:2.99987006;stroke-linecap:round;stroke-linejoin:miter;stroke-miterlimit:4;stroke-opacity:1;stroke-dasharray:none" />
      <path
         style="fill:none;stroke:#dba981;stroke-width:2.99987006;stroke-linecap:round;stroke-linejoin:round;stroke-miterlimit:4;stroke-opacity:1;stroke-dasharray:none"
         d="m 129.01908,457.7008 c 0,-4.031 -3.2248,-19.3488 -4.8372,-26.6046 -12.093,-25.7984 -25.7984,-61.2712 -8.8682,-87.0696 8.8682,-11.2868 40.31,-8.8682 54.8216,-21.7674 4.031,-3.2248 6.4496,-8.8682 7.2558,-13.7054 0.8062,-5.6434 -0.8062,-16.124 -0.8062,-16.124 0,0 21.7674,-7.2558 33.8604,-7.2558 11.2868,0 33.8604,8.062 33.8604,8.062 0,0 -2.4186,10.4806 -1.6124,16.124 0.8062,4.8372 3.2248,10.4806 7.2558,13.7054 14.5116,12.8992 45.9534,10.4806 55.6278,21.7674 21.7674,29.8294 1.6124,61.2712 -9.6744,86.2634 -4.8372,13.7054 -3.2248,12.093 -6.4496,26.6046"
         id="path9794-5"
         inkscape:connector-curvature="0"
         sodipodi:nodetypes="ccccccscccccc" />
      <path
         transform="matrix(0.8481224,0,0,0.8481224,230.60028,240.833)"
         sodipodi:open="true"
         sodipodi:end="6.278"
         sodipodi:start="0"
         d="m 72.75,50.32 c 0,8.284271 -6.715729,15 -15,15 -8.284271,0 -15,-6.715729 -15,-15 0,-8.284272 6.715729,-15 15,-15 8.253913,0 14.956999,6.668419 14.999798,14.92222"
         sodipodi:ry="15"
         sodipodi:rx="15"
         sodipodi:cy="50.32"
         sodipodi:cx="57.75"
         id="path4050-8-0-5-3-4-0-4-2-0-9-5-0-1"
         style="color:#000000;fill:#ffffff;fill-opacity:1;stroke:#00000f;stroke-width:1.5;stroke-linecap:round;stroke-linejoin:miter;stroke-miterlimit:4;stroke-opacity:0.94120029;stroke-dasharray:none;stroke-dashoffset:0;marker:none;visibility:visible;display:inline;overflow:visible;enable-background:accumulate"
         sodipodi:type="arc" />
      <path
         sodipodi:nodetypes="cc"
         inkscape:connector-curvature="0"
         id="path12824-0-8-9"
         d="m 277.35988,295.6546 c -5.6434,16.9302 2.4186,25.7984 8.062,29.0232"
         style="fill:none;stroke:#000000;stroke-width:0.72098464px;stroke-linecap:round;stroke-linejoin:miter;stroke-opacity:1;marker-end:url(#Arrow2Mend)" />
      <text
         sodipodi:linespacing="125%"
         id="text16526-4-4"
         y="288.39368"
         x="272.41788"
         style="font-size:14.51159954px;font-style:normal;font-variant:normal;font-weight:normal;font-stretch:normal;text-align:start;line-height:125%;letter-spacing:0px;word-spacing:0px;writing-mode:lr-tb;text-anchor:start;fill:#000000;fill-opacity:1;stroke:none;font-family:Standard Symbols L;-inkscape-font-specification:Standard Symbols L"
         xml:space="preserve"><tspan
           y="288.39368"
           x="272.41788"
           id="tspan16528-8-1"
           sodipodi:role="line">40</tspan></text>
      <path
         sodipodi:nodetypes="cc"
         inkscape:connector-curvature="0"
         id="path7494-1-6-3-5-7-82-1-6-1-2-4-5"
         d="m 299.93348,315.0034 0,24.9922"
         style="fill:none;stroke:#aaaaaa;stroke-width:2.41860008;stroke-linecap:butt;stroke-linejoin:round;stroke-miterlimit:4;stroke-opacity:1;stroke-dasharray:4.8372, 2.4186, 1.2093, 2.4186;stroke-dashoffset:0;marker-start:url(#marker7359);marker-end:url(#marker7359)" />
      <path
         sodipodi:nodetypes="cc"
         inkscape:connector-curvature="0"
         id="path12822-7-7-5"
         d="m 299.12728,324.6778 c -6.4496,0 -12.093,4.8372 -12.8992,8.062"
         style="fill:none;stroke:#000000;stroke-width:2.16295385;stroke-linecap:round;stroke-linejoin:round;stroke-miterlimit:4;stroke-opacity:1;stroke-dasharray:none" />
      <g
         id="text11868-1-7"
         style="font-size:14.51159954px;font-style:normal;font-variant:normal;font-weight:500;font-stretch:normal;text-align:start;line-height:125%;letter-spacing:0px;word-spacing:0px;writing-mode:lr-tb;text-anchor:start;fill:#000000;fill-opacity:1;stroke:none;font-family:Century Schoolbook L;-inkscape-font-specification:Century Schoolbook L Medium">
        <path
           id="path10575"
           style="font-style:italic;font-weight:normal;font-family:Standard Symbols L;-inkscape-font-specification:Standard Symbols L"
           d="m 302.26301,283.0847 -0.88572,4.52779 -1.30378,0 0.24092,-1.20458 c -0.38264,0.47239 -0.81959,0.82667 -1.31087,1.06286 -0.48655,0.23147 -1.02979,0.3472 -1.62972,0.3472 -0.67551,0 -1.23056,-0.20548 -1.66515,-0.61646 -0.42987,-0.41569 -0.6448,-0.94712 -0.6448,-1.59429 0,-0.92586 0.36846,-1.65806 1.10538,-2.19658 0.74164,-0.53851 1.76198,-0.80777 3.06104,-0.80777 l 1.81395,0 0.0709,-0.3472 c 0.009,-0.0378 0.0165,-0.0779 0.0213,-0.12046 0.005,-0.0472 0.007,-0.11809 0.007,-0.21257 -1e-5,-0.42042 -0.17243,-0.74636 -0.51726,-0.97784 -0.34012,-0.23618 -0.81959,-0.35428 -1.43841,-0.35428 -0.42515,0 -0.8621,0.0543 -1.31086,0.16297 -0.44404,0.10865 -0.90225,0.27163 -1.37463,0.48892 l 0.22674,-1.20458 c 0.49128,-0.18422 0.97074,-0.32121 1.43841,-0.41097 0.47237,-0.0945 0.92822,-0.14171 1.36754,-0.14172 0.93532,10e-6 1.64625,0.20313 2.13281,0.60938 0.49127,0.40625 0.73691,0.99673 0.73692,1.77143 -10e-6,0.15589 -0.0118,0.34012 -0.0354,0.55269 -0.0236,0.20785 -0.059,0.42987 -0.10628,0.66606 m -1.41007,0.53852 -1.30377,0 c -1.06759,0 -1.85883,0.14408 -2.37373,0.43223 -0.51017,0.28343 -0.76526,0.72511 -0.76526,1.32503 0,0.4157 0.12991,0.74164 0.38972,0.97783 0.26453,0.23619 0.62826,0.35429 1.0912,0.35429 0.70857,0 1.32739,-0.25273 1.85647,-0.75818 0.52906,-0.51017 0.87862,-1.1904 1.04869,-2.04069 l 0.0567,-0.29051"
           inkscape:connector-curvature="0" />
        <path
           id="path10577"
           style="font-style:italic;font-weight:normal;font-family:Standard Symbols L;-inkscape-font-specification:Standard Symbols L"
           d="m 311.45321,282.82253 -0.92823,4.78996 -1.31086,0 0.92823,-4.74036 c 0.0425,-0.22202 0.0756,-0.41806 0.0992,-0.58812 0.0236,-0.17005 0.0354,-0.30468 0.0354,-0.40389 -10e-6,-0.39679 -0.12519,-0.7062 -0.37555,-0.92823 -0.25036,-0.22201 -0.59993,-0.33302 -1.04869,-0.33303 -0.69913,1e-5 -1.30141,0.23384 -1.80686,0.70149 -0.50545,0.46294 -0.83612,1.09357 -0.992,1.89189 l -0.87155,4.40025 -1.30378,0 1.53761,-7.93603 1.30378,0 -0.26218,1.24709 c 0.36374,-0.45821 0.80069,-0.81249 1.31087,-1.06286 0.51016,-0.25036 1.04632,-0.37554 1.60846,-0.37555 0.69912,10e-6 1.24,0.18896 1.62263,0.56686 0.38735,0.37791 0.58103,0.90934 0.58104,1.59429 -1e-5,0.17007 -0.0118,0.35193 -0.0354,0.54561 -0.0189,0.19368 -0.0496,0.40389 -0.0921,0.63063"
           inkscape:connector-curvature="0" />
        <path
           id="path10579"
           style="font-style:italic;font-weight:normal;font-family:Standard Symbols L;-inkscape-font-specification:Standard Symbols L"
           d="m 321.23154,279.67646 -1.35338,6.95111 c -0.25982,1.34629 -0.75818,2.3501 -1.49509,3.01144 -0.7322,0.66133 -1.71948,0.992 -2.96184,0.992 -0.45822,0 -0.88336,-0.0354 -1.27544,-0.10628 -0.39207,-0.0661 -0.75817,-0.17006 -1.09829,-0.31177 l 0.24092,-1.26835 c 0.32122,0.20784 0.66133,0.36137 1.02035,0.46057 0.35901,0.0992 0.74163,0.1488 1.14789,0.1488 0.82666,0 1.50453,-0.22674 2.0336,-0.68023 0.53379,-0.44876 0.88572,-1.09593 1.05578,-1.94149 l 0.11337,-0.59521 c -0.36374,0.4157 -0.78652,0.7322 -1.26835,0.94949 -0.48183,0.2173 -1.00145,0.32595 -1.55886,0.32595 -0.80305,0 -1.43604,-0.26454 -1.89898,-0.79361 -0.45821,-0.53379 -0.68732,-1.26598 -0.68731,-2.19658 -10e-6,-0.73218 0.13935,-1.44784 0.41805,-2.14698 0.27871,-0.70384 0.67079,-1.32738 1.17624,-1.87063 0.33539,-0.359 0.7251,-0.63535 1.16914,-0.82903 0.44876,-0.19367 0.91642,-0.29051 1.40298,-0.29052 0.53379,10e-6 0.99909,0.12519 1.39589,0.37555 0.3968,0.24564 0.69204,0.59521 0.88572,1.04869 l 0.22674,-1.23292 1.31087,0 m -1.96275,2.91224 c -1e-5,-0.64244 -0.15117,-1.13844 -0.45349,-1.48801 -0.30233,-0.34956 -0.7322,-0.52434 -1.28961,-0.52434 -0.34484,0 -0.67315,0.0685 -0.98491,0.20548 -0.31178,0.137 -0.57868,0.32832 -0.80069,0.57395 -0.35902,0.40625 -0.64008,0.88572 -0.84321,1.4384 -0.1984,0.54797 -0.2976,1.11483 -0.2976,1.70058 0,0.65189 0.15116,1.15262 0.45349,1.50218 0.30705,0.34956 0.74636,0.52434 1.31795,0.52434 0.82666,0 1.51634,-0.37318 2.06903,-1.11954 0.55269,-0.75109 0.82903,-1.68877 0.82904,-2.81304"
           inkscape:connector-curvature="0" />
        <path
           id="path10581"
           style="font-style:italic;font-weight:normal;font-family:Standard Symbols L;-inkscape-font-specification:Standard Symbols L"
           d="m 324.44846,276.58707 1.30378,0 -2.14698,11.02542 -1.30378,0 2.14698,-11.02542"
           inkscape:connector-curvature="0" />
        <path
           id="path10583"
           style="font-style:italic;font-weight:normal;font-family:Standard Symbols L;-inkscape-font-specification:Standard Symbols L"
           d="m 332.79547,282.9359 c 0.0142,-0.0756 0.0236,-0.15352 0.0283,-0.23383 0.009,-0.0803 0.0142,-0.16061 0.0142,-0.24092 -10e-6,-0.5763 -0.17006,-1.03215 -0.51017,-1.36754 -0.3354,-0.33539 -0.79361,-0.50309 -1.37464,-0.50309 -0.64716,0 -1.21875,0.20549 -1.71475,0.61646 -0.496,0.40625 -0.87154,0.98492 -1.12663,1.736 l 4.68368,-0.007 m 1.13372,1.02034 -6.0654,0 c -0.0283,0.17951 -0.0472,0.32123 -0.0567,0.42515 -0.009,0.10393 -0.0142,0.19368 -0.0142,0.26926 0,0.65661 0.20076,1.16442 0.60229,1.52343 0.40625,0.35901 0.97783,0.53852 1.71475,0.53852 0.56686,0 1.10301,-0.0638 1.60846,-0.19132 0.50545,-0.12754 0.97547,-0.31413 1.41007,-0.55977 l -0.248,1.2896 c -0.46767,0.18896 -0.95186,0.33067 -1.45258,0.42515 -0.49601,0.0945 -1.00146,0.14171 -1.51635,0.14171 -1.10065,0 -1.94858,-0.26217 -2.54378,-0.78651 -0.59048,-0.52907 -0.88572,-1.2778 -0.88572,-2.24618 0,-0.82667 0.14644,-1.59429 0.43932,-2.30287 0.2976,-0.71329 0.73219,-1.34865 1.30377,-1.90606 0.36846,-0.34956 0.80541,-0.61882 1.31087,-0.80778 0.51017,-0.18894 1.05104,-0.28342 1.62263,-0.28343 0.89752,10e-6 1.61082,0.26927 2.13989,0.80778 0.53379,0.53852 0.80069,1.26126 0.80069,2.16823 0,0.2173 -0.0142,0.45113 -0.0425,0.70149 -0.0283,0.24565 -0.0709,0.51018 -0.12754,0.7936"
           inkscape:connector-curvature="0" />
      </g>
      <path
         sodipodi:nodetypes="cc"
         inkscape:connector-curvature="0"
         id="path3992-4-77-9-5-7-1-2-3-0-9-3"
         d="m 173.36008,321.453 c 18.5426,-5.6434 52.403,-8.8682 72.558,-0.8062"
         style="fill:none;stroke:#dba981;stroke-width:1.20043182;stroke-linecap:round;stroke-linejoin:miter;stroke-miterlimit:4;stroke-opacity:1;stroke-dasharray:3.6012954, 1.2004318;stroke-dashoffset:0" />
      <path
         sodipodi:nodetypes="cc"
         inkscape:connector-curvature="0"
         id="path3992-4-77-9-5-7-1-2-3-2-3-0-0"
         d="m 122.56948,421.4218 177.364,0.8062"
         style="fill:none;stroke:#dba981;stroke-width:1.20043182;stroke-linecap:round;stroke-linejoin:miter;stroke-miterlimit:4;stroke-opacity:1;stroke-dasharray:3.6012954, 1.2004318;stroke-dashoffset:0" />
      <path
         sodipodi:nodetypes="cc"
         inkscape:connector-curvature="0"
         id="path3992-4-77-9-5-7-1-2-3-2-1-2-8-3"
         d="m 127.40668,436.7396 166.0772,-0.8062"
         style="fill:none;stroke:#dba981;stroke-width:1.20043182;stroke-linecap:round;stroke-linejoin:miter;stroke-miterlimit:4;stroke-opacity:1;stroke-dasharray:3.6012954, 1.2004318;stroke-dashoffset:0" />
      <path
         style="fill:none;stroke:#dba981;stroke-width:1.20043182;stroke-linecap:round;stroke-linejoin:miter;stroke-miterlimit:4;stroke-opacity:1;stroke-dasharray:3.6012954, 1.2004318;stroke-dashoffset:0"
         d="m 128.21288,458.507 160.4338,0"
         id="path3992-4-77-9-5-7-1-2-3-2-1-2-8-2-7"
         inkscape:connector-curvature="0"
         sodipodi:nodetypes="cc" />
      <g
         id="text6934-3-2-9"
         style="font-size:17.48647881px;font-style:normal;font-variant:normal;font-weight:normal;font-stretch:normal;text-align:start;line-height:125%;letter-spacing:0px;word-spacing:0px;writing-mode:lr-tb;text-anchor:start;fill:#000000;fill-opacity:1;stroke:none;font-family:Standard Symbols L;-inkscape-font-specification:Standard Symbols L">
        <path
           id="path10566"
           d="m 192.53265,269.8643 0,4.67046 2.76641,0 c 0.92783,0 1.61374,-0.19069 2.05774,-0.57207 0.44967,-0.38707 0.67452,-0.97621 0.67453,-1.76743 -1e-5,-0.79691 -0.22486,-1.38321 -0.67453,-1.7589 -0.444,-0.38137 -1.12991,-0.57206 -2.05774,-0.57206 l -2.76641,0 m 0,-5.24253 0,3.84224 2.55296,0 c 0.84244,1e-5 1.46858,-0.15653 1.87843,-0.46961 0.41552,-0.31875 0.62328,-0.80259 0.62329,-1.45151 -1e-5,-0.64321 -0.20777,-1.1242 -0.62329,-1.44298 -0.40985,-0.31875 -1.03599,-0.47813 -1.87843,-0.47814 l -2.55296,0 m -1.72474,-1.41736 4.40577,0 c 1.31489,1e-5 2.32811,0.27324 3.03964,0.81968 0.71152,0.54646 1.06728,1.32345 1.06729,2.33096 -10e-6,0.77984 -0.18216,1.40029 -0.54645,1.86135 -0.36431,0.46108 -0.89938,0.74853 -1.6052,0.86237 0.84813,0.18216 1.50558,0.56354 1.97235,1.14414 0.47244,0.57491 0.70867,1.29498 0.70868,2.16019 -1e-5,1.13845 -0.38708,2.01789 -1.16121,2.63834 -0.77415,0.62045 -1.8756,0.93068 -3.30433,0.93068 l -4.57654,0 0,-12.74771"
           inkscape:connector-curvature="0" />
        <path
           id="path10568"
           d="m 207.07341,271.14504 c -1.26937,1e-5 -2.14882,0.14516 -2.63834,0.43546 -0.48954,0.29031 -0.7343,0.78553 -0.7343,1.48567 0,0.55784 0.18215,1.00183 0.54645,1.33197 0.36999,0.32446 0.87091,0.48669 1.50275,0.48669 0.8709,0 1.5682,-0.30738 2.09189,-0.92214 0.52936,-0.62045 0.79405,-1.44297 0.79406,-2.46757 l 0,-0.35008 -1.56251,0 m 3.13356,-0.64891 0,5.45599 -1.57105,0 0,-1.45152 c -0.35862,0.58061 -0.80546,1.01037 -1.34052,1.28929 -0.53507,0.27323 -1.18967,0.40984 -1.96381,0.40984 -0.97906,0 -1.7589,-0.27323 -2.3395,-0.81968 -0.57492,-0.55214 -0.86237,-1.28928 -0.86237,-2.21142 0,-1.07583 0.35861,-1.88697 1.07583,-2.43343 0.72291,-0.54644 1.79873,-0.81967 3.22748,-0.81967 l 2.20289,0 0,-0.15369 c -1e-5,-0.72291 -0.23908,-1.28074 -0.71722,-1.67351 -0.47246,-0.39845 -1.13845,-0.59768 -1.99797,-0.59769 -0.54645,1e-5 -1.07867,0.0655 -1.59666,0.19638 -0.518,0.13093 -1.01606,0.32731 -1.49421,0.58915 l 0,-1.45152 c 0.57491,-0.22198 1.13275,-0.38706 1.67351,-0.49522 0.54076,-0.11383 1.06729,-0.17076 1.57959,-0.17076 1.3832,0 2.41634,0.35861 3.09941,1.07582 0.68306,0.71723 1.02459,1.80444 1.0246,3.26164"
           inkscape:connector-curvature="0" />
        <path
           id="path10570"
           d="m 220.33342,266.75635 0,1.46859 c -0.444,-0.24476 -0.89084,-0.42691 -1.34052,-0.54645 -0.444,-0.12522 -0.89368,-0.18784 -1.34905,-0.18785 -1.01892,1e-5 -1.81013,0.32447 -2.37366,0.97337 -0.56353,0.64323 -0.84529,1.54829 -0.84529,2.71519 0,1.1669 0.28176,2.07481 0.84529,2.72372 0.56353,0.64322 1.35474,0.96483 2.37366,0.96483 0.45537,0 0.90505,-0.0598 1.34905,-0.1793 0.44968,-0.12523 0.89652,-0.31023 1.34052,-0.55499 l 0,1.45151 c -0.43831,0.20492 -0.89369,0.35861 -1.36614,0.46107 -0.46676,0.10246 -0.96483,0.15369 -1.4942,0.15369 -1.44014,0 -2.58427,-0.45253 -3.43241,-1.35759 -0.84814,-0.90506 -1.27221,-2.12604 -1.27221,-3.66294 0,-1.55966 0.42692,-2.78633 1.28075,-3.68002 0.85952,-0.89367 2.03496,-1.34051 3.52633,-1.34051 0.48383,0 0.95628,0.0512 1.41736,0.15368 0.46106,0.0968 0.9079,0.24478 1.34052,0.444"
           inkscape:connector-curvature="0" />
        <path
           id="path10572"
           d="m 223.02299,262.66649 1.57959,0 0,7.84672 4.68753,-4.12401 2.00651,0 -5.07176,4.47408 5.28522,5.08884 -2.0492,0 -4.8583,-4.67046 0,4.67046 -1.57959,0 0,-13.28563"
           inkscape:connector-curvature="0" />
      </g>
    </g>
  </g>
</svg>
