<?xml version="1.0" encoding="UTF-8" standalone="no"?>
<!-- Created with Inkscape (http://www.inkscape.org/) -->

<svg
   xmlns:dc="http://purl.org/dc/elements/1.1/"
   xmlns:cc="http://creativecommons.org/ns#"
   xmlns:rdf="http://www.w3.org/1999/02/22-rdf-syntax-ns#"
   xmlns:svg="http://www.w3.org/2000/svg"
   xmlns="http://www.w3.org/2000/svg"
   xmlns:sodipodi="http://sodipodi.sourceforge.net/DTD/sodipodi-0.dtd"
   xmlns:inkscape="http://www.inkscape.org/namespaces/inkscape"
   width="169.81744"
   height="218.20702"
   id="svg10663"
   version="1.1"
   inkscape:version="0.48.4 r9939"
   sodipodi:docname="Новий документ 105">
  <defs
     id="defs10665" />
  <sodipodi:namedview
     id="base"
     pagecolor="#ffffff"
     bordercolor="#666666"
     borderopacity="1.0"
     inkscape:pageopacity="0.0"
     inkscape:pageshadow="2"
     inkscape:zoom="1.979899"
     inkscape:cx="152.54124"
     inkscape:cy="218.5906"
     inkscape:document-units="px"
     inkscape:current-layer="layer1"
     showgrid="false"
     fit-margin-top="0"
     fit-margin-left="0"
     fit-margin-right="0"
     fit-margin-bottom="0"
     inkscape:window-width="1855"
     inkscape:window-height="1056"
     inkscape:window-x="65"
     inkscape:window-y="24"
     inkscape:window-maximized="1" />
  <metadata
     id="metadata10668">
    <rdf:RDF>
      <cc:Work
         rdf:about="">
        <dc:format>image/svg+xml</dc:format>
        <dc:type
           rdf:resource="http://purl.org/dc/dcmitype/StillImage" />
        <dc:title></dc:title>
      </cc:Work>
    </rdf:RDF>
  </metadata>
  <g
     inkscape:label="Layer 1"
     inkscape:groupmode="layer"
     id="layer1"
     transform="translate(-115.09124,-228.97294)">
    <g
       id="g10750">
      <path
         style="fill:none;stroke:#dba981;stroke-width:2.5;stroke-linecap:round;stroke-linejoin:miter;stroke-miterlimit:4;stroke-opacity:1;stroke-dasharray:7.5, 7.5;stroke-dashoffset:0;display:inline"
         d="m 180.2231,267.68 35,0"
         id="path8471-6-6-6-8-7-8-3-3-9-3-9-1-0-2-9-3-0-4-0-2-4"
         inkscape:connector-curvature="0"
         sodipodi:nodetypes="cc" />
      <path
         style="fill:none;stroke:#dba981;stroke-width:1.20039999;stroke-linecap:round;stroke-linejoin:miter;stroke-miterlimit:4;stroke-opacity:1;stroke-dasharray:3.6013, 1.2004;stroke-dashoffset:0;display:inline"
         d="m 139.2231,412.68 119,0"
         id="path8471-6-6-6-8-7-8-3-3-9-3-9-1-3-3-4-6-5-0-7-5-0"
         inkscape:connector-curvature="0"
         sodipodi:nodetypes="cc" />
      <path
         sodipodi:nodetypes="cc"
         inkscape:connector-curvature="0"
         id="path8471-6-6-6-8-7-8-3-3-9-3-9-1-3-3-4-6-5-0-7-9"
         d="m 132.2231,385.68 133,0"
         style="fill:none;stroke:#dba981;stroke-width:1.20039999;stroke-linecap:round;stroke-linejoin:miter;stroke-miterlimit:4;stroke-opacity:1;stroke-dasharray:3.6013, 1.2004;stroke-dashoffset:0" />
      <path
         sodipodi:nodetypes="cc"
         inkscape:connector-curvature="0"
         id="path8471-6-6-6-8-7-8-3-3-9-3-9-1-0-2-9-3-0-4-0-8"
         d="m 128.2231,354.68 142,0"
         style="fill:none;stroke:#dba981;stroke-width:1.20039999;stroke-linecap:round;stroke-linejoin:miter;stroke-miterlimit:4;stroke-opacity:1;stroke-dasharray:3.6013, 1.2004;stroke-dashoffset:0" />
      <path
         style="fill:none;stroke:#dba981;stroke-width:1.20039999;stroke-linecap:round;stroke-linejoin:miter;stroke-miterlimit:4;stroke-opacity:1;stroke-dasharray:3.6013, 1.2004;stroke-dashoffset:0"
         d="m 170.2231,272.68 c 12,-6 46,-7 58,1"
         id="path3992-4-77-9-5-7-1-0-3-9-9-0-7-8-2-2-3"
         inkscape:connector-curvature="0"
         sodipodi:nodetypes="cc" />
      <path
         style="fill:none;stroke:#dba981;stroke-width:2.9999001;stroke-linecap:round;stroke-linejoin:miter;stroke-miterlimit:4;stroke-opacity:1;stroke-dasharray:none"
         d="m 271.2231,354.68 c -16,-20 -8,-41 0,-64"
         id="path8584-0-8-6-3-5-9-1-8-8-0-5-1-2"
         inkscape:connector-curvature="0"
         sodipodi:nodetypes="cc" />
      <path
         style="fill:none;stroke:#dba981;stroke-width:2.9999001;stroke-linecap:round;stroke-linejoin:miter;stroke-miterlimit:4;stroke-opacity:1;stroke-dasharray:none"
         d="m 128.2231,354.68 c 13,-19 11,-37 -2,-64"
         id="path8584-6-5-3-6-1-2-7-3-1-8-7-6-8-4"
         inkscape:connector-curvature="0"
         sodipodi:nodetypes="cc" />
      <path
         style="fill:none;stroke:#dba981;stroke-width:2.9999001;stroke-linecap:round;stroke-linejoin:miter;stroke-miterlimit:4;stroke-opacity:1;stroke-dasharray:none"
         d="m 145.2231,445.68 c -3,-18 -5,-31 -9,-48 -3,-12 -2,-24 -6,-36 -10,-20 -21,-49 -7,-69 7,-9 28,-8 44,-18 7,-5 6,-15 5,-23 23,-7 31,-8 54,0 -1,8 -2,19 5,24 16,9 37,8 44,17 18,24 2,49 -7,70 -4,11 -4,23 -7,35 -3,17 -6,31 -9,47"
         id="path11142-0-5-6-7-5-6-6-2-2"
         inkscape:connector-curvature="0"
         sodipodi:nodetypes="cccccccccccc" />
      <path
         sodipodi:nodetypes="cc"
         inkscape:connector-curvature="0"
         id="path8471-6-6-6-8-7-8-3-3-9-1-2-5-4-2-0-8-1-2"
         d="m 147.2231,444.68 105,0"
         style="fill:none;stroke:#dba981;stroke-width:1.20039999;stroke-linecap:round;stroke-linejoin:miter;stroke-miterlimit:4;stroke-opacity:1;stroke-dasharray:3.6013, 1.2004;stroke-dashoffset:0" />
      <g
         id="text6934-6-9-7-0-3-1-4-9-8-3"
         style="font-size:14.51159954px;font-style:normal;font-variant:normal;font-weight:normal;font-stretch:normal;text-align:start;line-height:125%;letter-spacing:0px;word-spacing:0px;writing-mode:lr-tb;text-anchor:start;fill:#000000;fill-opacity:1;stroke:none;font-family:Standard Symbols L;-inkscape-font-specification:Standard Symbols L">
        <path
           id="path10742"
           d="m 184.42765,234.94622 0,3.8759 2.29578,0 c 0.76998,0 1.3392,-0.15825 1.70767,-0.47475 0.37317,-0.32121 0.55976,-0.81013 0.55977,-1.46674 -1e-5,-0.66134 -0.1866,-1.14789 -0.55977,-1.45967 -0.36847,-0.31649 -0.93769,-0.47474 -1.70767,-0.47474 l -2.29578,0 m 0,-4.35065 0,3.18859 2.11864,0 c 0.69912,0 1.21874,-0.1299 1.55886,-0.38972 0.34483,-0.26453 0.51725,-0.66605 0.51726,-1.20458 -1e-5,-0.53378 -0.17243,-0.93294 -0.51726,-1.19749 -0.34012,-0.26452 -0.85974,-0.39679 -1.55886,-0.3968 l -2.11864,0 m -1.43132,-1.17623 3.65624,0 c 1.0912,1e-5 1.93204,0.22675 2.52253,0.68023 0.59047,0.4535 0.88571,1.0983 0.88572,1.93441 -1e-5,0.64717 -0.15117,1.16207 -0.45349,1.54469 -0.30233,0.38264 -0.74637,0.62119 -1.33212,0.71566 0.70384,0.15117 1.24944,0.46766 1.63681,0.94949 0.39207,0.47711 0.5881,1.07467 0.58811,1.79269 -1e-5,0.94477 -0.32123,1.6746 -0.96366,2.1895 -0.64245,0.51489 -1.55651,0.77234 -2.74218,0.77234 l -3.79796,0 0,-10.57901"
           inkscape:connector-curvature="0" />
        <path
           id="path10744"
           d="m 196.49467,236.00908 c -1.05342,0 -1.78325,0.12046 -2.18949,0.36137 -0.40626,0.24092 -0.60938,0.65189 -0.60938,1.23292 0,0.46294 0.15116,0.8314 0.45349,1.10538 0.30705,0.26926 0.72274,0.40389 1.24709,0.40388 0.72274,1e-5 1.30141,-0.25508 1.73601,-0.76526 0.43931,-0.51489 0.65896,-1.19748 0.65897,-2.04778 l 0,-0.29051 -1.29669,0 m 2.60047,-0.53852 0,4.52779 -1.30378,0 0,-1.20457 c -0.29761,0.48183 -0.66843,0.83848 -1.11246,1.06994 -0.44405,0.22675 -0.98728,0.34012 -1.62972,0.34012 -0.8125,0 -1.45967,-0.22675 -1.94149,-0.68023 -0.47711,-0.45821 -0.71567,-1.06995 -0.71566,-1.83521 -1e-5,-0.8928 0.2976,-1.56594 0.8928,-2.01944 0.59992,-0.45348 1.49273,-0.68022 2.67841,-0.68023 l 1.82812,0 0,-0.12754 c -1e-5,-0.59992 -0.19841,-1.06286 -0.5952,-1.38881 -0.39208,-0.33066 -0.94477,-0.49599 -1.65807,-0.496 -0.45349,1e-5 -0.89516,0.0543 -1.32503,0.16297 -0.42987,0.10866 -0.8432,0.27163 -1.24,0.48892 l 0,-1.20458 c 0.4771,-0.18422 0.94004,-0.32121 1.3888,-0.41097 0.44876,-0.0945 0.88572,-0.14171 1.31086,-0.14171 1.14789,0 2.00526,0.29761 2.57213,0.8928 0.56685,0.59521 0.85028,1.49746 0.85029,2.70675"
           inkscape:connector-curvature="0" />
        <path
           id="path10746"
           d="m 207.49883,232.36701 0,1.21875 c -0.36847,-0.20312 -0.73929,-0.35428 -1.11247,-0.45349 -0.36846,-0.10392 -0.74164,-0.15588 -1.11954,-0.15589 -0.84557,1e-5 -1.50218,0.26927 -1.96984,0.80778 -0.46766,0.53379 -0.70149,1.28488 -0.70149,2.25326 0,0.96839 0.23383,1.72184 0.70149,2.26035 0.46766,0.5338 1.12427,0.80069 1.96984,0.80069 0.3779,0 0.75108,-0.0496 1.11954,-0.1488 0.37318,-0.10392 0.744,-0.25745 1.11247,-0.46057 l 0,1.20458 c -0.36375,0.17005 -0.74165,0.2976 -1.13372,0.38263 -0.38736,0.085 -0.8007,0.12754 -1.24001,0.12754 -1.19513,0 -2.14462,-0.37555 -2.84847,-1.12663 -0.70385,-0.75109 -1.05577,-1.76435 -1.05577,-3.03979 0,-1.29432 0.35428,-2.31231 1.06286,-3.05395 0.7133,-0.74164 1.68876,-1.11246 2.92641,-1.11246 0.40152,0 0.7936,0.0425 1.17623,0.12754 0.38263,0.0803 0.75345,0.20313 1.11247,0.36846"
           inkscape:connector-curvature="0" />
        <path
           id="path10748"
           d="m 209.73084,228.97294 1.31086,0 0,6.51179 3.89007,-3.42241 1.66515,0 -4.20893,3.71293 4.38607,4.2231 -1.70057,0 -4.03179,-3.8759 0,3.8759 -1.31086,0 0,-11.02541"
           inkscape:connector-curvature="0" />
      </g>
      <path
         style="fill:none;stroke:#dba981;stroke-width:1.20039999;stroke-linecap:round;stroke-linejoin:miter;stroke-miterlimit:4;stroke-opacity:1;stroke-dasharray:3.6013, 1.2004;stroke-dashoffset:0"
         d="m 132.2231,366.68 133,0"
         id="path8471-6-6-6-8-7-8-3-3-9-3-9-1-5-9-7-0-5-8-6"
         inkscape:connector-curvature="0"
         sodipodi:nodetypes="cc" />
      <path
         style="fill:none;stroke:#000000;stroke-width:2.41880012;stroke-linecap:round;stroke-linejoin:round;stroke-miterlimit:4;stroke-opacity:1;stroke-dasharray:none;marker-start:url(#marker7359);marker-end:url(#marker7359)"
         d="m 200.2231,321.68 0,-54"
         id="path7494-1-6-3-5-81-64-9-2-0-5-7-3-2-4-0-9-7-74-7-8-7"
         inkscape:connector-curvature="0"
         sodipodi:nodetypes="cc" />
      <path
         style="fill:none;stroke:#7dc832;stroke-width:3.22480011;stroke-linecap:round;stroke-linejoin:round;stroke-miterlimit:4;stroke-opacity:1;stroke-dasharray:none;marker-start:url(#marker7359);marker-end:url(#marker7359);display:inline"
         d="m 200.2231,443.68 0,-122"
         id="path7494-1-6-3-5-81-64-9-2-0-5-7-3-2-4-0-9-7-74-8-2-9"
         inkscape:connector-curvature="0"
         sodipodi:nodetypes="cc" />
      <path
         sodipodi:type="arc"
         style="color:#000000;fill:#ffffff;fill-opacity:1;fill-rule:nonzero;stroke:#000000;stroke-width:1.5;stroke-linecap:round;stroke-linejoin:round;stroke-miterlimit:4;stroke-opacity:1;stroke-dasharray:none;stroke-dashoffset:0;marker:none;visibility:visible;display:inline;overflow:visible;enable-background:accumulate"
         id="path19730-2-9-1-7-8-7-3-4"
         sodipodi:cx="406"
         sodipodi:cy="2776"
         sodipodi:rx="15"
         sodipodi:ry="15"
         d="m 421,2776 c 0,8.2843 -6.71573,15 -15,15 -8.28427,0 -15,-6.7157 -15,-15 0,-8.2843 6.71573,-15 15,-15 8.25391,0 14.957,6.6684 14.9998,14.9222"
         sodipodi:start="0"
         sodipodi:end="6.278"
         sodipodi:open="true"
         transform="matrix(0.8062,0,0,0.8062,-126.7769,-1870.32)" />
      <text
         sodipodi:linespacing="125%"
         id="text8512-9-6-3-7-2-5-4-7-0-8-4"
         y="372.40826"
         x="193.34981"
         style="font-size:14.51159954px;font-style:normal;font-variant:normal;font-weight:normal;font-stretch:normal;text-align:start;line-height:125%;letter-spacing:0px;word-spacing:0px;writing-mode:lr-tb;text-anchor:start;fill:#000000;fill-opacity:1;stroke:none;font-family:Standard Symbols L;-inkscape-font-specification:Standard Symbols L"
         xml:space="preserve"><tspan
           y="372.40826"
           x="193.34981"
           id="tspan8514-9-9-1-0-8-3-6-6-4-7-0"
           sodipodi:role="line">42</tspan></text>
      <path
         sodipodi:nodetypes="cc"
         inkscape:connector-curvature="0"
         id="path8471-6-6-6-8-7-8-3-3-9-3-9-1-0-2-9-3-0-4-0-8-7"
         d="m 137.2231,321.68 123,0"
         style="fill:none;stroke:#dba981;stroke-width:1.20039999;stroke-linecap:round;stroke-linejoin:miter;stroke-miterlimit:4;stroke-opacity:1;stroke-dasharray:3.6013, 1.2004;stroke-dashoffset:0;display:inline" />
      <path
         sodipodi:type="arc"
         style="color:#000000;fill:#ffffff;fill-opacity:1;fill-rule:nonzero;stroke:#000000;stroke-width:1.5;stroke-linecap:round;stroke-linejoin:round;stroke-miterlimit:4;stroke-opacity:1;stroke-dasharray:none;stroke-dashoffset:0;marker:none;visibility:visible;display:inline;overflow:visible;enable-background:accumulate"
         id="path19730-2-9-1-7-8-7-3-4-3"
         sodipodi:cx="406"
         sodipodi:cy="2776"
         sodipodi:rx="15"
         sodipodi:ry="15"
         d="m 421,2776 c 0,8.2843 -6.71573,15 -15,15 -8.28427,0 -15,-6.7157 -15,-15 0,-8.2843 6.71573,-15 15,-15 8.25391,0 14.957,6.6684 14.9998,14.9222"
         sodipodi:start="0"
         sodipodi:end="6.278"
         sodipodi:open="true"
         transform="matrix(0.8062,0,0,0.8062,-126.7769,-1948.32)" />
      <text
         sodipodi:linespacing="125%"
         id="text8512-9-6-3-7-2-5-4-7-0-8-4-8"
         y="293.9295"
         x="193.96651"
         style="font-size:14.51159954px;font-style:normal;font-variant:normal;font-weight:normal;font-stretch:normal;text-align:start;line-height:125%;letter-spacing:0px;word-spacing:0px;writing-mode:lr-tb;text-anchor:start;fill:#000000;fill-opacity:1;stroke:none;display:inline;font-family:Standard Symbols L;-inkscape-font-specification:Standard Symbols L"
         xml:space="preserve"><tspan
           y="293.9295"
           x="193.96651"
           id="tspan8514-9-9-1-0-8-3-6-6-4-7-0-0"
           sodipodi:role="line">41</tspan></text>
    </g>
  </g>
</svg>
