<?xml version="1.0" encoding="UTF-8" standalone="no"?>
<!-- Created with Inkscape (http://www.inkscape.org/) -->

<svg
   xmlns:dc="http://purl.org/dc/elements/1.1/"
   xmlns:cc="http://creativecommons.org/ns#"
   xmlns:rdf="http://www.w3.org/1999/02/22-rdf-syntax-ns#"
   xmlns:svg="http://www.w3.org/2000/svg"
   xmlns="http://www.w3.org/2000/svg"
   xmlns:sodipodi="http://sodipodi.sourceforge.net/DTD/sodipodi-0.dtd"
   xmlns:inkscape="http://www.inkscape.org/namespaces/inkscape"
   width="164.48822"
   height="216.55148"
   id="svg8164"
   version="1.1"
   inkscape:version="0.48.4 r9939"
   sodipodi:docname="Новий документ 72">
  <defs
     id="defs8166" />
  <sodipodi:namedview
     id="base"
     pagecolor="#ffffff"
     bordercolor="#666666"
     borderopacity="1.0"
     inkscape:pageopacity="0.0"
     inkscape:pageshadow="2"
     inkscape:zoom="0.35"
     inkscape:cx="271.52479"
     inkscape:cy="-34.577308"
     inkscape:document-units="px"
     inkscape:current-layer="layer1"
     showgrid="false"
     fit-margin-top="0"
     fit-margin-left="0"
     fit-margin-right="0"
     fit-margin-bottom="0"
     inkscape:window-width="1855"
     inkscape:window-height="1056"
     inkscape:window-x="65"
     inkscape:window-y="24"
     inkscape:window-maximized="1" />
  <metadata
     id="metadata8169">
    <rdf:RDF>
      <cc:Work
         rdf:about="">
        <dc:format>image/svg+xml</dc:format>
        <dc:type
           rdf:resource="http://purl.org/dc/dcmitype/StillImage" />
        <dc:title></dc:title>
      </cc:Work>
    </rdf:RDF>
  </metadata>
  <g
     inkscape:label="Layer 1"
     inkscape:groupmode="layer"
     id="layer1"
     transform="translate(-103.47521,-281.23339)">
    <g
       style="display:inline"
       id="g9565"
       transform="matrix(0.8062,0,0,0.8062,-290.7062,-1145.7546)">
      <path
         style="fill:none;stroke:#dba981;stroke-width:1.48899996;stroke-linecap:round;stroke-linejoin:miter;stroke-miterlimit:4;stroke-opacity:1;stroke-dasharray:4.467, 1.489;stroke-dashoffset:0"
         d="m 511.2,1964 6.8,-2 29.4,-1 48.8,3 52.1,5"
         id="path3874-7-8-0-3"
         inkscape:connector-curvature="0"
         sodipodi:nodetypes="ccccc" />
      <path
         style="fill:none;stroke:#dba981;stroke-width:1.48899996;stroke-linecap:round;stroke-linejoin:miter;stroke-miterlimit:4;stroke-opacity:1;stroke-dasharray:4.467, 1.489;stroke-dashoffset:0"
         d="m 496.5,1898 c 0,0 10,-7 15.8,-9 6.1,-2 12.8,-2 19.2,-2 9.5,0 28.4,3 28.4,3 9.1,-3 34.9,-2 46.2,2 21.5,6 39.9,22 53.5,23"
         id="path3868-7-7-4-4"
         inkscape:connector-curvature="0"
         sodipodi:nodetypes="caacsc" />
      <path
         style="fill:none;stroke:#dba981;stroke-width:1.48899996;stroke-linecap:round;stroke-linejoin:miter;stroke-miterlimit:4;stroke-opacity:1;stroke-dasharray:4.467, 1.489;stroke-dashoffset:0"
         d="m 542.9,1802 c -7.9,19 57.8,23 71.4,-2"
         id="path3876-91-29-8-7"
         inkscape:connector-curvature="0"
         sodipodi:nodetypes="cc" />
      <path
         style="fill:none;stroke:#dba981;stroke-width:1.48899996;stroke-linecap:round;stroke-linejoin:miter;stroke-miterlimit:4;stroke-opacity:1;stroke-dasharray:4.467, 1.489;stroke-dashoffset:0"
         d="m 514.6,2033 c 28.3,5 95.2,9 131.4,-3"
         id="path3878-7-1-40-0"
         inkscape:connector-curvature="0"
         sodipodi:nodetypes="cc" />
      <path
         style="fill:none;stroke:#dba981;stroke-width:1.48899996;stroke-linecap:round;stroke-linejoin:miter;stroke-miterlimit:4;stroke-opacity:1;stroke-dasharray:4.467, 1.489;stroke-dashoffset:0"
         d="m 491.9,1916 c 0,0 10,-2 15.1,-2 15.2,0 33.7,3 45.1,7 14.7,-6 24.7,-8 38.3,-8 29.5,0 48.8,12 66.9,17"
         id="path3872-1-8-9-0"
         inkscape:connector-curvature="0"
         sodipodi:nodetypes="cacsc" />
      <path
         sodipodi:nodetypes="csc"
         inkscape:connector-curvature="0"
         id="path2993-6-7-5"
         d="m 658.5,1911 c 2.2,4 -6.8,51 -15.9,75 -4.5,13 -6.8,35 -5.6,48"
         style="fill:none;stroke:#dba981;stroke-width:1.48899996;stroke-linecap:round;stroke-linejoin:miter;stroke-miterlimit:4;stroke-opacity:1;stroke-dasharray:4.467, 1.489;stroke-dashoffset:0" />
      <path
         sodipodi:nodetypes="caac"
         inkscape:connector-curvature="0"
         id="path3009-0-7-5"
         d="m 675.5,1819 c -17,4 -21.6,10 -27.2,20 -10.2,18 -20.4,45 -7.9,62 6.7,9 27.1,15 33.9,6"
         style="fill:none;stroke:#dba981;stroke-width:3.72099996;stroke-linecap:round;stroke-linejoin:miter;stroke-miterlimit:4;stroke-opacity:1;stroke-dasharray:none" />
      <path
         sodipodi:nodetypes="csc"
         inkscape:connector-curvature="0"
         id="path3011-2-2-3"
         d="m 548.6,1780 c 0,0 12.4,6 19.2,6 37.4,2 46.5,-10 46.5,-10"
         style="fill:none;stroke:#dba981;stroke-width:3.72099996;stroke-linecap:round;stroke-linejoin:miter;stroke-miterlimit:4;stroke-opacity:1;stroke-dasharray:none" />
      <path
         style="fill:none;stroke:#dba981;stroke-width:1.48899996;stroke-linecap:round;stroke-linejoin:miter;stroke-miterlimit:4;stroke-opacity:1;stroke-dasharray:4.467, 1.489;stroke-dashoffset:0"
         d="m 607.5,1782 c 3.4,12 1.1,11 4.5,14 11.4,14 35.1,19 49.9,23"
         id="path3992-4-9-6-1-0-0-1"
         inkscape:connector-curvature="0"
         sodipodi:nodetypes="cac" />
      <path
         sodipodi:nodetypes="cccscccccccacacccc"
         inkscape:connector-curvature="0"
         id="path15557"
         d="m 512.3,2032 c 2.3,-15 -1.1,-33 -2.2,-48 0,-7 2.2,-12 0,-22 -10.2,-9 -19.3,-30 -19.3,-45 0,-13 9.1,-22 12.5,-37 2.2,-7 -6.8,-17 -9.1,-29 -3.4,-11 0,-24 5.7,-26 11.3,-2 29.4,-10 39.6,-18 9.1,-9 7.9,-27 7.9,-27 0,0 1.2,-6 19.3,-8 17,-1 48.7,4 48.7,4 0,0 -1.1,12 2.3,17 12.5,15 43,18 54.4,23 17,7 15.8,14 18.1,23 4.5,24 -9.1,51 -17,70 -6.8,15 -6.8,33 -11.3,49 -3.4,10 -6.8,19 -10.2,29 -2.3,9 -5.7,32 -4.6,42"
         style="fill:none;stroke:#dba981;stroke-width:3.72099996;stroke-linecap:round;stroke-linejoin:round;stroke-miterlimit:4;stroke-opacity:1;stroke-dasharray:none" />
      <path
         sodipodi:nodetypes="cccc"
         inkscape:connector-curvature="0"
         id="path3874-7-8-0-4-6"
         d="m 513.5,1991 6.8,-1 c 26,-4 50.9,-1 78.1,1 l 40.8,4"
         style="fill:none;stroke:#dba981;stroke-width:1.48899996;stroke-linecap:round;stroke-linejoin:miter;stroke-miterlimit:4;stroke-opacity:1;stroke-dasharray:4.467, 1.489;stroke-dashoffset:0" />
      <path
         style="fill:none;stroke:#000000;stroke-width:3.39899993;stroke-linecap:round;stroke-linejoin:round;stroke-miterlimit:4;stroke-opacity:1;stroke-dasharray:none;marker-start:url(#marker7359);marker-end:url(#marker7359)"
         d="m 554.4,2034 c -6.2,-112 1,-145 16.8,-215"
         id="path7494-1-6-3-5-81-64-9-2-0-5-7-3-2-4-0-9-7-9-10"
         inkscape:connector-curvature="0"
         sodipodi:nodetypes="cc" />
      <path
         sodipodi:nodetypes="csssc"
         inkscape:connector-curvature="0"
         id="path4050-8-0-5-3-4-0-7-3-0-68-5-6-5-9-3-0-9-0-4-8"
         d="m 579.2,1856 c 0,9 -8,16 -15.9,16 -9.1,0 -15.9,-7 -15.9,-16 0,-9 6.8,-16 15.9,-16 7.9,0 14.7,7 15.9,16"
         style="color:#000000;fill:#ffffff;fill-opacity:1;stroke:#00000f;stroke-width:1.5776;stroke-linecap:round;stroke-linejoin:miter;stroke-miterlimit:4;stroke-opacity:0.94120029;stroke-dashoffset:0;marker:none;visibility:visible;display:inline;overflow:visible;enable-background:accumulate" />
      <text
         sodipodi:linespacing="125%"
         id="text8512-9-6-3-7-2-5-4-0-2"
         y="1862.5096"
         x="558.20148"
         style="font-size:20.3939991px;font-style:normal;font-variant:normal;font-weight:normal;font-stretch:normal;text-align:start;line-height:125%;letter-spacing:0px;word-spacing:0px;writing-mode:lr-tb;text-anchor:start;fill:#000000;fill-opacity:1;stroke:none;font-family:Standard Symbols L;-inkscape-font-specification:Standard Symbols L"
         xml:space="preserve"><tspan
           y="1862.5096"
           x="558.20148"
           id="tspan8514-9-9-1-0-8-3-6-0-4"
           sodipodi:role="line">2</tspan></text>
    </g>
  </g>
</svg>
