<?xml version="1.0" encoding="UTF-8" standalone="no"?>
<!-- Created with Inkscape (http://www.inkscape.org/) -->

<svg
   xmlns:dc="http://purl.org/dc/elements/1.1/"
   xmlns:cc="http://creativecommons.org/ns#"
   xmlns:rdf="http://www.w3.org/1999/02/22-rdf-syntax-ns#"
   xmlns:svg="http://www.w3.org/2000/svg"
   xmlns="http://www.w3.org/2000/svg"
   xmlns:sodipodi="http://sodipodi.sourceforge.net/DTD/sodipodi-0.dtd"
   xmlns:inkscape="http://www.inkscape.org/namespaces/inkscape"
   width="169.58434"
   height="216.56548"
   id="svg8368"
   version="1.1"
   inkscape:version="0.48.4 r9939"
   sodipodi:docname="Новий документ 75">
  <defs
     id="defs8370" />
  <sodipodi:namedview
     id="base"
     pagecolor="#ffffff"
     bordercolor="#666666"
     borderopacity="1.0"
     inkscape:pageopacity="0.0"
     inkscape:pageshadow="2"
     inkscape:zoom="1.4"
     inkscape:cx="144.3871"
     inkscape:cy="95.382533"
     inkscape:document-units="px"
     inkscape:current-layer="layer1"
     showgrid="false"
     fit-margin-top="0"
     fit-margin-left="0"
     fit-margin-right="0"
     fit-margin-bottom="0"
     inkscape:window-width="1855"
     inkscape:window-height="1056"
     inkscape:window-x="65"
     inkscape:window-y="24"
     inkscape:window-maximized="1" />
  <metadata
     id="metadata8373">
    <rdf:RDF>
      <cc:Work
         rdf:about="">
        <dc:format>image/svg+xml</dc:format>
        <dc:type
           rdf:resource="http://purl.org/dc/dcmitype/StillImage" />
        <dc:title></dc:title>
      </cc:Work>
    </rdf:RDF>
  </metadata>
  <g
     inkscape:label="Layer 1"
     inkscape:groupmode="layer"
     id="layer1"
     transform="translate(-78.06497,-261.22227)">
    <g
       id="g8481">
      <path
         sodipodi:nodetypes="cc"
         inkscape:connector-curvature="0"
         id="path8279"
         d="m 193.74542,389.2878 14.7,14"
         style="fill:none;stroke:#dba981;stroke-width:0.82749999;stroke-linecap:round;stroke-linejoin:round;stroke-miterlimit:4;stroke-opacity:1;stroke-dasharray:none" />
      <path
         sodipodi:nodetypes="cc"
         inkscape:connector-curvature="0"
         id="path8279-3"
         d="m 208.44542,389.2878 -14.7,14"
         style="fill:none;stroke:#dba981;stroke-width:0.82749999;stroke-linecap:round;stroke-linejoin:round;stroke-miterlimit:4;stroke-opacity:1;stroke-dasharray:none" />
      <path
         sodipodi:nodetypes="cc"
         inkscape:connector-curvature="0"
         id="path3992-4-77-9-5-7-1-2-9-8-5-4-1-4-8-3"
         d="m 107.54542,440.2878 114.6,0"
         style="fill:none;stroke:#dba981;stroke-width:1.20039999;stroke-linecap:round;stroke-linejoin:miter;stroke-miterlimit:4;stroke-opacity:1;stroke-dasharray:3.6013, 1.2004;stroke-dashoffset:0;display:inline" />
      <path
         style="fill:none;stroke:#dba981;stroke-width:2.9999001;stroke-linecap:round;stroke-linejoin:miter;stroke-miterlimit:4;stroke-opacity:1;stroke-dasharray:none"
         d="m 113.14542,476.2878 c 2.4,-16 -5.7,-32 -8.9,-49 -2.4,-10 -1.6,-24 -6.5,-34 -8,-21 -20.1,-50 -6.4,-71 6.4,-8 29.8,-9 46,-18 3.2,-2 4,-7 4.8,-11 0.8,-4 -0.8,-14 -0.8,-14 0,0 15.4,5 23.4,5 7.2,0 20.9,-6 20.9,-6 0,0 -1.6,8 -0.8,12 0.8,4 2.4,10 4.9,12 16.3,9 42.1,12 48.6,21 16.9,24 2.4,49 -6.5,70 -4.8,10 -4.8,24 -6.4,34 -3.3,17 -11.3,33 -8.9,49"
         id="path11116-9-7-3-3"
         inkscape:connector-curvature="0"
         sodipodi:nodetypes="cccccacacaccccc" />
      <path
         sodipodi:nodetypes="cc"
         inkscape:connector-curvature="0"
         id="path8584-1-4-6-3-4-4-4-4-7-8"
         d="m 235.84542,383.2878 c -4.8,-2 -29,6 -3.2,-65"
         style="fill:none;stroke:#dba981;stroke-width:2.9999001;stroke-linecap:round;stroke-linejoin:miter;stroke-miterlimit:4;stroke-opacity:1;stroke-dasharray:none" />
      <path
         sodipodi:nodetypes="cc"
         inkscape:connector-curvature="0"
         id="path8584-6-7-8-0-3-1-3-3-1-1-6"
         d="m 95.34542,382.2878 c 4.1,-1 29.9,6 4.1,-65"
         style="fill:none;stroke:#dba981;stroke-width:2.9999001;stroke-linecap:round;stroke-linejoin:miter;stroke-miterlimit:4;stroke-opacity:1;stroke-dasharray:none" />
      <path
         sodipodi:nodetypes="cc"
         inkscape:connector-curvature="0"
         id="path3992-4-77-9-5-7-1-2-90-1-4"
         d="m 138.94542,303.2878 c 11.2,9 50.8,6 51.6,-1"
         style="fill:none;stroke:#dba981;stroke-width:1.20039999;stroke-linecap:round;stroke-linejoin:miter;stroke-miterlimit:4;stroke-opacity:1;stroke-dasharray:3.6013, 1.2004;stroke-dashoffset:0" />
      <path
         sodipodi:nodetypes="csc"
         inkscape:connector-curvature="0"
         id="path3992-4-77-9-5-7-1-2-9-4-0-3"
         d="m 94.84542,386.2878 c 15.3,0 16.7,-21 70.7,-21 54.6,0 50.2,22 69.5,22"
         style="fill:none;stroke:#dba981;stroke-width:1.20039999;stroke-linecap:round;stroke-linejoin:miter;stroke-miterlimit:4;stroke-opacity:1;stroke-dasharray:3.6013, 1.2004;stroke-dashoffset:0" />
      <path
         sodipodi:nodetypes="cc"
         inkscape:connector-curvature="0"
         id="path3992-4-77-9-5-7-1-2-9-8-5-7-2"
         d="m 101.04542,397.2878 130,0"
         style="fill:none;stroke:#dba981;stroke-width:1.20039999;stroke-linecap:round;stroke-linejoin:miter;stroke-miterlimit:4;stroke-opacity:1;stroke-dasharray:3.6013, 1.2004;stroke-dashoffset:0" />
      <path
         sodipodi:nodetypes="cc"
         inkscape:connector-curvature="0"
         id="path3992-4-77-9-5-7-1-2-9-8-8-6-68-0"
         d="m 113.94542,475.2878 101.8,0"
         style="fill:none;stroke:#dba981;stroke-width:1.20039999;stroke-linecap:round;stroke-linejoin:miter;stroke-miterlimit:4;stroke-opacity:1;stroke-dasharray:3.6013, 1.2004;stroke-dashoffset:0" />
      <path
         style="fill:none;stroke:#dba981;stroke-width:1.20039999;stroke-linecap:round;stroke-linejoin:miter;stroke-miterlimit:4;stroke-opacity:1;stroke-dasharray:3.6013, 1.2004;stroke-dashoffset:0"
         d="m 102.64542,416.2878 124.4,1"
         id="path3992-4-77-9-5-7-1-2-9-8-5-4-1-4-8"
         inkscape:connector-curvature="0"
         sodipodi:nodetypes="cc" />
      <path
         inkscape:connector-curvature="0"
         id="path4864-7"
         d="m 191.34542,303.2878 c 7.5,57 12.3,115 16.3,173"
         style="fill:none;stroke:#000000;stroke-width:2.41860008;stroke-linecap:round;stroke-linejoin:miter;stroke-miterlimit:4;stroke-opacity:1;stroke-dasharray:none"
         sodipodi:nodetypes="cc" />
      <g
         id="text6934-2-9-4-0-5-3"
         style="font-size:14.51119995px;font-style:normal;font-variant:normal;font-weight:normal;font-stretch:normal;text-align:start;line-height:125%;letter-spacing:0px;word-spacing:0px;writing-mode:lr-tb;text-anchor:start;fill:#000000;fill-opacity:1;stroke:none;font-family:Standard Symbols L;-inkscape-font-specification:Standard Symbols L">
        <path
           id="path8471"
           d="m 147.82243,261.22227 6.0794,0 0,1.20455 -4.64812,0 0,3.11764 4.19465,0 0,1.20454 -4.19465,0 0,5.05199 -1.43128,0 0,-10.57872"
           inkscape:connector-curvature="0" />
        <path
           id="path8473"
           d="m 159.67655,265.0839 c -0.14644,-0.085 -0.30704,-0.14643 -0.48181,-0.18423 -0.17006,-0.0425 -0.35901,-0.0638 -0.56685,-0.0638 -0.7369,10e-6 -1.30374,0.24092 -1.70053,0.72273 -0.39207,0.4771 -0.5881,1.16439 -0.5881,2.06189 l 0,4.18047 -1.31082,0 0,-7.93581 1.31082,0 0,1.23289 c 0.27397,-0.48181 0.63061,-0.83845 1.06992,-1.06992 0.4393,-0.23618 0.97308,-0.35427 1.60133,-0.35428 0.0897,1e-5 0.18895,0.007 0.2976,0.0213 0.10863,0.009 0.22909,0.026 0.36136,0.0496 l 0.007,1.33917"
           inkscape:connector-curvature="0" />
        <path
           id="path8475"
           d="m 163.8216,264.77922 c -0.69911,0 -1.25178,0.27398 -1.65802,0.82192 -0.40624,0.54323 -0.60936,1.28958 -0.60936,2.23903 0,0.94947 0.20076,1.69818 0.60228,2.24612 0.40623,0.54323 0.96126,0.81484 1.6651,0.81484 0.69438,0 1.24469,-0.27397 1.65093,-0.82192 0.40623,-0.54795 0.60935,-1.29429 0.60936,-2.23904 -10e-6,-0.94001 -0.20313,-1.68399 -0.60936,-2.23194 -0.40624,-0.55267 -0.95655,-0.82901 -1.65093,-0.82901 m 0,-1.10535 c 1.13368,10e-6 2.0241,0.36846 2.67125,1.10535 0.64714,0.7369 0.97071,1.75722 0.97072,3.06095 -1e-5,1.29902 -0.32358,2.31934 -0.97072,3.06096 -0.64715,0.7369 -1.53757,1.10535 -2.67125,1.10535 -1.13842,0 -2.03119,-0.36845 -2.67834,-1.10535 -0.64242,-0.74162 -0.96363,-1.76194 -0.96363,-3.06096 0,-1.30373 0.32121,-2.32405 0.96363,-3.06095 0.64715,-0.73689 1.53992,-1.10534 2.67834,-1.10535"
           inkscape:connector-curvature="0" />
        <path
           id="path8477"
           d="m 176.21422,267.01117 0,4.78982 -1.30374,0 0,-4.74731 c -1e-5,-0.75106 -0.14644,-1.31318 -0.43931,-1.68636 -0.29287,-0.37317 -0.73217,-0.55975 -1.31791,-0.55976 -0.70383,10e-6 -1.25887,0.22438 -1.6651,0.67313 -0.40624,0.44875 -0.60936,1.06047 -0.60936,1.83515 l 0,4.48515 -1.31082,0 0,-7.93581 1.31082,0 0,1.23289 c 0.31176,-0.47709 0.67785,-0.83373 1.09826,-1.06992 0.42513,-0.23618 0.91403,-0.35427 1.46671,-0.35428 0.91167,10e-6 1.60133,0.28343 2.06898,0.85027 0.46764,0.56213 0.70146,1.39113 0.70147,2.48703"
           inkscape:connector-curvature="0" />
        <path
           id="path8479"
           d="m 180.11836,261.61198 0,2.2532 2.68542,0 0,1.01324 -2.68542,0 0,4.30801 c -1e-5,0.64715 0.0874,1.06283 0.26216,1.24705 0.1795,0.18423 0.54086,0.27634 1.08409,0.27634 l 1.33917,0 0,1.09117 -1.33917,0 c -1.00615,0 -1.70053,-0.18658 -2.08315,-0.55975 -0.38262,-0.3779 -0.57393,-1.06283 -0.57393,-2.05481 l 0,-4.30801 -0.95655,0 0,-1.01324 0.95655,0 0,-2.2532 1.31083,0"
           inkscape:connector-curvature="0" />
      </g>
      <path
         transform="matrix(0.8062,0,0,0.8062,-123.95458,-1799.4122)"
         sodipodi:open="true"
         sodipodi:end="6.278"
         sodipodi:start="0"
         d="m 421,2776 c 0,8.2843 -6.71573,15 -15,15 -8.28427,0 -15,-6.7157 -15,-15 0,-8.2843 6.71573,-15 15,-15 8.25391,0 14.957,6.6684 14.9998,14.9222"
         sodipodi:ry="15"
         sodipodi:rx="15"
         sodipodi:cy="2776"
         sodipodi:cx="406"
         id="path19730-2-9"
         style="color:#000000;fill:#ffffff;fill-opacity:1;fill-rule:nonzero;stroke:#000000;stroke-width:1.5;stroke-linecap:round;stroke-linejoin:round;stroke-miterlimit:4;stroke-opacity:1;stroke-dasharray:none;stroke-dashoffset:0;marker:none;visibility:visible;display:inline;overflow:visible;enable-background:accumulate"
         sodipodi:type="arc" />
      <text
         sodipodi:linespacing="125%"
         id="text8484-0-0-0-8-7-5-4"
         y="443.59274"
         x="200.00139"
         style="font-size:14.51159954px;font-style:normal;font-variant:normal;font-weight:normal;font-stretch:normal;text-align:start;line-height:125%;letter-spacing:0px;word-spacing:0px;writing-mode:lr-tb;text-anchor:start;fill:#000000;fill-opacity:1;stroke:none;font-family:Standard Symbols L;-inkscape-font-specification:Standard Symbols L"
         xml:space="preserve"><tspan
           y="443.59274"
           x="200.00139"
           id="tspan8486-3-0-4-3-7-4-0"
           sodipodi:role="line">6</tspan></text>
      <path
         sodipodi:nodetypes="cac"
         style="fill:none;stroke:#000000;stroke-width:2.41860008;stroke-linecap:round;stroke-linejoin:miter;stroke-miterlimit:4;stroke-opacity:1;stroke-dasharray:none"
         d="m 100.44542,316.2878 c 0,0 10,27 12.1,40 5.8,39 0.4,119 0.4,119"
         id="path4864-7-2"
         inkscape:connector-curvature="0" />
      <path
         sodipodi:nodetypes="cc"
         style="fill:none;stroke:#000000;stroke-width:2.41860008;stroke-linecap:round;stroke-linejoin:miter;stroke-miterlimit:4;stroke-opacity:1;stroke-dasharray:none"
         d="m 138.34542,302.2878 0.3,173"
         id="path4864-7-25"
         inkscape:connector-curvature="0" />
      <path
         sodipodi:type="arc"
         style="color:#000000;fill:#ffffff;fill-opacity:1;fill-rule:nonzero;stroke:#000000;stroke-width:1.5;stroke-linecap:round;stroke-linejoin:round;stroke-miterlimit:4;stroke-opacity:1;stroke-dasharray:none;stroke-dashoffset:0;marker:none;visibility:visible;display:inline;overflow:visible;enable-background:accumulate"
         id="path19730-2-9-08"
         sodipodi:cx="406"
         sodipodi:cy="2776"
         sodipodi:rx="15"
         sodipodi:ry="15"
         d="m 421,2776 c 0,8.2843 -6.71573,15 -15,15 -8.28427,0 -15,-6.7157 -15,-15 0,-8.2843 6.71573,-15 15,-15 8.25391,0 14.957,6.6684 14.9998,14.9222"
         sodipodi:start="0"
         sodipodi:end="6.278"
         sodipodi:open="true"
         transform="matrix(0.8062,0,0,0.8062,-188.15458,-1799.4122)" />
      <text
         xml:space="preserve"
         style="font-size:14.51159954px;font-style:normal;font-variant:normal;font-weight:normal;font-stretch:normal;text-align:start;line-height:125%;letter-spacing:0px;word-spacing:0px;writing-mode:lr-tb;text-anchor:start;fill:#000000;fill-opacity:1;stroke:none;font-family:Standard Symbols L;-inkscape-font-specification:Standard Symbols L"
         x="135.42186"
         y="443.59274"
         id="text8484-0-0-0-8-7-5-4-5"
         sodipodi:linespacing="125%"><tspan
           sodipodi:role="line"
           id="tspan8486-3-0-4-3-7-4-0-9"
           x="135.42186"
           y="443.59274">5</tspan></text>
      <path
         inkscape:connector-curvature="0"
         id="path4864-7-25-7-6"
         d="m 92.74542,382.2878 19.7,93"
         style="fill:none;stroke:#000000;stroke-width:2.41860008;stroke-linecap:round;stroke-linejoin:miter;stroke-miterlimit:4;stroke-opacity:1;stroke-dasharray:none"
         sodipodi:nodetypes="cc" />
      <path
         transform="matrix(0.8062,0,0,0.8062,-236.55458,-1830.4122)"
         sodipodi:open="true"
         sodipodi:end="6.278"
         sodipodi:start="0"
         d="m 421,2776 c 0,8.2843 -6.71573,15 -15,15 -8.28427,0 -15,-6.7157 -15,-15 0,-8.2843 6.71573,-15 15,-15 8.25391,0 14.957,6.6684 14.9998,14.9222"
         sodipodi:ry="15"
         sodipodi:rx="15"
         sodipodi:cy="2776"
         sodipodi:cx="406"
         id="path19730-2-9-4-4"
         style="color:#000000;fill:#ffffff;fill-opacity:1;fill-rule:nonzero;stroke:#000000;stroke-width:1.5;stroke-linecap:round;stroke-linejoin:round;stroke-miterlimit:4;stroke-opacity:1;stroke-dasharray:none;stroke-dashoffset:0;marker:none;visibility:visible;display:inline;overflow:visible;enable-background:accumulate"
         sodipodi:type="arc" />
      <text
         sodipodi:linespacing="125%"
         id="text8484-0-0-0-8-7-5-4-0-9"
         y="412.63229"
         x="87.027573"
         style="font-size:14.51159954px;font-style:normal;font-variant:normal;font-weight:normal;font-stretch:normal;text-align:start;line-height:125%;letter-spacing:0px;word-spacing:0px;writing-mode:lr-tb;text-anchor:start;fill:#000000;fill-opacity:1;stroke:none;font-family:Standard Symbols L;-inkscape-font-specification:Standard Symbols L"
         xml:space="preserve"><tspan
           y="412.63229"
           x="87.027573"
           id="tspan8486-3-0-4-3-7-4-0-4-6"
           sodipodi:role="line">3</tspan></text>
      <path
         sodipodi:type="arc"
         style="color:#000000;fill:#ffffff;fill-opacity:1;fill-rule:nonzero;stroke:#000000;stroke-width:1.5;stroke-linecap:round;stroke-linejoin:round;stroke-miterlimit:4;stroke-opacity:1;stroke-dasharray:none;stroke-dashoffset:0;marker:none;visibility:visible;display:inline;overflow:visible;enable-background:accumulate"
         id="path19730-2-9-0"
         sodipodi:cx="406"
         sodipodi:cy="2776"
         sodipodi:rx="15"
         sodipodi:ry="15"
         d="m 421,2776 c 0,8.2843 -6.71573,15 -15,15 -8.28427,0 -15,-6.7157 -15,-15 0,-8.2843 6.71573,-15 15,-15 8.25391,0 14.957,6.6684 14.9998,14.9222"
         sodipodi:start="0"
         sodipodi:end="6.278"
         sodipodi:open="true"
         transform="matrix(0.8062,0,0,0.8062,-214.25458,-1799.4122)" />
      <text
         xml:space="preserve"
         style="font-size:14.51159954px;font-style:normal;font-variant:normal;font-weight:normal;font-stretch:normal;text-align:start;line-height:125%;letter-spacing:0px;word-spacing:0px;writing-mode:lr-tb;text-anchor:start;fill:#000000;fill-opacity:1;stroke:none;font-family:Standard Symbols L;-inkscape-font-specification:Standard Symbols L"
         x="109.26677"
         y="443.59274"
         id="text8484-0-0-0-8-7-5-4-4"
         sodipodi:linespacing="125%"><tspan
           sodipodi:role="line"
           id="tspan8486-3-0-4-3-7-4-0-1"
           x="109.26677"
           y="443.59274">4</tspan></text>
    </g>
  </g>
</svg>
