<?xml version="1.0" encoding="UTF-8" standalone="no"?>
<!-- Created with Inkscape (http://www.inkscape.org/) -->

<svg
   xmlns:dc="http://purl.org/dc/elements/1.1/"
   xmlns:cc="http://creativecommons.org/ns#"
   xmlns:rdf="http://www.w3.org/1999/02/22-rdf-syntax-ns#"
   xmlns:svg="http://www.w3.org/2000/svg"
   xmlns="http://www.w3.org/2000/svg"
   xmlns:sodipodi="http://sodipodi.sourceforge.net/DTD/sodipodi-0.dtd"
   xmlns:inkscape="http://www.inkscape.org/namespaces/inkscape"
   width="164.05463"
   height="218.16486"
   id="svg8583"
   version="1.1"
   inkscape:version="0.48.4 r9939"
   sodipodi:docname="Новий документ 78">
  <defs
     id="defs8585" />
  <sodipodi:namedview
     id="base"
     pagecolor="#ffffff"
     bordercolor="#666666"
     borderopacity="1.0"
     inkscape:pageopacity="0.0"
     inkscape:pageshadow="2"
     inkscape:zoom="1.4"
     inkscape:cx="10.84039"
     inkscape:cy="189.00033"
     inkscape:document-units="px"
     inkscape:current-layer="layer1"
     showgrid="false"
     fit-margin-top="0"
     fit-margin-left="0"
     fit-margin-right="0"
     fit-margin-bottom="0"
     inkscape:window-width="1855"
     inkscape:window-height="1056"
     inkscape:window-x="65"
     inkscape:window-y="24"
     inkscape:window-maximized="1" />
  <metadata
     id="metadata8588">
    <rdf:RDF>
      <cc:Work
         rdf:about="">
        <dc:format>image/svg+xml</dc:format>
        <dc:type
           rdf:resource="http://purl.org/dc/dcmitype/StillImage" />
        <dc:title></dc:title>
      </cc:Work>
    </rdf:RDF>
  </metadata>
  <g
     inkscape:label="Layer 1"
     inkscape:groupmode="layer"
     id="layer1"
     transform="translate(-72.258404,-246.13689)">
    <g
       id="g8720">
      <path
         style="fill:none;stroke:#dba981;stroke-width:2.5;stroke-linecap:round;stroke-linejoin:miter;stroke-miterlimit:4;stroke-opacity:1;stroke-dasharray:7.5, 7.5;stroke-dashoffset:0;display:inline"
         d="m 134.80867,294.8018 35,0"
         id="path3992-4-77-9-5-7-1-2-9-8-5-7-2-7-5-9"
         inkscape:connector-curvature="0"
         sodipodi:nodetypes="cc" />
      <path
         sodipodi:nodetypes="cc"
         inkscape:connector-curvature="0"
         id="path3992-4-77-9-5-7-1-2-9-8-5-4-1-4-8-7-8-4"
         d="m 95.50867,427.8018 114.3,0"
         style="fill:none;stroke:#dba981;stroke-width:1.20039999;stroke-linecap:round;stroke-linejoin:miter;stroke-miterlimit:4;stroke-opacity:1;stroke-dasharray:3.6013, 1.2004;stroke-dashoffset:0;display:inline" />
      <path
         sodipodi:nodetypes="cc"
         inkscape:connector-curvature="0"
         id="path3992-4-77-9-5-7-1-2-9-8-8-6-68-0-6-13"
         d="m 102.50867,460.8018 102.3,1"
         style="fill:none;stroke:#dba981;stroke-width:1.20039999;stroke-linecap:round;stroke-linejoin:miter;stroke-miterlimit:4;stroke-opacity:1;stroke-dasharray:3.6013, 1.2004;stroke-dashoffset:0" />
      <path
         style="fill:none;stroke:#dba981;stroke-width:2.9999001;stroke-linecap:round;stroke-linejoin:miter;stroke-miterlimit:4;stroke-opacity:1;stroke-dasharray:none"
         d="m 101.50867,462.8018 c 3,-17 -5,-32 -9,-49 -2,-11 -1,-25 -6,-35 -8,-21 -20,-50 -7,-71 7,-8 30.3,-9 46.3,-18 7,-6 6,-16 4,-25 20,6 25,6 45,-1 -9,36 39,28 52,45 17,24 3,50 -6,70 -5,10 -5,24 -7,35 -3,17 -11,32 -9,49"
         id="path11116-9-7-3-3-4-3"
         inkscape:connector-curvature="0"
         sodipodi:nodetypes="ccccccccccc" />
      <g
         transform="translate(-1244.4913,-2713.5982)"
         id="g9424">
        <path
           sodipodi:nodetypes="cc"
           inkscape:connector-curvature="0"
           id="path7494-1-6-3-5-81-64-9-2-0-5-7-3-2-4-0-9-7-9-3-2"
           d="m 1449,3176 6,-35"
           style="fill:none;stroke:#000000;stroke-width:2.41860008;stroke-linecap:round;stroke-linejoin:round;stroke-miterlimit:4;stroke-opacity:1;stroke-dasharray:none;marker-start:url(#marker7359);marker-end:url(#marker7359);display:inline" />
        <path
           sodipodi:type="arc"
           style="color:#000000;fill:#ffffff;fill-opacity:1;fill-rule:nonzero;stroke:#000000;stroke-width:1.5;stroke-linecap:round;stroke-linejoin:round;stroke-miterlimit:4;stroke-opacity:1;stroke-dasharray:none;stroke-dashoffset:0;marker:none;visibility:visible;display:inline;overflow:visible;enable-background:accumulate"
           id="path19730-2-9-1-7-8-7"
           sodipodi:cx="406"
           sodipodi:cy="2776"
           sodipodi:rx="15"
           sodipodi:ry="15"
           d="m 421,2776 c 0,8.2843 -6.71573,15 -15,15 -8.28427,0 -15,-6.7157 -15,-15 0,-8.2843 6.71573,-15 15,-15 8.25391,0 14.957,6.6684 14.9998,14.9222"
           sodipodi:start="0"
           sodipodi:end="6.278"
           sodipodi:open="true"
           transform="matrix(0.8062,0,0,0.8062,1133,922.1)" />
        <text
           xml:space="preserve"
           style="font-size:14.51159954px;font-style:normal;font-variant:normal;font-weight:normal;font-stretch:normal;text-align:start;line-height:125%;letter-spacing:0px;word-spacing:0px;writing-mode:lr-tb;text-anchor:start;fill:#000000;fill-opacity:1;stroke:none;display:inline;font-family:Standard Symbols L;-inkscape-font-specification:Standard Symbols L"
           x="1453.3538"
           y="3164.4944"
           id="text8512-9-6-3-7-2-5-4-0-1-3"
           sodipodi:linespacing="125%"><tspan
             sodipodi:role="line"
             id="tspan8514-9-9-1-0-8-3-6-0-9-2"
             x="1453.3538"
             y="3164.4944">12</tspan></text>
      </g>
      <path
         sodipodi:nodetypes="cc"
         inkscape:connector-curvature="0"
         id="path8584-1-4-6-3-4-4-4-4-7-8-0-8"
         d="m 224.80867,368.8018 c -5,-1 -29,6 -3,-65"
         style="fill:none;stroke:#dba981;stroke-width:2.9999001;stroke-linecap:round;stroke-linejoin:miter;stroke-miterlimit:4;stroke-opacity:1;stroke-dasharray:none" />
      <path
         sodipodi:nodetypes="cc"
         inkscape:connector-curvature="0"
         id="path8584-6-7-8-0-3-1-3-3-1-1-6-3-3"
         d="m 84.50867,367.8018 c 4,-1 29.3,6 4,-65"
         style="fill:none;stroke:#dba981;stroke-width:2.9999001;stroke-linecap:round;stroke-linejoin:miter;stroke-miterlimit:4;stroke-opacity:1;stroke-dasharray:none" />
      <path
         sodipodi:nodetypes="cc"
         inkscape:connector-curvature="0"
         id="path3992-4-77-9-5-7-1-2-90-1-4-0-5"
         d="m 127.80867,288.8018 c 11,9 51,6 52,-1"
         style="fill:none;stroke:#dba981;stroke-width:1.20039999;stroke-linecap:round;stroke-linejoin:miter;stroke-miterlimit:4;stroke-opacity:1;stroke-dasharray:3.6013, 1.2004;stroke-dashoffset:0" />
      <path
         sodipodi:nodetypes="csc"
         inkscape:connector-curvature="0"
         id="path3992-4-77-9-5-7-1-2-9-4-0-3-9-0"
         d="m 85.50867,373.8018 c 15,0 15,-23 69.3,-23 54,0 50,22 69,22"
         style="fill:none;stroke:#dba981;stroke-width:1.20039999;stroke-linecap:round;stroke-linejoin:miter;stroke-miterlimit:4;stroke-opacity:1;stroke-dasharray:3.6013, 1.2004;stroke-dashoffset:0" />
      <path
         sodipodi:nodetypes="cc"
         inkscape:connector-curvature="0"
         id="path3992-4-77-9-5-7-1-2-9-8-5-7-2-7-5"
         d="m 89.50867,382.8018 130.3,0"
         style="fill:none;stroke:#dba981;stroke-width:1.20039999;stroke-linecap:round;stroke-linejoin:miter;stroke-miterlimit:4;stroke-opacity:1;stroke-dasharray:3.6013, 1.2004;stroke-dashoffset:0" />
      <path
         style="fill:none;stroke:#dba981;stroke-width:1.20039999;stroke-linecap:round;stroke-linejoin:miter;stroke-miterlimit:4;stroke-opacity:1;stroke-dasharray:3.6013, 1.2004;stroke-dashoffset:0"
         d="m 91.50867,401.8018 124.3,1"
         id="path3992-4-77-9-5-7-1-2-9-8-5-4-1-4-8-7-8"
         inkscape:connector-curvature="0"
         sodipodi:nodetypes="cc" />
      <path
         inkscape:connector-curvature="0"
         id="path4864-7-7-0"
         d="m 160.80867,294.8018 0,87"
         style="fill:none;stroke:#000000;stroke-width:2.41860008;stroke-linecap:round;stroke-linejoin:miter;stroke-miterlimit:4;stroke-opacity:1;stroke-dasharray:none"
         sodipodi:nodetypes="cc" />
      <g
         id="text6934-2-9-4-0-5-3-2-6"
         style="font-size:14.51119995px;font-style:normal;font-variant:normal;font-weight:normal;font-stretch:normal;text-align:start;line-height:125%;letter-spacing:0px;word-spacing:0px;writing-mode:lr-tb;text-anchor:start;fill:#000000;fill-opacity:1;stroke:none;font-family:Standard Symbols L;-inkscape-font-specification:Standard Symbols L">
        <path
           id="path8710"
           d="m 136.0085,246.13689 6.0794,0 0,1.20454 -4.64812,0 0,3.11764 4.19464,0 0,1.20454 -4.19464,0 0,5.052 -1.43128,0 0,-10.57872"
           inkscape:connector-curvature="0" />
        <path
           id="path8712"
           d="m 147.86262,249.99851 c -0.14644,-0.085 -0.30705,-0.14643 -0.48182,-0.18423 -0.17006,-0.0425 -0.359,-0.0638 -0.56684,-0.0638 -0.7369,1e-5 -1.30375,0.24092 -1.70053,0.72273 -0.39207,0.4771 -0.58811,1.1644 -0.5881,2.06189 l 0,4.18048 -1.31083,0 0,-7.93582 1.31083,0 0,1.23289 c 0.27397,-0.48181 0.63061,-0.83845 1.06991,-1.06992 0.4393,-0.23618 0.97308,-0.35427 1.60134,-0.35428 0.0897,1e-5 0.18894,0.007 0.29759,0.0213 0.10864,0.009 0.22909,0.026 0.36136,0.0496 l 0.007,1.33917"
           inkscape:connector-curvature="0" />
        <path
           id="path8714"
           d="m 152.00767,249.69383 c -0.69912,1e-5 -1.25179,0.27398 -1.65802,0.82192 -0.40624,0.54323 -0.60936,1.28958 -0.60936,2.23904 0,0.94946 0.20075,1.69817 0.60227,2.24611 0.40624,0.54323 0.96127,0.81484 1.66511,0.81484 0.69437,0 1.24468,-0.27397 1.65093,-0.82192 0.40623,-0.54795 0.60935,-1.29429 0.60935,-2.23903 0,-0.94001 -0.20312,-1.684 -0.60935,-2.23195 -0.40625,-0.55267 -0.95656,-0.829 -1.65093,-0.82901 m 0,-1.10535 c 1.13368,1e-5 2.02409,0.36846 2.67125,1.10535 0.64714,0.7369 0.97071,1.75722 0.97072,3.06096 -1e-5,1.29902 -0.32358,2.31933 -0.97072,3.06095 -0.64716,0.7369 -1.53757,1.10535 -2.67125,1.10535 -1.13842,0 -2.0312,-0.36845 -2.67834,-1.10535 -0.64243,-0.74162 -0.96364,-1.76193 -0.96364,-3.06095 0,-1.30374 0.32121,-2.32406 0.96364,-3.06096 0.64714,-0.73689 1.53992,-1.10534 2.67834,-1.10535"
           inkscape:connector-curvature="0" />
        <path
           id="path8716"
           d="m 164.40029,251.92578 0,4.78983 -1.30375,0 0,-4.74732 c 0,-0.75106 -0.14644,-1.31318 -0.4393,-1.68636 -0.29287,-0.37317 -0.73218,-0.55975 -1.31791,-0.55976 -0.70384,1e-5 -1.25887,0.22438 -1.6651,0.67313 -0.40625,0.44876 -0.60936,1.06047 -0.60936,1.83516 l 0,4.48515 -1.31083,0 0,-7.93582 1.31083,0 0,1.23289 c 0.31176,-0.47709 0.67785,-0.83373 1.09826,-1.06992 0.42513,-0.23618 0.91403,-0.35427 1.46671,-0.35428 0.91166,1e-5 1.60132,0.28343 2.06898,0.85027 0.46763,0.56213 0.70146,1.39113 0.70147,2.48703"
           inkscape:connector-curvature="0" />
        <path
           id="path8718"
           d="m 168.30442,246.52659 0,2.2532 2.68543,0 0,1.01324 -2.68543,0 0,4.30801 c 0,0.64715 0.0874,1.06283 0.26217,1.24706 0.1795,0.18422 0.54086,0.27633 1.08409,0.27633 l 1.33917,0 0,1.09118 -1.33917,0 c -1.00615,0 -1.70054,-0.18659 -2.08315,-0.55976 -0.38263,-0.3779 -0.57393,-1.06283 -0.57393,-2.05481 l 0,-4.30801 -0.95655,0 0,-1.01324 0.95655,0 0,-2.2532 1.31082,0"
           inkscape:connector-curvature="0" />
      </g>
      <path
         transform="matrix(0.8062,0,0,0.8062,-166.49133,-1889.1982)"
         sodipodi:open="true"
         sodipodi:end="6.278"
         sodipodi:start="0"
         d="m 421,2776 c 0,8.2843 -6.71573,15 -15,15 -8.28427,0 -15,-6.7157 -15,-15 0,-8.2843 6.71573,-15 15,-15 8.25391,0 14.957,6.6684 14.9998,14.9222"
         sodipodi:ry="15"
         sodipodi:rx="15"
         sodipodi:cy="2776"
         sodipodi:cx="406"
         id="path19730-2-9-1-3"
         style="color:#000000;fill:#ffffff;fill-opacity:1;fill-rule:nonzero;stroke:#000000;stroke-width:1.5;stroke-linecap:round;stroke-linejoin:round;stroke-miterlimit:4;stroke-opacity:1;stroke-dasharray:none;stroke-dashoffset:0;marker:none;visibility:visible;display:inline;overflow:visible;enable-background:accumulate"
         sodipodi:type="arc" />
      <text
         sodipodi:linespacing="125%"
         id="text8484-0-0-0-8-7-5-4-9-4"
         y="353.98807"
         x="157.26326"
         style="font-size:14.51159954px;font-style:normal;font-variant:normal;font-weight:normal;font-stretch:normal;text-align:start;line-height:125%;letter-spacing:0px;word-spacing:0px;writing-mode:lr-tb;text-anchor:start;fill:#000000;fill-opacity:1;stroke:none;font-family:Standard Symbols L;-inkscape-font-specification:Standard Symbols L"
         xml:space="preserve"><tspan
           y="353.98807"
           x="157.26326"
           id="tspan8486-3-0-4-3-7-4-0-15-0"
           sodipodi:role="line">9</tspan></text>
      <path
         sodipodi:nodetypes="cc"
         style="fill:none;stroke:#000000;stroke-width:2.41860008;stroke-linecap:round;stroke-linejoin:miter;stroke-miterlimit:4;stroke-opacity:1;stroke-dasharray:none"
         d="m 181.80867,402.8018 0,60"
         id="path4864-7-25-8-43"
         inkscape:connector-curvature="0" />
      <path
         sodipodi:nodetypes="cc"
         style="fill:none;stroke:#000000;stroke-width:2.41860008;stroke-linecap:round;stroke-linejoin:miter;stroke-miterlimit:4;stroke-opacity:1;stroke-dasharray:none"
         d="m 143.80867,294.8018 -1,56"
         id="path4864-7-25-7-7-0"
         inkscape:connector-curvature="0" />
      <path
         sodipodi:type="arc"
         style="color:#000000;fill:#ffffff;fill-opacity:1;fill-rule:nonzero;stroke:#000000;stroke-width:1.5;stroke-linecap:round;stroke-linejoin:round;stroke-miterlimit:4;stroke-opacity:1;stroke-dasharray:none;stroke-dashoffset:0;marker:none;visibility:visible;display:inline;overflow:visible;enable-background:accumulate"
         id="path19730-2-9-4-7-2"
         sodipodi:cx="406"
         sodipodi:cy="2776"
         sodipodi:rx="15"
         sodipodi:ry="15"
         d="m 421,2776 c 0,8.2843 -6.71573,15 -15,15 -8.28427,0 -15,-6.7157 -15,-15 0,-8.2843 6.71573,-15 15,-15 8.25391,0 14.957,6.6684 14.9998,14.9222"
         sodipodi:start="0"
         sodipodi:end="6.278"
         sodipodi:open="true"
         transform="matrix(0.8062,0,0,0.8062,-184.49133,-1916.1982)" />
      <text
         xml:space="preserve"
         style="font-size:14.51159954px;font-style:normal;font-variant:normal;font-weight:normal;font-stretch:normal;text-align:start;line-height:125%;letter-spacing:0px;word-spacing:0px;writing-mode:lr-tb;text-anchor:start;fill:#000000;fill-opacity:1;stroke:none;font-family:Standard Symbols L;-inkscape-font-specification:Standard Symbols L"
         x="139.40108"
         y="326.6951"
         id="text8484-0-0-0-8-7-5-4-0-2-8"
         sodipodi:linespacing="125%"><tspan
           sodipodi:role="line"
           id="tspan8486-3-0-4-3-7-4-0-4-1-0"
           x="139.40108"
           y="326.6951">7</tspan></text>
      <path
         sodipodi:type="arc"
         style="color:#000000;fill:#ffffff;fill-opacity:1;fill-rule:nonzero;stroke:#000000;stroke-width:1.5;stroke-linecap:round;stroke-linejoin:round;stroke-miterlimit:4;stroke-opacity:1;stroke-dasharray:none;stroke-dashoffset:0;marker:none;visibility:visible;display:inline;overflow:visible;enable-background:accumulate"
         id="path19730-2-9-1-7-8"
         sodipodi:cx="406"
         sodipodi:cy="2776"
         sodipodi:rx="15"
         sodipodi:ry="15"
         d="m 421,2776 c 0,8.2843 -6.71573,15 -15,15 -8.28427,0 -15,-6.7157 -15,-15 0,-8.2843 6.71573,-15 15,-15 8.25391,0 14.957,6.6684 14.9998,14.9222"
         sodipodi:start="0"
         sodipodi:end="6.278"
         sodipodi:open="true"
         transform="matrix(0.8062,0,0,0.8062,-145.49133,-1797.1982)" />
      <text
         xml:space="preserve"
         style="font-size:14.51159954px;font-style:normal;font-variant:normal;font-weight:normal;font-stretch:normal;text-align:start;line-height:125%;letter-spacing:0px;word-spacing:0px;writing-mode:lr-tb;text-anchor:start;fill:#000000;fill-opacity:1;stroke:none;font-family:Standard Symbols L;-inkscape-font-specification:Standard Symbols L"
         x="174.82039"
         y="445.21829"
         id="text8484-0-0-0-8-7-5-4-9-8-0"
         sodipodi:linespacing="125%"><tspan
           sodipodi:role="line"
           id="tspan8486-3-0-4-3-7-4-0-15-5-5"
           x="174.82039"
           y="445.21829">11</tspan></text>
      <path
         sodipodi:nodetypes="cc"
         style="fill:none;stroke:#7dc832;stroke-width:3.22480011;stroke-linecap:round;stroke-linejoin:miter;stroke-miterlimit:4;stroke-opacity:1;stroke-dasharray:none;display:inline"
         d="m 142.80867,353.8018 0,108"
         id="path4864-7-25-7-6-3"
         inkscape:connector-curvature="0" />
      <path
         transform="matrix(0.8062,0,0,0.8062,-184.49133,-1845.1982)"
         sodipodi:open="true"
         sodipodi:end="6.278"
         sodipodi:start="0"
         d="m 421,2776 c 0,8.2843 -6.71573,15 -15,15 -8.28427,0 -15,-6.7157 -15,-15 0,-8.2843 6.71573,-15 15,-15 8.25391,0 14.957,6.6684 14.9998,14.9222"
         sodipodi:ry="15"
         sodipodi:rx="15"
         sodipodi:cy="2776"
         sodipodi:cx="406"
         id="path19730-2-9-0-2"
         style="color:#000000;fill:#ffffff;fill-opacity:1;fill-rule:nonzero;stroke:#000000;stroke-width:1.5;stroke-linecap:round;stroke-linejoin:round;stroke-miterlimit:4;stroke-opacity:1;stroke-dasharray:none;stroke-dashoffset:0;marker:none;visibility:visible;display:inline;overflow:visible;enable-background:accumulate"
         sodipodi:type="arc" />
      <text
         sodipodi:linespacing="125%"
         id="text8484-0-0-0-8-7-5-4-4-6"
         y="398.38748"
         x="139.24153"
         style="font-size:14.51159954px;font-style:normal;font-variant:normal;font-weight:normal;font-stretch:normal;text-align:start;line-height:125%;letter-spacing:0px;word-spacing:0px;writing-mode:lr-tb;text-anchor:start;fill:#000000;fill-opacity:1;stroke:none;display:inline;font-family:Standard Symbols L;-inkscape-font-specification:Standard Symbols L"
         xml:space="preserve"><tspan
           y="398.38748"
           x="139.24153"
           id="tspan8486-3-0-4-3-7-4-0-1-0"
           sodipodi:role="line">8</tspan></text>
      <path
         inkscape:connector-curvature="0"
         id="path4864-7-25-7-6-3-8"
         d="m 160.80867,383.8018 0,78"
         style="fill:none;stroke:#7dc832;stroke-width:3.22480011;stroke-linecap:round;stroke-linejoin:miter;stroke-miterlimit:4;stroke-opacity:1;stroke-dasharray:none;display:inline"
         sodipodi:nodetypes="cc" />
      <path
         sodipodi:type="arc"
         style="color:#000000;fill:#ffffff;fill-opacity:1;fill-rule:nonzero;stroke:#000000;stroke-width:1.5;stroke-linecap:round;stroke-linejoin:round;stroke-miterlimit:4;stroke-opacity:1;stroke-dasharray:none;stroke-dashoffset:0;marker:none;visibility:visible;display:inline;overflow:visible;enable-background:accumulate"
         id="path19730-2-9-0-2-2"
         sodipodi:cx="406"
         sodipodi:cy="2776"
         sodipodi:rx="15"
         sodipodi:ry="15"
         d="m 421,2776 c 0,8.2843 -6.71573,15 -15,15 -8.28427,0 -15,-6.7157 -15,-15 0,-8.2843 6.71573,-15 15,-15 8.25391,0 14.957,6.6684 14.9998,14.9222"
         sodipodi:start="0"
         sodipodi:end="6.278"
         sodipodi:open="true"
         transform="matrix(0.8062,0,0,0.8062,-166.49133,-1815.1982)" />
      <text
         xml:space="preserve"
         style="font-size:14.51159954px;font-style:normal;font-variant:normal;font-weight:normal;font-stretch:normal;text-align:start;line-height:125%;letter-spacing:0px;word-spacing:0px;writing-mode:lr-tb;text-anchor:start;fill:#000000;fill-opacity:1;stroke:none;display:inline;font-family:Standard Symbols L;-inkscape-font-specification:Standard Symbols L"
         x="152.90608"
         y="428.02151"
         id="text8484-0-0-0-8-7-5-4-4-6-4"
         sodipodi:linespacing="125%"><tspan
           sodipodi:role="line"
           id="tspan8486-3-0-4-3-7-4-0-1-0-2"
           x="152.90608"
           y="428.02151">10</tspan></text>
    </g>
  </g>
</svg>
