<?xml version="1.0" encoding="UTF-8" standalone="no"?>
<!-- Created with Inkscape (http://www.inkscape.org/) -->

<svg
   xmlns:dc="http://purl.org/dc/elements/1.1/"
   xmlns:cc="http://creativecommons.org/ns#"
   xmlns:rdf="http://www.w3.org/1999/02/22-rdf-syntax-ns#"
   xmlns:svg="http://www.w3.org/2000/svg"
   xmlns="http://www.w3.org/2000/svg"
   xmlns:sodipodi="http://sodipodi.sourceforge.net/DTD/sodipodi-0.dtd"
   xmlns:inkscape="http://www.inkscape.org/namespaces/inkscape"
   width="164.18556"
   height="216.87067"
   id="svg8823"
   version="1.1"
   inkscape:version="0.48.4 r9939"
   sodipodi:docname="Новий документ 81">
  <defs
     id="defs8825" />
  <sodipodi:namedview
     id="base"
     pagecolor="#ffffff"
     bordercolor="#666666"
     borderopacity="1.0"
     inkscape:pageopacity="0.0"
     inkscape:pageshadow="2"
     inkscape:zoom="1.4"
     inkscape:cx="166.00107"
     inkscape:cy="115.01885"
     inkscape:document-units="px"
     inkscape:current-layer="layer1"
     showgrid="false"
     fit-margin-top="0"
     fit-margin-left="0"
     fit-margin-right="0"
     fit-margin-bottom="0"
     inkscape:window-width="1855"
     inkscape:window-height="1056"
     inkscape:window-x="65"
     inkscape:window-y="24"
     inkscape:window-maximized="1" />
  <metadata
     id="metadata8828">
    <rdf:RDF>
      <cc:Work
         rdf:about="">
        <dc:format>image/svg+xml</dc:format>
        <dc:type
           rdf:resource="http://purl.org/dc/dcmitype/StillImage" />
        <dc:title></dc:title>
      </cc:Work>
    </rdf:RDF>
  </metadata>
  <g
     inkscape:label="Layer 1"
     inkscape:groupmode="layer"
     id="layer1"
     transform="translate(-132.19291,-303.92689)">
    <g
       id="g8939">
      <path
         style="fill:none;stroke:#dba981;stroke-width:1.61240005;stroke-linecap:round;stroke-linejoin:miter;stroke-miterlimit:4;stroke-opacity:1;stroke-dasharray:4.8372, 1.6124;stroke-dashoffset:0"
         d="m 248.1373,441.2976 4,-27"
         id="path3992-4-77-9-5-7-1-2-9-8-8-6-68-0-6-1"
         inkscape:connector-curvature="0"
         sodipodi:nodetypes="cc" />
      <path
         style="fill:none;stroke:#dba981;stroke-width:2.9999001;stroke-linecap:round;stroke-linejoin:miter;stroke-miterlimit:4;stroke-opacity:1;stroke-dasharray:none"
         d="m 162.1373,519.2976 c 2,-17 -6,-32 -9,-49 -3,-10 -2,-24 -7,-35 -8,-20 -20,-49 -6,-70 6,-9 30,-9 46,-18 7,-7 6,-16 4,-25 20,5 25,5 45,-1 -9,35 38,27 52,44 17,25 2,50 -7,70 -4,11 -4,25 -6,35 -3,17 -11,32 -9,49"
         id="path11116-9-7-3-3-4"
         inkscape:connector-curvature="0"
         sodipodi:nodetypes="ccccccccccc" />
      <path
         sodipodi:nodetypes="cc"
         inkscape:connector-curvature="0"
         id="path8584-1-4-6-3-4-4-4-4-7-8-0"
         d="m 284.1373,426.2976 c -4,-2 -29,5 -3,-65"
         style="fill:none;stroke:#dba981;stroke-width:2.9999001;stroke-linecap:round;stroke-linejoin:miter;stroke-miterlimit:4;stroke-opacity:1;stroke-dasharray:none" />
      <path
         sodipodi:nodetypes="cc"
         inkscape:connector-curvature="0"
         id="path8584-6-7-8-0-3-1-3-3-1-1-6-3"
         d="m 144.1373,425.2976 c 4,-2 30,6 4,-65"
         style="fill:none;stroke:#dba981;stroke-width:2.9999001;stroke-linecap:round;stroke-linejoin:miter;stroke-miterlimit:4;stroke-opacity:1;stroke-dasharray:none" />
      <path
         sodipodi:nodetypes="cc"
         inkscape:connector-curvature="0"
         id="path3992-4-77-9-5-7-1-2-90-1-4-0"
         d="m 188.1373,346.2976 c 11,9 51,6 51,-2"
         style="fill:none;stroke:#dba981;stroke-width:1.20039999;stroke-linecap:round;stroke-linejoin:miter;stroke-miterlimit:4;stroke-opacity:1;stroke-dasharray:3.6013, 1.2004;stroke-dashoffset:0" />
      <path
         sodipodi:nodetypes="csc"
         inkscape:connector-curvature="0"
         id="path3992-4-77-9-5-7-1-2-9-4-0-3-9"
         d="m 145.1373,430.2976 c 15,0 15,-20 69,-22 57,-1 49,21 69,21"
         style="fill:none;stroke:#dba981;stroke-width:1.20039999;stroke-linecap:round;stroke-linejoin:miter;stroke-miterlimit:4;stroke-opacity:1;stroke-dasharray:3.6013, 1.2004;stroke-dashoffset:0" />
      <path
         sodipodi:nodetypes="cc"
         inkscape:connector-curvature="0"
         id="path3992-4-77-9-5-7-1-2-9-8-5-7-2-7"
         d="m 150.1373,440.2976 129,0"
         style="fill:none;stroke:#dba981;stroke-width:1.20039999;stroke-linecap:round;stroke-linejoin:miter;stroke-miterlimit:4;stroke-opacity:1;stroke-dasharray:3.6013, 1.2004;stroke-dashoffset:0" />
      <path
         sodipodi:nodetypes="cc"
         inkscape:connector-curvature="0"
         id="path3992-4-77-9-5-7-1-2-9-8-8-6-68-0-6"
         d="m 162.1373,518.2976 103,0"
         style="fill:none;stroke:#dba981;stroke-width:1.20039999;stroke-linecap:round;stroke-linejoin:miter;stroke-miterlimit:4;stroke-opacity:1;stroke-dasharray:3.6013, 1.2004;stroke-dashoffset:0" />
      <path
         style="fill:none;stroke:#dba981;stroke-width:1.20039999;stroke-linecap:round;stroke-linejoin:miter;stroke-miterlimit:4;stroke-opacity:1;stroke-dasharray:3.6013, 1.2004;stroke-dashoffset:0"
         d="m 151.1373,459.2976 125,1"
         id="path3992-4-77-9-5-7-1-2-9-8-5-4-1-4-8-7"
         inkscape:connector-curvature="0"
         sodipodi:nodetypes="cc" />
      <g
         id="text6934-2-9-4-0-5-3-2"
         style="font-size:14.51119995px;font-style:normal;font-variant:normal;font-weight:normal;font-stretch:normal;text-align:start;line-height:125%;letter-spacing:0px;word-spacing:0px;writing-mode:lr-tb;text-anchor:start;fill:#000000;fill-opacity:1;stroke:none;font-family:Standard Symbols L;-inkscape-font-specification:Standard Symbols L">
        <path
           id="path8929"
           d="m 196.07712,303.92689 6.0794,0 0,1.20455 -4.64812,0 0,3.11764 4.19464,0 0,1.20454 -4.19464,0 0,5.052 -1.43128,0 0,-10.57873"
           inkscape:connector-curvature="0" />
        <path
           id="path8931"
           d="m 207.93124,307.78852 c -0.14644,-0.085 -0.30705,-0.14643 -0.48182,-0.18423 -0.17006,-0.0425 -0.359,-0.0638 -0.56684,-0.0638 -0.7369,1e-5 -1.30375,0.24092 -1.70053,0.72273 -0.39207,0.4771 -0.58811,1.1644 -0.5881,2.06189 l 0,4.18048 -1.31083,0 0,-7.93582 1.31083,0 0,1.23289 c 0.27397,-0.48181 0.63061,-0.83845 1.06991,-1.06992 0.4393,-0.23618 0.97308,-0.35427 1.60134,-0.35428 0.0897,10e-6 0.18894,0.007 0.29759,0.0213 0.10864,0.009 0.22909,0.026 0.36136,0.0496 l 0.007,1.33917"
           inkscape:connector-curvature="0" />
        <path
           id="path8933"
           d="m 212.07628,307.48384 c -0.69911,1e-5 -1.25178,0.27398 -1.65801,0.82192 -0.40624,0.54323 -0.60936,1.28958 -0.60936,2.23903 0,0.94947 0.20075,1.69818 0.60227,2.24612 0.40624,0.54323 0.96127,0.81484 1.6651,0.81484 0.69438,0 1.24469,-0.27397 1.65094,-0.82192 0.40623,-0.54795 0.60935,-1.29429 0.60935,-2.23904 0,-0.94001 -0.20312,-1.68399 -0.60935,-2.23194 -0.40625,-0.55267 -0.95656,-0.829 -1.65094,-0.82901 m 0,-1.10535 c 1.13369,10e-6 2.0241,0.36846 2.67126,1.10535 0.64713,0.7369 0.97071,1.75722 0.97071,3.06095 0,1.29902 -0.32358,2.31934 -0.97071,3.06096 -0.64716,0.7369 -1.53757,1.10535 -2.67126,1.10535 -1.13841,0 -2.03119,-0.36845 -2.67833,-1.10535 -0.64243,-0.74162 -0.96364,-1.76194 -0.96364,-3.06096 0,-1.30373 0.32121,-2.32405 0.96364,-3.06095 0.64714,-0.73689 1.53992,-1.10534 2.67833,-1.10535"
           inkscape:connector-curvature="0" />
        <path
           id="path8935"
           d="m 224.4689,309.71579 0,4.78983 -1.30374,0 0,-4.74732 c 0,-0.75106 -0.14644,-1.31318 -0.4393,-1.68636 -0.29288,-0.37317 -0.73218,-0.55975 -1.31791,-0.55976 -0.70384,10e-6 -1.25887,0.22438 -1.66511,0.67313 -0.40624,0.44875 -0.60936,1.06047 -0.60935,1.83515 l 0,4.48516 -1.31083,0 0,-7.93582 1.31083,0 0,1.23289 c 0.31176,-0.47709 0.67784,-0.83373 1.09826,-1.06992 0.42513,-0.23618 0.91403,-0.35427 1.46671,-0.35428 0.91166,10e-6 1.60132,0.28343 2.06897,0.85027 0.46764,0.56213 0.70147,1.39113 0.70147,2.48703"
           inkscape:connector-curvature="0" />
        <path
           id="path8937"
           d="m 228.37304,304.3166 0,2.2532 2.68542,0 0,1.01324 -2.68542,0 0,4.30801 c 0,0.64715 0.0874,1.06283 0.26217,1.24705 0.17949,0.18423 0.54086,0.27634 1.08409,0.27634 l 1.33916,0 0,1.09118 -1.33916,0 c -1.00616,0 -1.70054,-0.18659 -2.08316,-0.55976 -0.38262,-0.3779 -0.57393,-1.06283 -0.57392,-2.05481 l 0,-4.30801 -0.95655,0 0,-1.01324 0.95655,0 0,-2.2532 1.31082,0"
           inkscape:connector-curvature="0" />
      </g>
      <path
         sodipodi:nodetypes="cc"
         inkscape:connector-curvature="0"
         id="path7494-1-6-3-5-7-82-1-6-1-2-5-2"
         d="m 187.1373,346.2976 0,94"
         style="fill:none;stroke:#000000;stroke-width:2.41880012;stroke-linecap:round;stroke-linejoin:round;stroke-miterlimit:4;stroke-opacity:1;stroke-dasharray:none;marker-start:url(#marker7359);marker-end:url(#marker7359)" />
      <path
         transform="matrix(0.8062,0,0,0.8062,-139.8627,-1830.7024)"
         sodipodi:open="true"
         sodipodi:end="6.278"
         sodipodi:start="0"
         d="m 421,2776 c 0,8.2843 -6.71573,15 -15,15 -8.28427,0 -15,-6.7157 -15,-15 0,-8.2843 6.71573,-15 15,-15 8.25391,0 14.957,6.6684 14.9998,14.9222"
         sodipodi:ry="15"
         sodipodi:rx="15"
         sodipodi:cy="2776"
         sodipodi:cx="406"
         id="path19730-2-9-1-7-0"
         style="color:#000000;fill:#ffffff;fill-opacity:1;fill-rule:nonzero;stroke:#000000;stroke-width:1.5;stroke-linecap:round;stroke-linejoin:round;stroke-miterlimit:4;stroke-opacity:1;stroke-dasharray:none;stroke-dashoffset:0;marker:none;visibility:visible;display:inline;overflow:visible;enable-background:accumulate"
         sodipodi:type="arc" />
      <text
         sodipodi:linespacing="125%"
         id="text8484-0-0-0-8-7-5-4-9-8-7"
         y="412.16724"
         x="180.26047"
         style="font-size:14.51159954px;font-style:normal;font-variant:normal;font-weight:normal;font-stretch:normal;text-align:start;line-height:125%;letter-spacing:0px;word-spacing:0px;writing-mode:lr-tb;text-anchor:start;fill:#000000;fill-opacity:1;stroke:none;font-family:Standard Symbols L;-inkscape-font-specification:Standard Symbols L"
         xml:space="preserve"><tspan
           y="412.16724"
           x="180.26047"
           id="tspan8486-3-0-4-3-7-4-0-15-5-8"
           sodipodi:role="line">14</tspan></text>
      <path
         inkscape:connector-curvature="0"
         id="path4864-7-25-8-4"
         d="m 262.1373,352.2976 -9,62"
         style="fill:none;stroke:#000000;stroke-width:2.41880012;stroke-linecap:round;stroke-linejoin:miter;stroke-miterlimit:4;stroke-opacity:1;stroke-dasharray:none"
         sodipodi:nodetypes="cc" />
      <path
         transform="matrix(0.8062,0,0,0.8062,-71.8627,-1845.1024)"
         sodipodi:open="true"
         sodipodi:end="6.278"
         sodipodi:start="0"
         d="m 421,2776 c 0,8.2843 -6.71573,15 -15,15 -8.28427,0 -15,-6.7157 -15,-15 0,-8.2843 6.71573,-15 15,-15 8.25391,0 14.957,6.6684 14.9998,14.9222"
         sodipodi:ry="15"
         sodipodi:rx="15"
         sodipodi:cy="2776"
         sodipodi:cx="406"
         id="path19730-2-9-1-7-6"
         style="color:#000000;fill:#ffffff;fill-opacity:1;fill-rule:nonzero;stroke:#000000;stroke-width:1.5;stroke-linecap:round;stroke-linejoin:round;stroke-miterlimit:4;stroke-opacity:1;stroke-dasharray:none;stroke-dashoffset:0;marker:none;visibility:visible;display:inline;overflow:visible;enable-background:accumulate"
         sodipodi:type="arc" />
      <text
         sodipodi:linespacing="125%"
         id="text8484-0-0-0-8-7-5-4-9-8-9"
         y="397.73633"
         x="247.33151"
         style="font-size:14.51159954px;font-style:normal;font-variant:normal;font-weight:normal;font-stretch:normal;text-align:start;line-height:125%;letter-spacing:0px;word-spacing:0px;writing-mode:lr-tb;text-anchor:start;fill:#000000;fill-opacity:1;stroke:none;font-family:Standard Symbols L;-inkscape-font-specification:Standard Symbols L"
         xml:space="preserve"><tspan
           y="397.73633"
           x="247.33151"
           id="tspan8486-3-0-4-3-7-4-0-15-5-2"
           sodipodi:role="line">16</tspan></text>
      <path
         style="fill:none;stroke:#000000;stroke-width:2.41880012;stroke-linecap:round;stroke-linejoin:round;stroke-miterlimit:4;stroke-opacity:1;stroke-dasharray:none;marker-start:url(#marker7359);marker-end:url(#marker7359)"
         d="m 150.1373,359.2976 c 10,22 12,45 10,63"
         id="path7494-1-6-3-5-7-82-1-6-1-2-5-2-0"
         inkscape:connector-curvature="0"
         sodipodi:nodetypes="cc" />
      <path
         sodipodi:type="arc"
         style="color:#000000;fill:#ffffff;fill-opacity:1;fill-rule:nonzero;stroke:#000000;stroke-width:1.5;stroke-linecap:round;stroke-linejoin:round;stroke-miterlimit:4;stroke-opacity:1;stroke-dasharray:none;stroke-dashoffset:0;marker:none;visibility:visible;display:inline;overflow:visible;enable-background:accumulate"
         id="path19730-2-9-1-7-0-5"
         sodipodi:cx="406"
         sodipodi:cy="2776"
         sodipodi:rx="15"
         sodipodi:ry="15"
         d="m 421,2776 c 0,8.2843 -6.71573,15 -15,15 -8.28427,0 -15,-6.7157 -15,-15 0,-8.2843 6.71573,-15 15,-15 8.25391,0 14.957,6.6684 14.9998,14.9222"
         sodipodi:start="0"
         sodipodi:end="6.278"
         sodipodi:open="true"
         transform="matrix(0.8062,0,0,0.8062,-163.8627,-1857.6024)" />
      <text
         xml:space="preserve"
         style="font-size:14.51159954px;font-style:normal;font-variant:normal;font-weight:normal;font-stretch:normal;text-align:start;line-height:125%;letter-spacing:0px;word-spacing:0px;writing-mode:lr-tb;text-anchor:start;fill:#000000;fill-opacity:1;stroke:none;font-family:Standard Symbols L;-inkscape-font-specification:Standard Symbols L"
         x="155.75656"
         y="385.28589"
         id="text8484-0-0-0-8-7-5-4-9-8-7-8"
         sodipodi:linespacing="125%"><tspan
           sodipodi:role="line"
           id="tspan8486-3-0-4-3-7-4-0-15-5-8-9"
           x="155.75656"
           y="385.28589">13</tspan></text>
      <path
         style="fill:none;stroke:#000000;stroke-width:2.41880012;stroke-linecap:round;stroke-linejoin:round;stroke-miterlimit:4;stroke-opacity:1;stroke-dasharray:none;marker-start:url(#marker7359);marker-end:url(#marker7359)"
         d="m 240.1373,344.2976 0,66"
         id="path7494-1-6-3-5-7-82-1-6-1-2-5-2-5"
         inkscape:connector-curvature="0"
         sodipodi:nodetypes="cc" />
      <path
         sodipodi:type="arc"
         style="color:#000000;fill:#ffffff;fill-opacity:1;fill-rule:nonzero;stroke:#000000;stroke-width:1.5;stroke-linecap:round;stroke-linejoin:round;stroke-miterlimit:4;stroke-opacity:1;stroke-dasharray:none;stroke-dashoffset:0;marker:none;visibility:visible;display:inline;overflow:visible;enable-background:accumulate"
         id="path19730-2-9-1-7-0-58"
         sodipodi:cx="406"
         sodipodi:cy="2776"
         sodipodi:rx="15"
         sodipodi:ry="15"
         d="m 421,2776 c 0,8.2843 -6.71573,15 -15,15 -8.28427,0 -15,-6.7157 -15,-15 0,-8.2843 6.71573,-15 15,-15 8.25391,0 14.957,6.6684 14.9998,14.9222"
         sodipodi:start="0"
         sodipodi:end="6.278"
         sodipodi:open="true"
         transform="matrix(0.8062,0,0,0.8062,-87.8627,-1866.4024)" />
      <text
         xml:space="preserve"
         style="font-size:14.51159954px;font-style:normal;font-variant:normal;font-weight:normal;font-stretch:normal;text-align:start;line-height:125%;letter-spacing:0px;word-spacing:0px;writing-mode:lr-tb;text-anchor:start;fill:#000000;fill-opacity:1;stroke:none;font-family:Standard Symbols L;-inkscape-font-specification:Standard Symbols L"
         x="231.85092"
         y="376.57031"
         id="text8484-0-0-0-8-7-5-4-9-8-7-10"
         sodipodi:linespacing="125%"><tspan
           sodipodi:role="line"
           id="tspan8486-3-0-4-3-7-4-0-15-5-8-35"
           x="231.85092"
           y="376.57031">15</tspan></text>
      <path
         sodipodi:nodetypes="cc"
         inkscape:connector-curvature="0"
         id="path3992-4-77-9-5-7-1-2-9-8-5-4-1-4-8-7-1"
         d="m 156.1373,482.2976 115,0"
         style="fill:none;stroke:#dba981;stroke-width:1.20039999;stroke-linecap:round;stroke-linejoin:miter;stroke-miterlimit:4;stroke-opacity:1;stroke-dasharray:3.6013, 1.2004;stroke-dashoffset:0;display:inline" />
      <path
         style="fill:none;stroke:#dba981;stroke-width:0.82749999;stroke-linecap:round;stroke-linejoin:round;stroke-miterlimit:4;stroke-opacity:1;stroke-dasharray:none;display:inline"
         d="m 241.1373,433.2976 14,14"
         id="path8279-7"
         inkscape:connector-curvature="0"
         sodipodi:nodetypes="cc" />
      <path
         style="fill:none;stroke:#dba981;stroke-width:0.82749999;stroke-linecap:round;stroke-linejoin:round;stroke-miterlimit:4;stroke-opacity:1;stroke-dasharray:none;display:inline"
         d="m 255.1373,433.2976 -14,14"
         id="path8279-3-7"
         inkscape:connector-curvature="0"
         sodipodi:nodetypes="cc" />
    </g>
  </g>
</svg>
