<?xml version="1.0" encoding="UTF-8" standalone="no"?>
<!-- Created with Inkscape (http://www.inkscape.org/) -->

<svg
   xmlns:dc="http://purl.org/dc/elements/1.1/"
   xmlns:cc="http://creativecommons.org/ns#"
   xmlns:rdf="http://www.w3.org/1999/02/22-rdf-syntax-ns#"
   xmlns:svg="http://www.w3.org/2000/svg"
   xmlns="http://www.w3.org/2000/svg"
   xmlns:sodipodi="http://sodipodi.sourceforge.net/DTD/sodipodi-0.dtd"
   xmlns:inkscape="http://www.inkscape.org/namespaces/inkscape"
   width="169.70647"
   height="216.9465"
   id="svg9034"
   version="1.1"
   inkscape:version="0.48.4 r9939"
   sodipodi:docname="Новий документ 84">
  <defs
     id="defs9036" />
  <sodipodi:namedview
     id="base"
     pagecolor="#ffffff"
     bordercolor="#666666"
     borderopacity="1.0"
     inkscape:pageopacity="0.0"
     inkscape:pageshadow="2"
     inkscape:zoom="1.4"
     inkscape:cx="130.4409"
     inkscape:cy="55.013163"
     inkscape:document-units="px"
     inkscape:current-layer="layer1"
     showgrid="false"
     fit-margin-top="0"
     fit-margin-left="0"
     fit-margin-right="0"
     fit-margin-bottom="0"
     inkscape:window-width="1855"
     inkscape:window-height="1056"
     inkscape:window-x="65"
     inkscape:window-y="24"
     inkscape:window-maximized="1" />
  <metadata
     id="metadata9039">
    <rdf:RDF>
      <cc:Work
         rdf:about="">
        <dc:format>image/svg+xml</dc:format>
        <dc:type
           rdf:resource="http://purl.org/dc/dcmitype/StillImage" />
        <dc:title></dc:title>
      </cc:Work>
    </rdf:RDF>
  </metadata>
  <g
     inkscape:label="Layer 1"
     inkscape:groupmode="layer"
     id="layer1"
     transform="translate(-75.146762,-286.74604)">
    <g
       id="g9145">
      <path
         style="fill:none;stroke:#dba981;stroke-width:0.82749999;stroke-linecap:round;stroke-linejoin:round;stroke-miterlimit:4;stroke-opacity:1;stroke-dasharray:none;display:inline"
         d="m 185.09857,388.1926 14.7,14"
         id="path8279-35"
         inkscape:connector-curvature="0"
         sodipodi:nodetypes="cc" />
      <path
         style="fill:none;stroke:#dba981;stroke-width:0.82749999;stroke-linecap:round;stroke-linejoin:round;stroke-miterlimit:4;stroke-opacity:1;stroke-dasharray:none;display:inline"
         d="m 199.79857,388.1926 -14.7,14"
         id="path8279-3-8"
         inkscape:connector-curvature="0"
         sodipodi:nodetypes="cc" />
      <path
         style="fill:none;stroke:#dba981;stroke-width:1.20039999;stroke-linecap:round;stroke-linejoin:miter;stroke-miterlimit:4;stroke-opacity:1;stroke-dasharray:3.6013, 1.2004;stroke-dashoffset:0;display:inline"
         d="m 99.39857,466.1926 119.4,0"
         id="path8471-6-6-6-8-7-8-3-3-9-3-9-1-3-3-4-6-5-05"
         inkscape:connector-curvature="0"
         sodipodi:nodetypes="cc" />
      <path
         sodipodi:nodetypes="cc"
         inkscape:connector-curvature="0"
         id="path8471-6-6-6-8-7-8-3-3-9-3-9-1-3-3-4-6-5"
         d="m 94.29857,443.1926 128.2,0"
         style="fill:none;stroke:#dba981;stroke-width:1.20039999;stroke-linecap:round;stroke-linejoin:miter;stroke-miterlimit:4;stroke-opacity:1;stroke-dasharray:3.6013, 1.2004;stroke-dashoffset:0" />
      <path
         sodipodi:nodetypes="cc"
         inkscape:connector-curvature="0"
         id="path8471-6-6-6-8-7-8-3-3-9-3-9-1-0-2-9-3-0"
         d="m 87.89857,411.1926 142.7,0"
         style="fill:none;stroke:#dba981;stroke-width:1.20039999;stroke-linecap:round;stroke-linejoin:miter;stroke-miterlimit:4;stroke-opacity:1;stroke-dasharray:3.6013, 1.2004;stroke-dashoffset:0" />
      <path
         style="fill:none;stroke:#dba981;stroke-width:1.20039999;stroke-linecap:round;stroke-linejoin:miter;stroke-miterlimit:4;stroke-opacity:1;stroke-dasharray:3.6013, 1.2004;stroke-dashoffset:0"
         d="m 129.79857,329.1926 c 12.1,-6 46.7,-7 58.8,1"
         id="path3992-4-77-9-5-7-1-0-3-9-9-0-7-8"
         inkscape:connector-curvature="0"
         sodipodi:nodetypes="cc" />
      <path
         style="fill:none;stroke:#dba981;stroke-width:2.9999001;stroke-linecap:round;stroke-linejoin:miter;stroke-miterlimit:4;stroke-opacity:1;stroke-dasharray:none"
         d="m 231.39857,411.1926 c -16.2,-20 -8.1,-41 0,-64"
         id="path8584-0-8-6-3-5-9-1-8-8-0"
         inkscape:connector-curvature="0"
         sodipodi:nodetypes="cc" />
      <path
         style="fill:none;stroke:#dba981;stroke-width:2.9999001;stroke-linecap:round;stroke-linejoin:miter;stroke-miterlimit:4;stroke-opacity:1;stroke-dasharray:none"
         d="m 87.89857,411.1926 c 13.7,-18 11.3,-37 -1.6,-64"
         id="path8584-6-5-3-6-1-2-7-3-1-8-7"
         inkscape:connector-curvature="0"
         sodipodi:nodetypes="cc" />
      <path
         style="fill:none;stroke:#dba981;stroke-width:2.9999001;stroke-linecap:round;stroke-linejoin:miter;stroke-miterlimit:4;stroke-opacity:1;stroke-dasharray:none"
         d="m 105.59857,502.1926 c -3.2,-18 -5.6,-31 -9.7,-48 -2.4,-11 -1.6,-24 -5.6,-36 -9.7,-20 -21,-49 -7.3,-69 7.3,-9 28.2,-8 44.4,-18 3.2,-1 4.8,-6 5.6,-10 0,-5 -0.8,-13 -0.8,-13 0,0 18.5,-7 27.4,-7 9.7,0 26.6,7 26.6,7 0,0 -1.6,9 -0.8,13 0.8,4 2.4,9 5.7,11 16.1,9 37,8 44.3,17 17.7,24 1.6,49 -7.3,70 -4,11 -4,24 -6.4,35 -3.2,17 -6.5,31 -9.7,47"
         id="path11142-0-5-6-7-5-6"
         inkscape:connector-curvature="0"
         sodipodi:nodetypes="ccccccccccccccc" />
      <path
         sodipodi:nodetypes="cc"
         inkscape:connector-curvature="0"
         id="path8471-6-6-6-8-7-8-3-3-9-1-2-5-4-2-0"
         d="m 107.19857,501.1926 104.8,0"
         style="fill:none;stroke:#dba981;stroke-width:1.20039999;stroke-linecap:round;stroke-linejoin:miter;stroke-miterlimit:4;stroke-opacity:1;stroke-dasharray:3.6013, 1.2004;stroke-dashoffset:0" />
      <g
         id="text6934-6-9-7-0-3-1-4"
         style="font-size:14.51159954px;font-style:normal;font-variant:normal;font-weight:normal;font-stretch:normal;text-align:start;line-height:125%;letter-spacing:0px;word-spacing:0px;writing-mode:lr-tb;text-anchor:start;fill:#000000;fill-opacity:1;stroke:none;font-family:Standard Symbols L;-inkscape-font-specification:Standard Symbols L">
        <path
           id="path9137"
           d="m 145.4127,292.71932 0,3.8759 2.29578,0 c 0.76998,0 1.3392,-0.15825 1.70766,-0.47474 0.37318,-0.32122 0.55977,-0.81014 0.55978,-1.46675 -1e-5,-0.66133 -0.1866,-1.14789 -0.55978,-1.45967 -0.36846,-0.31649 -0.93768,-0.47474 -1.70766,-0.47474 l -2.29578,0 m 0,-4.35065 0,3.18859 2.11864,0 c 0.69912,0 1.21874,-0.1299 1.55886,-0.38972 0.34483,-0.26453 0.51725,-0.66605 0.51726,-1.20457 -1e-5,-0.53379 -0.17243,-0.93295 -0.51726,-1.19749 -0.34012,-0.26453 -0.85974,-0.3968 -1.55886,-0.39681 l -2.11864,0 m -1.43132,-1.17623 3.65624,0 c 1.0912,1e-5 1.93204,0.22676 2.52253,0.68023 0.59047,0.4535 0.8857,1.0983 0.88571,1.93441 -1e-5,0.64717 -0.15117,1.16207 -0.45348,1.54469 -0.30234,0.38264 -0.74638,0.62119 -1.33212,0.71566 0.70384,0.15117 1.24944,0.46767 1.6368,0.94949 0.39207,0.47711 0.58811,1.07468 0.58812,1.79269 -1e-5,0.94477 -0.32123,1.6746 -0.96366,2.1895 -0.64245,0.5149 -1.55651,0.77234 -2.74218,0.77234 l -3.79796,0 0,-10.57901"
           inkscape:connector-curvature="0" />
        <path
           id="path9139"
           d="m 157.47972,293.78218 c -1.05342,1e-5 -1.78325,0.12046 -2.1895,0.36137 -0.40625,0.24092 -0.60937,0.6519 -0.60937,1.23292 0,0.46294 0.15116,0.8314 0.45349,1.10538 0.30704,0.26926 0.72274,0.40389 1.24709,0.40389 0.72274,0 1.30141,-0.25509 1.736,-0.76526 0.43931,-0.5149 0.65897,-1.19749 0.65898,-2.04778 l 0,-0.29052 -1.29669,0 m 2.60046,-0.53852 0,4.52779 -1.30377,0 0,-1.20457 c -0.29761,0.48183 -0.66843,0.83848 -1.11246,1.06994 -0.44405,0.22675 -0.98729,0.34012 -1.62972,0.34012 -0.81251,0 -1.45967,-0.22674 -1.9415,-0.68023 -0.47711,-0.45821 -0.71566,-1.06995 -0.71566,-1.83521 0,-0.8928 0.2976,-1.56594 0.89281,-2.01943 0.59992,-0.45349 1.49272,-0.68023 2.67841,-0.68024 l 1.82812,0 0,-0.12754 c -1e-5,-0.59992 -0.19841,-1.06285 -0.59521,-1.3888 -0.39208,-0.33067 -0.94477,-0.496 -1.65806,-0.49601 -0.45349,10e-6 -0.89517,0.0543 -1.32503,0.16298 -0.42987,0.10865 -0.84321,0.27162 -1.24001,0.48891 l 0,-1.20457 c 0.47711,-0.18423 0.94004,-0.32122 1.38881,-0.41098 0.44876,-0.0945 0.88571,-0.1417 1.31086,-0.14171 1.14789,10e-6 2.00526,0.29761 2.57212,0.8928 0.56686,0.59521 0.85029,1.49746 0.85029,2.70675"
           inkscape:connector-curvature="0" />
        <path
           id="path9141"
           d="m 168.48387,290.14011 0,1.21875 c -0.36846,-0.20312 -0.73928,-0.35428 -1.11246,-0.45349 -0.36846,-0.10392 -0.74165,-0.15588 -1.11955,-0.15589 -0.84557,10e-6 -1.50218,0.26927 -1.96983,0.80778 -0.46766,0.5338 -0.70149,1.28488 -0.70149,2.25326 0,0.96839 0.23383,1.72184 0.70149,2.26036 0.46765,0.53379 1.12426,0.80069 1.96983,0.80068 0.3779,1e-5 0.75109,-0.0496 1.11955,-0.1488 0.37318,-0.10392 0.744,-0.25744 1.11246,-0.46057 l 0,1.20458 c -0.36374,0.17005 -0.74164,0.2976 -1.13372,0.38263 -0.38736,0.085 -0.80069,0.12754 -1.24,0.12754 -1.19513,0 -2.14462,-0.37554 -2.84847,-1.12663 -0.70385,-0.75109 -1.05578,-1.76435 -1.05577,-3.03979 -10e-6,-1.29432 0.35428,-2.3123 1.06286,-3.05395 0.71329,-0.74163 1.68876,-1.11245 2.92641,-1.11246 0.40152,10e-6 0.7936,0.0425 1.17623,0.12754 0.38262,0.0803 0.75344,0.20313 1.11246,0.36846"
           inkscape:connector-curvature="0" />
        <path
           id="path9143"
           d="m 170.71588,286.74604 1.31086,0 0,6.5118 3.89008,-3.42242 1.66515,0 -4.20893,3.71293 4.38607,4.2231 -1.70058,0 -4.03179,-3.8759 0,3.8759 -1.31086,0 0,-11.02541"
           inkscape:connector-curvature="0" />
      </g>
      <path
         style="fill:none;stroke:#dba981;stroke-width:1.20039999;stroke-linecap:round;stroke-linejoin:miter;stroke-miterlimit:4;stroke-opacity:1;stroke-dasharray:3.6013, 1.2004;stroke-dashoffset:0"
         d="m 92.69857,423.1926 132.2,0"
         id="path8471-6-6-6-8-7-8-3-3-9-3-9-1-5-9-7-0"
         inkscape:connector-curvature="0"
         sodipodi:nodetypes="cc" />
      <path
         sodipodi:nodetypes="cc"
         inkscape:connector-curvature="0"
         id="path7494-1-6-3-5-81-64-9-2-0-5-7-3-2-4-0-9-7"
         d="m 200.69857,500.1926 -13.7,-171"
         style="fill:none;stroke:#000000;stroke-width:2.41860008;stroke-linecap:round;stroke-linejoin:round;stroke-miterlimit:4;stroke-opacity:1;stroke-dasharray:none;marker-start:url(#marker7359);marker-end:url(#marker7359)" />
      <path
         style="fill:none;stroke:#000000;stroke-width:2.41860008;stroke-linecap:round;stroke-linejoin:round;stroke-miterlimit:4;stroke-opacity:1;stroke-dasharray:none;marker-start:url(#marker7359);marker-end:url(#marker7359)"
         d="m 106.39857,501.1926 c -4.8,-54 -0.8,-125 -17.7,-155"
         id="path7494-1-6-3-5-81-64-9-2-0-5-7-3-2-4-0-9-7-5"
         inkscape:connector-curvature="0"
         sodipodi:nodetypes="cc" />
      <path
         style="fill:none;stroke:#000000;stroke-width:2.41860008;stroke-linecap:round;stroke-linejoin:round;stroke-miterlimit:4;stroke-opacity:1;stroke-dasharray:none;marker-start:url(#marker7359);marker-end:url(#marker7359)"
         d="m 128.99857,501.1926 0,-174"
         id="path7494-1-6-3-5-81-64-9-2-0-5-7-3-2-4-0-9-7-7"
         inkscape:connector-curvature="0"
         sodipodi:nodetypes="cc" />
      <path
         style="fill:none;stroke:#000000;stroke-width:2.41860008;stroke-linecap:round;stroke-linejoin:round;stroke-miterlimit:4;stroke-opacity:1;stroke-dasharray:none;marker-start:url(#marker7359);marker-end:url(#marker7359)"
         d="m 159.59857,501.1926 0,-177"
         id="path7494-1-6-3-5-81-64-9-2-0-5-7-3-2-4-0-9-7-74"
         inkscape:connector-curvature="0"
         sodipodi:nodetypes="cc" />
      <path
         style="color:#000000;fill:#ffffff;fill-opacity:1;stroke:#00000f;stroke-width:1.12259996;stroke-linecap:round;stroke-linejoin:miter;stroke-miterlimit:4;stroke-opacity:0.94120029;stroke-dashoffset:0;marker:none;visibility:visible;display:inline;overflow:visible;enable-background:accumulate"
         d="m 208.79857,465.1926 c 0,7 -5.7,11 -11.3,11 -6.4,0 -11.3,-4 -11.3,-11 0,-6 4.9,-11 11.3,-11 5.6,0 10.5,5 11.3,11"
         id="path4050-8-0-5-3-4-0-7-3-0-68-5-6-5-9-3-0-9-0"
         inkscape:connector-curvature="0" />
      <text
         xml:space="preserve"
         style="font-size:14.51159954px;font-style:normal;font-variant:normal;font-weight:normal;font-stretch:normal;text-align:start;line-height:125%;letter-spacing:0px;word-spacing:0px;writing-mode:lr-tb;text-anchor:start;fill:#000000;fill-opacity:1;stroke:none;font-family:Standard Symbols L;-inkscape-font-specification:Standard Symbols L"
         x="190.2718"
         y="470.07565"
         id="text8512-9-6-3-7-2-5-4"
         sodipodi:linespacing="125%"><tspan
           sodipodi:role="line"
           id="tspan8514-9-9-1-0-8-3-6"
           x="190.2718"
           y="470.07565">20</tspan></text>
      <path
         inkscape:connector-curvature="0"
         id="path4050-8-0-5-3-4-0-7-3-0-68-5-6-5-9-3-0-9-0-7"
         d="m 116.09857,465.1926 c 0,7 -5.7,11 -11.3,11 -6.5,0 -11.3,-4 -11.3,-11 0,-6 4.8,-11 11.3,-11 5.6,0 10.5,5 11.3,11"
         style="color:#000000;fill:#ffffff;fill-opacity:1;stroke:#00000f;stroke-width:1.12259996;stroke-linecap:round;stroke-linejoin:miter;stroke-miterlimit:4;stroke-opacity:0.94120029;stroke-dashoffset:0;marker:none;visibility:visible;display:inline;overflow:visible;enable-background:accumulate" />
      <text
         sodipodi:linespacing="125%"
         id="text8512-9-6-3-7-2-5-4-4"
         y="470.02487"
         x="97.071114"
         style="font-size:14.51159954px;font-style:normal;font-variant:normal;font-weight:normal;font-stretch:normal;text-align:start;line-height:125%;letter-spacing:0px;word-spacing:0px;writing-mode:lr-tb;text-anchor:start;fill:#000000;fill-opacity:1;stroke:none;font-family:Standard Symbols L;-inkscape-font-specification:Standard Symbols L"
         xml:space="preserve"><tspan
           y="470.02487"
           x="97.071114"
           id="tspan8514-9-9-1-0-8-3-6-3"
           sodipodi:role="line">17</tspan></text>
      <path
         inkscape:connector-curvature="0"
         id="path4050-8-0-5-3-4-0-7-3-0-68-5-6-5-9-3-0-9-0-6"
         d="m 142.69857,465.1926 c 0,7 -5.7,11 -11.3,11 -6.5,0 -11.3,-4 -11.3,-11 0,-6 4.8,-11 11.3,-11 5.6,0 10.5,5 11.3,11"
         style="color:#000000;fill:#ffffff;fill-opacity:1;stroke:#00000f;stroke-width:1.12259996;stroke-linecap:round;stroke-linejoin:miter;stroke-miterlimit:4;stroke-opacity:0.94120029;stroke-dashoffset:0;marker:none;visibility:visible;display:inline;overflow:visible;enable-background:accumulate" />
      <text
         sodipodi:linespacing="125%"
         id="text8512-9-6-3-7-2-5-4-7"
         y="470.07565"
         x="123.72919"
         style="font-size:14.51159954px;font-style:normal;font-variant:normal;font-weight:normal;font-stretch:normal;text-align:start;line-height:125%;letter-spacing:0px;word-spacing:0px;writing-mode:lr-tb;text-anchor:start;fill:#000000;fill-opacity:1;stroke:none;font-family:Standard Symbols L;-inkscape-font-specification:Standard Symbols L"
         xml:space="preserve"><tspan
           y="470.07565"
           x="123.72919"
           id="tspan8514-9-9-1-0-8-3-6-6"
           sodipodi:role="line">18</tspan></text>
      <path
         inkscape:connector-curvature="0"
         id="path4050-8-0-5-3-4-0-7-3-0-68-5-6-5-9-3-0-9-0-0"
         d="m 170.89857,465.1926 c 0,7 -5.6,11 -11.3,11 -6.4,0 -11.3,-4 -11.3,-11 0,-6 4.9,-11 11.3,-11 5.7,0 10.5,5 11.3,11"
         style="color:#000000;fill:#ffffff;fill-opacity:1;stroke:#00000f;stroke-width:1.12259996;stroke-linecap:round;stroke-linejoin:miter;stroke-miterlimit:4;stroke-opacity:0.94120029;stroke-dashoffset:0;marker:none;visibility:visible;display:inline;overflow:visible;enable-background:accumulate" />
      <text
         sodipodi:linespacing="125%"
         id="text8512-9-6-3-7-2-5-4-8"
         y="470.07565"
         x="151.78407"
         style="font-size:14.51159954px;font-style:normal;font-variant:normal;font-weight:normal;font-stretch:normal;text-align:start;line-height:125%;letter-spacing:0px;word-spacing:0px;writing-mode:lr-tb;text-anchor:start;fill:#000000;fill-opacity:1;stroke:none;font-family:Standard Symbols L;-inkscape-font-specification:Standard Symbols L"
         xml:space="preserve"><tspan
           y="470.07565"
           x="151.78407"
           id="tspan8514-9-9-1-0-8-3-6-2"
           sodipodi:role="line">19</tspan></text>
    </g>
  </g>
</svg>
