<?xml version="1.0" encoding="UTF-8" standalone="no"?>
<!-- Created with Inkscape (http://www.inkscape.org/) -->

<svg
   xmlns:dc="http://purl.org/dc/elements/1.1/"
   xmlns:cc="http://creativecommons.org/ns#"
   xmlns:rdf="http://www.w3.org/1999/02/22-rdf-syntax-ns#"
   xmlns:svg="http://www.w3.org/2000/svg"
   xmlns="http://www.w3.org/2000/svg"
   xmlns:sodipodi="http://sodipodi.sourceforge.net/DTD/sodipodi-0.dtd"
   xmlns:inkscape="http://www.inkscape.org/namespaces/inkscape"
   width="169.81744"
   height="218.30708"
   id="svg9241"
   version="1.1"
   inkscape:version="0.48.4 r9939"
   sodipodi:docname="Новий документ 87">
  <defs
     id="defs9243" />
  <sodipodi:namedview
     id="base"
     pagecolor="#ffffff"
     bordercolor="#666666"
     borderopacity="1.0"
     inkscape:pageopacity="0.0"
     inkscape:pageshadow="2"
     inkscape:zoom="1.979899"
     inkscape:cx="146.94203"
     inkscape:cy="122.11153"
     inkscape:document-units="px"
     inkscape:current-layer="layer1"
     showgrid="false"
     fit-margin-top="0"
     fit-margin-left="0"
     fit-margin-right="0"
     fit-margin-bottom="0"
     inkscape:window-width="1855"
     inkscape:window-height="1056"
     inkscape:window-x="65"
     inkscape:window-y="24"
     inkscape:window-maximized="1" />
  <metadata
     id="metadata9246">
    <rdf:RDF>
      <cc:Work
         rdf:about="">
        <dc:format>image/svg+xml</dc:format>
        <dc:type
           rdf:resource="http://purl.org/dc/dcmitype/StillImage" />
        <dc:title></dc:title>
      </cc:Work>
    </rdf:RDF>
  </metadata>
  <g
     inkscape:label="Layer 1"
     inkscape:groupmode="layer"
     id="layer1"
     transform="translate(-103.66274,-297.49436)">
    <g
       id="g9361">
      <path
         style="fill:none;stroke:#dba981;stroke-width:2.5;stroke-linecap:round;stroke-linejoin:miter;stroke-miterlimit:4;stroke-opacity:1;stroke-dasharray:7.5, 7.5;stroke-dashoffset:0;display:inline"
         d="m 168.7946,336.3015 35,0"
         id="path8471-6-6-6-8-7-8-3-3-9-3-9-1-0-2-9-3-0-4-0-2"
         inkscape:connector-curvature="0"
         sodipodi:nodetypes="cc" />
      <path
         style="fill:none;stroke:#dba981;stroke-width:1.20039999;stroke-linecap:round;stroke-linejoin:miter;stroke-miterlimit:4;stroke-opacity:1;stroke-dasharray:3.6013, 1.2004;stroke-dashoffset:0;display:inline"
         d="m 127.7946,481.3015 119,0"
         id="path8471-6-6-6-8-7-8-3-3-9-3-9-1-3-3-4-6-5-0-7-5"
         inkscape:connector-curvature="0"
         sodipodi:nodetypes="cc" />
      <path
         sodipodi:nodetypes="cc"
         inkscape:connector-curvature="0"
         id="path8471-6-6-6-8-7-8-3-3-9-3-9-1-3-3-4-6-5-0-7"
         d="m 120.7946,454.3015 133,0"
         style="fill:none;stroke:#dba981;stroke-width:1.20039999;stroke-linecap:round;stroke-linejoin:miter;stroke-miterlimit:4;stroke-opacity:1;stroke-dasharray:3.6013, 1.2004;stroke-dashoffset:0" />
      <path
         sodipodi:nodetypes="cc"
         inkscape:connector-curvature="0"
         id="path8471-6-6-6-8-7-8-3-3-9-3-9-1-0-2-9-3-0-4-0"
         d="m 116.7946,423.3015 142,0"
         style="fill:none;stroke:#dba981;stroke-width:1.20039999;stroke-linecap:round;stroke-linejoin:miter;stroke-miterlimit:4;stroke-opacity:1;stroke-dasharray:3.6013, 1.2004;stroke-dashoffset:0" />
      <path
         style="fill:none;stroke:#dba981;stroke-width:1.20039999;stroke-linecap:round;stroke-linejoin:miter;stroke-miterlimit:4;stroke-opacity:1;stroke-dasharray:3.6013, 1.2004;stroke-dashoffset:0"
         d="m 158.7946,341.3015 c 12,-6 46,-7 58,1"
         id="path3992-4-77-9-5-7-1-0-3-9-9-0-7-8-2-2"
         inkscape:connector-curvature="0"
         sodipodi:nodetypes="cc" />
      <path
         style="fill:none;stroke:#dba981;stroke-width:2.9999001;stroke-linecap:round;stroke-linejoin:miter;stroke-miterlimit:4;stroke-opacity:1;stroke-dasharray:none"
         d="m 259.7946,423.3015 c -16,-20 -8,-41 0,-64"
         id="path8584-0-8-6-3-5-9-1-8-8-0-5-1"
         inkscape:connector-curvature="0"
         sodipodi:nodetypes="cc" />
      <path
         style="fill:none;stroke:#dba981;stroke-width:2.9999001;stroke-linecap:round;stroke-linejoin:miter;stroke-miterlimit:4;stroke-opacity:1;stroke-dasharray:none"
         d="m 116.7946,423.3015 c 13,-19 11,-37 -2,-64"
         id="path8584-6-5-3-6-1-2-7-3-1-8-7-6-8"
         inkscape:connector-curvature="0"
         sodipodi:nodetypes="cc" />
      <path
         style="fill:none;stroke:#dba981;stroke-width:2.9999001;stroke-linecap:round;stroke-linejoin:miter;stroke-miterlimit:4;stroke-opacity:1;stroke-dasharray:none"
         d="m 133.7946,514.3015 c -3,-18 -5,-31 -9,-48 -3,-12 -2,-24 -6,-36 -10,-20 -21,-49 -7,-69 7,-9 28,-8 44,-18 7,-5 6,-15 5,-23 23,-7 31,-8 54,0 -1,8 -2,19 5,24 16,9 37,8 44,17 18,24 2,49 -7,70 -4,11 -4,23 -7,35 -3,17 -6,31 -9,47"
         id="path11142-0-5-6-7-5-6-6-2"
         inkscape:connector-curvature="0"
         sodipodi:nodetypes="cccccccccccc" />
      <path
         sodipodi:nodetypes="cc"
         inkscape:connector-curvature="0"
         id="path8471-6-6-6-8-7-8-3-3-9-1-2-5-4-2-0-8-1"
         d="m 135.7946,513.3015 105,0"
         style="fill:none;stroke:#dba981;stroke-width:1.20039999;stroke-linecap:round;stroke-linejoin:miter;stroke-miterlimit:4;stroke-opacity:1;stroke-dasharray:3.6013, 1.2004;stroke-dashoffset:0" />
      <g
         id="text6934-6-9-7-0-3-1-4-9-8"
         style="font-size:14.51159954px;font-style:normal;font-variant:normal;font-weight:normal;font-stretch:normal;text-align:start;line-height:125%;letter-spacing:0px;word-spacing:0px;writing-mode:lr-tb;text-anchor:start;fill:#000000;fill-opacity:1;stroke:none;font-family:Standard Symbols L;-inkscape-font-specification:Standard Symbols L">
        <path
           id="path9353"
           d="m 173.09913,303.46764 0,3.8759 2.29578,0 c 0.76998,0 1.3392,-0.15824 1.70766,-0.47474 0.37318,-0.32122 0.55977,-0.81014 0.55978,-1.46675 -1e-5,-0.66133 -0.1866,-1.14789 -0.55978,-1.45966 -0.36846,-0.3165 -0.93768,-0.47474 -1.70766,-0.47475 l -2.29578,0 m 0,-4.35064 0,3.18858 2.11864,0 c 0.69912,10e-6 1.21874,-0.1299 1.55886,-0.38972 0.34483,-0.26452 0.51725,-0.66605 0.51726,-1.20457 -1e-5,-0.53379 -0.17243,-0.93295 -0.51726,-1.19749 -0.34012,-0.26453 -0.85974,-0.39679 -1.55886,-0.3968 l -2.11864,0 m -1.43132,-1.17624 3.65624,0 c 1.0912,10e-6 1.93204,0.22676 2.52253,0.68023 0.59047,0.4535 0.88571,1.0983 0.88571,1.93441 0,0.64717 -0.15117,1.16207 -0.45348,1.54469 -0.30234,0.38264 -0.74637,0.62119 -1.33212,0.71566 0.70384,0.15117 1.24944,0.46767 1.6368,0.94949 0.39207,0.47711 0.58811,1.07468 0.58812,1.7927 -10e-6,0.94476 -0.32123,1.67459 -0.96366,2.18949 -0.64245,0.5149 -1.55651,0.77235 -2.74218,0.77235 l -3.79796,0 0,-10.57902"
           inkscape:connector-curvature="0" />
        <path
           id="path9355"
           d="m 185.16615,304.5305 c -1.05342,10e-6 -1.78325,0.12046 -2.1895,0.36138 -0.40625,0.24091 -0.60937,0.65189 -0.60937,1.23291 0,0.46294 0.15116,0.8314 0.45349,1.10538 0.30704,0.26926 0.72274,0.40389 1.24709,0.40389 0.72274,0 1.30141,-0.25509 1.73601,-0.76526 0.43931,-0.5149 0.65896,-1.19749 0.65897,-2.04778 l 0,-0.29052 -1.29669,0 m 2.60047,-0.53851 0,4.52779 -1.30378,0 0,-1.20458 c -0.29761,0.48183 -0.66843,0.83848 -1.11246,1.06995 -0.44405,0.22674 -0.98729,0.34011 -1.62972,0.34011 -0.8125,0 -1.45967,-0.22674 -1.9415,-0.68023 -0.4771,-0.45821 -0.71566,-1.06994 -0.71566,-1.83521 0,-0.8928 0.2976,-1.56594 0.89281,-2.01943 0.59992,-0.45349 1.49272,-0.68023 2.67841,-0.68023 l 1.82812,0 0,-0.12755 c -1e-5,-0.59992 -0.19841,-1.06285 -0.5952,-1.3888 -0.39209,-0.33066 -0.94477,-0.496 -1.65807,-0.496 -0.45349,0 -0.89517,0.0543 -1.32503,0.16297 -0.42987,0.10865 -0.84321,0.27162 -1.24001,0.48891 l 0,-1.20457 c 0.47711,-0.18422 0.94004,-0.32122 1.38881,-0.41098 0.44876,-0.0945 0.88571,-0.1417 1.31086,-0.14171 1.14789,1e-5 2.00526,0.29761 2.57213,0.8928 0.56685,0.59521 0.85028,1.49746 0.85029,2.70676"
           inkscape:connector-curvature="0" />
        <path
           id="path9357"
           d="m 196.1703,300.88843 0,1.21875 c -0.36846,-0.20312 -0.73928,-0.35428 -1.11246,-0.45349 -0.36846,-0.10392 -0.74164,-0.15588 -1.11954,-0.15588 -0.84557,0 -1.50219,0.26926 -1.96984,0.80777 -0.46766,0.5338 -0.70149,1.28489 -0.70149,2.25327 0,0.96838 0.23383,1.72183 0.70149,2.26035 0.46765,0.53379 1.12427,0.80069 1.96984,0.80069 0.3779,0 0.75108,-0.0496 1.11954,-0.1488 0.37318,-0.10393 0.744,-0.25745 1.11246,-0.46058 l 0,1.20458 c -0.36374,0.17006 -0.74164,0.2976 -1.13371,0.38263 -0.38736,0.085 -0.8007,0.12754 -1.24001,0.12754 -1.19513,0 -2.14462,-0.37554 -2.84847,-1.12663 -0.70385,-0.75109 -1.05577,-1.76435 -1.05577,-3.03978 0,-1.29433 0.35428,-2.31231 1.06286,-3.05396 0.71329,-0.74163 1.68876,-1.11245 2.92641,-1.11246 0.40152,1e-5 0.7936,0.0425 1.17623,0.12754 0.38263,0.0803 0.75345,0.20314 1.11246,0.36846"
           inkscape:connector-curvature="0" />
        <path
           id="path9359"
           d="m 198.40231,297.49436 1.31087,0 0,6.5118 3.89007,-3.42242 1.66515,0 -4.20893,3.71293 4.38607,4.22311 -1.70058,0 -4.03178,-3.87591 0,3.87591 -1.31087,0 0,-11.02542"
           inkscape:connector-curvature="0" />
      </g>
      <path
         style="fill:none;stroke:#dba981;stroke-width:1.20039999;stroke-linecap:round;stroke-linejoin:miter;stroke-miterlimit:4;stroke-opacity:1;stroke-dasharray:3.6013, 1.2004;stroke-dashoffset:0"
         d="m 120.7946,435.3015 133,0"
         id="path8471-6-6-6-8-7-8-3-3-9-3-9-1-5-9-7-0-5-8"
         inkscape:connector-curvature="0"
         sodipodi:nodetypes="cc" />
      <path
         sodipodi:nodetypes="cc"
         inkscape:connector-curvature="0"
         id="path7494-1-6-3-5-81-64-9-2-0-5-7-3-2-4-0-9-7-9-3"
         d="m 219.7946,514.3015 0,-60"
         style="fill:none;stroke:#000000;stroke-width:2.41860008;stroke-linecap:round;stroke-linejoin:round;stroke-miterlimit:4;stroke-opacity:1;stroke-dasharray:none;marker-start:url(#marker7359);marker-end:url(#marker7359)" />
      <path
         style="fill:none;stroke:#000000;stroke-width:2.41860008;stroke-linecap:round;stroke-linejoin:round;stroke-miterlimit:4;stroke-opacity:1;stroke-dasharray:none;marker-start:url(#marker7359);marker-end:url(#marker7359)"
         d="m 178.7946,422.3015 0,-86"
         id="path7494-1-6-3-5-81-64-9-2-0-5-7-3-2-4-0-9-7-7-7-9"
         inkscape:connector-curvature="0"
         sodipodi:nodetypes="cc" />
      <path
         style="fill:none;stroke:#000000;stroke-width:2.41880012;stroke-linecap:round;stroke-linejoin:round;stroke-miterlimit:4;stroke-opacity:1;stroke-dasharray:none;marker-start:url(#marker7359);marker-end:url(#marker7359)"
         d="m 195.7946,434.3015 0,-98"
         id="path7494-1-6-3-5-81-64-9-2-0-5-7-3-2-4-0-9-7-74-7-8"
         inkscape:connector-curvature="0"
         sodipodi:nodetypes="cc" />
      <path
         inkscape:connector-curvature="0"
         id="path4050-8-0-5-3-4-0-7-3-0-68-5-6-5-9-3-0-9-0-0-8-4"
         d="m 206.7946,405.3015 c 0,7 -5,12 -11,12 -6,0 -11,-5 -11,-12 0,-6 5,-11 11,-11 6,0 11,5 11,11"
         style="color:#000000;fill:#ffffff;fill-opacity:1;stroke:#00000f;stroke-width:1.12259996;stroke-linecap:round;stroke-linejoin:miter;stroke-miterlimit:4;stroke-opacity:0.94120029;stroke-dashoffset:0;marker:none;visibility:visible;display:inline;overflow:visible;enable-background:accumulate" />
      <text
         sodipodi:linespacing="125%"
         id="text8512-9-6-3-7-2-5-4-8-9-0"
         y="410.42651"
         x="187.42192"
         style="font-size:14.51159954px;font-style:normal;font-variant:normal;font-weight:normal;font-stretch:normal;text-align:start;line-height:125%;letter-spacing:0px;word-spacing:0px;writing-mode:lr-tb;text-anchor:start;fill:#000000;fill-opacity:1;stroke:none;font-family:Standard Symbols L;-inkscape-font-specification:Standard Symbols L"
         xml:space="preserve"><tspan
           y="410.42651"
           x="187.42192"
           id="tspan8514-9-9-1-0-8-3-6-2-8-4"
           sodipodi:role="line">23</tspan></text>
      <path
         sodipodi:nodetypes="cc"
         inkscape:connector-curvature="0"
         id="path7494-1-6-3-5-81-64-9-2-0-5-7-3-2-4-0-9-7-74-8"
         d="m 178.7946,513.3015 0,-90"
         style="fill:none;stroke:#7dc832;stroke-width:3.22480011;stroke-linecap:round;stroke-linejoin:round;stroke-miterlimit:4;stroke-opacity:1;stroke-dasharray:none;marker-start:url(#marker7359);marker-end:url(#marker7359);display:inline" />
      <path
         style="fill:none;stroke:#7dc832;stroke-width:3.22480011;stroke-linecap:round;stroke-linejoin:round;stroke-miterlimit:4;stroke-opacity:1;stroke-dasharray:none;marker-start:url(#marker7359);marker-end:url(#marker7359);display:inline"
         d="m 195.7946,513.3015 0,-77"
         id="path7494-1-6-3-5-81-64-9-2-0-5-7-3-2-4-0-9-7-74-8-2"
         inkscape:connector-curvature="0"
         sodipodi:nodetypes="cc" />
      <path
         sodipodi:type="arc"
         style="color:#000000;fill:#ffffff;fill-opacity:1;fill-rule:nonzero;stroke:#000000;stroke-width:1.5;stroke-linecap:round;stroke-linejoin:round;stroke-miterlimit:4;stroke-opacity:1;stroke-dasharray:none;stroke-dashoffset:0;marker:none;visibility:visible;display:inline;overflow:visible;enable-background:accumulate"
         id="path19730-2-9-1-7-8-7-0"
         sodipodi:cx="406"
         sodipodi:cy="2776"
         sodipodi:rx="15"
         sodipodi:ry="15"
         d="m 421,2776 c 0,8.2843 -6.71573,15 -15,15 -8.28427,0 -15,-6.7157 -15,-15 0,-8.2843 6.71573,-15 15,-15 8.25391,0 14.957,6.6684 14.9998,14.9222"
         sodipodi:start="0"
         sodipodi:end="6.278"
         sodipodi:open="true"
         transform="matrix(0.8062,0,0,0.8062,-132.2054,-1770.6985)" />
      <text
         sodipodi:linespacing="125%"
         id="text8512-9-6-3-7-2-5-4-8-3-9"
         y="472.53784"
         x="187.86455"
         style="font-size:14.51159954px;font-style:normal;font-variant:normal;font-weight:normal;font-stretch:normal;text-align:start;line-height:125%;letter-spacing:0px;word-spacing:0px;writing-mode:lr-tb;text-anchor:start;fill:#000000;fill-opacity:1;stroke:none;display:inline;font-family:Standard Symbols L;-inkscape-font-specification:Standard Symbols L"
         xml:space="preserve"><tspan
           y="472.53784"
           x="187.86455"
           id="tspan8514-9-9-1-0-8-3-6-2-6-3"
           sodipodi:role="line">24</tspan></text>
      <path
         sodipodi:type="arc"
         style="color:#000000;fill:#ffffff;fill-opacity:1;fill-rule:nonzero;stroke:#000000;stroke-width:1.5;stroke-linecap:round;stroke-linejoin:round;stroke-miterlimit:4;stroke-opacity:1;stroke-dasharray:none;stroke-dashoffset:0;marker:none;visibility:visible;display:inline;overflow:visible;enable-background:accumulate"
         id="path19730-2-9-1-7-8-7-2"
         sodipodi:cx="406"
         sodipodi:cy="2776"
         sodipodi:rx="15"
         sodipodi:ry="15"
         d="m 421,2776 c 0,8.2843 -6.71573,15 -15,15 -8.28427,0 -15,-6.7157 -15,-15 0,-8.2843 6.71573,-15 15,-15 8.25391,0 14.957,6.6684 14.9998,14.9222"
         sodipodi:start="0"
         sodipodi:end="6.278"
         sodipodi:open="true"
         transform="matrix(0.8062,0,0,0.8062,-149.1054,-1794.6985)" />
      <text
         xml:space="preserve"
         style="font-size:14.51159954px;font-style:normal;font-variant:normal;font-weight:normal;font-stretch:normal;text-align:start;line-height:125%;letter-spacing:0px;word-spacing:0px;writing-mode:lr-tb;text-anchor:start;fill:#000000;fill-opacity:1;stroke:none;display:inline;font-family:Standard Symbols L;-inkscape-font-specification:Standard Symbols L"
         x="171.12187"
         y="448.28052"
         id="text8512-9-6-3-7-2-5-4-8-3"
         sodipodi:linespacing="125%"><tspan
           sodipodi:role="line"
           id="tspan8514-9-9-1-0-8-3-6-2-6"
           x="171.12187"
           y="448.28052">22</tspan></text>
      <path
         sodipodi:type="arc"
         style="color:#000000;fill:#ffffff;fill-opacity:1;fill-rule:nonzero;stroke:#000000;stroke-width:1.5;stroke-linecap:round;stroke-linejoin:round;stroke-miterlimit:4;stroke-opacity:1;stroke-dasharray:none;stroke-dashoffset:0;marker:none;visibility:visible;display:inline;overflow:visible;enable-background:accumulate"
         id="path19730-2-9-1-7-8-7-7"
         sodipodi:cx="406"
         sodipodi:cy="2776"
         sodipodi:rx="15"
         sodipodi:ry="15"
         d="m 421,2776 c 0,8.2843 -6.71573,15 -15,15 -8.28427,0 -15,-6.7157 -15,-15 0,-8.2843 6.71573,-15 15,-15 8.25391,0 14.957,6.6684 14.9998,14.9222"
         sodipodi:start="0"
         sodipodi:end="6.278"
         sodipodi:open="true"
         transform="matrix(0.8062,0,0,0.8062,-108.1054,-1746.6985)" />
      <text
         xml:space="preserve"
         style="font-size:14.51159954px;font-style:normal;font-variant:normal;font-weight:normal;font-stretch:normal;text-align:start;line-height:125%;letter-spacing:0px;word-spacing:0px;writing-mode:lr-tb;text-anchor:start;fill:#000000;fill-opacity:1;stroke:none;font-family:Standard Symbols L;-inkscape-font-specification:Standard Symbols L"
         x="211.66216"
         y="496.37207"
         id="text8512-9-6-3-7-2-5-4-0-1"
         sodipodi:linespacing="125%"><tspan
           sodipodi:role="line"
           id="tspan8514-9-9-1-0-8-3-6-0-9"
           x="211.66216"
           y="496.37207">25</tspan></text>
      <path
         sodipodi:type="arc"
         style="color:#000000;fill:#ffffff;fill-opacity:1;fill-rule:nonzero;stroke:#000000;stroke-width:1.5;stroke-linecap:round;stroke-linejoin:round;stroke-miterlimit:4;stroke-opacity:1;stroke-dasharray:none;stroke-dashoffset:0;marker:none;visibility:visible;display:inline;overflow:visible;enable-background:accumulate"
         id="path19730-2-9-1-7-8-7-3"
         sodipodi:cx="406"
         sodipodi:cy="2776"
         sodipodi:rx="15"
         sodipodi:ry="15"
         d="m 421,2776 c 0,8.2843 -6.71573,15 -15,15 -8.28427,0 -15,-6.7157 -15,-15 0,-8.2843 6.71573,-15 15,-15 8.25391,0 14.957,6.6684 14.9998,14.9222"
         sodipodi:start="0"
         sodipodi:end="6.278"
         sodipodi:open="true"
         transform="matrix(0.8062,0,0,0.8062,-149.1054,-1859.6985)" />
      <text
         sodipodi:linespacing="125%"
         id="text8512-9-6-3-7-2-5-4-7-0-8"
         y="382.93213"
         x="171.15813"
         style="font-size:14.51159954px;font-style:normal;font-variant:normal;font-weight:normal;font-stretch:normal;text-align:start;line-height:125%;letter-spacing:0px;word-spacing:0px;writing-mode:lr-tb;text-anchor:start;fill:#000000;fill-opacity:1;stroke:none;font-family:Standard Symbols L;-inkscape-font-specification:Standard Symbols L"
         xml:space="preserve"><tspan
           y="382.93213"
           x="171.15813"
           id="tspan8514-9-9-1-0-8-3-6-6-4-7"
           sodipodi:role="line">21</tspan></text>
    </g>
  </g>
</svg>
