<?xml version="1.0" encoding="UTF-8" standalone="no"?>
<!-- Created with Inkscape (http://www.inkscape.org/) -->

<svg
   xmlns:dc="http://purl.org/dc/elements/1.1/"
   xmlns:cc="http://creativecommons.org/ns#"
   xmlns:rdf="http://www.w3.org/1999/02/22-rdf-syntax-ns#"
   xmlns:svg="http://www.w3.org/2000/svg"
   xmlns="http://www.w3.org/2000/svg"
   xmlns:sodipodi="http://sodipodi.sourceforge.net/DTD/sodipodi-0.dtd"
   xmlns:inkscape="http://www.inkscape.org/namespaces/inkscape"
   width="169.59351"
   height="216.92622"
   id="svg9459"
   version="1.1"
   inkscape:version="0.48.4 r9939"
   sodipodi:docname="Новий документ 90">
  <defs
     id="defs9461" />
  <sodipodi:namedview
     id="base"
     pagecolor="#ffffff"
     bordercolor="#666666"
     borderopacity="1.0"
     inkscape:pageopacity="0.0"
     inkscape:pageshadow="2"
     inkscape:zoom="1.4"
     inkscape:cx="42.059612"
     inkscape:cy="88.502731"
     inkscape:document-units="px"
     inkscape:current-layer="layer1"
     showgrid="false"
     fit-margin-top="0"
     fit-margin-left="0"
     fit-margin-right="0"
     fit-margin-bottom="0"
     inkscape:window-width="1855"
     inkscape:window-height="1056"
     inkscape:window-x="65"
     inkscape:window-y="24"
     inkscape:window-maximized="1" />
  <metadata
     id="metadata9464">
    <rdf:RDF>
      <cc:Work
         rdf:about="">
        <dc:format>image/svg+xml</dc:format>
        <dc:type
           rdf:resource="http://purl.org/dc/dcmitype/StillImage" />
        <dc:title></dc:title>
      </cc:Work>
    </rdf:RDF>
  </metadata>
  <g
     inkscape:label="Layer 1"
     inkscape:groupmode="layer"
     id="layer1"
     transform="translate(-212.34608,-318.18482)">
    <g
       id="g9576">
      <path
         style="fill:none;stroke:#dba981;stroke-width:0.82749999;stroke-linecap:round;stroke-linejoin:round;stroke-miterlimit:4;stroke-opacity:1;stroke-dasharray:none;display:inline"
         d="m 331.254,419.6111 14,14"
         id="path8279-6"
         inkscape:connector-curvature="0"
         sodipodi:nodetypes="cc" />
      <path
         style="fill:none;stroke:#dba981;stroke-width:0.82749999;stroke-linecap:round;stroke-linejoin:round;stroke-miterlimit:4;stroke-opacity:1;stroke-dasharray:none;display:inline"
         d="m 345.254,419.6111 -14,14"
         id="path8279-3-3"
         inkscape:connector-curvature="0"
         sodipodi:nodetypes="cc" />
      <path
         sodipodi:nodetypes="cc"
         inkscape:connector-curvature="0"
         id="path8471-6-6-6-8-7-8-3-3-9-3-9-1-0-2-9-3-0-4"
         d="m 225.254,442.6111 143,0"
         style="fill:none;stroke:#dba981;stroke-width:1.20039999;stroke-linecap:round;stroke-linejoin:miter;stroke-miterlimit:4;stroke-opacity:1;stroke-dasharray:3.6013, 1.2004;stroke-dashoffset:0" />
      <path
         style="fill:none;stroke:#dba981;stroke-width:1.20039999;stroke-linecap:round;stroke-linejoin:miter;stroke-miterlimit:4;stroke-opacity:1;stroke-dasharray:3.6013, 1.2004;stroke-dashoffset:0"
         d="m 230.254,454.6111 132,0"
         id="path8471-6-6-6-8-7-8-3-3-9-3-9-1-5-9-7-0-5"
         inkscape:connector-curvature="0"
         sodipodi:nodetypes="cc" />
      <path
         sodipodi:nodetypes="cc"
         inkscape:connector-curvature="0"
         id="path8471-6-6-6-8-7-8-3-3-9-3-9-1-3-3-4-6-5-0"
         d="m 231.254,474.6111 129,0"
         style="fill:none;stroke:#dba981;stroke-width:1.20039999;stroke-linecap:round;stroke-linejoin:miter;stroke-miterlimit:4;stroke-opacity:1;stroke-dasharray:3.6013, 1.2004;stroke-dashoffset:0" />
      <path
         style="fill:none;stroke:#dba981;stroke-width:1.20039999;stroke-linecap:round;stroke-linejoin:miter;stroke-miterlimit:4;stroke-opacity:1;stroke-dasharray:3.6013, 1.2004;stroke-dashoffset:0"
         d="m 267.254,360.6111 c 12,-6 47,-6 59,1"
         id="path3992-4-77-9-5-7-1-0-3-9-9-0-7-8-2"
         inkscape:connector-curvature="0"
         sodipodi:nodetypes="cc" />
      <path
         style="fill:none;stroke:#dba981;stroke-width:2.9999001;stroke-linecap:round;stroke-linejoin:miter;stroke-miterlimit:4;stroke-opacity:1;stroke-dasharray:none"
         d="m 368.254,442.6111 c -16,-20 -8,-41 0,-63"
         id="path8584-0-8-6-3-5-9-1-8-8-0-5"
         inkscape:connector-curvature="0"
         sodipodi:nodetypes="cc" />
      <path
         style="fill:none;stroke:#dba981;stroke-width:4.49039984;stroke-linecap:round;stroke-linejoin:miter;stroke-miterlimit:4;stroke-opacity:1;stroke-dasharray:none"
         d="m 225.254,442.6111 c 14,-18 11,-37 -2,-64"
         id="path8584-6-5-3-6-1-2-7-3-1-8-7-6"
         inkscape:connector-curvature="0"
         sodipodi:nodetypes="cc" />
      <path
         style="fill:none;stroke:#dba981;stroke-width:2.9999001;stroke-linecap:round;stroke-linejoin:miter;stroke-miterlimit:4;stroke-opacity:1;stroke-dasharray:none"
         d="m 243.254,533.6111 c -4,-17 -6,-31 -10,-48 -2,-11 -2,-24 -6,-36 -9,-20 -21,-49 -7,-69 7,-9 28,-8 44,-18 8,-5 6,-15 5,-23 23,-7 31,-8 54,0 0,8 -1,19 5,24 16,9 37,8 44,17 18,24 2,49 -7,70 -4,11 -4,24 -6,35 -3,17 -7,31 -10,48"
         id="path11142-0-5-6-7-5-6-6"
         inkscape:connector-curvature="0"
         sodipodi:nodetypes="cccccccccccc" />
      <path
         sodipodi:nodetypes="cc"
         inkscape:connector-curvature="0"
         id="path8471-6-6-6-8-7-8-3-3-9-1-2-5-4-2-0-8"
         d="m 244.254,533.6111 105,0"
         style="fill:none;stroke:#dba981;stroke-width:1.20039999;stroke-linecap:round;stroke-linejoin:miter;stroke-miterlimit:4;stroke-opacity:1;stroke-dasharray:3.6013, 1.2004;stroke-dashoffset:0" />
      <g
         id="text6934-6-9-7-0-3-1-4-9"
         style="font-size:14.51159954px;font-style:normal;font-variant:normal;font-weight:normal;font-stretch:normal;text-align:start;line-height:125%;letter-spacing:0px;word-spacing:0px;writing-mode:lr-tb;text-anchor:start;fill:#000000;fill-opacity:1;stroke:none;font-family:Standard Symbols L;-inkscape-font-specification:Standard Symbols L">
        <path
           id="path9568"
           d="m 282.17803,324.1581 0,3.8759 2.29578,0 c 0.76998,0 1.3392,-0.15824 1.70767,-0.47474 0.37317,-0.32122 0.55976,-0.81014 0.55977,-1.46675 -10e-6,-0.66133 -0.1866,-1.14789 -0.55977,-1.45966 -0.36847,-0.3165 -0.93769,-0.47474 -1.70767,-0.47475 l -2.29578,0 m 0,-4.35064 0,3.18858 2.11864,0 c 0.69912,1e-5 1.21874,-0.1299 1.55886,-0.38972 0.34484,-0.26452 0.51726,-0.66605 0.51726,-1.20457 0,-0.53379 -0.17242,-0.93295 -0.51726,-1.19749 -0.34012,-0.26453 -0.85974,-0.39679 -1.55886,-0.3968 l -2.11864,0 m -1.43132,-1.17624 3.65625,0 c 1.09119,1e-5 1.93203,0.22676 2.52252,0.68023 0.59047,0.4535 0.88571,1.0983 0.88572,1.93441 -10e-6,0.64717 -0.15117,1.16207 -0.45349,1.54469 -0.30233,0.38264 -0.74637,0.62119 -1.33212,0.71566 0.70384,0.15117 1.24945,0.46767 1.63681,0.94949 0.39207,0.47711 0.58811,1.07468 0.58811,1.7927 0,0.94476 -0.32122,1.67459 -0.96366,2.18949 -0.64244,0.5149 -1.5565,0.77235 -2.74218,0.77235 l -3.79796,0 0,-10.57902"
           inkscape:connector-curvature="0" />
        <path
           id="path9570"
           d="m 294.24505,325.22096 c -1.05342,1e-5 -1.78325,0.12046 -2.18949,0.36138 -0.40625,0.24091 -0.60938,0.65189 -0.60938,1.23291 0,0.46294 0.15116,0.8314 0.45349,1.10538 0.30705,0.26926 0.72274,0.40389 1.24709,0.40389 0.72274,0 1.30141,-0.25509 1.73601,-0.76526 0.43931,-0.5149 0.65897,-1.19749 0.65897,-2.04778 l 0,-0.29052 -1.29669,0 m 2.60047,-0.53851 0,4.52779 -1.30378,0 0,-1.20458 c -0.2976,0.48183 -0.66842,0.83848 -1.11246,1.06995 -0.44404,0.22674 -0.98728,0.34011 -1.62972,0.34011 -0.8125,0 -1.45966,-0.22674 -1.94149,-0.68023 -0.47711,-0.45821 -0.71566,-1.06994 -0.71566,-1.83521 0,-0.8928 0.2976,-1.56594 0.8928,-2.01943 0.59992,-0.45349 1.49273,-0.68023 2.67841,-0.68023 l 1.82812,0 0,-0.12755 c 0,-0.59992 -0.1984,-1.06285 -0.5952,-1.3888 -0.39208,-0.33066 -0.94477,-0.496 -1.65806,-0.496 -0.45349,0 -0.89517,0.0543 -1.32504,0.16297 -0.42987,0.10865 -0.8432,0.27162 -1.24,0.48891 l 0,-1.20457 c 0.4771,-0.18422 0.94004,-0.32121 1.3888,-0.41098 0.44876,-0.0945 0.88572,-0.1417 1.31087,-0.14171 1.14788,10e-6 2.00525,0.29761 2.57212,0.8928 0.56685,0.59521 0.85028,1.49746 0.85029,2.70676"
           inkscape:connector-curvature="0" />
        <path
           id="path9572"
           d="m 305.24921,321.57889 0,1.21875 c -0.36847,-0.20312 -0.73929,-0.35428 -1.11246,-0.45349 -0.36847,-0.10392 -0.74165,-0.15588 -1.11955,-0.15588 -0.84557,0 -1.50218,0.26926 -1.96984,0.80777 -0.46766,0.5338 -0.70149,1.28489 -0.70149,2.25327 0,0.96838 0.23383,1.72183 0.70149,2.26035 0.46766,0.53379 1.12427,0.80069 1.96984,0.80069 0.3779,0 0.75108,-0.0496 1.11955,-0.1488 0.37317,-0.10393 0.74399,-0.25745 1.11246,-0.46058 l 0,1.20458 c -0.36374,0.17006 -0.74165,0.2976 -1.13372,0.38263 -0.38736,0.085 -0.8007,0.12754 -1.24001,0.12754 -1.19513,0 -2.14462,-0.37554 -2.84846,-1.12663 -0.70386,-0.75109 -1.05578,-1.76435 -1.05578,-3.03978 0,-1.29433 0.35429,-2.31231 1.06286,-3.05396 0.7133,-0.74163 1.68877,-1.11245 2.92641,-1.11246 0.40152,10e-6 0.7936,0.0425 1.17624,0.12754 0.38262,0.0803 0.75344,0.20314 1.11246,0.36846"
           inkscape:connector-curvature="0" />
        <path
           id="path9574"
           d="m 307.48122,318.18482 1.31086,0 0,6.5118 3.89007,-3.42242 1.66515,0 -4.20893,3.71293 4.38607,4.22311 -1.70057,0 -4.03179,-3.87591 0,3.87591 -1.31086,0 0,-11.02542"
           inkscape:connector-curvature="0" />
      </g>
      <path
         style="fill:none;stroke:#000000;stroke-width:2.41880012;stroke-linecap:round;stroke-linejoin:round;stroke-miterlimit:4;stroke-opacity:1;stroke-dasharray:none;marker-start:url(#marker7359);marker-end:url(#marker7359)"
         d="m 336.254,443.6111 11,-74"
         id="path7494-1-6-3-5-81-64-9-2-0-5-7-3-2-4-0-9-7-9-1"
         inkscape:connector-curvature="0"
         sodipodi:nodetypes="cc" />
      <path
         inkscape:connector-curvature="0"
         id="path4050-8-0-5-3-4-0-7-3-0-68-5-6-5-9-3-0-9-0-4-9"
         d="m 353.254,404.6111 c 0,6 -5,11 -11,11 -6,0 -11,-5 -11,-11 0,-7 5,-12 11,-12 6,0 11,5 11,12"
         style="color:#000000;fill:#ffffff;fill-opacity:1;stroke:#00000f;stroke-width:1.12259996;stroke-linecap:round;stroke-linejoin:miter;stroke-miterlimit:4;stroke-opacity:0.94120029;stroke-dashoffset:0;marker:none;visibility:visible;display:inline;overflow:visible;enable-background:accumulate" />
      <text
         sodipodi:linespacing="125%"
         id="text8512-9-6-3-7-2-5-4-0-5"
         y="409.35501"
         x="334.707"
         style="font-size:14.51159954px;font-style:normal;font-variant:normal;font-weight:normal;font-stretch:normal;text-align:start;line-height:125%;letter-spacing:0px;word-spacing:0px;writing-mode:lr-tb;text-anchor:start;fill:#000000;fill-opacity:1;stroke:none;font-family:Standard Symbols L;-inkscape-font-specification:Standard Symbols L"
         xml:space="preserve"><tspan
           y="409.35501"
           x="334.707"
           id="tspan8514-9-9-1-0-8-3-6-0-3"
           sodipodi:role="line">29</tspan></text>
      <path
         sodipodi:nodetypes="cc"
         inkscape:connector-curvature="0"
         id="path7494-1-6-3-5-81-64-9-2-0-5-7-3-2-4-0-9-7-74-7-7-1"
         d="m 327.254,441.6111 0,-80"
         style="fill:none;stroke:#000000;stroke-width:2.41880012;stroke-linecap:round;stroke-linejoin:round;stroke-miterlimit:4;stroke-opacity:1;stroke-dasharray:none;marker-start:url(#marker7359);marker-end:url(#marker7359)" />
      <path
         style="fill:none;stroke:#dba981;stroke-width:1.20039999;stroke-linecap:round;stroke-linejoin:miter;stroke-miterlimit:4;stroke-opacity:1;stroke-dasharray:3.6013, 1.2004;stroke-dashoffset:0;display:inline"
         d="m 236.254,500.6111 119,0"
         id="path8471-6-6-6-8-7-8-3-3-9-3-9-1-3-3-4-6-5-0-8"
         inkscape:connector-curvature="0"
         sodipodi:nodetypes="cc" />
      <path
         sodipodi:type="arc"
         style="color:#000000;fill:#ffffff;fill-opacity:1;fill-rule:nonzero;stroke:#000000;stroke-width:1.5;stroke-linecap:round;stroke-linejoin:round;stroke-miterlimit:4;stroke-opacity:1;stroke-dasharray:none;stroke-dashoffset:0;marker:none;visibility:visible;display:inline;overflow:visible;enable-background:accumulate"
         id="path19730-2-9-4-7-2-1-2"
         sodipodi:cx="406"
         sodipodi:cy="2776"
         sodipodi:rx="15"
         sodipodi:ry="15"
         d="m 421,2776 c 0,8.2843 -6.71573,15 -15,15 -8.28427,0 -15,-6.7157 -15,-15 0,-8.2843 6.71573,-15 15,-15 8.25391,0 14.957,6.6684 14.9998,14.9222"
         sodipodi:start="0"
         sodipodi:end="6.278"
         sodipodi:open="true"
         transform="matrix(0.8062,0,0,0.8062,-0.746,-1855.2889)" />
      <text
         xml:space="preserve"
         style="font-size:14.51159954px;font-style:normal;font-variant:normal;font-weight:normal;font-stretch:normal;text-align:start;line-height:125%;letter-spacing:0px;word-spacing:0px;writing-mode:lr-tb;text-anchor:start;fill:#000000;fill-opacity:1;stroke:none;font-family:Standard Symbols L;-inkscape-font-specification:Standard Symbols L"
         x="319.66928"
         y="387.56619"
         id="text8512-9-6-3-7-2-5-4-8-9-7-4"
         sodipodi:linespacing="125%"><tspan
           sodipodi:role="line"
           id="tspan8514-9-9-1-0-8-3-6-2-8-0-1"
           x="319.66928"
           y="387.56619">28</tspan></text>
      <path
         style="fill:none;stroke:#000000;stroke-width:2.41880012;stroke-linecap:round;stroke-linejoin:round;stroke-miterlimit:4;stroke-opacity:1;stroke-dasharray:none;marker-start:url(#marker7359);marker-end:url(#marker7359)"
         d="m 268.254,454.6111 0,-95"
         id="path7494-1-6-3-5-81-64-9-2-0-5-7-3-2-4-0-9-7-74-7-7"
         inkscape:connector-curvature="0"
         sodipodi:nodetypes="cc" />
      <path
         transform="matrix(0.8062,0,0,0.8062,-59.746,-1812.0889)"
         sodipodi:open="true"
         sodipodi:end="6.278"
         sodipodi:start="0"
         d="m 421,2776 c 0,8.2843 -6.71573,15 -15,15 -8.28427,0 -15,-6.7157 -15,-15 0,-8.2843 6.71573,-15 15,-15 8.25391,0 14.957,6.6684 14.9998,14.9222"
         sodipodi:ry="15"
         sodipodi:rx="15"
         sodipodi:cy="2776"
         sodipodi:cx="406"
         id="path19730-2-9-4-7-2-1"
         style="color:#000000;fill:#ffffff;fill-opacity:1;fill-rule:nonzero;stroke:#000000;stroke-width:1.5;stroke-linecap:round;stroke-linejoin:round;stroke-miterlimit:4;stroke-opacity:1;stroke-dasharray:none;stroke-dashoffset:0;marker:none;visibility:visible;display:inline;overflow:visible;enable-background:accumulate"
         sodipodi:type="arc" />
      <text
         sodipodi:linespacing="125%"
         id="text8512-9-6-3-7-2-5-4-8-9-7"
         y="430.80984"
         x="260.91122"
         style="font-size:14.51159954px;font-style:normal;font-variant:normal;font-weight:normal;font-stretch:normal;text-align:start;line-height:125%;letter-spacing:0px;word-spacing:0px;writing-mode:lr-tb;text-anchor:start;fill:#000000;fill-opacity:1;stroke:none;font-family:Standard Symbols L;-inkscape-font-specification:Standard Symbols L"
         xml:space="preserve"><tspan
           y="430.80984"
           x="260.91122"
           id="tspan8514-9-9-1-0-8-3-6-2-8-0"
           sodipodi:role="line">27</tspan></text>
      <path
         style="fill:none;stroke:#dba981;stroke-width:0.82749999;stroke-linecap:round;stroke-linejoin:round;stroke-miterlimit:4;stroke-opacity:1;stroke-dasharray:none;display:inline"
         d="m 241.254,438.6111 -10,9"
         id="path8279-7-5-4-4-4-76"
         inkscape:connector-curvature="0"
         sodipodi:nodetypes="cc" />
      <path
         style="fill:none;stroke:#dba981;stroke-width:0.82749999;stroke-linecap:round;stroke-linejoin:round;stroke-miterlimit:4;stroke-opacity:1;stroke-dasharray:none;display:inline"
         d="m 231.254,438.6111 10,9"
         id="path8279-7-5-4-4-8"
         inkscape:connector-curvature="0"
         sodipodi:nodetypes="cc" />
      <path
         sodipodi:nodetypes="cc"
         inkscape:connector-curvature="0"
         id="path7494-1-6-3-5-81-64-9-2-0-5-7-3-2-4-0-9-7-74-7-7-3"
         d="m 236.254,441.6111 c 0,-26 4,-42 -12,-66"
         style="fill:none;stroke:#000000;stroke-width:2.41880012;stroke-linecap:round;stroke-linejoin:round;stroke-miterlimit:4;stroke-opacity:1;stroke-dasharray:none;marker-start:url(#marker7359);marker-end:url(#marker7359)" />
      <path
         sodipodi:type="arc"
         style="color:#000000;fill:#ffffff;fill-opacity:1;fill-rule:nonzero;stroke:#000000;stroke-width:1.5;stroke-linecap:round;stroke-linejoin:round;stroke-miterlimit:4;stroke-opacity:1;stroke-dasharray:none;stroke-dashoffset:0;marker:none;visibility:visible;display:inline;overflow:visible;enable-background:accumulate"
         id="path19730-2-9-4-7-2-1-5"
         sodipodi:cx="406"
         sodipodi:cy="2776"
         sodipodi:rx="15"
         sodipodi:ry="15"
         d="m 421,2776 c 0,8.2843 -6.71573,15 -15,15 -8.28427,0 -15,-6.7157 -15,-15 0,-8.2843 6.71573,-15 15,-15 8.25391,0 14.957,6.6684 14.9998,14.9222"
         sodipodi:start="0"
         sodipodi:end="6.278"
         sodipodi:open="true"
         transform="matrix(0.8062,0,0,0.8062,-88.746,-1843.8889)" />
      <text
         xml:space="preserve"
         style="font-size:14.51159954px;font-style:normal;font-variant:normal;font-weight:normal;font-stretch:normal;text-align:start;line-height:125%;letter-spacing:0px;word-spacing:0px;writing-mode:lr-tb;text-anchor:start;fill:#000000;fill-opacity:1;stroke:none;font-family:Standard Symbols L;-inkscape-font-specification:Standard Symbols L"
         x="230.7706"
         y="398.98489"
         id="text8512-9-6-3-7-2-5-4-8-9-7-2"
         sodipodi:linespacing="125%"><tspan
           sodipodi:role="line"
           id="tspan8514-9-9-1-0-8-3-6-2-8-0-4"
           x="230.7706"
           y="398.98489">26</tspan></text>
    </g>
  </g>
</svg>
