<?xml version="1.0" encoding="UTF-8" standalone="no"?>
<!-- Created with Inkscape (http://www.inkscape.org/) -->

<svg
   xmlns:dc="http://purl.org/dc/elements/1.1/"
   xmlns:cc="http://creativecommons.org/ns#"
   xmlns:rdf="http://www.w3.org/1999/02/22-rdf-syntax-ns#"
   xmlns:svg="http://www.w3.org/2000/svg"
   xmlns="http://www.w3.org/2000/svg"
   xmlns:sodipodi="http://sodipodi.sourceforge.net/DTD/sodipodi-0.dtd"
   xmlns:inkscape="http://www.inkscape.org/namespaces/inkscape"
   width="159.37512"
   height="194.50189"
   id="svg9715"
   version="1.1"
   inkscape:version="0.48.4 r9939"
   sodipodi:docname="Новий документ 93">
  <defs
     id="defs9717" />
  <sodipodi:namedview
     id="base"
     pagecolor="#ffffff"
     bordercolor="#666666"
     borderopacity="1.0"
     inkscape:pageopacity="0.0"
     inkscape:pageshadow="2"
     inkscape:zoom="1.4"
     inkscape:cx="36.434059"
     inkscape:cy="173.73436"
     inkscape:document-units="px"
     inkscape:current-layer="layer1"
     showgrid="false"
     fit-margin-top="0"
     fit-margin-left="0"
     fit-margin-right="0"
     fit-margin-bottom="0"
     inkscape:window-width="1855"
     inkscape:window-height="1056"
     inkscape:window-x="65"
     inkscape:window-y="24"
     inkscape:window-maximized="1" />
  <metadata
     id="metadata9720">
    <rdf:RDF>
      <cc:Work
         rdf:about="">
        <dc:format>image/svg+xml</dc:format>
        <dc:type
           rdf:resource="http://purl.org/dc/dcmitype/StillImage" />
        <dc:title></dc:title>
      </cc:Work>
    </rdf:RDF>
  </metadata>
  <g
     inkscape:label="Layer 1"
     inkscape:groupmode="layer"
     id="layer1"
     transform="translate(-194.59815,-337.96835)">
    <g
       id="g9813">
      <g
         transform="matrix(0.8062,0,0,0.8062,-486.15533,-977.4299)"
         id="g5169"
         style="stroke-linecap:round">
        <path
           style="fill:none;stroke:#dba981;stroke-width:3.72099996;stroke-linecap:round;stroke-linejoin:round;stroke-miterlimit:4;stroke-opacity:1;stroke-dasharray:none"
           d="m 1007,1675 c 7,26 27,52 31,76 6,39 -5,102 -7,120"
           id="path16673"
           inkscape:connector-curvature="0" />
        <path
           style="fill:none;stroke:#dba981;stroke-width:1.48899996;stroke-linecap:round;stroke-linejoin:round;stroke-miterlimit:4;stroke-opacity:1;stroke-dasharray:4.467, 1.489;stroke-dashoffset:0"
           d="m 1031,1871 -79.3,0"
           id="path16671"
           inkscape:connector-curvature="0" />
        <path
           style="fill:none;stroke:#dba981;stroke-width:3.72099996;stroke-linecap:round;stroke-linejoin:round;stroke-miterlimit:4;stroke-opacity:1;stroke-dasharray:none"
           d="m 951.7,1871 -6.8,-51 -7.2,51"
           id="path16669"
           inkscape:connector-curvature="0" />
        <path
           style="fill:none;stroke:#dba981;stroke-width:1.48899996;stroke-linecap:round;stroke-linejoin:round;stroke-miterlimit:4;stroke-opacity:1;stroke-dasharray:4.467, 1.489;stroke-dashoffset:0"
           d="m 937.7,1871 -82.2,0"
           id="path16667"
           inkscape:connector-curvature="0" />
        <path
           style="fill:none;stroke:#dba981;stroke-width:3.72099996;stroke-linecap:round;stroke-linejoin:round;stroke-miterlimit:4;stroke-opacity:1;stroke-dasharray:none"
           d="m 855.5,1871 c -1.2,-2 -13.9,-80 -7.4,-119 2.6,-26 29.8,-56 32.6,-77"
           id="path22054"
           inkscape:connector-curvature="0" />
        <g
           id="g22035"
           transform="translate(0.3401,-246.8)"
           style="stroke-linecap:round">
          <path
             style="fill:none;stroke:#dba981;stroke-width:1.48899996;stroke-linecap:butt;stroke-linejoin:miter;stroke-miterlimit:4;stroke-opacity:1;stroke-dasharray:4.467, 1.489;stroke-dashoffset:0"
             d="m 847.9,2045 193.1,0"
             id="path8471-0-07-6-8-0-2"
             inkscape:connector-curvature="0"
             sodipodi:nodetypes="cc" />
          <path
             style="fill:none;stroke:#dba981;stroke-width:1.48899996;stroke-linecap:butt;stroke-linejoin:miter;stroke-miterlimit:4;stroke-opacity:1;stroke-dasharray:4.467, 1.489;stroke-dashoffset:0"
             d="m 860.8,1967 165.2,1"
             id="path8471-6-8-4-5-5-6-3"
             inkscape:connector-curvature="0"
             sodipodi:nodetypes="cc" />
          <path
             style="fill:none;stroke:#dba981;stroke-width:1.48899996;stroke-linecap:butt;stroke-linejoin:miter;stroke-miterlimit:4;stroke-opacity:1;stroke-dasharray:4.467, 1.489;stroke-dashoffset:0"
             d="m 880.8,1922 126.2,0"
             id="path8471-6-6-6-8-7-8-3-1"
             inkscape:connector-curvature="0"
             sodipodi:nodetypes="cc" />
          <path
             sodipodi:nodetypes="cc"
             inkscape:connector-curvature="0"
             id="path7494-1-6-3-5-81-64-9-1-8-9-2"
             d="m 931.8,1967 0,-45"
             style="fill:none;stroke:#000000;stroke-width:3;stroke-linecap:round;stroke-linejoin:miter;stroke-miterlimit:4;stroke-opacity:1;stroke-dasharray:none;marker-start:url(#marker7359);marker-end:url(#marker7359)" />
          <path
             style="color:#000000;fill:#ffffff;fill-opacity:1;stroke:#00000f;stroke-width:1.39240003;stroke-linecap:round;stroke-linejoin:miter;stroke-miterlimit:4;stroke-opacity:0.94120029;stroke-dashoffset:0;marker:none;visibility:visible;display:inline;overflow:visible;enable-background:accumulate"
             d="m 945.8,1944 c 0,8 -7,14 -14,14 -8,0 -14,-6 -14,-14 0,-8 6,-14 14,-14 7,0 13,6 14,14"
             id="path4050-8-0-5-3-4-0-7-3-9-0-5-6-3"
             inkscape:connector-curvature="0" />
          <path
             sodipodi:nodetypes="cc"
             inkscape:connector-curvature="0"
             id="path7494-1-6-3-5-81-64-9-1-8-7-5"
             d="M 966.5,2045 967,1923"
             style="fill:none;stroke:#000000;stroke-width:3;stroke-linecap:round;stroke-linejoin:miter;stroke-miterlimit:4;stroke-opacity:1;stroke-dasharray:none;marker-start:url(#marker7359);marker-end:url(#marker7359)" />
          <path
             sodipodi:nodetypes="csssc"
             style="color:#000000;fill:#ffffff;fill-opacity:1;stroke:#00000f;stroke-width:1.39240003;stroke-linecap:round;stroke-linejoin:miter;stroke-miterlimit:4;stroke-opacity:0.94120029;stroke-dashoffset:0;marker:none;visibility:visible;display:inline;overflow:visible;enable-background:accumulate"
             d="m 980.8,1944 c 0,8 -7,14 -14,14 -8,0 -14,-6 -14,-14 0,-8 6,-14 14,-14 7,0 13,6 14,14"
             id="path4050-8-0-5-3-4-0-7-3-9-0-5-68-5"
             inkscape:connector-curvature="0" />
          <text
             sodipodi:linespacing="125%"
             id="text8504-2"
             y="1949.9011"
             x="922.026"
             style="font-size:18px;font-style:normal;font-variant:normal;font-weight:normal;font-stretch:normal;text-align:start;line-height:125%;letter-spacing:0px;word-spacing:0px;writing-mode:lr-tb;text-anchor:start;fill:#000000;fill-opacity:1;stroke:none;font-family:Standard Symbols L;-inkscape-font-specification:Standard Symbols L"
             xml:space="preserve"><tspan
               y="1949.9011"
               x="922.026"
               id="tspan8506-5"
               sodipodi:role="line">30</tspan></text>
          <text
             sodipodi:linespacing="125%"
             id="text8508-2"
             y="1949.9551"
             x="957.26001"
             style="font-size:18px;font-style:normal;font-variant:normal;font-weight:normal;font-stretch:normal;text-align:start;line-height:125%;letter-spacing:0px;word-spacing:0px;writing-mode:lr-tb;text-anchor:start;fill:#000000;fill-opacity:1;stroke:none;font-family:Standard Symbols L;-inkscape-font-specification:Standard Symbols L"
             xml:space="preserve"><tspan
               y="1949.9551"
               x="957.26001"
               id="tspan8510-1"
               sodipodi:role="line">31</tspan></text>
          <path
             sodipodi:nodetypes="cc"
             inkscape:connector-curvature="0"
             id="path7494-1-6-3-5-81-64-9-1-8-4-2"
             d="m 1027,1968 c -4,-11 -14,-31 -21,-45"
             style="fill:none;stroke:#000000;stroke-width:3;stroke-linecap:round;stroke-linejoin:miter;stroke-miterlimit:4;stroke-opacity:1;stroke-dasharray:none;marker-start:url(#marker7359);marker-end:url(#marker7359)" />
          <path
             sodipodi:nodetypes="csssc"
             style="color:#000000;fill:#ffffff;fill-opacity:1;stroke:#00000f;stroke-width:1.39240003;stroke-linecap:round;stroke-linejoin:miter;stroke-miterlimit:4;stroke-opacity:0.94120029;stroke-dashoffset:0;marker:none;visibility:visible;display:inline;overflow:visible;enable-background:accumulate"
             d="m 1031,1944 c 0,8 -7,14 -14,14 -8,0 -14,-6 -14,-14 0,-7 6,-14 14,-14 7,0 13,7 14,14"
             id="path4050-8-0-5-3-4-0-7-3-9-0-5-7-3"
             inkscape:connector-curvature="0" />
          <text
             sodipodi:linespacing="125%"
             id="text8500-4-6"
             y="1949.8291"
             x="1007.208"
             style="font-size:18px;font-style:normal;font-variant:normal;font-weight:normal;font-stretch:normal;text-align:start;line-height:125%;letter-spacing:0px;word-spacing:0px;writing-mode:lr-tb;text-anchor:start;fill:#000000;fill-opacity:1;stroke:none;font-family:Standard Symbols L;-inkscape-font-specification:Standard Symbols L"
             xml:space="preserve"><tspan
               y="1949.8291"
               x="1007.208"
               id="tspan8502-7-6"
               sodipodi:role="line">32</tspan></text>
        </g>
      </g>
      <g
         id="text6934-2-7"
         style="font-size:18.06694221px;font-style:normal;font-variant:normal;font-weight:normal;font-stretch:normal;text-align:start;line-height:125%;letter-spacing:0px;word-spacing:0px;writing-mode:lr-tb;text-anchor:start;fill:#000000;fill-opacity:1;stroke:none;font-family:Standard Symbols L;-inkscape-font-specification:Standard Symbols L">
        <path
           id="path9803"
           d="m 254.21267,337.96835 7.56906,0 0,1.4997 -5.78707,0 0,3.88157 5.22248,0 0,1.49969 -5.22248,0 0,6.28991 -1.78199,0 0,-13.17087"
           inkscape:connector-curvature="0" />
        <path
           id="path9805"
           d="m 268.97146,342.7762 c -0.18233,-0.10585 -0.38229,-0.1823 -0.59988,-0.22936 -0.21173,-0.0529 -0.44698,-0.0794 -0.70574,-0.0794 -0.91747,10e-6 -1.62321,0.29995 -2.11722,0.89982 -0.48814,0.59401 -0.73221,1.44971 -0.73221,2.56713 l 0,5.20483 -1.63202,0 0,-9.88036 1.63202,0 0,1.53499 c 0.34111,-0.59987 0.78513,-1.0439 1.33209,-1.33209 0.54694,-0.29405 1.21151,-0.44107 1.99371,-0.44109 0.11174,2e-5 0.23524,0.009 0.37052,0.0265 0.13526,0.0118 0.28522,0.0324 0.4499,0.0617 l 0.009,1.66731"
           inkscape:connector-curvature="0" />
        <path
           id="path9807"
           d="m 274.13218,342.39687 c -0.87042,1e-5 -1.55851,0.34111 -2.06429,1.02332 -0.50578,0.67634 -0.75867,1.60557 -0.75867,2.78767 0,1.18212 0.24995,2.11429 0.74985,2.7965 0.50577,0.67633 1.19681,1.0145 2.07311,1.0145 0.86452,0 1.54968,-0.34111 2.05547,-1.02332 0.50577,-0.68222 0.75866,-1.61144 0.75867,-2.78768 -1e-5,-1.17034 -0.2529,-2.09663 -0.75867,-2.77885 -0.50579,-0.68809 -1.19095,-1.03213 -2.05547,-1.03214 m 0,-1.3762 c 1.41147,2e-5 2.52007,0.45875 3.3258,1.3762 0.80571,0.91747 1.20857,2.1878 1.20858,3.81099 -1e-5,1.61733 -0.40287,2.88766 -1.20858,3.811 -0.80573,0.91746 -1.91433,1.37619 -3.3258,1.37619 -1.41737,0 -2.52891,-0.45873 -3.33462,-1.37619 -0.79984,-0.92334 -1.19976,-2.19367 -1.19976,-3.811 0,-1.62319 0.39992,-2.89352 1.19976,-3.81099 0.80571,-0.91745 1.91725,-1.37618 3.33462,-1.3762"
           inkscape:connector-curvature="0" />
        <path
           id="path9809"
           d="m 289.56142,345.17572 0,5.9635 -1.6232,0 0,-5.91057 c -10e-6,-0.9351 -0.18233,-1.63496 -0.54695,-2.09958 -0.36464,-0.4646 -0.91159,-0.69691 -1.64085,-0.69692 -0.8763,1e-5 -1.56733,0.27937 -2.07311,0.83807 -0.50578,0.55872 -0.75867,1.32033 -0.75867,2.28483 l 0,5.58417 -1.63202,0 0,-9.88036 1.63202,0 0,1.53499 c 0.38816,-0.59399 0.84395,-1.03802 1.36737,-1.33209 0.5293,-0.29405 1.138,-0.44107 1.82611,-0.44109 1.13505,2e-5 1.9937,0.35288 2.57595,1.05861 0.58222,0.69987 0.87334,1.73202 0.87335,3.09644"
           inkscape:connector-curvature="0" />
        <path
           id="path9811"
           d="m 294.4222,338.45355 0,2.80531 3.34345,0 0,1.26151 -3.34345,0 0,5.36363 c 0,0.80572 0.1088,1.32326 0.32641,1.55262 0.22348,0.22937 0.67339,0.34405 1.34973,0.34405 l 1.66731,0 0,1.35855 -1.66731,0 c -1.2527,0 -2.11723,-0.2323 -2.5936,-0.69692 -0.47637,-0.47049 -0.71456,-1.32326 -0.71456,-2.5583 l 0,-5.36363 -1.19094,0 0,-1.26151 1.19094,0 0,-2.80531 1.63202,0"
           inkscape:connector-curvature="0" />
      </g>
    </g>
  </g>
</svg>
