<?xml version="1.0" encoding="UTF-8" standalone="no"?>
<!-- Created with Inkscape (http://www.inkscape.org/) -->

<svg
   xmlns:dc="http://purl.org/dc/elements/1.1/"
   xmlns:cc="http://creativecommons.org/ns#"
   xmlns:rdf="http://www.w3.org/1999/02/22-rdf-syntax-ns#"
   xmlns:svg="http://www.w3.org/2000/svg"
   xmlns="http://www.w3.org/2000/svg"
   xmlns:sodipodi="http://sodipodi.sourceforge.net/DTD/sodipodi-0.dtd"
   xmlns:inkscape="http://www.inkscape.org/namespaces/inkscape"
   width="163.69057"
   height="211.90462"
   id="svg10837"
   version="1.1"
   inkscape:version="0.48.4 r9939"
   sodipodi:docname="Новий документ 108">
  <defs
     id="defs10839" />
  <sodipodi:namedview
     id="base"
     pagecolor="#ffffff"
     bordercolor="#666666"
     borderopacity="1.0"
     inkscape:pageopacity="0.0"
     inkscape:pageshadow="2"
     inkscape:zoom="1.979899"
     inkscape:cx="90.898035"
     inkscape:cy="107.73492"
     inkscape:document-units="px"
     inkscape:current-layer="layer1"
     showgrid="false"
     fit-margin-top="0"
     fit-margin-left="0"
     fit-margin-right="0"
     fit-margin-bottom="0"
     inkscape:window-width="1855"
     inkscape:window-height="1056"
     inkscape:window-x="65"
     inkscape:window-y="24"
     inkscape:window-maximized="1" />
  <metadata
     id="metadata10842">
    <rdf:RDF>
      <cc:Work
         rdf:about="">
        <dc:format>image/svg+xml</dc:format>
        <dc:type
           rdf:resource="http://purl.org/dc/dcmitype/StillImage" />
        <dc:title></dc:title>
      </cc:Work>
    </rdf:RDF>
  </metadata>
  <g
     inkscape:label="Layer 1"
     inkscape:groupmode="layer"
     id="layer1"
     transform="translate(-129.58059,-329.27002)">
    <g
       id="g10956">
      <path
         style="fill:none;stroke:#dba981;stroke-width:0.82749999;stroke-linecap:round;stroke-linejoin:round;stroke-miterlimit:4;stroke-opacity:1;stroke-dasharray:none;display:inline"
         d="m 259.37916,440.6686 9.5,9"
         id="path8279-7-5-4-4-48"
         inkscape:connector-curvature="0"
         sodipodi:nodetypes="cc" />
      <path
         style="fill:none;stroke:#dba981;stroke-width:0.82749999;stroke-linecap:round;stroke-linejoin:round;stroke-miterlimit:4;stroke-opacity:1;stroke-dasharray:none;display:inline"
         d="m 268.87916,440.6686 -9.5,9"
         id="path8279-7-5-4-4-4-7"
         inkscape:connector-curvature="0"
         sodipodi:nodetypes="cc" />
      <path
         style="fill:none;stroke:#dba981;stroke-width:0.82749999;stroke-linecap:round;stroke-linejoin:round;stroke-miterlimit:4;stroke-opacity:1;stroke-dasharray:none;display:inline"
         d="m 149.77916,442.6686 9.5,9"
         id="path8279-7-5-4-4"
         inkscape:connector-curvature="0"
         sodipodi:nodetypes="cc" />
      <path
         style="fill:none;stroke:#dba981;stroke-width:0.82749999;stroke-linecap:round;stroke-linejoin:round;stroke-miterlimit:4;stroke-opacity:1;stroke-dasharray:none;display:inline"
         d="m 159.27916,442.6686 -9.5,9"
         id="path8279-7-5-4-4-4"
         inkscape:connector-curvature="0"
         sodipodi:nodetypes="cc" />
      <path
         style="fill:none;stroke:#dba981;stroke-width:2.9999001;stroke-linecap:round;stroke-linejoin:miter;stroke-miterlimit:4;stroke-opacity:1;stroke-dasharray:none"
         d="m 280.77916,447.6686 c -21.5,-4 -19.5,-16 -3.2,-66"
         id="path8584-1-4-6-3-4-4"
         inkscape:connector-curvature="0"
         sodipodi:nodetypes="cc" />
      <path
         style="fill:none;stroke:#dba981;stroke-width:2.9999001;stroke-linecap:round;stroke-linejoin:miter;stroke-miterlimit:4;stroke-opacity:1;stroke-dasharray:none"
         d="m 139.87916,446.6686 c 20.5,2 27.2,-19 4.6,-65"
         id="path8584-6-7-8-0-3-1-3"
         inkscape:connector-curvature="0"
         sodipodi:nodetypes="cc" />
      <path
         style="fill:none;stroke:#dba981;stroke-width:1.20039999;stroke-linecap:round;stroke-linejoin:miter;stroke-miterlimit:4;stroke-opacity:1;stroke-dasharray:3.6013, 1.2004;stroke-dashoffset:0"
         d="m 180.77916,367.6686 c 9.7,10 55.6,10 58.9,3"
         id="path3992-4-77-9-5-7-1"
         inkscape:connector-curvature="0"
         sodipodi:nodetypes="cc" />
      <path
         style="fill:none;stroke:#dba981;stroke-width:2.9999001;stroke-linecap:round;stroke-linejoin:miter;stroke-miterlimit:4;stroke-opacity:1;stroke-dasharray:none"
         d="m 158.97916,539.6686 c 2.5,-16 -5.6,-32 -8.8,-48 -2.4,-11 -1.6,-24 -6.5,-35 -8,-21 -20.1,-50 -6.4,-71 6.4,-8 26.6,-8 42.7,-16 3.2,-3 4.1,-8 4.8,-12 0.8,-4 -0.8,-13 -0.8,-13 0,0 17.8,6 27.5,6 8.8,0 25.8,-5 25.8,-5 0,0 -1.5,8 -0.9,12 0.8,4 2.5,10 4.9,12 16.1,9 36.3,8 42.7,17 16.9,24 2.4,49 -6.4,70 -4.9,11 -4.9,24 -6.5,35 -3.2,16 -11.3,32 -8.9,48"
         id="path11116"
         inkscape:connector-curvature="0"
         sodipodi:nodetypes="cccccacacaccccc" />
      <path
         style="opacity:0.3;fill:none;stroke:#000000;stroke-width:1.61240005;stroke-linecap:round;stroke-linejoin:miter;stroke-miterlimit:4;stroke-opacity:0;stroke-dasharray:4.8372, 1.6124;stroke-dashoffset:0"
         d="m 179.17916,444.6686 c 2.4,7 19.4,9 30.6,9 8.9,-1 22.6,-2 26.6,-9"
         id="path3992-4-94-7-98-1-3-4-7"
         inkscape:connector-curvature="0"
         sodipodi:nodetypes="cac" />
      <path
         sodipodi:nodetypes="cc"
         inkscape:connector-curvature="0"
         id="path8471-6-6-6-8-7-8-3-3"
         d="m 160.67916,539.6686 101.5,0"
         style="fill:none;stroke:#dba981;stroke-width:1.20039999;stroke-linecap:round;stroke-linejoin:miter;stroke-miterlimit:4;stroke-opacity:1;stroke-dasharray:3.6013, 1.2004;stroke-dashoffset:0" />
      <path
         sodipodi:nodetypes="cc"
         inkscape:connector-curvature="0"
         id="path7494-1-6-3-5-81-64-9-2-9-5-3-0"
         d="m 181.57916,366.6686 -37.3,14"
         style="fill:none;stroke:#000000;stroke-width:2.41860008;stroke-linecap:round;stroke-linejoin:miter;stroke-miterlimit:4;stroke-opacity:1;stroke-dasharray:none;marker-start:url(#marker7359);marker-end:url(#marker7359)" />
      <path
         sodipodi:type="arc"
         style="color:#000000;fill:#ffffff;fill-opacity:1;stroke:#000000;stroke-width:1.45430005;stroke-linecap:round;stroke-linejoin:round;stroke-miterlimit:4;stroke-opacity:1;stroke-dasharray:none;stroke-dashoffset:0;marker:none;visibility:visible;display:inline;overflow:visible;enable-background:accumulate"
         id="path16274"
         sodipodi:cx="283.39999"
         sodipodi:cy="2217"
         sodipodi:rx="13"
         sodipodi:ry="13.1"
         d="m 296.39999,2217 c 0,7.2349 -5.82029,13.1 -13,13.1 -7.1797,0 -13,-5.8651 -13,-13.1 0,-7.2349 5.8203,-13.1 13,-13.1 7.15339,0 12.96274,5.8238 12.99983,13.0321"
         sodipodi:start="0"
         sodipodi:end="6.278"
         sodipodi:open="true"
         transform="matrix(0.8409,0,0,0.8223,-76.290839,-1458.3314)" />
      <text
         sodipodi:linespacing="125%"
         id="text8496-8"
         y="369.0358"
         x="158.71715"
         style="font-size:14.51159954px;font-style:normal;font-variant:normal;font-weight:normal;font-stretch:normal;text-align:start;line-height:125%;letter-spacing:0px;word-spacing:0px;writing-mode:lr-tb;text-anchor:start;fill:#000000;fill-opacity:1;stroke:none;font-family:Standard Symbols L;-inkscape-font-specification:Standard Symbols L"
         xml:space="preserve"><tspan
           y="369.0358"
           x="158.71715"
           id="tspan8498-8"
           sodipodi:role="line">1</tspan></text>
      <g
         id="text6934-2-9"
         style="font-size:14.51159954px;font-style:normal;font-variant:normal;font-weight:normal;font-stretch:normal;text-align:start;line-height:125%;letter-spacing:0px;word-spacing:0px;writing-mode:lr-tb;text-anchor:start;fill:#000000;fill-opacity:1;stroke:none;font-family:Standard Symbols L;-inkscape-font-specification:Standard Symbols L">
        <path
           id="path10946"
           d="m 192.34942,329.27002 6.07957,0 0,1.20457 -4.64825,0 0,3.11773 4.19476,0 0,1.20458 -4.19476,0 0,5.05213 -1.43132,0 0,-10.57901"
           inkscape:connector-curvature="0" />
        <path
           id="path10948"
           d="m 204.20387,333.13175 c -0.14645,-0.085 -0.30706,-0.14644 -0.48183,-0.18423 -0.17007,-0.0425 -0.35902,-0.0638 -0.56686,-0.0638 -0.73692,0 -1.30378,0.24092 -1.70058,0.72274 -0.39208,0.47711 -0.58812,1.16443 -0.58812,2.06195 l 0,4.18059 -1.31086,0 0,-7.93603 1.31086,0 0,1.23292 c 0.27398,-0.48183 0.63063,-0.83847 1.06995,-1.06995 0.43931,-0.23618 0.9731,-0.35428 1.60138,-0.35429 0.0897,10e-6 0.18894,0.007 0.2976,0.0213 0.10864,0.009 0.2291,0.026 0.36137,0.0496 l 0.007,1.33921"
           inkscape:connector-curvature="0" />
        <path
           id="path10950"
           d="m 208.34903,332.82706 c -0.69913,10e-6 -1.25182,0.27399 -1.65807,0.82195 -0.40625,0.54324 -0.60937,1.28961 -0.60937,2.23909 0,0.94949 0.20076,1.69822 0.60229,2.24618 0.40624,0.54324 0.96129,0.81486 1.66515,0.81486 0.69439,0 1.24472,-0.27398 1.65097,-0.82195 0.40625,-0.54796 0.60937,-1.29432 0.60938,-2.23909 -10e-6,-0.94004 -0.20313,-1.68404 -0.60938,-2.23201 -0.40625,-0.55268 -0.95658,-0.82902 -1.65097,-0.82903 m 0,-1.10538 c 1.13371,1e-5 2.02415,0.36847 2.67132,1.10538 0.64716,0.73692 0.97074,1.75727 0.97075,3.06104 -10e-6,1.29906 -0.32359,2.3194 -0.97075,3.06104 -0.64717,0.73692 -1.53761,1.10538 -2.67132,1.10538 -1.13845,0 -2.03125,-0.36846 -2.67841,-1.10538 -0.64245,-0.74164 -0.96367,-1.76198 -0.96367,-3.06104 0,-1.30377 0.32122,-2.32412 0.96367,-3.06104 0.64716,-0.73691 1.53996,-1.10537 2.67841,-1.10538"
           inkscape:connector-curvature="0" />
        <path
           id="path10952"
           d="m 220.74199,335.05907 0,4.78996 -1.30378,0 0,-4.74745 c 0,-0.75108 -0.14644,-1.31322 -0.43931,-1.6864 -0.29289,-0.37318 -0.7322,-0.55977 -1.31795,-0.55978 -0.70386,1e-5 -1.25891,0.22439 -1.66515,0.67315 -0.40625,0.44877 -0.60938,1.0605 -0.60938,1.8352 l 0,4.48528 -1.31086,0 0,-7.93603 1.31086,0 0,1.23292 c 0.31177,-0.4771 0.67787,-0.83375 1.09829,-1.06995 0.42515,-0.23618 0.91406,-0.35428 1.46675,-0.35429 0.9117,1e-5 1.60137,0.28344 2.06904,0.85029 0.46765,0.56214 0.70148,1.39118 0.70149,2.4871"
           inkscape:connector-curvature="0" />
        <path
           id="path10954"
           d="m 224.64623,329.65973 0,2.25327 2.6855,0 0,1.01326 -2.6855,0 0,4.30813 c 0,0.64717 0.0874,1.06286 0.26217,1.24709 0.17951,0.18423 0.54088,0.27635 1.08412,0.27635 l 1.33921,0 0,1.0912 -1.33921,0 c -1.00618,0 -1.70058,-0.18659 -2.08321,-0.55977 -0.38263,-0.37791 -0.57394,-1.06286 -0.57394,-2.05487 l 0,-4.30813 -0.95658,0 0,-1.01326 0.95658,0 0,-2.25327 1.31086,0"
           inkscape:connector-curvature="0" />
      </g>
      <path
         style="fill:none;stroke:#000000;stroke-width:2.41860008;stroke-linecap:round;stroke-linejoin:miter;stroke-miterlimit:4;stroke-opacity:1;stroke-dasharray:none;marker-start:url(#marker7359);marker-end:url(#marker7359)"
         d="m 266.27916,413.6686 -110.5,-3"
         id="path7494-1-6-3-5-81-64-9-2-8-7-1-3"
         inkscape:connector-curvature="0"
         sodipodi:nodetypes="cc" />
      <path
         inkscape:connector-curvature="0"
         id="path4050-8-0-5-3-4-0-7-3-0-6-6-3-9"
         d="m 223.87916,413.6686 c 0,6 -5.6,11 -11.2,11 -6.5,0 -11.3,-5 -11.3,-11 0,-7 4.8,-11 11.3,-11 5.6,0 10.4,4 11.2,11"
         style="color:#000000;fill:#ffffff;fill-opacity:1;stroke:#00000f;stroke-width:1.12259996;stroke-linecap:round;stroke-linejoin:miter;stroke-miterlimit:4;stroke-opacity:0.94120029;stroke-dashoffset:0;marker:none;visibility:visible;display:inline;overflow:visible;enable-background:accumulate" />
      <path
         style="fill:none;stroke:#000000;stroke-width:2.41860008;stroke-linecap:round;stroke-linejoin:miter;stroke-miterlimit:4;stroke-opacity:1;stroke-dasharray:none;marker-start:url(#marker7359);marker-end:url(#marker7359)"
         d="m 276.57916,382.6686 -131.5,-1"
         id="path7494-1-6-3-5-81-64-9-2-0-5-1-2"
         inkscape:connector-curvature="0"
         sodipodi:nodetypes="cc" />
      <path
         inkscape:connector-curvature="0"
         id="path4050-8-0-5-3-4-0-7-3-0-68-5-1-2"
         d="m 223.87916,381.6686 c 0,7 -5.6,12 -11.2,12 -6.5,0 -11.3,-5 -11.3,-12 0,-6 4.8,-11 11.3,-11 5.6,0 10.4,5 11.2,11"
         style="color:#000000;fill:#ffffff;fill-opacity:1;stroke:#00000f;stroke-width:1.12259996;stroke-linecap:round;stroke-linejoin:miter;stroke-miterlimit:4;stroke-opacity:0.94120029;stroke-dashoffset:0;marker:none;visibility:visible;display:inline;overflow:visible;enable-background:accumulate" />
      <text
         xml:space="preserve"
         style="font-size:14.51159954px;font-style:normal;font-variant:normal;font-weight:normal;font-stretch:normal;text-align:start;line-height:125%;letter-spacing:0px;word-spacing:0px;writing-mode:lr-tb;text-anchor:start;fill:#000000;fill-opacity:1;stroke:none;font-family:Standard Symbols L;-inkscape-font-specification:Standard Symbols L"
         x="208.93076"
         y="387.2084"
         id="text8484-0"
         sodipodi:linespacing="125%"><tspan
           sodipodi:role="line"
           id="tspan8486-3"
           x="208.93076"
           y="387.2084">2</tspan></text>
      <text
         xml:space="preserve"
         style="font-size:14.51159954px;font-style:normal;font-variant:normal;font-weight:normal;font-stretch:normal;text-align:start;line-height:125%;letter-spacing:0px;word-spacing:0px;writing-mode:lr-tb;text-anchor:start;fill:#000000;fill-opacity:1;stroke:none;font-family:Standard Symbols L;-inkscape-font-specification:Standard Symbols L"
         x="209.1194"
         y="418.31363"
         id="text8492-2"
         sodipodi:linespacing="125%"><tspan
           sodipodi:role="line"
           id="tspan8494-0"
           x="209.1194"
           y="418.31363">3</tspan></text>
      <path
         style="fill:none;stroke:#dba981;stroke-width:1.20039999;stroke-linecap:round;stroke-linejoin:miter;stroke-miterlimit:4;stroke-opacity:1;stroke-dasharray:3.6013, 1.2004;stroke-dashoffset:0"
         d="m 146.07916,459.6686 129,0"
         id="path3992-4-77-9-5-7-1-28"
         inkscape:connector-curvature="0"
         sodipodi:nodetypes="cc" />
      <path
         sodipodi:nodetypes="cc"
         inkscape:connector-curvature="0"
         id="path3992-4-77-9-5-7-1-28-0"
         d="m 146.47916,480.6686 129,0"
         style="fill:none;stroke:#dba981;stroke-width:1.20039999;stroke-linecap:round;stroke-linejoin:miter;stroke-miterlimit:4;stroke-opacity:1;stroke-dasharray:3.6013, 1.2004;stroke-dashoffset:0" />
      <path
         style="fill:none;stroke:#dba981;stroke-width:1.61240005;stroke-linecap:round;stroke-linejoin:miter;stroke-miterlimit:4;stroke-opacity:1;stroke-dasharray:4.8372, 1.6124;stroke-dashoffset:0"
         d="m 141.67916,451.6686 c 21,-1 9.7,-21 67.7,-21 54.9,0 48.4,22 69.4,22"
         id="path3992-4-77-9-5-7-1-2-9-3"
         inkscape:connector-curvature="0"
         sodipodi:nodetypes="csc" />
      <path
         style="fill:none;stroke:#000000;stroke-width:2.41860008;stroke-linecap:round;stroke-linejoin:miter;stroke-miterlimit:4;stroke-opacity:1;stroke-dasharray:none;marker-start:url(#marker7359);marker-end:url(#marker7359)"
         d="m 263.57916,445.6686 c -13.5,-12 -32.9,-15 -50.6,-16 -20.2,0 -45.8,3 -58.1,17"
         id="path7494-1-6-3-5-81-64-9-2-0-2-2"
         inkscape:connector-curvature="0"
         sodipodi:nodetypes="cac" />
      <path
         sodipodi:type="arc"
         style="color:#000000;fill:#ffffff;fill-opacity:1;stroke:#000000;stroke-width:1.45430005;stroke-linecap:round;stroke-linejoin:round;stroke-miterlimit:4;stroke-opacity:1;stroke-dasharray:none;stroke-dashoffset:0;marker:none;visibility:visible;display:inline;overflow:visible;enable-background:accumulate"
         id="path16274-0"
         sodipodi:cx="283.39999"
         sodipodi:cy="2217"
         sodipodi:rx="13"
         sodipodi:ry="13.1"
         d="m 296.39999,2217 c 0,7.2349 -5.82029,13.1 -13,13.1 -7.1797,0 -13,-5.8651 -13,-13.1 0,-7.2349 5.8203,-13.1 13,-13.1 7.15339,0 12.96274,5.8238 12.99983,13.0321"
         sodipodi:start="0"
         sodipodi:end="6.278"
         sodipodi:open="true"
         transform="matrix(0.8409,0,0,0.8223,-26.360839,-1387.3314)" />
      <text
         sodipodi:linespacing="125%"
         id="text8488-4"
         y="439.25113"
         x="208.41656"
         style="font-size:14.51159954px;font-style:normal;font-variant:normal;font-weight:normal;font-stretch:normal;text-align:start;line-height:125%;letter-spacing:0px;word-spacing:0px;writing-mode:lr-tb;text-anchor:start;fill:#000000;fill-opacity:1;stroke:none;font-family:Standard Symbols L;-inkscape-font-specification:Standard Symbols L"
         xml:space="preserve"><tspan
           y="439.25113"
           x="208.41656"
           id="tspan8490-3"
           sodipodi:role="line">4</tspan></text>
    </g>
  </g>
</svg>
