<?xml version="1.0" encoding="UTF-8" standalone="no"?>
<!-- Created with Inkscape (http://www.inkscape.org/) -->

<svg
   xmlns:dc="http://purl.org/dc/elements/1.1/"
   xmlns:cc="http://creativecommons.org/ns#"
   xmlns:rdf="http://www.w3.org/1999/02/22-rdf-syntax-ns#"
   xmlns:svg="http://www.w3.org/2000/svg"
   xmlns="http://www.w3.org/2000/svg"
   xmlns:sodipodi="http://sodipodi.sourceforge.net/DTD/sodipodi-0.dtd"
   xmlns:inkscape="http://www.inkscape.org/namespaces/inkscape"
   width="163.76395"
   height="212.37538"
   id="svg11043"
   version="1.1"
   inkscape:version="0.48.4 r9939"
   sodipodi:docname="Новий документ 111">
  <defs
     id="defs11045" />
  <sodipodi:namedview
     id="base"
     pagecolor="#ffffff"
     bordercolor="#666666"
     borderopacity="1.0"
     inkscape:pageopacity="0.0"
     inkscape:pageshadow="2"
     inkscape:zoom="1.979899"
     inkscape:cx="118.7282"
     inkscape:cy="171.54233"
     inkscape:document-units="px"
     inkscape:current-layer="layer1"
     showgrid="false"
     fit-margin-top="0"
     fit-margin-left="0"
     fit-margin-right="0"
     fit-margin-bottom="0"
     inkscape:window-width="1855"
     inkscape:window-height="1056"
     inkscape:window-x="65"
     inkscape:window-y="24"
     inkscape:window-maximized="1" />
  <metadata
     id="metadata11048">
    <rdf:RDF>
      <cc:Work
         rdf:about="">
        <dc:format>image/svg+xml</dc:format>
        <dc:type
           rdf:resource="http://purl.org/dc/dcmitype/StillImage" />
        <dc:title></dc:title>
      </cc:Work>
    </rdf:RDF>
  </metadata>
  <g
     inkscape:label="Layer 1"
     inkscape:groupmode="layer"
     id="layer1"
     transform="translate(-186.68946,-363.31735)">
    <g
       id="g11129">
      <path
         sodipodi:nodetypes="cc"
         inkscape:connector-curvature="0"
         id="path3992-4-77-9-5-7-1-08"
         d="m 268.49141,385.54199 0.16124,188.40894"
         style="fill:none;stroke:#dba981;stroke-width:1.20043182;stroke-linecap:round;stroke-linejoin:miter;stroke-miterlimit:4;stroke-opacity:1;stroke-dasharray:3.6012954, 1.2004318;stroke-dashoffset:0;display:inline" />
      <path
         style="fill:none;stroke:#dba981;stroke-width:2.99987006;stroke-linecap:round;stroke-linejoin:miter;stroke-miterlimit:4;stroke-opacity:1;stroke-dasharray:none"
         d="m 337.90523,481.47979 c -4.8372,-1.6124 -29.0232,6.4496 -3.2248,-65.3022"
         id="path8584-1-4-6-3-4-4-5"
         inkscape:connector-curvature="0"
         sodipodi:nodetypes="cc" />
      <path
         style="fill:none;stroke:#dba981;stroke-width:2.99987006;stroke-linecap:round;stroke-linejoin:miter;stroke-miterlimit:4;stroke-opacity:1;stroke-dasharray:none"
         d="m 196.98147,480.67359 c 15.3178,2.4186 27.24956,-19.3488 4.67596,-65.3022"
         id="path8584-6-7-8-0-3-1-3-1"
         inkscape:connector-curvature="0"
         sodipodi:nodetypes="cc" />
      <path
         style="fill:none;stroke:#dba981;stroke-width:1.20043182;stroke-linecap:round;stroke-linejoin:miter;stroke-miterlimit:4;stroke-opacity:1;stroke-dasharray:3.6012954, 1.2004318;stroke-dashoffset:0"
         d="m 237.93643,401.66599 c 9.6744,9.6744 56.19214,8.062 59.41694,0.8062"
         id="path3992-4-77-9-5-7-1-01"
         inkscape:connector-curvature="0"
         sodipodi:nodetypes="cc" />
      <path
         style="fill:none;stroke:#dba981;stroke-width:2.99987006;stroke-linecap:round;stroke-linejoin:miter;stroke-miterlimit:4;stroke-opacity:1;stroke-dasharray:none"
         d="m 216.16903,574.19279 c 2.4186,-16.9302 -5.6434,-32.248 -8.8682,-48.372 -2.4186,-11.2868 -1.6124,-24.186 -6.4496,-35.4728 -8.062,-20.9612 -20.155,-49.1782 -6.4496,-70.1394 6.4496,-8.8682 26.6046,-8.062 42.7286,-16.9302 3.2248,-2.4186 4.11162,-7.2558 4.8372,-11.2868 0.72558,-4.031 -0.8062,-12.8992 -0.8062,-12.8992 0,0 17.7364,5.6434 27.4108,5.6434 8.8682,0 25.7984,-4.8372 25.7984,-4.8372 0,0 -1.45116,8.062 -0.8062,12.093 0.72558,4.031 2.4186,9.6744 4.8372,11.2868 16.124,9.6744 36.279,8.062 42.7286,17.7364 16.9302,24.186 2.4186,49.1782 -6.4496,69.3332 -4.8372,11.2868 -4.8372,24.186 -6.4496,35.4728 -3.2248,16.124 -11.2868,31.4418 -8.8682,48.372"
         id="path11116-1"
         inkscape:connector-curvature="0"
         sodipodi:nodetypes="cccccacacaccccc" />
      <path
         style="opacity:0.3;fill:none;stroke:#000000;stroke-width:1.61240005;stroke-linecap:round;stroke-linejoin:miter;stroke-miterlimit:4;stroke-opacity:0;stroke-dasharray:4.8372, 1.6124;stroke-dashoffset:0"
         d="m 236.32403,478.25499 c 2.4186,7.2558 19.3488,9.6744 30.6356,9.6744 8.8682,-0.8062 22.5736,-2.4186 26.6046,-9.6744"
         id="path3992-4-94-7-98-1-3-4-7-0"
         inkscape:connector-curvature="0"
         sodipodi:nodetypes="cac" />
      <path
         sodipodi:nodetypes="cc"
         inkscape:connector-curvature="0"
         id="path8471-6-6-6-8-7-8-3-3-0"
         d="m 217.78143,573.38659 101.5812,0"
         style="fill:none;stroke:#dba981;stroke-width:1.20043182;stroke-linecap:round;stroke-linejoin:miter;stroke-miterlimit:4;stroke-opacity:1;stroke-dasharray:3.6012954, 1.2004318;stroke-dashoffset:0" />
      <g
         id="text6934-2-9-2"
         style="font-size:14.51159954px;font-style:normal;font-variant:normal;font-weight:normal;font-stretch:normal;text-align:start;line-height:125%;letter-spacing:0px;word-spacing:0px;writing-mode:lr-tb;text-anchor:start;fill:#000000;fill-opacity:1;stroke:none;font-family:Standard Symbols L;-inkscape-font-specification:Standard Symbols L">
        <path
           id="path11119"
           d="m 249.49026,363.31735 6.07957,0 0,1.20458 -4.64825,0 0,3.11772 4.19476,0 0,1.20458 -4.19476,0 0,5.05213 -1.43132,0 0,-10.57901"
           inkscape:connector-curvature="0" />
        <path
           id="path11121"
           d="m 261.34471,367.17908 c -0.14645,-0.085 -0.30706,-0.14643 -0.48184,-0.18423 -0.17006,-0.0425 -0.35901,-0.0638 -0.56685,-0.0638 -0.73693,0 -1.30378,0.24092 -1.70058,0.72274 -0.39208,0.47712 -0.58812,1.16443 -0.58812,2.06195 l 0,4.18059 -1.31086,0 0,-7.93603 1.31086,0 0,1.23292 c 0.27398,-0.48182 0.63063,-0.83847 1.06995,-1.06995 0.43931,-0.23618 0.9731,-0.35428 1.60138,-0.35428 0.0897,0 0.18894,0.007 0.2976,0.0213 0.10864,0.009 0.2291,0.026 0.36137,0.0496 l 0.007,1.33921"
           inkscape:connector-curvature="0" />
        <path
           id="path11123"
           d="m 265.48986,366.87439 c -0.69913,10e-6 -1.25181,0.27399 -1.65806,0.82195 -0.40625,0.54324 -0.60938,1.28961 -0.60937,2.23909 -10e-6,0.94949 0.20076,1.69822 0.60228,2.24618 0.40625,0.54324 0.9613,0.81486 1.66515,0.81486 0.6944,0 1.24473,-0.27398 1.65098,-0.82194 0.40624,-0.54796 0.60937,-1.29433 0.60938,-2.2391 -1e-5,-0.94003 -0.20314,-1.68404 -0.60938,-2.23201 -0.40625,-0.55268 -0.95658,-0.82902 -1.65098,-0.82903 m 0,-1.10537 c 1.13372,0 2.02416,0.36846 2.67133,1.10537 0.64716,0.73693 0.97074,1.75727 0.97075,3.06104 -10e-6,1.29906 -0.32359,2.3194 -0.97075,3.06104 -0.64717,0.73692 -1.53761,1.10538 -2.67133,1.10538 -1.13844,0 -2.03124,-0.36846 -2.67841,-1.10538 -0.64244,-0.74164 -0.96366,-1.76198 -0.96366,-3.06104 0,-1.30377 0.32122,-2.32411 0.96366,-3.06104 0.64717,-0.73691 1.53997,-1.10537 2.67841,-1.10537"
           inkscape:connector-curvature="0" />
        <path
           id="path11125"
           d="m 277.88283,369.1064 0,4.78996 -1.30378,0 0,-4.74744 c -10e-6,-0.75109 -0.14644,-1.31322 -0.43932,-1.68641 -0.29288,-0.37318 -0.73219,-0.55977 -1.31794,-0.55978 -0.70386,10e-6 -1.25891,0.22439 -1.66515,0.67315 -0.40625,0.44877 -0.60938,1.06051 -0.60938,1.83521 l 0,4.48527 -1.31086,0 0,-7.93603 1.31086,0 0,1.23292 c 0.31177,-0.4771 0.67787,-0.83375 1.09829,-1.06995 0.42514,-0.23618 0.91406,-0.35428 1.46675,-0.35428 0.91169,0 1.60137,0.28343 2.06904,0.85029 0.46765,0.56214 0.70148,1.39117 0.70149,2.48709"
           inkscape:connector-curvature="0" />
        <path
           id="path11127"
           d="m 281.78707,363.70707 0,2.25326 2.6855,0 0,1.01326 -2.6855,0 0,4.30813 c 0,0.64717 0.0874,1.06287 0.26217,1.24709 0.17951,0.18423 0.54088,0.27635 1.08412,0.27635 l 1.33921,0 0,1.0912 -1.33921,0 c -1.00618,0 -1.70058,-0.18659 -2.08321,-0.55977 -0.38263,-0.37791 -0.57394,-1.06286 -0.57394,-2.05487 l 0,-4.30813 -0.95658,0 0,-1.01326 0.95658,0 0,-2.25326 1.31086,0"
           inkscape:connector-curvature="0" />
      </g>
      <path
         style="fill:none;stroke:#7dc832;stroke-width:2.41860008;stroke-linecap:round;stroke-linejoin:miter;stroke-miterlimit:4;stroke-opacity:1;stroke-dasharray:none;marker-start:url(#marker7359);marker-end:url(#marker7359)"
         d="m 268.89451,445.20079 -55.95028,0"
         id="path7494-1-6-3-5-81-64-9-2-8-7-1-3-4"
         inkscape:connector-curvature="0"
         sodipodi:nodetypes="cc" />
      <path
         inkscape:connector-curvature="0"
         id="path4050-8-0-5-3-4-0-7-3-0-6-6-3-9-1"
         d="m 247.77207,444.39459 c 0,5.6434 -5.6434,11.2868 -11.2868,11.2868 -6.4496,0 -11.2868,-5.6434 -11.2868,-11.2868 0,-6.4496 4.8372,-11.2868 11.2868,-11.2868 5.6434,0 10.4806,4.8372 11.2868,11.2868"
         style="color:#000000;fill:#ffffff;fill-opacity:1;stroke:#00000f;stroke-width:1.12255287;stroke-linecap:round;stroke-linejoin:miter;stroke-miterlimit:4;stroke-opacity:0.94120029;stroke-dashoffset:0;marker:none;visibility:visible;display:inline;overflow:visible;enable-background:accumulate" />
      <path
         style="fill:none;stroke:#7dc832;stroke-width:2.41860008;stroke-linecap:round;stroke-linejoin:miter;stroke-miterlimit:4;stroke-opacity:1;stroke-dasharray:none;marker-start:url(#marker7359);marker-end:url(#marker7359)"
         d="m 268.00769,415.37139 -65.78592,0"
         id="path7494-1-6-3-5-81-64-9-2-0-5-1-2-2"
         inkscape:connector-curvature="0"
         sodipodi:nodetypes="cc" />
      <path
         inkscape:connector-curvature="0"
         id="path4050-8-0-5-3-4-0-7-3-0-68-5-1-2-7"
         d="m 247.77207,416.98379 c 0,6.4496 -5.6434,11.2868 -11.2868,11.2868 -6.4496,0 -11.2868,-4.8372 -11.2868,-11.2868 0,-6.4496 4.8372,-11.2868 11.2868,-11.2868 5.6434,0 10.4806,4.8372 11.2868,11.2868"
         style="color:#000000;fill:#ffffff;fill-opacity:1;stroke:#00000f;stroke-width:1.12255287;stroke-linecap:round;stroke-linejoin:miter;stroke-miterlimit:4;stroke-opacity:0.94120029;stroke-dashoffset:0;marker:none;visibility:visible;display:inline;overflow:visible;enable-background:accumulate" />
      <text
         xml:space="preserve"
         style="font-size:14.51159954px;font-style:normal;font-variant:normal;font-weight:normal;font-stretch:normal;text-align:start;line-height:125%;letter-spacing:0px;word-spacing:0px;writing-mode:lr-tb;text-anchor:start;fill:#000000;fill-opacity:1;stroke:none;font-family:Standard Symbols L;-inkscape-font-specification:Standard Symbols L"
         x="232.90089"
         y="421.67789"
         id="text8484-0-04"
         sodipodi:linespacing="125%"><tspan
           sodipodi:role="line"
           id="tspan8486-3-5"
           x="232.90089"
           y="421.67789">5</tspan></text>
      <text
         xml:space="preserve"
         style="font-size:14.51159954px;font-style:normal;font-variant:normal;font-weight:normal;font-stretch:normal;text-align:start;line-height:125%;letter-spacing:0px;word-spacing:0px;writing-mode:lr-tb;text-anchor:start;fill:#000000;fill-opacity:1;stroke:none;font-family:Standard Symbols L;-inkscape-font-specification:Standard Symbols L"
         x="232.92267"
         y="448.67929"
         id="text8492-2-4"
         sodipodi:linespacing="125%"><tspan
           sodipodi:role="line"
           id="tspan8494-0-7"
           x="232.92267"
           y="448.67929">6</tspan></text>
      <path
         style="fill:none;stroke:#dba981;stroke-width:1.20043182;stroke-linecap:round;stroke-linejoin:miter;stroke-miterlimit:4;stroke-opacity:1;stroke-dasharray:3.6012954, 1.2004318;stroke-dashoffset:0"
         d="m 203.26983,493.57279 128.992,0"
         id="path3992-4-77-9-5-7-1-28-1"
         inkscape:connector-curvature="0"
         sodipodi:nodetypes="cc" />
      <path
         sodipodi:nodetypes="cc"
         inkscape:connector-curvature="0"
         id="path3992-4-77-9-5-7-1-28-0-7"
         d="m 205.36595,514.53399 124.5579,0"
         style="fill:none;stroke:#dba981;stroke-width:1.20043182;stroke-linecap:round;stroke-linejoin:miter;stroke-miterlimit:4;stroke-opacity:1;stroke-dasharray:3.6012954, 1.2004318;stroke-dashoffset:0" />
      <path
         style="fill:none;stroke:#dba981;stroke-width:1.61240005;stroke-linecap:round;stroke-linejoin:miter;stroke-miterlimit:4;stroke-opacity:1;stroke-dasharray:4.8372, 1.6124;stroke-dashoffset:0"
         d="m 198.83573,485.51079 c 20.9612,-0.8062 9.6744,-20.9612 67.7208,-20.9612 54.8216,0 48.372,21.7674 69.3332,21.7674"
         id="path3992-4-77-9-5-7-1-2-9-3-1"
         inkscape:connector-curvature="0"
         sodipodi:nodetypes="csc" />
    </g>
  </g>
</svg>
