<?xml version="1.0" encoding="UTF-8" standalone="no"?>
<!-- Created with Inkscape (http://www.inkscape.org/) -->

<svg
   xmlns:dc="http://purl.org/dc/elements/1.1/"
   xmlns:cc="http://creativecommons.org/ns#"
   xmlns:rdf="http://www.w3.org/1999/02/22-rdf-syntax-ns#"
   xmlns:svg="http://www.w3.org/2000/svg"
   xmlns="http://www.w3.org/2000/svg"
   xmlns:sodipodi="http://sodipodi.sourceforge.net/DTD/sodipodi-0.dtd"
   xmlns:inkscape="http://www.inkscape.org/namespaces/inkscape"
   width="169.70868"
   height="217.73358"
   id="svg11265"
   version="1.1"
   inkscape:version="0.48.4 r9939"
   sodipodi:docname="Новий документ 114">
  <defs
     id="defs11267" />
  <sodipodi:namedview
     id="base"
     pagecolor="#ffffff"
     bordercolor="#666666"
     borderopacity="1.0"
     inkscape:pageopacity="0.0"
     inkscape:pageshadow="2"
     inkscape:zoom="2.8"
     inkscape:cx="84.231541"
     inkscape:cy="80.097175"
     inkscape:document-units="px"
     inkscape:current-layer="layer1"
     showgrid="false"
     fit-margin-top="0"
     fit-margin-left="0"
     fit-margin-right="0"
     fit-margin-bottom="0"
     inkscape:window-width="1855"
     inkscape:window-height="1056"
     inkscape:window-x="65"
     inkscape:window-y="24"
     inkscape:window-maximized="1" />
  <metadata
     id="metadata11270">
    <rdf:RDF>
      <cc:Work
         rdf:about="">
        <dc:format>image/svg+xml</dc:format>
        <dc:type
           rdf:resource="http://purl.org/dc/dcmitype/StillImage" />
        <dc:title></dc:title>
      </cc:Work>
    </rdf:RDF>
  </metadata>
  <g
     inkscape:label="Layer 1"
     inkscape:groupmode="layer"
     id="layer1"
     transform="translate(-235.13681,-332.10676)">
    <g
       id="g11367">
      <path
         sodipodi:nodetypes="cc"
         inkscape:connector-curvature="0"
         id="path8471-6-6-6-8-7-8-3-3-9-3-5"
         d="m 248.95982,455.2606 140.8,0"
         style="fill:none;stroke:#dba981;stroke-width:0.9174;stroke-linecap:round;stroke-linejoin:miter;stroke-miterlimit:4;stroke-opacity:1;stroke-dasharray:2.7523, 0.9174;stroke-dashoffset:0;display:inline" />
      <path
         style="fill:none;stroke:#dba981;stroke-width:2.9999001;stroke-linecap:round;stroke-linejoin:miter;stroke-miterlimit:4;stroke-opacity:1;stroke-dasharray:none"
         d="m 391.35982,456.2606 c -13.9,0 -12.1,-34 0,-63"
         id="path8584-0-8-6-3"
         inkscape:connector-curvature="0"
         sodipodi:nodetypes="cc" />
      <path
         style="fill:none;stroke:#dba981;stroke-width:2.9999001;stroke-linecap:round;stroke-linejoin:miter;stroke-miterlimit:4;stroke-opacity:1;stroke-dasharray:none"
         d="m 247.05982,455.2606 c 19.5,1 8,-45 -1.6,-64"
         id="path8584-6-5-3-6-1"
         inkscape:connector-curvature="0"
         sodipodi:nodetypes="cc" />
      <path
         style="fill:none;stroke:#dba981;stroke-width:2.9999001;stroke-linecap:round;stroke-linejoin:miter;stroke-miterlimit:4;stroke-opacity:1;stroke-dasharray:none"
         d="m 265.55982,548.2606 c 2.4,-17 -5.6,-32 -9.6,-49 -2.5,-11 -1.7,-24 -5.7,-35 -9.7,-20 -21,-50 -7.2,-70 7.2,-9 28.2,-8 44.3,-17 3.2,-2 4.8,-7 5.6,-11 0,-5 -0.8,-13 -0.8,-13 0,0 17.8,-6 27.4,-6 8.9,0 26.6,6 26.6,6 0,0 -1.6,9 -0.8,13 0.8,4 2.5,9 5.7,11 16.1,9 37.1,8 44.3,17 17.8,25 1.6,50 -7.2,70 -4.1,11 -4.1,24 -6.5,35 -3.2,17 -11.3,32 -9.7,48"
         id="path11142"
         inkscape:connector-curvature="0"
         sodipodi:nodetypes="cccccccaccccccc" />
      <path
         sodipodi:nodetypes="cc"
         inkscape:connector-curvature="0"
         id="path8471-6-6-6-8-7-8-3-3-9"
         d="m 267.15982,547.2606 101.6,0"
         style="fill:none;stroke:#dba981;stroke-width:1.20039999;stroke-linecap:round;stroke-linejoin:miter;stroke-miterlimit:4;stroke-opacity:1;stroke-dasharray:3.6013, 1.2004;stroke-dashoffset:0" />
      <g
         id="text6934-6"
         style="font-size:14.51159954px;font-style:normal;font-variant:normal;font-weight:normal;font-stretch:normal;text-align:start;line-height:125%;letter-spacing:0px;word-spacing:0px;writing-mode:lr-tb;text-anchor:start;fill:#000000;fill-opacity:1;stroke:none;font-family:Standard Symbols L;-inkscape-font-specification:Standard Symbols L">
        <path
           id="path11359"
           d="m 305.31948,338.08004 0,3.8759 2.29578,0 c 0.76998,0 1.3392,-0.15825 1.70767,-0.47475 0.37317,-0.32121 0.55976,-0.81013 0.55977,-1.46674 -10e-6,-0.66134 -0.1866,-1.14789 -0.55977,-1.45967 -0.36847,-0.31649 -0.93769,-0.47474 -1.70767,-0.47474 l -2.29578,0 m 0,-4.35065 0,3.18859 2.11864,0 c 0.69912,0 1.21874,-0.1299 1.55886,-0.38972 0.34483,-0.26453 0.51725,-0.66605 0.51726,-1.20458 -10e-6,-0.53378 -0.17243,-0.93294 -0.51726,-1.19749 -0.34012,-0.26452 -0.85974,-0.39679 -1.55886,-0.3968 l -2.11864,0 m -1.43132,-1.17623 3.65625,0 c 1.09119,1e-5 1.93203,0.22675 2.52252,0.68023 0.59047,0.4535 0.88571,1.0983 0.88572,1.93441 -1e-5,0.64717 -0.15117,1.16207 -0.45349,1.54469 -0.30233,0.38264 -0.74637,0.62119 -1.33212,0.71566 0.70384,0.15117 1.24944,0.46766 1.63681,0.94949 0.39207,0.47711 0.5881,1.07467 0.58811,1.79269 -10e-6,0.94477 -0.32123,1.6746 -0.96366,2.1895 -0.64245,0.51489 -1.55651,0.77234 -2.74218,0.77234 l -3.79796,0 0,-10.57901"
           inkscape:connector-curvature="0" />
        <path
           id="path11361"
           d="m 317.3865,339.1429 c -1.05342,0 -1.78325,0.12046 -2.18949,0.36137 -0.40626,0.24092 -0.60938,0.65189 -0.60938,1.23292 0,0.46294 0.15116,0.8314 0.45349,1.10538 0.30705,0.26926 0.72274,0.40388 1.24709,0.40388 0.72274,0 1.30141,-0.25508 1.73601,-0.76526 0.43931,-0.51489 0.65897,-1.19748 0.65897,-2.04778 l 0,-0.29051 -1.29669,0 m 2.60047,-0.53852 0,4.52779 -1.30378,0 0,-1.20457 c -0.29761,0.48183 -0.66843,0.83848 -1.11246,1.06994 -0.44404,0.22675 -0.98728,0.34012 -1.62972,0.34012 -0.8125,0 -1.45967,-0.22675 -1.94149,-0.68023 -0.47711,-0.45821 -0.71566,-1.06995 -0.71566,-1.83521 0,-0.8928 0.2976,-1.56595 0.8928,-2.01944 0.59992,-0.45348 1.49273,-0.68022 2.67841,-0.68023 l 1.82812,0 0,-0.12754 c 0,-0.59992 -0.19841,-1.06286 -0.5952,-1.38881 -0.39208,-0.33066 -0.94477,-0.49599 -1.65806,-0.496 -0.4535,10e-6 -0.89517,0.0543 -1.32504,0.16297 -0.42987,0.10866 -0.8432,0.27163 -1.24,0.48892 l 0,-1.20458 c 0.4771,-0.18422 0.94004,-0.32121 1.3888,-0.41097 0.44876,-0.0945 0.88572,-0.14171 1.31086,-0.14171 1.14789,0 2.00526,0.2976 2.57213,0.8928 0.56685,0.59521 0.85028,1.49746 0.85029,2.70675"
           inkscape:connector-curvature="0" />
        <path
           id="path11363"
           d="m 328.39066,335.50083 0,1.21875 c -0.36847,-0.20312 -0.73929,-0.35429 -1.11246,-0.45349 -0.36847,-0.10392 -0.74165,-0.15588 -1.11955,-0.15589 -0.84557,10e-6 -1.50218,0.26927 -1.96984,0.80778 -0.46766,0.53379 -0.70149,1.28488 -0.70149,2.25326 0,0.96839 0.23383,1.72184 0.70149,2.26035 0.46766,0.5338 1.12427,0.80069 1.96984,0.80069 0.3779,0 0.75108,-0.0496 1.11955,-0.1488 0.37317,-0.10392 0.74399,-0.25745 1.11246,-0.46057 l 0,1.20457 c -0.36374,0.17006 -0.74165,0.29761 -1.13372,0.38263 -0.38736,0.085 -0.8007,0.12755 -1.24001,0.12755 -1.19513,0 -2.14462,-0.37555 -2.84847,-1.12663 -0.70385,-0.75109 -1.05577,-1.76435 -1.05577,-3.03979 0,-1.29432 0.35429,-2.31231 1.06286,-3.05395 0.7133,-0.74164 1.68877,-1.11246 2.92641,-1.11246 0.40152,0 0.7936,0.0425 1.17624,0.12754 0.38262,0.0803 0.75344,0.20313 1.11246,0.36846"
           inkscape:connector-curvature="0" />
        <path
           id="path11365"
           d="m 330.62267,332.10676 1.31086,0 0,6.51179 3.89007,-3.42241 1.66515,0 -4.20893,3.71293 4.38607,4.2231 -1.70057,0 -4.03179,-3.8759 0,3.8759 -1.31086,0 0,-11.02541"
           inkscape:connector-curvature="0" />
      </g>
      <path
         style="fill:none;stroke:#dba981;stroke-width:1.20039999;stroke-linecap:round;stroke-linejoin:miter;stroke-miterlimit:4;stroke-opacity:1;stroke-dasharray:3.6013, 1.2004;stroke-dashoffset:0"
         d="m 289.75982,374.2606 c 12.1,-5 46.8,-6 58.9,1"
         id="path3992-4-77-9-5-7-1-0"
         inkscape:connector-curvature="0"
         sodipodi:nodetypes="cc" />
      <path
         style="fill:none;stroke:#dba981;stroke-width:1.20039999;stroke-linecap:round;stroke-linejoin:miter;stroke-miterlimit:4;stroke-opacity:1;stroke-dasharray:3.6013, 1.2004;stroke-dashoffset:0"
         d="m 249.45982,464.2606 138,0"
         id="path8471-6-6-6-8-7-8-3-3-9-3"
         inkscape:connector-curvature="0"
         sodipodi:nodetypes="cc" />
      <path
         sodipodi:nodetypes="cc"
         inkscape:connector-curvature="0"
         id="path7494-1-6-3-5-81-64-9-2-0-5-7"
         d="m 391.35982,391.2606 -145.1,0"
         style="fill:none;stroke:#000000;stroke-width:2.41860008;stroke-linecap:round;stroke-linejoin:miter;stroke-miterlimit:4;stroke-opacity:1;stroke-dasharray:none;marker-start:url(#marker7359);marker-end:url(#marker7359)" />
      <path
         style="color:#000000;fill:#ffffff;fill-opacity:1;stroke:#00000f;stroke-width:1.12259996;stroke-linecap:round;stroke-linejoin:miter;stroke-miterlimit:4;stroke-opacity:0.94120029;stroke-dashoffset:0;marker:none;visibility:visible;display:inline;overflow:visible;enable-background:accumulate"
         d="m 330.05982,391.2606 c 0,7 -5.6,11 -11.3,11 -6.4,0 -11.3,-4 -11.3,-11 0,-6 4.9,-11 11.3,-11 5.7,0 10.5,5 11.3,11"
         id="path4050-8-0-5-3-4-0-7-3-0-68-5-6"
         inkscape:connector-curvature="0" />
      <text
         xml:space="preserve"
         style="font-size:14.51159954px;font-style:normal;font-variant:normal;font-weight:normal;font-stretch:normal;text-align:start;line-height:125%;letter-spacing:0px;word-spacing:0px;writing-mode:lr-tb;text-anchor:start;fill:#000000;fill-opacity:1;stroke:none;font-family:Standard Symbols L;-inkscape-font-specification:Standard Symbols L"
         x="315.37024"
         y="396.31406"
         id="text8512-9"
         sodipodi:linespacing="125%"><tspan
           sodipodi:role="line"
           id="tspan8514-9"
           x="315.37024"
           y="396.31406">7</tspan></text>
      <path
         sodipodi:nodetypes="cc"
         inkscape:connector-curvature="0"
         id="path7494-1-6-3-5-81-64-9-2-0-58"
         d="m 379.25982,427.2606 -118.5,-1"
         style="fill:none;stroke:#000000;stroke-width:2.41860008;stroke-linecap:round;stroke-linejoin:miter;stroke-miterlimit:4;stroke-opacity:1;stroke-dasharray:none;marker-start:url(#marker7359);marker-end:url(#marker7359)" />
      <path
         inkscape:connector-curvature="0"
         id="path4050-8-0-5-3-4-0-7-3-0-68-41"
         d="m 330.05982,426.2606 c 0,6 -5.6,11 -11.3,11 -6.4,0 -11.3,-5 -11.3,-11 0,-7 4.9,-12 11.3,-12 5.7,0 10.5,5 11.3,12"
         style="color:#000000;fill:#ffffff;fill-opacity:1;stroke:#00000f;stroke-width:1.12259996;stroke-linecap:round;stroke-linejoin:miter;stroke-miterlimit:4;stroke-opacity:0.94120029;stroke-dashoffset:0;marker:none;visibility:visible;display:inline;overflow:visible;enable-background:accumulate" />
      <text
         sodipodi:linespacing="125%"
         id="text8516-1"
         y="430.77914"
         x="315.13818"
         style="font-size:14.51159954px;font-style:normal;font-variant:normal;font-weight:normal;font-stretch:normal;text-align:start;line-height:125%;letter-spacing:0px;word-spacing:0px;writing-mode:lr-tb;text-anchor:start;fill:#000000;fill-opacity:1;stroke:none;font-family:Standard Symbols L;-inkscape-font-specification:Standard Symbols L"
         xml:space="preserve"><tspan
           y="430.77914"
           x="315.13818"
           id="tspan8518-4"
           sodipodi:role="line">8</tspan></text>
      <path
         sodipodi:nodetypes="cc"
         inkscape:connector-curvature="0"
         id="path7494-1-6-3-5-81-64-9-2-9-5-33"
         d="m 380.05982,456.2606 -123,-1"
         style="fill:none;stroke:#000000;stroke-width:2.41860008;stroke-linecap:round;stroke-linejoin:miter;stroke-miterlimit:4;stroke-opacity:1;stroke-dasharray:none;marker-start:url(#marker7359);marker-end:url(#marker7359)" />
      <path
         inkscape:connector-curvature="0"
         id="path4050-8-0-5-3-4-0-7-3-0-6-6-2"
         d="m 330.05982,450.2606 c 0,6 -5.6,11 -11.3,11 -6.4,0 -11.3,-5 -11.3,-11 0,-6 4.9,-11 11.3,-11 5.7,0 10.5,5 11.3,11"
         style="color:#000000;fill:#ffffff;fill-opacity:1;stroke:#00000f;stroke-width:1.12259996;stroke-linecap:round;stroke-linejoin:miter;stroke-miterlimit:4;stroke-opacity:0.94120029;stroke-dashoffset:0;marker:none;visibility:visible;display:inline;overflow:visible;enable-background:accumulate" />
      <text
         xml:space="preserve"
         style="font-size:14.51159954px;font-style:normal;font-variant:normal;font-weight:normal;font-stretch:normal;text-align:start;line-height:125%;letter-spacing:0px;word-spacing:0px;writing-mode:lr-tb;text-anchor:start;fill:#000000;fill-opacity:1;stroke:none;font-family:Standard Symbols L;-inkscape-font-specification:Standard Symbols L"
         x="315.37024"
         y="454.92465"
         id="text8520-9"
         sodipodi:linespacing="125%"><tspan
           sodipodi:role="line"
           id="tspan8522-6"
           x="315.37024"
           y="454.92465">9</tspan></text>
      <path
         style="fill:none;stroke:#dba981;stroke-width:1.20039999;stroke-linecap:round;stroke-linejoin:miter;stroke-miterlimit:4;stroke-opacity:1;stroke-dasharray:3.6013, 1.2004;stroke-dashoffset:0"
         d="m 251.75982,483.2606 132.3,0"
         id="path8471-6-6-6-8-7-8-3-3-9-3-3"
         inkscape:connector-curvature="0"
         sodipodi:nodetypes="cc" />
      <path
         style="fill:none;stroke:#dba981;stroke-width:0.82749999;stroke-linecap:round;stroke-linejoin:round;stroke-miterlimit:4;stroke-opacity:1;stroke-dasharray:none;display:inline"
         d="m 250.65982,451.2606 9.5,9"
         id="path8279-7-5-4-4-0"
         inkscape:connector-curvature="0"
         sodipodi:nodetypes="cc" />
      <path
         style="fill:none;stroke:#dba981;stroke-width:0.82749999;stroke-linecap:round;stroke-linejoin:round;stroke-miterlimit:4;stroke-opacity:1;stroke-dasharray:none;display:inline"
         d="m 260.15982,451.2606 -9.5,9"
         id="path8279-7-5-4-4-4-3"
         inkscape:connector-curvature="0"
         sodipodi:nodetypes="cc" />
      <path
         style="fill:none;stroke:#dba981;stroke-width:0.82749999;stroke-linecap:round;stroke-linejoin:round;stroke-miterlimit:4;stroke-opacity:1;stroke-dasharray:none;display:inline"
         d="m 377.35982,451.2606 9.5,9"
         id="path8279-7-5-4-4-2"
         inkscape:connector-curvature="0"
         sodipodi:nodetypes="cc" />
      <path
         style="fill:none;stroke:#dba981;stroke-width:0.82749999;stroke-linecap:round;stroke-linejoin:round;stroke-miterlimit:4;stroke-opacity:1;stroke-dasharray:none;display:inline"
         d="m 386.85982,451.2606 -9.5,9"
         id="path8279-7-5-4-4-4-2"
         inkscape:connector-curvature="0"
         sodipodi:nodetypes="cc" />
    </g>
  </g>
</svg>
