<?xml version="1.0" encoding="UTF-8" standalone="no"?>
<!-- Created with Inkscape (http://www.inkscape.org/) -->

<svg
   xmlns:dc="http://purl.org/dc/elements/1.1/"
   xmlns:cc="http://creativecommons.org/ns#"
   xmlns:rdf="http://www.w3.org/1999/02/22-rdf-syntax-ns#"
   xmlns:svg="http://www.w3.org/2000/svg"
   xmlns="http://www.w3.org/2000/svg"
   xmlns:sodipodi="http://sodipodi.sourceforge.net/DTD/sodipodi-0.dtd"
   xmlns:inkscape="http://www.inkscape.org/namespaces/inkscape"
   width="169.70679"
   height="217.16159"
   id="svg11446"
   version="1.1"
   inkscape:version="0.48.4 r9939"
   sodipodi:docname="Новий документ 117">
  <defs
     id="defs11448" />
  <sodipodi:namedview
     id="base"
     pagecolor="#ffffff"
     bordercolor="#666666"
     borderopacity="1.0"
     inkscape:pageopacity="0.0"
     inkscape:pageshadow="2"
     inkscape:zoom="1.979899"
     inkscape:cx="189.70289"
     inkscape:cy="51.490552"
     inkscape:document-units="px"
     inkscape:current-layer="layer1"
     showgrid="false"
     fit-margin-top="0"
     fit-margin-left="0"
     fit-margin-right="0"
     fit-margin-bottom="0"
     inkscape:window-width="1855"
     inkscape:window-height="1056"
     inkscape:window-x="65"
     inkscape:window-y="24"
     inkscape:window-maximized="1" />
  <metadata
     id="metadata11451">
    <rdf:RDF>
      <cc:Work
         rdf:about="">
        <dc:format>image/svg+xml</dc:format>
        <dc:type
           rdf:resource="http://purl.org/dc/dcmitype/StillImage" />
        <dc:title></dc:title>
      </cc:Work>
    </rdf:RDF>
  </metadata>
  <g
     inkscape:label="Layer 1"
     inkscape:groupmode="layer"
     id="layer1"
     transform="translate(-100.86089,-246.63853)">
    <g
       id="g11524">
      <path
         sodipodi:nodetypes="cc"
         inkscape:connector-curvature="0"
         id="path3992-4-77-9-5-7-1-08-6"
         d="m 186.03543,263.33002 -0.16124,198.08334"
         style="fill:none;stroke:#dba981;stroke-width:1.20043182;stroke-linecap:round;stroke-linejoin:miter;stroke-miterlimit:4;stroke-opacity:1;stroke-dasharray:3.6012954, 1.2004318;stroke-dashoffset:0;display:inline" />
      <path
         style="fill:none;stroke:#dba981;stroke-width:2.99987006;stroke-linecap:round;stroke-linejoin:miter;stroke-miterlimit:4;stroke-opacity:1;stroke-dasharray:none"
         d="m 257.06165,371.19958 c -17.17206,-16.9302 -12.093,-34.6666 0,-63.6898"
         id="path8584-0-8-6-3-8"
         inkscape:connector-curvature="0"
         sodipodi:nodetypes="cc" />
      <path
         style="fill:none;stroke:#dba981;stroke-width:2.99987006;stroke-linecap:round;stroke-linejoin:miter;stroke-miterlimit:4;stroke-opacity:1;stroke-dasharray:none"
         d="m 112.75185,369.58718 c 18.5426,-16.124 8.062,-45.1472 -1.6124,-63.6898"
         id="path8584-6-5-3-6-1-44"
         inkscape:connector-curvature="0"
         sodipodi:nodetypes="cc" />
      <path
         style="fill:none;stroke:#dba981;stroke-width:2.99987006;stroke-linecap:round;stroke-linejoin:miter;stroke-miterlimit:4;stroke-opacity:1;stroke-dasharray:none"
         d="m 131.29445,462.30018 c 2.4186,-16.9302 -5.6434,-31.4418 -9.6744,-48.372 -2.4186,-11.2868 -1.6124,-24.186 -5.6434,-35.4728 -9.6744,-20.155 -20.9612,-49.1782 -7.2558,-69.3332 7.2558,-8.8682 28.217,-8.062 44.341,-17.7364 3.2248,-1.6124 4.8372,-6.4496 5.6434,-10.4806 0,-4.8372 -0.8062,-12.8992 -0.8062,-12.8992 0,0 17.7364,-6.4496 27.4108,-6.4496 8.8682,0 26.6046,6.4496 26.6046,6.4496 0,0 -1.6124,8.8682 -0.8062,12.8992 0.8062,4.031 2.4186,8.8682 5.6434,11.2868 16.124,8.8682 37.0852,8.062 44.341,16.9302 17.7364,24.186 1.6124,49.1782 -7.2558,70.1394 -4.031,10.4806 -4.031,23.3798 -6.4496,34.6666 -3.2248,16.9302 -11.2868,31.4418 -9.6744,47.5658"
         id="path11142-7"
         inkscape:connector-curvature="0"
         sodipodi:nodetypes="cccccccaccccccc" />
      <path
         sodipodi:nodetypes="cc"
         inkscape:connector-curvature="0"
         id="path8471-6-6-6-8-7-8-3-3-9-81"
         d="m 132.90685,461.49398 101.5812,0"
         style="fill:none;stroke:#dba981;stroke-width:1.20043182;stroke-linecap:round;stroke-linejoin:miter;stroke-miterlimit:4;stroke-opacity:1;stroke-dasharray:3.6012954, 1.2004318;stroke-dashoffset:0" />
      <g
         id="text6934-6-7"
         style="font-size:14.51159954px;font-style:normal;font-variant:normal;font-weight:normal;font-stretch:normal;text-align:start;line-height:125%;letter-spacing:0px;word-spacing:0px;writing-mode:lr-tb;text-anchor:start;fill:#000000;fill-opacity:1;stroke:none;font-family:Standard Symbols L;-inkscape-font-specification:Standard Symbols L">
        <path
           id="path11516"
           d="m 171.02813,252.61181 0,3.8759 2.29578,0 c 0.76998,0 1.3392,-0.15825 1.70767,-0.47475 0.37317,-0.32122 0.55976,-0.81013 0.55977,-1.46675 -1e-5,-0.66133 -0.1866,-1.14788 -0.55977,-1.45966 -0.36847,-0.31649 -0.93769,-0.47474 -1.70767,-0.47474 l -2.29578,0 m 0,-4.35065 0,3.18858 2.11864,0 c 0.69912,1e-5 1.21874,-0.12989 1.55886,-0.38971 0.34483,-0.26453 0.51725,-0.66605 0.51726,-1.20458 -1e-5,-0.53378 -0.17243,-0.93294 -0.51726,-1.19749 -0.34012,-0.26452 -0.85974,-0.39679 -1.55886,-0.3968 l -2.11864,0 m -1.43132,-1.17623 3.65624,0 c 1.0912,10e-6 1.93204,0.22675 2.52253,0.68023 0.59047,0.4535 0.88571,1.0983 0.88572,1.93441 -1e-5,0.64717 -0.15118,1.16206 -0.45349,1.54469 -0.30233,0.38263 -0.74637,0.62119 -1.33212,0.71566 0.70384,0.15117 1.24944,0.46766 1.63681,0.94949 0.39206,0.47711 0.5881,1.07467 0.58811,1.79269 -1e-5,0.94477 -0.32123,1.6746 -0.96366,2.18949 -0.64245,0.5149 -1.55651,0.77235 -2.74218,0.77235 l -3.79796,0 0,-10.57901"
           inkscape:connector-curvature="0" />
        <path
           id="path11518"
           d="m 183.09515,253.67467 c -1.05342,0 -1.78325,0.12046 -2.1895,0.36137 -0.40625,0.24092 -0.60937,0.65189 -0.60937,1.23292 0,0.46294 0.15116,0.83139 0.45349,1.10538 0.30704,0.26925 0.72274,0.40388 1.24709,0.40388 0.72274,0 1.30141,-0.25508 1.73601,-0.76526 0.43931,-0.51489 0.65896,-1.19748 0.65897,-2.04778 l 0,-0.29051 -1.29669,0 m 2.60047,-0.53852 0,4.52779 -1.30378,0 0,-1.20458 c -0.29761,0.48184 -0.66843,0.83848 -1.11246,1.06995 -0.44405,0.22674 -0.98729,0.34012 -1.62972,0.34012 -0.8125,0 -1.45967,-0.22675 -1.9415,-0.68023 -0.4771,-0.45821 -0.71566,-1.06995 -0.71566,-1.83521 0,-0.8928 0.2976,-1.56595 0.89281,-2.01944 0.59992,-0.45348 1.49272,-0.68022 2.67841,-0.68023 l 1.82812,0 0,-0.12754 c -1e-5,-0.59992 -0.19841,-1.06286 -0.5952,-1.38881 -0.39209,-0.33066 -0.94477,-0.49599 -1.65807,-0.496 -0.45349,1e-5 -0.89516,0.0543 -1.32503,0.16297 -0.42987,0.10866 -0.8432,0.27163 -1.24,0.48892 l 0,-1.20458 c 0.4771,-0.18422 0.94003,-0.32121 1.3888,-0.41097 0.44876,-0.0945 0.88571,-0.14171 1.31086,-0.14172 1.14789,1e-5 2.00526,0.29761 2.57213,0.89281 0.56685,0.59521 0.85028,1.49746 0.85029,2.70675"
           inkscape:connector-curvature="0" />
        <path
           id="path11520"
           d="m 194.09931,250.0326 0,1.21874 c -0.36847,-0.20311 -0.73929,-0.35428 -1.11247,-0.45348 -0.36846,-0.10392 -0.74164,-0.15588 -1.11954,-0.15589 -0.84557,1e-5 -1.50218,0.26927 -1.96984,0.80777 -0.46766,0.5338 -0.70149,1.28489 -0.70149,2.25327 0,0.96839 0.23383,1.72184 0.70149,2.26035 0.46766,0.5338 1.12427,0.80069 1.96984,0.80069 0.3779,0 0.75108,-0.0496 1.11954,-0.1488 0.37318,-0.10392 0.744,-0.25745 1.11247,-0.46057 l 0,1.20457 c -0.36375,0.17006 -0.74165,0.2976 -1.13372,0.38263 -0.38736,0.085 -0.8007,0.12755 -1.24001,0.12755 -1.19513,0 -2.14462,-0.37555 -2.84847,-1.12664 -0.70385,-0.75108 -1.05577,-1.76434 -1.05577,-3.03978 0,-1.29432 0.35428,-2.31231 1.06286,-3.05395 0.71329,-0.74164 1.68876,-1.11246 2.92641,-1.11247 0.40152,1e-5 0.7936,0.0425 1.17623,0.12755 0.38263,0.0803 0.75345,0.20313 1.11247,0.36846"
           inkscape:connector-curvature="0" />
        <path
           id="path11522"
           d="m 196.33131,246.63853 1.31087,0 0,6.51179 3.89007,-3.42241 1.66515,0 -4.20893,3.71293 4.38607,4.2231 -1.70058,0 -4.03178,-3.8759 0,3.8759 -1.31087,0 0,-11.02541"
           inkscape:connector-curvature="0" />
      </g>
      <path
         style="fill:none;stroke:#dba981;stroke-width:1.20043182;stroke-linecap:round;stroke-linejoin:miter;stroke-miterlimit:4;stroke-opacity:1;stroke-dasharray:3.6012954, 1.2004318;stroke-dashoffset:0"
         d="m 155.48045,288.96718 c 12.093,-5.6434 46.7596,-6.4496 58.8526,0.8062"
         id="path3992-4-77-9-5-7-1-0-8"
         inkscape:connector-curvature="0"
         sodipodi:nodetypes="cc" />
      <path
         style="fill:none;stroke:#dba981;stroke-width:1.20043182;stroke-linecap:round;stroke-linejoin:miter;stroke-miterlimit:4;stroke-opacity:1;stroke-dasharray:3.6012954, 1.2004318;stroke-dashoffset:0"
         d="m 115.17045,379.26158 138.98888,0"
         id="path8471-6-6-6-8-7-8-3-3-9-3-4"
         inkscape:connector-curvature="0"
         sodipodi:nodetypes="cc" />
      <path
         sodipodi:nodetypes="cc"
         inkscape:connector-curvature="0"
         id="path7494-1-6-3-5-81-64-9-2-0-5-7-0"
         d="m 257.06165,305.89738 -72.558,0"
         style="fill:none;stroke:#7dc832;stroke-width:2.41860008;stroke-linecap:round;stroke-linejoin:miter;stroke-miterlimit:4;stroke-opacity:1;stroke-dasharray:none;marker-start:url(#marker7359);marker-end:url(#marker7359)" />
      <path
         style="color:#000000;fill:#ffffff;fill-opacity:1;stroke:#00000f;stroke-width:1.12255287;stroke-linecap:round;stroke-linejoin:miter;stroke-miterlimit:4;stroke-opacity:0.94120029;stroke-dashoffset:0;marker:none;visibility:visible;display:inline;overflow:visible;enable-background:accumulate"
         d="m 228.03845,307.50978 c 0,6.4496 -5.6434,11.2868 -11.2868,11.2868 -6.4496,0 -11.2868,-4.8372 -11.2868,-11.2868 0,-6.4496 4.8372,-11.2868 11.2868,-11.2868 5.6434,0 10.4806,4.8372 11.2868,11.2868"
         id="path4050-8-0-5-3-4-0-7-3-0-68-5-6-4"
         inkscape:connector-curvature="0" />
      <text
         xml:space="preserve"
         style="font-size:14.51159954px;font-style:normal;font-variant:normal;font-weight:normal;font-stretch:normal;text-align:start;line-height:125%;letter-spacing:0px;word-spacing:0px;writing-mode:lr-tb;text-anchor:start;fill:#000000;fill-opacity:1;stroke:none;font-family:Standard Symbols L;-inkscape-font-specification:Standard Symbols L"
         x="209.44505"
         y="312.43457"
         id="text8512-9-02"
         sodipodi:linespacing="125%"><tspan
           sodipodi:role="line"
           id="tspan8514-9-2"
           x="209.44505"
           y="312.43457">10</tspan></text>
      <path
         sodipodi:nodetypes="cc"
         inkscape:connector-curvature="0"
         id="path7494-1-6-3-5-81-64-9-2-0-58-2"
         d="m 246.98415,341.37018 -61.91616,0"
         style="fill:none;stroke:#7dc832;stroke-width:2.41860008;stroke-linecap:round;stroke-linejoin:miter;stroke-miterlimit:4;stroke-opacity:1;stroke-dasharray:none;marker-start:url(#marker7359);marker-end:url(#marker7359)" />
      <path
         inkscape:connector-curvature="0"
         id="path4050-8-0-5-3-4-0-7-3-0-68-41-8"
         d="m 228.03845,342.17638 c 0,6.4496 -5.6434,11.2868 -11.2868,11.2868 -6.4496,0 -11.2868,-4.8372 -11.2868,-11.2868 0,-6.4496 4.8372,-11.2868 11.2868,-11.2868 5.6434,0 10.4806,4.8372 11.2868,11.2868"
         style="color:#000000;fill:#ffffff;fill-opacity:1;stroke:#00000f;stroke-width:1.12255287;stroke-linecap:round;stroke-linejoin:miter;stroke-miterlimit:4;stroke-opacity:0.94120029;stroke-dashoffset:0;marker:none;visibility:visible;display:inline;overflow:visible;enable-background:accumulate" />
      <text
         sodipodi:linespacing="125%"
         id="text8516-1-8"
         y="346.89963"
         x="208.82831"
         style="font-size:14.51159954px;font-style:normal;font-variant:normal;font-weight:normal;font-stretch:normal;text-align:start;line-height:125%;letter-spacing:0px;word-spacing:0px;writing-mode:lr-tb;text-anchor:start;fill:#000000;fill-opacity:1;stroke:none;font-family:Standard Symbols L;-inkscape-font-specification:Standard Symbols L"
         xml:space="preserve"><tspan
           y="346.89963"
           x="208.82831"
           id="tspan8518-4-7"
           sodipodi:role="line">11</tspan></text>
      <path
         style="fill:none;stroke:#dba981;stroke-width:1.20043182;stroke-linecap:round;stroke-linejoin:miter;stroke-miterlimit:4;stroke-opacity:1;stroke-dasharray:3.6012954, 1.2004318;stroke-dashoffset:0"
         d="m 120.16889,397.80418 129.55634,0"
         id="path8471-6-6-6-8-7-8-3-3-9-3-3-5"
         inkscape:connector-curvature="0"
         sodipodi:nodetypes="cc" />
    </g>
  </g>
</svg>
