<?xml version="1.0" encoding="UTF-8" standalone="no"?>
<!-- Created with Inkscape (http://www.inkscape.org/) -->

<svg
   xmlns:dc="http://purl.org/dc/elements/1.1/"
   xmlns:cc="http://creativecommons.org/ns#"
   xmlns:rdf="http://www.w3.org/1999/02/22-rdf-syntax-ns#"
   xmlns:svg="http://www.w3.org/2000/svg"
   xmlns="http://www.w3.org/2000/svg"
   xmlns:sodipodi="http://sodipodi.sourceforge.net/DTD/sodipodi-0.dtd"
   xmlns:inkscape="http://www.inkscape.org/namespaces/inkscape"
   width="163.76395"
   height="213.25418"
   id="svg11639"
   version="1.1"
   inkscape:version="0.48.4 r9939"
   sodipodi:docname="Новий документ 120">
  <defs
     id="defs11641" />
  <sodipodi:namedview
     id="base"
     pagecolor="#ffffff"
     bordercolor="#666666"
     borderopacity="1.0"
     inkscape:pageopacity="0.0"
     inkscape:pageshadow="2"
     inkscape:zoom="1.979899"
     inkscape:cx="2.4596555"
     inkscape:cy="70.133835"
     inkscape:document-units="px"
     inkscape:current-layer="layer1"
     showgrid="false"
     fit-margin-top="0"
     fit-margin-left="0"
     fit-margin-right="0"
     fit-margin-bottom="0"
     inkscape:window-width="1855"
     inkscape:window-height="1056"
     inkscape:window-x="65"
     inkscape:window-y="24"
     inkscape:window-maximized="1" />
  <metadata
     id="metadata11644">
    <rdf:RDF>
      <cc:Work
         rdf:about="">
        <dc:format>image/svg+xml</dc:format>
        <dc:type
           rdf:resource="http://purl.org/dc/dcmitype/StillImage" />
        <dc:title></dc:title>
      </cc:Work>
    </rdf:RDF>
  </metadata>
  <g
     inkscape:label="Layer 1"
     inkscape:groupmode="layer"
     id="layer1"
     transform="translate(-100.97517,-322.87796)">
    <g
       id="g11707">
      <path
         sodipodi:nodetypes="cc"
         inkscape:connector-curvature="0"
         id="path8584-1-4-6-3-4-4-4"
         d="m 252.19094,441.113 c -4.8372,-1.6124 -29.0232,6.4496 -3.2248,-65.3022"
         style="fill:none;stroke:#dba981;stroke-width:2.99987006;stroke-linecap:round;stroke-linejoin:miter;stroke-miterlimit:4;stroke-opacity:1;stroke-dasharray:none" />
      <path
         sodipodi:nodetypes="cc"
         inkscape:connector-curvature="0"
         id="path8584-6-7-8-0-3-1-3-3"
         d="m 113.52454,440.3068 c 4.031,-1.6124 28.217,6.4496 2.4186,-65.3022"
         style="fill:none;stroke:#dba981;stroke-width:2.99987006;stroke-linecap:round;stroke-linejoin:miter;stroke-miterlimit:4;stroke-opacity:1;stroke-dasharray:none" />
      <path
         style="fill:none;stroke:#dba981;stroke-width:2.99987006;stroke-linecap:round;stroke-linejoin:miter;stroke-miterlimit:4;stroke-opacity:1;stroke-dasharray:none"
         d="m 130.45474,534.6322 c 2.4186,-16.9302 -5.6434,-32.248 -8.8682,-48.372 -2.4186,-11.2868 -1.6124,-24.9922 -6.4496,-35.4728 -8.062,-20.9612 -20.155,-49.1782 -6.4496,-70.1394 6.4496,-8.8682 26.6046,-8.062 42.7286,-16.9302 3.2248,-2.4186 4.031,-8.062 4.8372,-11.2868 0.8062,-4.031 -0.8062,-12.8992 -0.8062,-12.8992 0,0 17.7364,5.6434 27.4108,5.6434 8.8682,0 25.7984,-4.8372 25.7984,-4.8372 0,0 -1.6124,8.062 -0.8062,12.093 0.8062,4.031 2.4186,9.6744 4.8372,11.2868 16.124,9.6744 36.279,8.062 42.7286,17.7364 16.9302,24.186 2.4186,49.1782 -6.4496,69.3332 -4.8372,10.4806 -4.8372,24.186 -6.4496,35.4728 -3.2248,16.124 -11.2868,31.4418 -8.8682,48.372"
         id="path11116-9"
         inkscape:connector-curvature="0"
         sodipodi:nodetypes="cccccccacsccccc" />
      <path
         sodipodi:nodetypes="cc"
         inkscape:connector-curvature="0"
         id="path3992-4-77-9-5-7-1-2"
         d="m 152.22214,361.2992 c 9.6744,9.6744 55.6278,10.4806 58.8526,3.2248"
         style="fill:none;stroke:#dba981;stroke-width:1.20043182;stroke-linecap:round;stroke-linejoin:miter;stroke-miterlimit:4;stroke-opacity:1;stroke-dasharray:3.6012954, 1.2004318;stroke-dashoffset:0" />
      <g
         id="text6934-2-9-4"
         style="font-size:14.51159954px;font-style:normal;font-variant:normal;font-weight:normal;font-stretch:normal;text-align:start;line-height:125%;letter-spacing:0px;word-spacing:0px;writing-mode:lr-tb;text-anchor:start;fill:#000000;fill-opacity:1;stroke:none;font-family:Standard Symbols L;-inkscape-font-specification:Standard Symbols L">
        <path
           id="path11697"
           d="m 163.82997,322.87796 6.07956,0 0,1.20457 -4.64824,0 0,3.11773 4.19475,0 0,1.20458 -4.19475,0 0,5.05213 -1.43132,0 0,-10.57901"
           inkscape:connector-curvature="0" />
        <path
           id="path11699"
           d="m 175.68441,326.73969 c -0.14644,-0.085 -0.30705,-0.14643 -0.48183,-0.18423 -0.17006,-0.0425 -0.35901,-0.0638 -0.56686,-0.0638 -0.73692,0 -1.30378,0.24092 -1.70058,0.72274 -0.39208,0.47711 -0.58812,1.16443 -0.58811,2.06195 l 0,4.18059 -1.31087,0 0,-7.93603 1.31087,0 0,1.23292 c 0.27398,-0.48182 0.63062,-0.83847 1.06994,-1.06995 0.43932,-0.23618 0.97311,-0.35428 1.60138,-0.35429 0.0898,1e-5 0.18895,0.007 0.2976,0.0213 0.10865,0.009 0.2291,0.026 0.36138,0.0496 l 0.007,1.33921"
           inkscape:connector-curvature="0" />
        <path
           id="path11701"
           d="m 179.82957,326.435 c -0.69913,10e-6 -1.25182,0.27399 -1.65806,0.82195 -0.40625,0.54324 -0.60938,1.28961 -0.60938,2.23909 0,0.94949 0.20076,1.69822 0.60229,2.24618 0.40625,0.54324 0.9613,0.81486 1.66515,0.81486 0.6944,0 1.24472,-0.27398 1.65098,-0.82195 0.40624,-0.54796 0.60937,-1.29432 0.60937,-2.23909 0,-0.94004 -0.20313,-1.68404 -0.60937,-2.23201 -0.40626,-0.55268 -0.95658,-0.82902 -1.65098,-0.82903 m 0,-1.10538 c 1.13371,1e-5 2.02415,0.36847 2.67133,1.10538 0.64715,0.73692 0.97073,1.75727 0.97074,3.06104 -1e-5,1.29906 -0.32359,2.3194 -0.97074,3.06104 -0.64718,0.73692 -1.53762,1.10538 -2.67133,1.10538 -1.13845,0 -2.03125,-0.36846 -2.67841,-1.10538 -0.64244,-0.74164 -0.96366,-1.76198 -0.96366,-3.06104 0,-1.30377 0.32122,-2.32412 0.96366,-3.06104 0.64716,-0.73691 1.53996,-1.10537 2.67841,-1.10538"
           inkscape:connector-curvature="0" />
        <path
           id="path11703"
           d="m 192.22253,328.66701 0,4.78996 -1.30377,0 0,-4.74745 c -1e-5,-0.75108 -0.14645,-1.31322 -0.43932,-1.6864 -0.29288,-0.37318 -0.7322,-0.55977 -1.31795,-0.55978 -0.70385,10e-6 -1.2589,0.22439 -1.66515,0.67315 -0.40625,0.44877 -0.60937,1.0605 -0.60937,1.83521 l 0,4.48527 -1.31086,0 0,-7.93603 1.31086,0 0,1.23292 c 0.31177,-0.4771 0.67787,-0.83375 1.09829,-1.06995 0.42514,-0.23618 0.91406,-0.35428 1.46675,-0.35429 0.91169,1e-5 1.60137,0.28344 2.06904,0.85029 0.46765,0.56215 0.70148,1.39118 0.70148,2.4871"
           inkscape:connector-curvature="0" />
        <path
           id="path11705"
           d="m 196.12678,323.26767 0,2.25327 2.68549,0 0,1.01326 -2.68549,0 0,4.30813 c -1e-5,0.64717 0.0874,1.06286 0.26217,1.24709 0.1795,0.18423 0.54087,0.27635 1.08412,0.27635 l 1.3392,0 0,1.0912 -1.3392,0 c -1.00618,0 -1.70058,-0.18659 -2.08321,-0.55977 -0.38263,-0.37791 -0.57395,-1.06286 -0.57395,-2.05487 l 0,-4.30813 -0.95657,0 0,-1.01326 0.95657,0 0,-2.25327 1.31087,0"
           inkscape:connector-curvature="0" />
      </g>
      <path
         sodipodi:nodetypes="cc"
         inkscape:connector-curvature="0"
         id="path7494-1-6-3-5-81-64-9-2-0-5-1-2-6"
         d="m 249.77234,376.617 -66.9146,-7.2558"
         style="fill:none;stroke:#000000;stroke-width:2.41860008;stroke-linecap:round;stroke-linejoin:miter;stroke-miterlimit:4;stroke-opacity:1;stroke-dasharray:none;marker-start:url(#marker7359);marker-end:url(#marker7359)" />
      <path
         style="color:#000000;fill:#ffffff;fill-opacity:1;stroke:#00000f;stroke-width:1.12255287;stroke-linecap:round;stroke-linejoin:miter;stroke-miterlimit:4;stroke-opacity:0.94120029;stroke-dashoffset:0;marker:none;visibility:visible;display:inline;overflow:visible;enable-background:accumulate"
         d="m 228.00494,373.3922 c 0,6.4496 -5.6434,11.2868 -11.2868,11.2868 -6.4496,0 -11.2868,-4.8372 -11.2868,-11.2868 0,-6.4496 4.8372,-11.2868 11.2868,-11.2868 5.6434,0 10.4806,4.8372 11.2868,11.2868"
         id="path4050-8-0-5-3-4-0-7-3-0-68-5-1-2-8"
         inkscape:connector-curvature="0" />
      <text
         sodipodi:linespacing="125%"
         id="text8484-0-0"
         y="378.32623"
         x="208.83835"
         style="font-size:14.51159954px;font-style:normal;font-variant:normal;font-weight:normal;font-stretch:normal;text-align:start;line-height:125%;letter-spacing:0px;word-spacing:0px;writing-mode:lr-tb;text-anchor:start;fill:#000000;fill-opacity:1;stroke:none;font-family:Standard Symbols L;-inkscape-font-specification:Standard Symbols L"
         xml:space="preserve"><tspan
           y="378.32623"
           x="208.83835"
           id="tspan8486-3-0"
           sodipodi:role="line">12</tspan></text>
      <path
         sodipodi:nodetypes="csc"
         inkscape:connector-curvature="0"
         id="path3992-4-77-9-5-7-1-2-9"
         d="m 114.33074,444.3378 c 20.9612,0 9.6744,-20.155 67.7208,-20.9612 54.8216,0 48.372,22.5736 69.3332,21.7674"
         style="fill:none;stroke:#dba981;stroke-width:1.20043182;stroke-linecap:round;stroke-linejoin:miter;stroke-miterlimit:4;stroke-opacity:1;stroke-dasharray:3.6012954, 1.2004318;stroke-dashoffset:0" />
      <path
         sodipodi:nodetypes="cc"
         inkscape:connector-curvature="0"
         id="path3992-4-77-9-5-7-1-2-9-8"
         d="m 116.74934,454.8184 130.6044,0"
         style="fill:none;stroke:#dba981;stroke-width:1.20043182;stroke-linecap:round;stroke-linejoin:miter;stroke-miterlimit:4;stroke-opacity:1;stroke-dasharray:3.6012954, 1.2004318;stroke-dashoffset:0" />
      <path
         sodipodi:nodetypes="cc"
         inkscape:connector-curvature="0"
         id="path3992-4-77-9-5-7-1-2-9-8-8"
         d="m 130.45474,533.0198 103.9998,0.8062"
         style="fill:none;stroke:#dba981;stroke-width:1.20043182;stroke-linecap:round;stroke-linejoin:miter;stroke-miterlimit:4;stroke-opacity:1;stroke-dasharray:3.6012954, 1.2004318;stroke-dashoffset:0" />
      <path
         style="fill:none;stroke:#dba981;stroke-width:1.20043182;stroke-linecap:round;stroke-linejoin:miter;stroke-miterlimit:4;stroke-opacity:1;stroke-dasharray:3.6012954, 1.2004318;stroke-dashoffset:0"
         d="m 119.57104,472.5548 124.5579,-0.8062"
         id="path3992-4-77-9-5-7-1-2-9-8-1"
         inkscape:connector-curvature="0"
         sodipodi:nodetypes="cc" />
    </g>
  </g>
</svg>
