<?xml version="1.0" encoding="UTF-8" standalone="no"?>
<!-- Created with Inkscape (http://www.inkscape.org/) -->

<svg
   xmlns:dc="http://purl.org/dc/elements/1.1/"
   xmlns:cc="http://creativecommons.org/ns#"
   xmlns:rdf="http://www.w3.org/1999/02/22-rdf-syntax-ns#"
   xmlns:svg="http://www.w3.org/2000/svg"
   xmlns="http://www.w3.org/2000/svg"
   xmlns:sodipodi="http://sodipodi.sourceforge.net/DTD/sodipodi-0.dtd"
   xmlns:inkscape="http://www.inkscape.org/namespaces/inkscape"
   width="169.70679"
   height="217.08109"
   id="svg11771"
   version="1.1"
   inkscape:version="0.48.4 r9939"
   sodipodi:docname="Новий документ 123">
  <defs
     id="defs11773" />
  <sodipodi:namedview
     id="base"
     pagecolor="#ffffff"
     bordercolor="#666666"
     borderopacity="1.0"
     inkscape:pageopacity="0.0"
     inkscape:pageshadow="2"
     inkscape:zoom="1.4"
     inkscape:cx="157.27511"
     inkscape:cy="146.32638"
     inkscape:document-units="px"
     inkscape:current-layer="layer1"
     showgrid="false"
     fit-margin-top="0"
     fit-margin-left="0"
     fit-margin-right="0"
     fit-margin-bottom="0"
     inkscape:window-width="1855"
     inkscape:window-height="1056"
     inkscape:window-x="65"
     inkscape:window-y="24"
     inkscape:window-maximized="1" />
  <metadata
     id="metadata11776">
    <rdf:RDF>
      <cc:Work
         rdf:about="">
        <dc:format>image/svg+xml</dc:format>
        <dc:type
           rdf:resource="http://purl.org/dc/dcmitype/StillImage" />
        <dc:title></dc:title>
      </cc:Work>
    </rdf:RDF>
  </metadata>
  <g
     inkscape:label="Layer 1"
     inkscape:groupmode="layer"
     id="layer1"
     transform="translate(-180.86089,-266.67875)">
    <g
       id="g11873">
      <path
         sodipodi:nodetypes="cc"
         inkscape:connector-curvature="0"
         id="path3992-4-77-9-5-7-1-2-3"
         d="m 235.48045,311.3455 c 14.5116,-4.8372 42.7286,-6.4496 58.8526,0.8062"
         style="fill:none;stroke:#dba981;stroke-width:1.20043182;stroke-linecap:round;stroke-linejoin:miter;stroke-miterlimit:4;stroke-opacity:1;stroke-dasharray:3.6012954, 1.2004318;stroke-dashoffset:0" />
      <path
         sodipodi:nodetypes="cc"
         inkscape:connector-curvature="0"
         id="path8584-0-8-6-3-4"
         d="m 337.06165,391.1593 c -16.9302,-16.9302 -9.6744,-39.5038 0,-63.6898"
         style="fill:none;stroke:#dba981;stroke-width:2.99987006;stroke-linecap:round;stroke-linejoin:miter;stroke-miterlimit:4;stroke-opacity:1;stroke-dasharray:none" />
      <path
         sodipodi:nodetypes="cc"
         inkscape:connector-curvature="0"
         id="path8584-6-5-3-6-1-1"
         d="m 192.75185,389.5469 c 14.5116,-16.124 16.124,-31.4418 -1.6124,-63.6898"
         style="fill:none;stroke:#dba981;stroke-width:2.99987006;stroke-linecap:round;stroke-linejoin:miter;stroke-miterlimit:4;stroke-opacity:1;stroke-dasharray:none" />
      <path
         style="fill:none;stroke:#dba981;stroke-width:2.99987006;stroke-linecap:round;stroke-linejoin:miter;stroke-miterlimit:4;stroke-opacity:1;stroke-dasharray:none"
         d="m 211.29445,482.2599 c 2.4186,-16.9302 -5.6434,-31.4418 -9.6744,-48.372 -2.4186,-11.2868 -1.6124,-24.186 -5.6434,-35.4728 -9.6744,-20.155 -20.9612,-49.1782 -7.2558,-69.3332 7.2558,-8.8682 28.217,-8.062 44.341,-17.7364 3.2248,-1.6124 4.8372,-6.4496 5.6434,-10.4806 0,-4.031 -0.8062,-12.8992 -0.8062,-12.8992 0,0 17.7364,-6.4496 27.4108,-6.4496 8.8682,0 26.6046,6.4496 26.6046,6.4496 0,0 -1.6124,8.8682 -0.8062,12.8992 0.8062,4.031 2.4186,8.8682 5.6434,11.2868 16.124,9.6744 37.0852,8.062 44.341,16.9302 17.7364,24.186 1.6124,49.9844 -7.2558,70.1394 -4.031,10.4806 -4.031,23.3798 -6.4496,34.6666 -3.2248,16.9302 -11.2868,31.4418 -9.6744,47.5658"
         id="path11142-9"
         inkscape:connector-curvature="0"
         sodipodi:nodetypes="cccccccaccccccc" />
      <path
         style="fill:none;stroke:#000000;stroke-width:2.41860008;stroke-linecap:round;stroke-linejoin:miter;stroke-miterlimit:4;stroke-opacity:1;stroke-dasharray:none;marker-start:url(#marker7359);marker-end:url(#marker7359)"
         d="m 337.06165,325.8571 -73.3642,-17.7364"
         id="path7494-1-6-3-5-81-64-9-2-0-5-7-7"
         inkscape:connector-curvature="0"
         sodipodi:nodetypes="cc" />
      <path
         style="color:#000000;fill:#ffffff;fill-opacity:1;stroke:#00000f;stroke-width:1.12255287;stroke-linecap:round;stroke-linejoin:miter;stroke-miterlimit:4;stroke-opacity:0.94120029;stroke-dashoffset:0;marker:none;visibility:visible;display:inline;overflow:visible;enable-background:accumulate"
         d="m 312.06945,317.7951 c 0,6.4496 -5.6434,11.2868 -11.2868,11.2868 -6.4496,0 -11.2868,-4.8372 -11.2868,-11.2868 0,-5.6434 4.8372,-10.4806 11.2868,-10.4806 5.6434,0 10.4806,4.8372 11.2868,10.4806"
         id="path4050-8-0-5-3-4-0-7-3-0-68-5-6-0"
         inkscape:connector-curvature="0" />
      <g
         id="text6934-6-2"
         style="font-size:14.51159954px;font-style:normal;font-variant:normal;font-weight:normal;font-stretch:normal;text-align:start;line-height:125%;letter-spacing:0px;word-spacing:0px;writing-mode:lr-tb;text-anchor:start;fill:#000000;fill-opacity:1;stroke:none;font-family:Standard Symbols L;-inkscape-font-specification:Standard Symbols L">
        <path
           id="path11829"
           d="m 251.03779,272.65203 0,3.8759 2.29578,0 c 0.76998,0 1.3392,-0.15825 1.70766,-0.47475 0.37318,-0.32121 0.55977,-0.81013 0.55978,-1.46674 -1e-5,-0.66134 -0.1866,-1.14789 -0.55978,-1.45967 -0.36846,-0.31649 -0.93768,-0.47474 -1.70766,-0.47474 l -2.29578,0 m 0,-4.35065 0,3.18859 2.11864,0 c 0.69912,0 1.21874,-0.1299 1.55886,-0.38972 0.34483,-0.26453 0.51725,-0.66605 0.51726,-1.20458 -1e-5,-0.53378 -0.17243,-0.93294 -0.51726,-1.19749 -0.34012,-0.26452 -0.85974,-0.39679 -1.55886,-0.3968 l -2.11864,0 m -1.43132,-1.17623 3.65624,0 c 1.0912,10e-6 1.93204,0.22675 2.52253,0.68023 0.59047,0.4535 0.88571,1.0983 0.88571,1.93441 0,0.64717 -0.15117,1.16207 -0.45348,1.54469 -0.30234,0.38264 -0.74638,0.62119 -1.33212,0.71566 0.70384,0.15117 1.24944,0.46766 1.6368,0.94949 0.39207,0.47711 0.58811,1.07467 0.58812,1.79269 -1e-5,0.94477 -0.32123,1.6746 -0.96366,2.1895 -0.64245,0.51489 -1.55651,0.77234 -2.74218,0.77234 l -3.79796,0 0,-10.57901"
           inkscape:connector-curvature="0" />
        <path
           id="path11831"
           d="m 263.10481,273.71489 c -1.05342,0 -1.78325,0.12046 -2.1895,0.36137 -0.40625,0.24092 -0.60937,0.65189 -0.60937,1.23292 0,0.46294 0.15116,0.8314 0.45349,1.10538 0.30704,0.26926 0.72274,0.40389 1.24709,0.40388 0.72274,10e-6 1.30141,-0.25508 1.736,-0.76526 0.43931,-0.51489 0.65897,-1.19748 0.65898,-2.04777 l 0,-0.29052 -1.29669,0 m 2.60047,-0.53852 0,4.52779 -1.30378,0 0,-1.20457 c -0.29761,0.48183 -0.66843,0.83848 -1.11246,1.06994 -0.44405,0.22675 -0.98729,0.34012 -1.62972,0.34012 -0.8125,0 -1.45967,-0.22674 -1.9415,-0.68023 -0.4771,-0.45821 -0.71566,-1.06995 -0.71566,-1.83521 0,-0.8928 0.2976,-1.56594 0.89281,-2.01944 0.59992,-0.45348 1.49272,-0.68022 2.67841,-0.68023 l 1.82812,0 0,-0.12754 c -10e-6,-0.59992 -0.19841,-1.06286 -0.5952,-1.38881 -0.39209,-0.33066 -0.94477,-0.49599 -1.65807,-0.496 -0.45349,1e-5 -0.89517,0.0543 -1.32503,0.16297 -0.42987,0.10866 -0.84321,0.27163 -1.24001,0.48892 l 0,-1.20458 c 0.47711,-0.18422 0.94004,-0.32121 1.38881,-0.41097 0.44876,-0.0945 0.88571,-0.14171 1.31086,-0.14171 1.14789,0 2.00526,0.29761 2.57213,0.8928 0.56685,0.59521 0.85028,1.49746 0.85029,2.70675"
           inkscape:connector-curvature="0" />
        <path
           id="path11833"
           d="m 274.10896,270.07282 0,1.21875 c -0.36846,-0.20312 -0.73928,-0.35428 -1.11246,-0.45349 -0.36846,-0.10392 -0.74164,-0.15588 -1.11954,-0.15589 -0.84557,1e-5 -1.50219,0.26927 -1.96984,0.80778 -0.46766,0.5338 -0.70149,1.28488 -0.70149,2.25326 0,0.96839 0.23383,1.72184 0.70149,2.26035 0.46765,0.5338 1.12427,0.80069 1.96984,0.80069 0.3779,0 0.75108,-0.0496 1.11954,-0.1488 0.37318,-0.10392 0.744,-0.25744 1.11246,-0.46057 l 0,1.20458 c -0.36374,0.17005 -0.74164,0.2976 -1.13371,0.38263 -0.38736,0.085 -0.8007,0.12754 -1.24001,0.12754 -1.19513,0 -2.14462,-0.37555 -2.84847,-1.12663 -0.70385,-0.75109 -1.05577,-1.76435 -1.05577,-3.03979 0,-1.29432 0.35428,-2.3123 1.06286,-3.05395 0.71329,-0.74164 1.68876,-1.11246 2.92641,-1.11246 0.40152,0 0.7936,0.0425 1.17623,0.12754 0.38263,0.0803 0.75345,0.20313 1.11246,0.36846"
           inkscape:connector-curvature="0" />
        <path
           id="path11835"
           d="m 276.34097,266.67875 1.31087,0 0,6.51179 3.89007,-3.42241 1.66515,0 -4.20893,3.71293 4.38607,4.2231 -1.70058,0 -4.03178,-3.8759 0,3.8759 -1.31087,0 0,-11.02541"
           inkscape:connector-curvature="0" />
      </g>
      <text
         sodipodi:linespacing="125%"
         id="text8512-9-4"
         y="323.17575"
         x="293.09146"
         style="font-size:14.51159954px;font-style:normal;font-variant:normal;font-weight:normal;font-stretch:normal;text-align:start;line-height:125%;letter-spacing:0px;word-spacing:0px;writing-mode:lr-tb;text-anchor:start;fill:#000000;fill-opacity:1;stroke:none;font-family:Standard Symbols L;-inkscape-font-specification:Standard Symbols L"
         xml:space="preserve"><tspan
           y="323.17575"
           x="293.09146"
           id="tspan8514-9-7"
           sodipodi:role="line">13</tspan></text>
      <path
         sodipodi:nodetypes="cc"
         inkscape:connector-curvature="0"
         id="path8471-6-6-6-8-7-8-3-3-9-8"
         d="m 212.90685,481.4537 101.5812,0"
         style="fill:none;stroke:#dba981;stroke-width:1.20043182;stroke-linecap:round;stroke-linejoin:miter;stroke-miterlimit:4;stroke-opacity:1;stroke-dasharray:3.6012954, 1.2004318;stroke-dashoffset:0" />
      <path
         sodipodi:nodetypes="cc"
         inkscape:connector-curvature="0"
         id="path3992-4-77-9-5-7-1-2-3-2"
         d="m 194.36425,391.9655 142.6974,0"
         style="fill:none;stroke:#dba981;stroke-width:1.20043182;stroke-linecap:round;stroke-linejoin:miter;stroke-miterlimit:4;stroke-opacity:1;stroke-dasharray:3.6012954, 1.2004318;stroke-dashoffset:0" />
      <path
         sodipodi:nodetypes="cc"
         inkscape:connector-curvature="0"
         id="path3992-4-77-9-5-7-1-2-3-2-1"
         d="m 198.39525,403.2523 133.023,-0.8062"
         style="fill:none;stroke:#dba981;stroke-width:1.20043182;stroke-linecap:round;stroke-linejoin:miter;stroke-miterlimit:4;stroke-opacity:1;stroke-dasharray:3.6012954, 1.2004318;stroke-dashoffset:0" />
      <path
         style="fill:none;stroke:#dba981;stroke-width:1.20043182;stroke-linecap:round;stroke-linejoin:miter;stroke-miterlimit:4;stroke-opacity:1;stroke-dasharray:3.6012954, 1.2004318;stroke-dashoffset:0"
         d="m 199.12083,417.7639 129.07262,0"
         id="path3992-4-77-9-5-7-1-2-3-2-1-5"
         inkscape:connector-curvature="0"
         sodipodi:nodetypes="cc" />
    </g>
  </g>
</svg>
