<?xml version="1.0" encoding="UTF-8" standalone="no"?>
<!-- Created with Inkscape (http://www.inkscape.org/) -->

<svg
   xmlns:dc="http://purl.org/dc/elements/1.1/"
   xmlns:cc="http://creativecommons.org/ns#"
   xmlns:rdf="http://www.w3.org/1999/02/22-rdf-syntax-ns#"
   xmlns:svg="http://www.w3.org/2000/svg"
   xmlns="http://www.w3.org/2000/svg"
   xmlns:sodipodi="http://sodipodi.sourceforge.net/DTD/sodipodi-0.dtd"
   xmlns:inkscape="http://www.inkscape.org/namespaces/inkscape"
   width="163.76395"
   height="213.49597"
   id="svg11967"
   version="1.1"
   inkscape:version="0.48.4 r9939"
   sodipodi:docname="Новий документ 127">
  <defs
     id="defs11969" />
  <sodipodi:namedview
     id="base"
     pagecolor="#ffffff"
     bordercolor="#666666"
     borderopacity="1.0"
     inkscape:pageopacity="0.0"
     inkscape:pageshadow="2"
     inkscape:zoom="1.4"
     inkscape:cx="173.7874"
     inkscape:cy="132.4757"
     inkscape:document-units="px"
     inkscape:current-layer="layer1"
     showgrid="false"
     fit-margin-top="0"
     fit-margin-left="0"
     fit-margin-right="0"
     fit-margin-bottom="0"
     inkscape:window-width="1855"
     inkscape:window-height="1056"
     inkscape:window-x="65"
     inkscape:window-y="24"
     inkscape:window-maximized="1" />
  <metadata
     id="metadata11972">
    <rdf:RDF>
      <cc:Work
         rdf:about="">
        <dc:format>image/svg+xml</dc:format>
        <dc:type
           rdf:resource="http://purl.org/dc/dcmitype/StillImage" />
        <dc:title></dc:title>
      </cc:Work>
    </rdf:RDF>
  </metadata>
  <g
     inkscape:label="Layer 1"
     inkscape:groupmode="layer"
     id="layer1"
     transform="translate(-140.97513,-391.32846)">
    <g
       id="g12059">
      <path
         style="fill:none;stroke:#dba981;stroke-width:2.41860008;stroke-linecap:butt;stroke-linejoin:miter;stroke-miterlimit:4;stroke-opacity:1;stroke-dasharray:7.2558, 2.4186;stroke-dashoffset:0"
         d="m 193.0283,430.31398 0,34.18288"
         id="path3992-4-77-9-5-7-1-2-9-8-5-4"
         inkscape:connector-curvature="0"
         sodipodi:nodetypes="cc" />
      <path
         style="fill:none;stroke:#dba981;stroke-width:2.41860008;stroke-linecap:butt;stroke-linejoin:miter;stroke-miterlimit:4;stroke-opacity:1;stroke-dasharray:7.2558, 2.4186;stroke-dashoffset:0"
         d="m 251.0747,433.37754 0,30.15188"
         id="path3992-4-77-9-5-7-1-2-9-8-5-4-1"
         inkscape:connector-curvature="0"
         sodipodi:nodetypes="cc" />
      <path
         sodipodi:nodetypes="cc"
         inkscape:connector-curvature="0"
         id="path8584-1-4-6-3-4-4-4-4"
         d="m 292.1909,509.88592 c -4.8372,-1.69302 -29.0232,5.88526 -3.2248,-65.38282"
         style="fill:none;stroke:#dba981;stroke-width:2.99987006;stroke-linecap:round;stroke-linejoin:miter;stroke-miterlimit:4;stroke-opacity:1;stroke-dasharray:none" />
      <path
         sodipodi:nodetypes="cc"
         inkscape:connector-curvature="0"
         id="path8584-6-7-8-0-3-1-3-3-1"
         d="m 153.5245,509.07972 c 4.031,-1.69302 28.217,5.80464 2.4186,-65.46344"
         style="fill:none;stroke:#dba981;stroke-width:2.99987006;stroke-linecap:round;stroke-linejoin:miter;stroke-miterlimit:4;stroke-opacity:1;stroke-dasharray:none" />
      <path
         style="fill:none;stroke:#dba981;stroke-width:2.99987006;stroke-linecap:round;stroke-linejoin:miter;stroke-miterlimit:4;stroke-opacity:1;stroke-dasharray:none"
         d="m 170.4547,603.3245 c 2.4186,-17.17206 -5.6434,-32.248 -8.8682,-49.01696 -2.4186,-10.8837 -1.6124,-24.26662 -6.4496,-35.23094 -8.062,-20.9612 -20.155,-49.42006 -6.4496,-70.38126 6.4496,-8.38448 26.6046,-7.57828 42.7286,-16.76896 3.2248,-2.49922 4.031,-7.57828 4.8372,-10.8837 0.8062,-4.19224 -0.8062,-13.46354 -0.8062,-13.46354 0,0 17.7364,6.0465 27.4108,6.12712 8.8682,0.0806 25.7984,-5.2403 25.7984,-5.2403 0,0 -1.6124,8.38448 -0.8062,12.57672 0.8062,4.19224 2.4186,9.19068 4.8372,10.8837 16.124,10.0775 36.279,8.38448 42.7286,17.57516 16.9302,24.34724 2.4186,49.50068 -6.4496,69.57506 -4.8372,10.96432 -4.8372,24.34724 -6.4496,35.23094 -3.2248,16.76896 -11.2868,31.8449 -8.8682,49.01696"
         id="path11116-9-7"
         inkscape:connector-curvature="0"
         sodipodi:nodetypes="cccccccacsccccc" />
      <path
         sodipodi:nodetypes="cc"
         inkscape:connector-curvature="0"
         id="path3992-4-77-9-5-7-1-2-90"
         d="m 192.2221,430.07212 c 9.6744,9.11006 55.6278,9.91626 58.8526,2.57984"
         style="fill:none;stroke:#dba981;stroke-width:1.20043182;stroke-linecap:round;stroke-linejoin:miter;stroke-miterlimit:4;stroke-opacity:1;stroke-dasharray:3.6012954, 1.2004318;stroke-dashoffset:0" />
      <g
         id="text6934-2-9-4-0"
         style="font-size:14.51159954px;font-style:normal;font-variant:normal;font-weight:normal;font-stretch:normal;text-align:start;line-height:125%;letter-spacing:0px;word-spacing:0px;writing-mode:lr-tb;text-anchor:start;fill:#000000;fill-opacity:1;stroke:none;font-family:Standard Symbols L;-inkscape-font-specification:Standard Symbols L">
        <path
           id="path12049"
           d="m 203.52366,391.32846 6.07957,0 0,1.20457 -4.64825,0 0,3.11773 4.19476,0 0,1.20458 -4.19476,0 0,5.05213 -1.43132,0 0,-10.57901"
           inkscape:connector-curvature="0" />
        <path
           id="path12051"
           d="m 215.37811,395.19019 c -0.14645,-0.085 -0.30706,-0.14643 -0.48183,-0.18423 -0.17007,-0.0425 -0.35902,-0.0638 -0.56686,-0.0638 -0.73692,0 -1.30378,0.24092 -1.70058,0.72274 -0.39208,0.47711 -0.58812,1.16443 -0.58812,2.06195 l 0,4.18059 -1.31086,0 0,-7.93603 1.31086,0 0,1.23292 c 0.27398,-0.48182 0.63063,-0.83847 1.06995,-1.06995 0.43931,-0.23618 0.9731,-0.35428 1.60138,-0.35429 0.0897,1e-5 0.18894,0.007 0.2976,0.0213 0.10864,0.009 0.2291,0.026 0.36137,0.0496 l 0.007,1.33921"
           inkscape:connector-curvature="0" />
        <path
           id="path12053"
           d="m 219.52327,394.8855 c -0.69913,1e-5 -1.25182,0.27399 -1.65807,0.82195 -0.40625,0.54324 -0.60937,1.28961 -0.60937,2.23909 0,0.94949 0.20076,1.69822 0.60229,2.24618 0.40624,0.54324 0.96129,0.81486 1.66515,0.81486 0.69439,0 1.24472,-0.27398 1.65097,-0.82194 0.40625,-0.54797 0.60937,-1.29433 0.60938,-2.2391 -1e-5,-0.94004 -0.20313,-1.68404 -0.60938,-2.23201 -0.40625,-0.55268 -0.95658,-0.82902 -1.65097,-0.82903 m 0,-1.10538 c 1.13371,10e-6 2.02415,0.36847 2.67132,1.10538 0.64716,0.73692 0.97074,1.75727 0.97075,3.06104 -10e-6,1.29906 -0.32359,2.3194 -0.97075,3.06104 -0.64717,0.73692 -1.53761,1.10538 -2.67132,1.10538 -1.13845,0 -2.03125,-0.36846 -2.67841,-1.10538 -0.64245,-0.74164 -0.96367,-1.76198 -0.96367,-3.06104 0,-1.30377 0.32122,-2.32412 0.96367,-3.06104 0.64716,-0.73691 1.53996,-1.10537 2.67841,-1.10538"
           inkscape:connector-curvature="0" />
        <path
           id="path12055"
           d="m 231.91623,397.11751 0,4.78996 -1.30378,0 0,-4.74745 c 0,-0.75108 -0.14644,-1.31321 -0.43931,-1.6864 -0.29289,-0.37318 -0.7322,-0.55977 -1.31795,-0.55978 -0.70386,1e-5 -1.25891,0.22439 -1.66515,0.67315 -0.40625,0.44877 -0.60938,1.0605 -0.60938,1.83521 l 0,4.48527 -1.31086,0 0,-7.93603 1.31086,0 0,1.23292 c 0.31177,-0.4771 0.67787,-0.83375 1.09829,-1.06995 0.42515,-0.23618 0.91406,-0.35428 1.46675,-0.35429 0.9117,10e-6 1.60137,0.28344 2.06904,0.85029 0.46765,0.56215 0.70148,1.39118 0.70149,2.4871"
           inkscape:connector-curvature="0" />
        <path
           id="path12057"
           d="m 235.82047,391.71817 0,2.25327 2.6855,0 0,1.01326 -2.6855,0 0,4.30813 c 0,0.64717 0.0874,1.06286 0.26217,1.24709 0.17951,0.18423 0.54088,0.27635 1.08412,0.27635 l 1.33921,0 0,1.0912 -1.33921,0 c -1.00618,0 -1.70058,-0.18659 -2.08321,-0.55977 -0.38263,-0.37791 -0.57394,-1.06286 -0.57394,-2.05487 l 0,-4.30813 -0.95658,0 0,-1.01326 0.95658,0 0,-2.25327 1.31086,0"
           inkscape:connector-curvature="0" />
      </g>
      <path
         sodipodi:nodetypes="cc"
         inkscape:connector-curvature="0"
         id="path7494-1-6-3-5-81-64-9-2-0-5-1-2-6-8"
         d="M 251.8809,449.98526 193.0283,449.7434"
         style="fill:none;stroke:#000000;stroke-width:2.41860008;stroke-linecap:round;stroke-linejoin:miter;stroke-miterlimit:4;stroke-opacity:1;stroke-dasharray:none;marker-start:url(#marker7359);marker-end:url(#marker7359)" />
      <path
         style="color:#000000;fill:#ffffff;fill-opacity:1;stroke:#00000f;stroke-width:1.12255287;stroke-linecap:round;stroke-linejoin:miter;stroke-miterlimit:4;stroke-opacity:0.94120029;stroke-dashoffset:0;marker:none;visibility:visible;display:inline;overflow:visible;enable-background:accumulate"
         d="m 232.5321,449.98526 c 0,6.20774 -5.6434,11.20618 -11.2868,11.20618 -6.4496,0 -11.2868,-4.99844 -11.2868,-11.20618 0,-6.20774 4.8372,-11.20618 11.2868,-11.20618 5.6434,0 10.4806,4.99844 11.2868,11.12556"
         id="path4050-8-0-5-3-4-0-7-3-0-68-5-1-2-8-5"
         inkscape:connector-curvature="0" />
      <text
         sodipodi:linespacing="125%"
         id="text8484-0-0-0"
         y="454.86841"
         x="213.63246"
         style="font-size:14.51159954px;font-style:normal;font-variant:normal;font-weight:normal;font-stretch:normal;text-align:start;line-height:125%;letter-spacing:0px;word-spacing:0px;writing-mode:lr-tb;text-anchor:start;fill:#000000;fill-opacity:1;stroke:none;font-family:Standard Symbols L;-inkscape-font-specification:Standard Symbols L"
         xml:space="preserve"><tspan
           y="454.86841"
           x="213.63246"
           id="tspan8486-3-0-4"
           sodipodi:role="line">14</tspan></text>
      <path
         sodipodi:nodetypes="csc"
         inkscape:connector-curvature="0"
         id="path3992-4-77-9-5-7-1-2-9-4"
         d="m 154.3307,512.86886 c 18.5426,-0.4031 14.5116,-19.67128 67.7208,-20.71934 54.0154,-0.96744 49.9844,21.3643 69.3332,21.7674"
         style="fill:none;stroke:#dba981;stroke-width:1.20043182;stroke-linecap:round;stroke-linejoin:miter;stroke-miterlimit:4;stroke-opacity:1;stroke-dasharray:3.6012954, 1.2004318;stroke-dashoffset:0" />
      <path
         sodipodi:nodetypes="cc"
         inkscape:connector-curvature="0"
         id="path3992-4-77-9-5-7-1-2-9-8-5"
         d="m 158.3617,523.99442 128.992,-0.48372"
         style="fill:none;stroke:#dba981;stroke-width:1.20043182;stroke-linecap:round;stroke-linejoin:miter;stroke-miterlimit:4;stroke-opacity:1;stroke-dasharray:3.6012954, 1.2004318;stroke-dashoffset:0" />
      <path
         sodipodi:nodetypes="cc"
         inkscape:connector-curvature="0"
         id="path3992-4-77-9-5-7-1-2-9-8-8-6"
         d="m 170.4547,601.7121 103.9998,0.8062"
         style="fill:none;stroke:#dba981;stroke-width:1.20043182;stroke-linecap:round;stroke-linejoin:miter;stroke-miterlimit:4;stroke-opacity:1;stroke-dasharray:3.6012954, 1.2004318;stroke-dashoffset:0" />
      <path
         style="fill:none;stroke:#dba981;stroke-width:1.20043182;stroke-linecap:round;stroke-linejoin:miter;stroke-miterlimit:4;stroke-opacity:1;stroke-dasharray:3.6012954, 1.2004318;stroke-dashoffset:0"
         d="m 162.31212,542.0533 124.1548,0"
         id="path3992-4-77-9-5-7-1-2-9-8-5-5"
         inkscape:connector-curvature="0"
         sodipodi:nodetypes="cc" />
    </g>
  </g>
</svg>
