<?xml version="1.0" encoding="UTF-8" standalone="no"?>
<!-- Created with Inkscape (http://www.inkscape.org/) -->

<svg
   xmlns:dc="http://purl.org/dc/elements/1.1/"
   xmlns:cc="http://creativecommons.org/ns#"
   xmlns:rdf="http://www.w3.org/1999/02/22-rdf-syntax-ns#"
   xmlns:svg="http://www.w3.org/2000/svg"
   xmlns="http://www.w3.org/2000/svg"
   xmlns:sodipodi="http://sodipodi.sourceforge.net/DTD/sodipodi-0.dtd"
   xmlns:inkscape="http://www.inkscape.org/namespaces/inkscape"
   width="163.80922"
   height="217.79381"
   id="svg12335"
   version="1.1"
   inkscape:version="0.48.4 r9939"
   sodipodi:docname="Новий документ 133">
  <defs
     id="defs12337" />
  <sodipodi:namedview
     id="base"
     pagecolor="#ffffff"
     bordercolor="#666666"
     borderopacity="1.0"
     inkscape:pageopacity="0.0"
     inkscape:pageshadow="2"
     inkscape:zoom="1.4"
     inkscape:cx="263.66368"
     inkscape:cy="113.87344"
     inkscape:document-units="px"
     inkscape:current-layer="layer1"
     showgrid="false"
     fit-margin-top="0"
     fit-margin-left="0"
     fit-margin-right="0"
     fit-margin-bottom="0"
     inkscape:window-width="1855"
     inkscape:window-height="1056"
     inkscape:window-x="65"
     inkscape:window-y="24"
     inkscape:window-maximized="1" />
  <metadata
     id="metadata12340">
    <rdf:RDF>
      <cc:Work
         rdf:about="">
        <dc:format>image/svg+xml</dc:format>
        <dc:type
           rdf:resource="http://purl.org/dc/dcmitype/StillImage" />
        <dc:title></dc:title>
      </cc:Work>
    </rdf:RDF>
  </metadata>
  <g
     inkscape:label="Layer 1"
     inkscape:groupmode="layer"
     id="layer1"
     transform="translate(-246.66682,-332.03674)">
    <g
       id="g12412">
      <path
         sodipodi:nodetypes="cc"
         inkscape:connector-curvature="0"
         id="path8279-7-5-8"
         d="m 358.37215,461.3306 14,14"
         style="fill:none;stroke:#dba981;stroke-width:0.82749999;stroke-linecap:round;stroke-linejoin:round;stroke-miterlimit:4;stroke-opacity:1;stroke-dasharray:none;display:inline" />
      <path
         sodipodi:nodetypes="cc"
         inkscape:connector-curvature="0"
         id="path8279-7-5-6-1"
         d="m 372.37215,461.3306 -14,14"
         style="fill:none;stroke:#dba981;stroke-width:0.82749999;stroke-linecap:round;stroke-linejoin:round;stroke-miterlimit:4;stroke-opacity:1;stroke-dasharray:none;display:inline" />
      <path
         style="fill:none;stroke:#dba981;stroke-width:1.20039999;stroke-linecap:round;stroke-linejoin:miter;stroke-miterlimit:4;stroke-opacity:1;stroke-dasharray:3.6011, 1.2004;stroke-dashoffset:0;display:inline"
         d="m 327.57215,379.3306 0,167"
         id="path3992-4-77-9-5-7-1-2-90-1-8-6"
         inkscape:connector-curvature="0"
         sodipodi:nodetypes="cc" />
      <path
         sodipodi:nodetypes="cc"
         inkscape:connector-curvature="0"
         id="path8584-1-4-6-3-4-4-4-4-7-05"
         d="m 397.87215,454.3306 c -4.8,-2 -29,6 -3.2,-65"
         style="fill:none;stroke:#dba981;stroke-width:2.9999001;stroke-linecap:round;stroke-linejoin:miter;stroke-miterlimit:4;stroke-opacity:1;stroke-dasharray:none" />
      <path
         sodipodi:nodetypes="cc"
         inkscape:connector-curvature="0"
         id="path8584-6-7-8-0-3-1-3-3-1-1-3"
         d="m 257.67215,453.3306 c 4,-1 29.8,6 4,-65"
         style="fill:none;stroke:#dba981;stroke-width:2.9999001;stroke-linecap:round;stroke-linejoin:miter;stroke-miterlimit:4;stroke-opacity:1;stroke-dasharray:none" />
      <path
         style="fill:none;stroke:#dba981;stroke-width:2.9999001;stroke-linecap:round;stroke-linejoin:miter;stroke-miterlimit:4;stroke-opacity:1;stroke-dasharray:none"
         d="m 276.17215,548.3306 c 2.4,-17 -5.6,-33 -8.9,-50 -2.4,-10 -1.6,-24 -6.4,-34 -8.1,-21 -20.2,-50 -6.5,-71 6.5,-8 29.9,-9 46,-18 3.2,-2 4,-7 4.8,-11 0.8,-4 -0.8,-14 -0.8,-14 0,0 15.3,5 23.4,5 7.3,-1 21,-6 21,-6 0,0 -1.7,8 -0.9,12 0.9,4 2.5,10 4.9,12 16.1,9 41.9,12 48.4,21 16.9,24 2.4,50 -6.5,70 -4.8,10 -4.8,24 -6.4,34 -3.3,17 -11.3,33 -8.9,50"
         id="path11116-9-7-3-8"
         inkscape:connector-curvature="0"
         sodipodi:nodetypes="cccccacacaccccc" />
      <path
         sodipodi:nodetypes="cc"
         inkscape:connector-curvature="0"
         id="path3992-4-77-9-5-7-1-2-90-1-8"
         d="m 301.17215,374.3306 c 11.3,9 50.8,6 51.6,-1"
         style="fill:none;stroke:#dba981;stroke-width:1.20039999;stroke-linecap:round;stroke-linejoin:miter;stroke-miterlimit:4;stroke-opacity:1;stroke-dasharray:3.6013, 1.2004;stroke-dashoffset:0" />
      <g
         id="text6934-2-9-4-0-5-4"
         style="font-size:14.51159954px;font-style:normal;font-variant:normal;font-weight:normal;font-stretch:normal;text-align:start;line-height:125%;letter-spacing:0px;word-spacing:0px;writing-mode:lr-tb;text-anchor:start;fill:#000000;fill-opacity:1;stroke:none;font-family:Standard Symbols L;-inkscape-font-specification:Standard Symbols L">
        <path
           id="path12402"
           d="m 310.65537,332.03674 6.07957,0 0,1.20458 -4.64825,0 0,3.11772 4.19476,0 0,1.20458 -4.19476,0 0,5.05213 -1.43132,0 0,-10.57901"
           inkscape:connector-curvature="0" />
        <path
           id="path12404"
           d="m 322.50982,335.89847 c -0.14644,-0.085 -0.30705,-0.14643 -0.48183,-0.18423 -0.17006,-0.0425 -0.35902,-0.0638 -0.56686,-0.0638 -0.73692,10e-6 -1.30378,0.24092 -1.70058,0.72274 -0.39208,0.47712 -0.58812,1.16443 -0.58811,2.06196 l 0,4.18058 -1.31087,0 0,-7.93603 1.31087,0 0,1.23292 c 0.27398,-0.48182 0.63062,-0.83847 1.06994,-1.06995 0.43932,-0.23618 0.97311,-0.35427 1.60138,-0.35428 0.0898,10e-6 0.18895,0.007 0.2976,0.0213 0.10864,0.009 0.2291,0.026 0.36137,0.0496 l 0.007,1.33921"
           inkscape:connector-curvature="0" />
        <path
           id="path12406"
           d="m 326.65498,335.59378 c -0.69913,1e-5 -1.25182,0.27399 -1.65806,0.82195 -0.40626,0.54324 -0.60938,1.28961 -0.60938,2.23909 0,0.9495 0.20076,1.69822 0.60229,2.24618 0.40625,0.54325 0.9613,0.81486 1.66515,0.81486 0.6944,0 1.24472,-0.27398 1.65098,-0.82194 0.40624,-0.54796 0.60936,-1.29433 0.60937,-2.2391 -10e-6,-0.94003 -0.20313,-1.68404 -0.60937,-2.23201 -0.40626,-0.55268 -0.95658,-0.82902 -1.65098,-0.82903 m 0,-1.10537 c 1.13371,1e-5 2.02415,0.36846 2.67132,1.10537 0.64716,0.73693 0.97074,1.75727 0.97075,3.06104 -1e-5,1.29906 -0.32359,2.3194 -0.97075,3.06104 -0.64717,0.73692 -1.53761,1.10538 -2.67132,1.10538 -1.13845,0 -2.03125,-0.36846 -2.67841,-1.10538 -0.64244,-0.74164 -0.96366,-1.76198 -0.96366,-3.06104 0,-1.30377 0.32122,-2.32411 0.96366,-3.06104 0.64716,-0.73691 1.53996,-1.10536 2.67841,-1.10537"
           inkscape:connector-curvature="0" />
        <path
           id="path12408"
           d="m 339.04794,337.82579 0,4.78996 -1.30377,0 0,-4.74744 c -10e-6,-0.75109 -0.14645,-1.31322 -0.43932,-1.68641 -0.29288,-0.37318 -0.7322,-0.55977 -1.31795,-0.55977 -0.70385,0 -1.2589,0.22438 -1.66515,0.67314 -0.40625,0.44877 -0.60937,1.06051 -0.60937,1.83521 l 0,4.48527 -1.31086,0 0,-7.93603 1.31086,0 0,1.23292 c 0.31177,-0.4771 0.67786,-0.83375 1.09829,-1.06995 0.42514,-0.23618 0.91405,-0.35427 1.46675,-0.35428 0.91169,1e-5 1.60137,0.28343 2.06903,0.85029 0.46766,0.56214 0.70148,1.39117 0.70149,2.48709"
           inkscape:connector-curvature="0" />
        <path
           id="path12410"
           d="m 342.95219,332.42646 0,2.25326 2.68549,0 0,1.01326 -2.68549,0 0,4.30813 c -10e-6,0.64717 0.0874,1.06287 0.26217,1.24709 0.1795,0.18424 0.54087,0.27635 1.08412,0.27635 l 1.3392,0 0,1.0912 -1.3392,0 c -1.00618,0 -1.70058,-0.18659 -2.08321,-0.55977 -0.38263,-0.37791 -0.57395,-1.06286 -0.57395,-2.05487 l 0,-4.30813 -0.95657,0 0,-1.01326 0.95657,0 0,-2.25326 1.31087,0"
           inkscape:connector-curvature="0" />
      </g>
      <path
         sodipodi:nodetypes="csc"
         inkscape:connector-curvature="0"
         id="path3992-4-77-9-5-7-1-2-9-4-0-4"
         d="m 260.87215,458.3306 c 15.3,0 12.9,-20 66.9,-22 56.4,0 50,22 69.3,22"
         style="fill:none;stroke:#dba981;stroke-width:1.20039999;stroke-linecap:round;stroke-linejoin:miter;stroke-miterlimit:4;stroke-opacity:1;stroke-dasharray:3.6013, 1.2004;stroke-dashoffset:0" />
      <path
         sodipodi:nodetypes="cc"
         inkscape:connector-curvature="0"
         id="path3992-4-77-9-5-7-1-2-9-8-5-7-5"
         d="m 263.27215,468.3306 129.8,0"
         style="fill:none;stroke:#dba981;stroke-width:1.20039999;stroke-linecap:round;stroke-linejoin:miter;stroke-miterlimit:4;stroke-opacity:1;stroke-dasharray:3.6013, 1.2004;stroke-dashoffset:0" />
      <path
         sodipodi:nodetypes="cc"
         inkscape:connector-curvature="0"
         id="path3992-4-77-9-5-7-1-2-9-8-8-6-68-7"
         d="m 276.17215,546.3306 104,1"
         style="fill:none;stroke:#dba981;stroke-width:1.20039999;stroke-linecap:round;stroke-linejoin:miter;stroke-miterlimit:4;stroke-opacity:1;stroke-dasharray:3.6013, 1.2004;stroke-dashoffset:0" />
      <path
         style="fill:none;stroke:#dba981;stroke-width:1.20039999;stroke-linecap:round;stroke-linejoin:miter;stroke-miterlimit:4;stroke-opacity:1;stroke-dasharray:3.6013, 1.2004;stroke-dashoffset:0"
         d="m 264.87215,487.3306 124.2,1"
         id="path3992-4-77-9-5-7-1-2-9-8-5-4-1-4-1"
         inkscape:connector-curvature="0"
         sodipodi:nodetypes="cc" />
      <path
         sodipodi:nodetypes="cc"
         inkscape:connector-curvature="0"
         id="path4866-8"
         d="m 364.87215,468.3306 -37.1,0"
         style="fill:none;stroke:#7dc832;stroke-width:2.41860008;stroke-linecap:round;stroke-linejoin:round;stroke-miterlimit:4;stroke-opacity:1;stroke-dasharray:none" />
      <path
         transform="matrix(0.8062,0,0,0.8062,19.77215,-1761.6694)"
         sodipodi:open="true"
         sodipodi:end="6.278"
         sodipodi:start="0"
         d="m 421,2776 c 0,8.2843 -6.71573,15 -15,15 -8.28427,0 -15,-6.7157 -15,-15 0,-8.2843 6.71573,-15 15,-15 8.25391,0 14.957,6.6684 14.9998,14.9222"
         sodipodi:ry="15"
         sodipodi:rx="15"
         sodipodi:cy="2776"
         sodipodi:cx="406"
         id="path19730-5-8"
         style="color:#000000;fill:#ffffff;fill-opacity:1;fill-rule:nonzero;stroke:#000000;stroke-width:1.5;stroke-linecap:round;stroke-linejoin:round;stroke-miterlimit:4;stroke-opacity:1;stroke-dasharray:none;stroke-dashoffset:0;marker:none;visibility:visible;display:inline;overflow:visible;enable-background:accumulate"
         sodipodi:type="arc" />
      <text
         sodipodi:linespacing="125%"
         id="text8484-0-0-0-8-7-8-9"
         y="481.70901"
         x="343.5965"
         style="font-size:14.51159954px;font-style:normal;font-variant:normal;font-weight:normal;font-stretch:normal;text-align:start;line-height:125%;letter-spacing:0px;word-spacing:0px;writing-mode:lr-tb;text-anchor:start;fill:#000000;fill-opacity:1;stroke:none;font-family:Standard Symbols L;-inkscape-font-specification:Standard Symbols L"
         xml:space="preserve"><tspan
           y="481.70901"
           x="343.5965"
           id="tspan8486-3-0-4-3-7-3-4"
           sodipodi:role="line">5</tspan></text>
    </g>
  </g>
</svg>
