<?xml version="1.0" encoding="UTF-8" standalone="no"?>
<!-- Created with Inkscape (http://www.inkscape.org/) -->

<svg
   xmlns:dc="http://purl.org/dc/elements/1.1/"
   xmlns:cc="http://creativecommons.org/ns#"
   xmlns:rdf="http://www.w3.org/1999/02/22-rdf-syntax-ns#"
   xmlns:svg="http://www.w3.org/2000/svg"
   xmlns="http://www.w3.org/2000/svg"
   xmlns:sodipodi="http://sodipodi.sourceforge.net/DTD/sodipodi-0.dtd"
   xmlns:inkscape="http://www.inkscape.org/namespaces/inkscape"
   width="163.80922"
   height="217.79381"
   id="svg12482"
   version="1.1"
   inkscape:version="0.48.4 r9939"
   sodipodi:docname="Новий документ 136">
  <defs
     id="defs12484" />
  <sodipodi:namedview
     id="base"
     pagecolor="#ffffff"
     bordercolor="#666666"
     borderopacity="1.0"
     inkscape:pageopacity="0.0"
     inkscape:pageshadow="2"
     inkscape:zoom="1.4"
     inkscape:cx="195.79123"
     inkscape:cy="100.33018"
     inkscape:document-units="px"
     inkscape:current-layer="layer1"
     showgrid="false"
     fit-margin-top="0"
     fit-margin-left="0"
     fit-margin-right="0"
     fit-margin-bottom="0"
     inkscape:window-width="1855"
     inkscape:window-height="1056"
     inkscape:window-x="65"
     inkscape:window-y="24"
     inkscape:window-maximized="1" />
  <metadata
     id="metadata12487">
    <rdf:RDF>
      <cc:Work
         rdf:about="">
        <dc:format>image/svg+xml</dc:format>
        <dc:type
           rdf:resource="http://purl.org/dc/dcmitype/StillImage" />
        <dc:title></dc:title>
      </cc:Work>
    </rdf:RDF>
  </metadata>
  <g
     inkscape:label="Layer 1"
     inkscape:groupmode="layer"
     id="layer1"
     transform="translate(-226.66682,-363.46524)">
    <g
       id="g12559">
      <path
         style="fill:none;stroke:#dba981;stroke-width:0.82749999;stroke-linecap:round;stroke-linejoin:round;stroke-miterlimit:4;stroke-opacity:1;stroke-dasharray:none;display:inline"
         d="m 337.87215,492.7591 14,14"
         id="path8279-7-5-88"
         inkscape:connector-curvature="0"
         sodipodi:nodetypes="cc" />
      <path
         style="fill:none;stroke:#dba981;stroke-width:0.82749999;stroke-linecap:round;stroke-linejoin:round;stroke-miterlimit:4;stroke-opacity:1;stroke-dasharray:none;display:inline"
         d="m 351.87215,492.7591 -14,14"
         id="path8279-7-5-6-14"
         inkscape:connector-curvature="0"
         sodipodi:nodetypes="cc" />
      <path
         sodipodi:nodetypes="cc"
         inkscape:connector-curvature="0"
         id="path8584-1-4-6-3-4-4-4-4-7-2"
         d="m 377.87215,485.7591 c -4.8,-2 -29,6 -3.2,-65"
         style="fill:none;stroke:#dba981;stroke-width:2.9999001;stroke-linecap:round;stroke-linejoin:miter;stroke-miterlimit:4;stroke-opacity:1;stroke-dasharray:none" />
      <path
         sodipodi:nodetypes="cc"
         inkscape:connector-curvature="0"
         id="path8584-6-7-8-0-3-1-3-3-1-1-8"
         d="m 237.67215,484.7591 c 4,-1 29.8,6 4,-65"
         style="fill:none;stroke:#dba981;stroke-width:2.9999001;stroke-linecap:round;stroke-linejoin:miter;stroke-miterlimit:4;stroke-opacity:1;stroke-dasharray:none" />
      <path
         style="fill:none;stroke:#dba981;stroke-width:2.9999001;stroke-linecap:round;stroke-linejoin:miter;stroke-miterlimit:4;stroke-opacity:1;stroke-dasharray:none"
         d="m 256.17215,579.7591 c 2.4,-17 -5.6,-33 -8.9,-50 -2.4,-10 -1.6,-24 -6.4,-34 -8.1,-21 -20.2,-50 -6.5,-71 6.5,-8 29.9,-9 46,-18 3.2,-2 4,-7 4.8,-11 0.8,-4 -0.8,-14 -0.8,-14 0,0 15.3,5 23.4,5 7.3,-1 21,-6 21,-6 0,0 -1.7,8 -0.9,12 0.9,4 2.5,10 4.9,12 16.1,9 41.9,12 48.4,21 16.9,24 2.4,50 -6.5,70 -4.8,10 -4.8,24 -6.4,34 -3.3,17 -11.3,33 -8.9,50"
         id="path11116-9-7-3-1"
         inkscape:connector-curvature="0"
         sodipodi:nodetypes="cccccacacaccccc" />
      <path
         sodipodi:nodetypes="cc"
         inkscape:connector-curvature="0"
         id="path3992-4-77-9-5-7-1-2-90-1-42"
         d="m 281.17215,405.7591 c 11.3,9 50.8,6 51.6,-1"
         style="fill:none;stroke:#dba981;stroke-width:1.20039999;stroke-linecap:round;stroke-linejoin:miter;stroke-miterlimit:4;stroke-opacity:1;stroke-dasharray:3.6013, 1.2004;stroke-dashoffset:0" />
      <g
         id="text6934-2-9-4-0-5-33"
         style="font-size:14.51159954px;font-style:normal;font-variant:normal;font-weight:normal;font-stretch:normal;text-align:start;line-height:125%;letter-spacing:0px;word-spacing:0px;writing-mode:lr-tb;text-anchor:start;fill:#000000;fill-opacity:1;stroke:none;font-family:Standard Symbols L;-inkscape-font-specification:Standard Symbols L">
        <path
           id="path12549"
           d="m 290.66535,363.46524 6.07957,0 0,1.20457 -4.64825,0 0,3.11773 4.19476,0 0,1.20458 -4.19476,0 0,5.05213 -1.43132,0 0,-10.57901"
           inkscape:connector-curvature="0" />
        <path
           id="path12551"
           d="m 302.5198,367.32697 c -0.14644,-0.085 -0.30705,-0.14643 -0.48183,-0.18423 -0.17006,-0.0425 -0.35902,-0.0638 -0.56686,-0.0638 -0.73692,0 -1.30378,0.24092 -1.70058,0.72274 -0.39208,0.47711 -0.58812,1.16443 -0.58811,2.06195 l 0,4.18059 -1.31087,0 0,-7.93603 1.31087,0 0,1.23292 c 0.27397,-0.48182 0.63062,-0.83847 1.06994,-1.06995 0.43931,-0.23618 0.97311,-0.35428 1.60138,-0.35429 0.0897,10e-6 0.18895,0.007 0.2976,0.0213 0.10864,0.009 0.2291,0.026 0.36137,0.0496 l 0.007,1.33921"
           inkscape:connector-curvature="0" />
        <path
           id="path12553"
           d="m 306.66496,367.02228 c -0.69913,10e-6 -1.25182,0.27399 -1.65806,0.82195 -0.40626,0.54324 -0.60938,1.28961 -0.60938,2.23909 0,0.94949 0.20076,1.69822 0.60229,2.24618 0.40625,0.54324 0.96129,0.81486 1.66515,0.81486 0.6944,0 1.24472,-0.27398 1.65098,-0.82194 0.40624,-0.54797 0.60936,-1.29433 0.60937,-2.2391 -1e-5,-0.94004 -0.20313,-1.68404 -0.60937,-2.23201 -0.40626,-0.55268 -0.95658,-0.82902 -1.65098,-0.82903 m 0,-1.10538 c 1.13371,10e-6 2.02415,0.36847 2.67132,1.10538 0.64716,0.73692 0.97074,1.75727 0.97075,3.06104 -10e-6,1.29906 -0.32359,2.3194 -0.97075,3.06104 -0.64717,0.73692 -1.53761,1.10538 -2.67132,1.10538 -1.13845,0 -2.03125,-0.36846 -2.67841,-1.10538 -0.64244,-0.74164 -0.96366,-1.76198 -0.96366,-3.06104 0,-1.30377 0.32122,-2.32412 0.96366,-3.06104 0.64716,-0.73691 1.53996,-1.10537 2.67841,-1.10538"
           inkscape:connector-curvature="0" />
        <path
           id="path12555"
           d="m 319.05792,369.25429 0,4.78996 -1.30377,0 0,-4.74745 c -10e-6,-0.75108 -0.14645,-1.31321 -0.43932,-1.6864 -0.29288,-0.37318 -0.7322,-0.55977 -1.31795,-0.55978 -0.70385,1e-5 -1.2589,0.22439 -1.66515,0.67315 -0.40625,0.44877 -0.60937,1.0605 -0.60937,1.83521 l 0,4.48527 -1.31086,0 0,-7.93603 1.31086,0 0,1.23292 c 0.31177,-0.4771 0.67786,-0.83375 1.09829,-1.06995 0.42514,-0.23618 0.91405,-0.35428 1.46675,-0.35429 0.91169,10e-6 1.60137,0.28344 2.06903,0.85029 0.46765,0.56215 0.70148,1.39118 0.70149,2.4871"
           inkscape:connector-curvature="0" />
        <path
           id="path12557"
           d="m 322.96216,363.85495 0,2.25327 2.6855,0 0,1.01326 -2.6855,0 0,4.30813 c 0,0.64717 0.0874,1.06286 0.26218,1.24709 0.1795,0.18423 0.54087,0.27635 1.08412,0.27635 l 1.3392,0 0,1.0912 -1.3392,0 c -1.00618,0 -1.70058,-0.18659 -2.08321,-0.55977 -0.38263,-0.37791 -0.57395,-1.06286 -0.57395,-2.05487 l 0,-4.30813 -0.95657,0 0,-1.01326 0.95657,0 0,-2.25327 1.31086,0"
           inkscape:connector-curvature="0" />
      </g>
      <path
         sodipodi:nodetypes="csc"
         inkscape:connector-curvature="0"
         id="path3992-4-77-9-5-7-1-2-9-4-0-1"
         d="m 240.87215,489.7591 c 15.3,0 12.9,-20 66.9,-22 56.4,0 50,22 69.3,22"
         style="fill:none;stroke:#dba981;stroke-width:1.20039999;stroke-linecap:round;stroke-linejoin:miter;stroke-miterlimit:4;stroke-opacity:1;stroke-dasharray:3.6013, 1.2004;stroke-dashoffset:0" />
      <path
         sodipodi:nodetypes="cc"
         inkscape:connector-curvature="0"
         id="path3992-4-77-9-5-7-1-2-9-8-5-7-60"
         d="m 243.27215,499.7591 129.8,0"
         style="fill:none;stroke:#dba981;stroke-width:1.20039999;stroke-linecap:round;stroke-linejoin:miter;stroke-miterlimit:4;stroke-opacity:1;stroke-dasharray:3.6013, 1.2004;stroke-dashoffset:0" />
      <path
         sodipodi:nodetypes="cc"
         inkscape:connector-curvature="0"
         id="path3992-4-77-9-5-7-1-2-9-8-8-6-68-2"
         d="m 256.17215,577.7591 104,1"
         style="fill:none;stroke:#dba981;stroke-width:1.20039999;stroke-linecap:round;stroke-linejoin:miter;stroke-miterlimit:4;stroke-opacity:1;stroke-dasharray:3.6013, 1.2004;stroke-dashoffset:0" />
      <path
         style="fill:none;stroke:#dba981;stroke-width:1.20039999;stroke-linecap:round;stroke-linejoin:miter;stroke-miterlimit:4;stroke-opacity:1;stroke-dasharray:3.6013, 1.2004;stroke-dashoffset:0"
         d="m 244.87215,518.7591 124.2,1"
         id="path3992-4-77-9-5-7-1-2-9-8-5-4-1-4-5"
         inkscape:connector-curvature="0"
         sodipodi:nodetypes="cc" />
      <path
         inkscape:connector-curvature="0"
         id="path4864-52"
         d="m 333.57215,405.7591 12.1,95 0,0"
         style="fill:none;stroke:#7dc832;stroke-width:2.41860008;stroke-linecap:round;stroke-linejoin:miter;stroke-miterlimit:4;stroke-opacity:1;stroke-dasharray:none"
         sodipodi:nodetypes="ccc" />
      <path
         transform="matrix(0.8062,0,0,0.8062,11.90215,-1784.2409)"
         sodipodi:open="true"
         sodipodi:end="6.278"
         sodipodi:start="0"
         d="m 421,2776 c 0,8.2843 -6.71573,15 -15,15 -8.28427,0 -15,-6.7157 -15,-15 0,-8.2843 6.71573,-15 15,-15 8.25391,0 14.957,6.6684 14.9998,14.9222"
         sodipodi:ry="15"
         sodipodi:rx="15"
         sodipodi:cy="2776"
         sodipodi:cx="406"
         id="path19730-2-5"
         style="color:#000000;fill:#ffffff;fill-opacity:1;fill-rule:nonzero;stroke:#000000;stroke-width:1.5;stroke-linecap:round;stroke-linejoin:round;stroke-miterlimit:4;stroke-opacity:1;stroke-dasharray:none;stroke-dashoffset:0;marker:none;visibility:visible;display:inline;overflow:visible;enable-background:accumulate"
         sodipodi:type="arc" />
      <text
         sodipodi:linespacing="125%"
         id="text8484-0-0-0-8-7-5-2"
         y="458.6463"
         x="335.56244"
         style="font-size:14.51159954px;font-style:normal;font-variant:normal;font-weight:normal;font-stretch:normal;text-align:start;line-height:125%;letter-spacing:0px;word-spacing:0px;writing-mode:lr-tb;text-anchor:start;fill:#000000;fill-opacity:1;stroke:none;font-family:Standard Symbols L;-inkscape-font-specification:Standard Symbols L"
         xml:space="preserve"><tspan
           y="458.6463"
           x="335.56244"
           id="tspan8486-3-0-4-3-7-4-08"
           sodipodi:role="line">6</tspan></text>
      <path
         sodipodi:nodetypes="cc"
         style="fill:none;stroke:#7dc832;stroke-width:2.41860008;stroke-linecap:round;stroke-linejoin:miter;stroke-miterlimit:4;stroke-opacity:1;stroke-dasharray:none;display:inline"
         d="m 344.87215,500.7591 0.2,78"
         id="path4864-8-7"
         inkscape:connector-curvature="0" />
    </g>
  </g>
</svg>
