<?xml version="1.0" encoding="UTF-8" standalone="no"?>
<!-- Created with Inkscape (http://www.inkscape.org/) -->

<svg
   xmlns:dc="http://purl.org/dc/elements/1.1/"
   xmlns:cc="http://creativecommons.org/ns#"
   xmlns:rdf="http://www.w3.org/1999/02/22-rdf-syntax-ns#"
   xmlns:svg="http://www.w3.org/2000/svg"
   xmlns="http://www.w3.org/2000/svg"
   xmlns:sodipodi="http://sodipodi.sourceforge.net/DTD/sodipodi-0.dtd"
   xmlns:inkscape="http://www.inkscape.org/namespaces/inkscape"
   width="163.7149"
   height="216.90538"
   id="svg12794"
   version="1.1"
   inkscape:version="0.48.4 r9939"
   sodipodi:docname="Новий документ 142">
  <defs
     id="defs12796" />
  <sodipodi:namedview
     id="base"
     pagecolor="#ffffff"
     bordercolor="#666666"
     borderopacity="1.0"
     inkscape:pageopacity="0.0"
     inkscape:pageshadow="2"
     inkscape:zoom="1.979899"
     inkscape:cx="6.4917006"
     inkscape:cy="126.02134"
     inkscape:document-units="px"
     inkscape:current-layer="layer1"
     showgrid="false"
     fit-margin-top="0"
     fit-margin-left="0"
     fit-margin-right="0"
     fit-margin-bottom="0"
     inkscape:window-width="1855"
     inkscape:window-height="1056"
     inkscape:window-x="65"
     inkscape:window-y="24"
     inkscape:window-maximized="1" />
  <metadata
     id="metadata12799">
    <rdf:RDF>
      <cc:Work
         rdf:about="">
        <dc:format>image/svg+xml</dc:format>
        <dc:type
           rdf:resource="http://purl.org/dc/dcmitype/StillImage" />
        <dc:title></dc:title>
      </cc:Work>
    </rdf:RDF>
  </metadata>
  <g
     inkscape:label="Layer 1"
     inkscape:groupmode="layer"
     id="layer1"
     transform="translate(-166.70559,-341.09121)">
    <g
       id="g12880">
      <path
         sodipodi:nodetypes="cc"
         inkscape:connector-curvature="0"
         id="path8279-7-5-9"
         d="m 269.92202,469.419 14,14"
         style="fill:none;stroke:#dba981;stroke-width:0.82749999;stroke-linecap:round;stroke-linejoin:round;stroke-miterlimit:4;stroke-opacity:1;stroke-dasharray:none;display:inline" />
      <path
         sodipodi:nodetypes="cc"
         inkscape:connector-curvature="0"
         id="path8279-7-5-6-3"
         d="m 283.92202,469.419 -14,14"
         style="fill:none;stroke:#dba981;stroke-width:0.82749999;stroke-linecap:round;stroke-linejoin:round;stroke-miterlimit:4;stroke-opacity:1;stroke-dasharray:none;display:inline" />
      <g
         id="text6934-2-9-4-0-5-6-4"
         style="font-size:14.51159954px;font-style:normal;font-variant:normal;font-weight:normal;font-stretch:normal;text-align:start;line-height:125%;letter-spacing:0px;word-spacing:0px;writing-mode:lr-tb;text-anchor:start;fill:#000000;fill-opacity:1;stroke:none;font-family:Standard Symbols L;-inkscape-font-specification:Standard Symbols L">
        <path
           id="path12870"
           d="m 230.89628,341.09121 6.07957,0 0,1.20458 -4.64825,0 0,3.11773 4.19476,0 0,1.20457 -4.19476,0 0,5.05214 -1.43132,0 0,-10.57902"
           inkscape:connector-curvature="0" />
        <path
           id="path12872"
           d="m 242.75073,344.95294 c -0.14645,-0.085 -0.30706,-0.14643 -0.48183,-0.18423 -0.17007,-0.0425 -0.35902,-0.0638 -0.56686,-0.0638 -0.73692,1e-5 -1.30378,0.24092 -1.70058,0.72275 -0.39208,0.47711 -0.58812,1.16443 -0.58812,2.06195 l 0,4.18059 -1.31086,0 0,-7.93603 1.31086,0 0,1.23292 c 0.27398,-0.48183 0.63063,-0.83848 1.06995,-1.06995 0.43931,-0.23619 0.9731,-0.35428 1.60138,-0.35429 0.0897,1e-5 0.18894,0.007 0.2976,0.0213 0.10864,0.009 0.2291,0.026 0.36137,0.0496 l 0.007,1.3392"
           inkscape:connector-curvature="0" />
        <path
           id="path12874"
           d="m 246.89589,344.64826 c -0.69914,0 -1.25182,0.27399 -1.65807,0.82194 -0.40625,0.54325 -0.60937,1.28961 -0.60937,2.2391 0,0.94949 0.20076,1.69822 0.60229,2.24618 0.40624,0.54324 0.96129,0.81486 1.66515,0.81486 0.69439,0 1.24472,-0.27398 1.65097,-0.82195 0.40625,-0.54796 0.60937,-1.29432 0.60938,-2.23909 -1e-5,-0.94004 -0.20313,-1.68404 -0.60938,-2.23201 -0.40625,-0.55268 -0.95658,-0.82903 -1.65097,-0.82903 m 0,-1.10538 c 1.13371,10e-6 2.02415,0.36847 2.67132,1.10538 0.64716,0.73692 0.97074,1.75727 0.97075,3.06104 -1e-5,1.29905 -0.32359,2.3194 -0.97075,3.06104 -0.64717,0.73692 -1.53761,1.10537 -2.67132,1.10537 -1.13845,0 -2.03125,-0.36845 -2.67842,-1.10537 -0.64244,-0.74164 -0.96366,-1.76199 -0.96366,-3.06104 0,-1.30377 0.32122,-2.32412 0.96366,-3.06104 0.64717,-0.73691 1.53997,-1.10537 2.67842,-1.10538"
           inkscape:connector-curvature="0" />
        <path
           id="path12876"
           d="m 259.28885,346.88027 0,4.78996 -1.30378,0 0,-4.74745 c 0,-0.75108 -0.14644,-1.31322 -0.43931,-1.68641 -0.29289,-0.37317 -0.7322,-0.55976 -1.31795,-0.55977 -0.70386,10e-6 -1.25891,0.22439 -1.66515,0.67315 -0.40625,0.44876 -0.60938,1.0605 -0.60938,1.8352 l 0,4.48528 -1.31086,0 0,-7.93603 1.31086,0 0,1.23292 c 0.31177,-0.4771 0.67787,-0.83375 1.09829,-1.06995 0.42514,-0.23619 0.91406,-0.35428 1.46675,-0.35429 0.9117,10e-6 1.60137,0.28344 2.06904,0.85029 0.46765,0.56214 0.70148,1.39117 0.70149,2.4871"
           inkscape:connector-curvature="0" />
        <path
           id="path12878"
           d="m 263.19309,341.48093 0,2.25327 2.6855,0 0,1.01326 -2.6855,0 0,4.30813 c 0,0.64716 0.0874,1.06286 0.26217,1.24709 0.17951,0.18423 0.54088,0.27634 1.08412,0.27634 l 1.33921,0 0,1.09121 -1.33921,0 c -1.00618,0 -1.70058,-0.18659 -2.08321,-0.55978 -0.38263,-0.3779 -0.57394,-1.06286 -0.57394,-2.05486 l 0,-4.30813 -0.95658,0 0,-1.01326 0.95658,0 0,-2.25327 1.31086,0"
           inkscape:connector-curvature="0" />
      </g>
      <path
         sodipodi:nodetypes="cc"
         inkscape:connector-curvature="0"
         id="path8584-1-4-6-3-4-4-4-4-7-0-6"
         d="m 317.92202,463.419 c -4.9,-2 -29,5 -3.2,-66"
         style="fill:none;stroke:#dba981;stroke-width:4.41160011;stroke-linecap:round;stroke-linejoin:miter;stroke-miterlimit:4;stroke-opacity:1;stroke-dasharray:none" />
      <path
         sodipodi:nodetypes="cc"
         inkscape:connector-curvature="0"
         id="path8584-6-7-8-0-3-1-3-3-1-1-0-4"
         d="m 177.62202,462.419 c 4,-2 29.8,6 4,-65"
         style="fill:none;stroke:#dba981;stroke-width:2.9999001;stroke-linecap:round;stroke-linejoin:miter;stroke-miterlimit:4;stroke-opacity:1;stroke-dasharray:none" />
      <path
         style="fill:none;stroke:#dba981;stroke-width:2.9999001;stroke-linecap:round;stroke-linejoin:miter;stroke-miterlimit:4;stroke-opacity:1;stroke-dasharray:none"
         d="m 196.12202,556.419 c 2.5,-17 -5.6,-32 -8.8,-49 -2.4,-10 -1.6,-24 -6.5,-35 -8,-21 -20.1,-50 -6.4,-71 6.4,-8 29.8,-8 45.9,-17 3.3,-3 4.1,-8 4.9,-12 0.8,-4 -0.8,-13 -0.8,-13 0,0 15.3,5 23.3,5 7.3,-1 21,-6 21,-6 0,0 -1.6,8 -0.8,12 0.8,4 2.4,10 4.8,11 16.2,10 42,12 48.4,21 16.9,24 2.4,50 -6.4,70 -4.9,11 -4.9,25 -6.5,35 -3.2,17 -11.3,32 -8.9,49"
         id="path11116-9-7-3-6-9"
         inkscape:connector-curvature="0"
         sodipodi:nodetypes="cccccacacaccccc" />
      <path
         sodipodi:nodetypes="cc"
         inkscape:connector-curvature="0"
         id="path3992-4-77-9-5-7-1-2-90-1-9-2"
         d="m 221.12202,383.419 c 11.3,9 50.8,6 51.6,-2"
         style="fill:none;stroke:#dba981;stroke-width:1.20039999;stroke-linecap:round;stroke-linejoin:miter;stroke-miterlimit:4;stroke-opacity:1;stroke-dasharray:3.6013, 1.2004;stroke-dashoffset:0" />
      <path
         sodipodi:nodetypes="csc"
         inkscape:connector-curvature="0"
         id="path3992-4-77-9-5-7-1-2-9-4-0-6-8"
         d="m 180.82202,467.419 c 15.3,0 12.9,-20 66.9,-22 56.5,-1 50,22 69.4,22"
         style="fill:none;stroke:#dba981;stroke-width:1.20039999;stroke-linecap:round;stroke-linejoin:miter;stroke-miterlimit:4;stroke-opacity:1;stroke-dasharray:3.6013, 1.2004;stroke-dashoffset:0" />
      <path
         sodipodi:nodetypes="cc"
         inkscape:connector-curvature="0"
         id="path3992-4-77-9-5-7-1-2-9-8-5-7-6-5"
         d="m 183.22202,476.419 129.8,0"
         style="fill:none;stroke:#dba981;stroke-width:1.20039999;stroke-linecap:round;stroke-linejoin:miter;stroke-miterlimit:4;stroke-opacity:1;stroke-dasharray:3.6013, 1.2004;stroke-dashoffset:0" />
      <path
         sodipodi:nodetypes="cc"
         inkscape:connector-curvature="0"
         id="path3992-4-77-9-5-7-1-2-9-8-8-6-68-4-2"
         d="m 196.12202,555.419 104,0"
         style="fill:none;stroke:#dba981;stroke-width:1.20039999;stroke-linecap:round;stroke-linejoin:miter;stroke-miterlimit:4;stroke-opacity:1;stroke-dasharray:3.6013, 1.2004;stroke-dashoffset:0" />
      <path
         style="fill:none;stroke:#dba981;stroke-width:1.20039999;stroke-linecap:round;stroke-linejoin:miter;stroke-miterlimit:4;stroke-opacity:1;stroke-dasharray:3.6013, 1.2004;stroke-dashoffset:0"
         d="m 184.92202,496.419 124.1,1"
         id="path3992-4-77-9-5-7-1-2-9-8-5-4-1-4-6-7"
         inkscape:connector-curvature="0"
         sodipodi:nodetypes="cc" />
      <path
         inkscape:connector-curvature="0"
         id="path4864-5-5"
         d="m 313.92202,396.419 -37.1,80"
         style="fill:none;stroke:#000000;stroke-width:2.41860008;stroke-linecap:round;stroke-linejoin:miter;stroke-miterlimit:4;stroke-opacity:1;stroke-dasharray:none"
         sodipodi:nodetypes="cc" />
      <path
         sodipodi:type="arc"
         style="color:#000000;fill:#ffffff;fill-opacity:1;fill-rule:nonzero;stroke:#000000;stroke-width:1.5;stroke-linecap:round;stroke-linejoin:round;stroke-miterlimit:4;stroke-opacity:1;stroke-dasharray:none;stroke-dashoffset:0;marker:none;visibility:visible;display:inline;overflow:visible;enable-background:accumulate"
         id="path19730-2-8-6"
         sodipodi:cx="406"
         sodipodi:cy="2776"
         sodipodi:rx="15"
         sodipodi:ry="15"
         d="m 421,2776 c 0,8.2843 -6.71573,15 -15,15 -8.28427,0 -15,-6.7157 -15,-15 0,-8.2843 6.71573,-15 15,-15 8.25391,0 14.957,6.6684 14.9998,14.9222"
         sodipodi:start="0"
         sodipodi:end="6.278"
         sodipodi:open="true"
         transform="matrix(0.8062,0,0,0.8062,-36.77798,-1790.581)" />
      <text
         xml:space="preserve"
         style="font-size:14.51159954px;font-style:normal;font-variant:normal;font-weight:normal;font-stretch:normal;text-align:start;line-height:125%;letter-spacing:0px;word-spacing:0px;writing-mode:lr-tb;text-anchor:start;fill:#000000;fill-opacity:1;stroke:none;font-family:Standard Symbols L;-inkscape-font-specification:Standard Symbols L"
         x="287.00568"
         y="452.90387"
         id="text8484-0-0-0-8-7-5-8-5"
         sodipodi:linespacing="125%"><tspan
           sodipodi:role="line"
           id="tspan8486-3-0-4-3-7-4-1-2"
           x="287.00568"
           y="452.90387">7</tspan></text>
      <path
         sodipodi:nodetypes="cc"
         inkscape:connector-curvature="0"
         id="path8215"
         d="m 276.62202,476.419 -21.7,79"
         style="fill:none;stroke:#000000;stroke-width:2.41849995;stroke-linecap:round;stroke-linejoin:miter;stroke-miterlimit:4;stroke-opacity:1;stroke-dasharray:none" />
      <path
         transform="matrix(0.8062,0,0,0.8062,-58.97798,-1723.581)"
         sodipodi:open="true"
         sodipodi:end="6.278"
         sodipodi:start="0"
         d="m 421,2776 c 0,8.2843 -6.71573,15 -15,15 -8.28427,0 -15,-6.7157 -15,-15 0,-8.2843 6.71573,-15 15,-15 8.25391,0 14.957,6.6684 14.9998,14.9222"
         sodipodi:ry="15"
         sodipodi:rx="15"
         sodipodi:cy="2776"
         sodipodi:cx="406"
         id="path19730-2-8-6-4"
         style="color:#000000;fill:#ffffff;fill-opacity:1;fill-rule:nonzero;stroke:#000000;stroke-width:1.5;stroke-linecap:round;stroke-linejoin:round;stroke-miterlimit:4;stroke-opacity:1;stroke-dasharray:none;stroke-dashoffset:0;marker:none;visibility:visible;display:inline;overflow:visible;enable-background:accumulate"
         sodipodi:type="arc" />
      <text
         sodipodi:linespacing="125%"
         id="text8484-0-0-0-8-7-5-8-5-5"
         y="519.60553"
         x="264.57611"
         style="font-size:14.51089954px;font-style:normal;font-variant:normal;font-weight:normal;font-stretch:normal;text-align:start;line-height:125%;letter-spacing:0px;word-spacing:0px;writing-mode:lr-tb;text-anchor:start;fill:#000000;fill-opacity:1;stroke:none;display:inline;font-family:Standard Symbols L;-inkscape-font-specification:Standard Symbols L"
         xml:space="preserve"><tspan
           y="519.60553"
           x="264.57611"
           id="tspan8486-3-0-4-3-7-4-1-2-2"
           sodipodi:role="line">8</tspan></text>
    </g>
  </g>
</svg>
