<?xml version="1.0" encoding="UTF-8" standalone="no"?>
<!-- Created with Inkscape (http://www.inkscape.org/) -->

<svg
   xmlns:dc="http://purl.org/dc/elements/1.1/"
   xmlns:cc="http://creativecommons.org/ns#"
   xmlns:rdf="http://www.w3.org/1999/02/22-rdf-syntax-ns#"
   xmlns:svg="http://www.w3.org/2000/svg"
   xmlns="http://www.w3.org/2000/svg"
   xmlns:sodipodi="http://sodipodi.sourceforge.net/DTD/sodipodi-0.dtd"
   xmlns:inkscape="http://www.inkscape.org/namespaces/inkscape"
   width="163.71652"
   height="216.82773"
   id="svg12632"
   version="1.1"
   inkscape:version="0.48.4 r9939"
   sodipodi:docname="Новий документ 139">
  <defs
     id="defs12634" />
  <sodipodi:namedview
     id="base"
     pagecolor="#ffffff"
     bordercolor="#666666"
     borderopacity="1.0"
     inkscape:pageopacity="0.0"
     inkscape:pageshadow="2"
     inkscape:zoom="1.979899"
     inkscape:cx="172.70516"
     inkscape:cy="135.8852"
     inkscape:document-units="px"
     inkscape:current-layer="layer1"
     showgrid="false"
     fit-margin-top="0"
     fit-margin-left="0"
     fit-margin-right="0"
     fit-margin-bottom="0"
     inkscape:window-width="1855"
     inkscape:window-height="1056"
     inkscape:window-x="65"
     inkscape:window-y="24"
     inkscape:window-maximized="1" />
  <metadata
     id="metadata12637">
    <rdf:RDF>
      <cc:Work
         rdf:about="">
        <dc:format>image/svg+xml</dc:format>
        <dc:type
           rdf:resource="http://purl.org/dc/dcmitype/StillImage" />
        <dc:title></dc:title>
      </cc:Work>
    </rdf:RDF>
  </metadata>
  <g
     inkscape:label="Layer 1"
     inkscape:groupmode="layer"
     id="layer1"
     transform="translate(-220.99888,-286.80542)">
    <g
       id="g12718">
      <path
         sodipodi:nodetypes="cc"
         inkscape:connector-curvature="0"
         id="path8279-7-5-87"
         d="m 332.70773,416.1332 14,14"
         style="fill:none;stroke:#dba981;stroke-width:0.82749999;stroke-linecap:round;stroke-linejoin:round;stroke-miterlimit:4;stroke-opacity:1;stroke-dasharray:none;display:inline" />
      <path
         sodipodi:nodetypes="cc"
         inkscape:connector-curvature="0"
         id="path8279-7-5-6-4"
         d="m 346.70773,416.1332 -14,14"
         style="fill:none;stroke:#dba981;stroke-width:0.82749999;stroke-linecap:round;stroke-linejoin:round;stroke-miterlimit:4;stroke-opacity:1;stroke-dasharray:none;display:inline" />
      <path
         sodipodi:nodetypes="cc"
         inkscape:connector-curvature="0"
         id="path8279-7-5-4"
         d="m 258.10773,416.1332 14,14"
         style="fill:none;stroke:#dba981;stroke-width:0.82749999;stroke-linecap:round;stroke-linejoin:round;stroke-miterlimit:4;stroke-opacity:1;stroke-dasharray:none;display:inline" />
      <path
         sodipodi:nodetypes="cc"
         inkscape:connector-curvature="0"
         id="path8279-7-5-6-10"
         d="m 272.10773,416.1332 -14,14"
         style="fill:none;stroke:#dba981;stroke-width:0.82749999;stroke-linecap:round;stroke-linejoin:round;stroke-miterlimit:4;stroke-opacity:1;stroke-dasharray:none;display:inline" />
      <g
         id="text6934-2-9-4-0-5-6"
         style="font-size:14.51159954px;font-style:normal;font-variant:normal;font-weight:normal;font-stretch:normal;text-align:start;line-height:125%;letter-spacing:0px;word-spacing:0px;writing-mode:lr-tb;text-anchor:start;fill:#000000;fill-opacity:1;stroke:none;font-family:Standard Symbols L;-inkscape-font-specification:Standard Symbols L">
        <path
           id="path12708"
           d="m 285.18199,286.80542 6.07956,0 0,1.20457 -4.64824,0 0,3.11773 4.19475,0 0,1.20458 -4.19475,0 0,5.05213 -1.43132,0 0,-10.57901"
           inkscape:connector-curvature="0" />
        <path
           id="path12710"
           d="m 297.03643,290.66715 c -0.14644,-0.085 -0.30705,-0.14644 -0.48183,-0.18423 -0.17006,-0.0425 -0.35901,-0.0638 -0.56686,-0.0638 -0.73692,0 -1.30378,0.24092 -1.70058,0.72274 -0.39208,0.47711 -0.58812,1.16443 -0.58811,2.06195 l 0,4.18059 -1.31086,0 0,-7.93603 1.31086,0 0,1.23292 c 0.27398,-0.48183 0.63063,-0.83847 1.06994,-1.06995 0.43932,-0.23618 0.97311,-0.35428 1.60138,-0.35429 0.0898,1e-5 0.18895,0.007 0.2976,0.0213 0.10865,0.009 0.2291,0.026 0.36138,0.0496 l 0.007,1.33921"
           inkscape:connector-curvature="0" />
        <path
           id="path12712"
           d="m 301.18159,290.36246 c -0.69913,10e-6 -1.25182,0.27399 -1.65806,0.82195 -0.40625,0.54324 -0.60938,1.28961 -0.60938,2.23909 0,0.94949 0.20076,1.69822 0.60229,2.24618 0.40625,0.54324 0.9613,0.81486 1.66515,0.81486 0.6944,0 1.24472,-0.27398 1.65098,-0.82195 0.40624,-0.54796 0.60937,-1.29432 0.60937,-2.23909 0,-0.94004 -0.20313,-1.68404 -0.60937,-2.23201 -0.40626,-0.55268 -0.95658,-0.82902 -1.65098,-0.82903 m 0,-1.10538 c 1.13371,1e-5 2.02415,0.36847 2.67133,1.10538 0.64715,0.73692 0.97073,1.75727 0.97074,3.06104 -1e-5,1.29906 -0.32359,2.3194 -0.97074,3.06104 -0.64718,0.73692 -1.53762,1.10538 -2.67133,1.10538 -1.13845,0 -2.03125,-0.36846 -2.67841,-1.10538 -0.64244,-0.74164 -0.96366,-1.76198 -0.96366,-3.06104 0,-1.30377 0.32122,-2.32412 0.96366,-3.06104 0.64716,-0.73691 1.53996,-1.10537 2.67841,-1.10538"
           inkscape:connector-curvature="0" />
        <path
           id="path12714"
           d="m 313.57455,292.59447 0,4.78996 -1.30377,0 0,-4.74745 c -10e-6,-0.75108 -0.14645,-1.31322 -0.43932,-1.6864 -0.29288,-0.37318 -0.7322,-0.55977 -1.31795,-0.55978 -0.70385,10e-6 -1.2589,0.22439 -1.66515,0.67315 -0.40625,0.44877 -0.60937,1.0605 -0.60937,1.83521 l 0,4.48527 -1.31086,0 0,-7.93603 1.31086,0 0,1.23292 c 0.31177,-0.4771 0.67787,-0.83375 1.09829,-1.06995 0.42514,-0.23618 0.91406,-0.35428 1.46675,-0.35429 0.91169,1e-5 1.60137,0.28344 2.06904,0.85029 0.46765,0.56215 0.70148,1.39118 0.70148,2.4871"
           inkscape:connector-curvature="0" />
        <path
           id="path12716"
           d="m 317.4788,287.19513 0,2.25327 2.68549,0 0,1.01326 -2.68549,0 0,4.30813 c -10e-6,0.64717 0.0874,1.06286 0.26217,1.24709 0.1795,0.18423 0.54087,0.27635 1.08412,0.27635 l 1.3392,0 0,1.0912 -1.3392,0 c -1.00618,0 -1.70058,-0.18659 -2.08321,-0.55977 -0.38263,-0.37791 -0.57395,-1.06286 -0.57395,-2.05487 l 0,-4.30813 -0.95657,0 0,-1.01326 0.95657,0 0,-2.25327 1.31087,0"
           inkscape:connector-curvature="0" />
      </g>
      <path
         sodipodi:nodetypes="cc"
         inkscape:connector-curvature="0"
         id="path8584-1-4-6-3-4-4-4-4-7-0"
         d="m 372.20773,409.1332 c -4.9,-2 -29,5 -3.2,-66"
         style="fill:none;stroke:#dba981;stroke-width:2.9999001;stroke-linecap:round;stroke-linejoin:miter;stroke-miterlimit:4;stroke-opacity:1;stroke-dasharray:none" />
      <path
         sodipodi:nodetypes="cc"
         inkscape:connector-curvature="0"
         id="path8584-6-7-8-0-3-1-3-3-1-1-0"
         d="m 231.90773,408.1332 c 4,-2 29.8,6 4,-65"
         style="fill:none;stroke:#dba981;stroke-width:2.9999001;stroke-linecap:round;stroke-linejoin:miter;stroke-miterlimit:4;stroke-opacity:1;stroke-dasharray:none" />
      <path
         style="fill:none;stroke:#dba981;stroke-width:2.9999001;stroke-linecap:round;stroke-linejoin:miter;stroke-miterlimit:4;stroke-opacity:1;stroke-dasharray:none"
         d="m 250.40773,502.1332 c 2.5,-17 -5.6,-32 -8.8,-49 -2.4,-10 -1.6,-24 -6.5,-35 -8,-21 -20.1,-50 -6.4,-71 6.4,-8 29.8,-8 45.9,-17 3.3,-3 4.1,-8 4.9,-12 0.8,-4 -0.8,-13 -0.8,-13 0,0 15.3,5 23.3,5 7.3,-1 21,-6 21,-6 0,0 -1.6,8 -0.8,12 0.8,4 2.4,10 4.8,11 16.2,10 42,12 48.4,21 16.9,24 2.4,50 -6.4,70 -4.9,11 -4.9,25 -6.5,35 -3.2,17 -11.3,32 -8.9,49"
         id="path11116-9-7-3-6"
         inkscape:connector-curvature="0"
         sodipodi:nodetypes="cccccacacaccccc" />
      <path
         sodipodi:nodetypes="cc"
         inkscape:connector-curvature="0"
         id="path3992-4-77-9-5-7-1-2-90-1-9"
         d="m 275.40773,329.1332 c 11.3,9 50.8,6 51.6,-2"
         style="fill:none;stroke:#dba981;stroke-width:1.20039999;stroke-linecap:round;stroke-linejoin:miter;stroke-miterlimit:4;stroke-opacity:1;stroke-dasharray:3.6013, 1.2004;stroke-dashoffset:0" />
      <path
         sodipodi:nodetypes="csc"
         inkscape:connector-curvature="0"
         id="path3992-4-77-9-5-7-1-2-9-4-0-6"
         d="m 235.10773,413.1332 c 15.3,0 12.9,-20 66.9,-22 56.5,-1 50,22 69.4,22"
         style="fill:none;stroke:#dba981;stroke-width:1.20039999;stroke-linecap:round;stroke-linejoin:miter;stroke-miterlimit:4;stroke-opacity:1;stroke-dasharray:3.6013, 1.2004;stroke-dashoffset:0" />
      <path
         sodipodi:nodetypes="cc"
         inkscape:connector-curvature="0"
         id="path3992-4-77-9-5-7-1-2-9-8-5-7-6"
         d="m 237.50773,422.1332 129.8,0"
         style="fill:none;stroke:#dba981;stroke-width:1.20039999;stroke-linecap:round;stroke-linejoin:miter;stroke-miterlimit:4;stroke-opacity:1;stroke-dasharray:3.6013, 1.2004;stroke-dashoffset:0" />
      <path
         sodipodi:nodetypes="cc"
         inkscape:connector-curvature="0"
         id="path3992-4-77-9-5-7-1-2-9-8-8-6-68-4"
         d="m 250.40773,501.1332 104,0"
         style="fill:none;stroke:#dba981;stroke-width:1.20039999;stroke-linecap:round;stroke-linejoin:miter;stroke-miterlimit:4;stroke-opacity:1;stroke-dasharray:3.6013, 1.2004;stroke-dashoffset:0" />
      <path
         style="fill:none;stroke:#dba981;stroke-width:1.20039999;stroke-linecap:round;stroke-linejoin:miter;stroke-miterlimit:4;stroke-opacity:1;stroke-dasharray:3.6013, 1.2004;stroke-dashoffset:0"
         d="m 239.20773,442.1332 124.1,1"
         id="path3992-4-77-9-5-7-1-2-9-8-5-4-1-4-6"
         inkscape:connector-curvature="0"
         sodipodi:nodetypes="cc" />
      <path
         inkscape:connector-curvature="0"
         id="path4864-5"
         d="m 327.80773,329.1332 12.1,94 0,0"
         style="fill:none;stroke:#000000;stroke-width:2.41860008;stroke-linecap:round;stroke-linejoin:miter;stroke-miterlimit:4;stroke-opacity:1;stroke-dasharray:none"
         sodipodi:nodetypes="ccc" />
      <path
         sodipodi:nodetypes="cc"
         inkscape:connector-curvature="0"
         id="path19854"
         d="m 265.80773,423.1332 c 8,-93 8.8,-95 8.8,-95"
         style="fill:none;stroke:#000000;stroke-width:2.41860008;stroke-linecap:round;stroke-linejoin:miter;stroke-miterlimit:4;stroke-opacity:1;stroke-dasharray:none" />
      <path
         sodipodi:nodetypes="ccc"
         inkscape:connector-curvature="0"
         id="path19876"
         d="m 274.60773,327.1332 c 0,-4 53.2,-6 53.2,1 l 0,0"
         style="fill:none;stroke:#aaaaaa;stroke-width:1.61240005;stroke-linecap:butt;stroke-linejoin:miter;stroke-miterlimit:4;stroke-opacity:1;stroke-dasharray:4.8372, 1.6124;stroke-dashoffset:0" />
      <path
         sodipodi:type="arc"
         style="color:#000000;fill:#ffffff;fill-opacity:1;fill-rule:nonzero;stroke:#000000;stroke-width:1.5;stroke-linecap:round;stroke-linejoin:round;stroke-miterlimit:4;stroke-opacity:1;stroke-dasharray:none;stroke-dashoffset:0;marker:none;visibility:visible;display:inline;overflow:visible;enable-background:accumulate"
         id="path19730-2-8"
         sodipodi:cx="406"
         sodipodi:cy="2776"
         sodipodi:rx="15"
         sodipodi:ry="15"
         d="m 421,2776 c 0,8.2843 -6.71573,15 -15,15 -8.28427,0 -15,-6.7157 -15,-15 0,-8.2843 6.71573,-15 15,-15 8.25391,0 14.957,6.6684 14.9998,14.9222"
         sodipodi:start="0"
         sodipodi:end="6.278"
         sodipodi:open="true"
         transform="matrix(0.8062,0,0,0.8062,-58.29227,-1861.8668)" />
      <text
         xml:space="preserve"
         style="font-size:14.51159954px;font-style:normal;font-variant:normal;font-weight:normal;font-stretch:normal;text-align:start;line-height:125%;letter-spacing:0px;word-spacing:0px;writing-mode:lr-tb;text-anchor:start;fill:#000000;fill-opacity:1;stroke:none;font-family:Standard Symbols L;-inkscape-font-specification:Standard Symbols L"
         x="265.98889"
         y="380.99307"
         id="text8484-0-0-0-8-7-5-8"
         sodipodi:linespacing="125%"><tspan
           sodipodi:role="line"
           id="tspan8486-3-0-4-3-7-4-1"
           x="265.98889"
           y="380.99307">9</tspan></text>
    </g>
  </g>
</svg>
