<?xml version="1.0" encoding="UTF-8" standalone="no"?>
<!-- Created with Inkscape (http://www.inkscape.org/) -->

<svg
   xmlns:dc="http://purl.org/dc/elements/1.1/"
   xmlns:cc="http://creativecommons.org/ns#"
   xmlns:rdf="http://www.w3.org/1999/02/22-rdf-syntax-ns#"
   xmlns:svg="http://www.w3.org/2000/svg"
   xmlns="http://www.w3.org/2000/svg"
   xmlns:sodipodi="http://sodipodi.sourceforge.net/DTD/sodipodi-0.dtd"
   xmlns:inkscape="http://www.inkscape.org/namespaces/inkscape"
   width="46.332119mm"
   height="61.211708mm"
   viewBox="0 0 164.16893 216.89188"
   id="svg6367"
   version="1.1"
   inkscape:version="0.91 r"
   sodipodi:docname="Jp6.svg">
  <defs
     id="defs6369" />
  <sodipodi:namedview
     id="base"
     pagecolor="#ffffff"
     bordercolor="#666666"
     borderopacity="1.0"
     inkscape:pageopacity="0.0"
     inkscape:pageshadow="2"
     inkscape:zoom="1.4"
     inkscape:cx="-133.25805"
     inkscape:cy="96.675365"
     inkscape:document-units="px"
     inkscape:current-layer="layer1"
     showgrid="false"
     fit-margin-top="0"
     fit-margin-left="0"
     fit-margin-right="0"
     fit-margin-bottom="0"
     inkscape:window-width="1855"
     inkscape:window-height="1056"
     inkscape:window-x="65"
     inkscape:window-y="24"
     inkscape:window-maximized="1" />
  <metadata
     id="metadata6372">
    <rdf:RDF>
      <cc:Work
         rdf:about="">
        <dc:format>image/svg+xml</dc:format>
        <dc:type
           rdf:resource="http://purl.org/dc/dcmitype/StillImage" />
        <dc:title />
      </cc:Work>
    </rdf:RDF>
  </metadata>
  <g
     inkscape:label="Layer 1"
     inkscape:groupmode="layer"
     id="layer1"
     transform="translate(-277.91553,-383.91629)">
    <g
       id="g3379">
      <path
         style="fill:none;stroke:#dba981;stroke-width:2.9999001;stroke-linecap:round;stroke-linejoin:miter;stroke-miterlimit:4;stroke-dasharray:none;stroke-opacity:1"
         d="m 307.8576,599.287 c 2,-17 -6,-32 -9,-49 -3,-10 -2,-24 -7,-35 -8,-20 -20,-49 -6,-70 6,-9 30,-9 46,-18 7,-7 6,-16 4,-25 20,5 25,5 45,-1 -9,35 38,27 52,44 17,25 2,50 -7,70 -4,11 -4,25 -6,35 -3,17 -11,32 -9,49"
         id="path11116-9-7-3-3-4-8"
         inkscape:connector-curvature="0"
         sodipodi:nodetypes="ccccccccccc" />
      <path
         sodipodi:nodetypes="cc"
         inkscape:connector-curvature="0"
         id="path8584-1-4-6-3-4-4-4-4-7-8-0-5"
         d="m 429.8576,506.287 c -4,-2 -29,5 -3,-65"
         style="fill:none;stroke:#dba981;stroke-width:2.9999001;stroke-linecap:round;stroke-linejoin:miter;stroke-miterlimit:4;stroke-dasharray:none;stroke-opacity:1" />
      <path
         sodipodi:nodetypes="cc"
         inkscape:connector-curvature="0"
         id="path8584-6-7-8-0-3-1-3-3-1-1-6-3-9"
         d="m 289.8576,505.287 c 4,-2 30,6 4,-65"
         style="fill:none;stroke:#dba981;stroke-width:2.9999001;stroke-linecap:round;stroke-linejoin:miter;stroke-miterlimit:4;stroke-dasharray:none;stroke-opacity:1" />
      <path
         sodipodi:nodetypes="cc"
         inkscape:connector-curvature="0"
         id="path3992-4-77-9-5-7-1-2-90-1-4-0-9"
         d="m 333.8576,426.287 c 11,9 51,6 51,-2"
         style="fill:none;stroke:#dba981;stroke-width:1.20039999;stroke-linecap:round;stroke-linejoin:miter;stroke-miterlimit:4;stroke-dasharray:3.6013, 1.2004;stroke-dashoffset:0;stroke-opacity:1" />
      <path
         sodipodi:nodetypes="csc"
         inkscape:connector-curvature="0"
         id="path3992-4-77-9-5-7-1-2-9-4-0-3-9-3"
         d="m 290.8576,510.287 c 15,0 15,-20 69,-22 57,-1 49,21 69,21"
         style="fill:none;stroke:#dba981;stroke-width:1.20039999;stroke-linecap:round;stroke-linejoin:miter;stroke-miterlimit:4;stroke-dasharray:3.6013, 1.2004;stroke-dashoffset:0;stroke-opacity:1" />
      <path
         sodipodi:nodetypes="cc"
         inkscape:connector-curvature="0"
         id="path3992-4-77-9-5-7-1-2-9-8-5-7-2-7-6"
         d="m 295.8576,520.287 129,0"
         style="fill:none;stroke:#dba981;stroke-width:1.20039999;stroke-linecap:round;stroke-linejoin:miter;stroke-miterlimit:4;stroke-dasharray:3.6013, 1.2004;stroke-dashoffset:0;stroke-opacity:1" />
      <path
         sodipodi:nodetypes="cc"
         inkscape:connector-curvature="0"
         id="path3992-4-77-9-5-7-1-2-9-8-8-6-68-0-6-7"
         d="m 307.8576,598.287 103,0"
         style="fill:none;stroke:#dba981;stroke-width:1.20039999;stroke-linecap:round;stroke-linejoin:miter;stroke-miterlimit:4;stroke-dasharray:3.6013, 1.2004;stroke-dashoffset:0;stroke-opacity:1" />
      <path
         style="fill:none;stroke:#dba981;stroke-width:1.20039999;stroke-linecap:round;stroke-linejoin:miter;stroke-miterlimit:4;stroke-dasharray:3.6013, 1.2004;stroke-dashoffset:0;stroke-opacity:1"
         d="m 296.8576,539.287 125,1"
         id="path3992-4-77-9-5-7-1-2-9-8-5-4-1-4-8-7-82"
         inkscape:connector-curvature="0"
         sodipodi:nodetypes="cc" />
      <g
         id="text6934-2-9-4-0-5-3-2-5"
         style="font-style:normal;font-variant:normal;font-weight:normal;font-stretch:normal;font-size:14.51119995px;line-height:125%;font-family:'Standard Symbols L';-inkscape-font-specification:'Standard Symbols L';text-align:start;letter-spacing:0px;word-spacing:0px;writing-mode:lr-tb;text-anchor:start;fill:#000000;fill-opacity:1;stroke:none">
        <path
           id="path3369"
           style=""
           d="m 341.79742,383.91627 6.0794,0 0,1.20455 -4.64811,0 0,3.11764 4.19464,0 0,1.20454 -4.19464,0 0,5.052 -1.43129,0 0,-10.57873 z" />
        <path
           id="path3371"
           style=""
           d="m 353.65154,387.7779 q -0.21965,-0.12754 -0.48181,-0.18423 -0.25508,-0.0638 -0.56685,-0.0638 -1.10534,0 -1.70053,0.72273 -0.5881,0.71564 -0.5881,2.06189 l 0,4.18048 -1.31082,0 0,-7.93582 1.31082,0 0,1.23289 q 0.41096,-0.72273 1.06992,-1.06992 0.65896,-0.35428 1.60133,-0.35428 0.13463,0 0.2976,0.0213 0.16296,0.0142 0.36136,0.0496 l 0.007,1.33917 z" />
        <path
           id="path3373"
           style=""
           d="m 357.79659,387.47322 q -1.04866,0 -1.65802,0.82192 -0.60935,0.81484 -0.60935,2.23903 0,1.4242 0.60227,2.24612 0.60935,0.81484 1.6651,0.81484 1.04158,0 1.65093,-0.82192 0.60936,-0.82193 0.60936,-2.23904 0,-1.41002 -0.60936,-2.23194 -0.60935,-0.82901 -1.65093,-0.82901 z m 0,-1.10535 q 1.70053,0 2.67125,1.10535 0.97072,1.10534 0.97072,3.06095 0,1.94853 -0.97072,3.06096 -0.97072,1.10535 -2.67125,1.10535 -1.70762,0 -2.67834,-1.10535 -0.96363,-1.11243 -0.96363,-3.06096 0,-1.95561 0.96363,-3.06095 0.97072,-1.10535 2.67834,-1.10535 z" />
        <path
           id="path3375"
           style=""
           d="m 370.18921,389.70517 0,4.78983 -1.30374,0 0,-4.74732 q 0,-1.1266 -0.4393,-1.68636 -0.43931,-0.55976 -1.31792,-0.55976 -1.05574,0 -1.6651,0.67313 -0.60936,0.67312 -0.60936,1.83515 l 0,4.48516 -1.31082,0 0,-7.93582 1.31082,0 0,1.23289 q 0.46765,-0.71564 1.09826,-1.06992 0.6377,-0.35428 1.46671,-0.35428 1.36751,0 2.06898,0.85027 0.70147,0.84318 0.70147,2.48703 z" />
        <path
           id="path3377"
           style=""
           d="m 374.09335,384.30598 0,2.2532 2.68542,0 0,1.01324 -2.68542,0 0,4.30801 q 0,0.97072 0.26216,1.24705 0.26925,0.27634 1.08409,0.27634 l 1.33917,0 0,1.09118 -1.33917,0 q -1.50922,0 -2.08315,-0.55976 -0.57393,-0.56685 -0.57393,-2.05481 l 0,-4.30801 -0.95655,0 0,-1.01324 0.95655,0 0,-2.2532 1.31083,0 z" />
      </g>
      <path
         inkscape:connector-curvature="0"
         id="path4864-7-25-8-4-1"
         d="m 407.8576,432.287 -14,88"
         style="fill:none;stroke:#000000;stroke-width:2.41880012;stroke-linecap:round;stroke-linejoin:miter;stroke-miterlimit:4;stroke-dasharray:none;stroke-opacity:1"
         sodipodi:nodetypes="cc" />
      <path
         sodipodi:open="true"
         sodipodi:end="6.278"
         sodipodi:start="0"
         d="m 413.26781,472.89819 a 12.093,12.093 0 0 1 -12.07733,12.09299 12.093,12.093 0 0 1 -12.10864,-12.06163 12.093,12.093 0 0 1 12.04594,-12.12427 12.093,12.093 0 0 1 12.13986,12.03021"
         sodipodi:ry="12.093"
         sodipodi:rx="12.093"
         sodipodi:cy="472.89819"
         sodipodi:cx="401.1748"
         id="path19730-2-9-1-7-6-3"
         style="color:#000000;display:inline;overflow:visible;visibility:visible;fill:#ffffff;fill-opacity:1;fill-rule:nonzero;stroke:#000000;stroke-width:1.20930004;stroke-linecap:round;stroke-linejoin:round;stroke-miterlimit:4;stroke-dasharray:none;stroke-dashoffset:0;stroke-opacity:1;marker:none;enable-background:accumulate"
         sodipodi:type="arc" />
      <text
         sodipodi:linespacing="125%"
         id="text8484-0-0-0-8-7-5-4-9-8-9-5"
         y="477.72571"
         x="393.05182"
         style="font-style:normal;font-variant:normal;font-weight:normal;font-stretch:normal;font-size:14.51159954px;line-height:125%;font-family:'Standard Symbols L';-inkscape-font-specification:'Standard Symbols L';text-align:start;letter-spacing:0px;word-spacing:0px;writing-mode:lr-tb;text-anchor:start;fill:#000000;fill-opacity:1;stroke:none"
         xml:space="preserve"><tspan
           y="477.72571"
           x="393.05182"
           id="tspan8486-3-0-4-3-7-4-0-15-5-2-1"
           sodipodi:role="line">10</tspan></text>
      <path
         sodipodi:nodetypes="cc"
         inkscape:connector-curvature="0"
         id="path3992-4-77-9-5-7-1-2-9-8-5-4-1-4-8-7-1-3"
         d="m 301.8576,562.287 115,0"
         style="display:inline;fill:none;stroke:#dba981;stroke-width:1.20039999;stroke-linecap:round;stroke-linejoin:miter;stroke-miterlimit:4;stroke-dasharray:3.6013, 1.2004;stroke-dashoffset:0;stroke-opacity:1" />
      <path
         style="display:inline;fill:none;stroke:#dba981;stroke-width:0.82749999;stroke-linecap:round;stroke-linejoin:round;stroke-miterlimit:4;stroke-dasharray:none;stroke-opacity:1"
         d="m 386.8576,513.287 14,14"
         id="path8279-7-2"
         inkscape:connector-curvature="0"
         sodipodi:nodetypes="cc" />
      <path
         style="display:inline;fill:none;stroke:#dba981;stroke-width:0.82749999;stroke-linecap:round;stroke-linejoin:round;stroke-miterlimit:4;stroke-dasharray:none;stroke-opacity:1"
         d="m 400.8576,513.287 -14,14"
         id="path8279-3-7-8"
         inkscape:connector-curvature="0"
         sodipodi:nodetypes="cc" />
    </g>
  </g>
</svg>
