<?xml version="1.0" encoding="UTF-8" standalone="no"?>
<!-- Created with Inkscape (http://www.inkscape.org/) -->

<svg
   xmlns:dc="http://purl.org/dc/elements/1.1/"
   xmlns:cc="http://creativecommons.org/ns#"
   xmlns:rdf="http://www.w3.org/1999/02/22-rdf-syntax-ns#"
   xmlns:svg="http://www.w3.org/2000/svg"
   xmlns="http://www.w3.org/2000/svg"
   xmlns:sodipodi="http://sodipodi.sourceforge.net/DTD/sodipodi-0.dtd"
   xmlns:inkscape="http://www.inkscape.org/namespaces/inkscape"
   width="169.67709"
   height="217.30591"
   id="svg14252"
   version="1.1"
   inkscape:version="0.48.4 r9939"
   sodipodi:docname="Новий документ 172">
  <defs
     id="defs14254" />
  <sodipodi:namedview
     id="base"
     pagecolor="#ffffff"
     bordercolor="#666666"
     borderopacity="1.0"
     inkscape:pageopacity="0.0"
     inkscape:pageshadow="2"
     inkscape:zoom="1.979899"
     inkscape:cx="258.65618"
     inkscape:cy="158.79114"
     inkscape:document-units="px"
     inkscape:current-layer="layer1"
     showgrid="false"
     fit-margin-top="0"
     fit-margin-left="0"
     fit-margin-right="0"
     fit-margin-bottom="0"
     inkscape:window-width="1855"
     inkscape:window-height="1056"
     inkscape:window-x="65"
     inkscape:window-y="24"
     inkscape:window-maximized="1" />
  <metadata
     id="metadata14257">
    <rdf:RDF>
      <cc:Work
         rdf:about="">
        <dc:format>image/svg+xml</dc:format>
        <dc:type
           rdf:resource="http://purl.org/dc/dcmitype/StillImage" />
        <dc:title></dc:title>
      </cc:Work>
    </rdf:RDF>
  </metadata>
  <g
     inkscape:label="Layer 1"
     inkscape:groupmode="layer"
     id="layer1"
     transform="translate(-172.28714,-286.63856)">
    <g
       id="g14318">
      <path
         sodipodi:nodetypes="cc"
         inkscape:connector-curvature="0"
         id="path8471-6-6-6-8-7-8-3-3-9-3-9-1-3-3"
         d="m 189.8238,442.6414 132.2168,0"
         style="fill:none;stroke:#dba981;stroke-width:1.20043182;stroke-linecap:round;stroke-linejoin:miter;stroke-miterlimit:4;stroke-opacity:1;stroke-dasharray:3.6012954, 1.2004318;stroke-dashoffset:0" />
      <path
         sodipodi:nodetypes="cc"
         inkscape:connector-curvature="0"
         id="path8471-6-6-6-8-7-8-3-3-9-3-9-1-0-2"
         d="m 184.9866,411.1996 142.6974,0"
         style="fill:none;stroke:#dba981;stroke-width:1.20043182;stroke-linecap:round;stroke-linejoin:miter;stroke-miterlimit:4;stroke-opacity:1;stroke-dasharray:3.6012954, 1.2004318;stroke-dashoffset:0" />
      <path
         style="fill:none;stroke:#dba981;stroke-width:1.20043182;stroke-linecap:round;stroke-linejoin:miter;stroke-miterlimit:4;stroke-opacity:1;stroke-dasharray:3.6012954, 1.2004318;stroke-dashoffset:0"
         d="m 226.909,328.9672 c 12.093,-5.6434 46.7596,-6.4496 58.8526,0.8062"
         id="path3992-4-77-9-5-7-1-0-3-9-9"
         inkscape:connector-curvature="0"
         sodipodi:nodetypes="cc" />
      <path
         style="fill:none;stroke:#dba981;stroke-width:2.99987006;stroke-linecap:round;stroke-linejoin:miter;stroke-miterlimit:4;stroke-opacity:1;stroke-dasharray:none"
         d="m 328.4902,411.1996 c -16.124,-20.9612 -8.062,-41.1162 0,-63.6898"
         id="path8584-0-8-6-3-5-9-1"
         inkscape:connector-curvature="0"
         sodipodi:nodetypes="cc" />
      <path
         style="fill:none;stroke:#dba981;stroke-width:2.99987006;stroke-linecap:round;stroke-linejoin:miter;stroke-miterlimit:4;stroke-opacity:1;stroke-dasharray:none"
         d="m 184.9866,411.1996 c 13.7054,-20.9612 11.2868,-37.0852 -1.6124,-64.496"
         id="path8584-6-5-3-6-1-2-7-3"
         inkscape:connector-curvature="0"
         sodipodi:nodetypes="cc" />
      <path
         style="fill:none;stroke:#dba981;stroke-width:2.99987006;stroke-linecap:round;stroke-linejoin:miter;stroke-miterlimit:4;stroke-opacity:1;stroke-dasharray:none"
         d="m 202.723,502.3002 c -3.2248,-17.7364 -5.6434,-31.4418 -9.6744,-48.372 -2.4186,-11.2868 -1.6124,-24.186 -5.6434,-35.4728 -9.6744,-20.155 -20.9612,-49.1782 -7.2558,-69.3332 7.2558,-8.8682 28.217,-8.062 44.341,-17.7364 3.2248,-1.6124 4.8372,-6.4496 5.6434,-10.4806 0,-4.8372 -0.8062,-12.8992 -0.8062,-12.8992 0,0 17.7364,-6.4496 27.4108,-6.4496 8.8682,0 26.6046,6.4496 26.6046,6.4496 0,0 -1.6124,8.8682 -0.8062,12.8992 0.8062,4.031 2.4186,8.8682 5.6434,11.2868 16.124,8.8682 37.0852,8.062 44.341,16.9302 17.7364,24.186 1.6124,49.1782 -7.2558,70.1394 -4.031,10.4806 -4.031,23.3798 -6.4496,34.6666 -3.2248,16.9302 -6.4496,31.4418 -9.6744,47.5658"
         id="path11142-0-5-6"
         inkscape:connector-curvature="0"
         sodipodi:nodetypes="cccccccaccccccc" />
      <path
         sodipodi:nodetypes="cc"
         inkscape:connector-curvature="0"
         id="path8471-6-6-6-8-7-8-3-3-9-1-2-5"
         d="m 204.3354,501.494 104.806,0"
         style="fill:none;stroke:#dba981;stroke-width:1.61240005;stroke-linecap:round;stroke-linejoin:miter;stroke-miterlimit:4;stroke-opacity:1;stroke-dasharray:4.8372, 1.6124;stroke-dashoffset:0" />
      <path
         sodipodi:nodetypes="cc"
         inkscape:connector-curvature="0"
         id="path7494-1-6-3-5-81-64-9-2-0-5-7-3-2-4"
         d="M 329.2964,412.0058 C 310.7538,410.3934 299.467,357.1842 284.1492,328.9672"
         style="fill:none;stroke:#000000;stroke-width:2.41860008;stroke-linecap:round;stroke-linejoin:round;stroke-miterlimit:4;stroke-opacity:1;stroke-dasharray:none;marker-start:url(#marker7359);marker-end:url(#marker7359)" />
      <g
         id="text6934-6-9-7-0"
         style="font-size:14.51159954px;font-style:normal;font-variant:normal;font-weight:normal;font-stretch:normal;text-align:start;line-height:125%;letter-spacing:0px;word-spacing:0px;writing-mode:lr-tb;text-anchor:start;fill:#000000;fill-opacity:1;stroke:none;font-family:Standard Symbols L;-inkscape-font-specification:Standard Symbols L">
        <path
           id="path14310"
           d="m 242.53729,292.61184 0,3.8759 2.29578,0 c 0.76997,0 1.3392,-0.15825 1.70766,-0.47475 0.37318,-0.32122 0.55977,-0.81013 0.55977,-1.46675 0,-0.66133 -0.18659,-1.14788 -0.55977,-1.45966 -0.36846,-0.31649 -0.93769,-0.47474 -1.70766,-0.47474 l -2.29578,0 m 0,-4.35065 0,3.18859 2.11863,0 c 0.69912,0 1.21874,-0.1299 1.55887,-0.38972 0.34483,-0.26453 0.51725,-0.66605 0.51726,-1.20458 -10e-6,-0.53378 -0.17243,-0.93294 -0.51726,-1.19749 -0.34013,-0.26452 -0.85975,-0.39679 -1.55887,-0.3968 l -2.11863,0 m -1.43132,-1.17623 3.65624,0 c 1.0912,10e-6 1.93204,0.22675 2.52252,0.68023 0.59047,0.4535 0.88571,1.0983 0.88572,1.93441 -10e-6,0.64717 -0.15117,1.16207 -0.45349,1.54469 -0.30233,0.38263 -0.74637,0.62119 -1.33212,0.71566 0.70385,0.15117 1.24945,0.46766 1.63681,0.94949 0.39207,0.47711 0.58811,1.07467 0.58812,1.79269 -1e-5,0.94477 -0.32123,1.6746 -0.96366,2.1895 -0.64245,0.51489 -1.55651,0.77234 -2.74219,0.77234 l -3.79795,0 0,-10.57901"
           inkscape:connector-curvature="0" />
        <path
           id="path14312"
           d="m 254.6043,293.6747 c -1.05341,0 -1.78324,0.12046 -2.18949,0.36137 -0.40625,0.24092 -0.60938,0.65189 -0.60937,1.23292 -1e-5,0.46294 0.15116,0.8314 0.45348,1.10538 0.30705,0.26926 0.72275,0.40388 1.24709,0.40388 0.72275,0 1.30141,-0.25508 1.73601,-0.76526 0.43931,-0.51489 0.65897,-1.19748 0.65898,-2.04778 l 0,-0.29051 -1.2967,0 m 2.60047,-0.53852 0,4.52779 -1.30377,0 0,-1.20458 c -0.29761,0.48184 -0.66843,0.83848 -1.11247,1.06995 -0.44404,0.22675 -0.98728,0.34012 -1.62972,0.34012 -0.8125,0 -1.45966,-0.22675 -1.94149,-0.68023 -0.47711,-0.45821 -0.71566,-1.06995 -0.71566,-1.83521 0,-0.8928 0.2976,-1.56595 0.8928,-2.01944 0.59993,-0.45348 1.49273,-0.68022 2.67841,-0.68023 l 1.82813,0 0,-0.12754 c -1e-5,-0.59992 -0.19841,-1.06286 -0.59521,-1.38881 -0.39208,-0.33066 -0.94477,-0.49599 -1.65806,-0.496 -0.45349,1e-5 -0.89517,0.0543 -1.32503,0.16297 -0.42988,0.10866 -0.84321,0.27163 -1.24001,0.48892 l 0,-1.20458 c 0.47711,-0.18422 0.94004,-0.32121 1.38881,-0.41097 0.44876,-0.0945 0.88571,-0.14171 1.31086,-0.14172 1.14788,10e-6 2.00526,0.29761 2.57212,0.89281 0.56685,0.59521 0.85028,1.49746 0.85029,2.70675"
           inkscape:connector-curvature="0" />
        <path
           id="path14314"
           d="m 265.60846,290.03263 0,1.21874 c -0.36846,-0.20311 -0.73928,-0.35428 -1.11246,-0.45348 -0.36847,-0.10392 -0.74165,-0.15588 -1.11955,-0.15589 -0.84557,1e-5 -1.50218,0.26927 -1.96983,0.80778 -0.46767,0.53379 -0.7015,1.28488 -0.70149,2.25326 -10e-6,0.96839 0.23382,1.72184 0.70149,2.26035 0.46765,0.5338 1.12426,0.80069 1.96983,0.80069 0.3779,0 0.75108,-0.0496 1.11955,-0.1488 0.37318,-0.10392 0.744,-0.25745 1.11246,-0.46057 l 0,1.20457 c -0.36374,0.17006 -0.74165,0.29761 -1.13372,0.38263 -0.38736,0.085 -0.80069,0.12755 -1.24,0.12755 -1.19514,0 -2.14462,-0.37555 -2.84847,-1.12664 -0.70385,-0.75108 -1.05578,-1.76434 -1.05578,-3.03978 0,-1.29432 0.35429,-2.31231 1.06286,-3.05395 0.7133,-0.74164 1.68877,-1.11246 2.92642,-1.11247 0.40152,10e-6 0.79359,0.0425 1.17623,0.12755 0.38262,0.0803 0.75344,0.20313 1.11246,0.36846"
           inkscape:connector-curvature="0" />
        <path
           id="path14316"
           d="m 267.84047,286.63856 1.31086,0 0,6.51179 3.89007,-3.42241 1.66515,0 -4.20893,3.71293 4.38608,4.2231 -1.70058,0 -4.03179,-3.8759 0,3.8759 -1.31086,0 0,-11.02541"
           inkscape:connector-curvature="0" />
      </g>
      <path
         style="fill:none;stroke:#dba981;stroke-width:1.20043182;stroke-linecap:round;stroke-linejoin:miter;stroke-miterlimit:4;stroke-opacity:1;stroke-dasharray:3.6012954, 1.2004318;stroke-dashoffset:0"
         d="m 189.8238,423.2926 132.2168,0"
         id="path8471-6-6-6-8-7-8-3-3-9-3-9-1-5"
         inkscape:connector-curvature="0"
         sodipodi:nodetypes="cc" />
      <path
         style="color:#000000;fill:#ffffff;fill-opacity:1;stroke:#00000f;stroke-width:1.12255287;stroke-linecap:round;stroke-linejoin:miter;stroke-miterlimit:4;stroke-opacity:0.94120029;stroke-dashoffset:0;marker:none;visibility:visible;display:inline;overflow:visible;enable-background:accumulate"
         d="m 313.1724,364.44 c 0,6.4496 -5.6434,11.2868 -11.2868,11.2868 -6.4496,0 -11.2868,-4.8372 -11.2868,-11.2868 0,-6.4496 4.8372,-11.2868 11.2868,-11.2868 5.6434,0 10.4806,4.8372 11.2868,11.2868"
         id="path4050-8-0-5-3-4-0-7-3-0-68-5-6-5-9-3"
         inkscape:connector-curvature="0" />
      <text
         xml:space="preserve"
         style="font-size:14.51159954px;font-style:normal;font-variant:normal;font-weight:normal;font-stretch:normal;text-align:start;line-height:125%;letter-spacing:0px;word-spacing:0px;writing-mode:lr-tb;text-anchor:start;fill:#000000;fill-opacity:1;stroke:none;font-family:Standard Symbols L;-inkscape-font-specification:Standard Symbols L"
         x="293.9913"
         y="369.32306"
         id="text8512-9-6-3-7"
         sodipodi:linespacing="125%"><tspan
           sodipodi:role="line"
           id="tspan8514-9-9-1-0"
           x="293.9913"
           y="369.32306">12</tspan></text>
    </g>
  </g>
</svg>
