<?xml version="1.0" encoding="UTF-8" standalone="no"?>
<!-- Created with Inkscape (http://www.inkscape.org/) -->

<svg
   xmlns:dc="http://purl.org/dc/elements/1.1/"
   xmlns:cc="http://creativecommons.org/ns#"
   xmlns:rdf="http://www.w3.org/1999/02/22-rdf-syntax-ns#"
   xmlns:svg="http://www.w3.org/2000/svg"
   xmlns="http://www.w3.org/2000/svg"
   xmlns:sodipodi="http://sodipodi.sourceforge.net/DTD/sodipodi-0.dtd"
   xmlns:inkscape="http://www.inkscape.org/namespaces/inkscape"
   width="164.16705"
   height="212.68161"
   id="svg13099"
   version="1.1"
   inkscape:version="0.48.4 r9939"
   sodipodi:docname="Новий документ 148">
  <defs
     id="defs13101" />
  <sodipodi:namedview
     id="base"
     pagecolor="#ffffff"
     bordercolor="#666666"
     borderopacity="1.0"
     inkscape:pageopacity="0.0"
     inkscape:pageshadow="2"
     inkscape:zoom="1.979899"
     inkscape:cx="182.85142"
     inkscape:cy="102.93948"
     inkscape:document-units="px"
     inkscape:current-layer="layer1"
     showgrid="false"
     fit-margin-top="0"
     fit-margin-left="0"
     fit-margin-right="0"
     fit-margin-bottom="0"
     inkscape:window-width="1855"
     inkscape:window-height="1056"
     inkscape:window-x="65"
     inkscape:window-y="24"
     inkscape:window-maximized="1" />
  <metadata
     id="metadata13104">
    <rdf:RDF>
      <cc:Work
         rdf:about="">
        <dc:format>image/svg+xml</dc:format>
        <dc:type
           rdf:resource="http://purl.org/dc/dcmitype/StillImage" />
        <dc:title></dc:title>
      </cc:Work>
    </rdf:RDF>
  </metadata>
  <g
     inkscape:label="Layer 1"
     inkscape:groupmode="layer"
     id="layer1"
     transform="translate(-149.34505,-260.30713)">
    <g
       id="g13182">
      <path
         sodipodi:nodetypes="cc"
         inkscape:connector-curvature="0"
         id="path3992-4-77-9-5-7-1-28-2-5-6"
         d="M 167.77968,411.0238 292.90192,411.83"
         style="fill:none;stroke:#dba981;stroke-width:1.20043182;stroke-linecap:round;stroke-linejoin:miter;stroke-miterlimit:4;stroke-opacity:1;stroke-dasharray:3.6012954, 1.2004318;stroke-dashoffset:0" />
      <path
         style="fill:none;stroke:#dba981;stroke-width:1.20043182;stroke-linecap:round;stroke-linejoin:miter;stroke-miterlimit:4;stroke-opacity:1;stroke-dasharray:3.6012954, 1.2004318;stroke-dashoffset:0"
         d="m 161.89442,382.0006 c 33.8604,-1.6124 14.5116,-24.9922 71.7518,-25.7984 53.6123,0 39.9069,25.7984 66.5115,25.7984"
         id="path3992-4-77-9-5-7-1-4-5-94"
         inkscape:connector-curvature="0"
         sodipodi:nodetypes="csc" />
      <path
         style="opacity:0.3;fill:none;stroke:#000000;stroke-width:1.61240005;stroke-linecap:round;stroke-linejoin:miter;stroke-miterlimit:4;stroke-opacity:0;stroke-dasharray:4.8372, 1.6124;stroke-dashoffset:0"
         d="m 201.39822,298.962 c 2.4186,7.2558 19.3488,9.6744 30.6356,9.6744 8.8682,-0.8062 22.5736,-2.4186 26.6046,-9.6744"
         id="path3992-4-94-7-98-1-3-4-7-3-9"
         inkscape:connector-curvature="0"
         sodipodi:nodetypes="cac" />
      <path
         style="fill:none;stroke:#dba981;stroke-width:1.20043182;stroke-linecap:round;stroke-linejoin:miter;stroke-miterlimit:4;stroke-opacity:1;stroke-dasharray:3.6012954, 1.2004318;stroke-dashoffset:0"
         d="m 200.59202,298.962 c 9.6744,9.6744 55.6278,10.4806 58.8526,3.2248"
         id="path3992-4-77-9-5-7-1-4-42"
         inkscape:connector-curvature="0"
         sodipodi:nodetypes="cc" />
      <path
         sodipodi:nodetypes="cccccccacsccccc"
         inkscape:connector-curvature="0"
         id="path11116-93-4"
         d="m 178.82462,471.4888 c -4.031,-20.9612 -5.6434,-32.248 -8.8682,-48.372 -2.4186,-11.2868 -1.6124,-24.186 -6.4496,-35.4728 -8.062,-20.9612 -20.155,-49.1782 -6.4496,-70.1394 6.4496,-8.8682 26.6046,-8.062 42.7286,-16.9302 3.2248,-2.4186 4.031,-8.062 4.8372,-11.2868 0.8062,-4.031 -0.8062,-12.8992 -0.8062,-12.8992 0,0 17.7364,5.6434 27.4108,5.6434 8.8682,0 25.7984,-4.8372 25.7984,-4.8372 0,0 -1.6124,8.062 -0.8062,12.093 0.8062,4.8372 2.4186,9.6744 4.8372,11.2868 16.5271,9.6744 36.6821,8.062 43.1317,17.7364 16.9302,24.186 2.4186,49.1782 -6.4496,69.3332 -4.8372,11.2868 -4.8372,24.186 -6.4496,35.4728 -3.2248,16.124 -6.4496,29.0232 -8.8682,48.372"
         style="fill:none;stroke:#dba981;stroke-width:2.99987006;stroke-linecap:round;stroke-linejoin:miter;stroke-miterlimit:4;stroke-opacity:1;stroke-dasharray:none" />
      <path
         style="fill:none;stroke:#dba981;stroke-width:2.99987006;stroke-linecap:round;stroke-linejoin:miter;stroke-miterlimit:4;stroke-opacity:1;stroke-dasharray:none"
         d="m 300.96392,378.7758 c -4.8372,-1.6124 -29.0232,6.4496 -3.2248,-65.3022"
         id="path8584-1-4-6-3-4-4-8-0"
         inkscape:connector-curvature="0"
         sodipodi:nodetypes="cc" />
      <path
         style="fill:none;stroke:#dba981;stroke-width:2.99987006;stroke-linecap:round;stroke-linejoin:miter;stroke-miterlimit:4;stroke-opacity:1;stroke-dasharray:none"
         d="m 161.89442,377.9696 c 4.031,-1.6124 28.217,6.4496 2.4186,-65.3022"
         id="path8584-6-7-8-0-3-1-3-0-2"
         inkscape:connector-curvature="0"
         sodipodi:nodetypes="cc" />
      <path
         sodipodi:nodetypes="cc"
         inkscape:connector-curvature="0"
         id="path8471-6-6-6-8-7-8-3-3-3-4"
         d="m 180.43702,470.6826 101.9843,0"
         style="fill:none;stroke:#dba981;stroke-width:1.20043182;stroke-linecap:round;stroke-linejoin:miter;stroke-miterlimit:4;stroke-opacity:1;stroke-dasharray:3.6012954, 1.2004318;stroke-dashoffset:0" />
      <g
         id="text6934-2-9-1-5"
         style="font-size:14.51159954px;font-style:normal;font-variant:normal;font-weight:normal;font-stretch:normal;text-align:start;line-height:125%;letter-spacing:0px;word-spacing:0px;writing-mode:lr-tb;text-anchor:start;fill:#000000;fill-opacity:1;stroke:none;font-family:Standard Symbols L;-inkscape-font-specification:Standard Symbols L">
        <path
           id="path13172"
           d="m 212.19019,260.30713 6.07957,0 0,1.20457 -4.64825,0 0,3.11773 4.19476,0 0,1.20457 -4.19476,0 0,5.05214 -1.43132,0 0,-10.57901"
           inkscape:connector-curvature="0" />
        <path
           id="path13174"
           d="m 224.04464,264.16886 c -0.14644,-0.085 -0.30705,-0.14644 -0.48183,-0.18423 -0.17006,-0.0425 -0.35902,-0.0638 -0.56686,-0.0638 -0.73692,10e-6 -1.30378,0.24093 -1.70058,0.72275 -0.39208,0.47711 -0.58812,1.16443 -0.58811,2.06195 l 0,4.18059 -1.31087,0 0,-7.93603 1.31087,0 0,1.23292 c 0.27398,-0.48183 0.63062,-0.83847 1.06994,-1.06995 0.43932,-0.23618 0.97311,-0.35428 1.60138,-0.35429 0.0898,10e-6 0.18895,0.007 0.2976,0.0213 0.10864,0.009 0.2291,0.026 0.36138,0.0496 l 0.007,1.33921"
           inkscape:connector-curvature="0" />
        <path
           id="path13176"
           d="m 228.1898,263.86417 c -0.69913,10e-6 -1.25182,0.27399 -1.65806,0.82194 -0.40626,0.54325 -0.60938,1.28961 -0.60938,2.2391 0,0.94949 0.20076,1.69822 0.60229,2.24618 0.40625,0.54324 0.9613,0.81486 1.66515,0.81486 0.6944,0 1.24472,-0.27398 1.65098,-0.82195 0.40624,-0.54796 0.60936,-1.29432 0.60937,-2.23909 -1e-5,-0.94004 -0.20313,-1.68404 -0.60937,-2.23201 -0.40626,-0.55268 -0.95658,-0.82902 -1.65098,-0.82903 m 0,-1.10538 c 1.13371,1e-5 2.02415,0.36847 2.67132,1.10538 0.64716,0.73692 0.97074,1.75727 0.97075,3.06104 -1e-5,1.29905 -0.32359,2.3194 -0.97075,3.06104 -0.64717,0.73692 -1.53761,1.10538 -2.67132,1.10538 -1.13845,0 -2.03125,-0.36846 -2.67841,-1.10538 -0.64244,-0.74164 -0.96366,-1.76199 -0.96366,-3.06104 0,-1.30377 0.32122,-2.32412 0.96366,-3.06104 0.64716,-0.73691 1.53996,-1.10537 2.67841,-1.10538"
           inkscape:connector-curvature="0" />
        <path
           id="path13178"
           d="m 240.58276,266.09618 0,4.78996 -1.30377,0 0,-4.74745 c -1e-5,-0.75108 -0.14645,-1.31322 -0.43932,-1.6864 -0.29288,-0.37318 -0.7322,-0.55977 -1.31795,-0.55978 -0.70385,10e-6 -1.2589,0.22439 -1.66515,0.67315 -0.40625,0.44877 -0.60937,1.0605 -0.60937,1.8352 l 0,4.48528 -1.31086,0 0,-7.93603 1.31086,0 0,1.23292 c 0.31177,-0.4771 0.67787,-0.83375 1.09829,-1.06995 0.42514,-0.23618 0.91406,-0.35428 1.46675,-0.35429 0.91169,1e-5 1.60137,0.28344 2.06903,0.85029 0.46766,0.56214 0.70149,1.39118 0.70149,2.4871"
           inkscape:connector-curvature="0" />
        <path
           id="path13180"
           d="m 244.48701,260.69684 0,2.25327 2.68549,0 0,1.01326 -2.68549,0 0,4.30813 c -1e-5,0.64717 0.0874,1.06286 0.26217,1.24709 0.1795,0.18423 0.54087,0.27635 1.08412,0.27634 l 1.3392,0 0,1.09121 -1.3392,0 c -1.00618,0 -1.70058,-0.18659 -2.08321,-0.55977 -0.38263,-0.37791 -0.57395,-1.06286 -0.57395,-2.05487 l 0,-4.30813 -0.95657,0 0,-1.01326 0.95657,0 0,-2.25327 1.31087,0"
           inkscape:connector-curvature="0" />
      </g>
      <path
         style="fill:none;stroke:#dba981;stroke-width:1.20043182;stroke-linecap:round;stroke-linejoin:miter;stroke-miterlimit:4;stroke-opacity:1;stroke-dasharray:3.6012954, 1.2004318;stroke-dashoffset:0"
         d="m 165.92542,390.8688 129.3951,0"
         id="path3992-4-77-9-5-7-1-28-2-15"
         inkscape:connector-curvature="0"
         sodipodi:nodetypes="cc" />
      <path
         sodipodi:nodetypes="cc"
         inkscape:connector-curvature="0"
         id="path7494-1-6-3-5-81-64-9-2-9-5-3-0-6-8"
         d="m 261.86322,299.7682 20.5581,170.9144"
         style="fill:none;stroke:#000000;stroke-width:2.41860008;stroke-linecap:round;stroke-linejoin:round;stroke-miterlimit:4;stroke-opacity:1;stroke-dasharray:none;marker-start:url(#marker7359);marker-end:url(#marker7359)" />
      <path
         style="color:#000000;fill:#ffffff;fill-opacity:1;stroke:#00000f;stroke-width:1.12255287;stroke-linecap:round;stroke-linejoin:miter;stroke-miterlimit:4;stroke-opacity:0.94120029;stroke-dashoffset:0;marker:none;visibility:visible;display:inline;overflow:visible;enable-background:accumulate"
         d="m 277.58412,332.8224 c 0,6.4496 -5.6434,11.2868 -11.2868,11.2868 -6.8527,0 -11.6899,-4.8372 -11.6899,-11.2868 0,-5.6434 4.8372,-10.4806 11.6899,-10.4806 5.6434,0 10.4806,4.8372 11.2868,10.4806"
         id="path4050-8-0-5-3-4-0-7-3-0-9-4-0-8-0-3"
         inkscape:connector-curvature="0" />
      <text
         sodipodi:linespacing="125%"
         id="text8496-8-3-2"
         y="337.90427"
         x="262.18561"
         style="font-size:14.51159954px;font-style:normal;font-variant:normal;font-weight:normal;font-stretch:normal;text-align:start;line-height:125%;letter-spacing:0px;word-spacing:0px;writing-mode:lr-tb;text-anchor:start;fill:#000000;fill-opacity:1;stroke:none;font-family:Standard Symbols L;-inkscape-font-specification:Standard Symbols L"
         xml:space="preserve"><tspan
           y="337.90427"
           x="262.18561"
           id="tspan8498-8-5-9"
           sodipodi:role="line">3</tspan></text>
      <path
         sodipodi:nodetypes="cc"
         inkscape:connector-curvature="0"
         id="path7494-1-6-3-5-81-64-9-2-9-5-3-0-6-8-7"
         d="m 233.24312,307.8302 47.5658,162.8524"
         style="fill:none;stroke:#000000;stroke-width:2.41860008;stroke-linecap:round;stroke-linejoin:round;stroke-miterlimit:4;stroke-opacity:1;stroke-dasharray:none;marker-start:url(#marker7359);marker-end:url(#marker7359)" />
      <path
         style="color:#000000;fill:#ffffff;fill-opacity:1;stroke:#00000f;stroke-width:1.12255287;stroke-linecap:round;stroke-linejoin:miter;stroke-miterlimit:4;stroke-opacity:0.94120029;stroke-dashoffset:0;marker:none;visibility:visible;display:inline;overflow:visible;enable-background:accumulate"
         d="m 253.23688,334.4348 c 0,6.4496 -5.6434,11.2868 -11.2868,11.2868 -6.12712,0 -10.96432,-4.8372 -10.96432,-11.2868 0,-5.6434 4.8372,-10.4806 10.96432,-10.4806 5.6434,0 10.4806,4.8372 11.2868,10.4806"
         id="path4050-8-0-5-3-4-0-7-3-0-9-4-0-8-0-3-0"
         inkscape:connector-curvature="0" />
      <text
         sodipodi:linespacing="125%"
         id="text8496-8-3-2-4"
         y="340.53326"
         x="238.52406"
         style="font-size:14.51159954px;font-style:normal;font-variant:normal;font-weight:normal;font-stretch:normal;text-align:start;line-height:125%;letter-spacing:0px;word-spacing:0px;writing-mode:lr-tb;text-anchor:start;fill:#000000;fill-opacity:1;stroke:none;font-family:Standard Symbols L;-inkscape-font-specification:Standard Symbols L"
         xml:space="preserve"><tspan
           y="340.53326"
           x="238.52406"
           id="tspan8498-8-5-9-1"
           sodipodi:role="line">2</tspan></text>
    </g>
  </g>
</svg>
