<?xml version="1.0" encoding="UTF-8" standalone="no"?>
<!-- Created with Inkscape (http://www.inkscape.org/) -->

<svg
   xmlns:dc="http://purl.org/dc/elements/1.1/"
   xmlns:cc="http://creativecommons.org/ns#"
   xmlns:rdf="http://www.w3.org/1999/02/22-rdf-syntax-ns#"
   xmlns:svg="http://www.w3.org/2000/svg"
   xmlns="http://www.w3.org/2000/svg"
   xmlns:sodipodi="http://sodipodi.sourceforge.net/DTD/sodipodi-0.dtd"
   xmlns:inkscape="http://www.inkscape.org/namespaces/inkscape"
   width="169.67709"
   height="252.96638"
   id="svg13389"
   version="1.1"
   inkscape:version="0.48.4 r9939"
   sodipodi:docname="Новий документ 154">
  <defs
     id="defs13391">
    <marker
       inkscape:stockid="Arrow2Mend"
       orient="auto"
       refY="0"
       refX="0"
       id="marker18919-9"
       style="overflow:visible">
      <path
         id="path18921-1"
         style="fill-rule:evenodd;stroke-width:0.625;stroke-linejoin:round"
         d="M 8.719,4.034 -2.207,0.016 8.719,-4.002 c -1.746,2.372 -1.736,5.618 0,8.036 z"
         transform="scale(-0.6,-0.6)"
         inkscape:connector-curvature="0" />
    </marker>
  </defs>
  <sodipodi:namedview
     id="base"
     pagecolor="#ffffff"
     bordercolor="#666666"
     borderopacity="1.0"
     inkscape:pageopacity="0.0"
     inkscape:pageshadow="2"
     inkscape:zoom="1.4"
     inkscape:cx="15.870068"
     inkscape:cy="14.133904"
     inkscape:document-units="px"
     inkscape:current-layer="layer1"
     showgrid="false"
     fit-margin-top="0"
     fit-margin-left="0"
     fit-margin-right="0"
     fit-margin-bottom="0"
     inkscape:window-width="1855"
     inkscape:window-height="1056"
     inkscape:window-x="65"
     inkscape:window-y="24"
     inkscape:window-maximized="1" />
  <metadata
     id="metadata13394">
    <rdf:RDF>
      <cc:Work
         rdf:about="">
        <dc:format>image/svg+xml</dc:format>
        <dc:type
           rdf:resource="http://purl.org/dc/dcmitype/StillImage" />
        <dc:title></dc:title>
      </cc:Work>
    </rdf:RDF>
  </metadata>
  <g
     inkscape:label="Layer 1"
     inkscape:groupmode="layer"
     id="layer1"
     transform="translate(-215.16214,-291.59324)">
    <g
       id="g13494">
      <path
         style="fill:none;stroke:#dba981;stroke-width:1.20043182;stroke-linecap:round;stroke-linejoin:miter;stroke-miterlimit:4;stroke-opacity:1;stroke-dasharray:3.6012954, 1.2004318;stroke-dashoffset:0"
         d="m 232.681,447.5961 132.2168,0"
         id="path8471-6-6-6-8-7-8-3-3-9-3-9-7-8"
         inkscape:connector-curvature="0"
         sodipodi:nodetypes="cc" />
      <path
         style="fill:none;stroke:#dba981;stroke-width:1.20043182;stroke-linecap:round;stroke-linejoin:miter;stroke-miterlimit:4;stroke-opacity:1;stroke-dasharray:3.6012954, 1.2004318;stroke-dashoffset:0"
         d="m 227.8438,416.1543 141.8912,0"
         id="path8471-6-6-6-8-7-8-3-3-9-3-9-6-0"
         inkscape:connector-curvature="0"
         sodipodi:nodetypes="cc" />
      <path
         style="fill:none;stroke:#dba981;stroke-width:1.20043182;stroke-linecap:round;stroke-linejoin:miter;stroke-miterlimit:4;stroke-opacity:1;stroke-dasharray:3.6012954, 1.2004318;stroke-dashoffset:0"
         d="m 269.7662,333.9219 c 12.093,-5.6434 46.7596,-6.4496 58.8526,0.8062"
         id="path3992-4-77-9-5-7-1-0-3-0"
         inkscape:connector-curvature="0"
         sodipodi:nodetypes="cc" />
      <path
         style="fill:none;stroke:#dba981;stroke-width:1.20043182;stroke-linecap:round;stroke-linejoin:miter;stroke-miterlimit:4;stroke-opacity:1;stroke-dasharray:3.6012954, 1.2004318;stroke-dashoffset:0"
         d="m 232.681,428.2473 132.2168,0"
         id="path8471-6-6-6-8-7-8-3-3-9-3-9-4"
         inkscape:connector-curvature="0"
         sodipodi:nodetypes="cc" />
      <path
         style="fill:none;stroke:#dba981;stroke-width:2.99987006;stroke-linecap:round;stroke-linejoin:miter;stroke-miterlimit:4;stroke-opacity:1;stroke-dasharray:none"
         d="m 370.5412,416.9605 c -18.5426,-24.9922 -5.6434,-47.5658 0.8062,-64.496"
         id="path8584-0-8-6-3-5-4"
         inkscape:connector-curvature="0"
         sodipodi:nodetypes="cc" />
      <path
         style="fill:none;stroke:#dba981;stroke-width:2.99987006;stroke-linecap:round;stroke-linejoin:miter;stroke-miterlimit:4;stroke-opacity:1;stroke-dasharray:none"
         d="m 227.8438,415.3481 c 14.5116,-28.217 4.8372,-46.7596 -0.8062,-62.8836"
         id="path8584-6-5-3-6-1-2-2"
         inkscape:connector-curvature="0"
         sodipodi:nodetypes="cc" />
      <path
         style="fill:none;stroke:#dba981;stroke-width:2.99987006;stroke-linecap:round;stroke-linejoin:miter;stroke-miterlimit:4;stroke-opacity:1;stroke-dasharray:none"
         d="m 245.5802,507.2549 c -4.8372,-19.3488 -5.6434,-31.4418 -9.6744,-48.372 -2.4186,-11.2868 -1.6124,-24.186 -5.6434,-35.4728 -9.6744,-20.155 -20.9612,-49.1782 -7.2558,-69.3332 7.2558,-8.8682 28.217,-8.062 44.341,-17.7364 3.2248,-1.6124 4.8372,-6.4496 5.6434,-10.4806 0,-4.8372 -0.8062,-12.8992 -0.8062,-12.8992 0,0 17.7364,-6.4496 27.4108,-6.4496 8.8682,0 26.6046,6.4496 26.6046,6.4496 0,0 -1.6124,8.8682 -0.8062,12.8992 0.8062,4.031 2.4186,8.8682 5.6434,11.2868 16.124,8.8682 37.0852,8.062 44.341,16.9302 17.7364,24.186 1.6124,49.1782 -7.2558,70.1394 -4.031,10.4806 -4.031,23.3798 -6.4496,34.6666 -3.2248,16.9302 -5.6434,29.0232 -9.6744,47.5658"
         id="path11142-0-1"
         inkscape:connector-curvature="0"
         sodipodi:nodetypes="cccccccaccccccc" />
      <path
         sodipodi:nodetypes="cc"
         inkscape:connector-curvature="0"
         id="path8471-6-6-6-8-7-8-3-3-9-1-9"
         d="m 247.1926,506.4487 104.806,0.8062"
         style="fill:none;stroke:#dba981;stroke-width:1.20043182;stroke-linecap:round;stroke-linejoin:miter;stroke-miterlimit:4;stroke-opacity:1;stroke-dasharray:3.6012954, 1.2004318;stroke-dashoffset:0" />
      <g
         id="text6934-6-9-8"
         style="font-size:14.51159954px;font-style:normal;font-variant:normal;font-weight:normal;font-stretch:normal;text-align:start;line-height:125%;letter-spacing:0px;word-spacing:0px;writing-mode:lr-tb;text-anchor:start;fill:#000000;fill-opacity:1;stroke:none;font-family:Standard Symbols L;-inkscape-font-specification:Standard Symbols L">
        <path
           id="path13486"
           d="m 285.39449,297.56652 0,3.8759 2.29578,0 c 0.76998,0 1.3392,-0.15825 1.70767,-0.47475 0.37317,-0.32121 0.55976,-0.81013 0.55977,-1.46674 -1e-5,-0.66134 -0.1866,-1.14789 -0.55977,-1.45967 -0.36847,-0.31649 -0.93769,-0.47474 -1.70767,-0.47474 l -2.29578,0 m 0,-4.35065 0,3.18859 2.11864,0 c 0.69912,0 1.21874,-0.1299 1.55886,-0.38972 0.34484,-0.26453 0.51726,-0.66605 0.51726,-1.20458 0,-0.53378 -0.17242,-0.93294 -0.51726,-1.19749 -0.34012,-0.26452 -0.85974,-0.39679 -1.55886,-0.3968 l -2.11864,0 m -1.43132,-1.17623 3.65625,0 c 1.0912,10e-6 1.93204,0.22675 2.52252,0.68023 0.59047,0.4535 0.88571,1.0983 0.88572,1.93441 -1e-5,0.64717 -0.15117,1.16207 -0.45349,1.54469 -0.30233,0.38264 -0.74637,0.62119 -1.33212,0.71566 0.70385,0.15117 1.24945,0.46766 1.63681,0.94949 0.39207,0.47711 0.58811,1.07467 0.58812,1.79269 -10e-6,0.94477 -0.32123,1.6746 -0.96367,2.1895 -0.64244,0.51489 -1.5565,0.77234 -2.74218,0.77234 l -3.79796,0 0,-10.57901"
           inkscape:connector-curvature="0" />
        <path
           id="path13488"
           d="m 297.46151,298.62938 c -1.05341,0 -1.78325,0.12046 -2.18949,0.36137 -0.40625,0.24092 -0.60938,0.65189 -0.60938,1.23292 0,0.46294 0.15116,0.8314 0.45349,1.10538 0.30705,0.26926 0.72274,0.40389 1.24709,0.40388 0.72274,10e-6 1.30141,-0.25508 1.73601,-0.76526 0.43931,-0.51489 0.65897,-1.19748 0.65897,-2.04777 l 0,-0.29052 -1.29669,0 m 2.60047,-0.53852 0,4.52779 -1.30378,0 0,-1.20457 c -0.2976,0.48183 -0.66842,0.83848 -1.11246,1.06994 -0.44404,0.22675 -0.98728,0.34012 -1.62972,0.34012 -0.8125,0 -1.45966,-0.22674 -1.94149,-0.68023 -0.47711,-0.45821 -0.71566,-1.06995 -0.71566,-1.83521 0,-0.8928 0.2976,-1.56594 0.8928,-2.01944 0.59993,-0.45348 1.49273,-0.68022 2.67841,-0.68023 l 1.82812,0 0,-0.12754 c 0,-0.59992 -0.1984,-1.06286 -0.5952,-1.38881 -0.39208,-0.33066 -0.94477,-0.49599 -1.65806,-0.496 -0.45349,1e-5 -0.89517,0.0543 -1.32504,0.16297 -0.42987,0.10866 -0.8432,0.27163 -1.24,0.48892 l 0,-1.20458 c 0.4771,-0.18422 0.94004,-0.32121 1.3888,-0.41097 0.44876,-0.0945 0.88572,-0.14171 1.31087,-0.14171 1.14788,0 2.00526,0.29761 2.57212,0.8928 0.56685,0.59521 0.85028,1.49746 0.85029,2.70675"
           inkscape:connector-curvature="0" />
        <path
           id="path13490"
           d="m 308.46567,294.98731 0,1.21875 c -0.36847,-0.20312 -0.73929,-0.35428 -1.11246,-0.45349 -0.36847,-0.10392 -0.74165,-0.15588 -1.11955,-0.15589 -0.84557,1e-5 -1.50218,0.26927 -1.96984,0.80778 -0.46766,0.53379 -0.70149,1.28488 -0.70148,2.25326 -1e-5,0.96839 0.23382,1.72184 0.70148,2.26035 0.46766,0.5338 1.12427,0.80069 1.96984,0.80069 0.3779,0 0.75108,-0.0496 1.11955,-0.1488 0.37317,-0.10392 0.74399,-0.25744 1.11246,-0.46057 l 0,1.20458 c -0.36374,0.17005 -0.74165,0.2976 -1.13372,0.38263 -0.38736,0.085 -0.80069,0.12754 -1.24,0.12754 -1.19514,0 -2.14463,-0.37555 -2.84847,-1.12663 -0.70385,-0.75109 -1.05578,-1.76435 -1.05578,-3.03979 0,-1.29432 0.35429,-2.3123 1.06286,-3.05395 0.7133,-0.74164 1.68877,-1.11246 2.92641,-1.11246 0.40152,0 0.7936,0.0425 1.17624,0.12754 0.38262,0.0803 0.75344,0.20313 1.11246,0.36846"
           inkscape:connector-curvature="0" />
        <path
           id="path13492"
           d="m 310.69768,291.59324 1.31086,0 0,6.51179 3.89007,-3.42241 1.66515,0 -4.20893,3.71293 4.38608,4.2231 -1.70058,0 -4.03179,-3.8759 0,3.8759 -1.31086,0 0,-11.02541"
           inkscape:connector-curvature="0" />
      </g>
      <path
         sodipodi:nodetypes="cc"
         inkscape:connector-curvature="0"
         id="path7494-1-6-3-5-81-64-9-2-0-58-4-71"
         d="M 371.3474,350.8521 310.0762,506.4487"
         style="fill:none;stroke:#000000;stroke-width:2.41860008;stroke-linecap:round;stroke-linejoin:round;stroke-miterlimit:4;stroke-opacity:1;stroke-dasharray:none;marker-start:url(#marker7359);marker-end:url(#marker7359)" />
      <path
         inkscape:connector-curvature="0"
         id="path4050-8-0-5-3-4-0-7-3-0-68-41-6-6"
         d="m 369.735,375.8443 c 0,6.4496 -5.6434,11.2868 -11.2868,11.2868 -6.4496,0 -11.2868,-4.8372 -11.2868,-11.2868 0,-5.6434 4.8372,-11.2868 11.2868,-11.2868 5.6434,0 10.4806,5.6434 11.2868,11.2868"
         style="color:#000000;fill:#ffffff;fill-opacity:1;stroke:#00000f;stroke-width:1.12255287;stroke-linecap:round;stroke-linejoin:miter;stroke-miterlimit:4;stroke-opacity:0.94120029;stroke-dashoffset:0;marker:none;visibility:visible;display:inline;overflow:visible;enable-background:accumulate" />
      <text
         sodipodi:linespacing="125%"
         id="text3867-2"
         y="380.67657"
         x="355.02344"
         style="font-size:14.51159954px;font-style:normal;font-variant:normal;font-weight:normal;font-stretch:normal;text-align:start;line-height:125%;letter-spacing:0px;word-spacing:0px;writing-mode:lr-tb;text-anchor:start;fill:#000000;fill-opacity:1;stroke:none;font-family:Standard Symbols L;-inkscape-font-specification:Standard Symbols L"
         xml:space="preserve"><tspan
           y="380.67657"
           x="355.02344"
           id="tspan3869-1"
           sodipodi:role="line">5</tspan></text>
      <path
         sodipodi:nodetypes="cc"
         inkscape:connector-curvature="0"
         id="path8471-6-6-6-8-7-8-3-3-9-3-9-7-8-0"
         d="m 299.9728,330.1275 0,176"
         style="fill:none;stroke:#dba981;stroke-width:1.20039999;stroke-linecap:round;stroke-linejoin:miter;stroke-miterlimit:4;stroke-opacity:1;stroke-dasharray:3.6013, 1.2004;stroke-dashoffset:0;display:inline" />
      <text
         sodipodi:linespacing="125%"
         id="text5211"
         y="544.55963"
         x="275.74918"
         style="font-size:18px;font-style:normal;font-variant:normal;font-weight:normal;font-stretch:normal;text-align:start;line-height:125%;letter-spacing:0px;word-spacing:0px;writing-mode:lr-tb;text-anchor:start;fill:#000000;fill-opacity:1;stroke:none;font-family:Standard Symbols L;-inkscape-font-specification:Standard Symbols L"
         xml:space="preserve"><tspan
           y="544.55963"
           x="275.74918"
           id="tspan5213"
           sodipodi:role="line">1&quot;</tspan></text>
      <path
         sodipodi:nodetypes="cc"
         inkscape:connector-curvature="0"
         id="path5215"
         d="m 290.1128,543.1275 c 0,0 19,-3 15,-20"
         style="fill:none;stroke:#000000;stroke-width:1px;stroke-linecap:butt;stroke-linejoin:miter;stroke-opacity:1;marker-end:url(#marker18919-9)" />
      <text
         transform="matrix(0,1,-1,0,0,0)"
         sodipodi:linespacing="125%"
         id="text6309"
         y="-300.50394"
         x="511.61676"
         style="font-size:18px;font-style:normal;font-variant:normal;font-weight:normal;font-stretch:normal;text-align:start;line-height:125%;letter-spacing:0px;word-spacing:0px;writing-mode:lr-tb;text-anchor:start;fill:#000000;fill-opacity:1;stroke:none;font-family:Standard Symbols L;-inkscape-font-specification:Standard Symbols L"
         xml:space="preserve"><tspan
           y="-300.50394"
           x="511.61676"
           id="tspan6311"
           sodipodi:role="line">}</tspan></text>
    </g>
  </g>
</svg>
