<?xml version="1.0" encoding="UTF-8" standalone="no"?>
<!-- Created with Inkscape (http://www.inkscape.org/) -->

<svg
   xmlns:dc="http://purl.org/dc/elements/1.1/"
   xmlns:cc="http://creativecommons.org/ns#"
   xmlns:rdf="http://www.w3.org/1999/02/22-rdf-syntax-ns#"
   xmlns:svg="http://www.w3.org/2000/svg"
   xmlns="http://www.w3.org/2000/svg"
   xmlns:sodipodi="http://sodipodi.sourceforge.net/DTD/sodipodi-0.dtd"
   xmlns:inkscape="http://www.inkscape.org/namespaces/inkscape"
   width="169.67709"
   height="217.24651"
   id="svg13567"
   version="1.1"
   inkscape:version="0.48.4 r9939"
   sodipodi:docname="Новий документ 157">
  <defs
     id="defs13569" />
  <sodipodi:namedview
     id="base"
     pagecolor="#ffffff"
     bordercolor="#666666"
     borderopacity="1.0"
     inkscape:pageopacity="0.0"
     inkscape:pageshadow="2"
     inkscape:zoom="1.979899"
     inkscape:cx="137.70402"
     inkscape:cy="23.064144"
     inkscape:document-units="px"
     inkscape:current-layer="layer1"
     showgrid="false"
     fit-margin-top="0"
     fit-margin-left="0"
     fit-margin-right="0"
     fit-margin-bottom="0"
     inkscape:window-width="1855"
     inkscape:window-height="1056"
     inkscape:window-x="65"
     inkscape:window-y="24"
     inkscape:window-maximized="1" />
  <metadata
     id="metadata13572">
    <rdf:RDF>
      <cc:Work
         rdf:about="">
        <dc:format>image/svg+xml</dc:format>
        <dc:type
           rdf:resource="http://purl.org/dc/dcmitype/StillImage" />
        <dc:title></dc:title>
      </cc:Work>
    </rdf:RDF>
  </metadata>
  <g
     inkscape:label="Layer 1"
     inkscape:groupmode="layer"
     id="layer1"
     transform="translate(-138.00589,-272.31245)">
    <g
       id="g13645">
      <path
         style="fill:none;stroke:#dba981;stroke-width:1.20043182;stroke-linecap:round;stroke-linejoin:miter;stroke-miterlimit:4;stroke-opacity:1;stroke-dasharray:3.6012954, 1.2004318;stroke-dashoffset:0"
         d="m 155.53811,428.396 132.2168,0"
         id="path8471-6-6-6-8-7-8-3-3-9-3-9-7-5"
         inkscape:connector-curvature="0"
         sodipodi:nodetypes="cc" />
      <path
         style="fill:none;stroke:#dba981;stroke-width:1.20043182;stroke-linecap:round;stroke-linejoin:miter;stroke-miterlimit:4;stroke-opacity:1;stroke-dasharray:3.6012954, 1.2004318;stroke-dashoffset:0"
         d="m 150.70091,396.9542 141.8912,0"
         id="path8471-6-6-6-8-7-8-3-3-9-3-9-6-3"
         inkscape:connector-curvature="0"
         sodipodi:nodetypes="cc" />
      <path
         style="fill:none;stroke:#dba981;stroke-width:1.20043182;stroke-linecap:round;stroke-linejoin:miter;stroke-miterlimit:4;stroke-opacity:1;stroke-dasharray:3.6012954, 1.2004318;stroke-dashoffset:0"
         d="m 192.62331,314.7218 c 12.093,-5.6434 46.7596,-6.4496 58.8526,0.8062"
         id="path3992-4-77-9-5-7-1-0-3-4"
         inkscape:connector-curvature="0"
         sodipodi:nodetypes="cc" />
      <path
         style="fill:none;stroke:#dba981;stroke-width:1.20043182;stroke-linecap:round;stroke-linejoin:miter;stroke-miterlimit:4;stroke-opacity:1;stroke-dasharray:3.6012954, 1.2004318;stroke-dashoffset:0"
         d="m 155.53811,409.0472 132.2168,0"
         id="path8471-6-6-6-8-7-8-3-3-9-3-9-3"
         inkscape:connector-curvature="0"
         sodipodi:nodetypes="cc" />
      <path
         style="fill:none;stroke:#dba981;stroke-width:2.99987006;stroke-linecap:round;stroke-linejoin:miter;stroke-miterlimit:4;stroke-opacity:1;stroke-dasharray:none"
         d="m 293.39831,397.7604 c -16.9302,-17.7364 -5.6434,-47.5658 0.8062,-64.496"
         id="path8584-0-8-6-3-5-6"
         inkscape:connector-curvature="0"
         sodipodi:nodetypes="cc" />
      <path
         style="fill:none;stroke:#dba981;stroke-width:2.99987006;stroke-linecap:round;stroke-linejoin:miter;stroke-miterlimit:4;stroke-opacity:1;stroke-dasharray:none"
         d="m 149.08851,396.148 c 16.9302,-30.6356 4.8372,-48.372 -0.8062,-64.496"
         id="path8584-6-5-3-6-1-2-6"
         inkscape:connector-curvature="0"
         sodipodi:nodetypes="cc" />
      <path
         style="fill:none;stroke:#dba981;stroke-width:2.99987006;stroke-linecap:round;stroke-linejoin:miter;stroke-miterlimit:4;stroke-opacity:1;stroke-dasharray:none"
         d="m 168.43731,488.0548 c -4.8372,-19.3488 -5.6434,-31.4418 -9.6744,-48.372 -2.4186,-11.2868 -1.6124,-24.186 -5.6434,-35.4728 -9.6744,-20.155 -20.9612,-49.1782 -7.2558,-69.3332 7.2558,-8.8682 28.217,-8.062 44.341,-17.7364 3.2248,-1.6124 4.8372,-6.4496 5.6434,-10.4806 0,-4.8372 -0.8062,-12.8992 -0.8062,-12.8992 0,0 17.7364,-6.4496 27.4108,-6.4496 8.8682,0 26.6046,6.4496 26.6046,6.4496 0,0 -1.6124,8.8682 -0.8062,12.8992 0.8062,4.031 2.4186,8.8682 5.6434,11.2868 16.124,8.8682 37.0852,8.062 44.341,16.9302 17.7364,24.186 1.6124,49.1782 -7.2558,70.1394 -4.031,10.4806 -4.031,23.3798 -6.4496,34.6666 -3.2248,16.9302 -5.6434,29.0232 -9.6744,47.5658"
         id="path11142-0-3"
         inkscape:connector-curvature="0"
         sodipodi:nodetypes="cccccccaccccccc" />
      <path
         sodipodi:nodetypes="cc"
         inkscape:connector-curvature="0"
         id="path8471-6-6-6-8-7-8-3-3-9-1-0"
         d="m 170.04971,487.2486 104.806,0.8062"
         style="fill:none;stroke:#dba981;stroke-width:1.61240005;stroke-linecap:round;stroke-linejoin:miter;stroke-miterlimit:4;stroke-opacity:1;stroke-dasharray:4.8372, 1.6124;stroke-dashoffset:0" />
      <g
         id="text6934-6-9-4"
         style="font-size:14.51159954px;font-style:normal;font-variant:normal;font-weight:normal;font-stretch:normal;text-align:start;line-height:125%;letter-spacing:0px;word-spacing:0px;writing-mode:lr-tb;text-anchor:start;fill:#000000;fill-opacity:1;stroke:none;font-family:Standard Symbols L;-inkscape-font-specification:Standard Symbols L">
        <path
           id="path13637"
           d="m 208.2516,278.28573 0,3.8759 2.29578,0 c 0.76997,0 1.3392,-0.15825 1.70766,-0.47475 0.37318,-0.32122 0.55977,-0.81013 0.55977,-1.46675 0,-0.66133 -0.18659,-1.14788 -0.55977,-1.45966 -0.36846,-0.31649 -0.93769,-0.47474 -1.70766,-0.47474 l -2.29578,0 m 0,-4.35065 0,3.18858 2.11863,0 c 0.69912,1e-5 1.21874,-0.12989 1.55887,-0.38971 0.34483,-0.26453 0.51725,-0.66605 0.51726,-1.20458 -1e-5,-0.53378 -0.17243,-0.93294 -0.51726,-1.19749 -0.34013,-0.26452 -0.85975,-0.39679 -1.55887,-0.3968 l -2.11863,0 m -1.43132,-1.17623 3.65624,0 c 1.0912,1e-5 1.93204,0.22675 2.52252,0.68023 0.59047,0.4535 0.88571,1.0983 0.88572,1.93441 -1e-5,0.64717 -0.15117,1.16206 -0.45349,1.54469 -0.30233,0.38263 -0.74637,0.62119 -1.33212,0.71566 0.70385,0.15117 1.24945,0.46766 1.63681,0.94949 0.39207,0.47711 0.58811,1.07467 0.58812,1.79269 -1e-5,0.94477 -0.32123,1.6746 -0.96366,2.18949 -0.64245,0.5149 -1.55651,0.77235 -2.74219,0.77235 l -3.79795,0 0,-10.57901"
           inkscape:connector-curvature="0" />
        <path
           id="path13639"
           d="m 220.31861,279.34859 c -1.05341,0 -1.78324,0.12046 -2.18949,0.36137 -0.40625,0.24092 -0.60938,0.65189 -0.60937,1.23292 -10e-6,0.46294 0.15116,0.83139 0.45348,1.10538 0.30705,0.26925 0.72275,0.40388 1.24709,0.40388 0.72275,0 1.30141,-0.25508 1.73601,-0.76526 0.43931,-0.51489 0.65897,-1.19749 0.65897,-2.04778 l 0,-0.29051 -1.29669,0 m 2.60047,-0.53852 0,4.52779 -1.30378,0 0,-1.20458 c -0.2976,0.48184 -0.66842,0.83848 -1.11246,1.06995 -0.44404,0.22674 -0.98728,0.34012 -1.62972,0.34012 -0.8125,0 -1.45966,-0.22675 -1.94149,-0.68023 -0.47711,-0.45821 -0.71566,-1.06995 -0.71566,-1.83521 0,-0.8928 0.2976,-1.56595 0.8928,-2.01944 0.59993,-0.45348 1.49273,-0.68022 2.67841,-0.68023 l 1.82812,0 0,-0.12754 c 0,-0.59992 -0.1984,-1.06286 -0.5952,-1.38881 -0.39208,-0.33066 -0.94477,-0.49599 -1.65806,-0.496 -0.45349,10e-6 -0.89517,0.0543 -1.32503,0.16297 -0.42988,0.10866 -0.84321,0.27163 -1.24001,0.48892 l 0,-1.20458 c 0.47711,-0.18422 0.94004,-0.32121 1.38881,-0.41097 0.44876,-0.0945 0.88571,-0.14171 1.31086,-0.14172 1.14788,10e-6 2.00526,0.29761 2.57212,0.89281 0.56685,0.59521 0.85028,1.49746 0.85029,2.70675"
           inkscape:connector-curvature="0" />
        <path
           id="path13641"
           d="m 231.32277,275.70652 0,1.21874 c -0.36847,-0.20311 -0.73929,-0.35428 -1.11246,-0.45348 -0.36847,-0.10392 -0.74165,-0.15588 -1.11955,-0.15589 -0.84557,10e-6 -1.50218,0.26926 -1.96983,0.80777 -0.46767,0.5338 -0.7015,1.28489 -0.70149,2.25327 -1e-5,0.96839 0.23382,1.72184 0.70149,2.26035 0.46765,0.5338 1.12426,0.80069 1.96983,0.80069 0.3779,0 0.75108,-0.0496 1.11955,-0.1488 0.37317,-0.10392 0.74399,-0.25745 1.11246,-0.46057 l 0,1.20457 c -0.36374,0.17006 -0.74165,0.2976 -1.13372,0.38263 -0.38736,0.085 -0.80069,0.12755 -1.24,0.12755 -1.19514,0 -2.14462,-0.37555 -2.84847,-1.12664 -0.70385,-0.75108 -1.05578,-1.76434 -1.05578,-3.03978 0,-1.29432 0.35429,-2.31231 1.06286,-3.05395 0.7133,-0.74164 1.68877,-1.11246 2.92642,-1.11247 0.40152,10e-6 0.79359,0.0425 1.17623,0.12755 0.38262,0.0803 0.75344,0.20313 1.11246,0.36846"
           inkscape:connector-curvature="0" />
        <path
           id="path13643"
           d="m 233.55478,272.31245 1.31086,0 0,6.51179 3.89007,-3.42241 1.66515,0 -4.20893,3.71293 4.38608,4.2231 -1.70058,0 -4.03179,-3.8759 0,3.8759 -1.31086,0 0,-11.02541"
           inkscape:connector-curvature="0" />
      </g>
      <path
         sodipodi:nodetypes="cc"
         inkscape:connector-curvature="0"
         id="path7494-1-6-3-5-81-64-9-2-0-58-4-7"
         d="m 252.28211,314.7218 22.5736,172.5268"
         style="fill:none;stroke:#000000;stroke-width:2.41860008;stroke-linecap:round;stroke-linejoin:round;stroke-miterlimit:4;stroke-opacity:1;stroke-dasharray:none;marker-start:url(#marker7359);marker-end:url(#marker7359)" />
      <path
         inkscape:connector-curvature="0"
         id="path4050-8-0-5-3-4-0-7-3-0-68-41-6-1"
         d="m 268.40611,351.0008 c 0,6.4496 -5.6434,11.2868 -11.2868,11.2868 -6.4496,0 -11.2868,-4.8372 -11.2868,-11.2868 0,-5.6434 4.8372,-11.2868 11.2868,-11.2868 5.6434,0 10.4806,5.6434 11.2868,11.2868"
         style="color:#000000;fill:#ffffff;fill-opacity:1;stroke:#00000f;stroke-width:1.12255287;stroke-linecap:round;stroke-linejoin:miter;stroke-miterlimit:4;stroke-opacity:0.94120029;stroke-dashoffset:0;marker:none;visibility:visible;display:inline;overflow:visible;enable-background:accumulate" />
      <text
         sodipodi:linespacing="125%"
         id="text3867-4"
         y="355.88385"
         x="253.5567"
         style="font-size:14.51159954px;font-style:normal;font-variant:normal;font-weight:normal;font-stretch:normal;text-align:start;line-height:125%;letter-spacing:0px;word-spacing:0px;writing-mode:lr-tb;text-anchor:start;fill:#000000;fill-opacity:1;stroke:none;font-family:Standard Symbols L;-inkscape-font-specification:Standard Symbols L"
         xml:space="preserve"><tspan
           y="355.88385"
           x="253.5567"
           id="tspan3869-8"
           sodipodi:role="line">7</tspan></text>
      <path
         sodipodi:nodetypes="cc"
         inkscape:connector-curvature="0"
         id="path7494-1-6-3-5-81-64-9-2-0-58-4-7-8"
         d="m 222.53333,311.497 50.7906,175.7516"
         style="fill:none;stroke:#000000;stroke-width:2.41860008;stroke-linecap:round;stroke-linejoin:round;stroke-miterlimit:4;stroke-opacity:1;stroke-dasharray:none;marker-start:url(#marker7359);marker-end:url(#marker7359)" />
      <path
         inkscape:connector-curvature="0"
         id="path4050-8-0-5-3-4-0-7-3-0-68-41-6-1-6"
         d="m 246.71933,351.0008 c 0,6.4496 -5.6434,11.2868 -11.2868,11.2868 -6.4496,0 -11.2868,-4.8372 -11.2868,-11.2868 0,-5.6434 4.8372,-11.2868 11.2868,-11.2868 5.6434,0 10.4806,5.6434 11.2868,11.2868"
         style="color:#000000;fill:#ffffff;fill-opacity:1;stroke:#00000f;stroke-width:1.12255287;stroke-linecap:round;stroke-linejoin:miter;stroke-miterlimit:4;stroke-opacity:0.94120029;stroke-dashoffset:0;marker:none;visibility:visible;display:inline;overflow:visible;enable-background:accumulate" />
      <text
         sodipodi:linespacing="125%"
         id="text3867-4-7"
         y="356.2468"
         x="230.69904"
         style="font-size:14.51159954px;font-style:normal;font-variant:normal;font-weight:normal;font-stretch:normal;text-align:start;line-height:125%;letter-spacing:0px;word-spacing:0px;writing-mode:lr-tb;text-anchor:start;fill:#000000;fill-opacity:1;stroke:none;font-family:Standard Symbols L;-inkscape-font-specification:Standard Symbols L"
         xml:space="preserve"><tspan
           y="356.2468"
           x="230.69904"
           id="tspan3869-8-6"
           sodipodi:role="line">6</tspan></text>
    </g>
  </g>
</svg>
