<?xml version="1.0" encoding="UTF-8" standalone="no"?>
<!-- Created with Inkscape (http://www.inkscape.org/) -->

<svg
   xmlns:dc="http://purl.org/dc/elements/1.1/"
   xmlns:cc="http://creativecommons.org/ns#"
   xmlns:rdf="http://www.w3.org/1999/02/22-rdf-syntax-ns#"
   xmlns:svg="http://www.w3.org/2000/svg"
   xmlns="http://www.w3.org/2000/svg"
   xmlns:sodipodi="http://sodipodi.sourceforge.net/DTD/sodipodi-0.dtd"
   xmlns:inkscape="http://www.inkscape.org/namespaces/inkscape"
   width="163.72495"
   height="212.61928"
   id="svg13987"
   version="1.1"
   inkscape:version="0.48.4 r9939"
   sodipodi:docname="Новий документ 166">
  <defs
     id="defs13989" />
  <sodipodi:namedview
     id="base"
     pagecolor="#ffffff"
     bordercolor="#666666"
     borderopacity="1.0"
     inkscape:pageopacity="0.0"
     inkscape:pageshadow="2"
     inkscape:zoom="1.979899"
     inkscape:cx="70.401447"
     inkscape:cy="60.216088"
     inkscape:document-units="px"
     inkscape:current-layer="layer1"
     showgrid="false"
     fit-margin-top="0"
     fit-margin-left="0"
     fit-margin-right="0"
     fit-margin-bottom="0"
     inkscape:window-width="1855"
     inkscape:window-height="1056"
     inkscape:window-x="65"
     inkscape:window-y="24"
     inkscape:window-maximized="1" />
  <metadata
     id="metadata13992">
    <rdf:RDF>
      <cc:Work
         rdf:about="">
        <dc:format>image/svg+xml</dc:format>
        <dc:type
           rdf:resource="http://purl.org/dc/dcmitype/StillImage" />
        <dc:title></dc:title>
      </cc:Work>
    </rdf:RDF>
  </metadata>
  <g
     inkscape:label="Layer 1"
     inkscape:groupmode="layer"
     id="layer1"
     transform="translate(-212.42159,-286.05755)">
    <g
       id="g14058">
      <path
         sodipodi:nodetypes="csc"
         inkscape:connector-curvature="0"
         id="path3992-4-77-9-5-7-1-4-5-9-2-9-1"
         d="m 226.5655,407.6786 c 33.8604,-1.6124 14.5116,-25.7984 71.7518,-25.7984 53.2092,-0.8062 39.5038,24.9922 66.1084,24.9922"
         style="fill:none;stroke:#dba981;stroke-width:1.20043182;stroke-linecap:round;stroke-linejoin:miter;stroke-miterlimit:4;stroke-opacity:1;stroke-dasharray:3.6012954, 1.2004318;stroke-dashoffset:0" />
      <path
         sodipodi:nodetypes="cc"
         inkscape:connector-curvature="0"
         id="path3992-4-77-9-5-7-1-28-2-1-3-5-9-1"
         d="m 233.8213,435.8956 121.7362,0"
         style="fill:none;stroke:#dba981;stroke-width:1.20043182;stroke-linecap:round;stroke-linejoin:miter;stroke-miterlimit:4;stroke-opacity:1;stroke-dasharray:3.6012954, 1.2004318;stroke-dashoffset:0" />
      <path
         style="opacity:0.3;fill:none;stroke:#000000;stroke-width:1.61240005;stroke-linecap:round;stroke-linejoin:miter;stroke-miterlimit:4;stroke-opacity:0;stroke-dasharray:4.8372, 1.6124;stroke-dashoffset:0"
         d="m 264.4569,324.64 c 2.4186,7.2558 19.3488,9.6744 30.6356,9.6744 8.8682,-0.8062 22.5736,-2.4186 26.6046,-9.6744"
         id="path3992-4-94-7-98-1-3-4-7-3-4-8-6-7"
         inkscape:connector-curvature="0"
         sodipodi:nodetypes="cac" />
      <path
         style="fill:none;stroke:#dba981;stroke-width:1.20043182;stroke-linecap:round;stroke-linejoin:miter;stroke-miterlimit:4;stroke-opacity:1;stroke-dasharray:3.6012954, 1.2004318;stroke-dashoffset:0"
         d="m 263.6507,324.64 c 9.6744,9.6744 55.6278,10.4806 58.8526,3.2248"
         id="path3992-4-77-9-5-7-1-4-4-7-3-3"
         inkscape:connector-curvature="0"
         sodipodi:nodetypes="cc" />
      <path
         sodipodi:nodetypes="cccccccacsccccc"
         inkscape:connector-curvature="0"
         id="path11116-93-3-2-0-6"
         d="m 241.8833,497.1668 c -4.031,-18.5426 -5.6434,-32.248 -8.8682,-48.372 -2.4186,-11.2868 -1.6124,-24.186 -6.4496,-35.4728 -8.062,-20.9612 -20.155,-49.1782 -6.4496,-70.1394 6.4496,-8.8682 26.6046,-8.062 42.7286,-16.9302 3.2248,-2.4186 4.031,-8.062 4.8372,-11.2868 0.8062,-4.031 -0.8062,-12.8992 -0.8062,-12.8992 0,0 17.7364,5.6434 27.4108,5.6434 8.8682,0 25.7984,-4.8372 25.7984,-4.8372 0,0 -1.6124,8.062 -0.8062,12.093 0.8062,4.8372 2.4186,9.6744 4.8372,11.2868 16.124,9.6744 36.279,8.062 42.7286,17.7364 16.9302,24.186 2.4186,49.1782 -6.4496,69.3332 -4.8372,11.2868 -4.8372,24.186 -6.4496,35.4728 -3.2248,16.124 -6.4496,32.248 -8.8682,48.372"
         style="fill:none;stroke:#dba981;stroke-width:2.99987006;stroke-linecap:round;stroke-linejoin:miter;stroke-miterlimit:4;stroke-opacity:1;stroke-dasharray:none" />
      <path
         style="fill:none;stroke:#dba981;stroke-width:2.99987006;stroke-linecap:round;stroke-linejoin:miter;stroke-miterlimit:4;stroke-opacity:1;stroke-dasharray:none"
         d="m 363.6195,404.4538 c -4.8372,-1.6124 -29.0232,6.4496 -3.2248,-65.3022"
         id="path8584-1-4-6-3-4-4-8-6-4-5-5"
         inkscape:connector-curvature="0"
         sodipodi:nodetypes="cc" />
      <path
         style="fill:none;stroke:#dba981;stroke-width:2.99987006;stroke-linecap:round;stroke-linejoin:miter;stroke-miterlimit:4;stroke-opacity:1;stroke-dasharray:none"
         d="m 224.9531,403.6476 c 4.031,-1.6124 28.217,6.4496 2.4186,-65.3022"
         id="path8584-6-7-8-0-3-1-3-0-4-1-9-6"
         inkscape:connector-curvature="0"
         sodipodi:nodetypes="cc" />
      <path
         sodipodi:nodetypes="cc"
         inkscape:connector-curvature="0"
         id="path8471-6-6-6-8-7-8-3-3-3-1-6-9-9"
         d="m 243.4957,496.3606 101.5812,0"
         style="fill:none;stroke:#dba981;stroke-width:1.20043182;stroke-linecap:round;stroke-linejoin:miter;stroke-miterlimit:4;stroke-opacity:1;stroke-dasharray:3.6012954, 1.2004318;stroke-dashoffset:0" />
      <g
         id="text6934-2-9-1-9-1-3-1"
         style="font-size:14.51159954px;font-style:normal;font-variant:normal;font-weight:normal;font-stretch:normal;text-align:start;line-height:125%;letter-spacing:0px;word-spacing:0px;writing-mode:lr-tb;text-anchor:start;fill:#000000;fill-opacity:1;stroke:none;font-family:Standard Symbols L;-inkscape-font-specification:Standard Symbols L">
        <path
           id="path14048"
           d="m 275.24888,286.05755 6.07957,0 0,1.20458 -4.64825,0 0,3.11773 4.19476,0 0,1.20457 -4.19476,0 0,5.05214 -1.43132,0 0,-10.57902"
           inkscape:connector-curvature="0" />
        <path
           id="path14050"
           d="m 287.10333,289.91928 c -0.14645,-0.085 -0.30706,-0.14643 -0.48183,-0.18423 -0.17007,-0.0425 -0.35902,-0.0638 -0.56686,-0.0638 -0.73692,1e-5 -1.30378,0.24092 -1.70058,0.72275 -0.39208,0.47711 -0.58812,1.16443 -0.58812,2.06195 l 0,4.18059 -1.31086,0 0,-7.93603 1.31086,0 0,1.23291 c 0.27398,-0.48182 0.63063,-0.83847 1.06995,-1.06994 0.43931,-0.23619 0.9731,-0.35428 1.60138,-0.35429 0.0897,1e-5 0.18894,0.007 0.2976,0.0213 0.10864,0.009 0.2291,0.026 0.36137,0.0496 l 0.007,1.3392"
           inkscape:connector-curvature="0" />
        <path
           id="path14052"
           d="m 291.24849,289.6146 c -0.69913,0 -1.25182,0.27398 -1.65807,0.82194 -0.40625,0.54325 -0.60937,1.28961 -0.60937,2.2391 0,0.94949 0.20076,1.69821 0.60229,2.24618 0.40624,0.54324 0.96129,0.81486 1.66515,0.81486 0.69439,0 1.24472,-0.27398 1.65097,-0.82195 0.40625,-0.54796 0.60937,-1.29432 0.60938,-2.23909 -1e-5,-0.94004 -0.20313,-1.68404 -0.60938,-2.23201 -0.40625,-0.55268 -0.95658,-0.82903 -1.65097,-0.82903 m 0,-1.10538 c 1.13371,10e-6 2.02415,0.36847 2.67132,1.10538 0.64716,0.73692 0.97074,1.75727 0.97075,3.06104 -10e-6,1.29905 -0.32359,2.3194 -0.97075,3.06104 -0.64717,0.73691 -1.53761,1.10537 -2.67132,1.10537 -1.13845,0 -2.03125,-0.36846 -2.67842,-1.10537 -0.64244,-0.74164 -0.96366,-1.76199 -0.96366,-3.06104 0,-1.30377 0.32122,-2.32412 0.96366,-3.06104 0.64717,-0.73691 1.53997,-1.10537 2.67842,-1.10538"
           inkscape:connector-curvature="0" />
        <path
           id="path14054"
           d="m 303.64145,291.8466 0,4.78997 -1.30378,0 0,-4.74745 c 0,-0.75108 -0.14644,-1.31322 -0.43931,-1.68641 -0.29289,-0.37317 -0.7322,-0.55976 -1.31795,-0.55977 -0.70386,10e-6 -1.25891,0.22439 -1.66515,0.67314 -0.40625,0.44877 -0.60938,1.06051 -0.60938,1.83521 l 0,4.48528 -1.31086,0 0,-7.93603 1.31086,0 0,1.23291 c 0.31177,-0.4771 0.67787,-0.83374 1.09829,-1.06994 0.42515,-0.23619 0.91406,-0.35428 1.46675,-0.35429 0.9117,10e-6 1.60137,0.28344 2.06904,0.85029 0.46765,0.56214 0.70148,1.39117 0.70149,2.48709"
           inkscape:connector-curvature="0" />
        <path
           id="path14056"
           d="m 307.54569,286.44727 0,2.25327 2.6855,0 0,1.01326 -2.6855,0 0,4.30813 c 0,0.64716 0.0874,1.06286 0.26217,1.24709 0.17951,0.18423 0.54088,0.27634 1.08412,0.27634 l 1.33921,0 0,1.09121 -1.33921,0 c -1.00618,0 -1.70058,-0.18659 -2.08321,-0.55978 -0.38263,-0.3779 -0.57394,-1.06286 -0.57394,-2.05486 l 0,-4.30813 -0.95658,0 0,-1.01326 0.95658,0 0,-2.25327 1.31086,0"
           inkscape:connector-curvature="0" />
      </g>
      <path
         style="fill:none;stroke:#000000;stroke-width:2.41860008;stroke-linecap:round;stroke-linejoin:round;stroke-miterlimit:4;stroke-opacity:1;stroke-dasharray:none;marker-start:url(#marker7359);marker-end:url(#marker7359)"
         d="M 357.9761,418.9654 323.3095,327.0586"
         id="path7494-1-6-3-5-81-64-9-2-0-5-1-2-65-8-0-7-3"
         inkscape:connector-curvature="0"
         sodipodi:nodetypes="cc" />
      <path
         inkscape:connector-curvature="0"
         id="path4050-8-0-5-3-4-0-7-3-0-68-5-1-2-86-9-4-2-0"
         d="m 349.1079,364.1438 c 0,5.6434 -5.6434,11.2868 -11.2868,11.2868 -6.4496,0 -11.2868,-5.6434 -11.2868,-11.2868 0,-6.4496 4.8372,-11.2868 11.2868,-11.2868 5.6434,0 10.4806,4.8372 11.2868,11.2868"
         style="color:#000000;fill:#ffffff;fill-opacity:1;stroke:#00000f;stroke-width:1.12255287;stroke-linecap:round;stroke-linejoin:miter;stroke-miterlimit:4;stroke-opacity:0.94120029;stroke-dashoffset:0;marker:none;visibility:visible;display:inline;overflow:visible;enable-background:accumulate" />
      <text
         xml:space="preserve"
         style="font-size:14.51159954px;font-style:normal;font-variant:normal;font-weight:normal;font-stretch:normal;text-align:start;line-height:125%;letter-spacing:0px;word-spacing:0px;writing-mode:lr-tb;text-anchor:start;fill:#000000;fill-opacity:1;stroke:none;font-family:Standard Symbols L;-inkscape-font-specification:Standard Symbols L"
         x="329.92679"
         y="369.02686"
         id="text8484-0-1-8-6-5-4"
         sodipodi:linespacing="125%"><tspan
           sodipodi:role="line"
           id="tspan8486-3-7-5-2-3-8"
           x="329.92679"
           y="369.02686">10</tspan></text>
      <path
         style="fill:none;stroke:#dba981;stroke-width:1.20043182;stroke-linecap:round;stroke-linejoin:miter;stroke-miterlimit:4;stroke-opacity:1;stroke-dasharray:3.6012954, 1.2004318;stroke-dashoffset:0"
         d="m 228.9841,416.5468 128.992,0"
         id="path3992-4-77-9-5-7-1-28-2-1-7-2-5"
         inkscape:connector-curvature="0"
         sodipodi:nodetypes="cc" />
    </g>
  </g>
</svg>
