<?xml version="1.0" encoding="UTF-8" standalone="no"?>
<!-- Created with Inkscape (http://www.inkscape.org/) -->

<svg
   xmlns:dc="http://purl.org/dc/elements/1.1/"
   xmlns:cc="http://creativecommons.org/ns#"
   xmlns:rdf="http://www.w3.org/1999/02/22-rdf-syntax-ns#"
   xmlns:svg="http://www.w3.org/2000/svg"
   xmlns="http://www.w3.org/2000/svg"
   xmlns:sodipodi="http://sodipodi.sourceforge.net/DTD/sodipodi-0.dtd"
   xmlns:inkscape="http://www.inkscape.org/namespaces/inkscape"
   width="153.547"
   height="318.37836"
   id="svg14522"
   version="1.1"
   inkscape:version="0.48.4 r9939"
   sodipodi:docname="Новий документ 178">
  <defs
     id="defs14524">
    <marker
       inkscape:stockid="Arrow2Mend"
       orient="auto"
       refY="0"
       refX="0"
       id="marker18919"
       style="overflow:visible">
      <path
         id="path18921"
         style="fill-rule:evenodd;stroke-width:0.625;stroke-linejoin:round"
         d="M 8.719,4.034 -2.207,0.016 8.719,-4.002 c -1.746,2.372 -1.736,5.618 0,8.036 z"
         transform="scale(-0.6,-0.6)"
         inkscape:connector-curvature="0" />
    </marker>
  </defs>
  <sodipodi:namedview
     id="base"
     pagecolor="#ffffff"
     bordercolor="#666666"
     borderopacity="1.0"
     inkscape:pageopacity="0.0"
     inkscape:pageshadow="2"
     inkscape:zoom="1.979899"
     inkscape:cx="194.57994"
     inkscape:cy="133.65234"
     inkscape:document-units="px"
     inkscape:current-layer="layer1"
     showgrid="false"
     fit-margin-top="0"
     fit-margin-left="0"
     fit-margin-right="0"
     fit-margin-bottom="0"
     inkscape:window-width="1855"
     inkscape:window-height="1056"
     inkscape:window-x="65"
     inkscape:window-y="24"
     inkscape:window-maximized="1" />
  <metadata
     id="metadata14527">
    <rdf:RDF>
      <cc:Work
         rdf:about="">
        <dc:format>image/svg+xml</dc:format>
        <dc:type
           rdf:resource="http://purl.org/dc/dcmitype/StillImage" />
        <dc:title></dc:title>
      </cc:Work>
    </rdf:RDF>
  </metadata>
  <g
     inkscape:label="Layer 1"
     inkscape:groupmode="layer"
     id="layer1"
     transform="translate(-126.11,-258.81734)">
    <g
       style="display:inline"
       id="g11608"
       transform="matrix(0.8062,0,0,0.8062,-43.965184,-2690.3426)">
      <path
         style="opacity:0.3;fill:none;stroke:#000000;stroke-width:2.68289995;stroke-linecap:butt;stroke-linejoin:miter;stroke-miterlimit:4;stroke-opacity:1;stroke-dasharray:5.3658, 2.6829;stroke-dashoffset:0;marker-start:none;marker-end:none"
         d="m 293,3823 c 5,-12 -58.2,-14 -56.9,1"
         id="path7494-1-6-3-5-7-8-5-0-0-4-2-2-9-2-5-8-3-2"
         inkscape:connector-curvature="0"
         sodipodi:nodetypes="cc" />
      <path
         sodipodi:nodetypes="ccccc"
         inkscape:connector-curvature="0"
         id="path8179"
         d="m 344.5,3940 c 3,-16 12,-36 20,-52 3,-8 9,-16 9,-24 2,-19 -8,-37 -11,-57 -4,-20 -6,-33 -11.5,-52"
         style="fill:none;stroke:#dba981;stroke-width:3.72099996;stroke-linecap:round;stroke-linejoin:round;stroke-miterlimit:4;stroke-opacity:1;stroke-dasharray:none" />
      <path
         id="path8160"
         d="m 351.1,3756 c -11.1,22 -44.4,45 -65.3,68"
         style="fill:none;stroke:#dba981;stroke-width:3.72099996;stroke-linecap:round;stroke-linejoin:round;stroke-miterlimit:4;stroke-opacity:1;stroke-dasharray:none"
         inkscape:connector-curvature="0"
         sodipodi:nodetypes="cc" />
      <path
         inkscape:connector-curvature="0"
         id="path8154"
         d="m 347.5,3680 c 17.2,-10 40,-10 52,-20"
         style="fill:none;stroke:#dba981;stroke-width:3.72099996;stroke-linecap:round;stroke-linejoin:round;stroke-miterlimit:4;stroke-opacity:1;stroke-dasharray:none" />
      <path
         style="fill:none;stroke:#dba981;stroke-width:1.48899996;stroke-linecap:round;stroke-linejoin:miter;stroke-miterlimit:4;stroke-opacity:1;stroke-dasharray:2.978, 1.489;stroke-dashoffset:0"
         d="m 353,3757 c 5,-19 3.5,-68 -0.5,-77"
         id="path3992-4-4-7-0-0-4-6-8-0-9"
         inkscape:connector-curvature="0"
         sodipodi:nodetypes="cc" />
      <path
         style="fill:none;stroke:#dba981;stroke-width:3.72099996;stroke-linecap:round;stroke-linejoin:round;stroke-miterlimit:4;stroke-opacity:1;stroke-dasharray:none"
         d="m 286.7,3825 c 0,0 6.2,7 15.2,21 9.8,16 37.3,80 37.3,80 0,0 5.1,15 8.9,22 l 4.5,9 c 0.7,1 2.9,5 2.9,5 l 6.8,7 3.7,14 c -0.1,4 0.3,4 0.8,9 0,0 -0.6,15 -2.5,16 -1.4,0 -4.1,-1 -4.1,-1 -2.1,-9 -1.8,-15 -3.1,-19 0.1,12 2.8,21 2.2,34 l -2.5,21 c -2.5,5 -5.1,8 -9.1,8 -4.8,2 -8.9,-7 -11.5,-12 -3.4,-4 -4.7,-6 -7.1,-10 -3.1,-8 -0.8,-17 -2.1,-26 -0.5,-4 -1.9,-7 -2.3,-11 -0.5,-6 -1.1,-12 0,-17 0.5,-3 2.5,-7 2.5,-7 1.5,-5 1.6,-5 0.6,-12 0,0 -17.7,-23 -26.8,-34 -7.7,-9 -13.9,-18 -20.2,-28 -6.9,-8 -15.7,-15 -21.6,-25 -8.4,-13 -18.3,-35 -18.5,-43 0,-5 17.5,-30 19.9,-34 12.9,-24 35.2,-64 59,-92 6.4,-7 18,-16 28.2,-19"
         id="path8189"
         inkscape:connector-curvature="0"
         sodipodi:nodetypes="cccccccccccccccccaaaccccccccc" />
      <path
         sodipodi:nodetypes="cc"
         inkscape:connector-curvature="0"
         id="path5925-1-0-5"
         d="m 348.8,3944 c -2.7,7 -18.2,14 -20.6,12"
         style="fill:none;stroke:#dba981;stroke-width:1.48899996;stroke-linecap:round;stroke-linejoin:miter;stroke-miterlimit:4;stroke-opacity:1;stroke-dasharray:2.978, 1.489;stroke-dashoffset:0" />
      <path
         style="fill:none;stroke:#000000;stroke-width:2.68300009;stroke-linecap:round;stroke-linejoin:miter;stroke-miterlimit:4;stroke-opacity:1;stroke-dasharray:none;marker-start:url(#marker7359);marker-end:url(#marker7359)"
         d="m 321.9,3672 c -2.8,1 -16.1,9 -22.5,16 -36.7,38 -70.8,94 -87.1,133 -0.9,29 69.2,120 87.1,135"
         id="path7494-1-6-3-5-7-8-5-0-3-8-3-84-9-5-9-3-4"
         inkscape:connector-curvature="0"
         sodipodi:nodetypes="cacc" />
      <path
         style="fill:none;stroke:#000000;stroke-width:2.68300009;stroke-linecap:round;stroke-linejoin:miter;stroke-miterlimit:4;stroke-opacity:1;stroke-dasharray:none;marker-start:url(#marker7359);marker-end:url(#marker7359)"
         d="m 352.8,3673 c -2.8,1 -17.6,8 -24.6,15 -39.8,37 -76.9,95 -93.2,134"
         id="path7494-1-6-3-5-7-8-5-0-3-8-3-84-9-5-9-3-4-3"
         inkscape:connector-curvature="0"
         sodipodi:nodetypes="cac" />
      <path
         sodipodi:type="arc"
         style="color:#000000;fill:#ffffff;fill-opacity:1;stroke:#00000f;stroke-width:3;stroke-linecap:round;stroke-linejoin:miter;stroke-miterlimit:4;stroke-opacity:0.94120029;stroke-dasharray:none;stroke-dashoffset:0;marker:none;visibility:visible;display:inline;overflow:visible;enable-background:accumulate"
         id="path4050-8-0-9-9-5-9-1-2-36-7-2-2-7-7-39-0-1-4-6"
         sodipodi:cx="57.75"
         sodipodi:cy="50.32"
         sodipodi:rx="20"
         sodipodi:ry="20"
         d="m 77.75,50.32 c 0,11.045695 -8.954305,20 -20,20 -11.045695,0 -20,-8.954305 -20,-20 0,-11.045695 8.954305,-20 20,-20 11.005217,0 19.942666,8.891225 19.999731,19.896294"
         sodipodi:start="0"
         sodipodi:end="6.278"
         sodipodi:open="true"
         transform="matrix(0.8943,0,0,0.8943,223.6,3731)" />
      <text
         sodipodi:linespacing="125%"
         id="text17170-5-5"
         y="3783.0623"
         x="270.51904"
         style="font-size:18px;font-style:normal;font-variant:normal;font-weight:normal;font-stretch:normal;text-align:start;line-height:125%;letter-spacing:0px;word-spacing:0px;writing-mode:lr-tb;text-anchor:start;fill:#000000;fill-opacity:1;stroke:none;font-family:Standard Symbols L;-inkscape-font-specification:Standard Symbols L"
         xml:space="preserve"><tspan
           y="3783.0623"
           x="270.51904"
           id="tspan17172-5-8"
           sodipodi:role="line">2</tspan></text>
      <path
         sodipodi:type="arc"
         style="color:#000000;fill:#ffffff;fill-opacity:1;stroke:#00000f;stroke-width:3;stroke-linecap:round;stroke-linejoin:miter;stroke-miterlimit:4;stroke-opacity:0.94120029;stroke-dasharray:none;stroke-dashoffset:0;marker:none;visibility:visible;display:inline;overflow:visible;enable-background:accumulate"
         id="path4050-8-0-9-9-5-9-1-2-36-7-2-2-7-7-39-0-1-4"
         sodipodi:cx="57.75"
         sodipodi:cy="50.32"
         sodipodi:rx="20"
         sodipodi:ry="20"
         d="m 77.75,50.32 c 0,11.045695 -8.954305,20 -20,20 -11.045695,0 -20,-8.954305 -20,-20 0,-11.045695 8.954305,-20 20,-20 11.005217,0 19.942666,8.891225 19.999731,19.896294"
         sodipodi:start="0"
         sodipodi:end="6.278"
         sodipodi:open="true"
         transform="matrix(0.8943,0,0,0.8943,221,3674)" />
      <text
         sodipodi:linespacing="125%"
         id="text17170-5"
         y="3724.3787"
         x="267.9563"
         style="font-size:18px;font-style:normal;font-variant:normal;font-weight:normal;font-stretch:normal;text-align:start;line-height:125%;letter-spacing:0px;word-spacing:0px;writing-mode:lr-tb;text-anchor:start;fill:#000000;fill-opacity:1;stroke:none;font-family:Standard Symbols L;-inkscape-font-specification:Standard Symbols L"
         xml:space="preserve"><tspan
           y="3724.3787"
           x="267.9563"
           id="tspan17172-5"
           sodipodi:role="line">1</tspan></text>
      <path
         style="fill:none;stroke:#000000;stroke-width:2.68289995;stroke-linecap:round;stroke-linejoin:miter;stroke-miterlimit:4;stroke-opacity:1;stroke-dasharray:none;marker-start:none;marker-end:none"
         d="m 292.7,3824 c -2.7,14 -58.9,7 -56.6,-2"
         id="path7494-1-6-3-5-7-8-5-0-0-4-2-2-9-8-6-2-6"
         inkscape:connector-curvature="0"
         sodipodi:nodetypes="cc" />
      <path
         transform="matrix(-0.8943,0,0,0.8943,375.4,3747)"
         sodipodi:open="true"
         sodipodi:end="6.278"
         sodipodi:start="0"
         d="m 77.75,50.32 c 0,11.045695 -8.954305,20 -20,20 -11.045695,0 -20,-8.954305 -20,-20 0,-11.045695 8.954305,-20 20,-20 11.005217,0 19.942666,8.891225 19.999731,19.896294"
         sodipodi:ry="20"
         sodipodi:rx="20"
         sodipodi:cy="50.32"
         sodipodi:cx="57.75"
         id="path4050-8-0-9-9-5-9-7-8-1-4-6-2-9-1-6-5"
         style="color:#000000;fill:#ffffff;fill-opacity:1;stroke:#00000f;stroke-width:3;stroke-linecap:round;stroke-linejoin:miter;stroke-miterlimit:4;stroke-opacity:0.94120029;stroke-dasharray:none;stroke-dashoffset:0;marker:none;visibility:visible;display:inline;overflow:visible;enable-background:accumulate"
         sodipodi:type="arc" />
      <text
         sodipodi:linespacing="125%"
         id="text17186-7-3-9"
         y="3798.834"
         x="319.35529"
         style="font-size:18px;font-style:normal;font-variant:normal;font-weight:normal;font-stretch:normal;text-align:start;line-height:125%;letter-spacing:0px;word-spacing:0px;writing-mode:lr-tb;text-anchor:start;fill:#000000;fill-opacity:1;stroke:none;font-family:Standard Symbols L;-inkscape-font-specification:Standard Symbols L"
         xml:space="preserve"><tspan
           y="3798.834"
           x="319.35529"
           id="tspan17188-3-1-3"
           sodipodi:role="line">4</tspan></text>
      <path
         sodipodi:nodetypes="cc"
         inkscape:connector-curvature="0"
         id="path6015"
         d="m 324.3,3811 c -1.3,5 -13.7,16 -27.4,15"
         style="fill:none;stroke:#000000;stroke-width:1px;stroke-linecap:butt;stroke-linejoin:miter;stroke-opacity:1;marker-end:url(#marker18919)" />
      <path
         sodipodi:nodetypes="cc"
         inkscape:connector-curvature="0"
         id="path7494-1-6-3-5-7-8-5-0-3-8-3-84-9-5-9-3-4-3-8"
         d="m 233,3826 c 21.7,48 62.1,100 89.4,129"
         style="fill:none;stroke:#7dc832;stroke-width:2.68300009;stroke-linecap:round;stroke-linejoin:miter;stroke-miterlimit:4;stroke-opacity:1;stroke-dasharray:none;marker-start:url(#marker7359);marker-end:url(#marker7359);display:inline" />
      <path
         transform="matrix(0.8943,0,0,0.8943,220.9,3826)"
         sodipodi:open="true"
         sodipodi:end="6.278"
         sodipodi:start="0"
         d="m 77.75,50.32 c 0,11.045695 -8.954305,20 -20,20 -11.045695,0 -20,-8.954305 -20,-20 0,-11.045695 8.954305,-20 20,-20 11.005217,0 19.942666,8.891225 19.999731,19.896294"
         sodipodi:ry="20"
         sodipodi:rx="20"
         sodipodi:cy="50.32"
         sodipodi:cx="57.75"
         id="path4050-8-0-9-9-5-9-1-2-36-7-2-2-7-7-39-0-1-4-6-9"
         style="color:#000000;fill:#ffffff;fill-opacity:1;stroke:#00000f;stroke-width:3;stroke-linecap:round;stroke-linejoin:miter;stroke-miterlimit:4;stroke-opacity:0.94120029;stroke-dasharray:none;stroke-dashoffset:0;marker:none;visibility:visible;display:inline;overflow:visible;enable-background:accumulate"
         sodipodi:type="arc" />
      <text
         xml:space="preserve"
         style="font-size:18px;font-style:normal;font-variant:normal;font-weight:normal;font-stretch:normal;text-align:start;line-height:125%;letter-spacing:0px;word-spacing:0px;writing-mode:lr-tb;text-anchor:start;fill:#000000;fill-opacity:1;stroke:none;display:inline;font-family:Standard Symbols L;-inkscape-font-specification:Standard Symbols L"
         x="267.96149"
         y="3876.7683"
         id="text17170-5-5-0"
         sodipodi:linespacing="125%"><tspan
           sodipodi:role="line"
           id="tspan17172-5-8-4"
           x="267.96149"
           y="3876.7683">3</tspan></text>
    </g>
  </g>
</svg>
