<?xml version="1.0" encoding="UTF-8" standalone="no"?>
<!-- Created with Inkscape (http://www.inkscape.org/) -->

<svg
   xmlns:dc="http://purl.org/dc/elements/1.1/"
   xmlns:cc="http://creativecommons.org/ns#"
   xmlns:rdf="http://www.w3.org/1999/02/22-rdf-syntax-ns#"
   xmlns:svg="http://www.w3.org/2000/svg"
   xmlns="http://www.w3.org/2000/svg"
   xmlns:sodipodi="http://sodipodi.sourceforge.net/DTD/sodipodi-0.dtd"
   xmlns:inkscape="http://www.inkscape.org/namespaces/inkscape"
   width="95.354279"
   height="333.93216"
   id="svg15361"
   version="1.1"
   inkscape:version="0.48.4 r9939"
   sodipodi:docname="Новий документ 206">
  <defs
     id="defs15363" />
  <sodipodi:namedview
     id="base"
     pagecolor="#ffffff"
     bordercolor="#666666"
     borderopacity="1.0"
     inkscape:pageopacity="0.0"
     inkscape:pageshadow="2"
     inkscape:zoom="0.7"
     inkscape:cx="86.50267"
     inkscape:cy="67.183308"
     inkscape:document-units="px"
     inkscape:current-layer="layer1"
     showgrid="false"
     fit-margin-top="0"
     fit-margin-left="0"
     fit-margin-right="0"
     fit-margin-bottom="0"
     inkscape:window-width="1855"
     inkscape:window-height="1056"
     inkscape:window-x="65"
     inkscape:window-y="24"
     inkscape:window-maximized="1" />
  <metadata
     id="metadata15366">
    <rdf:RDF>
      <cc:Work
         rdf:about="">
        <dc:format>image/svg+xml</dc:format>
        <dc:type
           rdf:resource="http://purl.org/dc/dcmitype/StillImage" />
        <dc:title></dc:title>
      </cc:Work>
    </rdf:RDF>
  </metadata>
  <g
     inkscape:label="Layer 1"
     inkscape:groupmode="layer"
     id="layer1"
     transform="translate(-198.04165,-185.36649)">
    <g
       style="display:inline"
       id="g11087"
       transform="translate(-1613.0946,-4973.523)">
      <path
         style="fill:none;stroke:#dba981;stroke-width:2.9999001;stroke-linecap:round;stroke-linejoin:round;stroke-miterlimit:4;stroke-opacity:1;stroke-dasharray:none"
         d="m 1858,5424 c -1,-16 1,-28 5,-44 2,-13 7,-21 14,-34 2,-7 7,-13 7,-20 1,-15 -7,-30 -9,-46 -3,-16 -5,-26 -10,-42"
         id="path11213"
         inkscape:connector-curvature="0" />
      <path
         style="fill:none;stroke:#dba981;stroke-width:1.20039999;stroke-linecap:round;stroke-linejoin:miter;stroke-miterlimit:4;stroke-opacity:1;stroke-dasharray:3.6013, 1.2004;stroke-dashoffset:0"
         d="m 1867,5240 c 4,-15 3,-55 0,-62"
         id="path3992-4-4-7-0-0-4-6-8-0-0-2-8-0"
         inkscape:connector-curvature="0"
         sodipodi:nodetypes="cc" />
      <path
         style="fill:none;stroke:#dba981;stroke-width:2.9999001;stroke-linecap:round;stroke-linejoin:round;stroke-miterlimit:4;stroke-opacity:1;stroke-dasharray:none"
         d="m 1864,5239 c 0,20 -6,44 -13,68 0,0 1,8 2,21 0,15 -7,70 -7,70 0,0 -2,12 0,16 1,1 2,5 2,5 l 6,5 4,9 c 2,5 8,8 15,11 0,0 0,2 0,3 -2,2 -13,-1 -13,-1 -5,-1 -4,-1 -6,-2 1,8 2,11 3,22 l 0,18 c -1,3 -3,6 -6,7 -4,2 -8,-5 -11,-9 -3,-3 -4,-4 -6,-7 -4,-7 -5,-20 -5,-20 l -3,-10 -1,-13 0,-8 c 2,-7 0,-7 1,-9 0,0 -3,-24 -5,-35 -2,-9 -2,-18 -3,-27 -1,-9 -4,-17 -4,-27 0,-6 7,-27 8,-35 1,-21 4,-59 12,-87 2,-7 7,-15 13,-20 5,-3 11,-4 16,-6 14,-5 32,-8 42,-16"
         id="path11209"
         inkscape:connector-curvature="0"
         sodipodi:nodetypes="cccccccccccccccccccccccccccaac" />
      <path
         sodipodi:nodetypes="cc"
         inkscape:connector-curvature="0"
         id="path5925-1-0-54-7-6-9"
         d="m 1845,5415 c -5,4 -19,2 -19,0"
         style="fill:none;stroke:#dba981;stroke-width:1.20039999;stroke-linecap:round;stroke-linejoin:miter;stroke-miterlimit:4;stroke-opacity:1;stroke-dasharray:3.6013, 1.2004;stroke-dashoffset:0" />
      <path
         style="fill:none;stroke:#7dc832;stroke-width:2.16300011;stroke-linecap:round;stroke-linejoin:miter;stroke-miterlimit:4;stroke-opacity:1;stroke-dasharray:none;marker-start:url(#marker7359);marker-end:url(#marker7359)"
         d="m 1903,5160 c -4,5 -50,12 -63,26 -18,20 -18,69 -24,111"
         id="path7494-1-6-3-5-7-8-5-0-3-8-3-84-9-5-9-3-5-3-4-4"
         inkscape:connector-curvature="0"
         sodipodi:nodetypes="csc" />
      <path
         transform="matrix(0.721,0,0,0.7458,1785,5174)"
         sodipodi:open="true"
         sodipodi:end="6.278"
         sodipodi:start="0"
         d="m 77.75,50.32 c 0,11.045695 -8.954305,20 -20,20 -11.045695,0 -20,-8.954305 -20,-20 0,-11.045695 8.954305,-20 20,-20 11.005217,0 19.942666,8.891225 19.999731,19.896294"
         sodipodi:ry="20"
         sodipodi:rx="20"
         sodipodi:cy="50.32"
         sodipodi:cx="57.75"
         id="path4050-8-0-9-9-5-9-1-2-36-3-2-3-3"
         style="color:#000000;fill:#ffffff;fill-opacity:1;stroke:#00000f;stroke-width:3;stroke-linecap:butt;stroke-linejoin:miter;stroke-miterlimit:4;stroke-opacity:0.94120029;stroke-dasharray:none;stroke-dashoffset:0;marker:none;visibility:visible;display:inline;overflow:visible;enable-background:accumulate"
         sodipodi:type="arc" />
      <text
         xml:space="preserve"
         style="font-size:14.51159954px;font-style:normal;font-variant:normal;font-weight:normal;font-stretch:normal;text-align:start;line-height:125%;letter-spacing:0px;word-spacing:0px;writing-mode:lr-tb;text-anchor:start;fill:#000000;fill-opacity:1;stroke:none;display:inline;font-family:Standard Symbols L;-inkscape-font-specification:Standard Symbols L"
         x="1819.5542"
         y="5216.5151"
         id="text13974-2"
         sodipodi:linespacing="125%"><tspan
           sodipodi:role="line"
           id="tspan13976-9"
           x="1819.5542"
           y="5216.5151">22</tspan></text>
    </g>
  </g>
</svg>
