<?xml version="1.0" encoding="UTF-8" standalone="no"?>
<!-- Created with Inkscape (http://www.inkscape.org/) -->

<svg
   xmlns:dc="http://purl.org/dc/elements/1.1/"
   xmlns:cc="http://creativecommons.org/ns#"
   xmlns:rdf="http://www.w3.org/1999/02/22-rdf-syntax-ns#"
   xmlns:svg="http://www.w3.org/2000/svg"
   xmlns="http://www.w3.org/2000/svg"
   xmlns:sodipodi="http://sodipodi.sourceforge.net/DTD/sodipodi-0.dtd"
   xmlns:inkscape="http://www.inkscape.org/namespaces/inkscape"
   width="140.6544"
   height="321.49268"
   id="svg14634"
   version="1.1"
   inkscape:version="0.48.4 r9939"
   sodipodi:docname="Новий документ 181">
  <defs
     id="defs14636" />
  <sodipodi:namedview
     id="base"
     pagecolor="#ffffff"
     bordercolor="#666666"
     borderopacity="1.0"
     inkscape:pageopacity="0.0"
     inkscape:pageshadow="2"
     inkscape:zoom="0.7"
     inkscape:cx="142.24762"
     inkscape:cy="104.81734"
     inkscape:document-units="px"
     inkscape:current-layer="layer1"
     showgrid="false"
     fit-margin-top="0"
     fit-margin-left="0"
     fit-margin-right="0"
     fit-margin-bottom="0"
     inkscape:window-width="1855"
     inkscape:window-height="1056"
     inkscape:window-x="65"
     inkscape:window-y="24"
     inkscape:window-maximized="1" />
  <metadata
     id="metadata14639">
    <rdf:RDF>
      <cc:Work
         rdf:about="">
        <dc:format>image/svg+xml</dc:format>
        <dc:type
           rdf:resource="http://purl.org/dc/dcmitype/StillImage" />
        <dc:title></dc:title>
      </cc:Work>
    </rdf:RDF>
  </metadata>
  <g
     inkscape:label="Layer 1"
     inkscape:groupmode="layer"
     id="layer1"
     transform="translate(-189.69239,-257.28894)">
    <g
       style="display:inline"
       id="g8336"
       transform="matrix(0.8062,0,0,0.8062,-172.25179,-2691.871)">
      <path
         style="fill:none;stroke:#dba981;stroke-width:3.72099996;stroke-linecap:round;stroke-linejoin:round;stroke-miterlimit:4;stroke-opacity:1;stroke-dasharray:none"
         d="m 563.9,3985 c -1,-20 0.6,-34 5.6,-54 3,-16 9,-27 17,-43 3,-8 9,-16 9,-24 2,-19 -8,-37 -11,-57 -4,-20 -6,-33 -11.5,-52 -6.5,24 -20.5,51 -36.5,78 0,0 -1,10 -4,26 -4,18 -29,83 -29,83 0,0 -5,13 -3.5,19 0.5,1 0.5,6 0.5,6 l 6,8 2,13 c 1,6 7,11 14,17 0,0 0,3 -1,4 -2,1 -15,-5 -15,-5 -5,-3 -4,-3 -6,-4 -1,9 -1,14 -3,27 l -5,21 c -3,4 -6,7 -10,7 -5,1 -8,-8 -10,-14 -3,-4 -4,-6 -6,-10 -2,-9 1,-26 1,-26 l -1,-12 2,-17 2,-9 c 5,-8 3,-8 5,-11 0,0 2,-29 3,-43 1,-12 3,-23 5,-34 1,-11 0,-22 2,-33 2,-8 17,-31 20,-40 8,-26 22,-70 40,-102 5,-8 15,-18 24,-24 17.6,-9 40,-10 52,-20"
         id="path8665"
         inkscape:connector-curvature="0" />
      <path
         style="fill:none;stroke:#dba981;stroke-width:1.48899996;stroke-linecap:round;stroke-linejoin:miter;stroke-miterlimit:4;stroke-opacity:1;stroke-dasharray:2.978, 1.489;stroke-dashoffset:0"
         d="m 575.1,3757 c 5,-19 3.5,-68 -0.5,-77"
         id="path3992-4-4-7-0-0-4-6-8-0-0"
         inkscape:connector-curvature="0"
         sodipodi:nodetypes="cc" />
      <path
         sodipodi:nodetypes="cc"
         inkscape:connector-curvature="0"
         id="path5925-1-0-54"
         d="m 497.6,3962 c -6.8,3 -22.6,-3 -23,-6"
         style="fill:none;stroke:#dba981;stroke-width:1.48899996;stroke-linecap:round;stroke-linejoin:miter;stroke-miterlimit:4;stroke-opacity:1;stroke-dasharray:2.978, 1.489;stroke-dashoffset:0" />
      <path
         style="fill:none;stroke:#000000;stroke-width:2.68300009;stroke-linecap:round;stroke-linejoin:miter;stroke-miterlimit:4;stroke-opacity:1;stroke-dasharray:none;marker-start:url(#marker7359);marker-end:url(#marker7359)"
         d="m 551.8,3671 c -2.8,1 -14,8 -18.9,14 -35.2,45 -55.7,107 -68.4,158 -9.1,37 -8,72 -14.2,110"
         id="path7494-1-6-3-5-7-8-5-0-3-8-3-84-9-5-9-3-5"
         inkscape:connector-curvature="0"
         sodipodi:nodetypes="cacc" />
      <path
         sodipodi:type="arc"
         style="color:#000000;fill:#ffffff;fill-opacity:1;stroke:#00000f;stroke-width:3;stroke-linecap:round;stroke-linejoin:miter;stroke-miterlimit:4;stroke-opacity:0.94120029;stroke-dasharray:none;stroke-dashoffset:0;marker:none;visibility:visible;display:inline;overflow:visible;enable-background:accumulate"
         id="path4050-8-0-9-9-5-9-1-2-36-7-2-2-7-7-39-0-1-1"
         sodipodi:cx="57.75"
         sodipodi:cy="50.32"
         sodipodi:rx="20"
         sodipodi:ry="20"
         d="m 77.75,50.32 c 0,11.045695 -8.954305,20 -20,20 -11.045695,0 -20,-8.954305 -20,-20 0,-11.045695 8.954305,-20 20,-20 11.005217,0 19.942666,8.891225 19.999731,19.896294"
         sodipodi:start="0"
         sodipodi:end="6.278"
         sodipodi:open="true"
         transform="matrix(0.8943,0,0,0.8943,416.6,3749)" />
      <text
         sodipodi:linespacing="125%"
         id="text17170-9"
         y="3800.9031"
         x="463.63086"
         style="font-size:18px;font-style:normal;font-variant:normal;font-weight:normal;font-stretch:normal;text-align:start;line-height:125%;letter-spacing:0px;word-spacing:0px;writing-mode:lr-tb;text-anchor:start;fill:#000000;fill-opacity:1;stroke:none;font-family:Standard Symbols L;-inkscape-font-specification:Standard Symbols L"
         xml:space="preserve"><tspan
           y="3800.9031"
           x="463.63086"
           id="tspan17172-58"
           sodipodi:role="line">5</tspan></text>
      <path
         style="fill:none;stroke:#000000;stroke-width:2.68289995;stroke-linecap:round;stroke-linejoin:miter;stroke-miterlimit:4;stroke-opacity:1;stroke-dasharray:none;marker-start:none;marker-end:none"
         d="m 571.6,3677 c -40.9,12 -70.2,108 -75.9,124"
         id="path7494-1-6-3-5-7-8-5-0-0-0-3-1-8-2"
         inkscape:connector-curvature="0"
         sodipodi:nodetypes="cc" />
      <path
         transform="matrix(-0.8943,0,0,0.8943,573.4,3710)"
         sodipodi:open="true"
         sodipodi:end="6.278"
         sodipodi:start="0"
         d="m 77.75,50.32 c 0,11.045695 -8.954305,20 -20,20 -11.045695,0 -20,-8.954305 -20,-20 0,-11.045695 8.954305,-20 20,-20 11.005217,0 19.942666,8.891225 19.999731,19.896294"
         sodipodi:ry="20"
         sodipodi:rx="20"
         sodipodi:cy="50.32"
         sodipodi:cx="57.75"
         id="path4050-8-0-9-9-5-9-7-8-9-5-5-9-1"
         style="color:#000000;fill:#ffffff;fill-opacity:1;stroke:#00000f;stroke-width:3;stroke-linecap:round;stroke-linejoin:miter;stroke-miterlimit:4;stroke-opacity:0.94120029;stroke-dasharray:none;stroke-dashoffset:0;marker:none;visibility:visible;display:inline;overflow:visible;enable-background:accumulate"
         sodipodi:type="arc" />
      <text
         sodipodi:linespacing="125%"
         id="text17174-9-0"
         y="3761.2947"
         x="517.11591"
         style="font-size:18px;font-style:normal;font-variant:normal;font-weight:normal;font-stretch:normal;text-align:start;line-height:125%;letter-spacing:0px;word-spacing:0px;writing-mode:lr-tb;text-anchor:start;fill:#000000;fill-opacity:1;stroke:none;font-family:Standard Symbols L;-inkscape-font-specification:Standard Symbols L"
         xml:space="preserve"><tspan
           y="3761.2947"
           x="517.11591"
           id="tspan17176-6-8"
           sodipodi:role="line">6</tspan></text>
      <path
         sodipodi:nodetypes="cc"
         inkscape:connector-curvature="0"
         id="path7494-1-6-3-5-7-8-5-0-0-0-3-1-8-2-2"
         d="m 494.8,3807 c -29,73 -24.5,122 -29.5,148"
         style="fill:none;stroke:#7dc832;stroke-width:2.68289995;stroke-linecap:round;stroke-linejoin:miter;stroke-miterlimit:4;stroke-opacity:1;stroke-dasharray:none;marker-start:none;marker-end:none;display:inline" />
      <path
         sodipodi:type="arc"
         style="color:#000000;fill:#ffffff;fill-opacity:1;stroke:#00000f;stroke-width:3;stroke-linecap:round;stroke-linejoin:miter;stroke-miterlimit:4;stroke-opacity:0.94120029;stroke-dasharray:none;stroke-dashoffset:0;marker:none;visibility:visible;display:inline;overflow:visible;enable-background:accumulate"
         id="path4050-8-0-9-9-5-9-7-8-9-5-5-9-1-9"
         sodipodi:cx="57.75"
         sodipodi:cy="50.32"
         sodipodi:rx="20"
         sodipodi:ry="20"
         d="m 77.75,50.32 c 0,11.045695 -8.954305,20 -20,20 -11.045695,0 -20,-8.954305 -20,-20 0,-11.045695 8.954305,-20 20,-20 11.005217,0 19.942666,8.891225 19.999731,19.896294"
         sodipodi:start="0"
         sodipodi:end="6.278"
         sodipodi:open="true"
         transform="matrix(-0.8943,0,0,0.8943,533,3831)" />
      <text
         xml:space="preserve"
         style="font-size:18px;font-style:normal;font-variant:normal;font-weight:normal;font-stretch:normal;text-align:start;line-height:125%;letter-spacing:0px;word-spacing:0px;writing-mode:lr-tb;text-anchor:start;fill:#000000;fill-opacity:1;stroke:none;display:inline;font-family:Standard Symbols L;-inkscape-font-specification:Standard Symbols L"
         x="476.68234"
         y="3881.8511"
         id="text17174-9-0-9"
         sodipodi:linespacing="125%"><tspan
           sodipodi:role="line"
           id="tspan17176-6-8-1"
           x="476.68234"
           y="3881.8511">7</tspan></text>
    </g>
  </g>
</svg>
