<?xml version="1.0" encoding="UTF-8" standalone="no"?>
<!-- Created with Inkscape (http://www.inkscape.org/) -->

<svg
   xmlns:dc="http://purl.org/dc/elements/1.1/"
   xmlns:cc="http://creativecommons.org/ns#"
   xmlns:rdf="http://www.w3.org/1999/02/22-rdf-syntax-ns#"
   xmlns:svg="http://www.w3.org/2000/svg"
   xmlns="http://www.w3.org/2000/svg"
   xmlns:sodipodi="http://sodipodi.sourceforge.net/DTD/sodipodi-0.dtd"
   xmlns:inkscape="http://www.inkscape.org/namespaces/inkscape"
   width="193.22867"
   height="480.07437"
   id="svg15434"
   version="1.1"
   inkscape:version="0.48.4 r9939"
   sodipodi:docname="Новий документ 209">
  <defs
     id="defs15436" />
  <sodipodi:namedview
     id="base"
     pagecolor="#ffffff"
     bordercolor="#666666"
     borderopacity="1.0"
     inkscape:pageopacity="0.0"
     inkscape:pageshadow="2"
     inkscape:zoom="0.98994949"
     inkscape:cx="173.8683"
     inkscape:cy="139.7629"
     inkscape:document-units="px"
     inkscape:current-layer="layer1"
     showgrid="false"
     fit-margin-top="0"
     fit-margin-left="0"
     fit-margin-right="0"
     fit-margin-bottom="0"
     inkscape:window-width="1855"
     inkscape:window-height="1056"
     inkscape:window-x="65"
     inkscape:window-y="24"
     inkscape:window-maximized="1" />
  <metadata
     id="metadata15439">
    <rdf:RDF>
      <cc:Work
         rdf:about="">
        <dc:format>image/svg+xml</dc:format>
        <dc:type
           rdf:resource="http://purl.org/dc/dcmitype/StillImage" />
        <dc:title></dc:title>
      </cc:Work>
    </rdf:RDF>
  </metadata>
  <g
     inkscape:label="Layer 1"
     inkscape:groupmode="layer"
     id="layer1"
     transform="translate(-166.24999,-29.447626)">
    <g
       transform="translate(28.437493,-5562.3196)"
       style="display:inline"
       id="g9774">
      <path
         sodipodi:nodetypes="cc"
         inkscape:connector-curvature="0"
         id="path8471-6-6-72-2-3"
         d="m 172.3,5595 100,0"
         style="fill:none;stroke:#dba981;stroke-width:1.61240005;stroke-linecap:round;stroke-linejoin:miter;stroke-miterlimit:4;stroke-opacity:1;stroke-dasharray:4.8372, 1.6124;stroke-dashoffset:0" />
      <text
         sodipodi:linespacing="125%"
         id="text17951"
         y="5862.6304"
         x="219.21802"
         style="font-size:14.51159954px;font-style:normal;font-variant:normal;font-weight:normal;font-stretch:normal;text-align:start;line-height:125%;letter-spacing:0px;word-spacing:0px;writing-mode:lr-tb;text-anchor:start;fill:#000000;fill-opacity:1;stroke:none;font-family:Standard Symbols L;-inkscape-font-specification:Standard Symbols L"
         xml:space="preserve"><tspan
           y="5862.6304"
           x="219.21802"
           id="tspan17953"
           sodipodi:role="line">1</tspan></text>
      <path
         style="fill:none;stroke:#dba981;stroke-width:2.9999001;stroke-linecap:round;stroke-linejoin:miter;stroke-miterlimit:4;stroke-opacity:1;stroke-dasharray:none"
         d="m 272.3,5594 c 0.8,8 4.8,13 8,19 5.7,14 13.7,26 17,40 4,16 5.6,32 4.8,48 -0.8,19 -5.6,39 -8.1,57 -4,20 -8,40 -11.2,61 -1.7,9 -4.9,20 -4.9,30 0.8,7 4.1,13 4.9,20 1.6,13 2.4,27 1.6,40 -0.8,12 -3.3,23 -4.1,35 -1.6,12 -2.4,25 -2.4,37 0.8,5 2.4,17 2.4,17 l 2.5,19 c 4,15 13.7,31 4.8,40 -8.1,10 -11.3,19 -25,9 -4,-5 -5.6,-14 -8.1,-22 -1.6,-8 -1.6,-29 -4.8,-38 l -0.8,-12 c 0,0 0,-19 0,-28 -2.4,-18 -9.7,-34 -11.3,-51 -2.4,-15 0.8,-30 0,-45 -0.8,-8 -2.4,-16 -2.4,-23 -2.4,-27 -1.6,-53 -4.8,-80 -2.5,-15 -8.1,-48 -8.1,-48 0,0 -4.8,30 -7.3,46 -3.2,27 -6.4,54 -8,81 -0.8,8 -2.4,15 -3.2,23 -0.9,16 2.4,30 0,45 -1.7,17 -8.9,34 -10.5,52 -0.8,9 -0.8,27 -0.8,27 l -0.8,12 c -3.3,10 -4.1,33 -4.1,39 -3.2,8 -4,17 -8,21 -17.8,10 -17.8,1 -25.8,-8 -8.1,-9 0.8,-25 4.8,-40 l 2.4,-19 c 0,0 1.6,-12 2.4,-18 0,-12 -0.8,-24 -2.4,-37 -0.8,-12 -3.2,-23 -4,-34 -0.8,-14 0,-28 1.6,-40 1.6,-7 4,-13 4.8,-21 0,-10 -3.2,-20 -4.8,-30 -3.2,-20 -7.3,-40 -11.3,-60 -2.4,-19 -7.2,-38 -8,-57 0,-16 0.8,-33 4.8,-48 3.2,-14 11.3,-27 16.9,-40 3.2,-6 7.3,-12 8.1,-19"
         id="path8426-8-4-0-4-0"
         inkscape:connector-curvature="0" />
      <path
         style="fill:none;stroke:#000000;stroke-width:2.41860008;stroke-linecap:round;stroke-linejoin:miter;stroke-miterlimit:4;stroke-opacity:1;stroke-dasharray:none;marker-start:url(#marker7359);marker-end:url(#marker7359)"
         d="m 322.3,6058 c 0.8,-21 -4.1,-271 -2.5,-370 0.9,-53 -24.9,-82 -31.4,-95"
         id="path7494-1-6-3-5-8-3-1-5-5-6-1"
         inkscape:connector-curvature="0"
         sodipodi:nodetypes="csc" />
      <path
         sodipodi:type="arc"
         style="color:#000000;fill:#ffffff;fill-opacity:1;stroke:#00000f;stroke-width:3;stroke-linecap:round;stroke-linejoin:miter;stroke-miterlimit:4;stroke-opacity:0.94120029;stroke-dasharray:none;stroke-dashoffset:0;marker:none;visibility:visible;display:inline;overflow:visible;enable-background:accumulate"
         id="path4050-8-0-9-9-5-9-1-5-2-4-5"
         sodipodi:cx="57.75"
         sodipodi:cy="50.32"
         sodipodi:rx="20"
         sodipodi:ry="20"
         d="m 77.75,50.32 c 0,11.045695 -8.954305,20 -20,20 -11.045695,0 -20,-8.954305 -20,-20 0,-11.045695 8.954305,-20 20,-20 11.005217,0 19.942666,8.891225 19.999731,19.896294"
         sodipodi:start="0"
         sodipodi:end="6.278"
         sodipodi:open="true"
         transform="matrix(0.721,0,0,0.721,273.9,5758)" />
      <path
         style="fill:none;stroke:#000000;stroke-width:2.41860008;stroke-linecap:round;stroke-linejoin:miter;stroke-miterlimit:4;stroke-opacity:1;stroke-dasharray:none;marker-start:url(#marker7359);marker-end:url(#marker7359)"
         d="m 226.3,6059 -4,-334"
         id="path7494-1-6-3-5-8-3-9-1-7-2-2"
         inkscape:connector-curvature="0"
         sodipodi:nodetypes="cc" />
      <path
         sodipodi:type="arc"
         style="color:#000000;fill:#ffffff;fill-opacity:1;stroke:#00000f;stroke-width:3;stroke-linecap:round;stroke-linejoin:miter;stroke-miterlimit:4;stroke-opacity:0.94120029;stroke-dasharray:none;stroke-dashoffset:0;marker:none;visibility:visible;display:inline;overflow:visible;enable-background:accumulate"
         id="path4050-8-0-9-9-5-9-1-5-2-6-5-0"
         sodipodi:cx="57.75"
         sodipodi:cy="50.32"
         sodipodi:rx="20"
         sodipodi:ry="20"
         d="m 77.75,50.32 c 0,11.045695 -8.954305,20 -20,20 -11.045695,0 -20,-8.954305 -20,-20 0,-11.045695 8.954305,-20 20,-20 11.005217,0 19.942666,8.891225 19.999731,19.896294"
         sodipodi:start="0"
         sodipodi:end="6.278"
         sodipodi:open="true"
         transform="matrix(0.721,0,0,0.721,181.2,5822)" />
      <text
         sodipodi:linespacing="125%"
         id="text18952"
         y="5862.6787"
         x="218.89552"
         style="font-size:14.51159954px;font-style:normal;font-variant:normal;font-weight:normal;font-stretch:normal;text-align:start;line-height:125%;letter-spacing:0px;word-spacing:0px;writing-mode:lr-tb;text-anchor:start;fill:#000000;fill-opacity:1;stroke:none;font-family:Standard Symbols L;-inkscape-font-specification:Standard Symbols L"
         xml:space="preserve"><tspan
           y="5862.6787"
           x="218.89552"
           id="tspan18954"
           sodipodi:role="line">1</tspan></text>
      <text
         sodipodi:linespacing="125%"
         id="text18956"
         y="5799.1724"
         x="311.65811"
         style="font-size:14.51159954px;font-style:normal;font-variant:normal;font-weight:normal;font-stretch:normal;text-align:start;line-height:125%;letter-spacing:0px;word-spacing:0px;writing-mode:lr-tb;text-anchor:start;fill:#000000;fill-opacity:1;stroke:none;font-family:Standard Symbols L;-inkscape-font-specification:Standard Symbols L"
         xml:space="preserve"><tspan
           y="5799.1724"
           x="311.65811"
           id="tspan18958"
           sodipodi:role="line">2</tspan></text>
    </g>
  </g>
</svg>
