<?xml version="1.0" encoding="UTF-8" standalone="no"?>
<!-- Created with Inkscape (http://www.inkscape.org/) -->

<svg
   xmlns:dc="http://purl.org/dc/elements/1.1/"
   xmlns:cc="http://creativecommons.org/ns#"
   xmlns:rdf="http://www.w3.org/1999/02/22-rdf-syntax-ns#"
   xmlns:svg="http://www.w3.org/2000/svg"
   xmlns="http://www.w3.org/2000/svg"
   xmlns:sodipodi="http://sodipodi.sourceforge.net/DTD/sodipodi-0.dtd"
   xmlns:inkscape="http://www.inkscape.org/namespaces/inkscape"
   width="196.22334"
   height="263.27115"
   id="svg16261"
   version="1.1"
   inkscape:version="0.48.4 r9939"
   sodipodi:docname="Новий документ 233">
  <defs
     id="defs16263" />
  <sodipodi:namedview
     id="base"
     pagecolor="#ffffff"
     bordercolor="#666666"
     borderopacity="1.0"
     inkscape:pageopacity="0.0"
     inkscape:pageshadow="2"
     inkscape:zoom="1.4"
     inkscape:cx="178.31031"
     inkscape:cy="84.515107"
     inkscape:document-units="px"
     inkscape:current-layer="layer1"
     showgrid="false"
     fit-margin-top="0"
     fit-margin-left="0"
     fit-margin-right="0"
     fit-margin-bottom="0"
     inkscape:window-width="1855"
     inkscape:window-height="1056"
     inkscape:window-x="65"
     inkscape:window-y="24"
     inkscape:window-maximized="1" />
  <metadata
     id="metadata16266">
    <rdf:RDF>
      <cc:Work
         rdf:about="">
        <dc:format>image/svg+xml</dc:format>
        <dc:type
           rdf:resource="http://purl.org/dc/dcmitype/StillImage" />
        <dc:title></dc:title>
      </cc:Work>
    </rdf:RDF>
  </metadata>
  <g
     inkscape:label="Layer 1"
     inkscape:groupmode="layer"
     id="layer1"
     transform="translate(-153.31662,-152.16835)">
    <g
       id="g16332">
      <g
         id="text6934-2-5-81-4-4-0"
         style="font-size:17.21702385px;font-style:normal;font-variant:normal;font-weight:normal;font-stretch:normal;text-align:start;line-height:125%;letter-spacing:0px;word-spacing:0px;writing-mode:lr-tb;text-anchor:start;fill:#000000;fill-opacity:1;stroke:none;font-family:Standard Symbols L;-inkscape-font-specification:Standard Symbols L"
         transform="scale(1.0123858,0.98776574)">
        <path
           id="path16322"
           d="m 224.26474,154.05308 7.21299,0 0,1.42914 -5.51483,0 0,3.69897 4.9768,0 0,1.42915 -4.9768,0 0,5.99401 -1.69816,0 0,-12.55127"
           inkscape:connector-curvature="0" />
        <path
           id="path16324"
           d="m 238.32923,158.63476 c -0.17375,-0.10088 -0.3643,-0.17374 -0.57166,-0.21858 -0.20177,-0.0504 -0.42595,-0.0756 -0.67254,-0.0757 -0.8743,10e-6 -1.54684,0.28584 -2.01762,0.85749 -0.46517,0.56606 -0.69776,1.38151 -0.69776,2.44636 l 0,4.95998 -1.55525,0 0,-9.41556 1.55525,0 0,1.46278 c 0.32506,-0.57165 0.7482,-0.99479 1.26942,-1.26942 0.52121,-0.28022 1.15452,-0.42033 1.89993,-0.42034 0.10648,1e-5 0.22417,0.008 0.35308,0.0252 0.1289,0.0112 0.27181,0.0308 0.42874,0.0589 l 0.008,1.58888"
           inkscape:connector-curvature="0" />
        <path
           id="path16326"
           d="m 243.24718,158.27327 c -0.82947,0 -1.4852,0.32506 -1.96718,0.97518 -0.48199,0.64452 -0.72298,1.53003 -0.72298,2.65653 0,1.12651 0.23819,2.01482 0.71457,2.66494 0.48199,0.64452 1.14051,0.96678 1.97559,0.96678 0.82386,0 1.47678,-0.32506 1.95877,-0.97519 0.48198,-0.65011 0.72298,-1.53562 0.72298,-2.65653 0,-1.11529 -0.241,-1.998 -0.72298,-2.64812 -0.48199,-0.65572 -1.13491,-0.98359 -1.95877,-0.98359 m 0,-1.31146 c 1.34507,10e-6 2.40152,0.43716 3.16934,1.31146 0.76781,0.87431 1.15172,2.08488 1.15173,3.63171 -1e-5,1.54124 -0.38392,2.75181 -1.15173,3.63172 -0.76782,0.8743 -1.82427,1.31145 -3.16934,1.31145 -1.35069,0 -2.40994,-0.43715 -3.17775,-1.31145 -0.76221,-0.87991 -1.14332,-2.09048 -1.14332,-3.63172 0,-1.54683 0.38111,-2.7574 1.14332,-3.63171 0.76781,-0.8743 1.82706,-1.31145 3.17775,-1.31146"
           inkscape:connector-curvature="0" />
        <path
           id="path16328"
           d="m 257.95059,160.92139 0,5.68296 -1.54685,0 0,-5.63252 c 0,-0.89111 -0.17374,-1.55804 -0.52122,-2.0008 -0.34748,-0.44275 -0.8687,-0.66413 -1.56365,-0.66414 -0.83508,1e-5 -1.4936,0.26622 -1.97559,0.79864 -0.48199,0.53244 -0.72298,1.25822 -0.72298,2.17735 l 0,5.32147 -1.55525,0 0,-9.41556 1.55525,0 0,1.46278 c 0.3699,-0.56605 0.80424,-0.98919 1.30305,-1.26942 0.5044,-0.28022 1.08446,-0.42033 1.7402,-0.42034 1.08166,10e-6 1.89991,0.33628 2.45477,1.00881 0.55483,0.66695 0.83226,1.65053 0.83227,2.95077"
           inkscape:connector-curvature="0" />
        <path
           id="path16330"
           d="m 262.5827,154.51545 0,2.67334 3.18616,0 0,1.20217 -3.18616,0 0,5.1113 c 0,0.76782 0.10368,1.26102 0.31105,1.47959 0.21297,0.21858 0.64171,0.32787 1.28624,0.32787 l 1.58887,0 0,1.29463 -1.58887,0 c -1.19377,0 -2.01763,-0.22137 -2.47159,-0.66413 -0.45397,-0.44836 -0.68095,-1.26101 -0.68095,-2.43796 l 0,-5.1113 -1.13491,0 0,-1.20217 1.13491,0 0,-2.67334 1.55525,0"
           inkscape:connector-curvature="0" />
      </g>
      <path
         sodipodi:nodetypes="cc"
         inkscape:connector-curvature="0"
         id="path8645-3-3-9"
         d="m 252.75349,188.9678 c 14.04701,0 30.5729,-3.2248 28.09401,6.4496"
         style="fill:none;stroke:#aaaaaa;stroke-width:2.44855618;stroke-linecap:butt;stroke-linejoin:miter;stroke-miterlimit:4;stroke-opacity:1;stroke-dasharray:4.89711253, 2.44855626;stroke-dashoffset:0" />
      <path
         sodipodi:nodetypes="cc"
         inkscape:connector-curvature="0"
         id="path8584-1-4-6-3-4-4-4-4-6-3-7-3-1-5-8"
         d="m 319.68335,276.8436 c -7.43665,-4.8372 -16.52589,-31.4418 -0.8263,-61.2712"
         style="fill:none;stroke:#dba981;stroke-width:1.2879405;stroke-linecap:round;stroke-linejoin:miter;stroke-miterlimit:4;stroke-opacity:1;stroke-dasharray:3.86382178, 1.28794059;stroke-dashoffset:0" />
      <path
         sodipodi:nodetypes="cc"
         inkscape:connector-curvature="0"
         id="path8584-6-7-8-0-3-1-3-3-1-8-0-4-2-3-1-1"
         d="m 185.82363,276.0374 c 6.61036,-10.4806 8.26295,-27.4108 -4.13147,-63.6898"
         style="fill:none;stroke:#dba981;stroke-width:1.2879405;stroke-linecap:round;stroke-linejoin:miter;stroke-miterlimit:4;stroke-opacity:1;stroke-dasharray:3.86382178, 1.28794059;stroke-dashoffset:0" />
      <path
         sodipodi:nodetypes="cc"
         inkscape:connector-curvature="0"
         id="path3992-4-77-9-5-7-1-2-90-18-83-4-1-9-7-3"
         d="m 222.18059,192.9988 c 10.74183,16.124 47.92508,16.9302 56.18803,0"
         style="fill:none;stroke:#dba981;stroke-width:1.2879405;stroke-linecap:round;stroke-linejoin:miter;stroke-miterlimit:4;stroke-opacity:1;stroke-dasharray:3.86382178, 1.28794059;stroke-dashoffset:0" />
      <path
         sodipodi:nodetypes="cc"
         inkscape:connector-curvature="0"
         id="path14852-5-7-8-4-7-4"
         d="m 253.57978,396.1612 c 0,3.2248 -3.30517,3.2248 -4.13147,-0.8062"
         style="fill:none;stroke:#dba981;stroke-width:3.03114939;stroke-linecap:round;stroke-linejoin:miter;stroke-miterlimit:4;stroke-opacity:1;stroke-dasharray:none" />
      <path
         sodipodi:nodetypes="ccccccscccccccccc"
         inkscape:connector-curvature="0"
         id="path15418-4-6-4-4-66-8"
         d="m 191.6077,413.8976 c 0,-20.9612 2.47888,-35.4728 6.61035,-23.3798 -2.47888,-4.8372 -5.78406,-12.093 -3.30518,-20.9612 -0.82629,-19.3488 -2.47888,-33.0542 -4.13147,-49.1782 -1.65259,-14.5116 -0.82629,-29.8294 -4.95777,-42.7286 -3.30517,-7.2558 -57.84061,-29.0232 -14.047,-62.0774 9.08924,-6.4496 23.13624,-4.031 33.05178,-11.2868 9.91553,-6.4496 20.65736,-8.062 21.48366,-26.6046 4.95776,3.2248 14.8733,6.4496 23.96254,6.4496 8.26294,0 14.8733,-1.6124 22.30995,-4.8372 0.82629,4.031 5.78406,12.8992 10.74183,17.7364 13.22071,12.093 44.53727,15.3178 51.14763,24.186 33.05178,35.4728 -3.30518,41.1162 -14.79067,57.2402 -4.95777,10.4806 -4.13148,29.8294 -5.78407,39.5038 -3.30517,16.124 -4.13147,36.279 -6.61035,53.2092 1.65259,4.8372 0,14.5116 -1.65259,19.3488 1.65259,-12.8992 6.61036,16.9302 7.43665,22.5736"
         style="fill:none;stroke:#dba981;stroke-width:3.03114939;stroke-linecap:round;stroke-linejoin:round;stroke-miterlimit:4;stroke-opacity:1;stroke-dasharray:none" />
      <path
         sodipodi:nodetypes="cc"
         inkscape:connector-curvature="0"
         id="path3992-4-77-9-5-7-1-2-9-8-8-6-2-3-33-8-8-8-1"
         d="m 194.91287,370.3628 113.20235,0.8062"
         style="fill:none;stroke:#dba981;stroke-width:1.21236181;stroke-linecap:round;stroke-linejoin:miter;stroke-miterlimit:4;stroke-opacity:1;stroke-dasharray:3.63700386, 1.21236182;stroke-dashoffset:0" />
      <path
         style="fill:none;stroke:#dba981;stroke-width:1.21236181;stroke-linecap:round;stroke-linejoin:miter;stroke-miterlimit:4;stroke-opacity:1;stroke-dasharray:3.63700386, 1.21236182;stroke-dashoffset:0"
         d="m 184.99734,276.8436 136.33859,0"
         id="path3992-4-77-9-5-7-1-2-9-8-8-6-2-3-33-2-8-8-4-2"
         inkscape:connector-curvature="0"
         sodipodi:nodetypes="cc" />
      <path
         sodipodi:nodetypes="cc"
         inkscape:connector-curvature="0"
         id="path7494-1-6-3-5-81-64-9-2-9-5-3-0-6-1-6-0-1"
         d="M 280.8475,194.6112 252.75349,371.169"
         style="fill:none;stroke:#000000;stroke-width:2.44855618;stroke-linecap:round;stroke-linejoin:round;stroke-miterlimit:4;stroke-opacity:1;stroke-dasharray:none;marker-start:url(#marker7359);marker-end:url(#marker7359)" />
      <path
         transform="matrix(-0.73895519,0,0,0.72098466,313.89928,216.3786)"
         sodipodi:open="true"
         sodipodi:end="6.278"
         sodipodi:start="0"
         d="m 77.75,50.32 c 0,11.045695 -8.954305,20 -20,20 -11.045695,0 -20,-8.954305 -20,-20 0,-11.045695 8.954305,-20 20,-20 11.005217,0 19.942666,8.891225 19.999731,19.896294"
         sodipodi:ry="20"
         sodipodi:rx="20"
         sodipodi:cy="50.32"
         sodipodi:cx="57.75"
         id="path4050-8-0-9-9-5-9-7-8-9-5-5-6-4-29-3-4"
         style="color:#000000;fill:#ffffff;fill-opacity:1;stroke:#00000f;stroke-width:3;stroke-linecap:round;stroke-linejoin:miter;stroke-miterlimit:4;stroke-opacity:0.94120029;stroke-dasharray:none;stroke-dashoffset:0;marker:none;visibility:visible;display:inline;overflow:visible;enable-background:accumulate"
         sodipodi:type="arc" />
      <text
         transform="scale(1.0123858,0.98776574)"
         sodipodi:linespacing="125%"
         id="text17174-0-6-9-4-6"
         y="261.78162"
         x="263.59897"
         style="font-size:14.69133759px;font-style:normal;font-variant:normal;font-weight:normal;font-stretch:normal;text-align:start;line-height:125%;letter-spacing:0px;word-spacing:0px;writing-mode:lr-tb;text-anchor:start;fill:#000000;fill-opacity:1;stroke:none;font-family:Standard Symbols L;-inkscape-font-specification:Standard Symbols L"
         xml:space="preserve"><tspan
           y="261.78162"
           x="263.59897"
           id="tspan17176-0-8-3-8-9"
           sodipodi:role="line">1</tspan></text>
      <path
         style="fill:none;stroke:#dba981;stroke-width:1.21236181;stroke-linecap:round;stroke-linejoin:miter;stroke-miterlimit:4;stroke-opacity:1;stroke-dasharray:3.63700386, 1.21236182;stroke-dashoffset:0;display:inline"
         d="m 192.51662,405.8356 119.48219,0.8062"
         id="path3992-4-77-9-5-7-1-2-9-8-8-6-2-3-33-8-8-8-1-8"
         inkscape:connector-curvature="0"
         sodipodi:nodetypes="cc" />
    </g>
  </g>
</svg>
