<?xml version="1.0" encoding="UTF-8" standalone="no"?>
<!-- Created with Inkscape (http://www.inkscape.org/) -->

<svg
   xmlns:dc="http://purl.org/dc/elements/1.1/"
   xmlns:cc="http://creativecommons.org/ns#"
   xmlns:rdf="http://www.w3.org/1999/02/22-rdf-syntax-ns#"
   xmlns:svg="http://www.w3.org/2000/svg"
   xmlns="http://www.w3.org/2000/svg"
   xmlns:sodipodi="http://sodipodi.sourceforge.net/DTD/sodipodi-0.dtd"
   xmlns:inkscape="http://www.inkscape.org/namespaces/inkscape"
   width="286.38824"
   height="208.79364"
   id="svg17548"
   version="1.1"
   inkscape:version="0.48.4 r9939"
   sodipodi:docname="Новий документ 263">
  <defs
     id="defs17550" />
  <sodipodi:namedview
     id="base"
     pagecolor="#ffffff"
     bordercolor="#666666"
     borderopacity="1.0"
     inkscape:pageopacity="0.0"
     inkscape:pageshadow="2"
     inkscape:zoom="1.979899"
     inkscape:cx="277.14675"
     inkscape:cy="2.6887723"
     inkscape:document-units="px"
     inkscape:current-layer="layer1"
     showgrid="false"
     fit-margin-top="0"
     fit-margin-left="0"
     fit-margin-right="0"
     fit-margin-bottom="0"
     inkscape:window-width="1855"
     inkscape:window-height="1056"
     inkscape:window-x="65"
     inkscape:window-y="24"
     inkscape:window-maximized="1" />
  <metadata
     id="metadata17553">
    <rdf:RDF>
      <cc:Work
         rdf:about="">
        <dc:format>image/svg+xml</dc:format>
        <dc:type
           rdf:resource="http://purl.org/dc/dcmitype/StillImage" />
        <dc:title></dc:title>
      </cc:Work>
    </rdf:RDF>
  </metadata>
  <g
     inkscape:label="Layer 1"
     inkscape:groupmode="layer"
     id="layer1"
     transform="translate(-168.23202,-265.20176)">
    <g
       id="g9609-7-8"
       transform="matrix(0.62424066,0.51016336,0.51016336,-0.62424066,-1527.316,1900.0915)" />
    <g
       id="g17599">
      <path
         sodipodi:nodetypes="cc"
         inkscape:connector-curvature="0"
         id="path3992-4-4-7-0-0-9-6-8-6-55-1-7"
         d="m 312.4324,384.4355 c -4.031,-15.3178 0.8062,-52.403 4.8372,-59.6588"
         style="fill:none;stroke:#dba981;stroke-width:1.61240005;stroke-linecap:round;stroke-linejoin:miter;stroke-miterlimit:4;stroke-opacity:1;stroke-dasharray:4.8372, 1.6124;stroke-dashoffset:0" />
      <path
         inkscape:connector-curvature="0"
         d="m 310.82,311.8775 c 0,0 -3.2248,-4.031 -24.186,-8.062 -4.031,-0.8062 -13.7054,-4.8372 -12.093,-8.8682 2.4186,-4.031 24.9922,-7.2558 29.0232,-7.2558 7.2558,0 9.6744,-0.8062 14.5116,0.8062 5.6434,0.8062 9.6744,4.031 14.5116,6.4496 4.031,1.6124 7.2558,3.2248 10.4806,4.8372 8.062,4.031 17.7364,9.6744 24.9922,10.4806 0,0 43.5348,6.4496 61.2712,18.5426 8.062,5.6434 12.8992,8.062 12.8992,8.062 0,0 10.4806,3.2248 8.8682,8.062 -2.4186,11.2868 -8.8682,21.7674 -17.7364,23.3798 -12.8992,3.2248 -30.6356,8.8682 -43.5348,8.8682 -25.7984,3.2248 -41.1162,6.4496 -77.3952,7.2558 -4.031,29.0232 -19.3488,62.8836 -18.5426,87.8758 M 310.82,312.6837 c -2.4186,0 -15.3178,-2.4186 -16.124,0.8062 m -83.0386,-6.4496 c -9.6744,8.062 -27.4108,8.8682 -41.9224,16.124 m 238.6352,17.7364 c -23.3798,-6.4496 -70.9456,-18.5426 -91.1006,-18.5426 -17.7364,-8.8682 -33.0542,-4.8372 -44.341,-14.5116 -2.4186,-2.4186 -4.031,-6.4496 -4.8372,-10.4806 -0.8062,-4.031 0.8062,-12.093 0.8062,-12.093 0,0 -17.7364,0.8062 -26.6046,0.8062 -8.8682,0 -26.6046,-1.6124 -26.6046,-1.6124 0,0 2.4186,8.8682 1.6124,12.8992 -0.8062,4.031 -2.4186,7.2558 -5.6434,9.6744"
         style="fill:none;stroke:#dba981;stroke-width:2.99422669;stroke-linecap:round;stroke-linejoin:round;stroke-miterlimit:4;stroke-opacity:1;stroke-dasharray:none"
         id="path9709-0-0-9" />
      <path
         style="fill:none;stroke:#000000;stroke-width:2.16303468;stroke-linecap:round;stroke-linejoin:round;stroke-miterlimit:4;stroke-opacity:1;stroke-dasharray:none;marker-start:url(#marker7359);marker-end:url(#marker7359)"
         d="m 313.2386,357.0247 c 46.7596,-0.8062 141.8912,1.6124 140.2788,-11.2868 -10.4806,-16.9302 -34.6666,-25.7984 -55.6278,-32.248 -15.3178,-4.8372 -29.0232,-7.2558 -44.341,-12.093"
         id="path9729-0-59-6"
         inkscape:connector-curvature="0"
         sodipodi:nodetypes="ccsc" />
      <path
         transform="matrix(-0.72098466,0,0,0.72098466,388.2152,319.1333)"
         sodipodi:open="true"
         sodipodi:end="6.278"
         sodipodi:start="0"
         d="m 77.75,50.32 c 0,11.045695 -8.954305,20 -20,20 -11.045695,0 -20,-8.954305 -20,-20 0,-11.045695 8.954305,-20 20,-20 11.005217,0 19.942666,8.891225 19.999731,19.896294"
         sodipodi:ry="20"
         sodipodi:rx="20"
         sodipodi:cy="50.32"
         sodipodi:cx="57.75"
         id="path4050-8-0-9-9-5-9-7-8-9-5-5-6-4-6-6"
         style="color:#000000;fill:#ffffff;fill-opacity:1;stroke:#00000f;stroke-width:3;stroke-linecap:round;stroke-linejoin:miter;stroke-miterlimit:4;stroke-opacity:0.94120029;stroke-dasharray:none;stroke-dashoffset:0;marker:none;visibility:visible;display:inline;overflow:visible;enable-background:accumulate"
         sodipodi:type="arc" />
      <text
         sodipodi:linespacing="125%"
         id="text17174-0-6-7-1"
         y="360.29636"
         x="338.94528"
         style="font-size:14.51159954px;font-style:normal;font-variant:normal;font-weight:normal;font-stretch:normal;text-align:start;line-height:125%;letter-spacing:0px;word-spacing:0px;writing-mode:lr-tb;text-anchor:start;fill:#000000;fill-opacity:1;stroke:none;font-family:Standard Symbols L;-inkscape-font-specification:Standard Symbols L"
         xml:space="preserve"><tspan
           y="360.29636"
           x="338.94528"
           id="tspan17176-0-8-2-8"
           sodipodi:role="line">14</tspan></text>
      <g
         id="text6934-6-9-7-0-1-7-4-8-0"
         style="font-size:14.51159954px;font-style:normal;font-variant:normal;font-weight:normal;font-stretch:normal;text-align:start;line-height:125%;letter-spacing:0px;word-spacing:0px;writing-mode:lr-tb;text-anchor:start;fill:#000000;fill-opacity:1;stroke:none;font-family:Standard Symbols L;-inkscape-font-specification:Standard Symbols L">
        <path
           id="path17591"
           d="m 227.33451,271.17504 0,3.8759 2.29578,0 c 0.76998,0 1.3392,-0.15825 1.70767,-0.47475 0.37317,-0.32121 0.55976,-0.81013 0.55977,-1.46674 -1e-5,-0.66134 -0.1866,-1.14789 -0.55977,-1.45967 -0.36847,-0.31649 -0.93769,-0.47474 -1.70767,-0.47474 l -2.29578,0 m 0,-4.35065 0,3.18859 2.11864,0 c 0.69912,0 1.21874,-0.1299 1.55886,-0.38972 0.34483,-0.26453 0.51725,-0.66605 0.51726,-1.20457 -1e-5,-0.53379 -0.17243,-0.93295 -0.51726,-1.1975 -0.34012,-0.26452 -0.85974,-0.39679 -1.55886,-0.3968 l -2.11864,0 m -1.43132,-1.17623 3.65625,0 c 1.09119,10e-6 1.93203,0.22675 2.52252,0.68023 0.59047,0.4535 0.88571,1.0983 0.88572,1.93441 -1e-5,0.64717 -0.15117,1.16207 -0.45349,1.54469 -0.30233,0.38264 -0.74637,0.62119 -1.33212,0.71566 0.70384,0.15117 1.24944,0.46766 1.63681,0.94949 0.39207,0.47711 0.5881,1.07467 0.58811,1.79269 -1e-5,0.94477 -0.32123,1.6746 -0.96366,2.1895 -0.64245,0.51489 -1.55651,0.77234 -2.74218,0.77234 l -3.79796,0 0,-10.57901"
           inkscape:connector-curvature="0" />
        <path
           id="path17593"
           d="m 239.40153,272.2379 c -1.05342,0 -1.78325,0.12046 -2.18949,0.36137 -0.40626,0.24092 -0.60938,0.65189 -0.60938,1.23292 0,0.46294 0.15116,0.8314 0.45349,1.10538 0.30705,0.26926 0.72274,0.40389 1.24709,0.40389 0.72274,0 1.30141,-0.25509 1.73601,-0.76527 0.43931,-0.51489 0.65896,-1.19748 0.65897,-2.04777 l 0,-0.29052 -1.29669,0 m 2.60047,-0.53852 0,4.52779 -1.30378,0 0,-1.20457 c -0.29761,0.48183 -0.66843,0.83848 -1.11246,1.06994 -0.44404,0.22675 -0.98728,0.34012 -1.62972,0.34012 -0.8125,0 -1.45967,-0.22674 -1.94149,-0.68023 -0.47711,-0.45821 -0.71567,-1.06995 -0.71566,-1.83521 -1e-5,-0.8928 0.2976,-1.56594 0.8928,-2.01944 0.59992,-0.45348 1.49273,-0.68022 2.67841,-0.68023 l 1.82812,0 0,-0.12754 c -1e-5,-0.59992 -0.19841,-1.06286 -0.5952,-1.38881 -0.39208,-0.33066 -0.94477,-0.49599 -1.65806,-0.496 -0.4535,1e-5 -0.89517,0.0543 -1.32504,0.16297 -0.42987,0.10866 -0.8432,0.27163 -1.24,0.48892 l 0,-1.20458 c 0.4771,-0.18422 0.94004,-0.32121 1.3888,-0.41097 0.44876,-0.0945 0.88572,-0.14171 1.31086,-0.14171 1.14789,0 2.00526,0.29761 2.57213,0.8928 0.56685,0.59521 0.85028,1.49746 0.85029,2.70675"
           inkscape:connector-curvature="0" />
        <path
           id="path17595"
           d="m 250.40569,268.59583 0,1.21875 c -0.36847,-0.20312 -0.73929,-0.35428 -1.11247,-0.45349 -0.36846,-0.10392 -0.74164,-0.15588 -1.11954,-0.15589 -0.84557,1e-5 -1.50218,0.26927 -1.96984,0.80778 -0.46766,0.5338 -0.70149,1.28488 -0.70149,2.25326 0,0.96839 0.23383,1.72184 0.70149,2.26035 0.46766,0.5338 1.12427,0.80069 1.96984,0.80069 0.3779,0 0.75108,-0.0496 1.11954,-0.1488 0.37318,-0.10392 0.744,-0.25744 1.11247,-0.46057 l 0,1.20458 c -0.36375,0.17005 -0.74165,0.2976 -1.13372,0.38263 -0.38736,0.085 -0.8007,0.12754 -1.24001,0.12754 -1.19513,0 -2.14462,-0.37554 -2.84847,-1.12663 -0.70385,-0.75109 -1.05577,-1.76435 -1.05577,-3.03979 0,-1.29432 0.35428,-2.3123 1.06286,-3.05395 0.7133,-0.74163 1.68877,-1.11246 2.92641,-1.11246 0.40152,0 0.7936,0.0425 1.17623,0.12754 0.38263,0.0803 0.75345,0.20313 1.11247,0.36846"
           inkscape:connector-curvature="0" />
        <path
           id="path17597"
           d="m 252.6377,265.20176 1.31086,0 0,6.5118 3.89007,-3.42242 1.66515,0 -4.20893,3.71293 4.38607,4.2231 -1.70057,0 -4.03179,-3.8759 0,3.8759 -1.31086,0 0,-11.02541"
           inkscape:connector-curvature="0" />
      </g>
    </g>
  </g>
</svg>
