<?xml version="1.0" encoding="UTF-8" standalone="no"?>
<!-- Created with Inkscape (http://www.inkscape.org/) -->

<svg
   xmlns:dc="http://purl.org/dc/elements/1.1/"
   xmlns:cc="http://creativecommons.org/ns#"
   xmlns:rdf="http://www.w3.org/1999/02/22-rdf-syntax-ns#"
   xmlns:svg="http://www.w3.org/2000/svg"
   xmlns="http://www.w3.org/2000/svg"
   xmlns:sodipodi="http://sodipodi.sourceforge.net/DTD/sodipodi-0.dtd"
   xmlns:inkscape="http://www.inkscape.org/namespaces/inkscape"
   width="202.93095"
   height="263.36523"
   id="svg16399"
   version="1.1"
   inkscape:version="0.48.4 r9939"
   sodipodi:docname="Новий документ 236">
  <defs
     id="defs16401" />
  <sodipodi:namedview
     id="base"
     pagecolor="#ffffff"
     bordercolor="#666666"
     borderopacity="1.0"
     inkscape:pageopacity="0.0"
     inkscape:pageshadow="2"
     inkscape:zoom="1.4"
     inkscape:cx="246.53313"
     inkscape:cy="161.20524"
     inkscape:document-units="px"
     inkscape:current-layer="layer1"
     showgrid="false"
     fit-margin-top="0"
     fit-margin-left="0"
     fit-margin-right="0"
     fit-margin-bottom="0"
     inkscape:window-width="1855"
     inkscape:window-height="1056"
     inkscape:window-x="65"
     inkscape:window-y="24"
     inkscape:window-maximized="1" />
  <metadata
     id="metadata16404">
    <rdf:RDF>
      <cc:Work
         rdf:about="">
        <dc:format>image/svg+xml</dc:format>
        <dc:type
           rdf:resource="http://purl.org/dc/dcmitype/StillImage" />
        <dc:title></dc:title>
      </cc:Work>
    </rdf:RDF>
  </metadata>
  <g
     inkscape:label="Layer 1"
     inkscape:groupmode="layer"
     id="layer1"
     transform="translate(-118.52676,-212.19585)">
    <g
       id="g16473">
      <g
         id="text6934-2-5-81-4-4-0-9"
         style="font-size:17.50787354px;font-style:normal;font-variant:normal;font-weight:normal;font-stretch:normal;text-align:start;line-height:125%;letter-spacing:0px;word-spacing:0px;writing-mode:lr-tb;text-anchor:start;fill:#000000;fill-opacity:1;stroke:none;font-family:Standard Symbols L;-inkscape-font-specification:Standard Symbols L"
         transform="scale(1.0294883,0.97135638)">
        <path
           id="path16463"
           d="m 189.49533,218.45314 7.33484,0 0,1.45329 -5.60799,0 0,3.76146 5.06087,0 0,1.45329 -5.06087,0 0,6.09527 -1.72685,0 0,-12.76331"
           inkscape:connector-curvature="0" />
        <path
           id="path16465"
           d="m 203.79741,223.11222 c -0.17668,-0.10258 -0.37045,-0.17667 -0.58131,-0.22227 -0.20518,-0.0513 -0.43315,-0.0769 -0.68391,-0.0769 -0.88907,1e-5 -1.57297,0.29066 -2.0517,0.87197 -0.47304,0.57563 -0.70955,1.40486 -0.70955,2.48769 l 0,5.04378 -1.58152,0 0,-9.57462 1.58152,0 0,1.48748 c 0.33055,-0.5813 0.76084,-1.01159 1.29087,-1.29086 0.53001,-0.28495 1.17402,-0.42743 1.93202,-0.42744 0.10828,1e-5 0.22796,0.009 0.35905,0.0256 0.13107,0.0114 0.2764,0.0314 0.43598,0.0598 l 0.009,1.61572"
           inkscape:connector-curvature="0" />
        <path
           id="path16467"
           d="m 208.79844,222.74462 c -0.84348,1e-5 -1.51029,0.33056 -2.00041,0.99166 -0.49013,0.65541 -0.7352,1.55588 -0.7352,2.70141 0,1.14553 0.24222,2.04885 0.72665,2.70995 0.49012,0.65541 1.15978,0.98311 2.00896,0.98311 0.83777,0 1.50173,-0.33055 1.99186,-0.99165 0.49012,-0.66111 0.73519,-1.56158 0.7352,-2.70141 -1e-5,-1.13413 -0.24508,-2.03175 -0.7352,-2.69287 -0.49013,-0.66679 -1.15409,-1.00019 -1.99186,-1.0002 m 0,-1.33361 c 1.3678,1e-5 2.44209,0.44455 3.22288,1.33361 0.78078,0.88908 1.17118,2.1201 1.17119,3.69307 -1e-5,1.56727 -0.39041,2.79829 -1.17119,3.69306 -0.78079,0.88907 -1.85508,1.33361 -3.22288,1.33361 -1.37351,0 -2.45065,-0.44454 -3.23143,-1.33361 -0.77509,-0.89477 -1.16264,-2.12579 -1.16264,-3.69306 0,-1.57297 0.38755,-2.80399 1.16264,-3.69307 0.78078,-0.88906 1.85792,-1.3336 3.23143,-1.33361"
           inkscape:connector-curvature="0" />
        <path
           id="path16469"
           d="m 223.75023,225.43748 0,5.77897 -1.57297,0 0,-5.72768 c -1e-5,-0.90616 -0.17668,-1.58436 -0.53002,-2.0346 -0.35336,-0.45023 -0.88338,-0.67535 -1.59008,-0.67536 -0.84918,1e-5 -1.51883,0.27072 -2.00896,0.81214 -0.49013,0.54143 -0.73519,1.27947 -0.73519,2.21413 l 0,5.41137 -1.58152,0 0,-9.57462 1.58152,0 0,1.48748 c 0.37614,-0.57561 0.81783,-1.00589 1.32506,-1.29086 0.51292,-0.28495 1.10278,-0.42743 1.76959,-0.42744 1.09994,1e-5 1.93202,0.34196 2.49624,1.02585 0.56421,0.67821 0.84632,1.67842 0.84633,3.00062"
           inkscape:connector-curvature="0" />
        <path
           id="path16471"
           d="m 228.4606,218.92332 0,2.71851 3.23998,0 0,1.22247 -3.23998,0 0,5.19765 c 0,0.78079 0.10543,1.28232 0.31631,1.50458 0.21656,0.22227 0.65255,0.33341 1.30796,0.33341 l 1.61571,0 0,1.31651 -1.61571,0 c -1.21393,0 -2.05171,-0.22512 -2.51334,-0.67536 -0.46164,-0.45593 -0.69245,-1.28231 -0.69245,-2.47914 l 0,-5.19765 -1.15408,0 0,-1.22247 1.15408,0 0,-2.71851 1.58152,0"
           inkscape:connector-curvature="0" />
      </g>
      <path
         sodipodi:nodetypes="cc"
         inkscape:connector-curvature="0"
         id="path8645-3-3-9-0"
         d="m 189.71392,252.9456 c -0.85444,-6.4496 63.22915,-7.2558 60.66581,2.4186"
         style="fill:none;stroke:#aaaaaa;stroke-width:2.48992038;stroke-linecap:butt;stroke-linejoin:miter;stroke-miterlimit:4;stroke-opacity:1;stroke-dasharray:4.97984065, 2.48992032;stroke-dashoffset:0" />
      <path
         sodipodi:nodetypes="cc"
         inkscape:connector-curvature="0"
         id="path8584-1-4-6-3-4-4-4-4-6-3-7-3-1-5-8-4"
         d="m 290.53878,336.7904 c -7.69003,-4.8372 -17.08896,-31.4418 -0.85445,-61.2712"
         style="fill:none;stroke:#dba981;stroke-width:1.3096981;stroke-linecap:round;stroke-linejoin:miter;stroke-miterlimit:4;stroke-opacity:1;stroke-dasharray:3.92909427, 1.30969809;stroke-dashoffset:0" />
      <path
         sodipodi:nodetypes="cc"
         inkscape:connector-curvature="0"
         id="path8584-6-7-8-0-3-1-3-3-1-8-0-4-2-3-1-1-5"
         d="m 152.11822,335.9842 c 6.83558,-10.4806 8.54447,-27.4108 -4.27224,-63.6898"
         style="fill:none;stroke:#dba981;stroke-width:1.3096981;stroke-linecap:round;stroke-linejoin:miter;stroke-miterlimit:4;stroke-opacity:1;stroke-dasharray:3.92909427, 1.30969809;stroke-dashoffset:0" />
      <path
         sodipodi:nodetypes="cc"
         inkscape:connector-curvature="0"
         id="path3992-4-77-9-5-7-1-2-90-18-83-4-1-9-7-3-5"
         d="m 189.71392,252.9456 c 11.10783,16.124 49.55798,16.9302 58.10246,0"
         style="fill:none;stroke:#dba981;stroke-width:1.3096981;stroke-linecap:round;stroke-linejoin:miter;stroke-miterlimit:4;stroke-opacity:1;stroke-dasharray:3.92909427, 1.30969809;stroke-dashoffset:0" />
      <path
         sodipodi:nodetypes="cc"
         inkscape:connector-curvature="0"
         id="path14852-5-7-8-4-7-4-9"
         d="m 222.18294,456.108 c 0,3.2248 -3.41779,3.2248 -4.27224,-0.8062"
         style="fill:none;stroke:#dba981;stroke-width:3.08235526;stroke-linecap:round;stroke-linejoin:miter;stroke-miterlimit:4;stroke-opacity:1;stroke-dasharray:none" />
      <path
         sodipodi:nodetypes="ccccccscccccccccc"
         inkscape:connector-curvature="0"
         id="path15418-4-6-4-4-66-8-4"
         d="m 158.09935,473.8444 c 0,-20.9612 2.56334,-35.4728 6.83558,-23.3798 -2.56334,-4.8372 -5.98113,-12.093 -3.41779,-20.9612 -0.85445,-19.3488 -2.56334,-33.0542 -4.27224,-49.1782 -1.70889,-14.5116 -0.85445,-29.8294 -5.12668,-42.7286 -3.4178,-7.2558 -59.811359,-29.0232 -14.52562,-62.0774 9.39893,-6.4496 23.92454,-4.031 34.17792,-11.2868 10.25337,-6.4496 21.3612,-8.062 22.21564,-26.6046 5.12669,3.2248 15.38007,6.4496 24.77899,6.4496 8.54448,0 15.38007,-1.6124 23.0701,-4.8372 0.85444,4.031 5.98113,12.8992 11.10782,17.7364 13.67117,12.093 46.14019,15.3178 52.97577,24.186 34.17792,35.4728 -3.41779,41.1162 -15.38006,57.2402 -5.12669,10.4806 -4.27224,29.8294 -5.98114,39.5038 -3.41779,16.124 -4.27224,36.279 -6.83558,53.2092 1.7089,4.8372 0,14.5116 -1.7089,19.3488 1.7089,-12.8992 6.83559,16.9302 7.69003,22.5736"
         style="fill:none;stroke:#dba981;stroke-width:3.08235526;stroke-linecap:round;stroke-linejoin:round;stroke-miterlimit:4;stroke-opacity:1;stroke-dasharray:none" />
      <path
         sodipodi:nodetypes="cc"
         inkscape:connector-curvature="0"
         id="path3992-4-77-9-5-7-1-2-9-8-8-6-2-3-33-8-8-8-1-7"
         d="m 161.51714,430.3096 117.05937,0.8062"
         style="fill:none;stroke:#dba981;stroke-width:1.23284256;stroke-linecap:round;stroke-linejoin:miter;stroke-miterlimit:4;stroke-opacity:1;stroke-dasharray:3.69844465, 1.23284255;stroke-dashoffset:0" />
      <path
         style="fill:none;stroke:#dba981;stroke-width:1.23284256;stroke-linecap:round;stroke-linejoin:miter;stroke-miterlimit:4;stroke-opacity:1;stroke-dasharray:3.69844465, 1.23284255;stroke-dashoffset:0"
         d="m 151.26377,336.7904 140.9839,0"
         id="path3992-4-77-9-5-7-1-2-9-8-8-6-2-3-33-2-8-8-4-2-8"
         inkscape:connector-curvature="0"
         sodipodi:nodetypes="cc" />
      <path
         sodipodi:nodetypes="cc"
         inkscape:connector-curvature="0"
         id="path7494-1-6-3-5-81-64-9-2-9-5-3-0-6-1-6-0-1-0"
         d="m 250.37973,254.558 0.85444,175.7516"
         style="fill:none;stroke:#000000;stroke-width:2.48992038;stroke-linecap:round;stroke-linejoin:round;stroke-miterlimit:4;stroke-opacity:1;stroke-dasharray:none;marker-start:url(#marker7359);marker-end:url(#marker7359)" />
      <path
         style="fill:none;stroke:#dba981;stroke-width:1.23284256;stroke-linecap:round;stroke-linejoin:miter;stroke-miterlimit:4;stroke-opacity:1;stroke-dasharray:3.69844465, 1.23284255;stroke-dashoffset:0;display:inline"
         d="m 159.80825,465.7824 123.0405,0.8062"
         id="path3992-4-77-9-5-7-1-2-9-8-8-6-2-3-33-8-8-8-1-8-1"
         inkscape:connector-curvature="0"
         sodipodi:nodetypes="cc" />
      <path
         style="fill:none;stroke:#000000;stroke-width:2.48992038;stroke-linecap:round;stroke-linejoin:round;stroke-miterlimit:4;stroke-opacity:1;stroke-dasharray:none;marker-start:url(#marker7359);marker-end:url(#marker7359);display:inline"
         d="m 190.56837,254.558 0,175.7516"
         id="path7494-1-6-3-5-81-64-9-2-9-5-3-0-6-1-6-0-1-0-0"
         inkscape:connector-curvature="0"
         sodipodi:nodetypes="cc" />
      <path
         transform="matrix(-0.76413277,0,0,0.72098466,234.99966,268.2634)"
         sodipodi:open="true"
         sodipodi:end="6.278"
         sodipodi:start="0"
         d="m 77.75,50.32 c 0,11.045695 -8.954305,20 -20,20 -11.045695,0 -20,-8.954305 -20,-20 0,-11.045695 8.954305,-20 20,-20 11.005217,0 19.942666,8.891225 19.999731,19.896294"
         sodipodi:ry="20"
         sodipodi:rx="20"
         sodipodi:cy="50.32"
         sodipodi:cx="57.75"
         id="path4050-8-0-9-9-5-9-7-8-9-5-5-6-4-29-3-4-0"
         style="color:#000000;fill:#ffffff;fill-opacity:1;stroke:#00000f;stroke-width:3;stroke-linecap:round;stroke-linejoin:miter;stroke-miterlimit:4;stroke-opacity:0.94120029;stroke-dasharray:none;stroke-dashoffset:0;marker:none;visibility:visible;display:inline;overflow:visible;enable-background:accumulate"
         sodipodi:type="arc" />
      <text
         transform="scale(1.0294883,0.97135638)"
         sodipodi:linespacing="125%"
         id="text17174-0-6-9-4-6-2"
         y="318.63559"
         x="181.66895"
         style="font-size:14.93952179px;font-style:normal;font-variant:normal;font-weight:normal;font-stretch:normal;text-align:start;line-height:125%;letter-spacing:0px;word-spacing:0px;writing-mode:lr-tb;text-anchor:start;fill:#000000;fill-opacity:1;stroke:none;font-family:Standard Symbols L;-inkscape-font-specification:Standard Symbols L"
         xml:space="preserve"><tspan
           y="318.63559"
           x="181.66895"
           id="tspan17176-0-8-3-8-9-2"
           sodipodi:role="line">2</tspan></text>
    </g>
  </g>
</svg>
