<?xml version="1.0" encoding="UTF-8" standalone="no"?>
<!-- Created with Inkscape (http://www.inkscape.org/) -->

<svg
   xmlns:dc="http://purl.org/dc/elements/1.1/"
   xmlns:cc="http://creativecommons.org/ns#"
   xmlns:rdf="http://www.w3.org/1999/02/22-rdf-syntax-ns#"
   xmlns:svg="http://www.w3.org/2000/svg"
   xmlns="http://www.w3.org/2000/svg"
   xmlns:sodipodi="http://sodipodi.sourceforge.net/DTD/sodipodi-0.dtd"
   xmlns:inkscape="http://www.inkscape.org/namespaces/inkscape"
   width="201.20168"
   height="271.42035"
   id="svg16539"
   version="1.1"
   inkscape:version="0.48.4 r9939"
   sodipodi:docname="Новий документ 239">
  <defs
     id="defs16541" />
  <sodipodi:namedview
     id="base"
     pagecolor="#ffffff"
     bordercolor="#666666"
     borderopacity="1.0"
     inkscape:pageopacity="0.0"
     inkscape:pageshadow="2"
     inkscape:zoom="1.979899"
     inkscape:cx="175.43409"
     inkscape:cy="123.3176"
     inkscape:document-units="px"
     inkscape:current-layer="layer1"
     showgrid="false"
     fit-margin-top="0"
     fit-margin-left="0"
     fit-margin-right="0"
     fit-margin-bottom="0"
     inkscape:window-width="1855"
     inkscape:window-height="1056"
     inkscape:window-x="65"
     inkscape:window-y="24"
     inkscape:window-maximized="1" />
  <metadata
     id="metadata16544">
    <rdf:RDF>
      <cc:Work
         rdf:about="">
        <dc:format>image/svg+xml</dc:format>
        <dc:type
           rdf:resource="http://purl.org/dc/dcmitype/StillImage" />
        <dc:title></dc:title>
      </cc:Work>
    </rdf:RDF>
  </metadata>
  <g
     inkscape:label="Layer 1"
     inkscape:groupmode="layer"
     id="layer1"
     transform="translate(-130.8204,-165.45997)">
    <g
       id="g16607">
      <path
         sodipodi:nodetypes="cc"
         inkscape:connector-curvature="0"
         id="path3992-4-77-9-5-7-1-2-9-8-8-6-2-0-1-6"
         d="m 168.24853,410.0968 c 2.62376,-8.8682 121.96222,-12.8992 124.41669,0"
         style="fill:none;stroke:#aaaaaa;stroke-width:2.47812557;stroke-linecap:butt;stroke-linejoin:miter;stroke-miterlimit:4;stroke-opacity:1;stroke-dasharray:7.43437665, 2.47812555;stroke-dashoffset:0" />
      <path
         sodipodi:nodetypes="cc"
         inkscape:connector-curvature="0"
         id="path8584-1-4-6-3-4-4-4-4-6-3-7-3-1"
         d="m 301.04431,289.1668 c -7.36344,-4.8372 -16.67353,-31.4418 -0.6771,-61.2712"
         style="fill:none;stroke:#dba981;stroke-width:1.30349398;stroke-linecap:round;stroke-linejoin:miter;stroke-miterlimit:4;stroke-opacity:1;stroke-dasharray:3.91048212, 1.30349404;stroke-dashoffset:0" />
      <path
         sodipodi:nodetypes="cc"
         inkscape:connector-curvature="0"
         id="path8584-6-7-8-0-3-1-3-3-1-8-0-4-2-3"
         d="m 163.76276,288.3606 c 6.68634,-10.4806 9.05618,-27.4108 -4.3165,-63.6898"
         style="fill:none;stroke:#dba981;stroke-width:1.30349398;stroke-linecap:round;stroke-linejoin:miter;stroke-miterlimit:4;stroke-opacity:1;stroke-dasharray:3.91048212, 1.30349404;stroke-dashoffset:0" />
      <path
         sodipodi:nodetypes="cc"
         inkscape:connector-curvature="0"
         id="path3992-4-77-9-5-7-1-2-90-18-83-4-1-9"
         d="m 201.51096,205.322 c 10.74892,16.124 48.75102,16.9302 57.46866,0"
         style="fill:none;stroke:#dba981;stroke-width:1.30349398;stroke-linecap:round;stroke-linejoin:miter;stroke-miterlimit:4;stroke-opacity:1;stroke-dasharray:3.91048212, 1.30349404;stroke-dashoffset:0" />
      <path
         sodipodi:nodetypes="cc"
         inkscape:connector-curvature="0"
         id="path14852-5-7-8-4"
         d="m 233.58846,408.4844 c 0,3.2248 -3.6394,3.2248 -4.3165,-0.8062"
         style="fill:none;stroke:#dba981;stroke-width:3.06775427;stroke-linecap:round;stroke-linejoin:miter;stroke-miterlimit:4;stroke-opacity:1;stroke-dasharray:none" />
      <path
         sodipodi:nodetypes="ccccccscccccccccc"
         inkscape:connector-curvature="0"
         id="path15418-4-6-4-4"
         d="m 169.85664,426.2208 c -0.16927,-20.9612 2.53912,-35.4728 6.94025,-23.3798 -2.79303,-4.8372 -5.9246,-12.093 -3.80867,-20.9612 -0.42319,-19.3488 -1.86202,-33.0542 -3.72404,-49.1782 -1.60811,-14.5116 -1.01565,-29.8294 -5.67069,-42.7286 -2.62376,-7.2558 -58.73822,-29.0232 -13.96514,-62.0774 9.31009,-6.4496 24.03697,-4.031 34.02416,-11.2868 9.98719,-6.4496 21.32857,-8.062 22.00567,-26.6046 4.73968,3.2248 14.72687,6.4496 24.03696,6.4496 8.71764,0 15.15006,-1.6124 23.44451,-4.8372 0.59246,4.031 5.33214,12.8992 10.66429,17.7364 13.96514,12.093 46.04264,15.3178 52.72898,24.186 34.02415,35.4728 -3.30086,41.1162 -15.31934,57.2402 -5.41678,10.4806 -4.73968,29.8294 -6.00924,39.5038 -3.38549,16.124 -4.48577,36.279 -6.77098,53.2092 1.52347,4.8372 -0.42318,14.5116 -1.52347,19.3488 1.52347,-12.8992 6.51707,16.9302 7.02489,22.5736"
         style="fill:none;stroke:#dba981;stroke-width:3.06775427;stroke-linecap:round;stroke-linejoin:round;stroke-miterlimit:4;stroke-opacity:1;stroke-dasharray:none" />
      <path
         sodipodi:nodetypes="cc"
         inkscape:connector-curvature="0"
         id="path3992-4-77-9-5-7-1-2-9-8-8-6-2-3-33-8-8"
         d="m 173.66532,382.686 115.19123,0.8062"
         style="fill:none;stroke:#dba981;stroke-width:1.2270025;stroke-linecap:round;stroke-linejoin:miter;stroke-miterlimit:4;stroke-opacity:1;stroke-dasharray:3.68092509, 1.22700256;stroke-dashoffset:0" />
      <path
         style="fill:none;stroke:#dba981;stroke-width:1.2270025;stroke-linecap:round;stroke-linejoin:miter;stroke-miterlimit:4;stroke-opacity:1;stroke-dasharray:3.68092509, 1.22700256;stroke-dashoffset:0"
         d="m 163.33958,289.1668 139.2282,0"
         id="path3992-4-77-9-5-7-1-2-9-8-8-6-2-3-33-2-8-8"
         inkscape:connector-curvature="0"
         sodipodi:nodetypes="cc" />
      <path
         style="fill:none;stroke:#000000;stroke-width:2.47812557;stroke-linecap:round;stroke-linejoin:round;stroke-miterlimit:4;stroke-opacity:1;stroke-dasharray:none;marker-start:url(#marker7359);marker-end:url(#marker7359)"
         d="m 168.24853,410.903 c -3.38548,16.9302 124.41669,14.5116 124.41669,-2.4186"
         id="path7494-1-6-3-5-81-64-9-2-9-5-3-0-6-1-6-8-6"
         inkscape:connector-curvature="0"
         sodipodi:nodetypes="cc" />
      <path
         sodipodi:type="arc"
         style="color:#000000;fill:#ffffff;fill-opacity:1;stroke:#00000f;stroke-width:3;stroke-linecap:round;stroke-linejoin:miter;stroke-miterlimit:4;stroke-opacity:0.94120029;stroke-dasharray:none;stroke-dashoffset:0;marker:none;visibility:visible;display:inline;overflow:visible;enable-background:accumulate"
         id="path4050-8-0-9-9-5-9-7-8-9-5-5-6-4-2-7"
         sodipodi:cx="57.75"
         sodipodi:cy="50.32"
         sodipodi:rx="20"
         sodipodi:ry="20"
         d="m 77.75,50.32 c 0,11.045695 -8.954305,20 -20,20 -11.045695,0 -20,-8.954305 -20,-20 0,-11.045695 8.954305,-20 20,-20 11.005217,0 19.942666,8.891225 19.999731,19.896294"
         sodipodi:start="0"
         sodipodi:end="6.278"
         sodipodi:open="true"
         transform="matrix(-0.75691052,0,0,0.72098466,249.50025,385.1046)" />
      <text
         transform="scale(1.0246116,0.97597961)"
         xml:space="preserve"
         style="font-size:14.86875343px;font-style:normal;font-variant:normal;font-weight:normal;font-stretch:normal;text-align:start;line-height:125%;letter-spacing:0px;word-spacing:0px;writing-mode:lr-tb;text-anchor:start;fill:#000000;fill-opacity:1;stroke:none;font-family:Standard Symbols L;-inkscape-font-specification:Standard Symbols L"
         x="196.41531"
         y="436.82935"
         id="text17174-0-6-5-2"
         sodipodi:linespacing="125%"><tspan
           sodipodi:role="line"
           id="tspan17176-0-8-75-4"
           x="196.41531"
           y="436.82935">3</tspan></text>
      <g
         id="text6934-2-5-81-4-6"
         style="font-size:17.42494011px;font-style:normal;font-variant:normal;font-weight:normal;font-stretch:normal;text-align:start;line-height:125%;letter-spacing:0px;word-spacing:0px;writing-mode:lr-tb;text-anchor:start;fill:#000000;fill-opacity:1;stroke:none;font-family:Standard Symbols L;-inkscape-font-specification:Standard Symbols L"
         transform="scale(1.0246116,0.9759796)">
        <path
           id="path16597"
           d="m 204.16318,169.5322 7.3001,0 0,1.4464 -5.58143,0 0,3.74364 5.0369,0 0,1.44641 -5.0369,0 0,6.0664 -1.71867,0 0,-12.70285"
           inkscape:connector-curvature="0" />
        <path
           id="path16599"
           d="m 218.39752,174.1692 c -0.17585,-0.10209 -0.3687,-0.17582 -0.57856,-0.22121 -0.20421,-0.051 -0.43109,-0.0766 -0.68066,-0.0766 -0.88487,0 -1.56553,0.28928 -2.04199,0.86784 -0.47079,0.5729 -0.70619,1.3982 -0.70619,2.47591 l 0,5.01988 -1.57403,0 0,-9.52927 1.57403,0 0,1.48044 c 0.32899,-0.57855 0.75724,-1.0068 1.28475,-1.28475 0.52751,-0.2836 1.16847,-0.4254 1.92287,-0.42541 0.10777,1e-5 0.22688,0.009 0.35735,0.0255 0.13045,0.0114 0.27509,0.0312 0.43392,0.0596 l 0.009,1.60806"
           inkscape:connector-curvature="0" />
        <path
           id="path16601"
           d="m 223.37486,173.80335 c -0.83949,1e-5 -1.50313,0.32899 -1.99094,0.98696 -0.48781,0.65231 -0.73171,1.54851 -0.73171,2.68861 0,1.14011 0.24107,2.03915 0.72321,2.69712 0.4878,0.65231 1.15428,0.97846 1.99944,0.97846 0.8338,0 1.49461,-0.32899 1.98243,-0.98696 0.4878,-0.65797 0.7317,-1.55418 0.73171,-2.68862 -1e-5,-1.12876 -0.24391,-2.02212 -0.73171,-2.6801 -0.48782,-0.66364 -1.14863,-0.99546 -1.98243,-0.99547 m 0,-1.32729 c 1.36132,1e-5 2.43052,0.44244 3.20762,1.32729 0.77708,0.88487 1.16562,2.11006 1.16563,3.67557 -1e-5,1.55986 -0.38855,2.78505 -1.16563,3.67558 -0.7771,0.88486 -1.8463,1.32729 -3.20762,1.32729 -1.367,0 -2.43904,-0.44243 -3.21613,-1.32729 -0.77142,-0.89053 -1.15712,-2.11572 -1.15712,-3.67558 0,-1.56551 0.3857,-2.7907 1.15712,-3.67557 0.77709,-0.88485 1.84913,-1.32728 3.21613,-1.32729"
           inkscape:connector-curvature="0" />
        <path
           id="path16603"
           d="m 238.25582,176.48345 0,5.7516 -1.56552,0 0,-5.70055 c 0,-0.90187 -0.17584,-1.57685 -0.52751,-2.02496 -0.35168,-0.4481 -0.87919,-0.67215 -1.58254,-0.67216 -0.84516,1e-5 -1.51164,0.26944 -1.99944,0.80829 -0.48781,0.53886 -0.73172,1.27341 -0.73171,2.20364 l 0,5.38574 -1.57403,0 0,-9.52927 1.57403,0 0,1.48044 c 0.37436,-0.57288 0.81395,-1.00113 1.31878,-1.28475 0.51049,-0.2836 1.09756,-0.4254 1.76121,-0.42541 1.09472,1e-5 1.92286,0.34034 2.48442,1.02099 0.56153,0.675 0.84231,1.67047 0.84231,2.9864"
           inkscape:connector-curvature="0" />
        <path
           id="path16605"
           d="m 242.94388,170.00015 0,2.70563 3.22464,0 0,1.21669 -3.22464,0 0,5.17302 c 0,0.7771 0.10493,1.27625 0.31481,1.49746 0.21554,0.22122 0.64946,0.33182 1.30176,0.33182 l 1.60807,0 0,1.31028 -1.60807,0 c -1.20817,0 -2.04198,-0.22405 -2.50143,-0.67216 -0.45945,-0.45377 -0.68917,-1.27624 -0.68917,-2.4674 l 0,-5.17302 -1.14861,0 0,-1.21669 1.14861,0 0,-2.70563 1.57403,0"
           inkscape:connector-curvature="0" />
      </g>
    </g>
  </g>
</svg>
