<?xml version="1.0" encoding="UTF-8" standalone="no"?>
<!-- Created with Inkscape (http://www.inkscape.org/) -->

<svg
   xmlns:dc="http://purl.org/dc/elements/1.1/"
   xmlns:cc="http://creativecommons.org/ns#"
   xmlns:rdf="http://www.w3.org/1999/02/22-rdf-syntax-ns#"
   xmlns:svg="http://www.w3.org/2000/svg"
   xmlns="http://www.w3.org/2000/svg"
   xmlns:sodipodi="http://sodipodi.sourceforge.net/DTD/sodipodi-0.dtd"
   xmlns:inkscape="http://www.inkscape.org/namespaces/inkscape"
   width="191.73273"
   height="274.0737"
   id="svg16670"
   version="1.1"
   inkscape:version="0.48.4 r9939"
   sodipodi:docname="Новий документ 242">
  <defs
     id="defs16672" />
  <sodipodi:namedview
     id="base"
     pagecolor="#ffffff"
     bordercolor="#666666"
     borderopacity="1.0"
     inkscape:pageopacity="0.0"
     inkscape:pageshadow="2"
     inkscape:zoom="1.4"
     inkscape:cx="31.548337"
     inkscape:cy="210.46486"
     inkscape:document-units="px"
     inkscape:current-layer="layer1"
     showgrid="false"
     fit-margin-top="0"
     fit-margin-left="0"
     fit-margin-right="0"
     fit-margin-bottom="0"
     inkscape:window-width="1855"
     inkscape:window-height="1056"
     inkscape:window-x="65"
     inkscape:window-y="24"
     inkscape:window-maximized="1" />
  <metadata
     id="metadata16675">
    <rdf:RDF>
      <cc:Work
         rdf:about="">
        <dc:format>image/svg+xml</dc:format>
        <dc:type
           rdf:resource="http://purl.org/dc/dcmitype/StillImage" />
        <dc:title></dc:title>
      </cc:Work>
    </rdf:RDF>
  </metadata>
  <g
     inkscape:label="Layer 1"
     inkscape:groupmode="layer"
     id="layer1"
     transform="translate(-218.41935,-211.39671)">
    <g
       id="g16735">
      <path
         sodipodi:nodetypes="cc"
         inkscape:connector-curvature="0"
         id="path8584-1-4-6-3-4-4-4-4-6-3-7-3-1-0"
         d="m 380.59722,337.7515 c -7.01394,-4.8372 -15.88214,-31.4418 -0.64496,-61.2712"
         style="fill:none;stroke:#dba981;stroke-width:1.27218354;stroke-linecap:round;stroke-linejoin:miter;stroke-miterlimit:4;stroke-opacity:1;stroke-dasharray:3.8165508, 1.2721836;stroke-dashoffset:0" />
      <path
         sodipodi:nodetypes="cc"
         inkscape:connector-curvature="0"
         id="path8584-6-7-8-0-3-1-3-3-1-8-0-4-2-3-1"
         d="m 249.83158,336.9453 c 6.36898,-10.4806 8.62634,-27.4108 -4.11162,-63.6898"
         style="fill:none;stroke:#dba981;stroke-width:1.27218354;stroke-linecap:round;stroke-linejoin:miter;stroke-miterlimit:4;stroke-opacity:1;stroke-dasharray:3.8165508, 1.2721836;stroke-dashoffset:0" />
      <path
         sodipodi:nodetypes="cc"
         inkscape:connector-curvature="0"
         id="path3992-4-77-9-5-7-1-2-90-18-83-4-1-9-34"
         d="m 285.7881,253.9067 c 10.23874,16.124 46.43712,16.9302 54.74098,0"
         style="fill:none;stroke:#dba981;stroke-width:1.27218354;stroke-linecap:round;stroke-linejoin:miter;stroke-miterlimit:4;stroke-opacity:1;stroke-dasharray:3.8165508, 1.2721836;stroke-dashoffset:0" />
      <path
         sodipodi:nodetypes="cc"
         inkscape:connector-curvature="0"
         id="path14852-5-7-8-4-2"
         d="m 316.34308,457.0691 c 0,3.2248 -3.46666,3.2248 -4.11162,-0.8062"
         style="fill:none;stroke:#dba981;stroke-width:2.99406552;stroke-linecap:round;stroke-linejoin:miter;stroke-miterlimit:4;stroke-opacity:1;stroke-dasharray:none" />
      <path
         sodipodi:nodetypes="ccccccscccccccccc"
         inkscape:connector-curvature="0"
         id="path15418-4-6-4-4-2"
         d="m 255.63622,474.8055 c -0.16124,-20.9612 2.4186,-35.4728 6.61084,-23.3798 -2.66046,-4.8372 -5.6434,-12.093 -3.6279,-20.9612 -0.4031,-19.3488 -1.77364,-33.0542 -3.54728,-49.1782 -1.53178,-14.5116 -0.96744,-29.8294 -5.40154,-42.7286 -2.49922,-7.2558 -55.95028,-29.0232 -13.3023,-62.0774 8.8682,-6.4496 22.89608,-4.031 32.40924,-11.2868 9.51316,-6.4496 20.31624,-8.062 20.9612,-26.6046 4.51472,3.2248 14.02788,6.4496 22.89608,6.4496 8.30386,0 14.43098,-1.6124 22.33174,-4.8372 0.56434,4.031 5.07906,12.8992 10.15812,17.7364 13.3023,12.093 43.85728,15.3178 50.22626,24.186 32.40924,35.4728 -3.14418,41.1162 -14.59222,57.2402 -5.15968,10.4806 -4.51472,29.8294 -5.72402,39.5038 -3.2248,16.124 -4.27286,36.279 -6.4496,53.2092 1.45116,4.8372 -0.4031,14.5116 -1.45116,19.3488 1.45116,-12.8992 6.20774,16.9302 6.69146,22.5736"
         style="fill:none;stroke:#dba981;stroke-width:2.99406552;stroke-linecap:round;stroke-linejoin:round;stroke-miterlimit:4;stroke-opacity:1;stroke-dasharray:none" />
      <path
         sodipodi:nodetypes="cc"
         inkscape:connector-curvature="0"
         id="path3992-4-77-9-5-7-1-2-9-8-8-6-2-3-33-8-8-8"
         d="m 259.26412,431.2707 109.72382,0.8062"
         style="fill:none;stroke:#dba981;stroke-width:1.19752944;stroke-linecap:round;stroke-linejoin:miter;stroke-miterlimit:4;stroke-opacity:1;stroke-dasharray:3.59250782, 1.19752948;stroke-dashoffset:0" />
      <path
         style="fill:none;stroke:#dba981;stroke-width:1.19752944;stroke-linecap:round;stroke-linejoin:miter;stroke-miterlimit:4;stroke-opacity:1;stroke-dasharray:3.59250782, 1.19752948;stroke-dashoffset:0"
         d="m 249.42848,337.7515 132.6199,0"
         id="path3992-4-77-9-5-7-1-2-9-8-8-6-2-3-33-2-8-8-4"
         inkscape:connector-curvature="0"
         sodipodi:nodetypes="cc" />
      <path
         style="fill:none;stroke:#000000;stroke-width:2.41860008;stroke-linecap:round;stroke-linejoin:round;stroke-miterlimit:4;stroke-opacity:1;stroke-dasharray:none;marker-start:url(#marker7359);marker-end:url(#marker7359)"
         d="m 254.10444,459.4877 c -3.2248,16.9302 118.5114,14.5116 118.5114,-2.4186"
         id="path7494-1-6-3-5-81-64-9-2-9-5-3-0-6-1-6-8-6-4"
         inkscape:connector-curvature="0"
         sodipodi:nodetypes="cc" />
      <path
         sodipodi:type="arc"
         style="color:#000000;fill:#ffffff;fill-opacity:1;stroke:#00000f;stroke-width:3;stroke-linecap:round;stroke-linejoin:miter;stroke-miterlimit:4;stroke-opacity:0.94120029;stroke-dasharray:none;stroke-dashoffset:0;marker:none;visibility:visible;display:inline;overflow:visible;enable-background:accumulate"
         id="path4050-8-0-9-9-5-9-7-8-9-5-5-6-4-2-7-8"
         sodipodi:cx="57.75"
         sodipodi:cy="50.32"
         sodipodi:rx="20"
         sodipodi:ry="20"
         d="m 77.75,50.32 c 0,11.045695 -8.954305,20 -20,20 -11.045695,0 -20,-8.954305 -20,-20 0,-11.045695 8.954305,-20 20,-20 11.005217,0 19.942666,8.891225 19.999731,19.896294"
         sodipodi:start="0"
         sodipodi:end="6.278"
         sodipodi:open="true"
         transform="matrix(-0.72098466,0,0,0.72098466,331.49964,433.6893)" />
      <text
         xml:space="preserve"
         style="font-size:14.51159954px;font-style:normal;font-variant:normal;font-weight:normal;font-stretch:normal;text-align:start;line-height:125%;letter-spacing:0px;word-spacing:0px;writing-mode:lr-tb;text-anchor:start;fill:#000000;fill-opacity:1;stroke:none;font-family:Standard Symbols L;-inkscape-font-specification:Standard Symbols L"
         x="285.53897"
         y="474.92123"
         id="text17174-0-6-5-2-3"
         sodipodi:linespacing="125%"><tspan
           sodipodi:role="line"
           id="tspan17176-0-8-75-4-6"
           x="285.53897"
           y="474.92123">4</tspan></text>
      <g
         id="text6934-2-5-81-4-6-6"
         style="font-size:17.0063858px;font-style:normal;font-variant:normal;font-weight:normal;font-stretch:normal;text-align:start;line-height:125%;letter-spacing:0px;word-spacing:0px;writing-mode:lr-tb;text-anchor:start;fill:#000000;fill-opacity:1;stroke:none;font-family:Standard Symbols L;-inkscape-font-specification:Standard Symbols L">
        <path
           id="path16725"
           d="m 291.58376,211.39671 7.12474,0 0,1.41166 -5.44736,0 0,3.65372 4.91591,0 0,1.41166 -4.91591,0 0,5.92068 -1.67738,0 0,-12.39772"
           inkscape:connector-curvature="0" />
        <path
           id="path16727"
           d="m 305.47618,215.92234 c -0.17162,-0.0996 -0.35984,-0.17161 -0.56467,-0.2159 -0.19929,-0.0498 -0.42073,-0.0747 -0.66431,-0.0747 -0.86361,1e-5 -1.52792,0.28234 -1.99293,0.847 -0.45949,0.55913 -0.68923,1.36461 -0.68923,2.41643 l 0,4.8993 -1.53622,0 0,-9.30036 1.53622,0 0,1.44487 c 0.32108,-0.56465 0.73905,-0.98261 1.25389,-1.25388 0.51484,-0.27679 1.1404,-0.41519 1.87668,-0.4152 0.10518,1e-5 0.22143,0.008 0.34877,0.0249 0.12732,0.0111 0.26848,0.0305 0.4235,0.0581 l 0.008,1.56944"
           inkscape:connector-curvature="0" />
        <path
           id="path16729"
           d="m 310.33396,215.56527 c -0.81932,1e-5 -1.46702,0.32109 -1.94311,0.96325 -0.47609,0.63664 -0.71414,1.51132 -0.71414,2.62403 0,1.11273 0.23528,1.99017 0.70584,2.63234 0.47608,0.63663 1.12655,0.95495 1.95141,0.95495 0.81378,0 1.45871,-0.32108 1.93481,-0.96325 0.47608,-0.64217 0.71413,-1.51685 0.71414,-2.62404 -1e-5,-1.10164 -0.23806,-1.97355 -0.71414,-2.61572 -0.4761,-0.6477 -1.12103,-0.97155 -1.93481,-0.97156 m 0,-1.29541 c 1.32862,1e-5 2.37214,0.43181 3.13057,1.29541 0.75842,0.86361 1.13763,2.05937 1.13764,3.58728 -10e-6,1.52239 -0.37922,2.71815 -1.13764,3.58729 -0.75843,0.8636 -1.80195,1.29541 -3.13057,1.29541 -1.33416,0 -2.38045,-0.43181 -3.13887,-1.29541 -0.75289,-0.86914 -1.12933,-2.0649 -1.12933,-3.58729 0,-1.52791 0.37644,-2.72367 1.12933,-3.58728 0.75842,-0.8636 1.80471,-1.2954 3.13887,-1.29541"
           inkscape:connector-curvature="0" />
        <path
           id="path16731"
           d="m 324.85748,218.181 0,5.61343 -1.52792,0 0,-5.56361 c -1e-5,-0.88021 -0.17162,-1.53898 -0.51484,-1.97633 -0.34323,-0.43733 -0.85808,-0.656 -1.54452,-0.65601 -0.82486,1e-5 -1.47533,0.26297 -1.95142,0.78888 -0.47609,0.52592 -0.71414,1.24282 -0.71414,2.15071 l 0,5.25636 -1.53622,0 0,-9.30036 1.53622,0 0,1.44487 c 0.36537,-0.55912 0.79441,-0.97708 1.28711,-1.25388 0.49823,-0.27679 1.0712,-0.41519 1.71891,-0.4152 1.06842,1e-5 1.87667,0.33217 2.42473,0.99647 0.54805,0.65878 0.82208,1.63034 0.82209,2.91467"
           inkscape:connector-curvature="0" />
        <path
           id="path16733"
           d="m 329.43293,211.85343 0,2.64064 3.14718,0 0,1.18745 -3.14718,0 0,5.04877 c 0,0.75843 0.10241,1.24559 0.30724,1.46149 0.21036,0.2159 0.63386,0.32385 1.2705,0.32385 l 1.56944,0 0,1.2788 -1.56944,0 c -1.17916,0 -1.99294,-0.21867 -2.44135,-0.656 -0.44841,-0.44288 -0.67261,-1.24559 -0.67261,-2.40814 l 0,-5.04877 -1.12103,0 0,-1.18745 1.12103,0 0,-2.64064 1.53622,0"
           inkscape:connector-curvature="0" />
      </g>
    </g>
  </g>
</svg>
