<?xml version="1.0" encoding="UTF-8" standalone="no"?>
<!-- Created with Inkscape (http://www.inkscape.org/) -->

<svg
   xmlns:dc="http://purl.org/dc/elements/1.1/"
   xmlns:cc="http://creativecommons.org/ns#"
   xmlns:rdf="http://www.w3.org/1999/02/22-rdf-syntax-ns#"
   xmlns:svg="http://www.w3.org/2000/svg"
   xmlns="http://www.w3.org/2000/svg"
   xmlns:sodipodi="http://sodipodi.sourceforge.net/DTD/sodipodi-0.dtd"
   xmlns:inkscape="http://www.inkscape.org/namespaces/inkscape"
   width="198.88637"
   height="275.8013"
   id="svg16797"
   version="1.1"
   inkscape:version="0.48.4 r9939"
   sodipodi:docname="Новий документ 245">
  <defs
     id="defs16799" />
  <sodipodi:namedview
     id="base"
     pagecolor="#ffffff"
     bordercolor="#666666"
     borderopacity="1.0"
     inkscape:pageopacity="0.0"
     inkscape:pageshadow="2"
     inkscape:zoom="1.979899"
     inkscape:cx="243.07256"
     inkscape:cy="147.87047"
     inkscape:document-units="px"
     inkscape:current-layer="layer1"
     showgrid="false"
     fit-margin-top="0"
     fit-margin-left="0"
     fit-margin-right="0"
     fit-margin-bottom="0"
     inkscape:window-width="1855"
     inkscape:window-height="1056"
     inkscape:window-x="65"
     inkscape:window-y="24"
     inkscape:window-maximized="1" />
  <metadata
     id="metadata16802">
    <rdf:RDF>
      <cc:Work
         rdf:about="">
        <dc:format>image/svg+xml</dc:format>
        <dc:type
           rdf:resource="http://purl.org/dc/dcmitype/StillImage" />
        <dc:title></dc:title>
      </cc:Work>
    </rdf:RDF>
  </metadata>
  <g
     inkscape:label="Layer 1"
     inkscape:groupmode="layer"
     id="layer1"
     transform="translate(-89.123905,-237.30661)">
    <g
       id="g16860">
      <g
         id="text6934-6-9-7-0-1-7-4-8-1"
         style="font-size:14.76185322px;font-style:normal;font-variant:normal;font-weight:normal;font-stretch:normal;text-align:start;line-height:125%;letter-spacing:0px;word-spacing:0px;writing-mode:lr-tb;text-anchor:start;fill:#000000;fill-opacity:1;stroke:none;font-family:Standard Symbols L;-inkscape-font-specification:Standard Symbols L"
         transform="scale(1.0172451,0.98304728)">
        <path
           id="path16852"
           d="m 168.61705,247.47527 0,3.94275 2.33537,0 c 0.78326,0 1.36229,-0.16098 1.73711,-0.48294 0.37961,-0.32675 0.56942,-0.8241 0.56943,-1.49204 -1e-5,-0.67274 -0.18982,-1.16768 -0.56943,-1.48483 -0.37482,-0.32195 -0.95385,-0.48293 -1.73711,-0.48294 l -2.33537,0 m 0,-4.42567 0,3.24357 2.15517,0 c 0.71118,1e-5 1.23976,-0.13214 1.58575,-0.39643 0.35078,-0.26909 0.52617,-0.67754 0.52618,-1.22535 -1e-5,-0.54299 -0.1754,-0.94904 -0.52618,-1.21814 -0.34599,-0.26909 -0.87457,-0.40364 -1.58575,-0.40365 l -2.15517,0 m -1.45601,-1.19652 3.7193,0 c 1.11002,1e-5 1.96536,0.23067 2.56603,0.69197 0.60065,0.46131 0.90098,1.11723 0.90099,1.96776 -1e-5,0.65833 -0.15378,1.18211 -0.46131,1.57133 -0.30755,0.38924 -0.75924,0.6319 -1.35509,0.728 0.71598,0.15378 1.27099,0.47573 1.66503,0.96587 0.39883,0.48534 0.59825,1.0932 0.59826,1.82361 -1e-5,0.96106 -0.32677,1.70347 -0.98028,2.22725 -0.65353,0.52377 -1.58335,0.78566 -2.78947,0.78566 l -3.86346,0 0,-10.76145"
           inkscape:connector-curvature="0" />
        <path
           id="path16854"
           d="m 180.89216,248.55646 c -1.07158,1e-5 -1.814,0.12254 -2.22725,0.36761 -0.41326,0.24507 -0.61988,0.66313 -0.61988,1.25418 0,0.47092 0.15377,0.84573 0.46131,1.12444 0.31234,0.2739 0.7352,0.41085 1.26859,0.41085 0.73521,0 1.32386,-0.25948 1.76595,-0.77846 0.44688,-0.52377 0.67033,-1.21813 0.67034,-2.08309 l 0,-0.29553 -1.31906,0 m 2.64532,-0.5478 0,4.60587 -1.32626,0 0,-1.22535 c -0.30274,0.49014 -0.67996,0.85294 -1.13165,1.0884 -0.4517,0.23066 -1.00431,0.34598 -1.65783,0.34598 -0.82651,0 -1.48483,-0.23065 -1.97497,-0.69196 -0.48534,-0.46611 -0.728,-1.0884 -0.728,-1.86685 0,-0.9082 0.30273,-1.59295 0.9082,-2.05427 0.61027,-0.4613 1.51847,-0.69195 2.7246,-0.69196 l 1.85965,0 0,-0.12974 c -1e-5,-0.61027 -0.20183,-1.08119 -0.60547,-1.41276 -0.39885,-0.33636 -0.96106,-0.50455 -1.68666,-0.50455 -0.46131,0 -0.9106,0.0553 -1.34788,0.16578 -0.43729,0.11053 -0.85775,0.27631 -1.26139,0.49735 l 0,-1.22535 c 0.48533,-0.1874 0.95625,-0.32675 1.41275,-0.41806 0.4565,-0.0961 0.90099,-0.14415 1.33347,-0.14416 1.16768,1e-5 2.03984,0.30274 2.61648,0.9082 0.57663,0.60547 0.86495,1.52328 0.86496,2.75343"
           inkscape:connector-curvature="0" />
        <path
           id="path16856"
           d="m 192.08609,244.85159 0,1.23976 c -0.37482,-0.20662 -0.75204,-0.36039 -1.13165,-0.46131 -0.37482,-0.10571 -0.75443,-0.15857 -1.13885,-0.15857 -0.86015,0 -1.52809,0.27391 -2.00381,0.8217 -0.47572,0.54301 -0.71359,1.30705 -0.71358,2.29213 -1e-5,0.98508 0.23786,1.75153 0.71358,2.29933 0.47572,0.543 1.14366,0.8145 2.00381,0.81449 0.38442,1e-5 0.76403,-0.0504 1.13885,-0.15136 0.37961,-0.10572 0.75683,-0.26189 1.13165,-0.46852 l 0,1.22535 c -0.37002,0.17299 -0.75444,0.30273 -1.15327,0.38923 -0.39404,0.0865 -0.8145,0.12974 -1.26139,0.12974 -1.21574,0 -2.1816,-0.38202 -2.89759,-1.14606 -0.71599,-0.76404 -1.07398,-1.79477 -1.07398,-3.0922 0,-1.31665 0.36039,-2.35219 1.08119,-3.10662 0.72559,-0.75443 1.71789,-1.13164 2.97688,-1.13165 0.40844,1e-5 0.80728,0.0433 1.19651,0.12974 0.38923,0.0817 0.76644,0.20664 1.13165,0.37482"
           inkscape:connector-curvature="0" />
        <path
           id="path16858"
           d="m 194.35659,241.39898 1.33347,0 0,6.6241 3.95715,-3.48144 1.69387,0 -4.28152,3.77696 4.46172,4.29593 -1.72991,0 -4.10131,-3.94274 0,3.94274 -1.33347,0 0,-11.21555"
           inkscape:connector-curvature="0" />
      </g>
      <path
         sodipodi:nodetypes="cc"
         inkscape:connector-curvature="0"
         id="path8584-1-4-6-3-4-4-4-4-6-0-1-4-7-6-5"
         d="m 256.95348,366.2006 c 1.66849,-16.124 6.67397,-45.9534 0,-61.2712"
         style="fill:none;stroke:#dba981;stroke-width:1.29658282;stroke-linecap:round;stroke-linejoin:miter;stroke-miterlimit:4;stroke-opacity:1;stroke-dasharray:3.88974842, 1.29658281;stroke-dashoffset:0" />
      <path
         sodipodi:nodetypes="cc"
         inkscape:connector-curvature="0"
         id="path8584-6-7-8-0-3-1-3-3-1-8-4-9-2-7-2"
         d="m 122.63992,365.3944 c -7.50821,-48.372 -6.67397,-50.7906 -5.00547,-64.496"
         style="fill:none;stroke:#dba981;stroke-width:1.29658282;stroke-linecap:round;stroke-linejoin:miter;stroke-miterlimit:4;stroke-opacity:1;stroke-dasharray:3.88974842, 1.29658281;stroke-dashoffset:0" />
      <path
         sodipodi:nodetypes="cc"
         inkscape:connector-curvature="0"
         id="path3992-4-77-9-5-7-1-2-90-18-5-4-9-8-0"
         d="m 159.34673,282.3558 c 11.67944,-4.8372 43.38078,-5.6434 56.72871,0"
         style="fill:none;stroke:#dba981;stroke-width:1.29658282;stroke-linecap:round;stroke-linejoin:miter;stroke-miterlimit:4;stroke-opacity:1;stroke-dasharray:3.88974842, 1.29658281;stroke-dashoffset:0" />
      <path
         sodipodi:nodetypes="ccccccscccccccsac"
         inkscape:connector-curvature="0"
         id="path15418-3-7-3-6-3"
         d="m 127.64539,503.2546 c 0,-4.8372 0.83425,-17.7364 1.6685,-26.6046 1.66849,-8.8682 3.33698,-15.3178 2.50273,-18.5426 0,-20.155 -2.50273,-32.248 -5.00547,-48.372 -0.83425,-14.5116 -0.83425,-29.8294 -5.00548,-42.7286 -2.50273,-7.2558 -58.397195,-29.8294 -14.18217,-62.0774 9.1767,-7.2558 24.19312,-4.8372 33.36983,-11.2868 10.01094,-6.4496 21.69038,-8.8682 22.52463,-26.6046 5.83972,-1.6124 15.01642,-2.4186 24.19313,-2.4186 9.1767,0 16.68491,1.6124 22.52463,3.2248 0,4.8372 5.00547,13.7054 10.01095,17.7364 14.18218,12.8992 45.88351,16.124 52.55748,24.9922 33.36983,35.4728 -3.33698,41.1162 -15.01642,57.2402 -5.83972,10.4806 -5.00548,29.8294 -6.67397,39.5038 -2.50274,16.124 -6.67397,36.279 -5.83972,54.8216 0,5.6434 1.66849,11.2868 2.50274,17.7364 1.66849,7.2558 1.66849,16.9302 2.50273,22.5736"
         style="fill:none;stroke:#dba981;stroke-width:3.0515213;stroke-linecap:round;stroke-linejoin:miter;stroke-miterlimit:4;stroke-opacity:1;stroke-dasharray:none" />
      <path
         sodipodi:nodetypes="cc"
         inkscape:connector-curvature="0"
         id="path3992-4-77-9-5-7-1-2-9-8-8-6-2-3-2-0-4-6-0"
         d="m 131.81662,459.7198 113.45742,0.8062"
         style="fill:none;stroke:#dba981;stroke-width:1.22047722;stroke-linecap:round;stroke-linejoin:miter;stroke-miterlimit:4;stroke-opacity:1;stroke-dasharray:3.66143175, 1.22047725;stroke-dashoffset:0" />
      <path
         style="opacity:0.3;fill:none;stroke:#000000;stroke-width:1.29658282;stroke-linecap:round;stroke-linejoin:miter;stroke-miterlimit:4;stroke-opacity:0;stroke-dasharray:3.88974842, 1.29658281;stroke-dashoffset:0"
         d="m 166.0207,285.5806 c 2.50273,5.6434 15.85067,8.062 25.02737,8.062 7.50821,-0.8062 18.3534,-2.4186 21.69039,-8.062"
         id="path3992-4-94-7-98-1-3-4-7-3-5-3-43-4-4-8-6-4-3"
         inkscape:connector-curvature="0"
         sodipodi:nodetypes="cac" />
      <path
         style="fill:none;stroke:#dba981;stroke-width:1.22047722;stroke-linecap:round;stroke-linejoin:miter;stroke-miterlimit:4;stroke-opacity:1;stroke-dasharray:3.66143175, 1.22047725;stroke-dashoffset:0"
         d="m 120.13718,366.2006 137.65055,0"
         id="path3992-4-77-9-5-7-1-2-9-8-8-6-2-3-7-6-31-8-0-3"
         inkscape:connector-curvature="0"
         sodipodi:nodetypes="cc" />
      <path
         style="fill:none;stroke:#7dc832;stroke-width:2.46030903;stroke-linecap:round;stroke-linejoin:round;stroke-miterlimit:4;stroke-opacity:1;stroke-dasharray:none;marker-start:url(#marker7359);marker-end:url(#marker7359)"
         d="m 127.64539,495.1926 c 0,6.4496 121.79988,6.4496 120.96563,0"
         id="path7494-1-6-3-5-81-64-9-2-9-5-3-0-6-1-6-8-1-2"
         inkscape:connector-curvature="0"
         sodipodi:nodetypes="cc" />
      <path
         sodipodi:type="arc"
         style="color:#000000;fill:#ffffff;fill-opacity:1;stroke:#00000f;stroke-width:3;stroke-linecap:round;stroke-linejoin:miter;stroke-miterlimit:4;stroke-opacity:0.94120029;stroke-dasharray:none;stroke-dashoffset:0;marker:none;visibility:visible;display:inline;overflow:visible;enable-background:accumulate"
         id="path4050-8-0-9-9-5-9-7-8-9-5-5-6-4-2-2-8"
         sodipodi:cx="57.75"
         sodipodi:cy="50.32"
         sodipodi:rx="20"
         sodipodi:ry="20"
         d="m 77.75,50.32 c 0,11.045695 -8.954305,20 -20,20 -11.045695,0 -20,-8.954305 -20,-20 0,-11.045695 8.954305,-20 20,-20 11.005217,0 19.942666,8.891225 19.999731,19.896294"
         sodipodi:start="0"
         sodipodi:end="6.278"
         sodipodi:open="true"
         transform="matrix(-0.74606594,0,0,0.72098466,202.72751,461.3322)" />
      <text
         transform="scale(1.0172451,0.98304728)"
         xml:space="preserve"
         style="font-size:14.76185322px;font-style:normal;font-variant:normal;font-weight:normal;font-stretch:normal;text-align:start;line-height:125%;letter-spacing:0px;word-spacing:0px;writing-mode:lr-tb;text-anchor:start;fill:#000000;fill-opacity:1;stroke:none;font-family:Standard Symbols L;-inkscape-font-specification:Standard Symbols L"
         x="153.01067"
         y="510.63144"
         id="text17174-0-6-5-8-0"
         sodipodi:linespacing="125%"><tspan
           sodipodi:role="line"
           id="tspan17176-0-8-75-8-2"
           x="153.01067"
           y="510.63144">5</tspan></text>
    </g>
  </g>
</svg>
