<?xml version="1.0" encoding="UTF-8" standalone="no"?>
<!-- Created with Inkscape (http://www.inkscape.org/) -->

<svg
   xmlns:dc="http://purl.org/dc/elements/1.1/"
   xmlns:cc="http://creativecommons.org/ns#"
   xmlns:rdf="http://www.w3.org/1999/02/22-rdf-syntax-ns#"
   xmlns:svg="http://www.w3.org/2000/svg"
   xmlns="http://www.w3.org/2000/svg"
   xmlns:sodipodi="http://sodipodi.sourceforge.net/DTD/sodipodi-0.dtd"
   xmlns:inkscape="http://www.inkscape.org/namespaces/inkscape"
   width="197.15315"
   height="265.20511"
   id="svg16925"
   version="1.1"
   inkscape:version="0.48.4 r9939"
   sodipodi:docname="Новий документ 248">
  <defs
     id="defs16927">
    <marker
       inkscape:stockid="Arrow2Mend"
       orient="auto"
       refY="0"
       refX="0"
       id="marker18919"
       style="overflow:visible">
      <path
         id="path18921"
         style="fill-rule:evenodd;stroke-width:0.625;stroke-linejoin:round"
         d="M 8.719,4.034 -2.207,0.016 8.719,-4.002 c -1.746,2.372 -1.736,5.618 0,8.036 z"
         transform="scale(-0.6,-0.6)"
         inkscape:connector-curvature="0" />
    </marker>
  </defs>
  <sodipodi:namedview
     id="base"
     pagecolor="#ffffff"
     bordercolor="#666666"
     borderopacity="1.0"
     inkscape:pageopacity="0.0"
     inkscape:pageshadow="2"
     inkscape:zoom="1.979899"
     inkscape:cx="82.907535"
     inkscape:cy="180.95169"
     inkscape:document-units="px"
     inkscape:current-layer="layer1"
     showgrid="false"
     fit-margin-top="0"
     fit-margin-left="0"
     fit-margin-right="0"
     fit-margin-bottom="0"
     inkscape:window-width="1855"
     inkscape:window-height="1056"
     inkscape:window-x="65"
     inkscape:window-y="24"
     inkscape:window-maximized="1" />
  <metadata
     id="metadata16930">
    <rdf:RDF>
      <cc:Work
         rdf:about="">
        <dc:format>image/svg+xml</dc:format>
        <dc:type
           rdf:resource="http://purl.org/dc/dcmitype/StillImage" />
        <dc:title></dc:title>
      </cc:Work>
    </rdf:RDF>
  </metadata>
  <g
     inkscape:label="Layer 1"
     inkscape:groupmode="layer"
     id="layer1"
     transform="translate(-61.418848,-216.90434)">
    <g
       id="g17000">
      <path
         sodipodi:nodetypes="cc"
         inkscape:connector-curvature="0"
         id="path8584-1-4-6-3-4-4-4-4-6-3-7-3-1-9"
         d="m 228.50596,343.5325 c -7.47301,-4.8372 -16.60669,-31.4418 -0.83034,-61.2712"
         style="fill:none;stroke:#dba981;stroke-width:1.29108512;stroke-linecap:round;stroke-linejoin:miter;stroke-miterlimit:4;stroke-opacity:1;stroke-dasharray:3.87325556, 1.29108519;stroke-dashoffset:0" />
      <path
         sodipodi:nodetypes="cc"
         inkscape:connector-curvature="0"
         id="path8584-6-7-8-0-3-1-3-3-1-8-0-4-2-3-8"
         d="m 93.742691,342.7263 c 6.559639,-10.4806 8.884579,-27.4108 -4.234705,-63.6898"
         style="fill:none;stroke:#dba981;stroke-width:1.29108512;stroke-linecap:round;stroke-linejoin:miter;stroke-miterlimit:4;stroke-opacity:1;stroke-dasharray:3.87325556, 1.29108519;stroke-dashoffset:0" />
      <path
         sodipodi:nodetypes="cc"
         inkscape:connector-curvature="0"
         id="path3992-4-77-9-5-7-1-2-90-18-83-4-1-9-3"
         d="m 130.5265,259.6877 c 10.79435,16.124 48.1594,16.9302 56.46274,0"
         style="fill:none;stroke:#dba981;stroke-width:1.29108512;stroke-linecap:round;stroke-linejoin:miter;stroke-miterlimit:4;stroke-opacity:1;stroke-dasharray:3.87325556, 1.29108519;stroke-dashoffset:0" />
      <path
         sodipodi:nodetypes="cc"
         inkscape:connector-curvature="0"
         id="path14852-5-7-8-4-8"
         d="m 162.07921,462.8501 c 0,3.2248 -3.32134,3.2248 -4.15167,-0.8062"
         style="fill:none;stroke:#dba981;stroke-width:3.03855014;stroke-linecap:round;stroke-linejoin:miter;stroke-miterlimit:4;stroke-opacity:1;stroke-dasharray:none" />
      <path
         sodipodi:nodetypes="ccccccscccccccccc"
         inkscape:connector-curvature="0"
         id="path15418-4-6-4-4-6"
         d="m 99.721099,480.5865 c -0.166067,-20.9612 2.491001,-35.4728 6.808741,-23.3798 -2.7401,-4.8372 -5.81234,-12.093 -3.7365,-20.9612 -0.41517,-19.3488 -1.82674,-33.0542 -3.653475,-49.1782 -1.577636,-14.5116 -0.996402,-29.8294 -5.563241,-42.7286 -2.574036,-7.2558 -57.625203,-29.0232 -13.700516,-62.0774 9.133678,-6.4496 23.581492,-4.031 33.379442,-11.2868 9.79794,-6.4496 20.59229,-8.062 21.42262,-26.6046 4.98201,3.2248 14.94602,6.4496 24.0797,6.4496 8.30334,0 14.94602,-1.6124 22.41903,-4.8372 0.83033,4.031 5.81234,12.8992 10.79434,17.7364 13.28535,12.093 44.83806,15.3178 51.48073,24.186 33.21338,35.4728 -3.32133,41.1162 -14.94601,57.2402 -4.98201,10.4806 -4.15168,29.8294 -5.81234,39.5038 -3.32134,16.124 -4.15168,36.279 -6.64268,53.2092 1.66067,4.8372 0,14.5116 -1.66067,19.3488 1.66067,-12.8992 6.64268,16.9302 7.47301,22.5736"
         style="fill:none;stroke:#dba981;stroke-width:3.03855014;stroke-linecap:round;stroke-linejoin:round;stroke-miterlimit:4;stroke-opacity:1;stroke-dasharray:none" />
      <path
         sodipodi:nodetypes="cc"
         inkscape:connector-curvature="0"
         id="path3992-4-77-9-5-7-1-2-9-8-8-6-2-3-33-8-8-0"
         d="m 103.4576,437.0517 113.42368,0.8062"
         style="fill:none;stroke:#dba981;stroke-width:1.2153219;stroke-linecap:round;stroke-linejoin:miter;stroke-miterlimit:4;stroke-opacity:1;stroke-dasharray:3.64588384, 1.21532189;stroke-dashoffset:0" />
      <path
         style="fill:none;stroke:#dba981;stroke-width:1.2153219;stroke-linecap:round;stroke-linejoin:miter;stroke-miterlimit:4;stroke-opacity:1;stroke-dasharray:3.64588384, 1.21532189;stroke-dashoffset:0"
         d="m 93.327524,343.5325 136.839106,0"
         id="path3992-4-77-9-5-7-1-2-9-8-8-6-2-3-33-2-8-8-2"
         inkscape:connector-curvature="0"
         sodipodi:nodetypes="cc" />
      <path
         style="fill:none;stroke:#dba981;stroke-width:1.22726727;stroke-linecap:round;stroke-linejoin:round;stroke-miterlimit:4;stroke-opacity:1;stroke-dasharray:3.68180186, 1.22726729;stroke-dashoffset:0;marker-start:url(#marker7359);marker-end:url(#marker7359)"
         d="m 99.804132,470.9121 120.398478,0"
         id="path7494-1-6-3-5-81-64-9-2-9-5-3-0-6-1-6-8"
         inkscape:connector-curvature="0"
         sodipodi:nodetypes="cc" />
      <path
         sodipodi:nodetypes="cc"
         inkscape:connector-curvature="0"
         id="path7494-1-6-3-5-81-64-9-2-9-5-3-0-6-1-6-8-3"
         d="m 196.12292,437.8579 0,33.0542"
         style="fill:none;stroke:#000000;stroke-width:2.45453453;stroke-linecap:round;stroke-linejoin:round;stroke-miterlimit:4;stroke-opacity:1;stroke-dasharray:none;marker-start:url(#marker7359);marker-end:url(#marker7359)" />
      <path
         sodipodi:type="arc"
         style="color:#000000;fill:#ffffff;fill-opacity:1;stroke:#00000f;stroke-width:3;stroke-linecap:round;stroke-linejoin:miter;stroke-miterlimit:4;stroke-opacity:0.94120029;stroke-dasharray:none;stroke-dashoffset:0;marker:none;visibility:visible;display:inline;overflow:visible;enable-background:accumulate"
         id="path4050-8-0-9-9-5-9-7-8-9-5-5-6-4-2-0"
         sodipodi:cx="57.75"
         sodipodi:cy="50.32"
         sodipodi:rx="20"
         sodipodi:ry="20"
         d="m 77.75,50.32 c 0,11.045695 -8.954305,20 -20,20 -11.045695,0 -20,-8.954305 -20,-20 0,-11.045695 8.954305,-20 20,-20 11.005217,0 19.942666,8.891225 19.999731,19.896294"
         sodipodi:start="0"
         sodipodi:end="6.278"
         sodipodi:open="true"
         transform="matrix(-0.74256801,0,0,0.72098466,279.15635,411.2533)" />
      <text
         transform="scale(1.0148576,0.98535992)"
         sodipodi:linespacing="125%"
         id="text7497"
         y="458.3096"
         x="229.43417"
         style="font-size:14.72720718px;font-style:normal;font-variant:normal;font-weight:normal;font-stretch:normal;text-align:start;line-height:125%;letter-spacing:0px;word-spacing:0px;writing-mode:lr-tb;text-anchor:start;fill:#000000;fill-opacity:1;stroke:none;font-family:Standard Symbols L;-inkscape-font-specification:Standard Symbols L"
         xml:space="preserve"><tspan
           y="458.3096"
           x="229.43417"
           id="tspan7499"
           sodipodi:role="line">6</tspan></text>
      <path
         sodipodi:nodetypes="cc"
         inkscape:connector-curvature="0"
         id="path6686"
         d="m 234.3183,462.8501 c -2.49101,4.031 -24.0797,6.4496 -34.04371,-4.031"
         style="fill:none;stroke:#000000;stroke-width:0.81817818px;stroke-linecap:butt;stroke-linejoin:miter;stroke-opacity:1;marker-end:url(#marker18919)" />
      <g
         id="text6934-2-5-81-4-4"
         style="font-size:17.25905991px;font-style:normal;font-variant:normal;font-weight:normal;font-stretch:normal;text-align:start;line-height:125%;letter-spacing:0px;word-spacing:0px;writing-mode:lr-tb;text-anchor:start;fill:#000000;fill-opacity:1;stroke:none;font-family:Standard Symbols L;-inkscape-font-specification:Standard Symbols L"
         transform="scale(1.0148576,0.98535992)">
        <path
           id="path16990"
           d="m 136.99842,220.12702 7.2306,0 0,1.43263 -5.52829,0 0,3.708 4.98894,0 0,1.43264 -4.98894,0 0,6.00865 -1.70231,0 0,-12.58192"
           inkscape:connector-curvature="0" />
        <path
           id="path16992"
           d="m 151.09725,224.71988 c -0.17417,-0.10112 -0.36519,-0.17415 -0.57306,-0.21911 -0.20226,-0.0505 -0.42698,-0.0758 -0.67418,-0.0758 -0.87644,1e-5 -1.55062,0.28653 -2.02254,0.85958 -0.46632,0.56744 -0.69947,1.38489 -0.69947,2.45234 l 0,4.97209 -1.55904,0 0,-9.43855 1.55904,0 0,1.46635 c 0.32585,-0.57305 0.75003,-0.99722 1.27252,-1.27252 0.52249,-0.2809 1.15734,-0.42136 1.90456,-0.42137 0.10674,1e-5 0.22473,0.008 0.35395,0.0253 0.12921,0.0112 0.27248,0.0309 0.42979,0.059 l 0.008,1.59275"
           inkscape:connector-curvature="0" />
        <path
           id="path16994"
           d="m 156.0272,224.35751 c -0.83149,1e-5 -1.48882,0.32586 -1.97198,0.97756 -0.48316,0.6461 -0.72475,1.53377 -0.72474,2.66302 -1e-5,1.12926 0.23877,2.01974 0.71632,2.67145 0.48316,0.64609 1.14329,0.96914 1.9804,0.96913 0.82587,1e-5 1.48039,-0.32585 1.96356,-0.97756 0.48316,-0.65171 0.72474,-1.53938 0.72475,-2.66302 -1e-5,-1.11801 -0.24159,-2.00287 -0.72475,-2.65459 -0.48317,-0.65732 -1.13769,-0.98598 -1.96356,-0.98599 m 0,-1.31466 c 1.34836,1e-5 2.40739,0.43823 3.17709,1.31466 0.76968,0.87644 1.15452,2.08997 1.15453,3.64058 -1e-5,1.54501 -0.38485,2.75853 -1.15453,3.64058 -0.7697,0.87644 -1.82873,1.31466 -3.17709,1.31466 -1.35398,0 -2.41582,-0.43822 -3.18551,-1.31466 -0.76407,-0.88205 -1.14611,-2.09557 -1.1461,-3.64058 -1e-5,-1.55061 0.38203,-2.76414 1.1461,-3.64058 0.76969,-0.87643 1.83153,-1.31465 3.18551,-1.31466"
           inkscape:connector-curvature="0" />
        <path
           id="path16996"
           d="m 170.76651,227.0121 0,5.69684 -1.55062,0 0,-5.64628 c -1e-5,-0.89328 -0.17417,-1.56184 -0.52249,-2.00569 -0.34833,-0.44383 -0.87082,-0.66574 -1.56747,-0.66575 -0.83712,1e-5 -1.49725,0.26687 -1.98041,0.80059 -0.48317,0.53373 -0.72475,1.26129 -0.72475,2.18266 l 0,5.33447 -1.55904,0 0,-9.43855 1.55904,0 0,1.46635 c 0.3708,-0.56743 0.80621,-0.9916 1.30623,-1.27252 0.50563,-0.2809 1.08711,-0.42136 1.74445,-0.42137 1.0843,1e-5 1.90455,0.3371 2.46076,1.01128 0.55619,0.66857 0.83429,1.65456 0.8343,2.95797"
           inkscape:connector-curvature="0" />
        <path
           id="path16998"
           d="m 175.40994,220.59052 0,2.67987 3.19394,0 0,1.2051 -3.19394,0 0,5.12378 c 0,0.7697 0.10393,1.2641 0.31181,1.4832 0.21348,0.21912 0.64328,0.32867 1.28937,0.32867 l 1.59276,0 0,1.2978 -1.59276,0 c -1.19668,0 -2.02255,-0.22192 -2.47762,-0.66576 -0.45507,-0.44945 -0.68261,-1.26409 -0.68261,-2.44391 l 0,-5.12378 -1.13768,0 0,-1.2051 1.13768,0 0,-2.67987 1.55905,0"
           inkscape:connector-curvature="0" />
      </g>
    </g>
  </g>
</svg>
