<?xml version="1.0" encoding="UTF-8" standalone="no"?>
<!-- Created with Inkscape (http://www.inkscape.org/) -->

<svg
   xmlns:dc="http://purl.org/dc/elements/1.1/"
   xmlns:cc="http://creativecommons.org/ns#"
   xmlns:rdf="http://www.w3.org/1999/02/22-rdf-syntax-ns#"
   xmlns:svg="http://www.w3.org/2000/svg"
   xmlns="http://www.w3.org/2000/svg"
   xmlns:sodipodi="http://sodipodi.sourceforge.net/DTD/sodipodi-0.dtd"
   xmlns:inkscape="http://www.inkscape.org/namespaces/inkscape"
   width="196.03535"
   height="267.68964"
   id="svg17068"
   version="1.1"
   inkscape:version="0.48.4 r9939"
   sodipodi:docname="Новий документ 251">
  <defs
     id="defs17070">
    <marker
       inkscape:stockid="Arrow2Mend"
       orient="auto"
       refY="0"
       refX="0"
       id="marker18919"
       style="overflow:visible">
      <path
         id="path18921"
         style="fill-rule:evenodd;stroke-width:0.625;stroke-linejoin:round"
         d="M 8.719,4.034 -2.207,0.016 8.719,-4.002 c -1.746,2.372 -1.736,5.618 0,8.036 z"
         transform="scale(-0.6,-0.6)"
         inkscape:connector-curvature="0" />
    </marker>
  </defs>
  <sodipodi:namedview
     id="base"
     pagecolor="#ffffff"
     bordercolor="#666666"
     borderopacity="1.0"
     inkscape:pageopacity="0.0"
     inkscape:pageshadow="2"
     inkscape:zoom="1.979899"
     inkscape:cx="151.39692"
     inkscape:cy="117.61055"
     inkscape:document-units="px"
     inkscape:current-layer="layer1"
     showgrid="false"
     fit-margin-top="0"
     fit-margin-left="0"
     fit-margin-right="0"
     fit-margin-bottom="0"
     inkscape:window-width="1855"
     inkscape:window-height="1056"
     inkscape:window-x="65"
     inkscape:window-y="24"
     inkscape:window-maximized="1" />
  <metadata
     id="metadata17073">
    <rdf:RDF>
      <cc:Work
         rdf:about="">
        <dc:format>image/svg+xml</dc:format>
        <dc:type
           rdf:resource="http://purl.org/dc/dcmitype/StillImage" />
        <dc:title></dc:title>
      </cc:Work>
    </rdf:RDF>
  </metadata>
  <g
     inkscape:label="Layer 1"
     inkscape:groupmode="layer"
     id="layer1"
     transform="translate(-179.12587,-198.63082)">
    <g
       id="g17141">
      <g
         id="text6934-6-9-7-0-1-7-4-8"
         style="font-size:14.65512562px;font-style:normal;font-variant:normal;font-weight:normal;font-stretch:normal;text-align:start;line-height:125%;letter-spacing:0px;word-spacing:0px;writing-mode:lr-tb;text-anchor:start;fill:#000000;fill-opacity:1;stroke:none;font-family:Standard Symbols L;-inkscape-font-specification:Standard Symbols L"
         transform="scale(1.0098904,0.99020648)">
        <path
           id="path17133"
           d="m 257.79223,206.62771 0,3.91424 2.31849,0 c 0.77759,0 1.35244,-0.15982 1.72455,-0.47944 0.37686,-0.3244 0.5653,-0.81815 0.56531,-1.48126 -10e-6,-0.66787 -0.18845,-1.15924 -0.56531,-1.4741 -0.37211,-0.31962 -0.94696,-0.47943 -1.72455,-0.47944 l -2.31849,0 m 0,-4.39367 0,3.22012 2.13959,0 c 0.70604,0 1.2308,-0.13119 1.57428,-0.39357 0.34824,-0.26715 0.52237,-0.67264 0.52238,-1.21649 -10e-6,-0.53907 -0.17414,-0.94218 -0.52238,-1.20934 -0.34348,-0.26714 -0.86824,-0.40072 -1.57428,-0.40072 l -2.13959,0 m -1.44548,-1.18787 3.69241,0 c 1.10199,1e-5 1.95114,0.229 2.54747,0.68696 0.59631,0.45798 0.89447,1.10916 0.89448,1.95354 -10e-6,0.65357 -0.15267,1.17356 -0.45797,1.55997 -0.30533,0.38642 -0.75376,0.62733 -1.3453,0.72274 0.7108,0.15266 1.2618,0.47228 1.653,0.95888 0.39594,0.48183 0.59392,1.0853 0.59393,1.81042 -1e-5,0.95411 -0.32441,1.69116 -0.97319,2.21115 -0.6488,0.51999 -1.57191,0.77998 -2.76931,0.77998 l -3.83552,0 0,-10.68364"
           inkscape:connector-curvature="0" />
        <path
           id="path17135"
           d="m 269.9786,207.70108 c -1.06384,1e-5 -1.80089,0.12166 -2.21115,0.36495 -0.41027,0.2433 -0.61541,0.65834 -0.6154,1.24511 -10e-6,0.46752 0.15265,0.83962 0.45797,1.11631 0.31008,0.27193 0.72989,0.40789 1.25942,0.40788 0.72989,1e-5 1.31428,-0.2576 1.75318,-0.77282 0.44365,-0.51999 0.66548,-1.20934 0.66549,-2.06804 l 0,-0.29339 -1.30951,0 m 2.62618,-0.54384 0,4.57257 -1.31667,0 0,-1.21649 c -0.30055,0.4866 -0.67504,0.84678 -1.12346,1.08053 -0.44844,0.22899 -0.99705,0.34348 -1.64584,0.34348 -0.82054,0 -1.4741,-0.22898 -1.9607,-0.68696 -0.48182,-0.46274 -0.72274,-1.08053 -0.72274,-1.85336 0,-0.90163 0.30055,-1.58143 0.90164,-2.03941 0.60586,-0.45796 1.50749,-0.68695 2.7049,-0.68695 l 1.8462,0 0,-0.12881 c -1e-5,-0.60585 -0.20037,-1.07337 -0.60109,-1.40254 -0.39596,-0.33393 -0.95411,-0.5009 -1.67446,-0.50091 -0.45798,1e-5 -0.90402,0.0549 -1.33814,0.16459 -0.43412,0.10973 -0.85154,0.27431 -1.25227,0.49375 l 0,-1.21649 c 0.48183,-0.18605 0.94934,-0.32439 1.40254,-0.41504 0.4532,-0.0954 0.89448,-0.14311 1.32383,-0.14312 1.15924,1e-5 2.02509,0.30056 2.59756,0.90164 0.57246,0.60109 0.8587,1.51227 0.8587,2.73352"
           inkscape:connector-curvature="0" />
        <path
           id="path17137"
           d="m 281.09159,204.02299 0,1.2308 c -0.37211,-0.20512 -0.7466,-0.35778 -1.12347,-0.45797 -0.3721,-0.10494 -0.74898,-0.15742 -1.13062,-0.15743 -0.85393,1e-5 -1.51703,0.27193 -1.98932,0.81577 -0.47228,0.53907 -0.70842,1.29759 -0.70842,2.27555 0,0.97796 0.23614,1.73886 0.70842,2.28271 0.47229,0.53907 1.13539,0.8086 1.98932,0.8086 0.38164,0 0.75852,-0.0501 1.13062,-0.15027 0.37687,-0.10495 0.75136,-0.25999 1.12347,-0.46513 l 0,1.21649 c -0.36734,0.17174 -0.74898,0.30055 -1.14493,0.38642 -0.39119,0.0859 -0.80862,0.1288 -1.25227,0.1288 -1.20696,0 -2.16583,-0.37926 -2.87664,-1.13777 -0.71082,-0.75852 -1.06622,-1.7818 -1.06622,-3.06985 0,-1.30713 0.35779,-2.33518 1.07337,-3.08416 0.72035,-0.74897 1.70547,-1.12346 2.95536,-1.12347 0.40549,1e-5 0.80144,0.043 1.18786,0.12881 0.38641,0.0811 0.7609,0.20514 1.12347,0.3721"
           inkscape:connector-curvature="0" />
        <path
           id="path17139"
           d="m 283.34567,200.59535 1.32383,0 0,6.5762 3.92855,-3.45626 1.68162,0 -4.25056,3.74965 4.42945,4.26487 -1.7174,0 -4.07166,-3.91423 0,3.91423 -1.32383,0 0,-11.13446"
           inkscape:connector-curvature="0" />
      </g>
      <path
         sodipodi:nodetypes="cc"
         inkscape:connector-curvature="0"
         id="path8584-1-4-6-3-4-4-4-4-6-0-1-4-7-6"
         d="m 344.53968,327.5248 c 1.64445,-16.124 6.57781,-45.9534 0,-61.2712"
         style="fill:none;stroke:#dba981;stroke-width:1.28720844;stroke-linecap:round;stroke-linejoin:miter;stroke-miterlimit:4;stroke-opacity:1;stroke-dasharray:3.86162552, 1.28720851;stroke-dashoffset:0" />
      <path
         sodipodi:nodetypes="cc"
         inkscape:connector-curvature="0"
         id="path8584-6-7-8-0-3-1-3-3-1-8-4-9-2-7"
         d="m 212.16127,326.7186 c -7.40003,-48.372 -6.57781,-50.7906 -4.93335,-64.496"
         style="fill:none;stroke:#dba981;stroke-width:1.28720844;stroke-linecap:round;stroke-linejoin:miter;stroke-miterlimit:4;stroke-opacity:1;stroke-dasharray:3.86162552, 1.28720851;stroke-dashoffset:0" />
      <path
         sodipodi:nodetypes="cc"
         inkscape:connector-curvature="0"
         id="path3992-4-77-9-5-7-1-2-90-18-5-4-9-8"
         d="m 248.33922,243.68 c 11.51117,-4.8372 42.75576,-5.6434 55.91138,0"
         style="fill:none;stroke:#dba981;stroke-width:1.28720844;stroke-linecap:round;stroke-linejoin:miter;stroke-miterlimit:4;stroke-opacity:1;stroke-dasharray:3.86162552, 1.28720851;stroke-dashoffset:0" />
      <path
         sodipodi:nodetypes="ccccccscccccccsac"
         inkscape:connector-curvature="0"
         id="path15418-3-7-3-6"
         d="m 217.09463,464.5788 c 0,-4.8372 0.82223,-17.7364 1.64445,-26.6046 1.64445,-8.8682 3.28891,-15.3178 2.46668,-18.5426 0,-20.155 -2.46668,-32.248 -4.93336,-48.372 -0.82222,-14.5116 -0.82222,-29.8294 -4.93335,-42.7286 -2.46668,-7.2558 -57.55583,-29.8294 -13.97785,-62.0774 9.04449,-7.2558 23.84456,-4.8372 32.88905,-11.2868 9.86671,-6.4496 21.37788,-8.8682 22.2001,-26.6046 5.75559,-1.6124 14.80007,-2.4186 23.84456,-2.4186 9.04449,0 16.44452,1.6124 22.20011,3.2248 0,4.8372 4.93335,13.7054 9.86671,17.7364 13.97784,12.8992 45.22244,16.124 51.80024,24.9922 32.88905,35.4728 -3.2889,41.1162 -14.80007,57.2402 -5.75558,10.4806 -4.93335,29.8294 -6.5778,39.5038 -2.46668,16.124 -6.57781,36.279 -5.75559,54.8216 0,5.6434 1.64445,11.2868 2.46668,17.7364 1.64445,7.2558 1.64445,16.9302 2.46668,22.5736"
         style="fill:none;stroke:#dba981;stroke-width:3.02945876;stroke-linecap:round;stroke-linejoin:miter;stroke-miterlimit:4;stroke-opacity:1;stroke-dasharray:none" />
      <path
         sodipodi:nodetypes="cc"
         inkscape:connector-curvature="0"
         id="path3992-4-77-9-5-7-1-2-9-8-8-6-2-3-2-0-4-6"
         d="m 221.20576,421.044 111.82275,0.8062"
         style="fill:none;stroke:#dba981;stroke-width:1.21149039;stroke-linecap:round;stroke-linejoin:miter;stroke-miterlimit:4;stroke-opacity:1;stroke-dasharray:3.63447108, 1.21149036;stroke-dashoffset:0" />
      <path
         style="opacity:0.3;fill:none;stroke:#000000;stroke-width:1.28720844;stroke-linecap:round;stroke-linejoin:miter;stroke-miterlimit:4;stroke-opacity:0;stroke-dasharray:3.86162552, 1.28720851;stroke-dashoffset:0"
         d="m 254.91703,246.9048 c 2.46668,5.6434 15.6223,8.062 24.66678,8.062 7.40004,-0.8062 18.08898,-2.4186 21.37788,-8.062"
         id="path3992-4-94-7-98-1-3-4-7-3-5-3-43-4-4-8-6-4"
         inkscape:connector-curvature="0"
         sodipodi:nodetypes="cac" />
      <path
         style="fill:none;stroke:#dba981;stroke-width:1.21165311;stroke-linecap:round;stroke-linejoin:miter;stroke-miterlimit:4;stroke-opacity:1;stroke-dasharray:3.63495958, 1.21165319;stroke-dashoffset:0"
         d="m 209.69459,327.5248 135.66731,0"
         id="path3992-4-77-9-5-7-1-2-9-8-8-6-2-3-7-6-31-8-0"
         inkscape:connector-curvature="0"
         sodipodi:nodetypes="cc" />
      <path
         style="fill:none;stroke:#dba981;stroke-width:1.22126043;stroke-linecap:round;stroke-linejoin:round;stroke-miterlimit:4;stroke-opacity:1;stroke-dasharray:3.66378133, 1.22126044;stroke-dashoffset:0;marker-start:url(#marker7359);marker-end:url(#marker7359)"
         d="m 217.09463,456.5168 119.22279,0"
         id="path7494-1-6-3-5-81-64-9-2-9-5-3-0-6-1-6-8-1"
         inkscape:connector-curvature="0"
         sodipodi:nodetypes="cc" />
      <path
         sodipodi:nodetypes="cc"
         inkscape:connector-curvature="0"
         id="path7494-1-6-3-5-81-64-9-2-9-5-3-0-6-1-6-8-3-8"
         d="m 313.29509,423.4626 0,33.0542"
         style="fill:none;stroke:#000000;stroke-width:2.44252086;stroke-linecap:round;stroke-linejoin:round;stroke-miterlimit:4;stroke-opacity:1;stroke-dasharray:none;marker-start:url(#marker7359);marker-end:url(#marker7359)" />
      <path
         sodipodi:type="arc"
         style="color:#000000;fill:#ffffff;fill-opacity:1;stroke:#00000f;stroke-width:3;stroke-linecap:round;stroke-linejoin:miter;stroke-miterlimit:4;stroke-opacity:0.94120029;stroke-dasharray:none;stroke-dashoffset:0;marker:none;visibility:visible;display:inline;overflow:visible;enable-background:accumulate"
         id="path4050-8-0-9-9-5-9-7-8-9-5-5-6-4-2-0-8"
         sodipodi:cx="57.75"
         sodipodi:cy="50.32"
         sodipodi:rx="20"
         sodipodi:ry="20"
         d="m 77.75,50.32 c 0,11.045695 -8.954305,20 -20,20 -11.045695,0 -20,-8.954305 -20,-20 0,-11.045695 8.954305,-20 20,-20 11.005217,0 19.942666,8.891225 19.999731,19.896294"
         sodipodi:start="0"
         sodipodi:end="6.278"
         sodipodi:open="true"
         transform="matrix(-0.73531682,0,0,0.72098466,395.5177,396.858)" />
      <text
         transform="scale(1.0098904,0.99020648)"
         sodipodi:linespacing="125%"
         id="text7497-4"
         y="441.83563"
         x="345.57013"
         style="font-size:14.65512562px;font-style:normal;font-variant:normal;font-weight:normal;font-stretch:normal;text-align:start;line-height:125%;letter-spacing:0px;word-spacing:0px;writing-mode:lr-tb;text-anchor:start;fill:#000000;fill-opacity:1;stroke:none;font-family:Standard Symbols L;-inkscape-font-specification:Standard Symbols L"
         xml:space="preserve"><tspan
           y="441.83563"
           x="345.57013"
           id="tspan7499-8"
           sodipodi:role="line">7</tspan></text>
      <path
         sodipodi:nodetypes="cc"
         inkscape:connector-curvature="0"
         id="path6686-6"
         d="m 351.11749,448.4548 c -3.28891,4.031 -23.84456,6.4496 -33.71127,-4.031"
         style="fill:none;stroke:#000000;stroke-width:0.81417364px;stroke-linecap:butt;stroke-linejoin:miter;stroke-opacity:1;marker-end:url(#marker18919)" />
    </g>
  </g>
</svg>
