<?xml version="1.0" encoding="UTF-8" standalone="no"?>
<!-- Created with Inkscape (http://www.inkscape.org/) -->

<svg
   xmlns:dc="http://purl.org/dc/elements/1.1/"
   xmlns:cc="http://creativecommons.org/ns#"
   xmlns:rdf="http://www.w3.org/1999/02/22-rdf-syntax-ns#"
   xmlns:svg="http://www.w3.org/2000/svg"
   xmlns="http://www.w3.org/2000/svg"
   xmlns:sodipodi="http://sodipodi.sourceforge.net/DTD/sodipodi-0.dtd"
   xmlns:inkscape="http://www.inkscape.org/namespaces/inkscape"
   width="286.05914"
   height="211.97986"
   id="svg17203"
   version="1.1"
   inkscape:version="0.48.4 r9939"
   sodipodi:docname="Новий документ 254">
  <defs
     id="defs17205" />
  <sodipodi:namedview
     id="base"
     pagecolor="#ffffff"
     bordercolor="#666666"
     borderopacity="1.0"
     inkscape:pageopacity="0.0"
     inkscape:pageshadow="2"
     inkscape:zoom="3.959798"
     inkscape:cx="197.90035"
     inkscape:cy="141.60046"
     inkscape:document-units="px"
     inkscape:current-layer="layer1"
     showgrid="false"
     fit-margin-top="0"
     fit-margin-left="0"
     fit-margin-right="0"
     fit-margin-bottom="0"
     inkscape:window-width="1855"
     inkscape:window-height="1056"
     inkscape:window-x="65"
     inkscape:window-y="24"
     inkscape:window-maximized="1" />
  <metadata
     id="metadata17208">
    <rdf:RDF>
      <cc:Work
         rdf:about="">
        <dc:format>image/svg+xml</dc:format>
        <dc:type
           rdf:resource="http://purl.org/dc/dcmitype/StillImage" />
        <dc:title></dc:title>
      </cc:Work>
    </rdf:RDF>
  </metadata>
  <g
     inkscape:label="Layer 1"
     inkscape:groupmode="layer"
     id="layer1"
     transform="translate(-151.25615,-309.22935)">
    <path
       style="fill:none;stroke:#dba981;stroke-width:1.61240005;stroke-linecap:round;stroke-linejoin:miter;stroke-miterlimit:4;stroke-opacity:1;stroke-dasharray:4.8372, 1.6124;stroke-dashoffset:0"
       d="m 295.2088,432.6425 c -4.031,-15.3178 0.72558,-53.2092 4.75658,-60.465"
       id="path3992-4-4-7-0-0-9-6-8-6-55"
       inkscape:connector-curvature="0"
       sodipodi:nodetypes="cc" />
    <path
       inkscape:connector-curvature="0"
       d="m 293.51578,359.2783 c 0,0 -3.2248,-4.031 -24.186,-8.062 -4.031,-0.8062 -13.7054,-4.8372 -12.093,-8.8682 2.4186,-4.031 24.9922,-7.2558 29.0232,-7.2558 7.2558,0 9.6744,-0.8062 14.5116,0.8062 5.6434,0.8062 9.6744,4.031 14.5116,6.4496 4.031,1.6124 7.2558,3.2248 10.4806,4.8372 8.062,4.031 17.7364,9.6744 24.9922,10.4806 0,0 43.5348,6.4496 61.2712,18.5426 8.062,5.6434 12.8992,8.062 12.8992,8.062 0,0 10.4806,3.2248 8.8682,8.062 -2.4186,11.2868 -8.8682,21.7674 -17.7364,23.3798 -12.8992,3.2248 -30.6356,8.8682 -43.5348,8.8682 -25.7984,3.2248 -41.1162,6.4496 -77.3952,7.2558 -4.031,29.0232 -19.3488,62.8836 -18.5426,87.8758 m 16.9302,-159.6276 c -2.4186,0 -15.3178,-2.4186 -16.124,0.8062 m -82.71612,-6.4496 c -9.6744,8.062 -27.73328,8.8682 -41.9224,16.124 m 238.31272,17.7364 c -23.3798,-6.4496 -70.9456,-18.5426 -91.1006,-18.5426 -17.7364,-8.8682 -32.248,-4.8372 -44.341,-14.5116 -2.4186,-2.4186 -4.031,-6.4496 -4.8372,-10.4806 0,-4.031 0.8062,-12.093 0.8062,-12.093 0,0 -17.7364,0.8062 -26.6046,0.8062 -8.8682,0 -26.28212,-1.6124 -26.28212,-1.6124 0,0 2.49922,8.8682 1.6124,12.8992 -0.72558,4.031 -2.8217,7.2558 -5.6434,9.6744"
       style="fill:none;stroke:#dba981;stroke-width:2.99422669;stroke-linecap:round;stroke-linejoin:round;stroke-miterlimit:4;stroke-opacity:1;stroke-dasharray:none"
       id="path9709-0" />
    <path
       sodipodi:nodetypes="cacsc"
       inkscape:connector-curvature="0"
       id="path9729-0"
       d="m 227.40738,355.2473 c 7.2558,0.8062 47.5658,11.2868 71.7518,16.124 45.1472,8.8682 138.6664,34.6666 137.054,21.7674 -10.4806,-16.9302 -34.6666,-25.7984 -55.6278,-32.248 -15.3178,-4.8372 -29.0232,-7.2558 -44.341,-12.093"
       style="fill:none;stroke:#000000;stroke-width:2.16303468;stroke-linecap:round;stroke-linejoin:round;stroke-miterlimit:4;stroke-opacity:1;stroke-dasharray:none;marker-start:url(#marker7359);marker-end:url(#marker7359)" />
    <path
       sodipodi:nodetypes="cac"
       inkscape:connector-curvature="0"
       id="path9729-0-8"
       d="m 225.79498,365.7279 c 8.062,0.8062 48.372,11.2868 72.558,16.124 45.1472,8.8682 137.8602,34.6666 136.2478,21.7674"
       style="fill:none;stroke:#000000;stroke-width:2.16303468;stroke-linecap:round;stroke-linejoin:round;stroke-miterlimit:4;stroke-opacity:1;stroke-dasharray:none;marker-start:url(#marker7359);marker-end:url(#marker7359)" />
    <path
       sodipodi:type="arc"
       style="color:#000000;fill:#ffffff;fill-opacity:1;stroke:#00000f;stroke-width:3;stroke-linecap:round;stroke-linejoin:miter;stroke-miterlimit:4;stroke-opacity:0.94120029;stroke-dasharray:none;stroke-dashoffset:0;marker:none;visibility:visible;display:inline;overflow:visible;enable-background:accumulate"
       id="path4050-8-0-9-9-5-9-7-8-9-5-5-6-4"
       sodipodi:cx="57.75"
       sodipodi:cy="50.32"
       sodipodi:rx="20"
       sodipodi:ry="20"
       d="m 77.75,50.32 c 0,11.045695 -8.954305,20 -20,20 -11.045695,0 -20,-8.954305 -20,-20 0,-11.045695 8.954305,-20 20,-20 11.005217,0 19.942666,8.891225 19.999731,19.896294"
       sodipodi:start="0"
       sodipodi:end="6.278"
       sodipodi:open="true"
       transform="matrix(-0.72098466,0,0,0.72098466,366.07378,361.6969)" />
    <text
       xml:space="preserve"
       style="font-size:14.51159954px;font-style:normal;font-variant:normal;font-weight:normal;font-stretch:normal;text-align:start;line-height:125%;letter-spacing:0px;word-spacing:0px;writing-mode:lr-tb;text-anchor:start;fill:#000000;fill-opacity:1;stroke:none;font-family:Standard Symbols L;-inkscape-font-specification:Standard Symbols L"
       x="320.93365"
       y="403.15518"
       id="text17174-0-6"
       sodipodi:linespacing="125%"><tspan
         sodipodi:role="line"
         id="tspan17176-0-8"
         x="320.93365"
         y="403.15518">8</tspan></text>
    <path
       sodipodi:type="arc"
       style="color:#000000;fill:#ffffff;fill-opacity:1;stroke:#00000f;stroke-width:3;stroke-linecap:round;stroke-linejoin:miter;stroke-miterlimit:4;stroke-opacity:0.94120029;stroke-dasharray:none;stroke-dashoffset:0;marker:none;visibility:visible;display:inline;overflow:visible;enable-background:accumulate"
       id="path4050-8-0-9-9-5-9-7-8-9-5-5-6-4-3"
       sodipodi:cx="57.75"
       sodipodi:cy="50.32"
       sodipodi:rx="20"
       sodipodi:ry="20"
       d="m 77.75,50.32 c 0,11.045695 -8.954305,20 -20,20 -11.045695,0 -20,-8.954305 -20,-20 0,-11.045695 8.954305,-20 20,-20 11.005217,0 19.942666,8.891225 19.999731,19.896294"
       sodipodi:start="0"
       sodipodi:end="6.278"
       sodipodi:open="true"
       transform="matrix(-0.72098466,0,0,0.72098466,435.40698,323.8055)" />
    <text
       xml:space="preserve"
       style="font-size:14.51159954px;font-style:normal;font-variant:normal;font-weight:normal;font-stretch:normal;text-align:start;line-height:125%;letter-spacing:0px;word-spacing:0px;writing-mode:lr-tb;text-anchor:start;fill:#000000;fill-opacity:1;stroke:none;font-family:Standard Symbols L;-inkscape-font-specification:Standard Symbols L"
       x="389.97141"
       y="365.40314"
       id="text17174-0-6-1"
       sodipodi:linespacing="125%"><tspan
         sodipodi:role="line"
         id="tspan17176-0-8-1"
         x="389.97141"
         y="365.40314">9</tspan></text>
    <g
       style="font-size:14.51159954px;font-style:normal;font-variant:normal;font-weight:normal;font-stretch:normal;text-align:start;line-height:125%;letter-spacing:0px;word-spacing:0px;writing-mode:lr-tb;text-anchor:start;fill:#000000;fill-opacity:1;stroke:none;font-family:Standard Symbols L;-inkscape-font-specification:Standard Symbols L"
       id="text6934-6-9-7-0-1-7-4-8-5">
      <path
         d="m 209.7736,315.20263 0,3.8759 2.29578,0 c 0.76998,0 1.3392,-0.15825 1.70766,-0.47475 0.37318,-0.32122 0.55977,-0.81013 0.55978,-1.46675 -10e-6,-0.66133 -0.1866,-1.14788 -0.55978,-1.45966 -0.36846,-0.31649 -0.93768,-0.47474 -1.70766,-0.47474 l -2.29578,0 m 0,-4.35065 0,3.18859 2.11864,0 c 0.69912,0 1.21874,-0.1299 1.55886,-0.38972 0.34483,-0.26453 0.51725,-0.66605 0.51726,-1.20458 -1e-5,-0.53378 -0.17243,-0.93294 -0.51726,-1.19749 -0.34012,-0.26452 -0.85974,-0.39679 -1.55886,-0.3968 l -2.11864,0 m -1.43132,-1.17623 3.65624,0 c 1.0912,1e-5 1.93204,0.22675 2.52253,0.68023 0.59047,0.4535 0.88571,1.0983 0.88571,1.93441 0,0.64717 -0.15117,1.16207 -0.45348,1.54469 -0.30234,0.38263 -0.74638,0.62119 -1.33212,0.71566 0.70384,0.15117 1.24944,0.46766 1.6368,0.94949 0.39207,0.47711 0.58811,1.07467 0.58812,1.79269 -1e-5,0.94477 -0.32123,1.6746 -0.96366,2.18949 -0.64245,0.5149 -1.55651,0.77235 -2.74218,0.77235 l -3.79796,0 0,-10.57901"
         id="path17255"
         inkscape:connector-curvature="0" />
      <path
         d="m 221.84062,316.26549 c -1.05342,0 -1.78325,0.12046 -2.1895,0.36137 -0.40625,0.24092 -0.60937,0.65189 -0.60937,1.23292 0,0.46294 0.15116,0.8314 0.45349,1.10538 0.30704,0.26925 0.72274,0.40388 1.24709,0.40388 0.72274,0 1.30141,-0.25508 1.736,-0.76526 0.43931,-0.51489 0.65897,-1.19748 0.65898,-2.04778 l 0,-0.29051 -1.29669,0 m 2.60046,-0.53852 0,4.52779 -1.30377,0 0,-1.20458 c -0.29761,0.48184 -0.66843,0.83848 -1.11246,1.06995 -0.44405,0.22675 -0.98729,0.34012 -1.62972,0.34012 -0.81251,0 -1.45967,-0.22675 -1.9415,-0.68023 -0.47711,-0.45821 -0.71566,-1.06995 -0.71566,-1.83521 0,-0.8928 0.2976,-1.56595 0.89281,-2.01944 0.59992,-0.45348 1.49272,-0.68022 2.67841,-0.68023 l 1.82812,0 0,-0.12754 c -1e-5,-0.59992 -0.19841,-1.06286 -0.5952,-1.38881 -0.39209,-0.33066 -0.94477,-0.49599 -1.65807,-0.496 -0.45349,10e-6 -0.89517,0.0543 -1.32503,0.16297 -0.42987,0.10866 -0.84321,0.27163 -1.24001,0.48892 l 0,-1.20458 c 0.47711,-0.18422 0.94004,-0.32121 1.38881,-0.41097 0.44876,-0.0945 0.88571,-0.14171 1.31086,-0.14172 1.14789,10e-6 2.00526,0.29761 2.57213,0.89281 0.56685,0.59521 0.85028,1.49746 0.85028,2.70675"
         id="path17257"
         inkscape:connector-curvature="0" />
      <path
         d="m 232.84477,312.62342 0,1.21874 c -0.36846,-0.20311 -0.73928,-0.35428 -1.11246,-0.45348 -0.36846,-0.10392 -0.74164,-0.15588 -1.11955,-0.15589 -0.84556,10e-6 -1.50218,0.26927 -1.96983,0.80778 -0.46766,0.53379 -0.70149,1.28488 -0.70149,2.25326 0,0.96839 0.23383,1.72184 0.70149,2.26035 0.46765,0.5338 1.12427,0.80069 1.96983,0.80069 0.37791,0 0.75109,-0.0496 1.11955,-0.1488 0.37318,-0.10392 0.744,-0.25745 1.11246,-0.46057 l 0,1.20457 c -0.36374,0.17006 -0.74164,0.29761 -1.13372,0.38263 -0.38735,0.085 -0.80069,0.12755 -1.24,0.12755 -1.19513,0 -2.14462,-0.37555 -2.84847,-1.12664 -0.70385,-0.75108 -1.05577,-1.76434 -1.05577,-3.03978 0,-1.29432 0.35428,-2.31231 1.06286,-3.05395 0.71329,-0.74164 1.68876,-1.11246 2.92641,-1.11247 0.40152,10e-6 0.7936,0.0425 1.17623,0.12755 0.38263,0.0803 0.75345,0.20313 1.11246,0.36846"
         id="path17259"
         inkscape:connector-curvature="0" />
      <path
         d="m 235.07678,309.22935 1.31087,0 0,6.51179 3.89007,-3.42241 1.66515,0 -4.20893,3.71293 4.38607,4.2231 -1.70058,0 -4.03178,-3.8759 0,3.8759 -1.31087,0 0,-11.02541"
         id="path17261"
         inkscape:connector-curvature="0" />
    </g>
  </g>
</svg>
