<?xml version="1.0" encoding="UTF-8" standalone="no"?>
<!-- Created with Inkscape (http://www.inkscape.org/) -->

<svg
   xmlns:dc="http://purl.org/dc/elements/1.1/"
   xmlns:cc="http://creativecommons.org/ns#"
   xmlns:rdf="http://www.w3.org/1999/02/22-rdf-syntax-ns#"
   xmlns:svg="http://www.w3.org/2000/svg"
   xmlns="http://www.w3.org/2000/svg"
   xmlns:sodipodi="http://sodipodi.sourceforge.net/DTD/sodipodi-0.dtd"
   xmlns:inkscape="http://www.inkscape.org/namespaces/inkscape"
   width="194.53401"
   height="219.98518"
   id="svg17655"
   version="1.1"
   inkscape:version="0.48.4 r9939"
   sodipodi:docname="Новий документ 266">
  <defs
     id="defs17657" />
  <sodipodi:namedview
     id="base"
     pagecolor="#ffffff"
     bordercolor="#666666"
     borderopacity="1.0"
     inkscape:pageopacity="0.0"
     inkscape:pageshadow="2"
     inkscape:zoom="1.4"
     inkscape:cx="58.085961"
     inkscape:cy="29.672936"
     inkscape:document-units="px"
     inkscape:current-layer="layer1"
     showgrid="false"
     fit-margin-top="0"
     fit-margin-left="0"
     fit-margin-right="0"
     fit-margin-bottom="0"
     inkscape:window-width="1855"
     inkscape:window-height="1056"
     inkscape:window-x="65"
     inkscape:window-y="24"
     inkscape:window-maximized="1" />
  <metadata
     id="metadata17660">
    <rdf:RDF>
      <cc:Work
         rdf:about="">
        <dc:format>image/svg+xml</dc:format>
        <dc:type
           rdf:resource="http://purl.org/dc/dcmitype/StillImage" />
        <dc:title></dc:title>
      </cc:Work>
    </rdf:RDF>
  </metadata>
  <g
     inkscape:label="Layer 1"
     inkscape:groupmode="layer"
     id="layer1"
     transform="translate(-108.44728,-185.5839)">
    <g
       id="g17720">
      <g
         id="text6934-2-5-81"
         style="font-size:17.17591286px;font-style:normal;font-variant:normal;font-weight:normal;font-stretch:normal;text-align:start;line-height:125%;letter-spacing:0px;word-spacing:0px;writing-mode:lr-tb;text-anchor:start;fill:#000000;fill-opacity:1;stroke:none;font-family:Standard Symbols L;-inkscape-font-specification:Standard Symbols L"
         transform="scale(1.0099684,0.99012996)">
        <path
           id="path17710"
           d="m 182.26948,187.43388 7.19577,0 0,1.42573 -5.50166,0 0,3.69014 4.96491,0 0,1.42573 -4.96491,0 0,5.9797 -1.69411,0 0,-12.5213"
           inkscape:connector-curvature="0" />
        <path
           id="path17712"
           d="m 196.30039,192.00462 c -0.17333,-0.10064 -0.36343,-0.17332 -0.5703,-0.21806 -0.20128,-0.0503 -0.42493,-0.0755 -0.67093,-0.0755 -0.87222,1e-5 -1.54315,0.28516 -2.0128,0.85544 -0.46407,0.56471 -0.6961,1.37822 -0.6961,2.44053 l 0,4.94813 -1.55153,0 0,-9.39307 1.55153,0 0,1.45928 c 0.32428,-0.57029 0.74641,-0.99242 1.26639,-1.26639 0.51997,-0.27955 1.15177,-0.41932 1.89539,-0.41933 0.10622,1e-5 0.22364,0.008 0.35224,0.0252 0.12859,0.0112 0.27116,0.0308 0.42772,0.0587 l 0.008,1.58509"
           inkscape:connector-curvature="0" />
        <path
           id="path17714"
           d="m 201.20659,191.64399 c -0.82749,1e-5 -1.48165,0.32429 -1.96248,0.97285 -0.48084,0.64299 -0.72126,1.52638 -0.72125,2.65019 -1e-5,1.12382 0.23762,2.01001 0.71286,2.65858 0.48084,0.64298 1.13779,0.96447 1.97087,0.96447 0.82189,0 1.47326,-0.32429 1.9541,-0.97286 0.48083,-0.64856 0.72124,-1.53196 0.72125,-2.65019 -10e-6,-1.11262 -0.24042,-1.99322 -0.72125,-2.6418 -0.48084,-0.65415 -1.13221,-0.98123 -1.9541,-0.98124 m 0,-1.30832 c 1.34186,1e-5 2.39579,0.43611 3.16178,1.30832 0.76597,0.87222 1.14896,2.0799 1.14897,3.62304 -1e-5,1.53756 -0.383,2.74524 -1.14897,3.62305 -0.76599,0.87221 -1.81992,1.30832 -3.16178,1.30832 -1.34746,0 -2.40418,-0.43611 -3.17016,-1.30832 -0.76039,-0.87781 -1.14059,-2.08549 -1.14059,-3.62305 0,-1.54314 0.3802,-2.75082 1.14059,-3.62304 0.76598,-0.87221 1.8227,-1.30831 3.17016,-1.30832"
           inkscape:connector-curvature="0" />
        <path
           id="path17716"
           d="m 215.87489,194.28579 0,5.66939 -1.54315,0 0,-5.61907 c -1e-5,-0.88898 -0.17333,-1.55432 -0.51997,-1.99603 -0.34666,-0.44169 -0.86663,-0.66254 -1.55992,-0.66254 -0.83309,0 -1.49004,0.26558 -1.97087,0.79673 -0.48084,0.53116 -0.72126,1.25521 -0.72126,2.17215 l 0,5.30876 -1.55153,0 0,-9.39307 1.55153,0 0,1.45928 c 0.36901,-0.5647 0.80232,-0.98682 1.29994,-1.26639 0.50319,-0.27955 1.08187,-0.41932 1.73604,-0.41933 1.07908,1e-5 1.89538,0.33547 2.44891,1.0064 0.55351,0.66535 0.83027,1.64659 0.83028,2.94372"
           inkscape:connector-curvature="0" />
        <path
           id="path17718"
           d="m 220.49595,187.89514 0,2.66697 3.17855,0 0,1.19929 -3.17855,0 0,5.0991 c -1e-5,0.76599 0.10343,1.258 0.31031,1.47606 0.21245,0.21805 0.64017,0.32708 1.28316,0.32708 l 1.58508,0 0,1.29154 -1.58508,0 c -1.19091,0 -2.01281,-0.22084 -2.46569,-0.66254 -0.45288,-0.44729 -0.67932,-1.258 -0.67932,-2.43214 l 0,-5.0991 -1.1322,0 0,-1.19929 1.1322,0 0,-2.66697 1.55154,0"
           inkscape:connector-curvature="0" />
      </g>
      <path
         style="fill:none;stroke:#aaaaaa;stroke-width:2.44270968;stroke-linecap:butt;stroke-linejoin:miter;stroke-miterlimit:4;stroke-opacity:1;stroke-dasharray:4.88541938, 2.44270969;stroke-dashoffset:0"
         d="m 207.66083,217.0149 c 5.50977,0 24.50613,-0.8062 26.39754,5.6434"
         id="path8645-3"
         inkscape:connector-curvature="0"
         sodipodi:nodetypes="cc" />
      <path
         sodipodi:nodetypes="cc"
         inkscape:connector-curvature="0"
         id="path3992-4-77-9-5-7-1-2-9-8-8-6-2-3-7-1"
         d="m 137.18516,308.1155 135.44158,0"
         style="fill:none;stroke:#dba981;stroke-width:1.21247959;stroke-linecap:round;stroke-linejoin:miter;stroke-miterlimit:4;stroke-opacity:1;stroke-dasharray:3.63752043, 1.21247967;stroke-dashoffset:0" />
      <path
         sodipodi:nodetypes="cc"
         inkscape:connector-curvature="0"
         id="path8584-1-4-6-3-4-4-4-4-6-3"
         d="m 271.39321,308.1155 c -7.15448,-5.6434 -13.56883,-37.0852 2.05588,-66.9146"
         style="fill:none;stroke:#dba981;stroke-width:1.2881223;stroke-linecap:round;stroke-linejoin:miter;stroke-miterlimit:4;stroke-opacity:1;stroke-dasharray:3.86436673, 1.28812224;stroke-dashoffset:0" />
      <path
         sodipodi:nodetypes="cc"
         inkscape:connector-curvature="0"
         id="path8584-6-7-8-0-3-1-3-3-1-8-0"
         d="m 137.67857,307.3093 c 6.49659,-11.2868 11.184,-29.8294 -1.80918,-66.1084"
         style="fill:none;stroke:#dba981;stroke-width:1.2881223;stroke-linecap:round;stroke-linejoin:miter;stroke-miterlimit:4;stroke-opacity:1;stroke-dasharray:3.86436673, 1.28812224;stroke-dashoffset:0" />
      <path
         sodipodi:nodetypes="cc"
         inkscape:connector-curvature="0"
         id="path3992-4-77-9-5-7-1-2-90-18-83"
         d="m 177.15153,222.6583 c 10.44388,15.3178 40.13083,16.124 52.13719,2.4186"
         style="fill:none;stroke:#dba981;stroke-width:1.2881223;stroke-linecap:round;stroke-linejoin:miter;stroke-miterlimit:4;stroke-opacity:1;stroke-dasharray:3.86436673, 1.28812224;stroke-dashoffset:0" />
      <path
         style="fill:none;stroke:#dba981;stroke-width:3.03156567;stroke-linecap:round;stroke-linejoin:miter;stroke-miterlimit:4;stroke-opacity:1;stroke-dasharray:none"
         d="m 147.71128,400.0223 c -0.41118,-20.155 -2.796,-32.248 -4.60518,-49.1782 -1.56247,-13.7054 -0.98682,-29.0232 -5.50976,-42.7286 -2.63154,-6.4496 -50.656964,-27.4108 -13.7333,-61.2712 27.7133,-16.124 57.48249,-12.093 56.74237,-37.8914 11.184,5.6434 36.01907,7.2558 46.38072,-1.6124 -0.16447,33.0542 39.88413,24.9922 62.16991,42.7286 24.17718,23.3798 9.29259,39.5038 -14.96683,56.434 -5.18083,10.4806 -7.15447,32.248 -8.47024,42.7286 -3.28941,16.124 -6.57883,36.279 -6.16765,54.8216"
         id="path14448"
         inkscape:connector-curvature="0"
         sodipodi:nodetypes="cccccccccc" />
      <path
         sodipodi:nodetypes="cc"
         inkscape:connector-curvature="0"
         id="path3992-4-77-9-5-7-1-2-9-8-8-6-2-3"
         d="m 147.3001,401.6347 112.25122,0.8062"
         style="fill:none;stroke:#dba981;stroke-width:1.21247959;stroke-linecap:round;stroke-linejoin:miter;stroke-miterlimit:4;stroke-opacity:1;stroke-dasharray:3.63752043, 1.21247967;stroke-dashoffset:0" />
      <path
         style="fill:none;stroke:#000000;stroke-width:2.44270968;stroke-linecap:round;stroke-linejoin:round;stroke-miterlimit:4;stroke-opacity:1;stroke-dasharray:none;marker-start:url(#marker7359);marker-end:url(#marker7359)"
         d="m 234.05837,222.6583 c 10.19718,12.8992 -15.29577,60.465 -25.08177,84.651"
         id="path7494-1-6-3-5-81-64-9-2-9-5-3-0-6-1-6"
         inkscape:connector-curvature="0"
         sodipodi:nodetypes="cc" />
      <path
         sodipodi:type="arc"
         style="color:#000000;fill:#ffffff;fill-opacity:1;stroke:#00000f;stroke-width:3;stroke-linecap:round;stroke-linejoin:miter;stroke-miterlimit:4;stroke-opacity:0.94120029;stroke-dasharray:none;stroke-dashoffset:0;marker:none;visibility:visible;display:inline;overflow:visible;enable-background:accumulate"
         id="path4050-8-0-9-9-5-9-7-8-9-5-5-6-4-29"
         sodipodi:cx="57.75"
         sodipodi:cy="50.32"
         sodipodi:rx="20"
         sodipodi:ry="20"
         d="m 77.75,50.32 c 0,11.045695 -8.954305,20 -20,20 -11.045695,0 -20,-8.954305 -20,-20 0,-11.045695 8.954305,-20 20,-20 11.005217,0 19.942666,8.891225 19.999731,19.896294"
         sodipodi:start="0"
         sodipodi:end="6.278"
         sodipodi:open="true"
         transform="matrix(-0.7354305,0,0,0.72098466,269.33732,233.9451)" />
      <text
         transform="scale(1.0099684,0.99012994)"
         xml:space="preserve"
         style="font-size:16.66449165px;font-style:normal;font-variant:normal;font-weight:normal;font-stretch:normal;text-align:start;line-height:125%;letter-spacing:0px;word-spacing:0px;writing-mode:lr-tb;text-anchor:start;fill:#000000;fill-opacity:1;stroke:none;font-family:Standard Symbols L;-inkscape-font-specification:Standard Symbols L"
         x="220.95026"
         y="277.45615"
         id="text17174-0-6-9"
         sodipodi:linespacing="125%"><tspan
           sodipodi:role="line"
           id="tspan17176-0-8-3"
           x="220.95026"
           y="277.45615">1</tspan></text>
    </g>
  </g>
</svg>
