<?xml version="1.0" encoding="UTF-8" standalone="no"?>
<!-- Created with Inkscape (http://www.inkscape.org/) -->

<svg
   xmlns:dc="http://purl.org/dc/elements/1.1/"
   xmlns:cc="http://creativecommons.org/ns#"
   xmlns:rdf="http://www.w3.org/1999/02/22-rdf-syntax-ns#"
   xmlns:svg="http://www.w3.org/2000/svg"
   xmlns="http://www.w3.org/2000/svg"
   xmlns:sodipodi="http://sodipodi.sourceforge.net/DTD/sodipodi-0.dtd"
   xmlns:inkscape="http://www.inkscape.org/namespaces/inkscape"
   width="161.05232"
   height="211.77364"
   id="svg18823"
   version="1.1"
   inkscape:version="0.48.4 r9939"
   sodipodi:docname="Новий документ 293">
  <defs
     id="defs18825" />
  <sodipodi:namedview
     id="base"
     pagecolor="#ffffff"
     bordercolor="#666666"
     borderopacity="1.0"
     inkscape:pageopacity="0.0"
     inkscape:pageshadow="2"
     inkscape:zoom="1.4"
     inkscape:cx="149.57951"
     inkscape:cy="89.273205"
     inkscape:document-units="px"
     inkscape:current-layer="layer1"
     showgrid="false"
     fit-margin-top="0"
     fit-margin-left="0"
     fit-margin-right="0"
     fit-margin-bottom="0"
     inkscape:window-width="1855"
     inkscape:window-height="1056"
     inkscape:window-x="65"
     inkscape:window-y="24"
     inkscape:window-maximized="1" />
  <metadata
     id="metadata18828">
    <rdf:RDF>
      <cc:Work
         rdf:about="">
        <dc:format>image/svg+xml</dc:format>
        <dc:type
           rdf:resource="http://purl.org/dc/dcmitype/StillImage" />
        <dc:title></dc:title>
      </cc:Work>
    </rdf:RDF>
  </metadata>
  <g
     inkscape:label="Layer 1"
     inkscape:groupmode="layer"
     id="layer1"
     transform="translate(-190.89554,-317.90731)">
    <g
       style="display:inline"
       id="g9164"
       transform="matrix(0.8921,0,0,0.8921,-301.65517,-5188.1225)">
      <path
         style="fill:none;stroke:#dba981;stroke-width:2.5;stroke-linecap:round;stroke-linejoin:miter;stroke-miterlimit:4;stroke-opacity:1;stroke-dasharray:7.5, 2.5;stroke-dashoffset:0"
         d="m 572,6343 6,-1 26,-1 43,2 46,5"
         id="path3874-7-8-0-3-3-1"
         inkscape:connector-curvature="0"
         sodipodi:nodetypes="ccccc" />
      <path
         style="fill:none;stroke:#dba981;stroke-width:1.48899996;stroke-linecap:round;stroke-linejoin:miter;stroke-miterlimit:4;stroke-opacity:1;stroke-dasharray:4.467, 1.489;stroke-dashoffset:0"
         d="m 559,6285 c 0,0 9,-6 14,-8 6,-2 13,-3 19,-3 20,-1 42,-2 59,3 19,5 40,22 52,23"
         id="path3868-7-7-4-4-8-1"
         inkscape:connector-curvature="0"
         sodipodi:nodetypes="caacc" />
      <path
         style="fill:none;stroke:#dba981;stroke-width:1.48899996;stroke-linecap:round;stroke-linejoin:miter;stroke-miterlimit:4;stroke-opacity:1;stroke-dasharray:4.467, 1.489;stroke-dashoffset:0"
         d="m 600,6200 c -7,17 51,21 63,-1"
         id="path3876-91-29-8-7-1-8"
         inkscape:connector-curvature="0"
         sodipodi:nodetypes="cc" />
      <path
         style="fill:none;stroke:#dba981;stroke-width:1.48899996;stroke-linecap:round;stroke-linejoin:miter;stroke-miterlimit:4;stroke-opacity:1;stroke-dasharray:4.467, 1.489;stroke-dashoffset:0"
         d="m 575,6404 c 25,5 84,8 116,-2"
         id="path3878-7-1-40-0-8-1"
         inkscape:connector-curvature="0"
         sodipodi:nodetypes="cc" />
      <path
         style="fill:none;stroke:#dba981;stroke-width:1.48899996;stroke-linecap:round;stroke-linejoin:miter;stroke-miterlimit:4;stroke-opacity:1;stroke-dasharray:4.467, 1.489;stroke-dashoffset:0"
         d="m 556,6304 c 0,0 8,-2 25,-2 l 59,-1 c 12,1 27,2 61,8"
         id="path3872-1-8-9-0-5-0"
         inkscape:connector-curvature="0"
         sodipodi:nodetypes="cccc" />
      <path
         sodipodi:nodetypes="csc"
         inkscape:connector-curvature="0"
         id="path2993-6-7-5-8-8"
         d="m 702,6297 c 2,3 -6,45 -14,66 -4,11 -6,31 -5,42"
         style="fill:none;stroke:#dba981;stroke-width:1.48899996;stroke-linecap:round;stroke-linejoin:miter;stroke-miterlimit:4;stroke-opacity:1;stroke-dasharray:4.467, 1.489;stroke-dashoffset:0" />
      <path
         sodipodi:nodetypes="caac"
         inkscape:connector-curvature="0"
         id="path3009-0-7-5-3-2"
         d="m 717,6215 c -15,4 -19,9 -24,18 -9,16 -18,40 -7,55 6,8 24,13 30,5"
         style="fill:none;stroke:#dba981;stroke-width:3.72099996;stroke-linecap:round;stroke-linejoin:miter;stroke-miterlimit:4;stroke-opacity:1;stroke-dasharray:none" />
      <path
         sodipodi:nodetypes="csc"
         inkscape:connector-curvature="0"
         id="path3011-2-2-3-8-3"
         d="m 605,6181 c 0,0 11,5 17,5 33,2 41,-9 41,-9"
         style="fill:none;stroke:#dba981;stroke-width:3.72099996;stroke-linecap:round;stroke-linejoin:miter;stroke-miterlimit:4;stroke-opacity:1;stroke-dasharray:none" />
      <path
         style="fill:none;stroke:#dba981;stroke-width:1.48899996;stroke-linecap:round;stroke-linejoin:miter;stroke-miterlimit:4;stroke-opacity:1;stroke-dasharray:4.467, 1.489;stroke-dashoffset:0"
         d="m 657,6183 c 3,10 1,9 4,12 10,12 31,17 44,20"
         id="path3992-4-9-6-1-0-0-1-0-3"
         inkscape:connector-curvature="0"
         sodipodi:nodetypes="cac" />
      <path
         sodipodi:nodetypes="cccscccccccacacccc"
         inkscape:connector-curvature="0"
         id="path15557-6-3"
         d="m 573,6403 c 2,-13 -1,-29 -2,-42 0,-6 2,-11 0,-19 -9,-8 -17,-27 -17,-40 0,-12 8,-20 11,-33 2,-6 -6,-15 -8,-25 -3,-10 0,-22 5,-23 10,-2 26,-9 35,-16 8,-8 7,-24 7,-24 0,0 1,-5 17,-7 15,-1 43,3 43,3 0,0 -1,11 2,15 11,14 38,16 48,21 15,6 14,12 16,20 4,21 -8,45 -15,62 -6,13 -6,29 -10,43 -3,9 -6,17 -9,26 -2,8 -5,28 -4,37"
         style="fill:none;stroke:#dba981;stroke-width:3.72099996;stroke-linecap:round;stroke-linejoin:round;stroke-miterlimit:4;stroke-opacity:1;stroke-dasharray:none" />
      <path
         sodipodi:nodetypes="cccc"
         inkscape:connector-curvature="0"
         id="path3874-7-8-0-4-6-3-6"
         d="m 574,6367 6,-1 c 23,-3 45,-1 69,1 l 36,4"
         style="fill:none;stroke:#dba981;stroke-width:1.48899996;stroke-linecap:round;stroke-linejoin:miter;stroke-miterlimit:4;stroke-opacity:1;stroke-dasharray:4.467, 1.489;stroke-dashoffset:0" />
      <path
         style="fill:none;stroke:#000000;stroke-width:3;stroke-linecap:round;stroke-linejoin:round;stroke-miterlimit:4;stroke-opacity:1;stroke-dasharray:none;marker-start:url(#marker7359);marker-end:url(#marker7359)"
         d="m 679,6286 -79,16"
         id="path7494-1-6-3-5-81-64-9-2-0-5-7-3-2-4-0-9-7-9-10-5-4"
         inkscape:connector-curvature="0"
         sodipodi:nodetypes="cc" />
      <path
         sodipodi:nodetypes="csssc"
         inkscape:connector-curvature="0"
         id="path4050-8-0-5-3-4-0-7-3-0-68-5-6-5-9-3-0-9-0-4-8-6-7"
         d="m 663,6293 c 0,8 -7,14 -14,14 -8,0 -14,-6 -14,-14 0,-8 6,-14 14,-14 7,0 13,6 14,14"
         style="color:#000000;fill:#ffffff;fill-opacity:1;stroke:#00000f;stroke-width:1.39240003;stroke-linecap:round;stroke-linejoin:miter;stroke-miterlimit:4;stroke-opacity:0.94120029;stroke-dashoffset:0;marker:none;visibility:visible;display:inline;overflow:visible;enable-background:accumulate" />
      <text
         sodipodi:linespacing="125%"
         id="text8512-9-6-3-7-2-5-4-0-2-8-2"
         y="6299.1738"
         x="639.172"
         style="font-size:18px;font-style:normal;font-variant:normal;font-weight:normal;font-stretch:normal;text-align:start;line-height:125%;letter-spacing:0px;word-spacing:0px;writing-mode:lr-tb;text-anchor:start;fill:#000000;fill-opacity:1;stroke:none;font-family:Standard Symbols L;-inkscape-font-specification:Standard Symbols L"
         xml:space="preserve"><tspan
           y="6299.1738"
           x="639.172"
           id="tspan8514-9-9-1-0-8-3-6-0-4-4-4"
           sodipodi:role="line">10</tspan></text>
      <path
         sodipodi:nodetypes="caacc"
         inkscape:connector-curvature="0"
         id="path3868-7-7-4-4-8-1-5"
         d="m 613.4,6406 c 0,0 2.8,-43 -0.9,-64 -2.3,-13 -12,-24 -13,-37 -0.9,-11 -0.9,-21 6.1,-33 9.9,-29 13,-41 18,-59"
         style="fill:none;stroke:#dba981;stroke-width:1.48899996;stroke-linecap:round;stroke-linejoin:miter;stroke-miterlimit:4;stroke-opacity:1;stroke-dasharray:4.467, 1.489;stroke-dashoffset:0" />
    </g>
  </g>
</svg>
