<?xml version="1.0" encoding="UTF-8" standalone="no"?>
<!-- Created with Inkscape (http://www.inkscape.org/) -->

<svg
   xmlns:dc="http://purl.org/dc/elements/1.1/"
   xmlns:cc="http://creativecommons.org/ns#"
   xmlns:rdf="http://www.w3.org/1999/02/22-rdf-syntax-ns#"
   xmlns:svg="http://www.w3.org/2000/svg"
   xmlns="http://www.w3.org/2000/svg"
   xmlns:sodipodi="http://sodipodi.sourceforge.net/DTD/sodipodi-0.dtd"
   xmlns:inkscape="http://www.inkscape.org/namespaces/inkscape"
   width="166.00067"
   height="216.17116"
   id="svg19015"
   version="1.1"
   inkscape:version="0.48.4 r9939"
   sodipodi:docname="Новий документ 299">
  <defs
     id="defs19017" />
  <sodipodi:namedview
     id="base"
     pagecolor="#ffffff"
     bordercolor="#666666"
     borderopacity="1.0"
     inkscape:pageopacity="0.0"
     inkscape:pageshadow="2"
     inkscape:zoom="1.979899"
     inkscape:cx="65.77735"
     inkscape:cy="124.01422"
     inkscape:document-units="px"
     inkscape:current-layer="layer1"
     showgrid="false"
     fit-margin-top="0"
     fit-margin-left="0"
     fit-margin-right="0"
     fit-margin-bottom="0"
     inkscape:window-width="1855"
     inkscape:window-height="1056"
     inkscape:window-x="65"
     inkscape:window-y="24"
     inkscape:window-maximized="1" />
  <metadata
     id="metadata19020">
    <rdf:RDF>
      <cc:Work
         rdf:about="">
        <dc:format>image/svg+xml</dc:format>
        <dc:type
           rdf:resource="http://purl.org/dc/dcmitype/StillImage" />
        <dc:title></dc:title>
      </cc:Work>
    </rdf:RDF>
  </metadata>
  <g
     inkscape:label="Layer 1"
     inkscape:groupmode="layer"
     id="layer1"
     transform="translate(-276.99939,-301.42351)">
    <g
       style="display:inline"
       id="g18233"
       transform="matrix(0.8062,0,0,0.8062,-871.93639,-4948.5421)">
      <path
         style="fill:none;stroke:#dba981;stroke-width:1.48899996;stroke-linecap:round;stroke-linejoin:miter;stroke-miterlimit:4;stroke-opacity:1;stroke-dasharray:4.467, 1.489;stroke-dashoffset:0"
         d="m 1492,6776 c 0,0 4,-50 -1,-74 -5,-1 -18,-24 -19,-46 0,-12 4,-21 11,-33 10,-29 19,-45 24,-63"
         id="path3868-7-7-4-4-8-1-5-0-8-9-8-0"
         inkscape:connector-curvature="0"
         sodipodi:nodetypes="ccscc" />
      <path
         style="fill:none;stroke:#dba981;stroke-width:1.48899996;stroke-linecap:round;stroke-linejoin:miter;stroke-miterlimit:4;stroke-opacity:1;stroke-dasharray:4.467, 1.489;stroke-dashoffset:0"
         d="m 1447,6705 7,-1 29,-1 49,2 52,6"
         id="path3874-7-8-0-3-9-1-5-9"
         inkscape:connector-curvature="0"
         sodipodi:nodetypes="ccccc" />
      <path
         style="fill:none;stroke:#dba981;stroke-width:1.48899996;stroke-linecap:round;stroke-linejoin:miter;stroke-miterlimit:4;stroke-opacity:1;stroke-dasharray:4.467, 1.489;stroke-dashoffset:0"
         d="m 1432,6640 c 0,0 10,-7 16,-10 7,-2 15,-3 22,-3 22,-1 45,-2 66,3 21,5 46,25 59,26"
         id="path3868-7-7-4-4-2-5-2-4"
         inkscape:connector-curvature="0"
         sodipodi:nodetypes="caaac" />
      <path
         style="fill:none;stroke:#dba981;stroke-width:1.48899996;stroke-linecap:round;stroke-linejoin:miter;stroke-miterlimit:4;stroke-opacity:1;stroke-dasharray:4.467, 1.489;stroke-dashoffset:0"
         d="m 1479,6543 c -8,19 57,24 71,-1"
         id="path3876-91-29-8-7-18-3-3-3"
         inkscape:connector-curvature="0"
         sodipodi:nodetypes="cc" />
      <path
         style="fill:none;stroke:#dba981;stroke-width:1.48899996;stroke-linecap:round;stroke-linejoin:miter;stroke-miterlimit:4;stroke-opacity:1;stroke-dasharray:4.467, 1.489;stroke-dashoffset:0"
         d="m 1450,6774 c 29,6 96,9 132,-2"
         id="path3878-7-1-40-0-5-1-4-4"
         inkscape:connector-curvature="0"
         sodipodi:nodetypes="cc" />
      <path
         style="fill:none;stroke:#dba981;stroke-width:1.48899996;stroke-linecap:round;stroke-linejoin:miter;stroke-miterlimit:4;stroke-opacity:1;stroke-dasharray:4.467, 1.489;stroke-dashoffset:0"
         d="m 1429,6661 c 0,0 17,-2 25,-3 24,-2 46,-3 70,0 24,2 51,9 69,13"
         id="path3872-1-8-9-0-4-9-9-1"
         inkscape:connector-curvature="0"
         sodipodi:nodetypes="caac" />
      <path
         sodipodi:nodetypes="csc"
         inkscape:connector-curvature="0"
         id="path2993-6-7-5-5-3-7-9"
         d="m 1594,6653 c 2,3 -7,51 -16,75 -4,12 -6,35 -5,47"
         style="fill:none;stroke:#dba981;stroke-width:1.48899996;stroke-linecap:round;stroke-linejoin:miter;stroke-miterlimit:4;stroke-opacity:1;stroke-dasharray:4.467, 1.489;stroke-dashoffset:0" />
      <path
         sodipodi:nodetypes="caac"
         inkscape:connector-curvature="0"
         id="path3009-0-7-5-2-2-0-2"
         d="m 1611,6560 c -17,5 -21,10 -27,21 -10,18 -20,45 -8,62 7,9 27,15 34,6"
         style="fill:none;stroke:#dba981;stroke-width:3.72099996;stroke-linecap:round;stroke-linejoin:miter;stroke-miterlimit:4;stroke-opacity:1;stroke-dasharray:none" />
      <path
         sodipodi:nodetypes="csc"
         inkscape:connector-curvature="0"
         id="path3011-2-2-3-9-6-6-5"
         d="m 1484,6522 c 0,0 13,5 20,5 37,3 46,-10 46,-10"
         style="fill:none;stroke:#dba981;stroke-width:3.72099996;stroke-linecap:round;stroke-linejoin:miter;stroke-miterlimit:4;stroke-opacity:1;stroke-dasharray:none" />
      <path
         style="fill:none;stroke:#dba981;stroke-width:1.48899996;stroke-linecap:round;stroke-linejoin:miter;stroke-miterlimit:4;stroke-opacity:1;stroke-dasharray:4.467, 1.489;stroke-dashoffset:0"
         d="m 1543,6524 c 4,11 1,10 5,14 11,13 35,19 50,22"
         id="path3992-4-9-6-1-0-0-1-02-4-0-1"
         inkscape:connector-curvature="0"
         sodipodi:nodetypes="cac" />
      <path
         sodipodi:nodetypes="cccscccccccacacccc"
         inkscape:connector-curvature="0"
         id="path15557-4-6-8-5"
         d="m 1448,6773 c 2,-15 -1,-33 -2,-47 0,-7 2,-13 0,-22 -10,-9 -19,-31 -19,-45 0,-14 9,-23 12,-38 2,-6 -7,-17 -9,-28 -3,-11 0,-25 6,-26 11,-2 29,-10 39,-18 9,-9 8,-27 8,-27 0,0 1,-6 19,-8 17,-1 49,3 49,3 0,0 -1,13 2,17 13,16 43,18 55,24 17,7 16,14 18,23 4,23 -9,51 -17,70 -7,15 -7,33 -11,49 -4,10 -7,19 -11,29 -2,9 -5,32 -4,42"
         style="fill:none;stroke:#dba981;stroke-width:3.72099996;stroke-linecap:round;stroke-linejoin:round;stroke-miterlimit:4;stroke-opacity:1;stroke-dasharray:none" />
      <path
         sodipodi:nodetypes="cccc"
         inkscape:connector-curvature="0"
         id="path3874-7-8-0-4-6-5-0-1-1"
         d="m 1449,6732 7,-1 c 26,-3 51,-1 78,1 l 41,5"
         style="fill:none;stroke:#dba981;stroke-width:1.48899996;stroke-linecap:round;stroke-linejoin:miter;stroke-miterlimit:4;stroke-opacity:1;stroke-dasharray:4.467, 1.489;stroke-dashoffset:0" />
      <path
         sodipodi:nodetypes="ccc"
         id="path10227-2-1"
         d="m 1574,6604 c 17,-36 20,-42 39,-41 14,1 20,13 14,41"
         style="fill:none;stroke:#000000;stroke-width:3.39899993;stroke-linecap:round;stroke-linejoin:round;stroke-miterlimit:4;stroke-opacity:1;stroke-dasharray:none;marker-start:url(#marker7359);marker-end:url(#marker7359)"
         inkscape:connector-curvature="0" />
      <path
         sodipodi:nodetypes="csssc"
         inkscape:connector-curvature="0"
         id="path4050-8-0-5-3-4-0-7-3-0-68-5-6-5-9-3-0-9-0-4-8-9-3-3-5"
         d="m 1601,6581 c 0,9 -8,15 -16,15 -9,0 -16,-6 -16,-15 0,-10 7,-16 16,-16 8,0 15,6 16,16"
         style="color:#000000;fill:#ffffff;fill-opacity:1;stroke:#00000f;stroke-width:1.5776;stroke-linecap:round;stroke-linejoin:miter;stroke-miterlimit:4;stroke-opacity:0.94120029;stroke-dashoffset:0;marker:none;visibility:visible;display:inline;overflow:visible;enable-background:accumulate" />
      <text
         sodipodi:linespacing="125%"
         id="text8512-9-6-3-7-2-5-4-0-2-5-6-9-6"
         y="6587.4443"
         x="1574.7734"
         style="font-size:20.3939991px;font-style:normal;font-variant:normal;font-weight:normal;font-stretch:normal;text-align:start;line-height:125%;letter-spacing:0px;word-spacing:0px;writing-mode:lr-tb;text-anchor:start;fill:#000000;fill-opacity:1;stroke:none;font-family:Standard Symbols L;-inkscape-font-specification:Standard Symbols L"
         xml:space="preserve"><tspan
           y="6587.4443"
           x="1574.7734"
           id="tspan8514-9-9-1-0-8-3-6-0-4-44-6-4-7"
           sodipodi:role="line">12</tspan></text>
    </g>
  </g>
</svg>
