<?xml version="1.0" encoding="UTF-8" standalone="no"?>
<!-- Created with Inkscape (http://www.inkscape.org/) -->

<svg
   xmlns:dc="http://purl.org/dc/elements/1.1/"
   xmlns:cc="http://creativecommons.org/ns#"
   xmlns:rdf="http://www.w3.org/1999/02/22-rdf-syntax-ns#"
   xmlns:svg="http://www.w3.org/2000/svg"
   xmlns="http://www.w3.org/2000/svg"
   xmlns:sodipodi="http://sodipodi.sourceforge.net/DTD/sodipodi-0.dtd"
   xmlns:inkscape="http://www.inkscape.org/namespaces/inkscape"
   width="195.46663"
   height="220.79686"
   id="svg17782"
   version="1.1"
   inkscape:version="0.48.4 r9939"
   sodipodi:docname="Новий документ 269">
  <defs
     id="defs17784" />
  <sodipodi:namedview
     id="base"
     pagecolor="#ffffff"
     bordercolor="#666666"
     borderopacity="1.0"
     inkscape:pageopacity="0.0"
     inkscape:pageshadow="2"
     inkscape:zoom="1.979899"
     inkscape:cx="221.43571"
     inkscape:cy="67.166905"
     inkscape:document-units="px"
     inkscape:current-layer="layer1"
     showgrid="false"
     fit-margin-top="0"
     fit-margin-left="0"
     fit-margin-right="0"
     fit-margin-bottom="0"
     inkscape:window-width="1855"
     inkscape:window-height="1056"
     inkscape:window-x="65"
     inkscape:window-y="24"
     inkscape:window-maximized="1" />
  <metadata
     id="metadata17787">
    <rdf:RDF>
      <cc:Work
         rdf:about="">
        <dc:format>image/svg+xml</dc:format>
        <dc:type
           rdf:resource="http://purl.org/dc/dcmitype/StillImage" />
        <dc:title></dc:title>
      </cc:Work>
    </rdf:RDF>
  </metadata>
  <g
     inkscape:label="Layer 1"
     inkscape:groupmode="layer"
     id="layer1"
     transform="translate(-222.26938,-336.29631)">
    <g
       id="g17847">
      <g
         id="text6934-2-5-81-7"
         style="font-size:17.21803474px;font-style:normal;font-variant:normal;font-weight:normal;font-stretch:normal;text-align:start;line-height:125%;letter-spacing:0px;word-spacing:0px;writing-mode:lr-tb;text-anchor:start;fill:#000000;fill-opacity:1;stroke:none;font-family:Standard Symbols L;-inkscape-font-specification:Standard Symbols L"
         transform="scale(1.0124452,0.98770776)">
        <path
           id="path17837"
           d="m 293.12885,340.48159 7.21342,0 0,1.42923 -5.51516,0 0,3.69918 4.97709,0 0,1.42924 -4.97709,0 0,5.99436 -1.69826,0 0,-12.55201"
           inkscape:connector-curvature="0" />
        <path
           id="path17839"
           d="m 307.19417,345.06353 c -0.17376,-0.10088 -0.36432,-0.17374 -0.57169,-0.21859 -0.20178,-0.0504 -0.42598,-0.0756 -0.67258,-0.0757 -0.87436,10e-6 -1.54694,0.28585 -2.01774,0.85754 -0.4652,0.56609 -0.69781,1.38159 -0.6978,2.44651 l 0,4.96027 -1.55534,0 0,-9.41611 1.55534,0 0,1.46286 c 0.32507,-0.57169 0.74824,-0.99485 1.26949,-1.2695 0.52125,-0.28023 1.15459,-0.42035 1.90004,-0.42036 0.10648,1e-5 0.22419,0.008 0.3531,0.0252 0.12891,0.0112 0.27183,0.0308 0.42877,0.0589 l 0.008,1.58897"
           inkscape:connector-curvature="0" />
        <path
           id="path17841"
           d="m 312.11241,344.70202 c -0.82952,10e-6 -1.48529,0.32509 -1.9673,0.97524 -0.48202,0.64456 -0.72302,1.53013 -0.72302,2.65669 0,1.12657 0.2382,2.01494 0.71461,2.6651 0.48202,0.64455 1.14058,0.96683 1.97571,0.96683 0.8239,0 1.47686,-0.32508 1.95888,-0.97524 0.48201,-0.65016 0.72302,-1.53572 0.72303,-2.65669 -1e-5,-1.11535 -0.24102,-1.99811 -0.72303,-2.64828 -0.48202,-0.65576 -1.13498,-0.98364 -1.95888,-0.98365 m 0,-1.31153 c 1.34515,10e-6 2.40166,0.43719 3.16953,1.31153 0.76785,0.87436 1.15178,2.085 1.15179,3.63193 -1e-5,1.54133 -0.38394,2.75197 -1.15179,3.63193 -0.76787,0.87435 -1.82438,1.31153 -3.16953,1.31153 -1.35077,0 -2.41008,-0.43718 -3.17794,-1.31153 -0.76226,-0.87996 -1.14339,-2.0906 -1.14339,-3.63193 0,-1.54693 0.38113,-2.75757 1.14339,-3.63193 0.76786,-0.87434 1.82717,-1.31152 3.17794,-1.31153"
           inkscape:connector-curvature="0" />
        <path
           id="path17843"
           d="m 326.81668,347.3503 0,5.6833 -1.54694,0 0,-5.63285 c 0,-0.89116 -0.17375,-1.55814 -0.52124,-2.00093 -0.34751,-0.44277 -0.86876,-0.66416 -1.56375,-0.66417 -0.83513,10e-6 -1.49369,0.26624 -1.9757,0.79869 -0.48202,0.53246 -0.72303,1.25829 -0.72303,2.17747 l 0,5.32179 -1.55534,0 0,-9.41611 1.55534,0 0,1.46286 c 0.36992,-0.56608 0.80429,-0.98925 1.30313,-1.2695 0.50443,-0.28023 1.08452,-0.42035 1.7403,-0.42036 1.08172,10e-6 1.90002,0.3363 2.45491,1.00887 0.55487,0.66698 0.83231,1.65063 0.83232,2.95094"
           inkscape:connector-curvature="0" />
        <path
           id="path17845"
           d="m 331.44907,340.94398 0,2.67351 3.18634,0 0,1.20223 -3.18634,0 0,5.11161 c 0,0.76786 0.10368,1.26109 0.31107,1.47967 0.21298,0.21859 0.64175,0.32789 1.2863,0.32788 l 1.58897,0 0,1.29472 -1.58897,0 c -1.19383,0 -2.01774,-0.22139 -2.47172,-0.66417 -0.454,-0.44839 -0.68099,-1.26109 -0.68099,-2.4381 l 0,-5.11161 -1.13498,0 0,-1.20223 1.13498,0 0,-2.67351 1.55534,0"
           inkscape:connector-curvature="0" />
      </g>
      <path
         style="fill:none;stroke:#aaaaaa;stroke-width:2.44869995;stroke-linecap:butt;stroke-linejoin:miter;stroke-miterlimit:4;stroke-opacity:1;stroke-dasharray:4.89740005, 2.44870002;stroke-dashoffset:0"
         d="m 321.70818,370.8602 c 13.96602,0 25.70078,0.8062 23.88272,6.4496"
         id="path8645-3-34"
         inkscape:connector-curvature="0"
         sodipodi:nodetypes="cc" />
      <path
         sodipodi:nodetypes="cc"
         inkscape:connector-curvature="0"
         id="path3992-4-77-9-5-7-1-2-9-8-8-6-2-3-7-1-5"
         d="m 251.13435,459.5422 136.10668,0"
         style="fill:none;stroke:#dba981;stroke-width:1.21545303;stroke-linecap:round;stroke-linejoin:miter;stroke-miterlimit:4;stroke-opacity:1;stroke-dasharray:3.64644083, 1.21545307;stroke-dashoffset:0" />
      <path
         sodipodi:nodetypes="cc"
         inkscape:connector-curvature="0"
         id="path8584-1-4-6-3-4-4-4-4-6-3-3"
         d="m 386.00145,459.5422 c -7.18961,-5.6434 -13.63546,-37.0852 2.06598,-66.9146"
         style="fill:none;stroke:#dba981;stroke-width:1.2912811;stroke-linecap:round;stroke-linejoin:miter;stroke-miterlimit:4;stroke-opacity:1;stroke-dasharray:3.87384344, 1.29128115;stroke-dashoffset:0" />
      <path
         sodipodi:nodetypes="cc"
         inkscape:connector-curvature="0"
         id="path8584-6-7-8-0-3-1-3-3-1-8-0-8"
         d="m 251.63018,458.736 c 6.52849,-11.2868 11.23893,-29.8294 -1.81806,-66.1084"
         style="fill:none;stroke:#dba981;stroke-width:1.2912811;stroke-linecap:round;stroke-linejoin:miter;stroke-miterlimit:4;stroke-opacity:1;stroke-dasharray:3.87384344, 1.29128115;stroke-dashoffset:0" />
      <path
         sodipodi:nodetypes="cc"
         inkscape:connector-curvature="0"
         id="path3992-4-77-9-5-7-1-2-90-18-83-9"
         d="m 291.29698,374.085 c 10.49517,15.3178 40.3279,16.124 52.39322,2.4186"
         style="fill:none;stroke:#dba981;stroke-width:1.2912811;stroke-linecap:round;stroke-linejoin:miter;stroke-miterlimit:4;stroke-opacity:1;stroke-dasharray:3.87384344, 1.29128115;stroke-dashoffset:0" />
      <path
         style="fill:none;stroke:#dba981;stroke-width:3.03883672;stroke-linecap:round;stroke-linejoin:miter;stroke-miterlimit:4;stroke-opacity:1;stroke-dasharray:none"
         d="m 261.71216,551.449 c -0.4132,-20.155 -2.80973,-32.248 -4.62779,-49.1782 -1.57015,-13.7054 -0.99167,-29.0232 -5.53683,-42.7286 -2.64445,-6.4496 -50.90572,-27.4108 -13.80074,-61.2712 27.8494,-16.124 57.76477,-12.093 57.02102,-37.8914 11.23893,5.6434 36.19595,7.2558 46.60848,-1.6124 -0.16527,33.0542 40.07999,24.9922 62.4752,42.7286 24.29592,23.3798 9.33823,39.5038 -15.04032,56.434 -5.20627,10.4806 -7.18961,32.248 -8.51183,42.7286 -3.30557,16.124 -6.61114,36.279 -6.19794,54.8216"
         id="path14448-9"
         inkscape:connector-curvature="0"
         sodipodi:nodetypes="cccccccccc" />
      <path
         sodipodi:nodetypes="cc"
         inkscape:connector-curvature="0"
         id="path3992-4-77-9-5-7-1-2-9-8-8-6-2-3-1"
         d="m 261.29896,553.0614 112.80245,0.8062"
         style="fill:none;stroke:#dba981;stroke-width:1.21545303;stroke-linecap:round;stroke-linejoin:miter;stroke-miterlimit:4;stroke-opacity:1;stroke-dasharray:3.64644083, 1.21545307;stroke-dashoffset:0" />
      <path
         style="fill:none;stroke:#000000;stroke-width:2.44869995;stroke-linecap:round;stroke-linejoin:round;stroke-miterlimit:4;stroke-opacity:1;stroke-dasharray:none;marker-start:url(#marker7359);marker-end:url(#marker7359)"
         d="m 345.83882,374.085 c 12.47851,8.062 26.11397,56.434 34.29525,84.651"
         id="path7494-1-6-3-5-81-64-9-2-9-5-3-0-6-1-6-2"
         inkscape:connector-curvature="0"
         sodipodi:nodetypes="cc" />
      <path
         sodipodi:type="arc"
         style="color:#000000;fill:#ffffff;fill-opacity:1;stroke:#00000f;stroke-width:3;stroke-linecap:round;stroke-linejoin:miter;stroke-miterlimit:4;stroke-opacity:0.94120029;stroke-dasharray:none;stroke-dashoffset:0;marker:none;visibility:visible;display:inline;overflow:visible;enable-background:accumulate"
         id="path4050-8-0-9-9-5-9-7-8-9-5-5-6-4-29-5"
         sodipodi:cx="57.75"
         sodipodi:cy="50.32"
         sodipodi:rx="20"
         sodipodi:ry="20"
         d="m 77.75,50.32 c 0,11.045695 -8.954305,20 -20,20 -11.045695,0 -20,-8.954305 -20,-20 0,-11.045695 8.954305,-20 20,-20 11.005217,0 19.942666,8.891225 19.999731,19.896294"
         sodipodi:start="0"
         sodipodi:end="6.278"
         sodipodi:open="true"
         transform="matrix(-0.73904196,0,0,0.72098466,407.98346,369.2478)" />
      <text
         transform="scale(1.0124452,0.98770775)"
         xml:space="preserve"
         style="font-size:16.70535851px;font-style:normal;font-variant:normal;font-weight:normal;font-stretch:normal;text-align:start;line-height:125%;letter-spacing:0px;word-spacing:0px;writing-mode:lr-tb;text-anchor:start;fill:#000000;fill-opacity:1;stroke:none;font-family:Standard Symbols L;-inkscape-font-specification:Standard Symbols L"
         x="356.82098"
         y="416.07288"
         id="text17174-0-6-9-7"
         sodipodi:linespacing="125%"><tspan
           sodipodi:role="line"
           id="tspan17176-0-8-3-83"
           x="356.82098"
           y="416.07288">2</tspan></text>
    </g>
  </g>
</svg>
