<?xml version="1.0" encoding="UTF-8" standalone="no"?>
<!-- Created with Inkscape (http://www.inkscape.org/) -->

<svg
   xmlns:dc="http://purl.org/dc/elements/1.1/"
   xmlns:cc="http://creativecommons.org/ns#"
   xmlns:rdf="http://www.w3.org/1999/02/22-rdf-syntax-ns#"
   xmlns:svg="http://www.w3.org/2000/svg"
   xmlns="http://www.w3.org/2000/svg"
   xmlns:sodipodi="http://sodipodi.sourceforge.net/DTD/sodipodi-0.dtd"
   xmlns:inkscape="http://www.inkscape.org/namespaces/inkscape"
   width="190.73991"
   height="220.21353"
   id="svg17909"
   version="1.1"
   inkscape:version="0.48.4 r9939"
   sodipodi:docname="Новий документ 272">
  <defs
     id="defs17911" />
  <sodipodi:namedview
     id="base"
     pagecolor="#ffffff"
     bordercolor="#666666"
     borderopacity="1.0"
     inkscape:pageopacity="0.0"
     inkscape:pageshadow="2"
     inkscape:zoom="1.979899"
     inkscape:cx="113.47633"
     inkscape:cy="146.37815"
     inkscape:document-units="px"
     inkscape:current-layer="layer1"
     showgrid="false"
     fit-margin-top="0"
     fit-margin-left="0"
     fit-margin-right="0"
     fit-margin-bottom="0"
     inkscape:window-width="1855"
     inkscape:window-height="1056"
     inkscape:window-x="65"
     inkscape:window-y="24"
     inkscape:window-maximized="1" />
  <metadata
     id="metadata17914">
    <rdf:RDF>
      <cc:Work
         rdf:about="">
        <dc:format>image/svg+xml</dc:format>
        <dc:type
           rdf:resource="http://purl.org/dc/dcmitype/StillImage" />
        <dc:title></dc:title>
      </cc:Work>
    </rdf:RDF>
  </metadata>
  <g
     inkscape:label="Layer 1"
     inkscape:groupmode="layer"
     id="layer1"
     transform="translate(-84.616878,-253.95357)">
    <g
       id="g17974">
      <g
         id="text6934-2-5-81-7-9"
         style="font-size:17.0063858px;font-style:normal;font-variant:normal;font-weight:normal;font-stretch:normal;text-align:start;line-height:125%;letter-spacing:0px;word-spacing:0px;writing-mode:lr-tb;text-anchor:start;fill:#000000;fill-opacity:1;stroke:none;font-family:Standard Symbols L;-inkscape-font-specification:Standard Symbols L">
        <path
           id="path17964"
           d="m 156.92563,253.95357 7.12475,0 0,1.41166 -5.44736,0 0,3.65371 4.91591,0 0,1.41167 -4.91591,0 0,5.92068 -1.67739,0 0,-12.39772"
           inkscape:connector-curvature="0" />
        <path
           id="path17966"
           d="m 170.81805,258.47919 c -0.17162,-0.0996 -0.35984,-0.1716 -0.56466,-0.2159 -0.1993,-0.0498 -0.42074,-0.0747 -0.66431,-0.0747 -0.86361,1e-5 -1.52793,0.28235 -1.99294,0.847 -0.45949,0.55914 -0.68923,1.36462 -0.68922,2.41644 l 0,4.8993 -1.53622,0 0,-9.30037 1.53622,0 0,1.44488 c 0.32108,-0.56466 0.73904,-0.98262 1.25389,-1.25389 0.51483,-0.27679 1.14039,-0.41519 1.87668,-0.41519 0.10517,0 0.22143,0.008 0.34876,0.0249 0.12732,0.0111 0.26849,0.0304 0.4235,0.0581 l 0.008,1.56944"
           inkscape:connector-curvature="0" />
        <path
           id="path17968"
           d="m 175.67583,258.12212 c -0.81932,1e-5 -1.46702,0.3211 -1.94311,0.96326 -0.47609,0.63663 -0.71414,1.51131 -0.71413,2.62403 -1e-5,1.11272 0.23527,1.99017 0.70583,2.63233 0.47608,0.63664 1.12656,0.95495 1.95141,0.95495 0.81378,0 1.45872,-0.32108 1.93481,-0.96325 0.47609,-0.64217 0.71413,-1.51684 0.71414,-2.62403 -1e-5,-1.10165 -0.23805,-1.97356 -0.71414,-2.61573 -0.47609,-0.6477 -1.12103,-0.97155 -1.93481,-0.97156 m 0,-1.2954 c 1.32862,0 2.37214,0.43181 3.13057,1.2954 0.75842,0.86362 1.13763,2.05938 1.13764,3.58729 -1e-5,1.52238 -0.37922,2.71814 -1.13764,3.58728 -0.75843,0.86361 -1.80195,1.29541 -3.13057,1.29541 -1.33416,0 -2.38045,-0.4318 -3.13887,-1.29541 -0.75289,-0.86914 -1.12933,-2.0649 -1.12933,-3.58728 0,-1.52791 0.37644,-2.72367 1.12933,-3.58729 0.75842,-0.86359 1.80471,-1.2954 3.13887,-1.2954"
           inkscape:connector-curvature="0" />
        <path
           id="path17970"
           d="m 190.19935,260.73785 0,5.61344 -1.52791,0 0,-5.56361 c -1e-5,-0.88021 -0.17163,-1.53899 -0.51485,-1.97633 -0.34323,-0.43733 -0.85807,-0.656 -1.54452,-0.65601 -0.82486,10e-6 -1.47533,0.26296 -1.95142,0.78887 -0.47609,0.52592 -0.71414,1.24282 -0.71413,2.15071 l 0,5.25637 -1.53622,0 0,-9.30037 1.53622,0 0,1.44488 c 0.36537,-0.55912 0.7944,-0.97708 1.2871,-1.25389 0.49823,-0.27679 1.0712,-0.41519 1.71891,-0.41519 1.06843,0 1.87667,0.33216 2.42474,0.99646 0.54805,0.65879 0.82207,1.63034 0.82208,2.91467"
           inkscape:connector-curvature="0" />
        <path
           id="path17972"
           d="m 194.7748,254.41028 0,2.64064 3.14718,0 0,1.18746 -3.14718,0 0,5.04877 c 0,0.75842 0.10241,1.24559 0.30725,1.46149 0.21036,0.2159 0.63386,0.32385 1.27049,0.32385 l 1.56944,0 0,1.2788 -1.56944,0 c -1.17916,0 -1.99294,-0.21867 -2.44134,-0.65601 -0.44842,-0.44287 -0.67262,-1.24558 -0.67262,-2.40813 l 0,-5.04877 -1.12103,0 0,-1.18746 1.12103,0 0,-2.64064 1.53622,0"
           inkscape:connector-curvature="0" />
      </g>
      <path
         style="fill:none;stroke:#aaaaaa;stroke-width:2.41860008;stroke-linecap:butt;stroke-linejoin:miter;stroke-miterlimit:4;stroke-opacity:1;stroke-dasharray:4.8372, 2.4186;stroke-dashoffset:0"
         d="m 181.66645,288.0124 c 13.62478,0 25.07282,0.8062 23.29918,6.4496"
         id="path8645-3-34-5"
         inkscape:connector-curvature="0"
         sodipodi:nodetypes="cc" />
      <path
         sodipodi:nodetypes="cc"
         inkscape:connector-curvature="0"
         id="path3992-4-77-9-5-7-1-2-9-8-8-6-2-3-7-1-5-5"
         d="m 112.81697,376.6944 132.78114,0"
         style="fill:none;stroke:#dba981;stroke-width:1.20051241;stroke-linecap:round;stroke-linejoin:miter;stroke-miterlimit:4;stroke-opacity:1;stroke-dasharray:3.60161788, 1.20051242;stroke-dashoffset:0" />
      <path
         sodipodi:nodetypes="cc"
         inkscape:connector-curvature="0"
         id="path8584-1-4-6-3-4-4-4-4-6-3-3-18"
         d="m 244.38881,376.6944 c -7.01394,-5.6434 -13.3023,-37.0852 2.0155,-66.9146"
         style="fill:none;stroke:#dba981;stroke-width:1.27540839;stroke-linecap:round;stroke-linejoin:miter;stroke-miterlimit:4;stroke-opacity:1;stroke-dasharray:3.8262252, 1.2754084;stroke-dashoffset:0" />
      <path
         sodipodi:nodetypes="cc"
         inkscape:connector-curvature="0"
         id="path8584-6-7-8-0-3-1-3-3-1-8-0-8-3"
         d="m 113.30069,375.8882 c 6.36898,-11.2868 10.96432,-29.8294 -1.77364,-66.1084"
         style="fill:none;stroke:#dba981;stroke-width:1.27540839;stroke-linecap:round;stroke-linejoin:miter;stroke-miterlimit:4;stroke-opacity:1;stroke-dasharray:3.8262252, 1.2754084;stroke-dashoffset:0" />
      <path
         sodipodi:nodetypes="cc"
         inkscape:connector-curvature="0"
         id="path3992-4-77-9-5-7-1-2-90-18-83-9-4"
         d="m 151.99829,291.2372 c 10.23874,15.3178 39.34256,16.124 51.11308,2.4186"
         style="fill:none;stroke:#dba981;stroke-width:1.27540839;stroke-linecap:round;stroke-linejoin:miter;stroke-miterlimit:4;stroke-opacity:1;stroke-dasharray:3.8262252, 1.2754084;stroke-dashoffset:0" />
      <path
         style="fill:none;stroke:#dba981;stroke-width:3.00148273;stroke-linecap:round;stroke-linejoin:miter;stroke-miterlimit:4;stroke-opacity:1;stroke-dasharray:none"
         d="m 123.13633,468.6012 c -0.4031,-20.155 -2.74108,-32.248 -4.51472,-49.1782 -1.53178,-13.7054 -0.96744,-29.0232 -5.40154,-42.7286 -2.57984,-6.4496 -49.66192,-27.4108 -13.46354,-61.2712 27.16894,-16.124 56.35338,-12.093 55.6278,-37.8914 10.96432,5.6434 35.31156,7.2558 45.46968,-1.6124 -0.16124,33.0542 39.1007,24.9922 60.94872,42.7286 23.70228,23.3798 9.11006,39.5038 -14.67284,56.434 -5.07906,10.4806 -7.01394,32.248 -8.30386,42.7286 -3.2248,16.124 -6.4496,36.279 -6.0465,54.8216"
         id="path14448-9-3"
         inkscape:connector-curvature="0"
         sodipodi:nodetypes="cccccccccc" />
      <path
         sodipodi:nodetypes="cc"
         inkscape:connector-curvature="0"
         id="path3992-4-77-9-5-7-1-2-9-8-8-6-2-3-1-6"
         d="m 122.73323,470.2136 110.0463,0.8062"
         style="fill:none;stroke:#dba981;stroke-width:1.20051241;stroke-linecap:round;stroke-linejoin:miter;stroke-miterlimit:4;stroke-opacity:1;stroke-dasharray:3.60161788, 1.20051242;stroke-dashoffset:0" />
      <path
         style="fill:none;stroke:#000000;stroke-width:2.41860008;stroke-linecap:round;stroke-linejoin:round;stroke-miterlimit:4;stroke-opacity:1;stroke-dasharray:none;marker-start:url(#marker7359);marker-end:url(#marker7359)"
         d="m 205.20749,291.2372 c 32.32862,19.3488 25.47592,147.5346 27.16894,178.9764"
         id="path7494-1-6-3-5-81-64-9-2-9-5-3-0-6-1-6-2-6"
         inkscape:connector-curvature="0"
         sodipodi:nodetypes="cc" />
      <path
         sodipodi:type="arc"
         style="color:#000000;fill:#ffffff;fill-opacity:1;stroke:#00000f;stroke-width:3;stroke-linecap:round;stroke-linejoin:miter;stroke-miterlimit:4;stroke-opacity:0.94120029;stroke-dasharray:none;stroke-dashoffset:0;marker:none;visibility:visible;display:inline;overflow:visible;enable-background:accumulate"
         id="path4050-8-0-9-9-5-9-7-8-9-5-5-6-4-29-5-48"
         sodipodi:cx="57.75"
         sodipodi:cy="50.32"
         sodipodi:rx="20"
         sodipodi:ry="20"
         d="m 77.75,50.32 c 0,11.045695 -8.954305,20 -20,20 -11.045695,0 -20,-8.954305 -20,-20 0,-11.045695 8.954305,-20 20,-20 11.005217,0 19.942666,8.891225 19.999731,19.896294"
         sodipodi:start="0"
         sodipodi:end="6.278"
         sodipodi:open="true"
         transform="matrix(-0.72098466,0,0,0.72098466,265.83373,286.4)" />
      <text
         xml:space="preserve"
         style="font-size:16.50001144px;font-style:normal;font-variant:normal;font-weight:normal;font-stretch:normal;text-align:start;line-height:125%;letter-spacing:0px;word-spacing:0px;writing-mode:lr-tb;text-anchor:start;fill:#000000;fill-opacity:1;stroke:none;font-family:Standard Symbols L;-inkscape-font-specification:Standard Symbols L"
         x="220.25356"
         y="328.11063"
         id="text17174-0-6-9-7-7"
         sodipodi:linespacing="125%"><tspan
           sodipodi:role="line"
           id="tspan17176-0-8-3-83-3"
           x="220.25356"
           y="328.11063">3</tspan></text>
    </g>
  </g>
</svg>
