<?xml version="1.0" encoding="UTF-8" standalone="no"?>
<!-- Created with Inkscape (http://www.inkscape.org/) -->

<svg
   xmlns:dc="http://purl.org/dc/elements/1.1/"
   xmlns:cc="http://creativecommons.org/ns#"
   xmlns:rdf="http://www.w3.org/1999/02/22-rdf-syntax-ns#"
   xmlns:svg="http://www.w3.org/2000/svg"
   xmlns="http://www.w3.org/2000/svg"
   xmlns:sodipodi="http://sodipodi.sourceforge.net/DTD/sodipodi-0.dtd"
   xmlns:inkscape="http://www.inkscape.org/namespaces/inkscape"
   width="196.36311"
   height="219.89771"
   id="svg18036"
   version="1.1"
   inkscape:version="0.48.4 r9939"
   sodipodi:docname="Новий документ 275">
  <defs
     id="defs18038" />
  <sodipodi:namedview
     id="base"
     pagecolor="#ffffff"
     bordercolor="#666666"
     borderopacity="1.0"
     inkscape:pageopacity="0.0"
     inkscape:pageshadow="2"
     inkscape:zoom="1.979899"
     inkscape:cx="62.960106"
     inkscape:cy="83.993016"
     inkscape:document-units="px"
     inkscape:current-layer="layer1"
     showgrid="false"
     fit-margin-top="0"
     fit-margin-left="0"
     fit-margin-right="0"
     fit-margin-bottom="0"
     inkscape:window-width="1855"
     inkscape:window-height="1056"
     inkscape:window-x="65"
     inkscape:window-y="24"
     inkscape:window-maximized="1" />
  <metadata
     id="metadata18041">
    <rdf:RDF>
      <cc:Work
         rdf:about="">
        <dc:format>image/svg+xml</dc:format>
        <dc:type
           rdf:resource="http://purl.org/dc/dcmitype/StillImage" />
        <dc:title></dc:title>
      </cc:Work>
    </rdf:RDF>
  </metadata>
  <g
     inkscape:label="Layer 1"
     inkscape:groupmode="layer"
     id="layer1"
     transform="translate(-216.09716,-274.10357)">
    <g
       id="g18101">
      <g
         id="text6934-2-5-81-7-7-7"
         style="font-size:17.26016045px;font-style:normal;font-variant:normal;font-weight:normal;font-stretch:normal;text-align:start;line-height:125%;letter-spacing:0px;word-spacing:0px;writing-mode:lr-tb;text-anchor:start;fill:#000000;fill-opacity:1;stroke:none;font-family:Standard Symbols L;-inkscape-font-specification:Standard Symbols L"
         transform="scale(1.0149223,0.9852971)">
        <path
           id="path18091"
           d="m 287.06295,278.19383 7.23106,0 0,1.43272 -5.52864,0 0,3.70824 4.98926,0 0,1.43273 -4.98926,0 0,6.00903 -1.70242,0 0,-12.58272"
           inkscape:connector-curvature="0" />
        <path
           id="path18093"
           d="m 301.16268,282.78698 c -0.17418,-0.10112 -0.36521,-0.17416 -0.57309,-0.21912 -0.20228,-0.0506 -0.42702,-0.0758 -0.67423,-0.0759 -0.87649,10e-6 -1.55072,0.28655 -2.02267,0.85964 -0.46634,0.56748 -0.69951,1.38497 -0.69951,2.45249 l 0,4.97241 -1.55915,0 0,-9.43915 1.55915,0 0,1.46644 c 0.32587,-0.57308 0.75007,-0.99728 1.2726,-1.2726 0.52252,-0.28092 1.15741,-0.42138 1.90468,-0.42139 0.10675,10e-6 0.22474,0.008 0.35397,0.0253 0.12922,0.0113 0.2725,0.0309 0.42982,0.059 l 0.008,1.59285"
           inkscape:connector-curvature="0" />
        <path
           id="path18095"
           d="m 306.09295,282.42459 c -0.83155,10e-6 -1.48892,0.32588 -1.97211,0.97762 -0.4832,0.64614 -0.72479,1.53387 -0.72479,2.66319 0,1.12933 0.23878,2.01987 0.71636,2.67162 0.48319,0.64613 1.14337,0.9692 1.98054,0.9692 0.82592,0 1.48048,-0.32588 1.96368,-0.97763 0.48319,-0.65175 0.72478,-1.53948 0.72479,-2.66319 -1e-5,-1.11808 -0.2416,-2.003 -0.72479,-2.65476 -0.4832,-0.65736 -1.13776,-0.98604 -1.96368,-0.98605 m 0,-1.31474 c 1.34844,1e-5 2.40754,0.43825 3.17728,1.31474 0.76974,0.8765 1.1546,2.0901 1.15461,3.64081 -1e-5,1.54511 -0.38487,2.75871 -1.15461,3.64082 -0.76974,0.87649 -1.82884,1.31474 -3.17728,1.31474 -1.35407,0 -2.41598,-0.43825 -3.18571,-1.31474 -0.76413,-0.88211 -1.14619,-2.09571 -1.14619,-3.64082 0,-1.55071 0.38206,-2.76431 1.14619,-3.64081 0.76973,-0.87649 1.83164,-1.31473 3.18571,-1.31474"
           inkscape:connector-curvature="0" />
        <path
           id="path18097"
           d="m 320.83319,285.07935 0,5.6972 -1.55071,0 0,-5.64663 c -1e-5,-0.89335 -0.17419,-1.56195 -0.52253,-2.00582 -0.34835,-0.44386 -0.87088,-0.66579 -1.56757,-0.6658 -0.83717,10e-6 -1.49735,0.26689 -1.98054,0.80064 -0.4832,0.53377 -0.72479,1.26137 -0.72479,2.1828 l 0,5.33481 -1.55914,0 0,-9.43915 1.55914,0 0,1.46644 c 0.37082,-0.56746 0.80626,-0.99166 1.30631,-1.2726 0.50567,-0.28092 1.08718,-0.42138 1.74456,-0.42139 1.08437,1e-5 1.90468,0.33712 2.46092,1.01134 0.55623,0.66861 0.83434,1.65466 0.83435,2.95816"
           inkscape:connector-curvature="0" />
        <path
           id="path18099"
           d="m 325.47692,278.65736 0,2.68004 3.19414,0 0,1.20518 -3.19414,0 0,5.12411 c 0,0.76974 0.10394,1.26417 0.31183,1.48329 0.2135,0.21913 0.64332,0.32869 1.28945,0.32869 l 1.59286,0 0,1.29788 -1.59286,0 c -1.19675,0 -2.02267,-0.22193 -2.47777,-0.6658 -0.45511,-0.44948 -0.68266,-1.26417 -0.68266,-2.44406 l 0,-5.12411 -1.13775,0 0,-1.20518 1.13775,0 0,-2.68004 1.55915,0"
           inkscape:connector-curvature="0" />
      </g>
      <path
         style="fill:none;stroke:#aaaaaa;stroke-width:2.45469117;stroke-linecap:butt;stroke-linejoin:miter;stroke-miterlimit:4;stroke-opacity:1;stroke-dasharray:4.90938222, 2.45469111;stroke-dashoffset:0"
         d="m 318.15441,394.9096 c 0.83044,-41.1162 13.28705,-79.8138 23.25233,-80.62"
         id="path8645-3-34-0-4"
         inkscape:connector-curvature="0"
         sodipodi:nodetypes="cc" />
      <path
         sodipodi:nodetypes="cc"
         inkscape:connector-curvature="0"
         id="path3992-4-77-9-5-7-1-2-9-8-8-6-2-3-7-1-5-1-0"
         d="m 245.07567,396.522 137.02264,0"
         style="fill:none;stroke:#dba981;stroke-width:1.21842682;stroke-linecap:round;stroke-linejoin:miter;stroke-miterlimit:4;stroke-opacity:1;stroke-dasharray:3.65536235, 1.21842684;stroke-dashoffset:0" />
      <path
         sodipodi:nodetypes="cc"
         inkscape:connector-curvature="0"
         id="path8584-1-4-6-3-4-4-4-4-6-3-3-1-8"
         d="m 380.43743,396.522 c -7.47396,-5.6434 -13.28704,-37.0852 2.49132,-66.9146"
         style="fill:none;stroke:#dba981;stroke-width:1.29444051;stroke-linecap:round;stroke-linejoin:miter;stroke-miterlimit:4;stroke-opacity:1;stroke-dasharray:3.88332133, 1.29444044;stroke-dashoffset:0" />
      <path
         sodipodi:nodetypes="cc"
         inkscape:connector-curvature="0"
         id="path8584-6-7-8-0-3-1-3-3-1-8-0-8-5-9"
         d="m 245.90611,395.7158 c 5.81308,-11.2868 10.79572,-29.8294 -2.49132,-66.1084"
         style="fill:none;stroke:#dba981;stroke-width:1.29444051;stroke-linecap:round;stroke-linejoin:miter;stroke-miterlimit:4;stroke-opacity:1;stroke-dasharray:3.88332133, 1.29444044;stroke-dashoffset:0" />
      <path
         sodipodi:nodetypes="cc"
         inkscape:connector-curvature="0"
         id="path3992-4-77-9-5-7-1-2-90-18-83-9-0-8"
         d="m 285.76724,311.0648 c 9.96529,15.3178 39.86113,16.124 52.31774,2.4186"
         style="fill:none;stroke:#dba981;stroke-width:1.29444051;stroke-linecap:round;stroke-linejoin:miter;stroke-miterlimit:4;stroke-opacity:1;stroke-dasharray:3.88332133, 1.29444044;stroke-dashoffset:0" />
      <path
         style="fill:none;stroke:#dba981;stroke-width:3.0462718;stroke-linecap:round;stroke-linejoin:miter;stroke-miterlimit:4;stroke-opacity:1;stroke-dasharray:none"
         d="m 255.87139,488.4288 c -0.83044,-20.155 -3.32176,-32.248 -4.98264,-49.1782 -1.66088,-13.7054 -0.83044,-29.0232 -5.81308,-42.7286 -2.49132,-6.4496 -50.65686,-27.4108 -13.28704,-61.2712 27.40452,-16.124 58.13081,-12.093 57.30037,-37.8914 10.79573,5.6434 36.53937,7.2558 46.50466,-1.6124 0,33.0542 40.69157,24.9922 63.11346,42.7286 24.08277,23.3798 9.13484,39.5038 -14.94793,56.434 -5.81308,10.4806 -7.47396,32.248 -9.13484,42.7286 -3.32176,16.124 -6.64352,36.279 -5.81308,54.8216"
         id="path14448-9-1-2"
         inkscape:connector-curvature="0"
         sodipodi:nodetypes="cccccccccc" />
      <path
         sodipodi:nodetypes="cc"
         inkscape:connector-curvature="0"
         id="path3992-4-77-9-5-7-1-2-9-8-8-6-2-3-1-9-0"
         d="m 255.04095,490.0412 113.77032,0.8062"
         style="fill:none;stroke:#dba981;stroke-width:1.21842682;stroke-linecap:round;stroke-linejoin:miter;stroke-miterlimit:4;stroke-opacity:1;stroke-dasharray:3.65536235, 1.21842684;stroke-dashoffset:0" />
      <path
         style="fill:none;stroke:#000000;stroke-width:2.45469117;stroke-linecap:round;stroke-linejoin:round;stroke-miterlimit:4;stroke-opacity:1;stroke-dasharray:none;marker-start:url(#marker7359);marker-end:url(#marker7359)"
         d="m 343.89806,313.4834 c 9.96528,0 19.10013,30.6356 28.23497,82.2324"
         id="path7494-1-6-3-5-81-64-9-2-9-5-3-0-6-1-6-2-2-0"
         inkscape:connector-curvature="0"
         sodipodi:nodetypes="cc" />
      <path
         sodipodi:type="arc"
         style="color:#000000;fill:#ffffff;fill-opacity:1;stroke:#00000f;stroke-width:3;stroke-linecap:round;stroke-linejoin:miter;stroke-miterlimit:4;stroke-opacity:0.94120029;stroke-dasharray:none;stroke-dashoffset:0;marker:none;visibility:visible;display:inline;overflow:visible;enable-background:accumulate"
         id="path4050-8-0-9-9-5-9-7-8-9-5-5-6-4-29-5-3-0"
         sodipodi:cx="57.75"
         sodipodi:cy="50.32"
         sodipodi:rx="20"
         sodipodi:ry="20"
         d="m 77.75,50.32 c 0,11.045695 -8.954305,20 -20,20 -11.045695,0 -20,-8.954305 -20,-20 0,-11.045695 8.954305,-20 20,-20 11.005217,0 19.942666,8.891225 19.999731,19.896294"
         sodipodi:start="0"
         sodipodi:end="6.278"
         sodipodi:open="true"
         transform="matrix(-0.74266272,0,0,0.72098466,407.01152,305.4214)" />
      <text
         transform="scale(1.0149223,0.98529709)"
         xml:space="preserve"
         style="font-size:16.74623108px;font-style:normal;font-variant:normal;font-weight:normal;font-stretch:normal;text-align:start;line-height:125%;letter-spacing:0px;word-spacing:0px;writing-mode:lr-tb;text-anchor:start;fill:#000000;fill-opacity:1;stroke:none;font-family:Standard Symbols L;-inkscape-font-specification:Standard Symbols L"
         x="354.73373"
         y="352.1814"
         id="text17174-0-6-9-7-0-3"
         sodipodi:linespacing="125%"><tspan
           sodipodi:role="line"
           id="tspan17176-0-8-3-83-4-5"
           x="354.73373"
           y="352.1814">4</tspan></text>
    </g>
  </g>
</svg>
