<?xml version="1.0" encoding="UTF-8" standalone="no"?>
<!-- Created with Inkscape (http://www.inkscape.org/) -->

<svg
   xmlns:dc="http://purl.org/dc/elements/1.1/"
   xmlns:cc="http://creativecommons.org/ns#"
   xmlns:rdf="http://www.w3.org/1999/02/22-rdf-syntax-ns#"
   xmlns:svg="http://www.w3.org/2000/svg"
   xmlns="http://www.w3.org/2000/svg"
   xmlns:sodipodi="http://sodipodi.sourceforge.net/DTD/sodipodi-0.dtd"
   xmlns:inkscape="http://www.inkscape.org/namespaces/inkscape"
   width="190.64238"
   height="219.86417"
   id="svg18163"
   version="1.1"
   inkscape:version="0.48.4 r9939"
   sodipodi:docname="Новий документ 278">
  <defs
     id="defs18165" />
  <sodipodi:namedview
     id="base"
     pagecolor="#ffffff"
     bordercolor="#666666"
     borderopacity="1.0"
     inkscape:pageopacity="0.0"
     inkscape:pageshadow="2"
     inkscape:zoom="1.979899"
     inkscape:cx="98.757085"
     inkscape:cy="57.57338"
     inkscape:document-units="px"
     inkscape:current-layer="layer1"
     showgrid="false"
     fit-margin-top="0"
     fit-margin-left="0"
     fit-margin-right="0"
     fit-margin-bottom="0"
     inkscape:window-width="1855"
     inkscape:window-height="1056"
     inkscape:window-x="65"
     inkscape:window-y="24"
     inkscape:window-maximized="1" />
  <metadata
     id="metadata18168">
    <rdf:RDF>
      <cc:Work
         rdf:about="">
        <dc:format>image/svg+xml</dc:format>
        <dc:type
           rdf:resource="http://purl.org/dc/dcmitype/StillImage" />
        <dc:title></dc:title>
      </cc:Work>
    </rdf:RDF>
  </metadata>
  <g
     inkscape:label="Layer 1"
     inkscape:groupmode="layer"
     id="layer1"
     transform="translate(-167.5384,-325.54338)">
    <g
       id="g18228">
      <g
         id="text6934-2-5-81-7-7"
         style="font-size:17.0063858px;font-style:normal;font-variant:normal;font-weight:normal;font-stretch:normal;text-align:start;line-height:125%;letter-spacing:0px;word-spacing:0px;writing-mode:lr-tb;text-anchor:start;fill:#000000;fill-opacity:1;stroke:none;font-family:Standard Symbols L;-inkscape-font-specification:Standard Symbols L">
        <path
           id="path18218"
           d="m 240.70554,325.54338 7.12474,0 0,1.41166 -5.44736,0 0,3.65372 4.91591,0 0,1.41166 -4.91591,0 0,5.92068 -1.67738,0 0,-12.39772"
           inkscape:connector-curvature="0" />
        <path
           id="path18220"
           d="m 254.59796,330.069 c -0.17162,-0.0996 -0.35984,-0.1716 -0.56466,-0.2159 -0.1993,-0.0498 -0.42074,-0.0747 -0.66432,-0.0747 -0.86361,1e-5 -1.52792,0.28234 -1.99293,0.847 -0.45949,0.55913 -0.68923,1.36461 -0.68923,2.41643 l 0,4.8993 -1.53622,0 0,-9.30037 1.53622,0 0,1.44488 c 0.32108,-0.56465 0.73905,-0.98262 1.25389,-1.25389 0.51484,-0.27678 1.1404,-0.41518 1.87668,-0.41519 0.10518,10e-6 0.22143,0.008 0.34877,0.0249 0.12732,0.0111 0.26848,0.0305 0.4235,0.0581 l 0.008,1.56943"
           inkscape:connector-curvature="0" />
        <path
           id="path18222"
           d="m 259.45574,329.71194 c -0.81932,10e-6 -1.46702,0.32109 -1.94311,0.96325 -0.47609,0.63664 -0.71414,1.51131 -0.71414,2.62403 0,1.11273 0.23528,1.99017 0.70584,2.63234 0.47608,0.63663 1.12655,0.95495 1.95141,0.95495 0.81378,0 1.45871,-0.32109 1.93481,-0.96326 0.47608,-0.64216 0.71413,-1.51684 0.71414,-2.62403 -1e-5,-1.10164 -0.23806,-1.97355 -0.71414,-2.61573 -0.4761,-0.64769 -1.12103,-0.97154 -1.93481,-0.97155 m 0,-1.29541 c 1.32862,10e-6 2.37214,0.43181 3.13057,1.29541 0.75842,0.86361 1.13763,2.05937 1.13764,3.58728 -10e-6,1.52239 -0.37922,2.71815 -1.13764,3.58729 -0.75843,0.8636 -1.80195,1.2954 -3.13057,1.2954 -1.33416,0 -2.38045,-0.4318 -3.13887,-1.2954 -0.75289,-0.86914 -1.12933,-2.0649 -1.12933,-3.58729 0,-1.52791 0.37644,-2.72367 1.12933,-3.58728 0.75842,-0.8636 1.80471,-1.2954 3.13887,-1.29541"
           inkscape:connector-curvature="0" />
        <path
           id="path18224"
           d="m 273.97926,332.32767 0,5.61343 -1.52792,0 0,-5.56361 c 0,-0.88021 -0.17162,-1.53898 -0.51484,-1.97633 -0.34323,-0.43733 -0.85807,-0.656 -1.54452,-0.65601 -0.82486,10e-6 -1.47533,0.26297 -1.95142,0.78887 -0.47609,0.52592 -0.71414,1.24283 -0.71414,2.15071 l 0,5.25637 -1.53622,0 0,-9.30037 1.53622,0 0,1.44488 c 0.36537,-0.55912 0.79441,-0.97708 1.28711,-1.25389 0.49823,-0.27678 1.0712,-0.41518 1.71891,-0.41519 1.06842,10e-6 1.87667,0.33216 2.42473,0.99647 0.54805,0.65878 0.82208,1.63034 0.82209,2.91467"
           inkscape:connector-curvature="0" />
        <path
           id="path18226"
           d="m 278.55471,326.00009 0,2.64064 3.14718,0 0,1.18746 -3.14718,0 0,5.04877 c 0,0.75843 0.10241,1.24559 0.30724,1.46149 0.21036,0.2159 0.63386,0.32385 1.2705,0.32385 l 1.56944,0 0,1.2788 -1.56944,0 c -1.17916,0 -1.99294,-0.21867 -2.44135,-0.65601 -0.44841,-0.44287 -0.67261,-1.24558 -0.67261,-2.40813 l 0,-5.04877 -1.12103,0 0,-1.18746 1.12103,0 0,-2.64064 1.53622,0"
           inkscape:connector-curvature="0" />
      </g>
      <path
         style="fill:none;stroke:#aaaaaa;stroke-width:2.41860008;stroke-linecap:butt;stroke-linejoin:miter;stroke-miterlimit:4;stroke-opacity:1;stroke-dasharray:4.8372, 2.4186;stroke-dashoffset:0"
         d="m 266.61292,446.3494 c 0.8062,-41.1162 8.8682,-65.3022 22.5736,-80.62"
         id="path8645-3-34-0"
         inkscape:connector-curvature="0"
         sodipodi:nodetypes="cc" />
      <path
         sodipodi:nodetypes="cc"
         inkscape:connector-curvature="0"
         id="path3992-4-77-9-5-7-1-2-9-8-8-6-2-3-7-1-5-1"
         d="m 195.66732,447.9618 133.023,0"
         style="fill:none;stroke:#dba981;stroke-width:1.20051241;stroke-linecap:round;stroke-linejoin:miter;stroke-miterlimit:4;stroke-opacity:1;stroke-dasharray:3.60161788, 1.20051242;stroke-dashoffset:0" />
      <path
         sodipodi:nodetypes="cc"
         inkscape:connector-curvature="0"
         id="path8584-1-4-6-3-4-4-4-4-6-3-3-1"
         d="m 327.07792,447.9618 c -7.2558,-5.6434 -12.8992,-37.0852 2.4186,-66.9146"
         style="fill:none;stroke:#dba981;stroke-width:1.27540839;stroke-linecap:round;stroke-linejoin:miter;stroke-miterlimit:4;stroke-opacity:1;stroke-dasharray:3.8262252, 1.2754084;stroke-dashoffset:0" />
      <path
         sodipodi:nodetypes="cc"
         inkscape:connector-curvature="0"
         id="path8584-6-7-8-0-3-1-3-3-1-8-0-8-5"
         d="m 196.47352,447.1556 c 5.6434,-11.2868 10.4806,-29.8294 -2.4186,-66.1084"
         style="fill:none;stroke:#dba981;stroke-width:1.27540839;stroke-linecap:round;stroke-linejoin:miter;stroke-miterlimit:4;stroke-opacity:1;stroke-dasharray:3.8262252, 1.2754084;stroke-dashoffset:0" />
      <path
         sodipodi:nodetypes="cc"
         inkscape:connector-curvature="0"
         id="path3992-4-77-9-5-7-1-2-90-18-83-9-0"
         d="m 235.17112,362.5046 c 9.6744,15.3178 38.6976,16.124 50.7906,2.4186"
         style="fill:none;stroke:#dba981;stroke-width:1.27540839;stroke-linecap:round;stroke-linejoin:miter;stroke-miterlimit:4;stroke-opacity:1;stroke-dasharray:3.8262252, 1.2754084;stroke-dashoffset:0" />
      <path
         style="fill:none;stroke:#dba981;stroke-width:3.00148273;stroke-linecap:round;stroke-linejoin:miter;stroke-miterlimit:4;stroke-opacity:1;stroke-dasharray:none"
         d="m 206.14792,539.8686 c -0.8062,-20.155 -3.2248,-32.248 -4.8372,-49.1782 -1.6124,-13.7054 -0.8062,-29.0232 -5.6434,-42.7286 -2.4186,-6.4496 -49.1782,-27.4108 -12.8992,-61.2712 26.6046,-16.124 56.434,-12.093 55.6278,-37.8914 10.4806,5.6434 35.4728,7.2558 45.1472,-1.6124 0,33.0542 39.5038,24.9922 61.2712,42.7286 23.3798,23.3798 8.8682,39.5038 -14.5116,56.434 -5.6434,10.4806 -7.2558,32.248 -8.8682,42.7286 -3.2248,16.124 -6.4496,36.279 -5.6434,54.8216"
         id="path14448-9-1"
         inkscape:connector-curvature="0"
         sodipodi:nodetypes="cccccccccc" />
      <path
         sodipodi:nodetypes="cc"
         inkscape:connector-curvature="0"
         id="path3992-4-77-9-5-7-1-2-9-8-8-6-2-3-1-9"
         d="m 205.34172,541.481 110.4494,0.8062"
         style="fill:none;stroke:#dba981;stroke-width:1.20051241;stroke-linecap:round;stroke-linejoin:miter;stroke-miterlimit:4;stroke-opacity:1;stroke-dasharray:3.60161788, 1.20051242;stroke-dashoffset:0" />
      <path
         style="fill:none;stroke:#000000;stroke-width:2.41860008;stroke-linecap:round;stroke-linejoin:round;stroke-miterlimit:4;stroke-opacity:1;stroke-dasharray:none;marker-start:url(#marker7359);marker-end:url(#marker7359)"
         d="m 291.60512,364.9232 c 15.3178,14.5116 -11.2868,115.2866 -22.5736,177.364"
         id="path7494-1-6-3-5-81-64-9-2-9-5-3-0-6-1-6-2-2"
         inkscape:connector-curvature="0"
         sodipodi:nodetypes="cc" />
      <path
         sodipodi:type="arc"
         style="color:#000000;fill:#ffffff;fill-opacity:1;stroke:#00000f;stroke-width:3;stroke-linecap:round;stroke-linejoin:miter;stroke-miterlimit:4;stroke-opacity:0.94120029;stroke-dasharray:none;stroke-dashoffset:0;marker:none;visibility:visible;display:inline;overflow:visible;enable-background:accumulate"
         id="path4050-8-0-9-9-5-9-7-8-9-5-5-6-4-29-5-3"
         sodipodi:cx="57.75"
         sodipodi:cy="50.32"
         sodipodi:rx="20"
         sodipodi:ry="20"
         d="m 77.75,50.32 c 0,11.045695 -8.954305,20 -20,20 -11.045695,0 -20,-8.954305 -20,-20 0,-11.045695 8.954305,-20 20,-20 11.005217,0 19.942666,8.891225 19.999731,19.896294"
         sodipodi:start="0"
         sodipodi:end="6.278"
         sodipodi:open="true"
         transform="matrix(-0.72098466,0,0,0.72098466,339.97712,352.8302)" />
      <text
         xml:space="preserve"
         style="font-size:16.50001144px;font-style:normal;font-variant:normal;font-weight:normal;font-stretch:normal;text-align:start;line-height:125%;letter-spacing:0px;word-spacing:0px;writing-mode:lr-tb;text-anchor:start;fill:#000000;fill-opacity:1;stroke:none;font-family:Standard Symbols L;-inkscape-font-specification:Standard Symbols L"
         x="294.64883"
         y="394.0574"
         id="text17174-0-6-9-7-0"
         sodipodi:linespacing="125%"><tspan
           sodipodi:role="line"
           id="tspan17176-0-8-3-83-4"
           x="294.64883"
           y="394.0574">5</tspan></text>
    </g>
  </g>
</svg>
