<?xml version="1.0" encoding="UTF-8" standalone="no"?>
<!-- Created with Inkscape (http://www.inkscape.org/) -->

<svg
   xmlns:dc="http://purl.org/dc/elements/1.1/"
   xmlns:cc="http://creativecommons.org/ns#"
   xmlns:rdf="http://www.w3.org/1999/02/22-rdf-syntax-ns#"
   xmlns:svg="http://www.w3.org/2000/svg"
   xmlns="http://www.w3.org/2000/svg"
   xmlns:sodipodi="http://sodipodi.sourceforge.net/DTD/sodipodi-0.dtd"
   xmlns:inkscape="http://www.inkscape.org/namespaces/inkscape"
   width="198.7574"
   height="220.2175"
   id="svg18294"
   version="1.1"
   inkscape:version="0.48.4 r9939"
   sodipodi:docname="Новий документ 281">
  <defs
     id="defs18296" />
  <sodipodi:namedview
     id="base"
     pagecolor="#ffffff"
     bordercolor="#666666"
     borderopacity="1.0"
     inkscape:pageopacity="0.0"
     inkscape:pageshadow="2"
     inkscape:zoom="1.4"
     inkscape:cx="-14.583977"
     inkscape:cy="8.561359"
     inkscape:document-units="px"
     inkscape:current-layer="layer1"
     showgrid="false"
     fit-margin-top="0"
     fit-margin-left="0"
     fit-margin-right="0"
     fit-margin-bottom="0"
     inkscape:window-width="1855"
     inkscape:window-height="1056"
     inkscape:window-x="65"
     inkscape:window-y="24"
     inkscape:window-maximized="1" />
  <metadata
     id="metadata18299">
    <rdf:RDF>
      <cc:Work
         rdf:about="">
        <dc:format>image/svg+xml</dc:format>
        <dc:type
           rdf:resource="http://purl.org/dc/dcmitype/StillImage" />
        <dc:title></dc:title>
      </cc:Work>
    </rdf:RDF>
  </metadata>
  <g
     inkscape:label="Layer 1"
     inkscape:groupmode="layer"
     id="layer1"
     transform="translate(-166.32388,-247.97033)">
    <g
       id="g18369">
      <path
         sodipodi:nodetypes="cc"
         inkscape:connector-curvature="0"
         id="path8584-1-4-6-3-4-4-4-4-6-0-1-4-7-3"
         d="m 334.50084,370.719 c 1.5851,-16.124 6.00669,-45.9534 -0.66741,-61.2712"
         style="fill:none;stroke:#dba981;stroke-width:1.29659593;stroke-linecap:round;stroke-linejoin:miter;stroke-miterlimit:4;stroke-opacity:1;stroke-dasharray:3.88978777, 1.29659592;stroke-dashoffset:0" />
      <path
         sodipodi:nodetypes="cc"
         inkscape:connector-curvature="0"
         id="path8584-6-7-8-0-3-1-3-3-1-8-4-9-2-9"
         d="m 199.93428,369.9128 c -7.67521,-48.372 -6.50724,-50.7906 -5.25585,-64.496"
         style="fill:none;stroke:#dba981;stroke-width:1.29659593;stroke-linecap:round;stroke-linejoin:miter;stroke-miterlimit:4;stroke-opacity:1;stroke-dasharray:3.88978777, 1.29659592;stroke-dashoffset:0" />
      <path
         sodipodi:nodetypes="cc"
         inkscape:connector-curvature="0"
         id="path3992-4-77-9-5-7-1-2-90-18-5-4-9-2"
         d="m 236.22471,286.8742 c 11.7631,-4.8372 43.96564,-5.6434 56.72985,0"
         style="fill:none;stroke:#dba981;stroke-width:1.29659593;stroke-linecap:round;stroke-linejoin:miter;stroke-miterlimit:4;stroke-opacity:1;stroke-dasharray:3.88978777, 1.29659592;stroke-dashoffset:0" />
      <path
         sodipodi:nodetypes="ccccacccccccc"
         inkscape:connector-curvature="0"
         id="path15418-3-7-3-7"
         d="m 209.02775,462.6258 c -0.41714,-20.155 -2.8365,-32.248 -4.67187,-48.372 -1.5851,-14.5116 -1.00112,-29.8294 -5.58956,-42.7286 -2.66964,-7.2558 -58.06468,-29.8294 -13.84876,-62.0774 9.26031,-7.2558 23.94333,-4.8372 33.62078,-11.2868 9.51059,-6.4496 21.10684,-8.8682 21.77425,-26.6046 6.42383,-1.6124 15.68414,-2.4186 24.94445,-2.4186 8.50948,0 16.10127,1.6124 21.85768,3.2248 0.66741,4.8372 5.25586,13.7054 10.59514,17.7364 13.84876,12.8992 45.46731,16.124 52.05799,24.9922 33.62078,35.4728 -3.25363,41.1162 -15.18358,57.2402 -5.25586,10.4806 -4.58845,29.8294 -5.92327,39.5038 -3.25362,16.124 -6.6741,36.279 -6.25697,54.8216"
         style="fill:none;stroke:#dba981;stroke-width:3.05155206;stroke-linecap:round;stroke-linejoin:miter;stroke-miterlimit:4;stroke-opacity:1;stroke-dasharray:none" />
      <path
         sodipodi:nodetypes="cc"
         inkscape:connector-curvature="0"
         id="path3992-4-77-9-5-7-1-2-9-8-8-6-2-3-2-0-4-0"
         d="m 208.61061,464.2382 113.87685,0.8062"
         style="fill:none;stroke:#dba981;stroke-width:1.2204895;stroke-linecap:round;stroke-linejoin:miter;stroke-miterlimit:4;stroke-opacity:1;stroke-dasharray:3.66146879, 1.2204896;stroke-dashoffset:0" />
      <path
         style="opacity:0.3;fill:none;stroke:#000000;stroke-width:1.29659593;stroke-linecap:round;stroke-linejoin:miter;stroke-miterlimit:4;stroke-opacity:0;stroke-dasharray:3.88978777, 1.29659592;stroke-dashoffset:0"
         d="m 243.31594,290.099 c 2.00223,5.6434 15.85099,8.062 25.1113,8.062 7.25809,-0.8062 18.43721,-2.4186 21.77426,-8.062"
         id="path3992-4-94-7-98-1-3-4-7-3-5-3-43-4-4-8-6-3"
         inkscape:connector-curvature="0"
         sodipodi:nodetypes="cac" />
      <path
         style="fill:none;stroke:#dba981;stroke-width:1.2204895;stroke-linecap:round;stroke-linejoin:miter;stroke-miterlimit:4;stroke-opacity:1;stroke-dasharray:3.66146879, 1.2204896;stroke-dashoffset:0"
         d="m 197.59835,370.719 137.31962,0"
         id="path3992-4-77-9-5-7-1-2-9-8-8-6-2-3-7-6-31-8-9"
         inkscape:connector-curvature="0"
         sodipodi:nodetypes="cc" />
      <path
         sodipodi:nodetypes="cc"
         inkscape:connector-curvature="0"
         id="path3992-4-77-9-5-7-1-2-9-8-8-6-2-3-7-6-31-8-2-4"
         d="m 265.17362,282.8432 -0.50056,182.2012"
         style="fill:none;stroke:#dba981;stroke-width:1.2204895;stroke-linecap:round;stroke-linejoin:miter;stroke-miterlimit:4;stroke-opacity:1;stroke-dasharray:3.66146879, 1.2204896;stroke-dashoffset:0" />
      <path
         sodipodi:nodetypes="cc"
         inkscape:connector-curvature="0"
         id="path3992-4-77-9-5-7-1-2-9-8-8-6-2-3-7-6-31-8-1-8"
         d="m 265.09019,332.0214 71.49631,0"
         style="fill:none;stroke:#dba981;stroke-width:1.2204895;stroke-linecap:round;stroke-linejoin:miter;stroke-miterlimit:4;stroke-opacity:1;stroke-dasharray:3.66146879, 1.2204896;stroke-dashoffset:0" />
      <path
         style="opacity:0.3;fill:none;stroke:#000000;stroke-width:1.64022255;stroke-linecap:round;stroke-linejoin:miter;stroke-miterlimit:4;stroke-opacity:0;stroke-dasharray:4.92066764, 1.64022255;stroke-dashoffset:0"
         d="m 240.6463,292.5176 c 2.50279,7.2558 20.0223,9.6744 31.70198,9.6744 9.17689,-0.8062 23.35935,-2.4186 27.53066,-9.6744"
         id="path3992-4-94-7-98-1-3-4-7-3-5-3-43-4-4"
         inkscape:connector-curvature="0"
         sodipodi:nodetypes="cac" />
      <path
         sodipodi:nodetypes="ccc"
         inkscape:connector-curvature="0"
         id="path7494-1-6-3-5-81-64-9-2-0-5-7-3-2-4-0-3-6"
         d="m 335.08482,371.5252 c -2.33593,18.5426 -55.22818,-62.8836 -68.40953,-87.8758 14.01561,0 30.20031,5.6434 48.47066,13.7054"
         style="fill:none;stroke:#000000;stroke-width:2.46033382;stroke-linecap:round;stroke-linejoin:round;stroke-miterlimit:4;stroke-opacity:1;stroke-dasharray:none;marker-start:url(#marker7359);marker-end:url(#marker7359)" />
      <path
         sodipodi:nodetypes="cc"
         inkscape:connector-curvature="0"
         id="path10713-0-7"
         d="m 314.72882,297.3548 c 19.85545,8.062 21.35712,54.0154 20.356,73.3642"
         style="fill:none;stroke:#aaaaaa;stroke-width:2.39972758;stroke-linecap:butt;stroke-linejoin:miter;stroke-miterlimit:4;stroke-opacity:1;stroke-dasharray:7.19918279, 2.3997276;stroke-dashoffset:0" />
      <path
         transform="matrix(-0.74608103,0,0,0.72098466,335.83566,294.13)"
         sodipodi:open="true"
         sodipodi:end="6.278"
         sodipodi:start="0"
         d="m 77.75,50.32 c 0,11.045695 -8.954305,20 -20,20 -11.045695,0 -20,-8.954305 -20,-20 0,-11.045695 8.954305,-20 20,-20 11.005217,0 19.942666,8.891225 19.999731,19.896294"
         sodipodi:ry="20"
         sodipodi:rx="20"
         sodipodi:cy="50.32"
         sodipodi:cx="57.75"
         id="path4050-8-0-9-9-5-9-7-8-9-5-5-6-4-79-9"
         style="color:#000000;fill:#ffffff;fill-opacity:1;stroke:#00000f;stroke-width:3;stroke-linecap:round;stroke-linejoin:miter;stroke-miterlimit:4;stroke-opacity:0.94120029;stroke-dasharray:none;stroke-dashoffset:0;marker:none;visibility:visible;display:inline;overflow:visible;enable-background:accumulate"
         sodipodi:type="arc" />
      <text
         transform="scale(1.0172554,0.98303733)"
         sodipodi:linespacing="125%"
         id="text17174-0-6-24-6"
         y="340.95972"
         x="283.73114"
         style="font-size:16.78472519px;font-style:normal;font-variant:normal;font-weight:normal;font-stretch:normal;text-align:start;line-height:125%;letter-spacing:0px;word-spacing:0px;writing-mode:lr-tb;text-anchor:start;fill:#000000;fill-opacity:1;stroke:none;font-family:Standard Symbols L;-inkscape-font-specification:Standard Symbols L"
         xml:space="preserve"><tspan
           y="340.95972"
           x="283.73114"
           id="tspan17176-0-8-8-9"
           sodipodi:role="line">6</tspan></text>
      <g
         id="text6934-6-9-7-0-1-7-4-2-5"
         style="font-size:14.76200294px;font-style:normal;font-variant:normal;font-weight:normal;font-stretch:normal;text-align:start;line-height:125%;letter-spacing:0px;word-spacing:0px;writing-mode:lr-tb;text-anchor:start;fill:#000000;fill-opacity:1;stroke:none;font-family:Standard Symbols L;-inkscape-font-specification:Standard Symbols L"
         transform="scale(1.0172554,0.98303731)">
        <path
           id="path18361"
           d="m 244.5728,258.3255 0,3.94278 2.33539,0 c 0.78327,0 1.36231,-0.16097 1.73713,-0.48293 0.37962,-0.32676 0.56943,-0.82412 0.56943,-1.49206 0,-0.67274 -0.18981,-1.16769 -0.56943,-1.48485 -0.37482,-0.32195 -0.95386,-0.48293 -1.73713,-0.48294 l -2.33539,0 m 0,-4.42572 0,3.24361 2.15519,0 c 0.71119,10e-6 1.23977,-0.13214 1.58576,-0.39644 0.35079,-0.26909 0.52618,-0.67755 0.52619,-1.22536 -1e-5,-0.543 -0.1754,-0.94905 -0.52619,-1.21816 -0.34599,-0.26909 -0.87457,-0.40364 -1.58576,-0.40365 l -2.15519,0 m -1.45602,-1.19652 3.71933,0 c 1.11003,1e-5 1.96538,0.23066 2.56605,0.69196 0.60066,0.46133 0.901,1.11725 0.901,1.96779 0,0.65834 -0.15378,1.18212 -0.46131,1.57135 -0.30755,0.38924 -0.75925,0.6319 -1.3551,0.72801 0.71598,0.15377 1.271,0.47573 1.66505,0.96587 0.39883,0.48534 0.59825,1.09322 0.59826,1.82363 -1e-5,0.96107 -0.32677,1.70349 -0.98029,2.22727 -0.65353,0.52378 -1.58336,0.78567 -2.7895,0.78567 l -3.86349,0 0,-10.76155"
           inkscape:connector-curvature="0" />
        <path
           id="path18363"
           d="m 256.84804,259.4067 c -1.0716,10e-6 -1.81402,0.12254 -2.22728,0.36761 -0.41326,0.24508 -0.61989,0.66314 -0.61989,1.2542 0,0.47092 0.15377,0.84574 0.46131,1.12445 0.31235,0.2739 0.73522,0.41085 1.26861,0.41085 0.73522,0 1.32387,-0.25949 1.76597,-0.77846 0.44689,-0.52378 0.67034,-1.21815 0.67034,-2.08312 l 0,-0.29553 -1.31906,0 m 2.64534,-0.5478 0,4.60591 -1.32628,0 0,-1.22536 c -0.30274,0.49015 -0.67996,0.85295 -1.13166,1.08841 -0.4517,0.23066 -1.00432,0.34599 -1.65784,0.34599 -0.82652,0 -1.48485,-0.23066 -1.97499,-0.69197 -0.48534,-0.46612 -0.72801,-1.08841 -0.72801,-1.86688 0,-0.9082 0.30273,-1.59296 0.90821,-2.05428 0.61027,-0.46131 1.51848,-0.69196 2.72463,-0.69197 l 1.85966,0 0,-0.12974 c 0,-0.61028 -0.20183,-1.0812 -0.60547,-1.41277 -0.39885,-0.33637 -0.96107,-0.50456 -1.68668,-0.50456 -0.46131,0 -0.91061,0.0553 -1.34789,0.16578 -0.43729,0.11053 -0.85776,0.27631 -1.2614,0.49735 l 0,-1.22536 c 0.48533,-0.1874 0.95626,-0.32675 1.41277,-0.41806 0.4565,-0.0961 0.90099,-0.14416 1.33348,-0.14416 1.16769,0 2.03986,0.30274 2.6165,0.90821 0.57664,0.60548 0.86496,1.52329 0.86497,2.75346"
           inkscape:connector-curvature="0" />
        <path
           id="path18365"
           d="m 268.04208,255.70179 0,1.23977 c -0.37483,-0.20662 -0.75205,-0.36039 -1.13166,-0.46131 -0.37482,-0.10571 -0.75445,-0.15857 -1.13887,-0.15857 -0.86016,0 -1.5281,0.27391 -2.00382,0.82171 -0.47574,0.54301 -0.7136,1.30706 -0.7136,2.29215 0,0.98509 0.23786,1.75154 0.7136,2.29935 0.47572,0.54301 1.14366,0.81451 2.00382,0.81451 0.38442,0 0.76405,-0.0505 1.13887,-0.15137 0.37961,-0.10572 0.75683,-0.26189 1.13166,-0.46852 l 0,1.22536 c -0.37002,0.17299 -0.75445,0.30274 -1.15329,0.38923 -0.39404,0.0865 -0.81451,0.12975 -1.2614,0.12975 -1.21575,0 -2.18162,-0.38203 -2.89762,-1.14608 -0.71599,-0.76405 -1.07399,-1.79479 -1.07399,-3.09223 0,-1.31666 0.3604,-2.35221 1.0812,-3.10666 0.7256,-0.75443 1.71791,-1.13165 2.97691,-1.13165 0.40845,0 0.80729,0.0433 1.19653,0.12974 0.38922,0.0817 0.76644,0.20664 1.13166,0.37482"
           inkscape:connector-curvature="0" />
        <path
           id="path18367"
           d="m 270.3126,252.24915 1.33348,0 0,6.62416 3.9572,-3.48147 1.69388,0 -4.28156,3.777 4.46176,4.29597 -1.72992,0 -4.10136,-3.94278 0,3.94278 -1.33348,0 0,-11.21566"
           inkscape:connector-curvature="0" />
      </g>
    </g>
  </g>
</svg>
