<?xml version="1.0" encoding="UTF-8" standalone="no"?>
<!-- Created with Inkscape (http://www.inkscape.org/) -->

<svg
   xmlns:dc="http://purl.org/dc/elements/1.1/"
   xmlns:cc="http://creativecommons.org/ns#"
   xmlns:rdf="http://www.w3.org/1999/02/22-rdf-syntax-ns#"
   xmlns:svg="http://www.w3.org/2000/svg"
   xmlns="http://www.w3.org/2000/svg"
   xmlns:sodipodi="http://sodipodi.sourceforge.net/DTD/sodipodi-0.dtd"
   xmlns:inkscape="http://www.inkscape.org/namespaces/inkscape"
   width="195.90616"
   height="222.23843"
   id="svg18439"
   version="1.1"
   inkscape:version="0.48.4 r9939"
   sodipodi:docname="Новий документ 284">
  <defs
     id="defs18441" />
  <sodipodi:namedview
     id="base"
     pagecolor="#ffffff"
     bordercolor="#666666"
     borderopacity="1.0"
     inkscape:pageopacity="0.0"
     inkscape:pageshadow="2"
     inkscape:zoom="1.979899"
     inkscape:cx="58.408043"
     inkscape:cy="85.470396"
     inkscape:document-units="px"
     inkscape:current-layer="layer1"
     showgrid="false"
     fit-margin-top="0"
     fit-margin-left="0"
     fit-margin-right="0"
     fit-margin-bottom="0"
     inkscape:window-width="1855"
     inkscape:window-height="1056"
     inkscape:window-x="65"
     inkscape:window-y="24"
     inkscape:window-maximized="1" />
  <metadata
     id="metadata18444">
    <rdf:RDF>
      <cc:Work
         rdf:about="">
        <dc:format>image/svg+xml</dc:format>
        <dc:type
           rdf:resource="http://purl.org/dc/dcmitype/StillImage" />
        <dc:title></dc:title>
      </cc:Work>
    </rdf:RDF>
  </metadata>
  <g
     inkscape:label="Layer 1"
     inkscape:groupmode="layer"
     id="layer1"
     transform="translate(-210.60717,-249.80876)">
    <g
       id="g18517">
      <g
         id="text6934-6-9-7-0-1-7-4-2"
         style="font-size:14.65521145px;font-style:normal;font-variant:normal;font-weight:normal;font-stretch:normal;text-align:start;line-height:125%;letter-spacing:0px;word-spacing:0px;writing-mode:lr-tb;text-anchor:start;fill:#000000;fill-opacity:1;stroke:none;font-family:Standard Symbols L;-inkscape-font-specification:Standard Symbols L"
         transform="scale(1.0098963,0.99020067)">
        <path
           id="path18509"
           d="m 289.81011,258.31333 0,3.91426 2.3185,0 c 0.7776,0 1.35246,-0.15981 1.72457,-0.47944 0.37687,-0.3244 0.5653,-0.81815 0.56531,-1.48126 -1e-5,-0.66788 -0.18844,-1.15925 -0.56531,-1.47411 -0.37211,-0.31963 -0.94697,-0.47944 -1.72457,-0.47945 l -2.3185,0 m 0,-4.3937 0,3.22014 2.13961,0 c 0.70604,10e-6 1.2308,-0.13118 1.57429,-0.39357 0.34824,-0.26715 0.52237,-0.67264 0.52238,-1.2165 -10e-6,-0.53906 -0.17414,-0.94218 -0.52238,-1.20934 -0.34349,-0.26714 -0.86825,-0.40072 -1.57429,-0.40073 l -2.13961,0 m -1.44548,-1.18787 3.69243,0 c 1.10199,1e-5 1.95115,0.229 2.54748,0.68696 0.59632,0.45799 0.89448,1.10917 0.89449,1.95355 -1e-5,0.65358 -0.15267,1.17357 -0.45798,1.55998 -0.30532,0.38643 -0.75376,0.62734 -1.3453,0.72275 0.71081,0.15266 1.26181,0.47229 1.653,0.95888 0.39595,0.48183 0.59393,1.08531 0.59394,1.81043 -1e-5,0.95412 -0.32441,1.69118 -0.9732,2.21117 -0.6488,0.51999 -1.57191,0.77999 -2.76932,0.77999 l -3.83554,0 0,-10.68371"
           inkscape:connector-curvature="0" />
        <path
           id="path18511"
           d="m 301.99655,259.38671 c -1.06384,1e-5 -1.80089,0.12166 -2.21116,0.36495 -0.41027,0.24331 -0.61541,0.65835 -0.61541,1.24512 0,0.46752 0.15266,0.83963 0.45798,1.11632 0.31008,0.27192 0.72989,0.40788 1.25943,0.40788 0.7299,0 1.31429,-0.25761 1.75319,-0.77283 0.44366,-0.51999 0.66549,-1.20934 0.66549,-2.06805 l 0,-0.29339 -1.30952,0 m 2.6262,-0.54384 0,4.5726 -1.31668,0 0,-1.2165 c -0.30055,0.4866 -0.67504,0.84678 -1.12347,1.08053 -0.44844,0.22899 -0.99705,0.34349 -1.64585,0.34349 -0.82054,0 -1.47411,-0.22899 -1.9607,-0.68697 -0.48183,-0.46274 -0.72275,-1.08053 -0.72274,-1.85337 -1e-5,-0.90163 0.30054,-1.58144 0.90163,-2.03942 0.60587,-0.45797 1.5075,-0.68696 2.70492,-0.68696 l 1.84621,0 0,-0.12881 c 0,-0.60585 -0.20037,-1.07337 -0.60109,-1.40255 -0.39596,-0.33393 -0.95412,-0.5009 -1.67447,-0.50091 -0.45798,10e-6 -0.90403,0.0549 -1.33815,0.16459 -0.43412,0.10973 -0.85155,0.27431 -1.25227,0.49375 l 0,-1.21649 c 0.48182,-0.18605 0.94934,-0.32439 1.40255,-0.41504 0.4532,-0.0954 0.89448,-0.14311 1.32383,-0.14312 1.15925,10e-6 2.0251,0.30055 2.59758,0.90164 0.57246,0.6011 0.8587,1.51228 0.8587,2.73354"
           inkscape:connector-curvature="0" />
        <path
           id="path18513"
           d="m 313.10961,255.7086 0,1.23081 c -0.37211,-0.20513 -0.7466,-0.35779 -1.12347,-0.45798 -0.37211,-0.10494 -0.74899,-0.15742 -1.13063,-0.15743 -0.85394,10e-6 -1.51705,0.27193 -1.98933,0.81577 -0.47229,0.53908 -0.70843,1.2976 -0.70843,2.27557 0,0.97797 0.23614,1.73888 0.70843,2.28272 0.47228,0.53908 1.13539,0.80861 1.98933,0.80861 0.38164,0 0.75852,-0.0501 1.13063,-0.15027 0.37687,-0.10495 0.75136,-0.26 1.12347,-0.46513 l 0,1.21649 c -0.36734,0.17175 -0.74899,0.30055 -1.14494,0.38642 -0.39119,0.0859 -0.80862,0.12881 -1.25228,0.12881 -1.20696,0 -2.16584,-0.37926 -2.87665,-1.13779 -0.71082,-0.75852 -1.06623,-1.7818 -1.06623,-3.06986 0,-1.30713 0.35779,-2.33519 1.07338,-3.08418 0.72036,-0.74897 1.70548,-1.12346 2.95537,-1.12347 0.4055,10e-6 0.80146,0.0429 1.18788,0.1288 0.38641,0.0811 0.7609,0.20515 1.12347,0.37211"
           inkscape:connector-curvature="0" />
        <path
           id="path18515"
           d="m 315.36371,252.28094 1.32383,0 0,6.57624 3.92857,-3.45628 1.68163,0 -4.25058,3.74967 4.42948,4.2649 -1.71741,0 -4.07169,-3.91426 0,3.91426 -1.32383,0 0,-11.13453"
           inkscape:connector-curvature="0" />
      </g>
      <path
         sodipodi:nodetypes="cc"
         inkscape:connector-curvature="0"
         id="path10713-0-7-09"
         d="m 356.87936,301.2418 c 19.56921,8.062 23.92706,58.0464 22.85815,70.1394"
         style="fill:none;stroke:#aaaaaa;stroke-width:2.38236737;stroke-linecap:butt;stroke-linejoin:miter;stroke-miterlimit:4;stroke-opacity:1;stroke-dasharray:7.14710226, 2.38236742;stroke-dashoffset:0" />
      <path
         sodipodi:nodetypes="cc"
         inkscape:connector-curvature="0"
         id="path8584-1-4-6-3-4-4-4-4-6-0-1-4-7-3-7"
         d="m 376.36634,374.606 c 1.56225,-16.124 5.9201,-45.9534 -0.65778,-61.2712"
         style="fill:none;stroke:#dba981;stroke-width:1.28721607;stroke-linecap:round;stroke-linejoin:miter;stroke-miterlimit:4;stroke-opacity:1;stroke-dasharray:3.86164816, 1.28721605;stroke-dashoffset:0" />
      <path
         sodipodi:nodetypes="cc"
         inkscape:connector-curvature="0"
         id="path8584-6-7-8-0-3-1-3-3-1-8-4-9-2-9-2"
         d="m 243.73972,373.7998 c -7.56457,-48.372 -6.41344,-50.7906 -5.18009,-64.496"
         style="fill:none;stroke:#dba981;stroke-width:1.28721607;stroke-linecap:round;stroke-linejoin:miter;stroke-miterlimit:4;stroke-opacity:1;stroke-dasharray:3.86164816, 1.28721605;stroke-dashoffset:0" />
      <path
         sodipodi:nodetypes="cc"
         inkscape:connector-curvature="0"
         id="path3992-4-77-9-5-7-1-2-90-18-5-4-9-2-9"
         d="m 279.50697,290.7612 c 11.59353,-4.8372 43.33183,-5.6434 55.91203,0"
         style="fill:none;stroke:#dba981;stroke-width:1.28721607;stroke-linecap:round;stroke-linejoin:miter;stroke-miterlimit:4;stroke-opacity:1;stroke-dasharray:3.86164816, 1.28721605;stroke-dashoffset:0" />
      <path
         sodipodi:nodetypes="ccccacccccccc"
         inkscape:connector-curvature="0"
         id="path15418-3-7-3-7-1"
         d="m 252.70209,466.5128 c -0.41112,-20.155 -2.79561,-32.248 -4.60452,-48.372 -1.56225,-14.5116 -0.98669,-29.8294 -5.50898,-42.7286 -2.63116,-7.2558 -57.22761,-29.8294 -13.64912,-62.0774 9.12682,-7.2558 23.59817,-4.8372 33.1361,-11.2868 9.37349,-6.4496 20.80257,-8.8682 21.46036,-26.6046 6.33121,-1.6124 15.45803,-2.4186 24.58485,-2.4186 8.3868,0 15.86915,1.6124 21.54257,3.2248 0.65779,4.8372 5.18009,13.7054 10.4424,17.7364 13.64911,12.8992 44.81185,16.124 51.30751,24.9922 33.1361,35.4728 -3.20672,41.1162 -14.96469,57.2402 -5.18009,10.4806 -4.5223,29.8294 -5.83788,39.5038 -3.20672,16.124 -6.57788,36.279 -6.16676,54.8216"
         style="fill:none;stroke:#dba981;stroke-width:3.0294764;stroke-linecap:round;stroke-linejoin:miter;stroke-miterlimit:4;stroke-opacity:1;stroke-dasharray:none" />
      <path
         sodipodi:nodetypes="cc"
         inkscape:connector-curvature="0"
         id="path3992-4-77-9-5-7-1-2-9-8-8-6-2-3-2-0-4-0-0"
         d="m 252.29097,468.1252 112.23518,0.8062"
         style="fill:none;stroke:#dba981;stroke-width:1.21166027;stroke-linecap:round;stroke-linejoin:miter;stroke-miterlimit:4;stroke-opacity:1;stroke-dasharray:3.63498089, 1.2116603;stroke-dashoffset:0" />
      <path
         style="opacity:0.3;fill:none;stroke:#000000;stroke-width:1.28721607;stroke-linecap:round;stroke-linejoin:miter;stroke-miterlimit:4;stroke-opacity:0;stroke-dasharray:3.86164816, 1.28721605;stroke-dashoffset:0"
         d="m 286.49598,293.986 c 1.97336,5.6434 15.62247,8.062 24.74929,8.062 7.15345,-0.8062 18.17141,-2.4186 21.46036,-8.062"
         id="path3992-4-94-7-98-1-3-4-7-3-5-3-43-4-4-8-6-3-1"
         inkscape:connector-curvature="0"
         sodipodi:nodetypes="cac" />
      <path
         style="fill:none;stroke:#dba981;stroke-width:1.21166027;stroke-linecap:round;stroke-linejoin:miter;stroke-miterlimit:4;stroke-opacity:1;stroke-dasharray:3.63498089, 1.2116603;stroke-dashoffset:0"
         d="m 241.43746,374.606 135.34,0"
         id="path3992-4-77-9-5-7-1-2-9-8-8-6-2-3-7-6-31-8-9-0"
         inkscape:connector-curvature="0"
         sodipodi:nodetypes="cc" />
      <path
         sodipodi:nodetypes="cc"
         inkscape:connector-curvature="0"
         id="path3992-4-77-9-5-7-1-2-9-8-8-6-2-3-7-6-31-8-2-4-2"
         d="m 308.03855,286.7302 -0.49334,182.2012"
         style="fill:none;stroke:#dba981;stroke-width:1.21166027;stroke-linecap:round;stroke-linejoin:miter;stroke-miterlimit:4;stroke-opacity:1;stroke-dasharray:3.63498089, 1.2116603;stroke-dashoffset:0" />
      <path
         sodipodi:nodetypes="cc"
         inkscape:connector-curvature="0"
         id="path3992-4-77-9-5-7-1-2-9-8-8-6-2-3-7-6-31-8-1-8-8"
         d="m 307.95633,335.9084 70.4656,0"
         style="fill:none;stroke:#dba981;stroke-width:1.21166027;stroke-linecap:round;stroke-linejoin:miter;stroke-miterlimit:4;stroke-opacity:1;stroke-dasharray:3.63498089, 1.2116603;stroke-dashoffset:0" />
      <path
         style="opacity:0.3;fill:none;stroke:#000000;stroke-width:1.62835681;stroke-linecap:round;stroke-linejoin:miter;stroke-miterlimit:4;stroke-opacity:0;stroke-dasharray:4.88507041, 1.6283568;stroke-dashoffset:0"
         d="m 283.86482,296.4046 c 2.46671,7.2558 19.73366,9.6744 31.24496,9.6744 9.04459,-0.8062 23.0226,-2.4186 27.13378,-9.6744"
         id="path3992-4-94-7-98-1-3-4-7-3-5-3-43-4-4-4"
         inkscape:connector-curvature="0"
         sodipodi:nodetypes="cac" />
      <path
         sodipodi:nodetypes="ccc"
         inkscape:connector-curvature="0"
         id="path7494-1-6-3-5-81-64-9-2-0-5-7-3-2-4-0-3-6-0"
         d="m 380.0664,372.1874 c -0.24667,19.3488 -57.5565,-25.7984 -71.12339,-37.0852 14.3069,-13.7054 36.17838,-39.5038 48.34746,-33.8604"
         style="fill:none;stroke:#000000;stroke-width:2.44253516;stroke-linecap:round;stroke-linejoin:round;stroke-miterlimit:4;stroke-opacity:1;stroke-dasharray:none;marker-start:url(#marker7359);marker-end:url(#marker7359)" />
      <path
         transform="matrix(-0.73532544,0,0,0.72098466,377.10636,319.7844)"
         sodipodi:open="true"
         sodipodi:end="6.278"
         sodipodi:start="0"
         d="m 77.75,50.32 c 0,11.045695 -8.954305,20 -20,20 -11.045695,0 -20,-8.954305 -20,-20 0,-11.045695 8.954305,-20 20,-20 11.005217,0 19.942666,8.891225 19.999731,19.896294"
         sodipodi:ry="20"
         sodipodi:rx="20"
         sodipodi:cy="50.32"
         sodipodi:cx="57.75"
         id="path4050-8-0-9-9-5-9-7-8-9-5-5-6-4-79-9-2"
         style="color:#000000;fill:#ffffff;fill-opacity:1;stroke:#00000f;stroke-width:3;stroke-linecap:round;stroke-linejoin:miter;stroke-miterlimit:4;stroke-opacity:0.94120029;stroke-dasharray:none;stroke-dashoffset:0;marker:none;visibility:visible;display:inline;overflow:visible;enable-background:accumulate"
         sodipodi:type="arc" />
      <text
         transform="scale(1.0098963,0.99020067)"
         sodipodi:linespacing="125%"
         id="text17174-0-6-24-6-2"
         y="365.15439"
         x="327.33212"
         style="font-size:16.66330147px;font-style:normal;font-variant:normal;font-weight:normal;font-stretch:normal;text-align:start;line-height:125%;letter-spacing:0px;word-spacing:0px;writing-mode:lr-tb;text-anchor:start;fill:#000000;fill-opacity:1;stroke:none;font-family:Standard Symbols L;-inkscape-font-specification:Standard Symbols L"
         xml:space="preserve"><tspan
           y="365.15439"
           x="327.33212"
           id="tspan17176-0-8-8-9-5"
           sodipodi:role="line">7</tspan><tspan
           y="385.98352"
           x="327.33212"
           sodipodi:role="line"
           id="tspan6477" /></text>
    </g>
  </g>
</svg>
