<?xml version="1.0" encoding="UTF-8" standalone="no"?>
<!-- Created with Inkscape (http://www.inkscape.org/) -->

<svg
   xmlns:dc="http://purl.org/dc/elements/1.1/"
   xmlns:cc="http://creativecommons.org/ns#"
   xmlns:rdf="http://www.w3.org/1999/02/22-rdf-syntax-ns#"
   xmlns:svg="http://www.w3.org/2000/svg"
   xmlns="http://www.w3.org/2000/svg"
   xmlns:sodipodi="http://sodipodi.sourceforge.net/DTD/sodipodi-0.dtd"
   xmlns:inkscape="http://www.inkscape.org/namespaces/inkscape"
   width="198.06175"
   height="221.95792"
   id="svg18587"
   version="1.1"
   inkscape:version="0.48.4 r9939"
   sodipodi:docname="Новий документ 287">
  <defs
     id="defs18589" />
  <sodipodi:namedview
     id="base"
     pagecolor="#ffffff"
     bordercolor="#666666"
     borderopacity="1.0"
     inkscape:pageopacity="0.0"
     inkscape:pageshadow="2"
     inkscape:zoom="1.979899"
     inkscape:cx="166.56893"
     inkscape:cy="105.13449"
     inkscape:document-units="px"
     inkscape:current-layer="layer1"
     showgrid="false"
     fit-margin-top="0"
     fit-margin-left="0"
     fit-margin-right="0"
     fit-margin-bottom="0"
     inkscape:window-width="1855"
     inkscape:window-height="1056"
     inkscape:window-x="65"
     inkscape:window-y="24"
     inkscape:window-maximized="1" />
  <metadata
     id="metadata18592">
    <rdf:RDF>
      <cc:Work
         rdf:about="">
        <dc:format>image/svg+xml</dc:format>
        <dc:type
           rdf:resource="http://purl.org/dc/dcmitype/StillImage" />
        <dc:title></dc:title>
      </cc:Work>
    </rdf:RDF>
  </metadata>
  <g
     inkscape:label="Layer 1"
     inkscape:groupmode="layer"
     id="layer1"
     transform="translate(-175.25117,-361.38711)">
    <g
       id="g18662">
      <g
         id="text6934-6-9-7-0-1-7-4-2-0"
         style="font-size:14.72619343px;font-style:normal;font-variant:normal;font-weight:normal;font-stretch:normal;text-align:start;line-height:125%;letter-spacing:0px;word-spacing:0px;writing-mode:lr-tb;text-anchor:start;fill:#000000;fill-opacity:1;stroke:none;font-family:Standard Symbols L;-inkscape-font-specification:Standard Symbols L"
         transform="scale(1.0147877,0.9854278)">
        <path
           id="path18654"
           d="m 254.34241,372.7928 0,3.93322 2.32973,0 c 0.78136,0 1.359,-0.16059 1.73291,-0.48176 0.3787,-0.32597 0.56805,-0.82212 0.56805,-1.48844 0,-0.67112 -0.18935,-1.16486 -0.56805,-1.48125 -0.37391,-0.32117 -0.95155,-0.48176 -1.73291,-0.48177 l -2.32973,0 m 0,-4.41498 0,3.23574 2.14996,0 c 0.70946,0 1.23677,-0.13182 1.58192,-0.39548 0.34993,-0.26844 0.5249,-0.6759 0.52491,-1.22239 -10e-6,-0.54168 -0.17498,-0.94674 -0.52491,-1.2152 -0.34515,-0.26844 -0.87246,-0.40266 -1.58192,-0.40267 l -2.14996,0 m -1.45249,-1.19363 3.71031,0 c 1.10734,2e-5 1.96061,0.23011 2.55983,0.6903 0.5992,0.4602 0.89881,1.11454 0.89881,1.96301 0,0.65674 -0.1534,1.17925 -0.46019,1.56753 -0.3068,0.3883 -0.75741,0.63038 -1.35182,0.72625 0.71425,0.1534 1.26792,0.47458 1.66101,0.96353 0.39787,0.48416 0.59681,1.09056 0.59682,1.8192 -10e-6,0.95874 -0.32598,1.69936 -0.97792,2.22187 -0.65194,0.52251 -1.57952,0.78377 -2.78273,0.78377 l -3.85412,0 0,-10.73546"
           inkscape:connector-curvature="0" />
        <path
           id="path18656"
           d="m 266.58787,373.87138 c -1.069,1e-5 -1.80962,0.12224 -2.22187,0.36672 -0.41226,0.24448 -0.61839,0.66153 -0.61839,1.25115 0,0.46978 0.1534,0.84369 0.4602,1.12172 0.31158,0.27324 0.73343,0.40986 1.26553,0.40986 0.73343,0 1.32065,-0.25886 1.76168,-0.77657 0.4458,-0.52251 0.66871,-1.2152 0.66872,-2.07807 l 0,-0.29481 -1.31587,0 m 2.63892,-0.54648 0,4.59475 -1.32305,0 0,-1.22239 c -0.30201,0.48895 -0.67832,0.85088 -1.12892,1.08577 -0.45061,0.23009 -1.00188,0.34514 -1.65382,0.34514 -0.82451,0 -1.48125,-0.23009 -1.9702,-0.69029 -0.48416,-0.46498 -0.72624,-1.08577 -0.72624,-1.86234 0,-0.90601 0.302,-1.58911 0.906,-2.0493 0.6088,-0.46019 1.5148,-0.69029 2.71802,-0.69029 l 1.85516,0 0,-0.12943 c -1e-5,-0.60879 -0.20134,-1.07858 -0.60401,-1.40935 -0.39788,-0.33555 -0.95874,-0.50333 -1.68258,-0.50333 -0.4602,0 -0.90841,0.0551 -1.34463,0.16538 -0.43623,0.11026 -0.85567,0.27564 -1.25834,0.49615 l 0,-1.22239 c 0.48416,-0.18695 0.95394,-0.32597 1.40934,-0.41705 0.4554,-0.0959 0.89881,-0.14381 1.33025,-0.14381 1.16486,0 2.03491,0.30201 2.61016,0.906 0.57523,0.60401 0.86285,1.51961 0.86286,2.74678"
           inkscape:connector-curvature="0" />
        <path
           id="path18658"
           d="m 277.75475,370.17545 0,1.23677 c -0.37391,-0.20612 -0.75021,-0.35952 -1.12891,-0.46019 -0.37391,-0.10545 -0.75261,-0.15819 -1.1361,-0.15819 -0.85807,0 -1.5244,0.27324 -1.99897,0.81972 -0.47457,0.54169 -0.71186,1.30388 -0.71186,2.28658 0,0.98271 0.23729,1.7473 0.71186,2.29378 0.47457,0.54169 1.1409,0.81253 1.99897,0.81253 0.38349,0 0.76219,-0.0503 1.1361,-0.151 0.3787,-0.10546 0.755,-0.26125 1.12891,-0.46738 l 0,1.22238 c -0.36912,0.17258 -0.75261,0.30201 -1.15048,0.38829 -0.39309,0.0863 -0.81253,0.12943 -1.25834,0.12943 -1.21281,0 -2.17634,-0.3811 -2.89059,-1.14329 -0.71426,-0.76219 -1.07139,-1.79044 -1.07139,-3.08474 0,-1.31346 0.35952,-2.3465 1.07858,-3.09911 0.72384,-0.7526 1.71374,-1.12891 2.96968,-1.12891 0.40746,0 0.80534,0.0431 1.19363,0.12943 0.38828,0.0815 0.76459,0.20613 1.12891,0.3739"
           inkscape:connector-curvature="0" />
        <path
           id="path18660"
           d="m 280.01977,366.73119 1.33025,0 0,6.60809 3.94759,-3.47302 1.68978,0 -4.27117,3.76783 4.45093,4.28556 -1.72573,0 -4.0914,-3.93322 0,3.93322 -1.33025,0 0,-11.18846"
           inkscape:connector-curvature="0" />
      </g>
      <path
         sodipodi:nodetypes="cc"
         inkscape:connector-curvature="0"
         id="path8584-1-4-6-3-4-4-4-4-6-0-1-4-7-3-7-3"
         d="m 342.43836,485.8773 c 1.66044,-16.124 5.81154,-45.9534 -0.83022,-61.2712"
         style="fill:none;stroke:#dba981;stroke-width:1.29345059;stroke-linecap:round;stroke-linejoin:miter;stroke-miterlimit:4;stroke-opacity:1;stroke-dasharray:3.88035185, 1.29345062;stroke-dashoffset:0" />
      <path
         sodipodi:nodetypes="cc"
         inkscape:connector-curvature="0"
         id="path8584-6-7-8-0-3-1-3-3-1-8-4-9-2-9-2-2"
         d="m 208.77295,485.0711 c -7.47198,-48.372 -6.64176,-50.7906 -4.98132,-64.496"
         style="fill:none;stroke:#dba981;stroke-width:1.29345059;stroke-linecap:round;stroke-linejoin:miter;stroke-miterlimit:4;stroke-opacity:1;stroke-dasharray:3.88035185, 1.29345062;stroke-dashoffset:0" />
      <path
         sodipodi:nodetypes="cc"
         inkscape:connector-curvature="0"
         id="path3992-4-77-9-5-7-1-2-90-18-5-4-9-2-9-7"
         d="m 244.47241,402.0325 c 12.4533,-4.8372 44.00165,-5.6434 56.45495,0"
         style="fill:none;stroke:#dba981;stroke-width:1.29345059;stroke-linecap:round;stroke-linejoin:miter;stroke-miterlimit:4;stroke-opacity:1;stroke-dasharray:3.88035185, 1.29345062;stroke-dashoffset:0" />
      <path
         sodipodi:nodetypes="ccccacccccccc"
         inkscape:connector-curvature="0"
         id="path15418-3-7-3-7-1-3"
         d="m 217.90537,577.7841 c -0.83022,-20.155 -3.32088,-32.248 -4.98132,-48.372 -1.66044,-14.5116 -0.83022,-29.8294 -4.98132,-42.7286 -3.32088,-7.2558 -58.19842,-29.8294 -14.11374,-62.0774 9.13242,-7.2558 24.07638,-4.8372 33.2088,-11.2868 9.96264,-6.4496 20.7555,-8.8682 21.58572,-26.6046 6.64176,-1.6124 15.77418,-2.4186 24.90659,-2.4186 8.3022,0 15.77418,1.6124 21.58572,3.2248 0.83022,4.8372 5.81154,13.7054 10.79286,17.7364 14.11374,12.8992 45.6621,16.124 52.30386,24.9922 33.2088,35.4728 -3.32088,41.1162 -15.77418,57.2402 -4.98132,10.4806 -4.1511,29.8294 -5.81154,39.5038 -3.32088,16.124 -6.64176,36.279 -5.81154,54.8216"
         style="fill:none;stroke:#dba981;stroke-width:3.04423141;stroke-linecap:round;stroke-linejoin:miter;stroke-miterlimit:4;stroke-opacity:1;stroke-dasharray:none" />
      <path
         sodipodi:nodetypes="cc"
         inkscape:connector-curvature="0"
         id="path3992-4-77-9-5-7-1-2-9-8-8-6-2-3-2-0-4-0-0-3"
         d="m 217.07515,579.3965 113.74013,0.8062"
         style="fill:none;stroke:#dba981;stroke-width:1.21752882;stroke-linecap:round;stroke-linejoin:miter;stroke-miterlimit:4;stroke-opacity:1;stroke-dasharray:3.65258673, 1.21752891;stroke-dashoffset:0" />
      <path
         style="opacity:0.3;fill:none;stroke:#000000;stroke-width:1.29345059;stroke-linecap:round;stroke-linejoin:miter;stroke-miterlimit:4;stroke-opacity:0;stroke-dasharray:3.88035185, 1.29345062;stroke-dashoffset:0"
         d="m 251.94439,405.2573 c 1.66044,5.6434 15.77418,8.062 24.90659,8.062 7.47198,-0.8062 18.26484,-2.4186 21.58572,-8.062"
         id="path3992-4-94-7-98-1-3-4-7-3-5-3-43-4-4-8-6-3-1-7"
         inkscape:connector-curvature="0"
         sodipodi:nodetypes="cac" />
      <path
         style="fill:none;stroke:#dba981;stroke-width:1.21752882;stroke-linecap:round;stroke-linejoin:miter;stroke-miterlimit:4;stroke-opacity:1;stroke-dasharray:3.65258673, 1.21752891;stroke-dashoffset:0"
         d="m 206.28229,485.8773 136.98629,0"
         id="path3992-4-77-9-5-7-1-2-9-8-8-6-2-3-7-6-31-8-9-0-4"
         inkscape:connector-curvature="0"
         sodipodi:nodetypes="cc" />
      <path
         sodipodi:nodetypes="cc"
         inkscape:connector-curvature="0"
         id="path3992-4-77-9-5-7-1-2-9-8-8-6-2-3-7-6-31-8-2-4-2-3"
         d="m 273.5301,398.0015 0,182.2012"
         style="fill:none;stroke:#dba981;stroke-width:1.21752882;stroke-linecap:round;stroke-linejoin:miter;stroke-miterlimit:4;stroke-opacity:1;stroke-dasharray:3.65258673, 1.21752891;stroke-dashoffset:0" />
      <path
         sodipodi:nodetypes="cc"
         inkscape:connector-curvature="0"
         id="path3992-4-77-9-5-7-1-2-9-8-8-6-2-3-7-6-31-8-1-8-8-9"
         d="m 273.5301,447.1797 71.39892,0"
         style="fill:none;stroke:#dba981;stroke-width:1.21752882;stroke-linecap:round;stroke-linejoin:miter;stroke-miterlimit:4;stroke-opacity:1;stroke-dasharray:3.65258673, 1.21752891;stroke-dashoffset:0" />
      <path
         style="opacity:0.3;fill:none;stroke:#000000;stroke-width:1.6362437;stroke-linecap:round;stroke-linejoin:miter;stroke-miterlimit:4;stroke-opacity:0;stroke-dasharray:4.90873099, 1.63624366;stroke-dashoffset:0"
         d="m 249.45373,407.6759 c 2.49066,7.2558 19.92527,9.6744 31.54835,9.6744 9.13242,-0.8062 23.24616,-2.4186 27.39726,-9.6744"
         id="path3992-4-94-7-98-1-3-4-7-3-5-3-43-4-4-4-4"
         inkscape:connector-curvature="0"
         sodipodi:nodetypes="cac" />
      <path
         sodipodi:nodetypes="cccc"
         inkscape:connector-curvature="0"
         id="path7494-1-6-3-5-81-64-9-2-0-5-7-3-2-4-0-3-6-7"
         d="m 346.58946,485.0711 c 0.83022,6.4496 -49.8132,1.6124 -73.05936,0.8062 m 0,-87.0696 c 15.77418,0 32.37858,4.8372 44.83188,12.8992"
         style="fill:none;stroke:#000000;stroke-width:2.45436549;stroke-linecap:round;stroke-linejoin:round;stroke-miterlimit:4;stroke-opacity:1;stroke-dasharray:none;marker-start:url(#marker7359);marker-end:url(#marker7359)" />
      <path
         sodipodi:nodetypes="cc"
         inkscape:connector-curvature="0"
         id="path10713-0-7-06"
         d="m 317.53176,411.7069 c 19.92528,7.2558 30.71814,45.1472 29.0577,71.7518"
         style="fill:none;stroke:#aaaaaa;stroke-width:2.39390635;stroke-linecap:butt;stroke-linejoin:miter;stroke-miterlimit:4;stroke-opacity:1;stroke-dasharray:7.18171888, 2.39390629;stroke-dashoffset:0" />
      <path
         sodipodi:type="arc"
         style="color:#000000;fill:#ffffff;fill-opacity:1;stroke:#00000f;stroke-width:3;stroke-linecap:round;stroke-linejoin:miter;stroke-miterlimit:4;stroke-opacity:0.94120029;stroke-dasharray:none;stroke-dashoffset:0;marker:none;visibility:visible;display:inline;overflow:visible;enable-background:accumulate"
         id="path4050-8-0-9-9-5-9-7-8-9-5-5-6-4-7"
         sodipodi:cx="57.75"
         sodipodi:cy="50.32"
         sodipodi:rx="20"
         sodipodi:ry="20"
         d="m 77.75,50.32 c 0,11.045695 -8.954305,20 -20,20 -11.045695,0 -20,-8.954305 -20,-20 0,-11.045695 8.954305,-20 20,-20 11.005217,0 19.942666,8.891225 19.999731,19.896294"
         sodipodi:start="0"
         sodipodi:end="6.278"
         sodipodi:open="true"
         transform="matrix(-0.74246571,0,0,0.72098466,350.74056,456.0479)" />
      <text
         transform="scale(1.0147877,0.9854278)"
         xml:space="preserve"
         style="font-size:16.74400902px;font-style:normal;font-variant:normal;font-weight:normal;font-stretch:normal;text-align:start;line-height:125%;letter-spacing:0px;word-spacing:0px;writing-mode:lr-tb;text-anchor:start;fill:#000000;fill-opacity:1;stroke:none;font-family:Standard Symbols L;-inkscape-font-specification:Standard Symbols L"
         x="299.73956"
         y="504.56354"
         id="text17174-0-6-3"
         sodipodi:linespacing="125%"><tspan
           sodipodi:role="line"
           id="tspan17176-0-8-70"
           x="299.73956"
           y="504.56354">8</tspan></text>
    </g>
  </g>
</svg>
